<?xml version="1.0" encoding="UTF-8" standalone="no"?>
<!DOCTYPE svg PUBLIC "-//W3C//DTD SVG 1.1//EN"
 "http://www.w3.org/Graphics/SVG/1.1/DTD/svg11.dtd">
<!-- Generated by graphviz version 2.36.0 (20140111.2315)
 -->
<!-- Title: %3 Pages: 1 -->
<svg width="224pt" height="228pt"
 viewBox="0.00 0.00 224.31 228.17" xmlns="http://www.w3.org/2000/svg" xmlns:xlink="http://www.w3.org/1999/xlink">
<g id="graph0" class="graph" transform="scale(1 1) rotate(0) translate(4 224.165)">
<title>%3</title>
<polygon fill="white" stroke="none" points="-4,4 -4,-224.165 220.309,-224.165 220.309,4 -4,4"/>
<!-- 0 -->
<g id="node1" class="node"><title>0</title>
<ellipse fill="#1874cd" stroke="black" cx="46.5026" cy="-53.1215" rx="21.5" ry="21.5"/>
</g>
<!-- 3 -->
<g id="node4" class="node"><title>3</title>
<ellipse fill="#1874cd" stroke="black" cx="3.5" cy="-96.3776" rx="3.5" ry="3.5"/>
</g>
<!-- 0&#45;&#45;3 -->
<g id="edge4" class="edge"><title>0&#45;&#45;3</title>
<path fill="none" stroke="black" d="M30.9777,-68.7379C21.7395,-78.0306 10.9024,-88.9315 6.06123,-93.8012"/>
</g>
<!-- 4 -->
<g id="node5" class="node"><title>4</title>
<ellipse fill="#1874cd" stroke="black" cx="11.1855" cy="-3.5" rx="3.5" ry="3.5"/>
</g>
<!-- 0&#45;&#45;4 -->
<g id="edge5" class="edge"><title>0&#45;&#45;4</title>
<path fill="none" stroke="black" d="M33.9517,-35.4871C26.3383,-24.7901 17.339,-12.1459 13.3152,-6.4923"/>
</g>
<!-- anon_0_1_0 -->
<g id="node7" class="node"><title>anon_0_1_0</title>
<ellipse fill="white" stroke="black" cx="104.955" cy="-39.7675" rx="2.5" ry="2.5"/>
</g>
<!-- 0&#45;&#45;anon_0_1_0 -->
<g id="edge1" class="edge"><title>0&#45;&#45;anon_0_1_0</title>
<path fill="none" stroke="black" d="M67.6051,-48.3004C80.6855,-45.3121 96.1241,-41.7849 102.253,-40.3848"/>
</g>
<!-- 1 -->
<g id="node2" class="node"><title>1</title>
<ellipse fill="#1874cd" stroke="black" cx="181.191" cy="-80.1242" rx="9" ry="9"/>
</g>
<!-- anon_1_2_0 -->
<g id="node9" class="node"><title>anon_1_2_0</title>
<ellipse fill="white" stroke="black" cx="201.971" cy="-122.731" rx="2.5" ry="2.5"/>
</g>
<!-- 1&#45;&#45;anon_1_2_0 -->
<g id="edge6" class="edge"><title>1&#45;&#45;anon_1_2_0</title>
<path fill="none" stroke="black" d="M185.198,-88.3393C190.01,-98.2056 197.804,-114.187 200.772,-120.272"/>
</g>
<!-- 2 -->
<g id="node3" class="node"><title>2</title>
<ellipse fill="#1874cd" stroke="black" cx="207.309" cy="-169.823" rx="9" ry="9"/>
</g>
<!-- 5 -->
<g id="node6" class="node"><title>5</title>
<ellipse fill="#1874cd" stroke="black" cx="194.907" cy="-216.665" rx="3.5" ry="3.5"/>
</g>
<!-- 2&#45;&#45;5 -->
<g id="edge8" class="edge"><title>2&#45;&#45;5</title>
<path fill="none" stroke="black" d="M204.918,-178.854C202.159,-189.276 197.756,-205.904 195.844,-213.125"/>
</g>
<!-- anon_0_1_1 -->
<g id="node8" class="node"><title>anon_0_1_1</title>
<ellipse fill="white" stroke="black" cx="144.788" cy="-49.7772" rx="2.5" ry="2.5"/>
</g>
<!-- anon_0_1_0&#45;&#45;anon_0_1_1 -->
<g id="edge2" class="edge"><title>anon_0_1_0&#45;&#45;anon_0_1_1</title>
<path fill="none" stroke="black" d="M107.568,-40.4243C114.769,-42.2336 134.839,-47.2772 142.113,-49.1049"/>
</g>
<!-- anon_0_1_1&#45;&#45;1 -->
<g id="edge3" class="edge"><title>anon_0_1_1&#45;&#45;1</title>
<path fill="none" stroke="black" d="M146.746,-51.4088C151.826,-55.6439 165.629,-67.1507 174.14,-74.246"/>
</g>
<!-- anon_1_2_0&#45;&#45;2 -->
<g id="edge7" class="edge"><title>anon_1_2_0&#45;&#45;2</title>
<path fill="none" stroke="black" d="M202.258,-125.263C203.003,-131.835 205.027,-149.691 206.275,-160.701"/>
</g>
</g>
</svg>
