<?xml version="1.0" encoding="UTF-8" standalone="no"?>
<!DOCTYPE svg PUBLIC "-//W3C//DTD SVG 1.1//EN"
 "http://www.w3.org/Graphics/SVG/1.1/DTD/svg11.dtd">
<!-- Generated by graphviz version 2.38.0 (20140413.2041)
 -->
<!-- Title: %3 Pages: 1 -->
<svg width="361pt" height="499pt"
 viewBox="0.00 0.00 360.99 498.55" xmlns="http://www.w3.org/2000/svg" xmlns:xlink="http://www.w3.org/1999/xlink">
<g id="graph0" class="graph" transform="scale(1 1) rotate(0) translate(162.455 346.447)">
<title>%3</title>
<polygon fill="white" stroke="none" points="-162.455,152.106 -162.455,-346.447 198.534,-346.447 198.534,152.106 -162.455,152.106"/>
<!-- 0 -->
<g id="node1" class="node"><title>0</title>
<path fill="olivedrab" stroke="black" stroke-width="0.5" d="M-37.8478,90.2818C-37.8478,90.2818 -25.8478,90.2818 -25.8478,90.2818 -25.8478,89.8533 -25.8707,89.4251 -25.9165,88.999 -25.9623,88.573 -26.0309,88.1497 -26.122,87.731 -26.2131,87.3123 -26.3265,86.8987 -26.4619,86.4922 -26.5972,86.0856 -26.7542,85.6866 -26.9322,85.2968 -27.1102,84.907 -27.3089,84.527 -27.5276,84.1585 -27.7462,83.79 -27.9845,83.4335 -28.2413,83.0904 -28.4981,82.7474 -28.773,82.4184 -29.065,82.1047 -29.357,81.7911 -29.6656,81.4934 -29.9894,81.2128 -30.3133,80.9321 -30.6519,80.6691 -31.0039,80.4247 -31.3559,80.1803 -31.7207,79.955 -32.0968,79.7496 -32.4729,79.5442 -32.8597,79.3592 -33.2556,79.1952 -33.6514,79.0312 -34.0558,78.8886 -34.467,78.7678 -34.8781,78.6471 -35.2954,78.5485 -35.7171,78.4724 -36.1388,78.3963 -36.5643,78.3429 -36.9917,78.3123 -37.4191,78.2818 -37.8478,78.2741 -38.2761,78.2894 -38.7043,78.3047 -39.1314,78.3429 -39.5555,78.4039 -39.5555,78.4039 -37.8478,90.2818 -37.8478,90.2818"/>
<path fill="#1874cd" stroke="black" stroke-width="0.5" d="M-37.8478,90.2818C-37.8478,90.2818 -39.5555,78.4039 -39.5555,78.4039 -40.1212,78.4852 -40.6803,78.6068 -41.2286,78.7678 -41.7768,78.9288 -42.3129,79.1288 -42.8327,79.3662 -43.3525,79.6036 -43.8547,79.8778 -44.3355,80.1867 -44.8162,80.4957 -45.2742,80.8385 -45.7061,81.2128 -46.138,81.587 -46.5425,81.9916 -46.9168,82.4234 -47.291,82.8553 -47.6339,83.3133 -47.9428,83.7941 -48.2517,84.2748 -48.526,84.777 -48.7633,85.2968 -49.0007,85.8166 -49.2007,86.3527 -49.3617,86.901 -49.5227,87.4493 -49.6443,88.0084 -49.7256,88.574 -49.8069,89.1396 -49.8478,89.7103 -49.8478,90.2818 -49.8478,90.8532 -49.8069,91.4239 -49.7256,91.9895 -49.6443,92.5552 -49.5227,93.1142 -49.3617,93.6625 -49.2007,94.2108 -49.0007,94.7469 -48.7633,95.2667 -48.526,95.7865 -48.2517,96.2887 -47.9428,96.7694 -47.6339,97.2502 -47.291,97.7082 -46.9168,98.1401 -46.5425,98.5719 -46.138,98.9765 -45.7061,99.3507 -45.2742,99.725 -44.8162,100.068 -44.3355,100.377 -43.8547,100.686 -43.3525,100.96 -42.8327,101.197 -42.3129,101.435 -41.7768,101.635 -41.2286,101.796 -40.6803,101.957 -40.1212,102.078 -39.5555,102.16 -38.9899,102.241 -38.4192,102.282 -37.8478,102.282 -37.2763,102.282 -36.7056,102.241 -36.14,102.16 -35.5744,102.078 -35.0153,101.957 -34.467,101.796 -33.9187,101.635 -33.3826,101.435 -32.8628,101.197 -32.343,100.96 -31.8408,100.686 -31.3601,100.377 -30.8793,100.068 -30.4213,99.725 -29.9894,99.3507 -29.5576,98.9765 -29.153,98.5719 -28.7788,98.1401 -28.4046,97.7082 -28.0617,97.2502 -27.7527,96.7694 -27.4438,96.2887 -27.1696,95.7865 -26.9322,95.2667 -26.6948,94.7469 -26.4948,94.2108 -26.3338,93.6625 -26.1729,93.1142 -26.0512,92.5552 -25.9699,91.9895 -25.8886,91.4239 -25.8478,90.8532 -25.8478,90.2818 -25.8478,90.2818 -37.8478,90.2818 -37.8478,90.2818"/>
<ellipse fill="none" stroke="black" cx="-37.8478" cy="90.2818" rx="12" ry="12"/>
<text text-anchor="middle" x="-37.8478" y="92.1818" font-family="monospace" font-size="8.00">0</text>
</g>
<!-- 8 -->
<g id="node9" class="node"><title>8</title>
<ellipse fill="olivedrab" stroke="black" cx="-64.5076" cy="144.606" rx="3.5" ry="3.5"/>
<text text-anchor="middle" x="-64.5076" y="146.506" font-family="monospace" font-size="8.00">8</text>
</g>
<!-- 0&#45;&gt;8 -->
<g id="edge2" class="edge"><title>0&#45;&gt;8</title>
<path fill="none" stroke="black" d="M-43.2428,101.275C-49.3288,113.676 -58.8844,133.148 -62.7738,141.073"/>
</g>
<!-- 1 -->
<g id="node2" class="node"><title>1</title>
<path fill="olivedrab" stroke="black" stroke-width="0.5" d="M-0.259978,40.6391C-0.259978,40.6391 13.74,40.6391 13.74,40.6391 13.74,40.1503 13.7144,39.6618 13.6633,39.1757 13.6122,38.6896 13.5357,38.2065 13.4341,37.7283 13.3325,37.2502 13.2059,36.7777 13.0548,36.3129 12.9038,35.848 12.7285,35.3913 12.5297,34.9448 12.3308,34.4983 12.1088,34.0624 11.8644,33.6391 11.62,33.2158 11.3536,32.8056 11.0663,32.4101 10.7789,32.0147 10.4711,31.6345 10.144,31.2713 9.81698,30.908 9.4711,30.5622 9.10785,30.2351 8.7446,29.908 8.36447,29.6002 7.96902,29.3129 7.57356,29.0256 7.16334,28.7592 6.74002,28.5148 6.31671,28.2704 5.88088,28.0483 5.43433,27.8495 4.98779,27.6507 4.53114,27.4754 4.06626,27.3243 3.60138,27.1733 3.12891,27.0467 2.65079,26.945 2.17266,26.8434 1.68955,26.7669 1.20342,26.7158 0.717294,26.6647 0.228825,26.6391 -0.259979,26.6391 -0.748783,26.6391 -1.23725,26.6647 -1.72338,26.7158 -2.2095,26.7669 -2.69262,26.8434 -3.17074,26.945 -3.64886,27.0467 -4.12134,27.1733 -4.58622,27.3243 -5.0511,27.4754 -5.50775,27.6507 -5.95429,27.8495 -6.40084,28.0483 -6.83666,28.2704 -7.25998,28.5148 -7.6833,28.7592 -8.09352,29.0256 -8.48897,29.3129 -8.88442,29.6002 -9.26456,29.908 -9.62781,30.2351 -9.99106,30.5622 -10.3369,30.908 -10.664,31.2713 -10.9911,31.6345 -11.2989,32.0147 -11.5862,32.4101 -11.8735,32.8056 -12.1399,33.2158 -12.3843,33.6391 -12.6287,34.0624 -12.8508,34.4983 -13.0496,34.9448 -13.2484,35.3913 -13.4237,35.848 -13.5748,36.3129 -13.7258,36.7778 -13.8524,37.2502 -13.954,37.7283 -14.0557,38.2065 -14.1322,38.6896 -14.1833,39.1757 -14.2344,39.6618 -14.26,40.1503 -14.26,40.6391 -14.26,41.1279 -14.2344,41.6164 -14.1833,42.1025 -14.1322,42.5886 -14.0557,43.0718 -13.954,43.5499 -13.954,43.5499 -0.259978,40.6391 -0.259978,40.6391"/>
<path fill="#1874cd" stroke="black" stroke-width="0.5" d="M-0.259978,40.6391C-0.259978,40.6391 -13.954,43.5499 -13.954,43.5499 -13.7761,44.387 -13.5218,45.206 -13.1943,45.9967 -12.8668,46.7873 -12.4675,47.5463 -12.0014,48.2641 -11.5353,48.9818 -11.0043,49.6553 -10.4152,50.2761 -9.82612,50.8969 -9.18133,51.4623 -8.48897,51.9653 -7.79661,52.4684 -7.05957,52.9069 -6.28713,53.2753 -5.51469,53.6437 -4.71009,53.9406 -3.88344,54.1621 -3.05679,54.3836 -2.21157,54.5288 -1.3584,54.596 -0.505233,54.6631 0.352301,54.6519 1.20342,54.5624 2.05454,54.473 2.89567,54.3056 3.71624,54.0626 4.5368,53.8195 5.33336,53.5017 6.09589,53.1132 6.85842,52.7247 7.58372,52.267 8.26268,51.7461 8.94164,51.2251 9.5714,50.6429 10.1441,50.0069 10.7167,49.3709 11.2298,48.6838 11.677,47.9541 12.1241,47.2244 12.5035,46.4552 12.8101,45.6563 13.1168,44.8573 13.3496,44.0319 13.5056,43.1904 13.6615,42.3489 13.74,41.4949 13.74,40.6391 13.74,40.6391 -0.259978,40.6391 -0.259978,40.6391"/>
<ellipse fill="none" stroke="black" cx="-0.259978" cy="40.6391" rx="14" ry="14"/>
<text text-anchor="middle" x="-0.259978" y="42.5391" font-family="monospace" font-size="8.00">1</text>
</g>
<!-- 1&#45;&gt;0 -->
<g id="edge1" class="edge"><title>1&#45;&gt;0</title>
<path fill="none" stroke="black" d="M-8.97785,52.1529C-14.4674,59.403 -21.5853,68.8038 -27.3798,76.4566"/>
<polygon fill="black" stroke="black" points="-26.0306,77.5737 -30.4441,80.5036 -28.821,75.4609 -26.0306,77.5737"/>
<text text-anchor="middle" x="-34.1788" y="61.7048" font-family="monospace" font-size="8.00">F1920S</text>
</g>
<!-- 2 -->
<g id="node3" class="node"><title>2</title>
<ellipse fill="#1874cd" stroke="black" cx="66.5701" cy="82.3166" rx="6" ry="6"/>
<text text-anchor="middle" x="66.5701" y="84.2166" font-family="monospace" font-size="8.00">2</text>
</g>
<!-- 1&#45;&gt;2 -->
<g id="edge3" class="edge"><title>1&#45;&gt;2</title>
<path fill="none" stroke="black" d="M11.6879,48.0902C26.4053,57.2685 50.7576,72.4554 61.3643,79.0701"/>
</g>
<!-- 5 -->
<g id="node6" class="node"><title>5</title>
<ellipse fill="olivedrab" stroke="black" cx="43.3661" cy="43.2444" rx="3.5" ry="3.5"/>
<text text-anchor="middle" x="43.3661" y="45.1444" font-family="monospace" font-size="8.00">5</text>
</g>
<!-- 1&#45;&gt;5 -->
<g id="edge7" class="edge"><title>1&#45;&gt;5</title>
<path fill="none" stroke="black" d="M14.0248,41.4922C20.7343,41.8928 28.527,42.3582 34.3945,42.7086"/>
<polygon fill="black" stroke="black" points="34.6222,40.969 39.509,43.014 34.4135,44.4628 34.6222,40.969"/>
<text text-anchor="middle" x="30.9597" y="48.5004" font-family="monospace" font-size="8.00">R537L</text>
</g>
<!-- 6 -->
<g id="node7" class="node"><title>6</title>
<ellipse fill="olivedrab" stroke="black" cx="-37.9432" cy="20.8761" rx="3.5" ry="3.5"/>
<text text-anchor="middle" x="-37.9432" y="22.7761" font-family="monospace" font-size="8.00">6</text>
</g>
<!-- 1&#45;&gt;6 -->
<g id="edge8" class="edge"><title>1&#45;&gt;6</title>
<path fill="none" stroke="black" d="M-13.0178,33.9482C-18.6627,30.9878 -25.1238,27.5992 -30.053,25.0141"/>
<polygon fill="black" stroke="black" points="-31.0743,26.4546 -34.6895,22.5825 -29.4487,23.355 -31.0743,26.4546"/>
<text text-anchor="middle" x="-37.5354" y="35.8812" font-family="monospace" font-size="8.00">H1755Y</text>
</g>
<!-- 7 -->
<g id="node8" class="node"><title>7</title>
<ellipse fill="olivedrab" stroke="black" cx="-7.385" cy="93.8378" rx="3.5" ry="3.5"/>
<text text-anchor="middle" x="-7.385" y="95.7378" font-family="monospace" font-size="8.00">7</text>
</g>
<!-- 1&#45;&gt;7 -->
<g id="edge9" class="edge"><title>1&#45;&gt;7</title>
<path fill="none" stroke="black" d="M-2.13199,54.6164C-3.71526,66.4378 -5.87844,82.5891 -6.86108,89.9259"/>
</g>
<!-- 9 -->
<g id="node10" class="node"><title>9</title>
<ellipse fill="olivedrab" stroke="black" cx="21.977" cy="89.8176" rx="3.5" ry="3.5"/>
<text text-anchor="middle" x="21.977" y="91.7176" font-family="monospace" font-size="8.00">9</text>
</g>
<!-- 1&#45;&gt;9 -->
<g id="edge10" class="edge"><title>1&#45;&gt;9</title>
<path fill="none" stroke="black" d="M5.58254,53.5602C9.6022,62.4499 14.8195,73.9884 18.2769,81.6345"/>
<polygon fill="black" stroke="black" points="20.0632,81.3376 20.5287,86.6145 16.8741,82.7796 20.0632,81.3376"/>
<text text-anchor="middle" x="-1.57028" y="64.9973" font-family="monospace" font-size="8.00">K251R</text>
</g>
<!-- anon_1_3_0 -->
<g id="node17" class="node"><title>anon_1_3_0</title>
<ellipse fill="white" stroke="black" cx="-67.0279" cy="44.3555" rx="2.5" ry="2.5"/>
</g>
<!-- 1&#45;&gt;anon_1_3_0 -->
<g id="edge4" class="edge"><title>1&#45;&gt;anon_1_3_0</title>
<path fill="none" stroke="black" d="M-14.4197,41.4273C-30.6503,42.3307 -56.0772,43.746 -64.3382,44.2058"/>
</g>
<!-- anon_1_11_0 -->
<g id="node19" class="node"><title>anon_1_11_0</title>
<ellipse fill="white" stroke="black" cx="-21.6677" cy="-23.8636" rx="2.5" ry="2.5"/>
</g>
<!-- 1&#45;&gt;anon_1_11_0 -->
<g id="edge11" class="edge"><title>1&#45;&gt;anon_1_11_0</title>
<path fill="none" stroke="black" d="M-4.69567,27.2741C-9.8884,11.6281 -18.1199,-13.174 -20.7961,-21.2375"/>
</g>
<!-- anon_1_12_0 -->
<g id="node28" class="node"><title>anon_1_12_0</title>
<ellipse fill="white" stroke="black" cx="52.4962" cy="-1.40347" rx="2.5" ry="2.5"/>
</g>
<!-- 1&#45;&gt;anon_1_12_0 -->
<g id="edge27" class="edge"><title>1&#45;&gt;anon_1_12_0</title>
<path fill="none" stroke="black" stroke-dasharray="5,2" d="M10.9283,31.723C23.7527,21.5029 43.8436,5.492 50.371,0.290168"/>
</g>
<!-- anon_2_4_0 -->
<g id="node23" class="node"><title>anon_2_4_0</title>
<ellipse fill="white" stroke="black" cx="107.522" cy="110.194" rx="2.5" ry="2.5"/>
</g>
<!-- 2&#45;&gt;anon_2_4_0 -->
<g id="edge16" class="edge"><title>2&#45;&gt;anon_2_4_0</title>
<path fill="none" stroke="black" d="M71.5915,85.735C80.4764,91.7833 98.6428,104.15 105.143,108.575"/>
</g>
<!-- 3 -->
<g id="node4" class="node"><title>3</title>
<ellipse fill="#1874cd" stroke="black" cx="-154.955" cy="40.8556" rx="3.5" ry="3.5"/>
<text text-anchor="middle" x="-154.955" y="42.7556" font-family="monospace" font-size="8.00">3</text>
</g>
<!-- 4 -->
<g id="node5" class="node"><title>4</title>
<ellipse fill="#1874cd" stroke="black" cx="191.034" cy="125.447" rx="3.5" ry="3.5"/>
<text text-anchor="middle" x="191.034" y="127.347" font-family="monospace" font-size="8.00">4</text>
</g>
<!-- 10 -->
<g id="node11" class="node"><title>10</title>
<ellipse fill="#1874cd" stroke="black" cx="114.561" cy="-279.526" rx="21.5" ry="21.5"/>
<text text-anchor="middle" x="114.561" y="-277.626" font-family="monospace" font-size="8.00">10</text>
</g>
<!-- 14 -->
<g id="node15" class="node"><title>14</title>
<ellipse fill="#1874cd" stroke="black" cx="110.763" cy="-338.947" rx="3.5" ry="3.5"/>
<text text-anchor="middle" x="110.763" y="-337.047" font-family="monospace" font-size="8.00">14</text>
</g>
<!-- 10&#45;&gt;14 -->
<g id="edge22" class="edge"><title>10&#45;&gt;14</title>
<path fill="none" stroke="black" d="M113.168,-301.315C112.355,-314.034 111.409,-328.842 110.986,-335.452"/>
</g>
<!-- 15 -->
<g id="node16" class="node"><title>15</title>
<ellipse fill="#1874cd" stroke="black" cx="179.656" cy="-299.702" rx="3.5" ry="3.5"/>
<text text-anchor="middle" x="179.656" y="-297.802" font-family="monospace" font-size="8.00">15</text>
</g>
<!-- 10&#45;&gt;15 -->
<g id="edge23" class="edge"><title>10&#45;&gt;15</title>
<path fill="none" stroke="black" d="M135.157,-285.91C149.758,-290.435 168.086,-296.116 175.874,-298.53"/>
</g>
<!-- anon_10_12_0 -->
<g id="node32" class="node"><title>anon_10_12_0</title>
<ellipse fill="white" stroke="black" cx="165.113" cy="-228.718" rx="2.5" ry="2.5"/>
</g>
<!-- 10&#45;&gt;anon_10_12_0 -->
<g id="edge32" class="edge"><title>10&#45;&gt;anon_10_12_0</title>
<path fill="none" stroke="black" stroke-dasharray="5,2" d="M129.728,-264.282C139.747,-254.212 152.304,-241.592 159.447,-234.413"/>
<polygon fill="black" stroke="black" points="160.838,-235.496 163.124,-230.717 158.357,-233.027 160.838,-235.496"/>
<text text-anchor="middle" x="131.087" y="-251.947" font-family="monospace" font-size="8.00">G317S</text>
</g>
<!-- 11 -->
<g id="node12" class="node"><title>11</title>
<ellipse fill="#1874cd" stroke="black" cx="2.09354" cy="-195.742" rx="9" ry="9"/>
<text text-anchor="middle" x="2.09354" y="-193.842" font-family="monospace" font-size="8.00">11</text>
</g>
<!-- 13 -->
<g id="node14" class="node"><title>13</title>
<ellipse fill="#1874cd" stroke="black" cx="-44.7151" cy="-229.23" rx="3.5" ry="3.5"/>
<text text-anchor="middle" x="-44.7151" y="-227.33" font-family="monospace" font-size="8.00">13</text>
</g>
<!-- 11&#45;&gt;13 -->
<g id="edge26" class="edge"><title>11&#45;&gt;13</title>
<path fill="none" stroke="black" d="M-5.63595,-201.272C-16.2304,-208.851 -34.7556,-222.105 -41.8443,-227.176"/>
</g>
<!-- anon_10_11_1 -->
<g id="node26" class="node"><title>anon_10_11_1</title>
<ellipse fill="white" stroke="black" cx="17.9591" cy="-248.868" rx="2.5" ry="2.5"/>
</g>
<!-- 11&#45;&gt;anon_10_11_1 -->
<g id="edge21" class="edge"><title>11&#45;&gt;anon_10_11_1</title>
<path fill="none" stroke="black" d="M4.71342,-204.514C7.77407,-214.763 12.7875,-231.551 15.6892,-241.267"/>
<polygon fill="black" stroke="black" points="14.0152,-241.777 17.1229,-246.068 17.3689,-240.776 14.0152,-241.777"/>
<text text-anchor="middle" x="-5.79869" y="-225.491" font-family="monospace" font-size="8.00">I1940T</text>
</g>
<!-- anon_11_12_0 -->
<g id="node27" class="node"><title>anon_11_12_0</title>
<ellipse fill="white" stroke="black" cx="58.4124" cy="-183.08" rx="2.5" ry="2.5"/>
</g>
<!-- 11&#45;&gt;anon_11_12_0 -->
<g id="edge24" class="edge"><title>11&#45;&gt;anon_11_12_0</title>
<path fill="none" stroke="black" d="M10.8934,-193.763C21.8586,-191.298 40.4145,-187.126 50.7969,-184.792"/>
<polygon fill="black" stroke="black" points="51.3518,-186.461 55.8462,-183.657 50.5841,-183.046 51.3518,-186.461"/>
<text text-anchor="middle" x="44.3451" y="-191.878" font-family="monospace" font-size="8.00">G317S</text>
</g>
<!-- 12 -->
<g id="node13" class="node"><title>12</title>
<ellipse fill="#1874cd" stroke="black" cx="111.225" cy="-156.557" rx="9" ry="9"/>
<text text-anchor="middle" x="111.225" y="-154.657" font-family="monospace" font-size="8.00">12</text>
</g>
<!-- 12&#45;&gt;anon_11_12_0 -->
<g id="edge25" class="edge"><title>12&#45;&gt;anon_11_12_0</title>
<path fill="none" stroke="black" d="M102.973,-160.701C92.6906,-165.865 75.2899,-174.604 65.5539,-179.493"/>
<polygon fill="black" stroke="black" points="64.5017,-178.063 60.8189,-181.871 66.0725,-181.191 64.5017,-178.063"/>
<text text-anchor="middle" x="68.2635" y="-172.697" font-family="monospace" font-size="8.00">S1683I</text>
</g>
<!-- anon_10_12_1 -->
<g id="node33" class="node"><title>anon_10_12_1</title>
<ellipse fill="white" stroke="black" cx="155.498" cy="-188.803" rx="2.5" ry="2.5"/>
</g>
<!-- 12&#45;&gt;anon_10_12_1 -->
<g id="edge34" class="edge"><title>12&#45;&gt;anon_10_12_1</title>
<path fill="none" stroke="black" stroke-dasharray="5,2" d="M118.536,-161.882C126.997,-168.044 140.805,-178.102 148.935,-184.023"/>
<polygon fill="black" stroke="black" points="148.092,-185.574 153.164,-187.103 150.153,-182.745 148.092,-185.574"/>
<text text-anchor="middle" x="117.735" y="-175.552" font-family="monospace" font-size="8.00">I1940T</text>
</g>
<!-- anon_1_3_1 -->
<g id="node18" class="node"><title>anon_1_3_1</title>
<ellipse fill="white" stroke="black" cx="-113.046" cy="45.3721" rx="2.5" ry="2.5"/>
</g>
<!-- anon_1_3_0&#45;&gt;anon_1_3_1 -->
<g id="edge5" class="edge"><title>anon_1_3_0&#45;&gt;anon_1_3_1</title>
<path fill="none" stroke="black" d="M-69.7687,44.416C-77.9729,44.5973 -102.268,45.134 -110.378,45.3132"/>
</g>
<!-- anon_1_3_1&#45;&gt;3 -->
<g id="edge6" class="edge"><title>anon_1_3_1&#45;&gt;3</title>
<path fill="none" stroke="black" d="M-115.796,45.0758C-123.08,44.2908 -142.883,42.1566 -151.199,41.2604"/>
</g>
<!-- anon_1_11_1 -->
<g id="node20" class="node"><title>anon_1_11_1</title>
<ellipse fill="white" stroke="black" cx="-41.5899" cy="-67.31" rx="2.5" ry="2.5"/>
</g>
<!-- anon_1_11_0&#45;&gt;anon_1_11_1 -->
<g id="edge12" class="edge"><title>anon_1_11_0&#45;&gt;anon_1_11_1</title>
<path fill="none" stroke="black" d="M-22.7388,-26.1995C-26.1656,-33.6727 -36.8447,-56.9616 -40.4144,-64.7464"/>
</g>
<!-- anon_1_11_2 -->
<g id="node21" class="node"><title>anon_1_11_2</title>
<ellipse fill="white" stroke="black" cx="-45.391" cy="-113.666" rx="2.5" ry="2.5"/>
</g>
<!-- anon_1_11_1&#45;&gt;anon_1_11_2 -->
<g id="edge13" class="edge"><title>anon_1_11_1&#45;&gt;anon_1_11_2</title>
<path fill="none" stroke="black" d="M-41.7943,-69.8023C-42.4481,-77.776 -44.4856,-102.625 -45.1667,-110.931"/>
</g>
<!-- anon_1_11_3 -->
<g id="node22" class="node"><title>anon_1_11_3</title>
<ellipse fill="white" stroke="black" cx="-26.7697" cy="-158.023" rx="2.5" ry="2.5"/>
</g>
<!-- anon_1_11_2&#45;&gt;anon_1_11_3 -->
<g id="edge14" class="edge"><title>anon_1_11_2&#45;&gt;anon_1_11_3</title>
<path fill="none" stroke="black" d="M-44.3898,-116.051C-41.1868,-123.681 -31.2051,-147.457 -27.8685,-155.405"/>
</g>
<!-- anon_1_11_3&#45;&gt;11 -->
<g id="edge15" class="edge"><title>anon_1_11_3&#45;&gt;11</title>
<path fill="none" stroke="black" d="M-25.2179,-160.051C-21.7563,-164.574 -13.187,-175.773 -6.56226,-184.43"/>
<polygon fill="black" stroke="black" points="-7.92561,-185.528 -3.49724,-188.436 -5.14602,-183.401 -7.92561,-185.528"/>
<text text-anchor="middle" x="-31.8901" y="-174.84" font-family="monospace" font-size="8.00">S1683I</text>
</g>
<!-- anon_2_4_1 -->
<g id="node24" class="node"><title>anon_2_4_1</title>
<ellipse fill="white" stroke="black" cx="148.967" cy="122.99" rx="2.5" ry="2.5"/>
</g>
<!-- anon_2_4_0&#45;&gt;anon_2_4_1 -->
<g id="edge17" class="edge"><title>anon_2_4_0&#45;&gt;anon_2_4_1</title>
<path fill="none" stroke="black" d="M110.241,111.034C117.732,113.347 138.615,119.794 146.183,122.131"/>
</g>
<!-- anon_2_4_1&#45;&gt;4 -->
<g id="edge18" class="edge"><title>anon_2_4_1&#45;&gt;4</title>
<path fill="none" stroke="black" d="M151.727,123.151C159.038,123.578 178.917,124.739 187.264,125.227"/>
</g>
<!-- anon_10_11_0 -->
<g id="node25" class="node"><title>anon_10_11_0</title>
<ellipse fill="white" stroke="black" cx="54.606" cy="-276.724" rx="2.5" ry="2.5"/>
</g>
<!-- anon_10_11_0&#45;&gt;10 -->
<g id="edge19" class="edge"><title>anon_10_11_0&#45;&gt;10</title>
<path fill="none" stroke="black" d="M57.1822,-276.845C62.5558,-277.096 75.4783,-277.7 87.7016,-278.271"/>
<polygon fill="black" stroke="black" points="87.7971,-280.027 92.8733,-278.513 87.9605,-276.531 87.7971,-280.027"/>
<text text-anchor="middle" x="79.1919" y="-271.158" font-family="monospace" font-size="8.00">D466H</text>
</g>
<!-- anon_10_11_0&#45;&gt;anon_10_11_1 -->
<g id="edge20" class="edge"><title>anon_10_11_0&#45;&gt;anon_10_11_1</title>
<path fill="none" stroke="black" d="M52.2015,-274.897C46.6103,-270.646 32.5834,-259.984 24.3206,-253.703"/>
<polygon fill="black" stroke="black" points="25.0873,-252.088 20.0477,-250.455 22.9692,-254.874 25.0873,-252.088"/>
<text text-anchor="middle" x="22.2611" y="-266.9" font-family="monospace" font-size="8.00">S1683I</text>
</g>
<!-- anon_1_12_1 -->
<g id="node29" class="node"><title>anon_1_12_1</title>
<ellipse fill="white" stroke="black" cx="91.6499" cy="-27.7179" rx="2.5" ry="2.5"/>
</g>
<!-- anon_1_12_0&#45;&gt;anon_1_12_1 -->
<g id="edge28" class="edge"><title>anon_1_12_0&#45;&gt;anon_1_12_1</title>
<path fill="none" stroke="black" stroke-dasharray="5,2" d="M54.6013,-2.81825C60.2838,-6.63736 76.1133,-17.276 85.1354,-23.3396"/>
<polygon fill="black" stroke="black" points="84.2136,-24.8286 89.3396,-26.1652 86.1659,-21.9237 84.2136,-24.8286"/>
<text text-anchor="middle" x="56.3683" y="-15.6789" font-family="monospace" font-size="8.00">G317S</text>
</g>
<!-- anon_1_12_2 -->
<g id="node30" class="node"><title>anon_1_12_2</title>
<ellipse fill="white" stroke="black" cx="119.222" cy="-64.2112" rx="2.5" ry="2.5"/>
</g>
<!-- anon_1_12_1&#45;&gt;anon_1_12_2 -->
<g id="edge29" class="edge"><title>anon_1_12_1&#45;&gt;anon_1_12_2</title>
<path fill="none" stroke="black" stroke-dasharray="5,2" d="M93.459,-30.1123C98.5386,-36.8357 112.873,-55.8082 117.65,-62.1314"/>
</g>
<!-- anon_1_12_3 -->
<g id="node31" class="node"><title>anon_1_12_3</title>
<ellipse fill="white" stroke="black" cx="123.734" cy="-110.76" rx="2.5" ry="2.5"/>
</g>
<!-- anon_1_12_2&#45;&gt;anon_1_12_3 -->
<g id="edge30" class="edge"><title>anon_1_12_2&#45;&gt;anon_1_12_3</title>
<path fill="none" stroke="black" stroke-dasharray="5,2" d="M119.464,-66.7139C120.24,-74.7207 122.659,-99.6726 123.468,-108.013"/>
</g>
<!-- anon_1_12_3&#45;&gt;12 -->
<g id="edge31" class="edge"><title>anon_1_12_3&#45;&gt;12</title>
<path fill="none" stroke="black" stroke-dasharray="5,2" d="M123.062,-113.222C121.316,-119.613 116.573,-136.978 113.648,-147.686"/>
</g>
<!-- anon_10_12_1&#45;&gt;anon_10_12_0 -->
<g id="edge33" class="edge"><title>anon_10_12_1&#45;&gt;anon_10_12_0</title>
<path fill="none" stroke="black" stroke-dasharray="5,2" d="M156.129,-191.422C157.554,-197.34 161.071,-211.937 163.258,-221.015"/>
<polygon fill="black" stroke="black" points="161.595,-221.586 164.467,-226.037 164.998,-220.766 161.595,-221.586"/>
<text text-anchor="middle" x="146.193" y="-208.818" font-family="monospace" font-size="8.00">D466H</text>
</g>
</g>
</svg>
