<?xml version="1.0" encoding="UTF-8" standalone="no"?>
<!DOCTYPE svg PUBLIC "-//W3C//DTD SVG 1.1//EN"
 "http://www.w3.org/Graphics/SVG/1.1/DTD/svg11.dtd">
<!-- Generated by graphviz version 2.38.0 (20140413.2041)
 -->
<!-- Title: %3 Pages: 1 -->
<svg width="359pt" height="208pt"
 viewBox="0.00 0.00 358.65 208.02" xmlns="http://www.w3.org/2000/svg" xmlns:xlink="http://www.w3.org/1999/xlink">
<g id="graph0" class="graph" transform="scale(1 1) rotate(0) translate(126.669 129.182)">
<title>%3</title>
<polygon fill="white" stroke="none" points="-126.669,78.8372 -126.669,-129.182 231.985,-129.182 231.985,78.8372 -126.669,78.8372"/>
<!-- 0 -->
<g id="node1" class="node"><title>0</title>
<path fill="olivedrab" stroke="black" stroke-width="0.5" d="M46.4346,-59.3326C46.4346,-59.3326 58.4346,-59.3326 58.4346,-59.3326 58.4346,-59.7611 58.4117,-60.1893 58.3659,-60.6154 58.3201,-61.0414 58.2515,-61.4647 58.1604,-61.8834 58.0693,-62.3021 57.9559,-62.7157 57.8205,-63.1222 57.6852,-63.5288 57.5282,-63.9278 57.3502,-64.3176 57.1722,-64.7074 56.9734,-65.0874 56.7548,-65.4559 56.5361,-65.8244 56.2979,-66.1809 56.0411,-66.524 55.7843,-66.867 55.5093,-67.196 55.2174,-67.5096 54.9254,-67.8233 54.6168,-68.121 54.293,-68.4016 53.9691,-68.6822 53.6305,-68.9453 53.2785,-69.1897 52.9265,-69.4341 52.5617,-69.6594 52.1856,-69.8648 51.8095,-70.0701 51.4227,-70.2552 51.0268,-70.4192 50.6309,-70.5832 50.2266,-70.7258 49.8154,-70.8465 49.4043,-70.9673 48.987,-71.0659 48.5653,-71.142 48.1436,-71.218 47.7181,-71.2715 47.2907,-71.3021 46.8633,-71.3326 46.4345,-71.3403 46.0063,-71.325 45.5781,-71.3097 45.151,-71.2715 44.7268,-71.2105 44.7268,-71.2105 46.4346,-59.3326 46.4346,-59.3326"/>
<path fill="#1874cd" stroke="black" stroke-width="0.5" d="M46.4346,-59.3326C46.4346,-59.3326 44.7268,-71.2105 44.7268,-71.2105 44.1612,-71.1292 43.6021,-71.0075 43.0538,-70.8465 42.5055,-70.6856 41.9694,-70.4856 41.4496,-70.2482 40.9298,-70.0108 40.4277,-69.7366 39.9469,-69.4277 39.4662,-69.1187 39.0082,-68.7758 38.5763,-68.4016 38.1444,-68.0274 37.7398,-67.6228 37.3656,-67.191 36.9914,-66.7591 36.6485,-66.301 36.3396,-65.8203 36.0306,-65.3396 35.7564,-64.8374 35.519,-64.3176 35.2817,-63.7978 35.0817,-63.2617 34.9207,-62.7134 34.7597,-62.1651 34.6381,-61.606 34.5568,-61.0404 34.4754,-60.4748 34.4346,-59.9041 34.4346,-59.3326 34.4346,-58.7612 34.4754,-58.1905 34.5568,-57.6249 34.6381,-57.0592 34.7597,-56.5001 34.9207,-55.9518 35.0817,-55.4035 35.2817,-54.8675 35.519,-54.3477 35.7564,-53.8278 36.0306,-53.3257 36.3396,-52.8449 36.6485,-52.3642 36.9914,-51.9062 37.3656,-51.4743 37.7398,-51.0424 38.1444,-50.6379 38.5763,-50.2636 39.0082,-49.8894 39.4662,-49.5465 39.9469,-49.2376 40.4277,-48.9286 40.9298,-48.6544 41.4496,-48.417 41.9694,-48.1797 42.5055,-47.9797 43.0538,-47.8187 43.6021,-47.6577 44.1612,-47.5361 44.7268,-47.4548 45.2925,-47.3734 45.8632,-47.3326 46.4346,-47.3326 47.0061,-47.3326 47.5768,-47.3734 48.1424,-47.4548 48.708,-47.5361 49.2671,-47.6577 49.8154,-47.8187 50.3637,-47.9797 50.8998,-48.1797 51.4196,-48.417 51.9394,-48.6544 52.4416,-48.9286 52.9223,-49.2376 53.403,-49.5465 53.8611,-49.8894 54.293,-50.2636 54.7248,-50.6379 55.1294,-51.0424 55.5036,-51.4743 55.8778,-51.9062 56.2207,-52.3642 56.5297,-52.8449 56.8386,-53.3257 57.1128,-53.8279 57.3502,-54.3477 57.5876,-54.8675 57.7875,-55.4035 57.9485,-55.9518 58.1095,-56.5001 58.2312,-57.0592 58.3125,-57.6249 58.3938,-58.1905 58.4346,-58.7612 58.4346,-59.3326 58.4346,-59.3326 46.4346,-59.3326 46.4346,-59.3326"/>
<ellipse fill="none" stroke="black" cx="46.4346" cy="-59.3326" rx="12" ry="12"/>
<text text-anchor="middle" x="46.4346" y="-57.4326" font-family="monospace" font-size="8.00">0</text>
</g>
<!-- 8 -->
<g id="node9" class="node"><title>8</title>
<ellipse fill="olivedrab" stroke="black" cx="50.6688" cy="-121.682" rx="3.5" ry="3.5"/>
<text text-anchor="middle" x="50.6688" y="-119.782" font-family="monospace" font-size="8.00">8</text>
</g>
<!-- 0&#45;&gt;8 -->
<g id="edge2" class="edge"><title>0&#45;&gt;8</title>
<path fill="none" stroke="black" d="M47.251,-71.3542C48.2315,-85.792 49.8197,-109.178 50.4244,-118.083"/>
</g>
<!-- 1 -->
<g id="node2" class="node"><title>1</title>
<path fill="olivedrab" stroke="black" stroke-width="0.5" d="M30.7261,0.889233C30.7261,0.889233 44.7261,0.889233 44.7261,0.889233 44.7261,0.400429 44.7005,-0.0880391 44.6494,-0.574165 44.5983,-1.06029 44.5218,-1.54341 44.4202,-2.02153 44.3186,-2.49965 44.192,-2.97212 44.0409,-3.437 43.8899,-3.90188 43.7146,-4.35854 43.5158,-4.80508 43.3169,-5.25162 43.0949,-5.68745 42.8505,-6.11077 42.6061,-6.53408 42.3397,-6.94431 42.0524,-7.33976 41.765,-7.73521 41.4572,-8.11534 41.1301,-8.4786 40.8031,-8.84185 40.4572,-9.18772 40.0939,-9.51479 39.7307,-9.84187 39.3506,-10.1497 38.9551,-10.437 38.5597,-10.7243 38.1494,-10.9907 37.7261,-11.2351 37.3028,-11.4795 36.867,-11.7016 36.4204,-11.9004 35.9739,-12.0992 35.5172,-12.2745 35.0524,-12.4256 34.5875,-12.5766 34.115,-12.7032 33.6369,-12.8048 33.1588,-12.9065 32.6756,-12.983 32.1895,-13.0341 31.7034,-13.0852 31.2149,-13.1108 30.7261,-13.1108 30.2373,-13.1108 29.7488,-13.0852 29.2627,-13.0341 28.7766,-12.983 28.2935,-12.9065 27.8154,-12.8048 27.3372,-12.7032 26.8648,-12.5766 26.3999,-12.4256 25.935,-12.2745 25.4784,-12.0992 25.0318,-11.9004 24.5853,-11.7016 24.1494,-11.4795 23.7261,-11.2351 23.3028,-10.9907 22.8926,-10.7243 22.4971,-10.437 22.1017,-10.1497 21.7215,-9.84187 21.3583,-9.51479 20.995,-9.18772 20.6492,-8.84185 20.3221,-8.47859 19.995,-8.11534 19.6872,-7.73521 19.3999,-7.33976 19.1126,-6.94431 18.8462,-6.53408 18.6018,-6.11077 18.3574,-5.68745 18.1353,-5.25162 17.9365,-4.80508 17.7377,-4.35853 17.5624,-3.90188 17.4113,-3.437 17.2603,-2.97212 17.1337,-2.49965 17.0321,-2.02153 16.9304,-1.54341 16.8539,-1.06029 16.8028,-0.574163 16.7517,-0.0880368 16.7261,0.400432 16.7261,0.889236 16.7261,1.37804 16.7517,1.86651 16.8028,2.35263 16.8539,2.83876 16.9304,3.32188 17.0321,3.8 17.0321,3.8 30.7261,0.889233 30.7261,0.889233"/>
<path fill="#1874cd" stroke="black" stroke-width="0.5" d="M30.7261,0.889233C30.7261,0.889233 17.0321,3.8 17.0321,3.8 17.21,4.63711 17.4643,5.45614 17.7918,6.2468 18.1193,7.03747 18.5186,7.79644 18.9847,8.51418 19.4508,9.23192 19.9818,9.90542 20.5709,10.5262 21.16,11.147 21.8048,11.7124 22.4971,12.2155 23.1895,12.7185 23.9265,13.157 24.699,13.5254 25.4714,13.8939 26.276,14.1907 27.1027,14.4122 27.9293,14.6337 28.7745,14.7789 29.6277,14.8461 30.4809,14.9132 31.3384,14.902 32.1895,14.8125 33.0406,14.7231 33.8818,14.5558 34.7023,14.3127 35.5229,14.0696 36.3195,13.7519 37.082,13.3633 37.8445,12.9748 38.5698,12.5172 39.2488,11.9962 39.9277,11.4752 40.5575,10.8931 41.1301,10.2571 41.7028,9.62107 42.2159,8.93391 42.6631,8.20421 43.1102,7.47452 43.4896,6.70535 43.7962,5.90638 44.1029,5.10742 44.3357,4.28201 44.4917,3.44053 44.6476,2.59905 44.7261,1.74504 44.7261,0.889233 44.7261,0.889233 30.7261,0.889233 30.7261,0.889233"/>
<ellipse fill="none" stroke="black" cx="30.7261" cy="0.889233" rx="14" ry="14"/>
<text text-anchor="middle" x="30.7261" y="2.78923" font-family="monospace" font-size="8.00">1</text>
</g>
<!-- 1&#45;&gt;0 -->
<g id="edge1" class="edge"><title>1&#45;&gt;0</title>
<path fill="none" stroke="black" d="M34.2906,-12.776C36.5819,-21.5603 39.5759,-33.0381 42.0176,-42.3992"/>
<polygon fill="black" stroke="black" points="40.354,-42.9551 43.3094,-47.3515 43.7407,-42.0716 40.354,-42.9551"/>
<text text-anchor="middle" x="22.1541" y="-30.1876" font-family="monospace" font-size="8.00">F1920S</text>
</g>
<!-- 2 -->
<g id="node3" class="node"><title>2</title>
<ellipse fill="#1874cd" stroke="black" cx="98.1217" cy="3.23157" rx="6" ry="6"/>
<text text-anchor="middle" x="98.1217" y="5.13157" font-family="monospace" font-size="8.00">2</text>
</g>
<!-- 1&#45;&gt;2 -->
<g id="edge3" class="edge"><title>1&#45;&gt;2</title>
<path fill="none" stroke="black" d="M45.019,1.38598C59.5474,1.89092 81.3758,2.64956 91.9471,3.01697"/>
</g>
<!-- 5 -->
<g id="node6" class="node"><title>5</title>
<ellipse fill="olivedrab" stroke="black" cx="3.13067" cy="-46.93" rx="3.5" ry="3.5"/>
<text text-anchor="middle" x="3.13067" y="-45.03" font-family="monospace" font-size="8.00">5</text>
</g>
<!-- 1&#45;&gt;5 -->
<g id="edge7" class="edge"><title>1&#45;&gt;5</title>
<path fill="none" stroke="black" d="M23.4757,-11.6747C18.3897,-20.4882 11.7584,-31.9792 7.47258,-39.406"/>
<polygon fill="black" stroke="black" points="5.91142,-38.6101 4.92798,-43.8155 8.94288,-40.3595 5.91142,-38.6101"/>
<text text-anchor="middle" x="1.97416" y="-19.1404" font-family="monospace" font-size="8.00">R537L</text>
</g>
<!-- 6 -->
<g id="node7" class="node"><title>6</title>
<ellipse fill="olivedrab" stroke="black" cx="26.6573" cy="71.3372" rx="3.5" ry="3.5"/>
<text text-anchor="middle" x="26.6573" y="73.2372" font-family="monospace" font-size="8.00">6</text>
</g>
<!-- 1&#45;&gt;6 -->
<g id="edge8" class="edge"><title>1&#45;&gt;6</title>
<path fill="none" stroke="black" d="M29.9027,15.1454C29.088,29.2512 27.866,50.4105 27.1774,62.3331"/>
<polygon fill="black" stroke="black" points="28.9064,62.7488 26.8709,67.6396 25.4122,62.547 28.9064,62.7488"/>
<text text-anchor="middle" x="12.5401" y="36.1392" font-family="monospace" font-size="8.00">H1755Y</text>
</g>
<!-- 7 -->
<g id="node8" class="node"><title>7</title>
<ellipse fill="olivedrab" stroke="black" cx="60.0646" cy="51.2576" rx="3.5" ry="3.5"/>
<text text-anchor="middle" x="60.0646" y="53.1576" font-family="monospace" font-size="8.00">7</text>
</g>
<!-- 1&#45;&gt;7 -->
<g id="edge9" class="edge"><title>1&#45;&gt;7</title>
<path fill="none" stroke="black" d="M37.8281,13.082C44.4759,24.4949 53.9789,40.8097 58.0682,47.8303"/>
</g>
<!-- 9 -->
<g id="node10" class="node"><title>9</title>
<ellipse fill="olivedrab" stroke="black" cx="-6.3445" cy="51.0372" rx="3.5" ry="3.5"/>
<text text-anchor="middle" x="-6.3445" y="52.9372" font-family="monospace" font-size="8.00">9</text>
</g>
<!-- 1&#45;&gt;9 -->
<g id="edge10" class="edge"><title>1&#45;&gt;9</title>
<path fill="none" stroke="black" d="M22.1282,12.5202C15.0432,22.1046 5.20786,35.4095 -0.85341,43.6091"/>
<polygon fill="black" stroke="black" points="0.298116,44.9953 -4.08137,47.9757 -2.51639,42.9147 0.298116,44.9953"/>
<text text-anchor="middle" x="-2.86261" y="25.4646" font-family="monospace" font-size="8.00">K251R</text>
</g>
<!-- anon_1_3_0 -->
<g id="node11" class="node"><title>anon_1_3_0</title>
<ellipse fill="white" stroke="black" cx="-33.933" cy="0.977027" rx="2.5" ry="2.5"/>
</g>
<!-- 1&#45;&gt;anon_1_3_0 -->
<g id="edge4" class="edge"><title>1&#45;&gt;anon_1_3_0</title>
<path fill="none" stroke="black" d="M16.6961,0.908283C0.947816,0.929666 -23.4383,0.962777 -31.3558,0.973528"/>
</g>
<!-- anon_2_4_0 -->
<g id="node13" class="node"><title>anon_2_4_0</title>
<ellipse fill="white" stroke="black" cx="145.601" cy="10.8238" rx="2.5" ry="2.5"/>
</g>
<!-- 2&#45;&gt;anon_2_4_0 -->
<g id="edge11" class="edge"><title>2&#45;&gt;anon_2_4_0</title>
<path fill="none" stroke="black" d="M104.329,4.22412C114.785,5.89622 135.496,9.20798 142.895,10.3911"/>
</g>
<!-- 3 -->
<g id="node4" class="node"><title>3</title>
<ellipse fill="#1874cd" stroke="black" cx="-119.169" cy="11.6773" rx="3.5" ry="3.5"/>
<text text-anchor="middle" x="-119.169" y="13.5773" font-family="monospace" font-size="8.00">3</text>
</g>
<!-- 4 -->
<g id="node5" class="node"><title>4</title>
<ellipse fill="#1874cd" stroke="black" cx="224.485" cy="38.6102" rx="3.5" ry="3.5"/>
<text text-anchor="middle" x="224.485" y="40.5102" font-family="monospace" font-size="8.00">4</text>
</g>
<!-- anon_1_3_1 -->
<g id="node12" class="node"><title>anon_1_3_1</title>
<ellipse fill="white" stroke="black" cx="-77.9832" cy="2.82059" rx="2.5" ry="2.5"/>
</g>
<!-- anon_1_3_0&#45;&gt;anon_1_3_1 -->
<g id="edge5" class="edge"><title>anon_1_3_0&#45;&gt;anon_1_3_1</title>
<path fill="none" stroke="black" d="M-36.5566,1.08683C-44.4099,1.4155 -67.6662,2.38881 -75.4285,2.71367"/>
</g>
<!-- anon_1_3_1&#45;&gt;3 -->
<g id="edge6" class="edge"><title>anon_1_3_1&#45;&gt;3</title>
<path fill="none" stroke="black" d="M-80.6855,3.40171C-87.8439,4.94106 -107.306,9.12619 -115.478,10.8835"/>
</g>
<!-- anon_2_4_1 -->
<g id="node14" class="node"><title>anon_2_4_1</title>
<ellipse fill="white" stroke="black" cx="186.474" cy="20.4659" rx="2.5" ry="2.5"/>
</g>
<!-- anon_2_4_0&#45;&gt;anon_2_4_1 -->
<g id="edge12" class="edge"><title>anon_2_4_0&#45;&gt;anon_2_4_1</title>
<path fill="none" stroke="black" d="M148.282,11.4565C155.671,13.1994 176.265,18.0577 183.729,19.8183"/>
</g>
<!-- anon_2_4_1&#45;&gt;4 -->
<g id="edge13" class="edge"><title>anon_2_4_1&#45;&gt;4</title>
<path fill="none" stroke="black" d="M188.968,21.6564C195.575,24.81 213.536,33.3839 221.078,36.984"/>
</g>
</g>
</svg>
