<?xml version="1.0" encoding="UTF-8" standalone="no"?>
<!DOCTYPE svg PUBLIC "-//W3C//DTD SVG 1.1//EN"
 "http://www.w3.org/Graphics/SVG/1.1/DTD/svg11.dtd">
<!-- Generated by graphviz version 2.36.0 (20140111.2315)
 -->
<!-- Title: %3 Pages: 1 -->
<svg width="166pt" height="121pt"
 viewBox="0.00 0.00 166.27 120.71" xmlns="http://www.w3.org/2000/svg" xmlns:xlink="http://www.w3.org/1999/xlink">
<g id="graph0" class="graph" transform="scale(1 1) rotate(0) translate(4 116.71)">
<title>%3</title>
<polygon fill="white" stroke="none" points="-4,4 -4,-116.71 162.267,-116.71 162.267,4 -4,4"/>
<!-- 0 -->
<g id="node1" class="node"><title>0</title>
<ellipse fill="#1874cd" stroke="black" cx="85.0933" cy="-63.9835" rx="11.5" ry="11.5"/>
</g>
<!-- 3 -->
<g id="node4" class="node"><title>3</title>
<ellipse fill="#1874cd" stroke="black" cx="61.248" cy="-109.21" rx="3.5" ry="3.5"/>
</g>
<!-- 0&#45;&#45;3 -->
<g id="edge3" class="edge"><title>0&#45;&#45;3</title>
<path fill="none" stroke="black" d="M79.5628,-74.4731C74.1696,-84.7021 66.2989,-99.6302 62.9058,-106.066"/>
</g>
<!-- anon_0_1_0 -->
<g id="node6" class="node"><title>anon_0_1_0</title>
<ellipse fill="white" stroke="black" cx="41.2157" cy="-39.8022" rx="2.5" ry="2.5"/>
</g>
<!-- 0&#45;&#45;anon_0_1_0 -->
<g id="edge1" class="edge"><title>0&#45;&#45;anon_0_1_0</title>
<path fill="none" stroke="black" d="M74.9166,-58.375C64.5876,-52.6826 49.32,-44.2685 43.5437,-41.0852"/>
</g>
<!-- 1 -->
<g id="node2" class="node"><title>1</title>
<ellipse fill="#1874cd" stroke="black" cx="3.5" cy="-20.912" rx="3.5" ry="3.5"/>
</g>
<!-- 2 -->
<g id="node3" class="node"><title>2</title>
<ellipse fill="#1874cd" stroke="black" cx="154.767" cy="-3.5" rx="3.5" ry="3.5"/>
</g>
<!-- anon_2_0_0 -->
<g id="node7" class="node"><title>anon_2_0_0</title>
<ellipse fill="white" stroke="black" cx="122.329" cy="-30.4654" rx="2.5" ry="2.5"/>
</g>
<!-- 2&#45;&#45;anon_2_0_0 -->
<g id="edge4" class="edge"><title>2&#45;&#45;anon_2_0_0</title>
<path fill="none" stroke="black" d="M151.773,-5.98851C145.249,-11.4124 129.889,-24.1811 124.358,-28.7786"/>
</g>
<!-- 4 -->
<g id="node5" class="node"><title>4</title>
<ellipse fill="#1874cd" stroke="black" cx="118.589" cy="-102.611" rx="3.5" ry="3.5"/>
</g>
<!-- 4&#45;&#45;0 -->
<g id="edge6" class="edge"><title>4&#45;&#45;0</title>
<path fill="none" stroke="black" d="M115.961,-99.5799C111.026,-93.8886 100.202,-81.4066 92.778,-72.8454"/>
</g>
<!-- anon_0_1_0&#45;&#45;1 -->
<g id="edge2" class="edge"><title>anon_0_1_0&#45;&#45;1</title>
<path fill="none" stroke="black" d="M38.741,-38.5627C32.1858,-35.2795 14.3637,-26.3532 6.88021,-22.605"/>
</g>
<!-- anon_2_0_0&#45;&#45;0 -->
<g id="edge5" class="edge"><title>anon_2_0_0&#45;&#45;0</title>
<path fill="none" stroke="black" d="M120.327,-32.2675C115.433,-36.6732 102.624,-48.2036 93.8765,-56.0773"/>
</g>
</g>
</svg>
