<?xml version="1.0" encoding="UTF-8" standalone="no"?>
<!DOCTYPE svg PUBLIC "-//W3C//DTD SVG 1.1//EN"
 "http://www.w3.org/Graphics/SVG/1.1/DTD/svg11.dtd">
<!-- Generated by graphviz version 2.36.0 (20140111.2315)
 -->
<!-- Title: %3 Pages: 1 -->
<svg width="735pt" height="674pt"
 viewBox="0.00 0.00 734.90 673.58" xmlns="http://www.w3.org/2000/svg" xmlns:xlink="http://www.w3.org/1999/xlink">
<g id="graph0" class="graph" transform="scale(1 1) rotate(0) translate(4 669.581)">
<title>%3</title>
<polygon fill="white" stroke="none" points="-4,4 -4,-669.581 730.897,-669.581 730.897,4 -4,4"/>
<!-- 0 -->
<g id="node1" class="node"><title>0</title>
<path fill="#787878" stroke="black" stroke-width="0.5" d="M152.869,-214.328C152.869,-214.328 193.869,-214.328 193.869,-214.328 193.869,-215.361 193.83,-216.392 193.752,-217.422 193.674,-218.451 193.557,-219.477 193.402,-220.497 193.247,-221.518 193.053,-222.532 192.821,-223.538 192.589,-224.544 192.32,-225.541 192.012,-226.526 191.705,-227.512 191.361,-228.485 190.981,-229.445 190.6,-230.404 190.183,-231.349 189.732,-232.277 189.28,-233.205 188.793,-234.116 188.272,-235.007 187.752,-235.898 187.198,-236.77 186.611,-237.619 186.025,-238.469 185.407,-239.296 184.758,-240.098 184.109,-240.901 183.43,-241.679 182.723,-242.431 182.015,-243.183 181.28,-243.907 180.517,-244.603 179.755,-245.299 178.967,-245.966 178.154,-246.603 177.342,-247.24 176.506,-247.845 175.647,-248.419 174.789,-248.992 173.909,-249.533 173.01,-250.04 172.111,-250.547 171.193,-251.02 170.259,-251.458 169.324,-251.896 168.373,-252.298 167.408,-252.664 166.443,-253.03 165.464,-253.36 164.474,-253.652 163.484,-253.944 162.483,-254.199 161.474,-254.415 160.465,-254.632 159.448,-254.81 158.425,-254.95 157.402,-255.09 156.375,-255.191 155.344,-255.254 154.314,-255.316 153.282,-255.339 152.25,-255.324 151.218,-255.308 150.186,-255.254 149.158,-255.16 148.131,-255.067 147.106,-254.935 146.088,-254.764 145.07,-254.593 144.059,-254.384 143.057,-254.137 142.055,-253.89 141.062,-253.605 140.082,-253.283 139.101,-252.961 138.133,-252.602 137.179,-252.207 136.225,-251.812 135.287,-251.382 134.366,-250.916 133.445,-250.45 132.541,-249.949 131.658,-249.415 130.775,-248.881 129.912,-248.314 129.071,-247.715 128.231,-247.116 127.413,-246.485 126.62,-245.825 125.827,-245.164 125.06,-244.473 124.319,-243.754 123.578,-243.036 122.864,-242.289 122.18,-241.516 122.18,-241.516 152.869,-214.328 152.869,-214.328"/>
<path fill="palegreen" stroke="black" stroke-width="0.5" d="M152.869,-214.328C152.869,-214.328 122.18,-241.516 122.18,-241.516 121.085,-240.28 120.065,-238.979 119.127,-237.619 118.188,-236.26 117.333,-234.845 116.565,-233.382 115.798,-231.919 115.119,-230.412 114.533,-228.867 113.948,-227.323 113.456,-225.744 113.06,-224.14 112.665,-222.536 112.367,-220.91 112.168,-219.27 111.969,-217.631 111.869,-215.98 111.869,-214.328 111.869,-212.677 111.969,-211.026 112.168,-209.386 112.367,-207.747 112.665,-206.12 113.06,-204.516 113.456,-202.913 113.948,-201.334 114.533,-199.79 115.119,-198.245 115.798,-196.737 116.565,-195.275 117.333,-193.812 118.188,-192.397 119.127,-191.038 120.065,-189.678 121.085,-188.377 122.18,-187.14 123.275,-185.904 124.444,-184.735 125.681,-183.639 126.917,-182.544 128.219,-181.524 129.578,-180.586 130.938,-179.648 132.353,-178.792 133.815,-178.025 135.278,-177.257 136.786,-176.578 138.33,-175.993 139.875,-175.407 141.453,-174.915 143.057,-174.52 144.661,-174.124 146.287,-173.826 147.927,-173.627 149.567,-173.428 151.217,-173.328 152.869,-173.328 154.521,-173.328 156.171,-173.428 157.811,-173.627 159.451,-173.826 161.077,-174.124 162.681,-174.52 164.285,-174.915 165.863,-175.407 167.408,-175.993 168.952,-176.578 170.46,-177.257 171.923,-178.025 173.385,-178.792 174.8,-179.648 176.16,-180.586 177.519,-181.524 178.821,-182.544 180.057,-183.639 181.293,-184.735 182.463,-185.904 183.558,-187.14 184.653,-188.377 185.673,-189.678 186.611,-191.038 187.55,-192.397 188.405,-193.812 189.173,-195.275 189.94,-196.737 190.619,-198.245 191.205,-199.79 191.79,-201.334 192.282,-202.913 192.678,-204.516 193.073,-206.12 193.371,-207.747 193.57,-209.386 193.769,-211.026 193.869,-212.677 193.869,-214.328 193.869,-214.328 152.869,-214.328 152.869,-214.328"/>
<ellipse fill="none" stroke="black" cx="152.869" cy="-214.328" rx="41" ry="41"/>
</g>
<!-- 22 -->
<g id="node23" class="node"><title>22</title>
<ellipse fill="palegreen" stroke="black" cx="116.532" cy="-285.216" rx="3.5" ry="3.5"/>
</g>
<!-- 0&#45;&#45;22 -->
<g id="edge1" class="edge"><title>0&#45;&#45;22</title>
<path fill="none" stroke="black" d="M134.062,-251.018C127.55,-263.721 121.148,-276.21 118.207,-281.948"/>
</g>
<!-- 47 -->
<g id="node48" class="node"><title>47</title>
<ellipse fill="#787878" stroke="black" cx="53.5" cy="-222.95" rx="3.5" ry="3.5"/>
</g>
<!-- 0&#45;&#45;47 -->
<g id="edge2" class="edge"><title>0&#45;&#45;47</title>
<path fill="none" stroke="black" d="M111.878,-217.885C90.0658,-219.777 65.9462,-221.87 57.0476,-222.642"/>
</g>
<!-- 1 -->
<g id="node2" class="node"><title>1</title>
<ellipse fill="palegreen" stroke="black" cx="540.11" cy="-194.537" rx="33" ry="33"/>
</g>
<!-- 18 -->
<g id="node19" class="node"><title>18</title>
<ellipse fill="palegreen" stroke="black" cx="522.242" cy="-281.218" rx="5" ry="5"/>
</g>
<!-- 1&#45;&#45;18 -->
<g id="edge3" class="edge"><title>1&#45;&#45;18</title>
<path fill="none" stroke="black" d="M533.355,-227.307C529.56,-245.717 525.207,-266.837 523.267,-276.246"/>
</g>
<!-- 30 -->
<g id="node31" class="node"><title>30</title>
<ellipse fill="palegreen" stroke="black" cx="476.042" cy="-219.534" rx="3.5" ry="3.5"/>
</g>
<!-- 1&#45;&#45;30 -->
<g id="edge4" class="edge"><title>1&#45;&#45;30</title>
<path fill="none" stroke="black" d="M509.202,-206.596C497.426,-211.19 485.447,-215.864 479.641,-218.129"/>
</g>
<!-- 43 -->
<g id="node44" class="node"><title>43</title>
<ellipse fill="palegreen" stroke="black" cx="629.037" cy="-172.703" rx="3.5" ry="3.5"/>
</g>
<!-- 1&#45;&#45;43 -->
<g id="edge5" class="edge"><title>1&#45;&#45;43</title>
<path fill="none" stroke="black" d="M572.215,-186.654C592.513,-181.67 616.543,-175.77 625.468,-173.579"/>
</g>
<!-- 45 -->
<g id="node46" class="node"><title>45</title>
<ellipse fill="palegreen" stroke="black" cx="495.42" cy="-156.327" rx="3.5" ry="3.5"/>
</g>
<!-- 1&#45;&#45;45 -->
<g id="edge6" class="edge"><title>1&#45;&#45;45</title>
<path fill="none" stroke="black" d="M514.892,-172.975C508.239,-167.288 501.932,-161.895 498.382,-158.86"/>
</g>
<!-- 48 -->
<g id="node49" class="node"><title>48</title>
<ellipse fill="palegreen" stroke="black" cx="547.712" cy="-115.29" rx="3.5" ry="3.5"/>
</g>
<!-- 1&#45;&#45;48 -->
<g id="edge7" class="edge"><title>1&#45;&#45;48</title>
<path fill="none" stroke="black" d="M543.29,-161.388C544.885,-144.762 546.629,-126.573 547.36,-118.96"/>
</g>
<!-- 50 -->
<g id="node51" class="node"><title>50</title>
<ellipse fill="palegreen" stroke="black" cx="510.175" cy="-108.704" rx="3.5" ry="3.5"/>
</g>
<!-- 1&#45;&#45;50 -->
<g id="edge8" class="edge"><title>1&#45;&#45;50</title>
<path fill="none" stroke="black" d="M529.133,-163.063C522.325,-143.542 514.328,-120.614 511.361,-112.105"/>
</g>
<!-- 53 -->
<g id="node54" class="node"><title>53</title>
<ellipse fill="palegreen" stroke="black" cx="620.778" cy="-209.846" rx="3.5" ry="3.5"/>
</g>
<!-- 1&#45;&#45;53 -->
<g id="edge9" class="edge"><title>1&#45;&#45;53</title>
<path fill="none" stroke="black" d="M572.921,-200.763C590.02,-204.008 608.989,-207.608 616.942,-209.117"/>
</g>
<!-- 55 -->
<g id="node56" class="node"><title>55</title>
<ellipse fill="palegreen" stroke="black" cx="588.386" cy="-268.712" rx="3.5" ry="3.5"/>
</g>
<!-- 1&#45;&#45;55 -->
<g id="edge10" class="edge"><title>1&#45;&#45;55</title>
<path fill="none" stroke="black" d="M558.361,-222.579C569.042,-238.989 581.36,-257.916 586.238,-265.411"/>
</g>
<!-- 57 -->
<g id="node58" class="node"><title>57</title>
<ellipse fill="palegreen" stroke="black" cx="554.657" cy="-271.591" rx="3.5" ry="3.5"/>
</g>
<!-- 1&#45;&#45;57 -->
<g id="edge11" class="edge"><title>1&#45;&#45;57</title>
<path fill="none" stroke="black" d="M546.28,-227.215C549.315,-243.294 552.613,-260.764 553.993,-268.071"/>
</g>
<!-- 60 -->
<g id="node61" class="node"><title>60</title>
<ellipse fill="palegreen" stroke="black" cx="591.856" cy="-152.726" rx="3.5" ry="3.5"/>
</g>
<!-- 1&#45;&#45;60 -->
<g id="edge12" class="edge"><title>1&#45;&#45;60</title>
<path fill="none" stroke="black" d="M565.983,-173.631C575.281,-166.119 584.579,-158.606 589.074,-154.974"/>
</g>
<!-- 2 -->
<g id="node3" class="node"><title>2</title>
<path fill="olivedrab" stroke="black" stroke-width="0.5" d="M349.418,-351.391C349.418,-351.391 375.918,-351.391 375.918,-351.391 375.918,-352.132 375.887,-352.873 375.825,-353.611 375.763,-354.35 375.67,-355.086 375.546,-355.816 375.422,-356.547 375.268,-357.272 375.083,-357.99 374.899,-358.708 374.684,-359.418 374.44,-360.118 374.196,-360.818 373.923,-361.507 373.621,-362.184 373.319,-362.861 372.989,-363.525 372.631,-364.174 372.274,-364.823 371.889,-365.457 371.479,-366.074 371.068,-366.691 370.632,-367.291 370.171,-367.871 369.71,-368.451 369.225,-369.012 368.717,-369.552 368.209,-370.092 367.678,-370.61 367.127,-371.105 366.576,-371.601 366.004,-372.073 365.413,-372.52 364.822,-372.967 364.212,-373.39 363.586,-373.786 362.959,-374.182 362.317,-374.552 361.659,-374.894 361.002,-375.237 360.331,-375.551 359.647,-375.837 358.963,-376.123 358.268,-376.381 357.562,-376.608 356.857,-376.836 356.142,-377.034 355.421,-377.202 354.699,-377.37 353.97,-377.508 353.237,-377.614 352.503,-377.721 351.766,-377.797 351.026,-377.842 350.286,-377.887 349.545,-377.901 348.804,-377.884 348.063,-377.867 347.323,-377.818 346.586,-377.739 345.849,-377.66 345.115,-377.55 344.388,-377.409 343.66,-377.268 342.939,-377.097 342.225,-376.896 341.512,-376.695 340.807,-376.464 340.113,-376.203 339.419,-375.943 338.737,-375.654 338.067,-375.336 337.397,-375.019 336.741,-374.674 336.1,-374.301 335.459,-373.929 334.835,-373.529 334.227,-373.104 333.62,-372.68 333.031,-372.229 332.461,-371.755 331.892,-371.281 331.342,-370.783 330.814,-370.263 330.287,-369.742 329.781,-369.2 329.298,-368.637 328.816,-368.074 328.357,-367.492 327.924,-366.891 327.49,-366.289 327.082,-365.67 326.701,-365.035 326.319,-364.399 325.964,-363.748 325.637,-363.083 325.31,-362.418 325.011,-361.74 324.741,-361.049 324.471,-360.359 324.23,-359.658 324.019,-358.948 323.807,-358.237 323.626,-357.518 323.475,-356.793 323.324,-356.067 323.203,-355.335 323.113,-354.6 323.024,-353.864 322.965,-353.125 322.937,-352.384 322.909,-351.643 322.913,-350.902 322.947,-350.161 322.981,-349.421 323.047,-348.682 323.143,-347.948 323.239,-347.213 323.366,-346.482 323.524,-345.758 323.682,-345.034 323.869,-344.316 324.087,-343.608 324.305,-342.899 324.552,-342.2 324.828,-341.513 325.105,-340.825 325.41,-340.149 325.743,-339.487 326.076,-338.825 326.436,-338.177 326.823,-337.545 327.211,-336.913 327.624,-336.297 328.063,-335.7 328.502,-335.103 328.966,-334.524 329.453,-333.966 329.94,-333.407 330.451,-332.87 330.984,-332.354 331.516,-331.838 332.07,-331.345 332.644,-330.876 333.217,-330.407 333.811,-329.962 334.422,-329.543 335.033,-329.123 335.661,-328.73 336.305,-328.363 336.949,-327.996 337.608,-327.656 338.281,-327.345 338.954,-327.033 339.639,-326.75 340.335,-326.496 341.031,-326.242 341.738,-326.017 342.453,-325.823 343.168,-325.628 343.891,-325.463 344.62,-325.329 345.349,-325.195 346.083,-325.091 346.821,-325.018 347.559,-324.946 348.299,-324.904 349.04,-324.894 349.781,-324.883 350.522,-324.904 351.262,-324.955 352.001,-325.007 352.738,-325.089 353.47,-325.202 354.203,-325.316 354.93,-325.46 355.651,-325.634 356.371,-325.808 357.084,-326.013 357.787,-326.247 358.49,-326.481 359.183,-326.745 359.865,-327.037 360.546,-327.329 361.214,-327.649 361.869,-327.998 362.523,-328.346 363.162,-328.721 363.785,-329.123 364.408,-329.525 365.014,-329.953 365.601,-330.405 365.601,-330.405 349.418,-351.391 349.418,-351.391"/>
<path fill="#1874cd" stroke="black" stroke-width="0.5" d="M349.418,-351.391C349.418,-351.391 365.601,-330.405 365.601,-330.405 366.4,-331.022 367.163,-331.683 367.887,-332.387 368.611,-333.09 369.294,-333.835 369.933,-334.616 370.572,-335.397 371.166,-336.215 371.712,-337.064 372.257,-337.913 372.754,-338.793 373.199,-339.699 373.645,-340.604 374.038,-341.535 374.377,-342.486 374.716,-343.436 375.001,-344.406 375.23,-345.389 375.458,-346.372 375.631,-347.367 375.746,-348.37 375.861,-349.373 375.918,-350.381 375.918,-351.391 375.918,-351.391 349.418,-351.391 349.418,-351.391"/>
<ellipse fill="none" stroke="black" cx="349.418" cy="-351.391" rx="26.5" ry="26.5"/>
</g>
<!-- 37 -->
<g id="node38" class="node"><title>37</title>
<ellipse fill="olivedrab" stroke="black" cx="278.5" cy="-368.227" rx="3.5" ry="3.5"/>
</g>
<!-- 2&#45;&#45;37 -->
<g id="edge17" class="edge"><title>2&#45;&#45;37</title>
<path fill="none" stroke="black" d="M323.414,-357.564C307.917,-361.243 289.822,-365.539 282.191,-367.351"/>
</g>
<!-- 39 -->
<g id="node40" class="node"><title>39</title>
<ellipse fill="olivedrab" stroke="black" cx="368.352" cy="-281.402" rx="3.5" ry="3.5"/>
</g>
<!-- 2&#45;&#45;39 -->
<g id="edge18" class="edge"><title>2&#45;&#45;39</title>
<path fill="none" stroke="black" d="M356.361,-325.727C360.498,-310.434 365.33,-292.576 367.367,-285.045"/>
</g>
<!-- 49 -->
<g id="node50" class="node"><title>49</title>
<ellipse fill="olivedrab" stroke="black" cx="278.51" cy="-316.019" rx="3.5" ry="3.5"/>
</g>
<!-- 2&#45;&#45;49 -->
<g id="edge19" class="edge"><title>2&#45;&#45;49</title>
<path fill="none" stroke="black" d="M325.412,-339.415C309.341,-331.398 289.754,-321.628 281.954,-317.737"/>
</g>
<!-- 61 -->
<g id="node62" class="node"><title>61</title>
<ellipse fill="olivedrab" stroke="black" cx="316.925" cy="-278.5" rx="3.5" ry="3.5"/>
</g>
<!-- 2&#45;&#45;61 -->
<g id="edge20" class="edge"><title>2&#45;&#45;61</title>
<path fill="none" stroke="black" d="M338.599,-327.119C331.214,-310.554 322.139,-290.197 318.523,-282.084"/>
</g>
<!-- anon_2_24_0 -->
<g id="node63" class="node"><title>anon_2_24_0</title>
<ellipse fill="white" stroke="black" cx="341.336" cy="-429.246" rx="2.5" ry="2.5"/>
</g>
<!-- 2&#45;&#45;anon_2_24_0 -->
<g id="edge13" class="edge"><title>2&#45;&#45;anon_2_24_0</title>
<path fill="none" stroke="black" d="M346.637,-378.184C344.737,-396.482 342.425,-418.754 341.625,-426.463"/>
</g>
<!-- 3 -->
<g id="node4" class="node"><title>3</title>
<ellipse fill="#1874cd" stroke="black" cx="89.9068" cy="-393.5" rx="18.5" ry="18.5"/>
</g>
<!-- 14 -->
<g id="node15" class="node"><title>14</title>
<ellipse fill="#1874cd" stroke="black" cx="86.2151" cy="-454.273" rx="6" ry="6"/>
</g>
<!-- 3&#45;&#45;14 -->
<g id="edge21" class="edge"><title>3&#45;&#45;14</title>
<path fill="none" stroke="black" d="M88.7791,-412.064C88.0327,-424.351 87.1007,-439.694 86.5911,-448.083"/>
</g>
<!-- 4 -->
<g id="node5" class="node"><title>4</title>
<ellipse fill="palegreen" stroke="black" cx="211.631" cy="-104.512" rx="13" ry="13"/>
</g>
<!-- 4&#45;&#45;0 -->
<g id="edge22" class="edge"><title>4&#45;&#45;0</title>
<path fill="none" stroke="black" d="M205.342,-116.264C197.526,-130.872 183.819,-156.488 172.374,-177.876"/>
</g>
<!-- anon_4_33_0 -->
<g id="node66" class="node"><title>anon_4_33_0</title>
<ellipse fill="white" stroke="black" cx="199.236" cy="-47.5169" rx="2.5" ry="2.5"/>
</g>
<!-- 4&#45;&#45;anon_4_33_0 -->
<g id="edge23" class="edge"><title>4&#45;&#45;anon_4_33_0</title>
<path fill="none" stroke="black" d="M208.818,-91.579C205.847,-77.916 201.378,-57.3675 199.807,-50.1422"/>
</g>
<!-- 5 -->
<g id="node6" class="node"><title>5</title>
<ellipse fill="#1874cd" stroke="black" cx="512.889" cy="-447.452" rx="12" ry="12"/>
</g>
<!-- 12 -->
<g id="node13" class="node"><title>12</title>
<ellipse fill="#1874cd" stroke="black" cx="461.512" cy="-411.379" rx="7" ry="7"/>
</g>
<!-- 5&#45;&#45;12 -->
<g id="edge25" class="edge"><title>5&#45;&#45;12</title>
<path fill="none" stroke="black" d="M502.983,-440.497C492.369,-433.044 475.886,-421.472 467.244,-415.404"/>
</g>
<!-- 28 -->
<g id="node29" class="node"><title>28</title>
<ellipse fill="#1874cd" stroke="black" cx="536.963" cy="-395.541" rx="3.5" ry="3.5"/>
</g>
<!-- 5&#45;&#45;28 -->
<g id="edge26" class="edge"><title>5&#45;&#45;28</title>
<path fill="none" stroke="black" d="M517.995,-436.443C523.515,-424.538 531.987,-406.27 535.43,-398.847"/>
</g>
<!-- 44 -->
<g id="node45" class="node"><title>44</title>
<ellipse fill="#1874cd" stroke="black" cx="498.137" cy="-388.915" rx="3.5" ry="3.5"/>
</g>
<!-- 5&#45;&#45;44 -->
<g id="edge27" class="edge"><title>5&#45;&#45;44</title>
<path fill="none" stroke="black" d="M509.904,-435.606C506.536,-422.243 501.248,-401.262 499.096,-392.722"/>
</g>
<!-- 6 -->
<g id="node7" class="node"><title>6</title>
<ellipse fill="#787878" stroke="black" cx="182.38" cy="-331.953" rx="11.5" ry="11.5"/>
</g>
<!-- 6&#45;&#45;0 -->
<g id="edge28" class="edge"><title>6&#45;&#45;0</title>
<path fill="none" stroke="black" d="M179.551,-320.674C175.742,-305.494 168.767,-277.694 162.904,-254.325"/>
</g>
<!-- 7 -->
<g id="node8" class="node"><title>7</title>
<ellipse fill="olivedrab" stroke="black" cx="625.575" cy="-311.808" rx="11" ry="11"/>
</g>
<!-- 8 -->
<g id="node9" class="node"><title>8</title>
<ellipse fill="#1874cd" stroke="black" cx="634.081" cy="-462.347" rx="10" ry="10"/>
</g>
<!-- anon_8_36_0 -->
<g id="node67" class="node"><title>anon_8_36_0</title>
<ellipse fill="white" stroke="black" cx="662.037" cy="-413.784" rx="2.5" ry="2.5"/>
</g>
<!-- 8&#45;&#45;anon_8_36_0 -->
<g id="edge29" class="edge"><title>8&#45;&#45;anon_8_36_0</title>
<path fill="none" stroke="black" d="M639.209,-453.44C645.766,-442.049 656.738,-422.989 660.622,-416.242"/>
</g>
<!-- 9 -->
<g id="node10" class="node"><title>9</title>
<ellipse fill="palegreen" stroke="black" cx="599.349" cy="-100.012" rx="9" ry="9"/>
</g>
<!-- 9&#45;&#45;1 -->
<g id="edge31" class="edge"><title>9&#45;&#45;1</title>
<path fill="none" stroke="black" d="M594.502,-107.747C586.543,-120.446 570.328,-146.319 557.663,-166.528"/>
</g>
<!-- 17 -->
<g id="node18" class="node"><title>17</title>
<ellipse fill="palegreen" stroke="black" cx="630" cy="-55" rx="5" ry="5"/>
</g>
<!-- 9&#45;&#45;17 -->
<g id="edge32" class="edge"><title>9&#45;&#45;17</title>
<path fill="none" stroke="black" d="M604.688,-92.1712C611.137,-82.7006 621.765,-67.0933 626.956,-59.4701"/>
</g>
<!-- 10 -->
<g id="node11" class="node"><title>10</title>
<ellipse fill="olivedrab" stroke="black" cx="522.46" cy="-323.243" rx="9" ry="9"/>
</g>
<!-- 21 -->
<g id="node22" class="node"><title>21</title>
<ellipse fill="olivedrab" stroke="black" cx="572.994" cy="-315.035" rx="5" ry="5"/>
</g>
<!-- 10&#45;&#45;21 -->
<g id="edge33" class="edge"><title>10&#45;&#45;21</title>
<path fill="none" stroke="black" d="M531.729,-321.737C542.328,-320.016 559.309,-317.258 567.803,-315.878"/>
</g>
<!-- 11 -->
<g id="node12" class="node"><title>11</title>
<ellipse fill="#1874cd" stroke="black" cx="76.5433" cy="-504.647" rx="9" ry="9"/>
</g>
<!-- 11&#45;&#45;14 -->
<g id="edge34" class="edge"><title>11&#45;&#45;14</title>
<path fill="none" stroke="black" d="M78.3173,-495.408C80.2805,-485.183 83.3875,-469 85.0593,-460.293"/>
</g>
<!-- 13 -->
<g id="node14" class="node"><title>13</title>
<ellipse fill="#1874cd" stroke="black" cx="256" cy="-181" rx="6" ry="6"/>
</g>
<!-- 15 -->
<g id="node16" class="node"><title>15</title>
<ellipse fill="#1874cd" stroke="black" cx="573.498" cy="-482.973" rx="6" ry="6"/>
</g>
<!-- 15&#45;&#45;5 -->
<g id="edge35" class="edge"><title>15&#45;&#45;5</title>
<path fill="none" stroke="black" d="M567.905,-479.695C557.824,-473.786 536.454,-461.262 523.516,-453.68"/>
</g>
<!-- 15&#45;&#45;8 -->
<g id="edge36" class="edge"><title>15&#45;&#45;8</title>
<path fill="none" stroke="black" d="M579.528,-480.92C590.064,-477.333 611.898,-469.899 624.515,-465.604"/>
</g>
<!-- 19 -->
<g id="node20" class="node"><title>19</title>
<ellipse fill="#1874cd" stroke="black" cx="585.617" cy="-540.358" rx="5" ry="5"/>
</g>
<!-- 15&#45;&#45;19 -->
<g id="edge37" class="edge"><title>15&#45;&#45;19</title>
<path fill="none" stroke="black" d="M574.795,-489.114C577.213,-500.564 582.365,-524.957 584.575,-535.422"/>
</g>
<!-- 25 -->
<g id="node26" class="node"><title>25</title>
<ellipse fill="#1874cd" stroke="black" cx="547.71" cy="-519.043" rx="3.5" ry="3.5"/>
</g>
<!-- 15&#45;&#45;25 -->
<g id="edge38" class="edge"><title>15&#45;&#45;25</title>
<path fill="none" stroke="black" d="M569.912,-487.988C564.487,-495.576 554.354,-509.749 549.903,-515.976"/>
</g>
<!-- 16 -->
<g id="node17" class="node"><title>16</title>
<ellipse fill="#1874cd" stroke="black" cx="586.429" cy="-591.993" rx="5" ry="5"/>
</g>
<!-- 19&#45;&#45;16 -->
<g id="edge39" class="edge"><title>19&#45;&#45;16</title>
<path fill="none" stroke="black" d="M585.698,-545.498C585.854,-555.395 586.193,-576.993 586.349,-586.874"/>
</g>
<!-- 20 -->
<g id="node21" class="node"><title>20</title>
<ellipse fill="palegreen" stroke="black" cx="620.52" cy="-246.926" rx="5" ry="5"/>
</g>
<!-- 20&#45;&#45;1 -->
<g id="edge40" class="edge"><title>20&#45;&#45;1</title>
<path fill="none" stroke="black" d="M616.197,-244.109C607.194,-238.243 585.787,-224.296 567.966,-212.685"/>
</g>
<!-- 21&#45;&#45;7 -->
<g id="edge41" class="edge"><title>21&#45;&#45;7</title>
<path fill="none" stroke="black" d="M578.228,-314.714C586.644,-314.198 603.369,-313.171 614.517,-312.487"/>
</g>
<!-- 23 -->
<g id="node24" class="node"><title>23</title>
<ellipse fill="olivedrab" stroke="black" cx="429.111" cy="-348.02" rx="3.5" ry="3.5"/>
</g>
<!-- 23&#45;&#45;2 -->
<g id="edge42" class="edge"><title>23&#45;&#45;2</title>
<path fill="none" stroke="black" d="M425.268,-348.183C416.5,-348.553 394.381,-349.489 376.277,-350.255"/>
</g>
<!-- 24 -->
<g id="node25" class="node"><title>24</title>
<ellipse fill="olivedrab" stroke="black" cx="301.127" cy="-552.023" rx="3.5" ry="3.5"/>
</g>
<!-- 26 -->
<g id="node27" class="node"><title>26</title>
<ellipse fill="#787878" stroke="black" cx="210.609" cy="-254.364" rx="3.5" ry="3.5"/>
</g>
<!-- 26&#45;&#45;0 -->
<g id="edge43" class="edge"><title>26&#45;&#45;0</title>
<path fill="none" stroke="black" d="M207.505,-252.212C203.288,-249.288 195.284,-243.738 186.676,-237.769"/>
</g>
<!-- 27 -->
<g id="node28" class="node"><title>27</title>
<ellipse fill="palegreen" stroke="black" cx="70.605" cy="-267.761" rx="3.5" ry="3.5"/>
</g>
<!-- 27&#45;&#45;0 -->
<g id="edge44" class="edge"><title>27&#45;&#45;0</title>
<path fill="none" stroke="black" d="M73.7294,-265.731C81.1253,-260.928 100.412,-248.4 118.093,-236.916"/>
</g>
<!-- 29 -->
<g id="node30" class="node"><title>29</title>
<ellipse fill="#1874cd" stroke="black" cx="3.5" cy="-662.081" rx="3.5" ry="3.5"/>
</g>
<!-- 31 -->
<g id="node32" class="node"><title>31</title>
<ellipse fill="#787878" stroke="black" cx="60.6095" cy="-176.176" rx="3.5" ry="3.5"/>
</g>
<!-- 31&#45;&#45;0 -->
<g id="edge45" class="edge"><title>31&#45;&#45;0</title>
<path fill="none" stroke="black" d="M64.1135,-177.625C72.5396,-181.109 94.7285,-190.285 114.811,-198.59"/>
</g>
<!-- 32 -->
<g id="node33" class="node"><title>32</title>
<ellipse fill="palegreen" stroke="black" cx="269.876" cy="-92.2287" rx="3.5" ry="3.5"/>
</g>
<!-- 32&#45;&#45;4 -->
<g id="edge46" class="edge"><title>32&#45;&#45;4</title>
<path fill="none" stroke="black" d="M266.407,-92.9602C258.374,-94.6543 238.153,-98.9187 224.657,-101.765"/>
</g>
<!-- 33 -->
<g id="node34" class="node"><title>33</title>
<ellipse fill="palegreen" stroke="black" cx="195.34" cy="-3.5" rx="3.5" ry="3.5"/>
</g>
<!-- 34 -->
<g id="node35" class="node"><title>34</title>
<ellipse fill="palegreen" stroke="black" cx="148.842" cy="-148.638" rx="3.5" ry="3.5"/>
</g>
<!-- 34&#45;&#45;0 -->
<g id="edge47" class="edge"><title>34&#45;&#45;0</title>
<path fill="none" stroke="black" d="M149.059,-152.17C149.327,-156.54 149.814,-164.488 150.352,-173.274"/>
</g>
<!-- 35 -->
<g id="node36" class="node"><title>35</title>
<ellipse fill="palegreen" stroke="black" cx="328.5" cy="-97.333" rx="3.5" ry="3.5"/>
</g>
<!-- anon_35_1_0 -->
<g id="node68" class="node"><title>anon_35_1_0</title>
<ellipse fill="white" stroke="black" cx="366.501" cy="-118.204" rx="2.5" ry="2.5"/>
</g>
<!-- 35&#45;&#45;anon_35_1_0 -->
<g id="edge48" class="edge"><title>35&#45;&#45;anon_35_1_0</title>
<path fill="none" stroke="black" d="M332.007,-99.2591C339.65,-103.457 357.645,-113.34 364.124,-116.898"/>
</g>
<!-- 36 -->
<g id="node37" class="node"><title>36</title>
<ellipse fill="#1874cd" stroke="black" cx="690.091" cy="-378.5" rx="3.5" ry="3.5"/>
</g>
<!-- 38 -->
<g id="node39" class="node"><title>38</title>
<ellipse fill="#1874cd" stroke="black" cx="44.7968" cy="-588.494" rx="3.5" ry="3.5"/>
</g>
<!-- anon_38_11_0 -->
<g id="node71" class="node"><title>anon_38_11_0</title>
<ellipse fill="white" stroke="black" cx="62.4003" cy="-550.057" rx="2.5" ry="2.5"/>
</g>
<!-- 38&#45;&#45;anon_38_11_0 -->
<g id="edge52" class="edge"><title>38&#45;&#45;anon_38_11_0</title>
<path fill="none" stroke="black" d="M46.4213,-584.947C49.9621,-577.215 58.2977,-559.015 61.2991,-552.461"/>
</g>
<!-- anon_38_29_0 -->
<g id="node72" class="node"><title>anon_38_29_0</title>
<ellipse fill="white" stroke="black" cx="23.1231" cy="-624.765" rx="2.5" ry="2.5"/>
</g>
<!-- 38&#45;&#45;anon_38_29_0 -->
<g id="edge54" class="edge"><title>38&#45;&#45;anon_38_29_0</title>
<path fill="none" stroke="black" d="M42.7966,-591.841C38.4371,-599.137 28.1742,-616.312 24.4788,-622.496"/>
</g>
<!-- 40 -->
<g id="node41" class="node"><title>40</title>
<ellipse fill="#1874cd" stroke="black" cx="723.397" cy="-508.447" rx="3.5" ry="3.5"/>
</g>
<!-- anon_40_8_0 -->
<g id="node73" class="node"><title>anon_40_8_0</title>
<ellipse fill="white" stroke="black" cx="681.628" cy="-492.149" rx="2.5" ry="2.5"/>
</g>
<!-- 40&#45;&#45;anon_40_8_0 -->
<g id="edge56" class="edge"><title>40&#45;&#45;anon_40_8_0</title>
<path fill="none" stroke="black" d="M720.119,-507.168C712.119,-504.046 691.709,-496.082 684.336,-493.205"/>
</g>
<!-- 41 -->
<g id="node42" class="node"><title>41</title>
<ellipse fill="olivedrab" stroke="black" cx="253.5" cy="-278.5" rx="3.5" ry="3.5"/>
</g>
<!-- 42 -->
<g id="node43" class="node"><title>42</title>
<ellipse fill="#787878" stroke="black" cx="91.869" cy="-139.701" rx="3.5" ry="3.5"/>
</g>
<!-- 42&#45;&#45;0 -->
<g id="edge58" class="edge"><title>42&#45;&#45;0</title>
<path fill="none" stroke="black" d="M94.1858,-142.536C99.6264,-149.192 113.745,-166.464 126.77,-182.399"/>
</g>
<!-- 46 -->
<g id="node47" class="node"><title>46</title>
<ellipse fill="#1874cd" stroke="black" cx="78.5" cy="-103.5" rx="3.5" ry="3.5"/>
</g>
<!-- 51 -->
<g id="node52" class="node"><title>51</title>
<ellipse fill="#1874cd" stroke="black" cx="378.5" cy="-509.884" rx="3.5" ry="3.5"/>
</g>
<!-- anon_51_5_0 -->
<g id="node74" class="node"><title>anon_51_5_0</title>
<ellipse fill="white" stroke="black" cx="420.236" cy="-496.413" rx="2.5" ry="2.5"/>
</g>
<!-- 51&#45;&#45;anon_51_5_0 -->
<g id="edge59" class="edge"><title>51&#45;&#45;anon_51_5_0</title>
<path fill="none" stroke="black" d="M382.058,-508.736C390.259,-506.089 410.336,-499.609 417.577,-497.271"/>
</g>
<!-- 52 -->
<g id="node53" class="node"><title>52</title>
<ellipse fill="palegreen" stroke="black" cx="448.823" cy="-305.27" rx="3.5" ry="3.5"/>
</g>
<!-- anon_52_1_0 -->
<g id="node76" class="node"><title>anon_52_1_0</title>
<ellipse fill="white" stroke="black" cx="474.808" cy="-266.082" rx="2.5" ry="2.5"/>
</g>
<!-- 52&#45;&#45;anon_52_1_0 -->
<g id="edge62" class="edge"><title>52&#45;&#45;anon_52_1_0</title>
<path fill="none" stroke="black" d="M450.862,-302.195C455.935,-294.545 469.028,-274.799 473.378,-268.237"/>
</g>
<!-- 54 -->
<g id="node55" class="node"><title>54</title>
<ellipse fill="#787878" stroke="black" cx="300.229" cy="-227.873" rx="3.5" ry="3.5"/>
</g>
<!-- anon_54_0_0 -->
<g id="node77" class="node"><title>anon_54_0_0</title>
<ellipse fill="white" stroke="black" cx="255.07" cy="-218.412" rx="2.5" ry="2.5"/>
</g>
<!-- 54&#45;&#45;anon_54_0_0 -->
<g id="edge64" class="edge"><title>54&#45;&#45;anon_54_0_0</title>
<path fill="none" stroke="black" d="M296.685,-227.131C287.869,-225.284 265.115,-220.517 257.554,-218.933"/>
</g>
<!-- 56 -->
<g id="node57" class="node"><title>56</title>
<ellipse fill="#787878" stroke="black" cx="228.957" cy="-365.198" rx="3.5" ry="3.5"/>
</g>
<!-- 56&#45;&#45;6 -->
<g id="edge66" class="edge"><title>56&#45;&#45;6</title>
<path fill="none" stroke="black" d="M225.901,-363.016C219.101,-358.163 202.483,-346.301 191.862,-338.72"/>
</g>
<!-- 58 -->
<g id="node59" class="node"><title>58</title>
<ellipse fill="olivedrab" stroke="black" cx="474.244" cy="-338.57" rx="3.5" ry="3.5"/>
</g>
<!-- 58&#45;&#45;10 -->
<g id="edge67" class="edge"><title>58&#45;&#45;10</title>
<path fill="none" stroke="black" d="M477.711,-337.467C485.139,-335.106 502.786,-329.496 513.567,-326.069"/>
</g>
<!-- 58&#45;&#45;23 -->
<g id="edge68" class="edge"><title>58&#45;&#45;23</title>
<path fill="none" stroke="black" d="M470.702,-339.311C462.307,-341.069 441.265,-345.475 432.762,-347.256"/>
</g>
<!-- 59 -->
<g id="node60" class="node"><title>59</title>
<ellipse fill="#787878" stroke="black" cx="154.236" cy="-381.978" rx="3.5" ry="3.5"/>
</g>
<!-- 59&#45;&#45;6 -->
<g id="edge69" class="edge"><title>59&#45;&#45;6</title>
<path fill="none" stroke="black" d="M156.082,-378.696C160.191,-371.392 170.233,-353.544 176.651,-342.136"/>
</g>
<!-- anon_2_24_1 -->
<g id="node64" class="node"><title>anon_2_24_1</title>
<ellipse fill="white" stroke="black" cx="329.908" cy="-471.463" rx="2.5" ry="2.5"/>
</g>
<!-- anon_2_24_0&#45;&#45;anon_2_24_1 -->
<g id="edge14" class="edge"><title>anon_2_24_0&#45;&#45;anon_2_24_1</title>
<path fill="none" stroke="black" d="M340.656,-431.76C338.618,-439.287 332.585,-461.575 330.571,-469.015"/>
</g>
<!-- anon_2_24_2 -->
<g id="node65" class="node"><title>anon_2_24_2</title>
<ellipse fill="white" stroke="black" cx="318.084" cy="-512.411" rx="2.5" ry="2.5"/>
</g>
<!-- anon_2_24_1&#45;&#45;anon_2_24_2 -->
<g id="edge15" class="edge"><title>anon_2_24_1&#45;&#45;anon_2_24_2</title>
<path fill="none" stroke="black" d="M329.133,-474.15C326.995,-481.552 321.037,-502.184 318.878,-509.661"/>
</g>
<!-- anon_2_24_2&#45;&#45;24 -->
<g id="edge16" class="edge"><title>anon_2_24_2&#45;&#45;24</title>
<path fill="none" stroke="black" d="M316.971,-515.01C314.024,-521.895 306.011,-540.613 302.647,-548.473"/>
</g>
<!-- anon_4_33_0&#45;&#45;33 -->
<g id="edge24" class="edge"><title>anon_4_33_0&#45;&#45;33</title>
<path fill="none" stroke="black" d="M199.004,-44.8953C198.335,-37.3441 196.406,-15.5412 195.649,-6.99534"/>
</g>
<!-- anon_8_36_0&#45;&#45;36 -->
<g id="edge30" class="edge"><title>anon_8_36_0&#45;&#45;36</title>
<path fill="none" stroke="black" d="M663.877,-411.469C668.851,-405.214 682.544,-387.992 687.902,-381.254"/>
</g>
<!-- anon_35_1_1 -->
<g id="node69" class="node"><title>anon_35_1_1</title>
<ellipse fill="white" stroke="black" cx="404.894" cy="-138.103" rx="2.5" ry="2.5"/>
</g>
<!-- anon_35_1_0&#45;&#45;anon_35_1_1 -->
<g id="edge49" class="edge"><title>anon_35_1_0&#45;&#45;anon_35_1_1</title>
<path fill="none" stroke="black" d="M369.02,-119.51C375.96,-123.106 395.305,-133.133 402.316,-136.766"/>
</g>
<!-- anon_35_1_2 -->
<g id="node70" class="node"><title>anon_35_1_2</title>
<ellipse fill="white" stroke="black" cx="445.318" cy="-158.257" rx="2.5" ry="2.5"/>
</g>
<!-- anon_35_1_1&#45;&#45;anon_35_1_2 -->
<g id="edge50" class="edge"><title>anon_35_1_1&#45;&#45;anon_35_1_2</title>
<path fill="none" stroke="black" d="M407.547,-139.425C414.994,-143.138 436.01,-153.616 443.014,-157.108"/>
</g>
<!-- anon_35_1_2&#45;&#45;1 -->
<g id="edge51" class="edge"><title>anon_35_1_2&#45;&#45;1</title>
<path fill="none" stroke="black" d="M447.661,-159.154C456.1,-162.384 485.68,-173.705 509.137,-182.682"/>
</g>
<!-- anon_38_11_0&#45;&#45;11 -->
<g id="edge53" class="edge"><title>anon_38_11_0&#45;&#45;11</title>
<path fill="none" stroke="black" d="M63.1607,-547.616C65.1344,-541.278 70.4971,-524.06 73.8038,-513.443"/>
</g>
<!-- anon_38_29_0&#45;&#45;29 -->
<g id="edge55" class="edge"><title>anon_38_29_0&#45;&#45;29</title>
<path fill="none" stroke="black" d="M21.8355,-627.214C18.4249,-633.699 9.15226,-651.333 5.25869,-658.737"/>
</g>
<!-- anon_40_8_0&#45;&#45;8 -->
<g id="edge57" class="edge"><title>anon_40_8_0&#45;&#45;8</title>
<path fill="none" stroke="black" d="M679.334,-490.711C672.805,-486.619 653.864,-474.747 642.664,-467.727"/>
</g>
<!-- anon_51_5_1 -->
<g id="node75" class="node"><title>anon_51_5_1</title>
<ellipse fill="white" stroke="black" cx="461.361" cy="-479.268" rx="2.5" ry="2.5"/>
</g>
<!-- anon_51_5_0&#45;&#45;anon_51_5_1 -->
<g id="edge60" class="edge"><title>anon_51_5_0&#45;&#45;anon_51_5_1</title>
<path fill="none" stroke="black" d="M422.934,-495.288C430.511,-492.13 451.892,-483.216 459.018,-480.245"/>
</g>
<!-- anon_51_5_1&#45;&#45;5 -->
<g id="edge61" class="edge"><title>anon_51_5_1&#45;&#45;5</title>
<path fill="none" stroke="black" d="M463.575,-477.901C470.202,-473.809 490.185,-461.47 502.586,-453.814"/>
</g>
<!-- anon_52_1_0&#45;&#45;1 -->
<g id="edge63" class="edge"><title>anon_52_1_0&#45;&#45;1</title>
<path fill="none" stroke="black" d="M476.692,-264.018C482.714,-257.419 502.028,-236.26 517.774,-219.008"/>
</g>
<!-- anon_54_0_0&#45;&#45;0 -->
<g id="edge65" class="edge"><title>anon_54_0_0&#45;&#45;0</title>
<path fill="none" stroke="black" d="M252.544,-218.311C244.336,-217.984 217.583,-216.914 193.858,-215.966"/>
</g>
</g>
</svg>
