<?xml version="1.0" encoding="UTF-8" standalone="no"?>
<!DOCTYPE svg PUBLIC "-//W3C//DTD SVG 1.1//EN"
 "http://www.w3.org/Graphics/SVG/1.1/DTD/svg11.dtd">
<!-- Generated by graphviz version 2.36.0 (20140111.2315)
 -->
<!-- Title: %3 Pages: 1 -->
<svg width="290pt" height="151pt"
 viewBox="0.00 0.00 290.28 150.92" xmlns="http://www.w3.org/2000/svg" xmlns:xlink="http://www.w3.org/1999/xlink">
<g id="graph0" class="graph" transform="scale(1 1) rotate(0) translate(4 146.925)">
<title>%3</title>
<polygon fill="white" stroke="none" points="-4,4 -4,-146.925 286.278,-146.925 286.278,4 -4,4"/>
<!-- 0 -->
<g id="node1" class="node"><title>0</title>
<path fill="olivedrab" stroke="black" stroke-width="0.5" d="M212.609,-72.8771C212.609,-72.8771 239.109,-72.8771 239.109,-72.8771 239.109,-73.6183 239.078,-74.3591 239.016,-75.0977 238.954,-75.8363 238.861,-76.5719 238.737,-77.3027 238.614,-78.0335 238.459,-78.7587 238.275,-79.4766 238.09,-80.1944 237.875,-80.9042 237.631,-81.604 237.387,-82.3038 237.114,-82.9931 236.812,-83.67 236.51,-84.347 236.18,-85.0109 235.822,-85.6602 235.465,-86.3094 235.08,-86.9434 234.67,-87.5604 234.259,-88.1774 233.823,-88.7769 233.362,-89.3573 232.901,-89.9377 232.416,-90.4985 231.908,-91.0383 231.4,-91.578 230.869,-92.0962 230.318,-92.5915 229.767,-93.0868 229.195,-93.5588 228.604,-94.0061 228.013,-94.4535 227.403,-94.8758 226.777,-95.2721 226.151,-95.6683 225.508,-96.0381 224.85,-96.3805 224.193,-96.7228 223.522,-97.0375 222.838,-97.3236 222.154,-97.6096 221.459,-97.8669 220.753,-98.0947 220.048,-98.3225 219.334,-98.5206 218.612,-98.6884 217.89,-98.8563 217.161,-98.9938 216.428,-99.1006 215.694,-99.2074 214.957,-99.2834 214.217,-99.3283 213.477,-99.3733 212.736,-99.3872 211.995,-99.37 211.254,-99.3528 210.514,-99.3045 209.777,-99.2253 209.04,-99.146 208.307,-99.0359 207.579,-98.8952 206.851,-98.7545 206.13,-98.5834 205.416,-98.3822 204.703,-98.181 203.998,-97.95 203.304,-97.6897 202.61,-97.4295 201.928,-97.1402 201.258,-96.8227 200.588,-96.5052 199.932,-96.1598 199.291,-95.7873 198.65,-95.4148 198.026,-95.0156 197.418,-94.5907 196.811,-94.1658 196.222,-93.7156 195.652,-93.2413 195.083,-92.7671 194.533,-92.2691 194.005,-91.7488 193.478,-91.2284 192.972,-90.6862 192.489,-90.1234 192.007,-89.5607 191.549,-88.978 191.115,-88.3768 190.682,-87.7756 190.273,-87.1565 189.892,-86.5211 189.51,-85.8857 189.155,-85.2346 188.828,-84.5695 188.501,-83.9043 188.202,-83.2258 187.932,-82.5356 187.662,-81.8454 187.421,-81.1442 187.21,-80.4337 186.998,-79.7233 186.817,-79.0044 186.666,-78.2788 186.515,-77.5531 186.394,-76.8215 186.304,-76.0858 186.215,-75.3501 186.156,-74.6109 186.128,-73.8702 186.1,-73.1296 186.104,-72.3881 186.138,-71.6477 186.172,-70.9073 186.238,-70.1687 186.334,-69.4338 186.43,-68.6989 186.558,-67.9684 186.715,-67.2441 186.873,-66.5199 187.06,-65.8026 187.278,-65.0941 187.496,-64.3856 187.743,-63.6865 188.019,-62.9988 188.296,-62.311 188.601,-61.6352 188.934,-60.973 189.267,-60.3108 189.627,-59.6629 190.014,-59.0309 190.402,-58.3989 190.815,-57.7835 191.254,-57.1862 191.693,-56.5889 192.157,-56.0103 192.644,-55.4519 193.132,-54.8935 193.642,-54.3558 194.175,-53.8402 194.707,-53.3246 195.261,-52.8315 195.835,-52.3624 196.408,-51.8932 197.002,-51.4483 197.613,-51.0288 198.224,-50.6094 198.852,-50.2158 199.496,-49.849 200.14,-49.4822 200.799,-49.1427 201.472,-48.8312 202.145,-48.5197 202.83,-48.2365 203.526,-47.9825 204.222,-47.7284 204.929,-47.5037 205.644,-47.3089 206.359,-47.1141 207.082,-46.9493 207.811,-46.8151 208.54,-46.6809 209.274,-46.5774 210.012,-46.5047 210.75,-46.4321 211.49,-46.3904 212.231,-46.3798 212.972,-46.3692 213.713,-46.3897 214.453,-46.4413 215.192,-46.4929 215.929,-46.5754 216.662,-46.6887 217.394,-46.8021 218.121,-46.9461 218.842,-47.1204 219.562,-47.2947 220.275,-47.4992 220.978,-47.7332 221.681,-47.9673 222.375,-48.2308 223.056,-48.5229 223.737,-48.8151 224.405,-49.1357 225.06,-49.4839 225.714,-49.8322 226.353,-50.2077 226.976,-50.6095 227.599,-51.0113 228.205,-51.4391 228.792,-51.8917 228.792,-51.8917 212.609,-72.8771 212.609,-72.8771"/>
<path fill="#1874cd" stroke="black" stroke-width="0.5" d="M212.609,-72.8771C212.609,-72.8771 228.792,-51.8917 228.792,-51.8917 229.591,-52.5081 230.354,-53.1696 231.078,-53.8731 231.802,-54.5766 232.485,-55.3209 233.124,-56.1023 233.763,-56.8837 234.357,-57.701 234.903,-58.5501 235.448,-59.3993 235.945,-60.2789 236.391,-61.1848 236.836,-62.0906 237.229,-63.0211 237.568,-63.9718 237.908,-64.9225 238.192,-65.8918 238.421,-66.8749 238.649,-67.8581 238.822,-68.8535 238.937,-69.8563 239.052,-70.8592 239.109,-71.8677 239.109,-72.8771 239.109,-72.8771 212.609,-72.8771 212.609,-72.8771"/>
<ellipse fill="none" stroke="black" cx="212.609" cy="-72.8771" rx="26.5" ry="26.5"/>
</g>
<!-- 1 -->
<g id="node2" class="node"><title>1</title>
<ellipse fill="olivedrab" stroke="black" cx="252.981" cy="-11" rx="11" ry="11"/>
</g>
<!-- 0&#45;&#45;1 -->
<g id="edge1" class="edge"><title>0&#45;&#45;1</title>
<path fill="none" stroke="black" d="M227.185,-50.5381C233.961,-40.1529 241.653,-28.3636 246.861,-20.381"/>
</g>
<!-- 5 -->
<g id="node6" class="node"><title>5</title>
<ellipse fill="olivedrab" stroke="black" cx="210.647" cy="-139.425" rx="3.5" ry="3.5"/>
</g>
<!-- 0&#45;&#45;5 -->
<g id="edge2" class="edge"><title>0&#45;&#45;5</title>
<path fill="none" stroke="black" d="M211.822,-99.5612C211.413,-113.447 210.956,-128.927 210.754,-135.8"/>
</g>
<!-- 2 -->
<g id="node3" class="node"><title>2</title>
<ellipse fill="olivedrab" stroke="black" cx="54.7329" cy="-89.2068" rx="9" ry="9"/>
</g>
<!-- 3 -->
<g id="node4" class="node"><title>3</title>
<ellipse fill="olivedrab" stroke="black" cx="5" cy="-93.8013" rx="5" ry="5"/>
</g>
<!-- 3&#45;&#45;2 -->
<g id="edge3" class="edge"><title>3&#45;&#45;2</title>
<path fill="none" stroke="black" d="M10.3223,-93.3096C18.7418,-92.5318 35.2367,-91.0079 45.5821,-90.0522"/>
</g>
<!-- 4 -->
<g id="node5" class="node"><title>4</title>
<ellipse fill="olivedrab" stroke="black" cx="259.824" cy="-119.826" rx="3.5" ry="3.5"/>
</g>
<!-- 4&#45;&#45;0 -->
<g id="edge4" class="edge"><title>4&#45;&#45;0</title>
<path fill="none" stroke="black" d="M257.285,-117.301C252.459,-112.502 241.561,-101.665 231.737,-91.8967"/>
</g>
<!-- 6 -->
<g id="node7" class="node"><title>6</title>
<ellipse fill="olivedrab" stroke="black" cx="102.999" cy="-84.2854" rx="3.5" ry="3.5"/>
</g>
<!-- 6&#45;&#45;2 -->
<g id="edge5" class="edge"><title>6&#45;&#45;2</title>
<path fill="none" stroke="black" d="M99.212,-84.6716C91.6561,-85.442 74.521,-87.1891 63.8611,-88.276"/>
</g>
<!-- 7 -->
<g id="node8" class="node"><title>7</title>
<ellipse fill="olivedrab" stroke="black" cx="146.115" cy="-79.7786" rx="3.5" ry="3.5"/>
</g>
<!-- 6&#45;&#45;7 -->
<g id="edge6" class="edge"><title>6&#45;&#45;7</title>
<path fill="none" stroke="black" d="M106.675,-83.9011C114.821,-83.0497 134.311,-81.0124 142.448,-80.1619"/>
</g>
<!-- 7&#45;&#45;0 -->
<g id="edge7" class="edge"><title>7&#45;&#45;0</title>
<path fill="none" stroke="black" d="M149.69,-79.4075C156.542,-78.6964 172.08,-77.0836 186,-75.6389"/>
</g>
<!-- 8 -->
<g id="node9" class="node"><title>8</title>
<ellipse fill="olivedrab" stroke="black" cx="278.778" cy="-65.7609" rx="3.5" ry="3.5"/>
</g>
<!-- 8&#45;&#45;0 -->
<g id="edge8" class="edge"><title>8&#45;&#45;0</title>
<path fill="none" stroke="black" d="M275.221,-66.1435C268.402,-66.8768 252.94,-68.5397 239.088,-70.0294"/>
</g>
<!-- 9 -->
<g id="node10" class="node"><title>9</title>
<ellipse fill="olivedrab" stroke="black" cx="197.174" cy="-8.13798" rx="3.5" ry="3.5"/>
</g>
<!-- 9&#45;&#45;0 -->
<g id="edge9" class="edge"><title>9&#45;&#45;0</title>
<path fill="none" stroke="black" d="M198.004,-11.6186C199.594,-18.2896 203.201,-33.418 206.433,-46.9706"/>
</g>
</g>
</svg>
