<?xml version="1.0" encoding="UTF-8" standalone="no"?>
<!DOCTYPE svg PUBLIC "-//W3C//DTD SVG 1.1//EN"
 "http://www.w3.org/Graphics/SVG/1.1/DTD/svg11.dtd">
<!-- Generated by graphviz version 2.36.0 (20140111.2315)
 -->
<!-- Title: %3 Pages: 1 -->
<svg width="234pt" height="252pt"
 viewBox="0.00 0.00 233.67 252.43" xmlns="http://www.w3.org/2000/svg" xmlns:xlink="http://www.w3.org/1999/xlink">
<g id="graph0" class="graph" transform="scale(1 1) rotate(0) translate(4 248.429)">
<title>%3</title>
<polygon fill="white" stroke="none" points="-4,4 -4,-248.429 229.668,-248.429 229.668,4 -4,4"/>
<!-- 0 -->
<g id="node1" class="node"><title>0</title>
<ellipse fill="#1874cd" stroke="black" cx="53.4024" cy="-182.23" rx="12" ry="12"/>
</g>
<!-- 1 -->
<g id="node2" class="node"><title>1</title>
<ellipse fill="#1874cd" stroke="black" cx="215.668" cy="-115.698" rx="10" ry="10"/>
</g>
<!-- 2 -->
<g id="node3" class="node"><title>2</title>
<ellipse fill="#1874cd" stroke="black" cx="55.4965" cy="-237.429" rx="7" ry="7"/>
</g>
<!-- 2&#45;&#45;0 -->
<g id="edge1" class="edge"><title>2&#45;&#45;0</title>
<path fill="none" stroke="black" d="M55.2227,-230.212C54.8768,-221.095 54.2765,-205.272 53.8604,-194.301"/>
</g>
<!-- 3 -->
<g id="node4" class="node"><title>3</title>
<ellipse fill="#1874cd" stroke="black" cx="166.243" cy="-97.8444" rx="6" ry="6"/>
</g>
<!-- 3&#45;&#45;1 -->
<g id="edge2" class="edge"><title>3&#45;&#45;1</title>
<path fill="none" stroke="black" d="M171.912,-99.8925C180.229,-102.897 195.847,-108.539 205.999,-112.206"/>
</g>
<!-- 4 -->
<g id="node5" class="node"><title>4</title>
<ellipse fill="#1874cd" stroke="black" cx="166.629" cy="-50.3984" rx="5" ry="5"/>
</g>
<!-- 4&#45;&#45;3 -->
<g id="edge3" class="edge"><title>4&#45;&#45;3</title>
<path fill="none" stroke="black" d="M166.587,-55.4759C166.516,-64.2733 166.369,-82.3121 166.292,-91.763"/>
</g>
<!-- 5 -->
<g id="node6" class="node"><title>5</title>
<ellipse fill="#1874cd" stroke="black" cx="157.974" cy="-5" rx="5" ry="5"/>
</g>
<!-- 5&#45;&#45;4 -->
<g id="edge4" class="edge"><title>5&#45;&#45;4</title>
<path fill="none" stroke="black" d="M158.967,-10.2078C160.636,-18.965 163.986,-36.5351 165.648,-45.2514"/>
</g>
<!-- 6 -->
<g id="node7" class="node"><title>6</title>
<ellipse fill="#1874cd" stroke="black" cx="3.5" cy="-168.992" rx="3.5" ry="3.5"/>
</g>
<!-- 6&#45;&#45;0 -->
<g id="edge5" class="edge"><title>6&#45;&#45;0</title>
<path fill="none" stroke="black" d="M7.08886,-169.944C14.2402,-171.841 30.5436,-176.166 41.7655,-179.143"/>
</g>
<!-- 7 -->
<g id="node8" class="node"><title>7</title>
<ellipse fill="#1874cd" stroke="black" cx="130.42" cy="-126.664" rx="3.5" ry="3.5"/>
</g>
<!-- 7&#45;&#45;3 -->
<g id="edge6" class="edge"><title>7&#45;&#45;3</title>
<path fill="none" stroke="black" d="M133.231,-124.403C139.301,-119.52 153.699,-107.936 161.318,-101.806"/>
</g>
<!-- 8 -->
<g id="node9" class="node"><title>8</title>
<ellipse fill="#1874cd" stroke="black" cx="95.7262" cy="-152.58" rx="3.5" ry="3.5"/>
</g>
<!-- 7&#45;&#45;8 -->
<g id="edge7" class="edge"><title>7&#45;&#45;8</title>
<path fill="none" stroke="black" d="M127.219,-129.056C120.509,-134.068 105.062,-145.607 98.6246,-150.415"/>
</g>
<!-- 8&#45;&#45;0 -->
<g id="edge8" class="edge"><title>8&#45;&#45;0</title>
<path fill="none" stroke="black" d="M92.6824,-154.713C86.6171,-158.962 72.7897,-168.649 63.2721,-175.316"/>
</g>
</g>
</svg>
