<?xml version="1.0" encoding="UTF-8" standalone="no"?>
<!DOCTYPE svg PUBLIC "-//W3C//DTD SVG 1.1//EN"
 "http://www.w3.org/Graphics/SVG/1.1/DTD/svg11.dtd">
<!-- Generated by graphviz version 2.36.0 (20140111.2315)
 -->
<!-- Title: %3 Pages: 1 -->
<svg width="179pt" height="322pt"
 viewBox="0.00 0.00 179.02 321.62" xmlns="http://www.w3.org/2000/svg" xmlns:xlink="http://www.w3.org/1999/xlink">
<g id="graph0" class="graph" transform="scale(1 1) rotate(0) translate(4 317.621)">
<title>%3</title>
<polygon fill="white" stroke="none" points="-4,4 -4,-317.621 175.018,-317.621 175.018,4 -4,4"/>
<!-- 0 -->
<g id="node1" class="node"><title>0</title>
<path fill="olivedrab" stroke="black" stroke-width="0.5" d="M55.0781,-182.285C55.0781,-182.285 69.0781,-182.285 69.0781,-182.285 69.0781,-182.774 69.0525,-183.262 69.0014,-183.749 68.9503,-184.235 68.8738,-184.718 68.7721,-185.196 68.6705,-185.674 68.5439,-186.147 68.3929,-186.611 68.2418,-187.076 68.0665,-187.533 67.8677,-187.979 67.6689,-188.426 67.4468,-188.862 67.2024,-189.285 66.958,-189.708 66.6916,-190.119 66.4043,-190.514 66.117,-190.91 65.8092,-191.29 65.4821,-191.653 65.155,-192.016 64.8092,-192.362 64.4459,-192.689 64.0826,-193.016 63.7025,-193.324 63.3071,-193.611 62.9116,-193.899 62.5014,-194.165 62.0781,-194.41 61.6548,-194.654 61.2189,-194.876 60.7724,-195.075 60.3258,-195.274 59.8692,-195.449 59.4043,-195.6 58.9394,-195.751 58.467,-195.878 57.9888,-195.979 57.5107,-196.081 57.0276,-196.157 56.5415,-196.208 56.0553,-196.26 55.5669,-196.285 55.0781,-196.285 54.5893,-196.285 54.1008,-196.26 53.6147,-196.208 53.1285,-196.157 52.6454,-196.081 52.1673,-195.979 51.6892,-195.878 51.2167,-195.751 50.7518,-195.6 50.287,-195.449 49.8303,-195.274 49.3838,-195.075 48.9372,-194.876 48.5014,-194.654 48.0781,-194.41 47.6548,-194.165 47.2445,-193.899 46.8491,-193.611 46.4536,-193.324 46.0735,-193.016 45.7102,-192.689 45.347,-192.362 45.0011,-192.016 44.674,-191.653 44.347,-191.29 44.0391,-190.91 43.7518,-190.514 43.4645,-190.119 43.1981,-189.708 42.9537,-189.285 42.7093,-188.862 42.4873,-188.426 42.2884,-187.979 42.0896,-187.533 41.9143,-187.076 41.7633,-186.611 41.6122,-186.147 41.4856,-185.674 41.384,-185.196 41.2824,-184.718 41.2059,-184.235 41.1548,-183.749 41.1037,-183.262 41.0781,-182.774 41.0781,-182.285 41.0781,-181.796 41.1037,-181.308 41.1548,-180.822 41.2059,-180.336 41.2824,-179.853 41.384,-179.374 41.384,-179.374 55.0781,-182.285 55.0781,-182.285"/>
<path fill="#1874cd" stroke="black" stroke-width="0.5" d="M55.0781,-182.285C55.0781,-182.285 41.384,-179.374 41.384,-179.374 41.5619,-178.537 41.8163,-177.718 42.1438,-176.928 42.4713,-176.137 42.8706,-175.378 43.3367,-174.66 43.8028,-173.942 44.3337,-173.269 44.9228,-172.648 45.5119,-172.027 46.1567,-171.462 46.8491,-170.959 47.5414,-170.456 48.2785,-170.017 49.0509,-169.649 49.8234,-169.281 50.628,-168.984 51.4546,-168.762 52.2813,-168.541 53.1265,-168.395 53.9796,-168.328 54.8328,-168.261 55.6904,-168.272 56.5415,-168.362 57.3926,-168.451 58.2337,-168.619 59.0543,-168.862 59.8749,-169.105 60.6714,-169.423 61.4339,-169.811 62.1965,-170.2 62.9218,-170.657 63.6007,-171.178 64.2797,-171.699 64.9095,-172.281 65.4821,-172.917 66.0547,-173.553 66.5679,-174.241 67.015,-174.97 67.4622,-175.7 67.8415,-176.469 68.1482,-177.268 68.4549,-178.067 68.6877,-178.892 68.8436,-179.734 68.9996,-180.575 69.0781,-181.429 69.0781,-182.285 69.0781,-182.285 55.0781,-182.285 55.0781,-182.285"/>
<ellipse fill="none" stroke="black" cx="55.0781" cy="-182.285" rx="14" ry="14"/>
</g>
<!-- 1 -->
<g id="node2" class="node"><title>1</title>
<path fill="olivedrab" stroke="black" stroke-width="0.5" d="M117.173,-190.431C117.173,-190.431 129.173,-190.431 129.173,-190.431 129.173,-190.859 129.15,-191.287 129.104,-191.713 129.058,-192.139 128.99,-192.563 128.899,-192.981 128.807,-193.4 128.694,-193.814 128.559,-194.22 128.423,-194.627 128.266,-195.026 128.088,-195.416 127.91,-195.805 127.712,-196.185 127.493,-196.554 127.274,-196.922 127.036,-197.279 126.779,-197.622 126.523,-197.965 126.248,-198.294 125.956,-198.608 125.664,-198.921 125.355,-199.219 125.031,-199.5 124.707,-199.78 124.369,-200.043 124.017,-200.288 123.665,-200.532 123.3,-200.757 122.924,-200.963 122.548,-201.168 122.161,-201.353 121.765,-201.517 121.369,-201.681 120.965,-201.824 120.554,-201.944 120.142,-202.065 119.725,-202.164 119.303,-202.24 118.882,-202.316 118.456,-202.369 118.029,-202.4 117.601,-202.431 117.173,-202.438 116.745,-202.423 116.316,-202.408 115.889,-202.369 115.465,-202.308 115.465,-202.308 117.173,-190.431 117.173,-190.431"/>
<path fill="#1874cd" stroke="black" stroke-width="0.5" d="M117.173,-190.431C117.173,-190.431 115.465,-202.308 115.465,-202.308 114.899,-202.227 114.34,-202.105 113.792,-201.944 113.244,-201.783 112.708,-201.583 112.188,-201.346 111.668,-201.109 111.166,-200.835 110.685,-200.526 110.204,-200.217 109.746,-199.874 109.314,-199.5 108.883,-199.125 108.478,-198.721 108.104,-198.289 107.73,-197.857 107.387,-197.399 107.078,-196.918 106.769,-196.437 106.495,-195.935 106.257,-195.416 106.02,-194.896 105.82,-194.36 105.659,-193.811 105.498,-193.263 105.376,-192.704 105.295,-192.138 105.214,-191.573 105.173,-191.002 105.173,-190.431 105.173,-189.859 105.214,-189.288 105.295,-188.723 105.376,-188.157 105.498,-187.598 105.659,-187.05 105.82,-186.501 106.02,-185.965 106.257,-185.446 106.495,-184.926 106.769,-184.424 107.078,-183.943 107.387,-183.462 107.73,-183.004 108.104,-182.572 108.478,-182.14 108.883,-181.736 109.314,-181.362 109.746,-180.987 110.204,-180.644 110.685,-180.335 111.166,-180.027 111.668,-179.752 112.188,-179.515 112.708,-179.278 113.244,-179.078 113.792,-178.917 114.34,-178.756 114.899,-178.634 115.465,-178.553 116.031,-178.471 116.601,-178.431 117.173,-178.431 117.744,-178.431 118.315,-178.471 118.881,-178.553 119.446,-178.634 120.005,-178.756 120.554,-178.917 121.102,-179.078 121.638,-179.278 122.158,-179.515 122.678,-179.752 123.18,-180.027 123.661,-180.335 124.141,-180.644 124.599,-180.987 125.031,-181.362 125.463,-181.736 125.868,-182.14 126.242,-182.572 126.616,-183.004 126.959,-183.462 127.268,-183.943 127.577,-184.424 127.851,-184.926 128.088,-185.446 128.326,-185.965 128.526,-186.501 128.687,-187.05 128.848,-187.598 128.969,-188.157 129.051,-188.723 129.132,-189.288 129.173,-189.859 129.173,-190.431 129.173,-190.431 117.173,-190.431 117.173,-190.431"/>
<ellipse fill="none" stroke="black" cx="117.173" cy="-190.431" rx="12" ry="12"/>
</g>
<!-- 0&#45;&#45;1 -->
<g id="edge1" class="edge"><title>0&#45;&#45;1</title>
<path fill="none" stroke="black" d="M69.1683,-184.133C80.0462,-185.56 94.93,-187.513 105.228,-188.864"/>
</g>
<!-- 2 -->
<g id="node3" class="node"><title>2</title>
<ellipse fill="#1874cd" stroke="black" cx="73.899" cy="-128.545" rx="6" ry="6"/>
</g>
<!-- 2&#45;&#45;0 -->
<g id="edge2" class="edge"><title>2&#45;&#45;0</title>
<path fill="none" stroke="black" d="M71.8849,-134.296C69.002,-142.528 63.6175,-157.902 59.7184,-169.036"/>
</g>
<!-- 3 -->
<g id="node4" class="node"><title>3</title>
<ellipse fill="olivedrab" stroke="black" cx="3.84101" cy="-198.711" rx="3.5" ry="3.5"/>
</g>
<!-- 3&#45;&#45;0 -->
<g id="edge3" class="edge"><title>3&#45;&#45;0</title>
<path fill="none" stroke="black" d="M7.20282,-197.633C14.06,-195.435 29.9921,-190.327 41.5994,-186.606"/>
</g>
<!-- 4 -->
<g id="node5" class="node"><title>4</title>
<ellipse fill="olivedrab" stroke="black" cx="90.5124" cy="-222.639" rx="3.5" ry="3.5"/>
</g>
<!-- 4&#45;&#45;0 -->
<g id="edge4" class="edge"><title>4&#45;&#45;0</title>
<path fill="none" stroke="black" d="M88.1875,-219.991C83.4452,-214.59 72.427,-202.043 64.3996,-192.901"/>
</g>
<!-- 5 -->
<g id="node6" class="node"><title>5</title>
<ellipse fill="olivedrab" stroke="black" cx="3.5" cy="-166.831" rx="3.5" ry="3.5"/>
</g>
<!-- 5&#45;&#45;0 -->
<g id="edge5" class="edge"><title>5&#45;&#45;0</title>
<path fill="none" stroke="black" d="M6.88418,-167.845C13.787,-169.913 29.8251,-174.719 41.5097,-178.22"/>
</g>
<!-- 6 -->
<g id="node7" class="node"><title>6</title>
<ellipse fill="olivedrab" stroke="black" cx="21.8542" cy="-140.014" rx="3.5" ry="3.5"/>
</g>
<!-- 6&#45;&#45;0 -->
<g id="edge6" class="edge"><title>6&#45;&#45;0</title>
<path fill="none" stroke="black" d="M24.0341,-142.787C28.4805,-148.445 38.8115,-161.589 46.338,-171.165"/>
</g>
<!-- 7 -->
<g id="node8" class="node"><title>7</title>
<ellipse fill="#1874cd" stroke="black" cx="7.11908" cy="-310.121" rx="3.5" ry="3.5"/>
</g>
<!-- anon_7_0_0 -->
<g id="node11" class="node"><title>anon_7_0_0</title>
<ellipse fill="white" stroke="black" cx="23.5836" cy="-271.245" rx="2.5" ry="2.5"/>
</g>
<!-- 7&#45;&#45;anon_7_0_0 -->
<g id="edge7" class="edge"><title>7&#45;&#45;anon_7_0_0</title>
<path fill="none" stroke="black" d="M8.63851,-306.533C11.9502,-298.714 19.7465,-280.305 22.5537,-273.677"/>
</g>
<!-- 8 -->
<g id="node9" class="node"><title>8</title>
<ellipse fill="#1874cd" stroke="black" cx="103.066" cy="-3.5" rx="3.5" ry="3.5"/>
</g>
<!-- anon_8_2_0 -->
<g id="node13" class="node"><title>anon_8_2_0</title>
<ellipse fill="white" stroke="black" cx="94.282" cy="-44.7466" rx="2.5" ry="2.5"/>
</g>
<!-- 8&#45;&#45;anon_8_2_0 -->
<g id="edge10" class="edge"><title>8&#45;&#45;anon_8_2_0</title>
<path fill="none" stroke="black" d="M102.317,-7.01667C100.591,-15.121 96.3655,-34.9635 94.8415,-42.1195"/>
</g>
<!-- 9 -->
<g id="node10" class="node"><title>9</title>
<ellipse fill="olivedrab" stroke="black" cx="167.518" cy="-202.593" rx="3.5" ry="3.5"/>
</g>
<!-- 9&#45;&#45;1 -->
<g id="edge13" class="edge"><title>9&#45;&#45;1</title>
<path fill="none" stroke="black" d="M163.897,-201.718C156.682,-199.975 140.234,-196.002 128.913,-193.267"/>
</g>
<!-- anon_7_0_1 -->
<g id="node12" class="node"><title>anon_7_0_1</title>
<ellipse fill="white" stroke="black" cx="38.37" cy="-232.701" rx="2.5" ry="2.5"/>
</g>
<!-- anon_7_0_0&#45;&#45;anon_7_0_1 -->
<g id="edge8" class="edge"><title>anon_7_0_0&#45;&#45;anon_7_0_1</title>
<path fill="none" stroke="black" d="M24.5538,-268.716C27.2266,-261.749 34.6769,-242.328 37.3769,-235.29"/>
</g>
<!-- anon_7_0_1&#45;&#45;0 -->
<g id="edge9" class="edge"><title>anon_7_0_1&#45;&#45;0</title>
<path fill="none" stroke="black" d="M39.1759,-230.27C41.2097,-224.133 46.6699,-207.657 50.6253,-195.721"/>
</g>
<!-- anon_8_2_1 -->
<g id="node14" class="node"><title>anon_8_2_1</title>
<ellipse fill="white" stroke="black" cx="85.2624" cy="-84.9276" rx="2.5" ry="2.5"/>
</g>
<!-- anon_8_2_0&#45;&#45;anon_8_2_1 -->
<g id="edge11" class="edge"><title>anon_8_2_0&#45;&#45;anon_8_2_1</title>
<path fill="none" stroke="black" d="M93.6902,-47.383C92.0598,-54.6461 87.5151,-74.892 85.8682,-82.2288"/>
</g>
<!-- anon_8_2_1&#45;&#45;2 -->
<g id="edge12" class="edge"><title>anon_8_2_1&#45;&#45;2</title>
<path fill="none" stroke="black" d="M84.5856,-87.5254C82.8082,-94.3479 77.9722,-112.911 75.4604,-122.552"/>
</g>
</g>
</svg>
