<?xml version="1.0" encoding="UTF-8" standalone="no"?>
<!DOCTYPE svg PUBLIC "-//W3C//DTD SVG 1.1//EN"
 "http://www.w3.org/Graphics/SVG/1.1/DTD/svg11.dtd">
<!-- Generated by graphviz version 2.36.0 (20140111.2315)
 -->
<!-- Title: %3 Pages: 1 -->
<svg width="174pt" height="270pt"
 viewBox="0.00 0.00 174.22 269.69" xmlns="http://www.w3.org/2000/svg" xmlns:xlink="http://www.w3.org/1999/xlink">
<g id="graph0" class="graph" transform="scale(1 1) rotate(0) translate(4 265.692)">
<title>%3</title>
<polygon fill="white" stroke="none" points="-4,4 -4,-265.692 170.218,-265.692 170.218,4 -4,4"/>
<!-- 0 -->
<g id="node1" class="node"><title>0</title>
<path fill="#787878" stroke="black" stroke-width="0.5" d="M81.5254,-138.995C81.5254,-138.995 122.525,-138.995 122.525,-138.995 122.525,-140.027 122.486,-141.059 122.409,-142.088 122.331,-143.118 122.214,-144.144 122.059,-145.164 121.903,-146.185 121.709,-147.199 121.478,-148.205 121.246,-149.211 120.976,-150.207 120.669,-151.193 120.362,-152.178 120.018,-153.152 119.637,-154.111 119.257,-155.071 118.84,-156.016 118.388,-156.944 117.936,-157.872 117.449,-158.782 116.929,-159.674 116.408,-160.565 115.854,-161.436 115.268,-162.286 114.681,-163.135 114.063,-163.962 113.414,-164.765 112.766,-165.568 112.087,-166.346 111.379,-167.098 110.672,-167.849 109.936,-168.574 109.174,-169.27 108.412,-169.966 107.623,-170.633 106.811,-171.27 105.998,-171.906 105.162,-172.512 104.304,-173.085 103.445,-173.659 102.566,-174.2 101.667,-174.707 100.768,-175.214 99.8498,-175.687 98.915,-176.125 97.9803,-176.562 97.0293,-176.965 96.0642,-177.331 95.099,-177.697 94.1204,-178.026 93.1304,-178.318 92.1404,-178.611 91.1397,-178.865 90.1305,-179.082 89.1213,-179.299 88.1042,-179.477 87.0815,-179.617 86.0588,-179.757 85.0312,-179.858 84.0009,-179.92 82.9705,-179.983 81.9382,-180.006 80.9061,-179.99 79.874,-179.975 78.8429,-179.92 77.8149,-179.827 76.7869,-179.733 75.7628,-179.601 74.7448,-179.431 73.7268,-179.26 72.7156,-179.051 71.7134,-178.804 70.7112,-178.557 69.7187,-178.272 68.7379,-177.95 67.7572,-177.628 66.789,-177.269 65.8353,-176.874 64.8817,-176.479 63.9433,-176.048 63.0222,-175.582 62.1011,-175.117 61.1979,-174.616 60.3145,-174.082 59.4312,-173.548 58.5683,-172.981 57.7277,-172.382 56.8872,-171.783 56.0696,-171.152 55.2766,-170.491 54.4837,-169.83 53.716,-169.14 52.9752,-168.421 52.2343,-167.702 51.5209,-166.956 50.8364,-166.183 50.8364,-166.183 81.5254,-138.995 81.5254,-138.995"/>
<path fill="palegreen" stroke="black" stroke-width="0.5" d="M81.5254,-138.995C81.5254,-138.995 50.8364,-166.183 50.8364,-166.183 49.741,-164.947 48.7214,-163.645 47.783,-162.286 46.8447,-160.926 45.9893,-159.511 45.2217,-158.049 44.454,-156.586 43.7754,-155.078 43.1897,-153.534 42.6039,-151.989 42.1121,-150.411 41.7167,-148.807 41.3214,-147.203 41.0234,-145.577 40.8243,-143.937 40.6252,-142.297 40.5254,-140.647 40.5254,-138.995 40.5254,-137.343 40.6252,-135.693 40.8243,-134.053 41.0234,-132.413 41.3214,-130.787 41.7167,-129.183 42.1121,-127.579 42.6039,-126.001 43.1897,-124.456 43.7755,-122.912 44.454,-121.404 45.2217,-119.941 45.9893,-118.479 46.8447,-117.064 47.783,-115.704 48.7214,-114.345 49.741,-113.044 50.8364,-111.807 51.9318,-110.571 53.1009,-109.402 54.3373,-108.306 55.5738,-107.211 56.8753,-106.191 58.2347,-105.253 59.5942,-104.314 61.0091,-103.459 62.4717,-102.691 63.9344,-101.924 65.4421,-101.245 66.9866,-100.659 68.5311,-100.074 70.1096,-99.5818 71.7134,-99.1865 73.3173,-98.7912 74.9435,-98.4932 76.5834,-98.294 78.2232,-98.0949 79.8735,-97.9951 81.5254,-97.9951 83.1772,-97.9951 84.8276,-98.0949 86.4674,-98.294 88.1072,-98.4932 89.7335,-98.7912 91.3373,-99.1865 92.9412,-99.5818 94.5197,-100.074 96.0642,-100.659 97.6087,-101.245 99.1164,-101.924 100.579,-102.691 102.042,-103.459 103.457,-104.314 104.816,-105.253 106.175,-106.191 107.477,-107.211 108.713,-108.306 109.95,-109.402 111.119,-110.571 112.214,-111.807 113.31,-113.044 114.329,-114.345 115.268,-115.704 116.206,-117.064 117.061,-118.479 117.829,-119.941 118.597,-121.404 119.275,-122.912 119.861,-124.456 120.447,-126.001 120.939,-127.579 121.334,-129.183 121.729,-130.787 122.027,-132.413 122.226,-134.053 122.426,-135.693 122.525,-137.343 122.525,-138.995 122.525,-138.995 81.5254,-138.995 81.5254,-138.995"/>
<ellipse fill="none" stroke="black" cx="81.5254" cy="-138.995" rx="41" ry="41"/>
</g>
<!-- 1 -->
<g id="node2" class="node"><title>1</title>
<ellipse fill="palegreen" stroke="black" cx="132.896" cy="-214.609" rx="13" ry="13"/>
</g>
<!-- 0&#45;&#45;1 -->
<g id="edge1" class="edge"><title>0&#45;&#45;1</title>
<path fill="none" stroke="black" d="M104.806,-173.262C112.239,-184.204 119.943,-195.544 125.399,-203.574"/>
</g>
<!-- 9 -->
<g id="node10" class="node"><title>9</title>
<ellipse fill="palegreen" stroke="black" cx="162.718" cy="-258.192" rx="3.5" ry="3.5"/>
</g>
<!-- 1&#45;&#45;9 -->
<g id="edge2" class="edge"><title>1&#45;&#45;9</title>
<path fill="none" stroke="black" d="M140.421,-225.607C147.185,-235.492 156.662,-249.341 160.733,-255.29"/>
</g>
<!-- 2 -->
<g id="node3" class="node"><title>2</title>
<ellipse fill="#787878" stroke="black" cx="54.543" cy="-52.9343" rx="11.5" ry="11.5"/>
</g>
<!-- 2&#45;&#45;0 -->
<g id="edge3" class="edge"><title>2&#45;&#45;0</title>
<path fill="none" stroke="black" d="M58.0705,-64.1853C60.9275,-73.2977 65.1314,-86.7061 69.194,-99.6638"/>
</g>
<!-- 11 -->
<g id="node12" class="node"><title>11</title>
<ellipse fill="#787878" stroke="black" cx="15.1258" cy="-20.2297" rx="3.5" ry="3.5"/>
</g>
<!-- 2&#45;&#45;11 -->
<g id="edge4" class="edge"><title>2&#45;&#45;11</title>
<path fill="none" stroke="black" d="M45.4009,-45.349C36.4857,-37.9521 23.4752,-27.1572 17.8663,-22.5034"/>
</g>
<!-- 3 -->
<g id="node4" class="node"><title>3</title>
<ellipse fill="palegreen" stroke="black" cx="26.9981" cy="-199.128" rx="3.5" ry="3.5"/>
</g>
<!-- 3&#45;&#45;0 -->
<g id="edge5" class="edge"><title>3&#45;&#45;0</title>
<path fill="none" stroke="black" d="M29.6281,-196.228C34.1806,-191.207 43.9939,-180.385 53.8749,-169.488"/>
</g>
<!-- 4 -->
<g id="node5" class="node"><title>4</title>
<ellipse fill="#787878" stroke="black" cx="67.9561" cy="-3.5" rx="3.5" ry="3.5"/>
</g>
<!-- 4&#45;&#45;2 -->
<g id="edge6" class="edge"><title>4&#45;&#45;2</title>
<path fill="none" stroke="black" d="M66.9914,-7.05519C65.0452,-14.228 60.5772,-30.6951 57.5584,-41.821"/>
</g>
<!-- 5 -->
<g id="node6" class="node"><title>5</title>
<ellipse fill="#787878" stroke="black" cx="160.498" cy="-157.357" rx="3.5" ry="3.5"/>
</g>
<!-- 5&#45;&#45;0 -->
<g id="edge7" class="edge"><title>5&#45;&#45;0</title>
<path fill="none" stroke="black" d="M156.689,-156.472C150.095,-154.939 135.883,-151.634 121.572,-148.306"/>
</g>
<!-- 6 -->
<g id="node7" class="node"><title>6</title>
<ellipse fill="#787878" stroke="black" cx="68.6818" cy="-219.06" rx="3.5" ry="3.5"/>
</g>
<!-- 6&#45;&#45;0 -->
<g id="edge8" class="edge"><title>6&#45;&#45;0</title>
<path fill="none" stroke="black" d="M69.3013,-215.199C70.3736,-208.514 72.6851,-194.105 75.0125,-179.596"/>
</g>
<!-- 7 -->
<g id="node8" class="node"><title>7</title>
<ellipse fill="palegreen" stroke="black" cx="131.383" cy="-75.0701" rx="3.5" ry="3.5"/>
</g>
<!-- 7&#45;&#45;0 -->
<g id="edge9" class="edge"><title>7&#45;&#45;0</title>
<path fill="none" stroke="black" d="M128.978,-78.1533C124.815,-83.4905 115.842,-94.995 106.808,-106.579"/>
</g>
<!-- 8 -->
<g id="node9" class="node"><title>8</title>
<ellipse fill="#787878" stroke="black" cx="157.971" cy="-111.798" rx="3.5" ry="3.5"/>
</g>
<!-- 8&#45;&#45;0 -->
<g id="edge10" class="edge"><title>8&#45;&#45;0</title>
<path fill="none" stroke="black" d="M154.284,-113.11C147.901,-115.381 134.144,-120.275 120.291,-125.204"/>
</g>
<!-- 10 -->
<g id="node11" class="node"><title>10</title>
<ellipse fill="palegreen" stroke="black" cx="3.85243" cy="-115.751" rx="3.5" ry="3.5"/>
</g>
<!-- 10&#45;&#45;0 -->
<g id="edge11" class="edge"><title>10&#45;&#45;0</title>
<path fill="none" stroke="black" d="M7.59875,-116.872C14.0837,-118.812 28.0625,-122.996 42.1378,-127.208"/>
</g>
<!-- 12 -->
<g id="node13" class="node"><title>12</title>
<ellipse fill="#787878" stroke="black" cx="3.5" cy="-161.379" rx="3.5" ry="3.5"/>
</g>
<!-- 12&#45;&#45;0 -->
<g id="edge12" class="edge"><title>12&#45;&#45;0</title>
<path fill="none" stroke="black" d="M7.26333,-160.299C13.7777,-158.431 27.8199,-154.402 41.9591,-150.346"/>
</g>
</g>
</svg>
