<?xml version="1.0" encoding="UTF-8" standalone="no"?>
<!DOCTYPE svg PUBLIC "-//W3C//DTD SVG 1.1//EN"
 "http://www.w3.org/Graphics/SVG/1.1/DTD/svg11.dtd">
<!-- Generated by graphviz version 2.38.0 (20140413.2041)
 -->
<!-- Title: %3 Pages: 1 -->
<svg width="610pt" height="608pt"
 viewBox="0.00 0.00 609.76 607.51" xmlns="http://www.w3.org/2000/svg" xmlns:xlink="http://www.w3.org/1999/xlink">
<g id="graph0" class="graph" transform="scale(1 1) rotate(0) translate(338.047 365.498)">
<title>%3</title>
<polygon fill="white" stroke="none" points="-338.047,242.016 -338.047,-365.498 271.716,-365.498 271.716,242.016 -338.047,242.016"/>
<!-- 0 -->
<g id="node1" class="node"><title>0</title>
<path fill="#98f5ff" stroke="black" stroke-width="0.5" d="M17.8352,82.1774C17.8352,82.1774 43.3352,82.1774 43.3352,82.1774 43.3352,81.443 43.3035,80.7089 43.2401,79.9771 43.1767,79.2454 43.0817,78.5168 42.9555,77.7932 42.8292,77.0697 42.6717,76.352 42.4835,75.6421 42.2953,74.9321 42.0764,74.2307 41.8276,73.5396 41.5789,72.8486 41.3003,72.1686 40.9928,71.5016 40.6853,70.8346 40.3492,70.1812 39.9853,69.5432 39.6214,68.9053 39.2301,68.2833 38.8125,67.6791 38.3949,67.0749 37.9514,66.489 37.4833,65.9231 37.0151,65.3572 36.5227,64.8118 36.0075,64.2884 35.4922,63.765 34.9546,63.2641 34.3961,62.7871 33.8376,62.3101 33.2588,61.8574 32.6612,61.4304 32.0637,61.0034 31.4479,60.6024 30.8157,60.2285 30.1836,59.8546 29.5355,59.5083 28.8734,59.1903 28.2114,58.8724 27.5358,58.5832 26.8488,58.3236 26.1617,58.064 25.4638,57.8342 24.7569,57.6348 24.05,57.4355 23.3349,57.2667 22.6134,57.1291 22.6134,57.1291 17.8352,82.1774 17.8352,82.1774"/>
<path fill="deepskyblue" stroke="black" stroke-width="0.5" d="M17.8352,82.1774C17.8352,82.1774 22.6134,57.1291 22.6134,57.1291 21.334,56.8851 20.0379,56.7394 18.7362,56.6934 17.4346,56.6473 16.1314,56.7011 14.838,56.8542 13.5446,57.0073 12.2648,57.2592 11.0099,57.6078 9.75497,57.9564 8.52861,58.4007 7.34157,58.9366 6.15453,59.4726 5.01029,60.0987 3.91891,60.8095 2.82752,61.5203 1.7922,62.3137 0.822025,63.1826 -0.14815,64.0516 -1.05033,64.9936 -1.87658,66.0004 -2.70284,67.0072 -3.45074,68.0758 -4.11374,69.1969 -4.77673,70.3179 -5.35286,71.4881 -5.83707,72.6972 -6.32128,73.9063 -6.71214,75.1507 -7.00624,76.4195 -7.30033,77.6883 -7.49678,78.9778 -7.59387,80.2766 -7.69096,81.5754 -7.68839,82.8797 -7.58621,84.1781 -7.48402,85.4766 -7.2825,86.7652 -6.98343,88.0329 -6.68436,89.3005 -6.28861,90.5434 -5.79966,91.7505 -5.3107,92.9577 -4.72998,94.1256 -4.06259,95.2441 -3.3952,96.3625 -2.6431,97.4282 -1.8129,98.4317 -0.9827,99.4353 -0.0768316,100.374 0.896748,101.239 1.87033,102.104 2.90876,102.893 4.00293,103.6 5.09709,104.306 6.24378,104.928 7.43292,105.459 8.62205,105.991 9.85015,106.43 11.1064,106.774 12.3627,107.117 13.6435,107.364 14.9374,107.512 16.2314,107.66 17.5349,107.709 18.8363,107.658 20.1377,107.607 21.4333,107.456 22.7117,107.207 23.9901,106.958 25.2476,106.611 26.473,106.17 27.6984,105.729 28.8883,105.194 30.0321,104.571 31.1758,103.948 32.2702,103.239 33.3056,102.449 34.3409,101.658 35.3143,100.79 36.217,99.8512 37.1197,98.9123 37.9491,97.9057 38.698,96.8401 39.4469,95.7745 40.1131,94.6531 40.6907,93.4857 41.2682,92.3184 41.7555,91.1085 42.1483,89.8666 42.541,88.6248 42.838,87.3548 43.0367,86.0676 43.2354,84.7804 43.3352,83.4799 43.3352,82.1774 43.3352,82.1774 17.8352,82.1774 17.8352,82.1774"/>
<ellipse fill="none" stroke="black" cx="17.8352" cy="82.1774" rx="25.5" ry="25.5"/>
<text text-anchor="middle" x="17.8352" y="84.0774" font-family="monospace" font-size="8.00">0</text>
</g>
<!-- 22 -->
<g id="node23" class="node"><title>22</title>
<ellipse fill="deepskyblue" stroke="black" cx="-57.7134" cy="148.116" rx="3.5" ry="3.5"/>
<text text-anchor="middle" x="-57.7134" y="150.016" font-family="monospace" font-size="8.00">22</text>
</g>
<!-- 0&#45;&gt;22 -->
<g id="edge2" class="edge"><title>0&#45;&gt;22</title>
<path fill="none" stroke="black" d="M-1.62046,99.1583C-20.1576,115.337 -46.4607,138.295 -54.9547,145.708"/>
</g>
<!-- 24 -->
<g id="node25" class="node"><title>24</title>
<ellipse fill="deepskyblue" stroke="black" cx="-14.0367" cy="165.852" rx="3.5" ry="3.5"/>
<text text-anchor="middle" x="-14.0367" y="167.752" font-family="monospace" font-size="8.00">24</text>
</g>
<!-- 0&#45;&gt;24 -->
<g id="edge3" class="edge"><title>0&#45;&gt;24</title>
<path fill="none" stroke="black" d="M8.61652,106.38C2.04399,123.635 -6.39449,145.788 -10.8888,157.587"/>
<polygon fill="black" stroke="black" points="-9.33752,158.431 -12.7527,162.481 -12.6083,157.186 -9.33752,158.431"/>
<text text-anchor="middle" x="-12.1361" y="129.383" font-family="monospace" font-size="8.00">P55L</text>
</g>
<!-- 58 -->
<g id="node59" class="node"><title>58</title>
<ellipse fill="black" stroke="black" cx="33.9746" cy="166.313" rx="3.5" ry="3.5"/>
<text text-anchor="middle" x="33.9746" y="168.213" font-family="monospace" font-size="8.00">58</text>
</g>
<!-- 0&#45;&gt;58 -->
<g id="edge4" class="edge"><title>0&#45;&gt;58</title>
<path fill="none" stroke="black" d="M22.6775,107.421C26.503,127.363 31.4869,153.345 33.2879,162.733"/>
</g>
<!-- 1 -->
<g id="node2" class="node"><title>1</title>
<ellipse fill="deepskyblue" stroke="black" cx="-142.449" cy="-281.517" rx="3.5" ry="3.5"/>
<text text-anchor="middle" x="-142.449" y="-279.617" font-family="monospace" font-size="8.00">1</text>
</g>
<!-- 3 -->
<g id="node4" class="node"><title>3</title>
<path fill="#1874cd" stroke="black" stroke-width="0.5" d="M-197.457,-199.458C-197.457,-199.458 -163.457,-199.458 -163.457,-199.458 -163.457,-200.744 -163.53,-202.029 -163.675,-203.307 -163.821,-204.585 -164.039,-205.853 -164.328,-207.107 -164.617,-208.36 -164.977,-209.595 -165.407,-210.808 -165.836,-212.02 -166.334,-213.207 -166.898,-214.363 -167.461,-215.519 -168.09,-216.642 -168.781,-217.726 -169.472,-218.811 -170.224,-219.856 -171.034,-220.855 -171.843,-221.855 -172.708,-222.807 -173.626,-223.709 -174.543,-224.61 -175.511,-225.459 -176.524,-226.251 -177.538,-227.042 -178.595,-227.776 -179.692,-228.448 -180.788,-229.12 -181.922,-229.729 -183.088,-230.273 -184.253,-230.816 -185.449,-231.293 -186.668,-231.701 -187.888,-232.109 -189.13,-232.448 -190.388,-232.715 -191.646,-232.983 -192.918,-233.178 -194.198,-233.302 -195.478,-233.425 -196.764,-233.476 -198.05,-233.453 -199.336,-233.431 -200.619,-233.335 -201.894,-233.167 -203.17,-233 -204.434,-232.759 -205.682,-232.448 -205.682,-232.448 -197.457,-199.458 -197.457,-199.458"/>
<path fill="#ff3030" stroke="black" stroke-width="0.5" d="M-197.457,-199.458C-197.457,-199.458 -205.682,-232.448 -205.682,-232.448 -207.17,-232.077 -208.631,-231.606 -210.056,-231.038 -211.48,-230.469 -212.864,-229.806 -214.199,-229.05 -215.534,-228.295 -216.816,-227.451 -218.037,-226.522 -219.257,-225.594 -220.414,-224.584 -221.498,-223.5 -222.583,-222.415 -223.592,-221.259 -224.521,-220.038 -225.449,-218.818 -226.294,-217.535 -227.049,-216.201 -227.804,-214.866 -228.468,-213.482 -229.036,-212.057 -229.604,-210.633 -230.076,-209.172 -230.447,-207.684 -230.818,-206.196 -231.088,-204.684 -231.254,-203.16 -231.421,-201.635 -231.485,-200.101 -231.445,-198.568 -231.405,-197.035 -231.261,-195.507 -231.014,-193.993 -230.768,-192.479 -230.419,-190.984 -229.971,-189.518 -229.523,-188.051 -228.975,-186.617 -228.333,-185.224 -227.691,-183.831 -226.956,-182.483 -226.132,-181.19 -225.308,-179.897 -224.397,-178.66 -223.406,-177.49 -222.416,-176.32 -221.347,-175.217 -220.207,-174.191 -220.207,-174.191 -197.457,-199.458 -197.457,-199.458"/>
<path fill="#98f5ff" stroke="black" stroke-width="0.5" d="M-197.457,-199.458C-197.457,-199.458 -220.207,-174.191 -220.207,-174.191 -219.472,-173.529 -218.708,-172.9 -217.918,-172.305 -217.128,-171.709 -216.313,-171.149 -215.474,-170.625 -214.635,-170.1 -213.774,-169.613 -212.892,-169.164 -212.011,-168.715 -211.11,-168.305 -210.193,-167.934 -210.193,-167.934 -197.457,-199.458 -197.457,-199.458"/>
<path fill="deepskyblue" stroke="black" stroke-width="0.5" d="M-197.457,-199.458C-197.457,-199.458 -210.193,-167.934 -210.193,-167.934 -208.909,-167.415 -207.594,-166.975 -206.256,-166.617 -204.919,-166.258 -203.56,-165.982 -202.188,-165.789 -200.817,-165.596 -199.435,-165.488 -198.05,-165.463 -196.665,-165.439 -195.28,-165.5 -193.903,-165.645 -192.525,-165.789 -191.158,-166.018 -189.808,-166.33 -188.459,-166.641 -187.129,-167.035 -185.828,-167.509 -184.526,-167.982 -183.255,-168.535 -182.021,-169.164 -180.787,-169.793 -179.592,-170.496 -178.444,-171.271 -177.296,-172.045 -176.196,-172.889 -175.151,-173.798 -174.105,-174.707 -173.116,-175.679 -172.19,-176.708 -171.263,-177.737 -170.4,-178.822 -169.605,-179.957 -168.811,-181.091 -168.087,-182.273 -167.436,-183.496 -166.786,-184.719 -166.211,-185.981 -165.715,-187.274 -165.218,-188.567 -164.802,-189.889 -164.467,-191.233 -164.131,-192.577 -163.879,-193.94 -163.71,-195.315 -163.541,-196.689 -163.457,-198.073 -163.457,-199.458 -163.457,-199.458 -197.457,-199.458 -197.457,-199.458"/>
<ellipse fill="none" stroke="black" cx="-197.457" cy="-199.458" rx="34" ry="34"/>
<text text-anchor="middle" x="-197.457" y="-197.558" font-family="monospace" font-size="8.00">3</text>
</g>
<!-- 1&#45;&gt;3 -->
<g id="edge5" class="edge"><title>1&#45;&gt;3</title>
<path fill="none" stroke="black" d="M-144.538,-278.4C-150.072,-270.145 -165.564,-247.035 -178.365,-227.939"/>
</g>
<!-- 2 -->
<g id="node3" class="node"><title>2</title>
<ellipse fill="#ff3030" stroke="black" cx="139.794" cy="-38.1577" rx="14" ry="14"/>
<text text-anchor="middle" x="139.794" y="-36.2577" font-family="monospace" font-size="8.00">2</text>
</g>
<!-- anon_37_2_0 -->
<g id="node68" class="node"><title>anon_37_2_0</title>
<ellipse fill="white" stroke="black" cx="215.287" cy="-50.1318" rx="2.5" ry="2.5"/>
</g>
<!-- 2&#45;&gt;anon_37_2_0 -->
<g id="edge52" class="edge"><title>2&#45;&gt;anon_37_2_0</title>
<path fill="none" stroke="black" d="M153.641,-40.3539C169.444,-42.8605 194.741,-46.8729 207.455,-48.8896"/>
<polygon fill="black" stroke="black" points="207.376,-50.6489 212.589,-49.7039 207.925,-47.1922 207.376,-50.6489"/>
<text text-anchor="middle" x="196.548" y="-47.2218" font-family="monospace" font-size="8.00">P1874S</text>
</g>
<!-- 10 -->
<g id="node11" class="node"><title>10</title>
<ellipse fill="#ff3030" stroke="black" cx="-236.25" cy="-109.288" rx="3.5" ry="3.5"/>
<text text-anchor="middle" x="-236.25" y="-107.388" font-family="monospace" font-size="8.00">10</text>
</g>
<!-- 3&#45;&gt;10 -->
<g id="edge7" class="edge"><title>3&#45;&gt;10</title>
<path fill="none" stroke="black" d="M-210.916,-168.174C-219.932,-147.217 -230.842,-121.858 -234.76,-112.751"/>
</g>
<!-- 16 -->
<g id="node17" class="node"><title>16</title>
<ellipse fill="#ff3030" stroke="black" cx="-239.299" cy="-150.129" rx="3.5" ry="3.5"/>
<text text-anchor="middle" x="-239.299" y="-148.229" font-family="monospace" font-size="8.00">16</text>
</g>
<!-- 3&#45;&gt;16 -->
<g id="edge38" class="edge"><title>3&#45;&gt;16</title>
<path fill="none" stroke="black" d="M-219.603,-173.349C-224.786,-167.239 -229.868,-161.248 -233.571,-156.882"/>
<polygon fill="black" stroke="black" points="-232.419,-155.535 -236.988,-152.853 -235.088,-157.799 -232.419,-155.535"/>
<text text-anchor="middle" x="-240.087" y="-158.716" font-family="monospace" font-size="8.00">M704V</text>
</g>
<!-- 21 -->
<g id="node22" class="node"><title>21</title>
<ellipse fill="deepskyblue" stroke="black" cx="-150.634" cy="-204.029" rx="3.5" ry="3.5"/>
<text text-anchor="middle" x="-150.634" y="-202.129" font-family="monospace" font-size="8.00">21</text>
</g>
<!-- 3&#45;&gt;21 -->
<g id="edge8" class="edge"><title>3&#45;&gt;21</title>
<path fill="none" stroke="black" d="M-163.429,-202.78C-159.798,-203.135 -156.599,-203.447 -154.308,-203.671"/>
</g>
<!-- 25 -->
<g id="node26" class="node"><title>25</title>
<ellipse fill="deepskyblue" stroke="black" cx="-172.207" cy="-251.22" rx="3.5" ry="3.5"/>
<text text-anchor="middle" x="-172.207" y="-249.32" font-family="monospace" font-size="8.00">25</text>
</g>
<!-- 3&#45;&gt;25 -->
<g id="edge9" class="edge"><title>3&#45;&gt;25</title>
<path fill="none" stroke="black" d="M-182.477,-230.166C-178.909,-237.481 -175.601,-244.262 -173.749,-248.06"/>
</g>
<!-- 29 -->
<g id="node30" class="node"><title>29</title>
<ellipse fill="deepskyblue" stroke="black" cx="-131.354" cy="-236.063" rx="3.5" ry="3.5"/>
<text text-anchor="middle" x="-131.354" y="-234.163" font-family="monospace" font-size="8.00">29</text>
</g>
<!-- 3&#45;&gt;29 -->
<g id="edge44" class="edge"><title>3&#45;&gt;29</title>
<path fill="none" stroke="black" d="M-167.5,-216.047C-157.047,-221.835 -146.177,-227.854 -139.123,-231.761"/>
<polygon fill="black" stroke="black" points="-139.764,-233.406 -134.542,-234.297 -138.068,-230.344 -139.764,-233.406"/>
<text text-anchor="middle" x="-137.311" y="-226.504" font-family="monospace" font-size="8.00">V1303A</text>
</g>
<!-- 30 -->
<g id="node31" class="node"><title>30</title>
<ellipse fill="deepskyblue" stroke="black" cx="-241.63" cy="-271.614" rx="3.5" ry="3.5"/>
<text text-anchor="middle" x="-241.63" y="-269.714" font-family="monospace" font-size="8.00">30</text>
</g>
<!-- 3&#45;&gt;30 -->
<g id="edge10" class="edge"><title>3&#45;&gt;30</title>
<path fill="none" stroke="black" d="M-215.424,-228.807C-224.978,-244.414 -235.599,-261.763 -239.788,-268.606"/>
</g>
<!-- 34 -->
<g id="node35" class="node"><title>34</title>
<ellipse fill="#ff3030" stroke="black" cx="-271.902" cy="-163.229" rx="3.5" ry="3.5"/>
<text text-anchor="middle" x="-271.902" y="-161.329" font-family="monospace" font-size="8.00">34</text>
</g>
<!-- 3&#45;&gt;34 -->
<g id="edge11" class="edge"><title>3&#45;&gt;34</title>
<path fill="none" stroke="black" d="M-228.166,-184.513C-243.867,-176.873 -261.163,-168.455 -268.408,-164.93"/>
</g>
<!-- 36 -->
<g id="node37" class="node"><title>36</title>
<ellipse fill="#ff3030" stroke="black" cx="-188.526" cy="-151.535" rx="3.5" ry="3.5"/>
<text text-anchor="middle" x="-188.526" y="-149.635" font-family="monospace" font-size="8.00">36</text>
</g>
<!-- 3&#45;&gt;36 -->
<g id="edge12" class="edge"><title>3&#45;&gt;36</title>
<path fill="none" stroke="black" d="M-191.205,-165.913C-190.408,-161.634 -189.701,-157.844 -189.214,-155.23"/>
</g>
<!-- 41 -->
<g id="node42" class="node"><title>41</title>
<ellipse fill="#1874cd" stroke="black" cx="-97.3694" cy="-139.093" rx="3.5" ry="3.5"/>
<text text-anchor="middle" x="-97.3694" y="-137.193" font-family="monospace" font-size="8.00">41</text>
</g>
<!-- 3&#45;&gt;41 -->
<g id="edge13" class="edge"><title>3&#45;&gt;41</title>
<path fill="none" stroke="black" d="M-168.238,-181.836C-143.543,-166.941 -110.612,-147.08 -100.472,-140.964"/>
</g>
<!-- 44 -->
<g id="node45" class="node"><title>44</title>
<ellipse fill="#1874cd" stroke="black" cx="-247.675" cy="-212.38" rx="3.5" ry="3.5"/>
<text text-anchor="middle" x="-247.675" y="-210.48" font-family="monospace" font-size="8.00">44</text>
</g>
<!-- 3&#45;&gt;44 -->
<g id="edge14" class="edge"><title>3&#45;&gt;44</title>
<path fill="none" stroke="black" d="M-230.392,-207.933C-236.013,-209.379 -241.051,-210.676 -244.218,-211.491"/>
</g>
<!-- 46 -->
<g id="node47" class="node"><title>46</title>
<ellipse fill="#1874cd" stroke="black" cx="-165.843" cy="-309.131" rx="3.5" ry="3.5"/>
<text text-anchor="middle" x="-165.843" y="-307.231" font-family="monospace" font-size="8.00">46</text>
</g>
<!-- 3&#45;&gt;46 -->
<g id="edge15" class="edge"><title>3&#45;&gt;46</title>
<path fill="none" stroke="black" d="M-187.972,-232.364C-180.26,-259.116 -170.146,-294.206 -166.896,-305.478"/>
</g>
<!-- 56 -->
<g id="node57" class="node"><title>56</title>
<ellipse fill="#98f5ff" stroke="black" cx="-196.033" cy="-289.621" rx="3.5" ry="3.5"/>
<text text-anchor="middle" x="-196.033" y="-287.721" font-family="monospace" font-size="8.00">56</text>
</g>
<!-- 3&#45;&gt;56 -->
<g id="edge16" class="edge"><title>3&#45;&gt;56</title>
<path fill="none" stroke="black" d="M-196.918,-233.545C-196.6,-253.692 -196.233,-276.959 -196.092,-285.878"/>
</g>
<!-- 59 -->
<g id="node60" class="node"><title>59</title>
<ellipse fill="black" stroke="black" cx="-120.166" cy="-266.174" rx="3.5" ry="3.5"/>
<text text-anchor="middle" x="-120.166" y="-264.274" font-family="monospace" font-size="8.00">59</text>
</g>
<!-- 3&#45;&gt;59 -->
<g id="edge17" class="edge"><title>3&#45;&gt;59</title>
<path fill="none" stroke="black" d="M-171.289,-222.045C-153.071,-237.771 -130.708,-257.074 -122.962,-263.76"/>
</g>
<!-- anon_40_3_0 -->
<g id="node69" class="node"><title>anon_40_3_0</title>
<ellipse fill="white" stroke="black" cx="-274.474" cy="-123.492" rx="2.5" ry="2.5"/>
</g>
<!-- 3&#45;&gt;anon_40_3_0 -->
<g id="edge56" class="edge"><title>3&#45;&gt;anon_40_3_0</title>
<path fill="none" stroke="black" d="M-221.825,-175.422C-238.335,-159.138 -258.871,-138.881 -268.703,-129.184"/>
<polygon fill="black" stroke="black" points="-267.625,-127.789 -272.414,-125.524 -270.083,-130.281 -267.625,-127.789"/>
<text text-anchor="middle" x="-258.764" y="-145.903" font-family="monospace" font-size="8.00">P940H</text>
</g>
<!-- 4 -->
<g id="node5" class="node"><title>4</title>
<path fill="#ff3030" stroke="black" stroke-width="0.5" d="M157.47,-3.84937C157.47,-3.84937 189.47,-3.84937 189.47,-3.84937 189.47,-4.92365 189.415,-5.99724 189.307,-7.06608 189.2,-8.13491 189.038,-9.19763 188.823,-10.2502 188.608,-11.3028 188.34,-12.3438 188.021,-13.3695 187.701,-14.3951 187.33,-15.404 186.909,-16.3923 186.488,-17.3806 186.017,-18.3471 185.499,-19.2881 184.981,-20.2291 184.415,-21.1433 183.805,-22.0274 183.195,-22.9116 182.54,-23.7644 181.844,-24.5827 181.148,-25.401 180.412,-26.1837 179.637,-26.9279 179.637,-26.9279 157.47,-3.84937 157.47,-3.84937"/>
<path fill="#98f5ff" stroke="black" stroke-width="0.5" d="M157.47,-3.84937C157.47,-3.84937 179.637,-26.9279 179.637,-26.9279 178.591,-27.9327 177.477,-28.8652 176.305,-29.719 175.132,-30.5727 173.903,-31.3458 172.625,-32.0328 171.348,-32.7198 170.025,-33.3191 168.666,-33.8266 167.307,-34.3342 165.916,-34.7487 164.5,-35.0674 163.085,-35.3861 161.65,-35.6082 160.205,-35.7322 158.76,-35.8562 157.308,-35.8818 155.859,-35.8088 154.41,-35.7358 152.968,-35.5644 151.543,-35.2958 150.118,-35.0271 148.712,-34.6619 147.336,-34.2025 145.96,-33.7432 144.617,-33.1908 143.316,-32.5493 142.015,-31.9077 140.76,-31.1785 139.558,-30.3666 138.356,-29.5546 137.21,-28.6619 136.129,-27.6946 135.048,-26.7272 134.035,-25.6875 133.095,-24.5827 132.155,-23.4778 131.291,-22.3103 130.51,-21.0882 129.729,-19.8662 129.031,-18.5924 128.422,-17.2757 127.814,-15.9591 127.296,-14.6025 126.871,-13.2155 126.446,-11.8285 126.117,-10.4143 125.884,-8.98253 125.884,-8.98253 157.47,-3.84937 157.47,-3.84937"/>
<path fill="deepskyblue" stroke="black" stroke-width="0.5" d="M157.47,-3.84937C157.47,-3.84937 125.884,-8.98253 125.884,-8.98253 125.707,-7.89565 125.587,-6.80037 125.523,-5.70107 125.459,-4.60177 125.453,-3.49991 125.502,-2.3999 125.552,-1.29989 125.659,-0.203179 125.822,0.885843 125.985,1.97486 126.204,3.05475 126.478,4.12119 126.752,5.18763 127.082,6.2392 127.464,7.27171 127.847,8.30422 128.283,9.31628 128.77,10.3039 129.257,11.2915 129.794,12.2532 130.381,13.1854 130.967,14.1176 131.601,15.0188 132.28,15.8856 132.959,16.7524 133.682,17.5836 134.447,18.3758 135.212,19.1681 136.017,19.9203 136.859,20.6295 137.702,21.3387 138.58,22.004 139.491,22.6226 140.402,23.2413 141.344,23.8125 142.314,24.334 143.284,24.8556 144.28,25.3267 145.298,25.7455 146.317,26.1643 147.356,26.5303 148.412,26.842 149.468,27.1537 150.54,27.4106 151.622,27.6118 152.705,27.8131 153.797,27.9583 154.895,28.0469 155.992,28.1355 157.094,28.1674 158.195,28.1424 159.295,28.1175 160.394,28.0357 161.487,27.8975 162.579,27.7593 163.664,27.5647 164.736,27.3147 165.808,27.0646 166.867,26.7594 167.908,26.4002 168.949,26.041 169.971,25.6283 170.969,25.1638 171.967,24.6993 172.941,24.1835 173.886,23.6186 174.832,23.0537 175.747,22.4404 176.629,21.7811 177.511,21.1218 178.358,20.4175 179.168,19.6708 179.977,18.9242 180.747,18.1362 181.475,17.3102 182.203,16.4841 182.888,15.621 183.528,14.7244 184.167,13.8277 184.759,12.8986 185.302,11.9409 185.846,10.9831 186.339,9.99798 186.781,8.98935 187.223,7.98072 187.612,6.94995 187.948,5.90117 188.283,4.85239 188.565,3.78699 188.79,2.70922 189.016,1.63145 189.186,0.542752 189.299,-0.552533 189.413,-1.64782 189.47,-2.74823 189.47,-3.84937 189.47,-3.84937 157.47,-3.84937 157.47,-3.84937"/>
<ellipse fill="none" stroke="black" cx="157.47" cy="-3.84937" rx="32" ry="32"/>
<text text-anchor="middle" x="157.47" y="-1.94937" font-family="monospace" font-size="8.00">4</text>
</g>
<!-- 55 -->
<g id="node56" class="node"><title>55</title>
<ellipse fill="#98f5ff" stroke="black" cx="257.384" cy="2.27636" rx="3.5" ry="3.5"/>
<text text-anchor="middle" x="257.384" y="4.17636" font-family="monospace" font-size="8.00">55</text>
</g>
<!-- 4&#45;&gt;55 -->
<g id="edge19" class="edge"><title>4&#45;&gt;55</title>
<path fill="none" stroke="black" d="M189.633,-1.87743C213.365,-0.422451 243.259,1.41034 253.635,2.04648"/>
</g>
<!-- 5 -->
<g id="node6" class="node"><title>5</title>
<ellipse fill="#ff3030" stroke="black" cx="-31.4355" cy="43.7571" rx="18" ry="18"/>
<text text-anchor="middle" x="-31.4355" y="45.6571" font-family="monospace" font-size="8.00">5</text>
</g>
<!-- 6 -->
<g id="node7" class="node"><title>6</title>
<path fill="brown" stroke="black" stroke-width="0.5" d="M48.4564,-24.54C48.4564,-24.54 82.9564,-24.54 82.9564,-24.54 82.9564,-25.5478 82.9122,-26.5551 82.824,-27.559 82.7359,-28.5629 82.6037,-29.5624 82.428,-30.5548 82.2523,-31.5471 82.0332,-32.5313 81.7714,-33.5044 81.5095,-34.4776 81.2052,-35.4388 80.8591,-36.3853 80.5131,-37.3318 80.1258,-38.2627 79.6983,-39.1753 79.2708,-40.0879 78.8035,-40.9814 78.2978,-41.853 77.792,-42.7247 77.2484,-43.5739 76.6683,-44.3979 76.0882,-45.222 75.4723,-46.0203 74.8224,-46.7905 74.1724,-47.5607 73.489,-48.302 72.7742,-49.0123 72.0593,-49.7227 71.3137,-50.4013 70.5394,-51.0464 69.7652,-51.6915 68.963,-52.3023 68.1352,-52.8771 67.3075,-53.452 66.4549,-53.9903 65.5801,-54.4905 64.7052,-54.9907 63.8088,-55.4523 62.8935,-55.874 61.9782,-56.2957 61.0449,-56.6771 60.0962,-57.0171 59.1475,-57.3571 58.1844,-57.6554 57.2096,-57.9111 56.2348,-58.1668 55.2493,-58.3797 54.2559,-58.5491 53.2624,-58.7185 52.2621,-58.8443 51.2576,-58.9261 50.2532,-59.0079 49.2456,-59.0457 48.2379,-59.0393 47.2301,-59.0329 46.2231,-58.9824 45.2198,-58.8879 44.2165,-58.7933 43.2178,-58.6548 42.2266,-58.4729 41.2354,-58.2909 40.2526,-58.0656 39.2811,-57.7976 38.3096,-57.5295 37.3504,-57.2191 36.4061,-56.8671 35.4618,-56.5151 34.5334,-56.1219 33.6235,-55.6886 32.7136,-55.2553 31.8232,-54.7824 30.9547,-54.2711 30.0862,-53.7599 29.2406,-53.2109 28.4202,-52.6256 27.5998,-52.0403 26.8054,-51.4194 26.0394,-50.7645 25.2733,-50.1097 24.5363,-49.4217 23.8305,-48.7023 23.1247,-47.983 22.4508,-47.2331 21.8106,-46.4547 21.1705,-45.6764 20.5648,-44.8704 19.9952,-44.039 19.4256,-43.2076 18.8927,-42.3517 18.3981,-41.4736 17.9034,-40.5956 17.4475,-39.6963 17.0316,-38.7784 16.6157,-37.8605 16.2402,-36.9247 15.9062,-35.9739 15.5722,-35.0231 15.28,-34.0581 15.0305,-33.0817 14.781,-32.1053 14.5744,-31.1185 14.4113,-30.124 14.2482,-29.1295 14.1287,-28.1283 14.0532,-27.1234 13.9778,-26.1184 13.9464,-25.1107 13.9592,-24.103 13.9719,-23.0953 14.0288,-22.0886 14.1297,-21.0859 14.2306,-20.0832 14.3754,-19.0854 14.5637,-18.0954 14.7519,-17.1054 14.9835,-16.124 15.2576,-15.1543 15.5318,-14.1845 15.8483,-13.2272 16.2063,-12.2852 16.5643,-11.3431 16.9633,-10.4172 17.4024,-9.51011 17.8414,-8.603 18.32,-7.71556 18.8367,-6.85034 19.3534,-5.98513 19.9078,-5.14297 20.4983,-4.32629 21.0887,-3.50961 21.7147,-2.7192 22.3744,-1.95732 23.034,-1.19545 23.7267,-0.46284 24.4505,0.23839 25.1743,0.93962 25.9285,1.6088 26.7109,2.244 27.4933,2.87921 28.3031,3.47982 29.1381,4.04413 29.973,4.60843 30.8323,5.13588 31.7135,5.62495 32.5946,6.11402 33.4968,6.56425 34.4173,6.97435 35.3379,7.38444 36.276,7.754 37.2289,8.08196 38.1818,8.40993 39.1486,8.69598 40.1266,8.9393 41.1045,9.18262 42.0927,9.38298 43.0882,9.53979 44.0837,9.6966 45.0856,9.80971 46.091,9.87881 47.0964,9.9479 48.1043,9.97291 49.1119,9.95377 50.1195,9.93462 51.1258,9.87133 52.1278,9.76408 53.1299,9.65684 54.1267,9.50574 55.1155,9.31122 56.1044,9.1167 57.0842,8.87895 58.0522,8.59865 59.0202,8.31835 59.9755,7.99577 60.9152,7.63183 61.855,7.2679 62.7784,6.86297 63.6827,6.4182 64.587,5.97342 65.4714,5.48924 66.3333,4.96704 67.1952,4.44484 68.0339,3.88513 68.8468,3.28951 69.6597,2.69389 70.4461,2.06294 71.2038,1.39847 71.9615,0.733999 72.6897,0.0366488 73.3863,-0.691575 74.083,-1.4198 74.7474,-2.1782 75.3776,-2.96458 75.3776,-2.96458 48.4564,-24.54 48.4564,-24.54"/>
<path fill="#ff3030" stroke="black" stroke-width="0.5" d="M48.4564,-24.54C48.4564,-24.54 75.3776,-2.96458 75.3776,-2.96458 76.3497,-4.1776 77.2388,-5.45493 78.0387,-6.78784 78.8385,-8.12076 79.5474,-9.50621 80.1604,-10.9347 80.1604,-10.9347 48.4564,-24.54 48.4564,-24.54"/>
<path fill="deepskyblue" stroke="black" stroke-width="0.5" d="M48.4564,-24.54C48.4564,-24.54 80.1604,-10.9347 80.1604,-10.9347 80.6201,-12.0059 81.0252,-13.0998 81.3742,-14.212 81.7232,-15.3242 82.0155,-16.4534 82.2502,-17.5952 82.4848,-18.737 82.6614,-19.89 82.7794,-21.0497 82.8973,-22.2094 82.9564,-23.3743 82.9564,-24.54 82.9564,-24.54 48.4564,-24.54 48.4564,-24.54"/>
<ellipse fill="none" stroke="black" cx="48.4564" cy="-24.54" rx="34.5" ry="34.5"/>
<text text-anchor="middle" x="48.4564" y="-22.64" font-family="monospace" font-size="8.00">6</text>
</g>
<!-- 6&#45;&gt;0 -->
<g id="edge1" class="edge"><title>6&#45;&gt;0</title>
<path fill="none" stroke="black" d="M38.9355,8.64108C34.9013,22.7004 30.2383,38.9516 26.3233,52.5955"/>
<polygon fill="black" stroke="black" points="27.9786,53.1719 24.9174,57.4953 24.6144,52.2066 27.9786,53.1719"/>
<text text-anchor="middle" x="48.6294" y="28.0183" font-family="monospace" font-size="8.00">I1868T</text>
</g>
<!-- 6&#45;&gt;2 -->
<g id="edge6" class="edge"><title>6&#45;&gt;2</title>
<path fill="none" stroke="black" d="M82.7271,-29.6495C95.6036,-31.5692 109.772,-33.6816 120.769,-35.3212"/>
<polygon fill="black" stroke="black" points="120.691,-37.0788 125.894,-36.0853 121.207,-33.617 120.691,-37.0788"/>
<text text-anchor="middle" x="109.748" y="-26.0854" font-family="monospace" font-size="8.00">A1934V</text>
</g>
<!-- 6&#45;&gt;4 -->
<g id="edge18" class="edge"><title>6&#45;&gt;4</title>
<path fill="none" stroke="black" d="M82.6497,-18.0501C94.779,-15.748 108.474,-13.1487 120.801,-10.809"/>
<polygon fill="black" stroke="black" points="121.406,-12.4755 125.992,-9.82376 120.754,-9.03689 121.406,-12.4755"/>
<text text-anchor="middle" x="109.726" y="-8.02955" font-family="monospace" font-size="8.00">P1874L</text>
</g>
<!-- 6&#45;&gt;5 -->
<g id="edge20" class="edge"><title>6&#45;&gt;5</title>
<path fill="none" stroke="black" d="M21.8535,-1.79806C10.1524,8.20489 -3.27448,19.6831 -13.7232,28.6154"/>
<polygon fill="black" stroke="black" points="-12.7781,30.1097 -17.7158,32.0285 -15.0524,27.4493 -12.7781,30.1097"/>
<text text-anchor="middle" x="-11.9348" y="10.8087" font-family="monospace" font-size="8.00">P1874S</text>
</g>
<!-- 7 -->
<g id="node8" class="node"><title>7</title>
<ellipse fill="#ff3030" stroke="black" cx="4.81151" cy="-32.0783" rx="9.5" ry="9.5"/>
<text text-anchor="middle" x="4.81151" y="-30.1783" font-family="monospace" font-size="8.00">7</text>
</g>
<!-- 6&#45;&gt;7 -->
<g id="edge21" class="edge"><title>6&#45;&gt;7</title>
<path fill="none" stroke="black" d="M14.0675,-30.4796C13.9829,-30.4942 13.8988,-30.5087 13.8151,-30.5232"/>
<polygon fill="black" stroke="black" points="18.1936,-27.9893 13.565,-30.5664 18.7905,-31.4383 18.1936,-27.9893"/>
<text text-anchor="middle" x="-2.05874" y="-24.1014" font-family="monospace" font-size="8.00">K1603T</text>
</g>
<!-- 8 -->
<g id="node9" class="node"><title>8</title>
<ellipse fill="#ff3030" stroke="black" cx="42.0837" cy="-129.301" rx="6" ry="6"/>
<text text-anchor="middle" x="42.0837" y="-127.401" font-family="monospace" font-size="8.00">8</text>
</g>
<!-- 6&#45;&gt;8 -->
<g id="edge22" class="edge"><title>6&#45;&gt;8</title>
<path fill="none" stroke="black" d="M46.3521,-59.133C45.1212,-79.3667 43.646,-103.619 42.7916,-117.664"/>
<polygon fill="black" stroke="black" points="41.0229,-117.919 42.466,-123.016 44.5164,-118.132 41.0229,-117.919"/>
<text text-anchor="middle" x="28.5718" y="-81.9983" font-family="monospace" font-size="8.00">L1667M</text>
</g>
<!-- 13 -->
<g id="node14" class="node"><title>13</title>
<ellipse fill="#ff3030" stroke="black" cx="17.0479" cy="35.2005" rx="8" ry="8"/>
<text text-anchor="middle" x="17.0479" y="37.1005" font-family="monospace" font-size="8.00">13</text>
</g>
<!-- 6&#45;&gt;13 -->
<g id="edge23" class="edge"><title>6&#45;&gt;13</title>
<path fill="none" stroke="black" d="M32.3841,6.03028C29.124,12.2311 25.8851,18.3916 23.2297,23.4423"/>
<polygon fill="black" stroke="black" points="24.6655,24.4721 20.7897,28.0833 21.5676,22.8433 24.6655,24.4721"/>
<text text-anchor="middle" x="11.8069" y="21.1363" font-family="monospace" font-size="8.00">I1940T</text>
</g>
<!-- 14 -->
<g id="node15" class="node"><title>14</title>
<path fill="#98f5ff" stroke="black" stroke-width="0.5" d="M115.499,38.5735C115.499,38.5735 121.499,38.5735 121.499,38.5735 121.499,38.3117 121.482,38.05 121.448,37.7904 121.413,37.5307 121.362,37.2736 121.294,37.0206 121.227,36.7677 121.142,36.5194 121.042,36.2774 120.942,36.0355 120.826,35.8004 120.695,35.5735 120.564,35.3467 120.418,35.1288 120.259,34.921 120.1,34.7132 119.927,34.5161 119.742,34.3309 119.556,34.1457 119.359,33.9729 119.151,33.8134 118.944,33.654 118.726,33.5083 118.499,33.3774 118.272,33.2464 118.037,33.1305 117.795,33.0303 117.553,32.93 117.305,32.8458 117.052,32.778 116.799,32.7102 116.542,32.6591 116.282,32.6249 116.022,32.5907 115.761,32.5735 115.499,32.5735 115.237,32.5735 114.975,32.5907 114.716,32.6249 114.456,32.6591 114.199,32.7102 113.946,32.778 113.693,32.8458 113.445,32.93 113.203,33.0303 112.961,33.1305 112.726,33.2464 112.499,33.3774 112.499,33.3774 115.499,38.5735 115.499,38.5735"/>
<path fill="#ff3030" stroke="black" stroke-width="0.5" d="M115.499,38.5735C115.499,38.5735 112.499,33.3774 112.499,33.3774 112.272,33.5083 112.054,33.654 111.846,33.8134 111.639,33.9729 111.441,34.1457 111.256,34.3309 111.071,34.5161 110.898,34.7132 110.739,34.921 110.579,35.1288 110.434,35.3467 110.303,35.5735 110.172,35.8004 110.056,36.0355 109.956,36.2774 109.855,36.5194 109.771,36.7677 109.703,37.0206 109.636,37.2736 109.584,37.5307 109.55,37.7904 109.516,38.05 109.499,38.3117 109.499,38.5735 109.499,38.8354 109.516,39.0971 109.55,39.3567 109.584,39.6164 109.636,39.8735 109.703,40.1265 109.771,40.3794 109.855,40.6277 109.956,40.8696 110.056,41.1116 110.172,41.3467 110.303,41.5735 110.434,41.8004 110.579,42.0183 110.739,42.2261 110.898,42.4339 111.071,42.631 111.256,42.8162 111.441,43.0014 111.639,43.1742 111.846,43.3337 112.054,43.4931 112.272,43.6388 112.499,43.7697 112.726,43.9006 112.961,44.0166 113.203,44.1168 113.445,44.217 113.693,44.3013 113.946,44.3691 114.199,44.4369 114.456,44.488 114.716,44.5222 114.975,44.5564 115.237,44.5735 115.499,44.5735 115.761,44.5735 116.022,44.5564 116.282,44.5222 116.542,44.488 116.799,44.4369 117.052,44.3691 117.305,44.3013 117.553,44.217 117.795,44.1168 118.037,44.0166 118.272,43.9006 118.499,43.7697 118.726,43.6388 118.944,43.4931 119.151,43.3337 119.359,43.1742 119.556,43.0014 119.742,42.8162 119.927,42.631 120.1,42.4339 120.259,42.2261 120.418,42.0183 120.564,41.8004 120.695,41.5735 120.826,41.3467 120.942,41.1116 121.042,40.8696 121.142,40.6277 121.227,40.3794 121.294,40.1265 121.362,39.8735 121.413,39.6164 121.448,39.3567 121.482,39.0971 121.499,38.8354 121.499,38.5735 121.499,38.5735 115.499,38.5735 115.499,38.5735"/>
<ellipse fill="none" stroke="black" cx="115.499" cy="38.5735" rx="6" ry="6"/>
<text text-anchor="middle" x="115.499" y="40.4735" font-family="monospace" font-size="8.00">14</text>
</g>
<!-- 6&#45;&gt;14 -->
<g id="edge24" class="edge"><title>6&#45;&gt;14</title>
<path fill="none" stroke="black" d="M73.8023,-0.679478C85.529,10.36 98.6774,22.7378 107.017,30.5888"/>
<polygon fill="black" stroke="black" points="108.256,29.3521 110.698,34.0536 105.857,31.9005 108.256,29.3521"/>
<text text-anchor="middle" x="103.91" y="12.3547" font-family="monospace" font-size="8.00">T791M</text>
</g>
<!-- 17 -->
<g id="node18" class="node"><title>17</title>
<ellipse fill="#ff3030" stroke="black" cx="87.4242" cy="-8.4604" rx="6" ry="6"/>
<text text-anchor="middle" x="87.4242" y="-6.5604" font-family="monospace" font-size="8.00">17</text>
</g>
<!-- 6&#45;&gt;17 -->
<g id="edge25" class="edge"><title>6&#45;&gt;17</title>
<path fill="none" stroke="black" d="M80.6365,-11.2613C80.7312,-11.2222 80.8251,-11.1834 80.9183,-11.145"/>
<polygon fill="black" stroke="black" points="77.7827,-14.3324 81.7371,-10.8071 76.4475,-11.097 77.7827,-14.3324"/>
<text text-anchor="middle" x="96.7774" y="-13.8031" font-family="monospace" font-size="8.00">N1345I</text>
</g>
<!-- 19 -->
<g id="node20" class="node"><title>19</title>
<path fill="#98f5ff" stroke="black" stroke-width="0.5" d="M71.4316,44.1029C71.4316,44.1029 82.9316,44.1029 82.9316,44.1029 82.9316,43.5004 82.8843,42.8989 82.79,42.3039 82.6958,41.7089 82.5549,41.1222 82.3688,40.5492 82.1826,39.9762 81.9517,39.4188 81.6782,38.882 81.4047,38.3452 81.0894,37.8307 80.7353,37.3434 80.3812,36.856 79.9893,36.3972 79.5633,35.9712 79.1373,35.5452 78.6785,35.1533 78.1911,34.7992 77.7037,34.4451 77.1893,34.1298 76.6525,33.8563 76.1157,33.5828 75.5583,33.3519 74.9853,33.1657 74.4123,32.9796 73.8256,32.8387 73.2306,32.7445 72.6356,32.6502 72.0341,32.6029 71.4316,32.6029 70.8292,32.6029 70.2276,32.6502 69.6326,32.7445 69.0376,32.8387 68.4509,32.9796 67.8779,33.1657 67.3049,33.3519 66.7475,33.5828 66.2107,33.8563 65.6739,34.1298 65.1595,34.4451 64.6721,34.7992 64.1847,35.1533 63.7259,35.5452 63.2999,35.9712 62.8739,36.3972 62.482,36.856 62.1279,37.3434 62.1279,37.3434 71.4316,44.1029 71.4316,44.1029"/>
<path fill="deepskyblue" stroke="black" stroke-width="0.5" d="M71.4316,44.1029C71.4316,44.1029 62.1279,37.3434 62.1279,37.3434 61.8624,37.7088 61.6186,38.0896 61.3979,38.4837 61.1772,38.8779 60.9799,39.2847 60.807,39.702 60.6341,40.1194 60.486,40.5465 60.3634,40.9813 60.2407,41.4161 60.1439,41.8577 60.0732,42.3039 60.0025,42.7501 59.9582,43.2 59.9405,43.6514 59.9227,44.1028 59.9316,44.5548 59.9671,45.0052 60.0025,45.4555 60.0644,45.9034 60.1526,46.3464 60.2407,46.7895 60.3549,47.227 60.4945,47.6566 60.634,48.0862 60.7988,48.5072 60.988,48.9175 61.1771,49.3277 61.3902,49.7265 61.6262,50.1116 61.8623,50.4968 62.1208,50.8677 62.4005,51.2225 62.6801,51.5772 62.9805,51.9152 63.2999,52.2346 63.6193,52.554 63.9573,52.8544 64.312,53.134 64.6668,53.4137 65.0377,53.6722 65.4229,53.9083 65.808,54.1443 66.2068,54.3574 66.617,54.5465 67.0273,54.7357 67.4483,54.9004 67.8779,55.04 68.3075,55.1796 68.745,55.2938 69.1881,55.3819 69.6311,55.47 70.079,55.532 70.5293,55.5674 70.9797,55.6029 71.4317,55.6118 71.8831,55.594 72.3345,55.5763 72.7844,55.532 73.2306,55.4613 73.6768,55.3906 74.1184,55.2937 74.5532,55.1711 74.9879,55.0485 75.4151,54.9004 75.8325,54.7275 76.2498,54.5546 76.6566,54.3573 77.0507,54.1366 77.4449,53.9159 77.8257,53.6721 78.1911,53.4066 78.5566,53.1411 78.9061,52.8542 79.2378,52.5476 79.5695,52.241 79.8829,51.915 80.1763,51.5715 80.4697,51.228 80.7425,50.8675 80.9935,50.4919 81.2445,50.1163 81.4731,49.7263 81.6782,49.3238 81.8833,48.9213 82.0645,48.507 82.2208,48.0832 82.3772,47.6594 82.5084,47.2268 82.6139,46.7875 82.7193,46.3483 82.7988,45.9032 82.8519,45.4546 82.905,45.006 82.9316,44.5546 82.9316,44.1029 82.9316,44.1029 71.4316,44.1029 71.4316,44.1029"/>
<ellipse fill="none" stroke="black" cx="71.4316" cy="44.1029" rx="11.5" ry="11.5"/>
<text text-anchor="middle" x="71.4316" y="46.0029" font-family="monospace" font-size="8.00">19</text>
</g>
<!-- 6&#45;&gt;19 -->
<g id="edge26" class="edge"><title>6&#45;&gt;19</title>
<path fill="none" stroke="black" d="M59.5402,8.57505C61.7893,15.2947 64.0591,22.076 66.0041,27.8871"/>
<polygon fill="black" stroke="black" points="67.7616,27.6245 67.6891,32.9214 64.4425,28.7355 67.7616,27.6245"/>
<text text-anchor="middle" x="46.7721" y="15.6311" font-family="monospace" font-size="8.00">E1597G</text>
</g>
<!-- 26 -->
<g id="node27" class="node"><title>26</title>
<ellipse fill="deepskyblue" stroke="black" cx="79.858" cy="-51.3998" rx="5" ry="5"/>
<text text-anchor="middle" x="79.858" y="-49.4998" font-family="monospace" font-size="8.00">26</text>
</g>
<!-- 6&#45;&gt;26 -->
<g id="edge27" class="edge"><title>6&#45;&gt;26</title>
<path fill="none" stroke="black" d="M74.9515,-47.2029C75.0435,-47.2816 75.1345,-47.3595 75.2246,-47.4365"/>
<polygon fill="black" stroke="black" points="71.0702,-46.1859 76.0075,-48.1062 73.3454,-43.5261 71.0702,-46.1859"/>
<text text-anchor="middle" x="91.088" y="-40.9197" font-family="monospace" font-size="8.00">I1584T</text>
</g>
<!-- 31 -->
<g id="node32" class="node"><title>31</title>
<path fill="#98f5ff" stroke="black" stroke-width="0.5" d="M129.462,-129.08C129.462,-129.08 141.962,-129.08 141.962,-129.08 141.962,-129.762 141.906,-130.443 141.795,-131.117 141.684,-131.79 141.517,-132.452 141.298,-133.098 141.079,-133.744 140.807,-134.371 140.486,-134.973 140.164,-135.574 139.794,-136.149 139.379,-136.69 138.963,-137.231 138.504,-137.737 138.006,-138.204 137.509,-138.67 136.973,-139.095 136.406,-139.474 135.839,-139.853 135.242,-140.185 134.62,-140.466 133.999,-140.748 133.356,-140.978 132.697,-141.154 132.038,-141.331 131.366,-141.453 130.687,-141.52 130.008,-141.587 129.325,-141.598 128.644,-141.554 127.963,-141.509 127.287,-141.409 126.623,-141.254 125.959,-141.099 125.308,-140.89 124.678,-140.629 124.048,-140.368 123.44,-140.056 122.861,-139.695 122.281,-139.335 121.733,-138.928 121.22,-138.478 120.707,-138.029 120.232,-137.538 119.799,-137.01 119.366,-136.483 118.977,-135.921 118.636,-135.33 118.636,-135.33 129.462,-129.08 129.462,-129.08"/>
<path fill="deepskyblue" stroke="black" stroke-width="0.5" d="M129.462,-129.08C129.462,-129.08 118.636,-135.33 118.636,-135.33 118.398,-134.917 118.183,-134.49 117.993,-134.052 117.803,-133.614 117.638,-133.166 117.5,-132.709 117.361,-132.252 117.249,-131.788 117.164,-131.318 117.078,-130.848 117.02,-130.374 116.988,-129.898 116.957,-129.422 116.953,-128.944 116.977,-128.467 117,-127.99 117.051,-127.515 117.129,-127.044 117.206,-126.573 117.311,-126.107 117.442,-125.648 117.573,-125.189 117.73,-124.738 117.913,-124.297 118.096,-123.856 118.304,-123.426 118.535,-123.008 118.767,-122.591 119.023,-122.187 119.301,-121.799 119.579,-121.411 119.879,-121.04 120.2,-120.686 120.52,-120.332 120.861,-119.997 121.22,-119.682 121.579,-119.368 121.955,-119.074 122.348,-118.802 122.74,-118.53 123.148,-118.281 123.569,-118.056 123.99,-117.831 124.424,-117.631 124.868,-117.455 125.312,-117.28 125.765,-117.13 126.226,-117.006 126.687,-116.883 127.155,-116.786 127.627,-116.716 128.1,-116.646 128.575,-116.603 129.053,-116.587 129.53,-116.571 130.007,-116.583 130.483,-116.622 130.959,-116.661 131.432,-116.727 131.9,-116.82 132.368,-116.914 132.831,-117.034 133.285,-117.18 133.74,-117.326 134.186,-117.498 134.62,-117.695 135.055,-117.892 135.478,-118.113 135.888,-118.359 136.297,-118.604 136.692,-118.873 137.071,-119.163 137.45,-119.454 137.812,-119.766 138.155,-120.098 138.498,-120.43 138.821,-120.781 139.124,-121.15 139.427,-121.519 139.709,-121.905 139.967,-122.307 140.226,-122.708 140.461,-123.124 140.672,-123.552 140.884,-123.98 141.07,-124.42 141.231,-124.869 141.392,-125.319 141.527,-125.777 141.635,-126.242 141.743,-126.707 141.825,-127.177 141.88,-127.652 141.934,-128.126 141.962,-128.603 141.962,-129.08 141.962,-129.08 129.462,-129.08 129.462,-129.08"/>
<ellipse fill="none" stroke="black" cx="129.462" cy="-129.08" rx="12.5" ry="12.5"/>
<text text-anchor="middle" x="129.462" y="-127.18" font-family="monospace" font-size="8.00">31</text>
</g>
<!-- 6&#45;&gt;31 -->
<g id="edge28" class="edge"><title>6&#45;&gt;31</title>
<path fill="none" stroke="black" d="M69.7395,-52.0067C85.336,-72.1346 105.882,-98.6503 118.359,-114.752"/>
<polygon fill="black" stroke="black" points="117.207,-116.123 121.653,-119.003 119.974,-113.979 117.207,-116.123"/>
<text text-anchor="middle" x="78.0492" y="-76.9793" font-family="monospace" font-size="8.00">V1853I</text>
</g>
<!-- 48 -->
<g id="node49" class="node"><title>48</title>
<ellipse fill="brown" stroke="black" cx="84.1301" cy="-140.147" rx="6" ry="6"/>
<text text-anchor="middle" x="84.1301" y="-138.247" font-family="monospace" font-size="8.00">48</text>
</g>
<!-- 6&#45;&gt;48 -->
<g id="edge29" class="edge"><title>6&#45;&gt;48</title>
<path fill="none" stroke="black" d="M58.679,-57.6684C66.997,-84.6241 78.0345,-120.393 82.3209,-134.284"/>
</g>
<!-- 50 -->
<g id="node51" class="node"><title>50</title>
<ellipse fill="brown" stroke="black" cx="-59.7204" cy="-105.509" rx="8" ry="8"/>
<text text-anchor="middle" x="-59.7204" y="-103.609" font-family="monospace" font-size="8.00">50</text>
</g>
<!-- 6&#45;&gt;50 -->
<g id="edge30" class="edge"><title>6&#45;&gt;50</title>
<path fill="none" stroke="black" d="M20.5982,-45.3916C-4.19205,-63.9468 -38.6819,-89.7621 -53.0376,-100.507"/>
</g>
<!-- anon_27_6_1 -->
<g id="node64" class="node"><title>anon_27_6_1</title>
<ellipse fill="white" stroke="black" cx="125.536" cy="-74.4684" rx="2.5" ry="2.5"/>
</g>
<!-- 6&#45;&gt;anon_27_6_1 -->
<g id="edge42" class="edge"><title>6&#45;&gt;anon_27_6_1</title>
<path fill="none" stroke="black" d="M77.5971,-43.4158C92.7075,-53.2035 109.871,-64.3211 119.004,-70.2368"/>
<polygon fill="black" stroke="black" points="118.229,-71.8199 123.377,-73.0694 120.132,-68.8823 118.229,-71.8199"/>
<text text-anchor="middle" x="109.3" y="-59.4263" font-family="monospace" font-size="8.00">G54C</text>
</g>
<!-- 57 -->
<g id="node58" class="node"><title>57</title>
<ellipse fill="black" stroke="black" cx="54.5949" cy="-190.689" rx="6" ry="6"/>
<text text-anchor="middle" x="54.5949" y="-188.789" font-family="monospace" font-size="8.00">57</text>
</g>
<!-- 8&#45;&gt;57 -->
<g id="edge31" class="edge"><title>8&#45;&gt;57</title>
<path fill="none" stroke="black" d="M43.329,-135.411C45.7272,-147.178 50.9604,-172.856 53.3545,-184.603"/>
</g>
<!-- 9 -->
<g id="node10" class="node"><title>9</title>
<ellipse fill="deepskyblue" stroke="black" cx="223.489" cy="99.0047" rx="3.5" ry="3.5"/>
<text text-anchor="middle" x="223.489" y="100.905" font-family="monospace" font-size="8.00">9</text>
</g>
<!-- 11 -->
<g id="node12" class="node"><title>11</title>
<ellipse fill="deepskyblue" stroke="black" cx="86.4942" cy="-187.334" rx="3.5" ry="3.5"/>
<text text-anchor="middle" x="86.4942" y="-185.434" font-family="monospace" font-size="8.00">11</text>
</g>
<!-- 12 -->
<g id="node13" class="node"><title>12</title>
<ellipse fill="deepskyblue" stroke="black" cx="144.745" cy="160.295" rx="3.5" ry="3.5"/>
<text text-anchor="middle" x="144.745" y="162.195" font-family="monospace" font-size="8.00">12</text>
</g>
<!-- 15 -->
<g id="node16" class="node"><title>15</title>
<path fill="#98f5ff" stroke="black" stroke-width="0.5" d="M164.021,103.833C164.021,103.833 182.021,103.833 182.021,103.833 182.021,103.173 181.985,102.513 181.912,101.857 181.84,101.201 181.732,100.55 181.588,99.906 181.444,99.262 181.264,98.6264 181.051,98.0021 180.837,97.3778 180.589,96.7657 180.308,96.1686 180.027,95.5715 179.714,94.9903 179.369,94.4276 179.024,93.865 178.648,93.3217 178.244,92.8003 177.84,92.2789 177.407,91.7801 176.947,91.3062 176.488,90.8323 176.003,90.384 175.495,89.9634 174.986,89.5427 174.455,89.1504 173.904,88.7881 173.352,88.4258 172.781,88.0941 172.193,87.7945 171.605,87.4949 171.001,87.2279 170.384,86.9946 169.766,86.7614 169.137,86.5622 168.498,86.3981 167.858,86.234 167.211,86.1052 166.557,86.0122 165.904,85.9192 165.246,85.8622 164.587,85.8415 163.927,85.8208 163.267,85.8363 162.609,85.8881 161.951,85.9399 161.297,86.0278 160.648,86.1514 160.648,86.1514 164.021,103.833 164.021,103.833"/>
<path fill="deepskyblue" stroke="black" stroke-width="0.5" d="M164.021,103.833C164.021,103.833 160.648,86.1514 160.648,86.1514 159.815,86.3104 158.994,86.5282 158.191,86.8031 157.388,87.0779 156.605,87.4092 155.849,87.7945 155.093,88.1797 154.365,88.618 153.671,89.1059 152.977,89.5939 152.318,90.1303 151.699,90.7112 151.081,91.2921 150.504,91.916 149.973,92.5782 149.443,93.2405 148.96,93.9395 148.528,94.6699 148.096,95.4003 147.716,96.1603 147.391,96.9443 147.067,97.7283 146.798,98.5343 146.587,99.3562 146.376,100.178 146.223,101.014 146.13,101.857 146.037,102.701 146.003,103.55 146.03,104.398 146.057,105.246 146.143,106.091 146.289,106.927 146.435,107.763 146.64,108.588 146.902,109.395 147.164,110.202 147.483,110.989 147.857,111.752 148.23,112.514 148.657,113.248 149.134,113.95 149.611,114.652 150.137,115.319 150.708,115.947 151.279,116.574 151.894,117.161 152.548,117.702 153.201,118.243 153.893,118.737 154.616,119.18 155.34,119.624 156.094,120.015 156.873,120.352 157.651,120.689 158.453,120.971 159.271,121.195 160.09,121.419 160.923,121.584 161.765,121.691 162.607,121.797 163.455,121.844 164.304,121.83 165.152,121.817 165.999,121.744 166.837,121.611 167.675,121.478 168.503,121.286 169.314,121.037 170.125,120.787 170.917,120.481 171.685,120.119 172.453,119.758 173.194,119.343 173.904,118.877 174.613,118.411 175.288,117.896 175.925,117.335 176.561,116.773 177.157,116.168 177.708,115.523 178.26,114.877 178.764,114.194 179.219,113.477 179.674,112.761 180.077,112.013 180.426,111.24 180.776,110.466 181.07,109.669 181.306,108.854 181.543,108.04 181.722,107.209 181.842,106.369 181.961,105.529 182.021,104.681 182.021,103.833 182.021,103.833 164.021,103.833 164.021,103.833"/>
<ellipse fill="none" stroke="black" cx="164.021" cy="103.833" rx="18" ry="18"/>
<text text-anchor="middle" x="164.021" y="105.733" font-family="monospace" font-size="8.00">15</text>
</g>
<!-- 14&#45;&gt;15 -->
<g id="edge34" class="edge"><title>14&#45;&gt;15</title>
<path fill="none" stroke="black" d="M119.306,43.6943C125.826,52.4625 139.439,70.7711 149.942,84.8969"/>
<polygon fill="black" stroke="black" points="151.511,84.0746 153.09,89.1313 148.702,86.163 151.511,84.0746"/>
<text text-anchor="middle" x="118.624" y="61.6956" font-family="monospace" font-size="8.00">A1746S</text>
</g>
<!-- 15&#45;&gt;9 -->
<g id="edge32" class="edge"><title>15&#45;&gt;9</title>
<path fill="none" stroke="black" d="M182.187,102.358C195.576,101.271 212.674,99.8828 219.953,99.2918"/>
</g>
<!-- 15&#45;&gt;12 -->
<g id="edge33" class="edge"><title>15&#45;&gt;12</title>
<path fill="none" stroke="black" d="M158.133,121.08C153.793,133.793 148.25,150.026 145.891,156.937"/>
</g>
<!-- anon_15_23_0 -->
<g id="node61" class="node"><title>anon_15_23_0</title>
<ellipse fill="white" stroke="black" cx="199.73" cy="157.276" rx="2.5" ry="2.5"/>
</g>
<!-- 15&#45;&gt;anon_15_23_0 -->
<g id="edge35" class="edge"><title>15&#45;&gt;anon_15_23_0</title>
<path fill="none" stroke="black" d="M174.158,119.004C182.736,131.842 194.256,149.084 198.274,155.098"/>
</g>
<!-- 18 -->
<g id="node19" class="node"><title>18</title>
<ellipse fill="deepskyblue" stroke="black" cx="-215.467" cy="-270.481" rx="3.5" ry="3.5"/>
<text text-anchor="middle" x="-215.467" y="-268.581" font-family="monospace" font-size="8.00">18</text>
</g>
<!-- 18&#45;&gt;3 -->
<g id="edge39" class="edge"><title>18&#45;&gt;3</title>
<path fill="none" stroke="black" d="M-214.598,-267.055C-212.982,-260.682 -209.359,-246.394 -205.858,-232.588"/>
</g>
<!-- 20 -->
<g id="node21" class="node"><title>20</title>
<ellipse fill="deepskyblue" stroke="black" cx="236.812" cy="-248.673" rx="3.5" ry="3.5"/>
<text text-anchor="middle" x="236.812" y="-246.773" font-family="monospace" font-size="8.00">20</text>
</g>
<!-- 23 -->
<g id="node24" class="node"><title>23</title>
<ellipse fill="deepskyblue" stroke="black" cx="239.401" cy="234.516" rx="3.5" ry="3.5"/>
<text text-anchor="middle" x="239.401" y="236.416" font-family="monospace" font-size="8.00">23</text>
</g>
<!-- 27 -->
<g id="node28" class="node"><title>27</title>
<ellipse fill="#ff3030" stroke="black" cx="221.208" cy="-119.26" rx="5" ry="5"/>
<text text-anchor="middle" x="221.208" y="-117.36" font-family="monospace" font-size="8.00">27</text>
</g>
<!-- anon_27_6_0 -->
<g id="node63" class="node"><title>anon_27_6_0</title>
<ellipse fill="white" stroke="black" cx="173.592" cy="-94.9896" rx="2.5" ry="2.5"/>
</g>
<!-- 27&#45;&gt;anon_27_6_0 -->
<g id="edge40" class="edge"><title>27&#45;&gt;anon_27_6_0</title>
<path fill="none" stroke="black" d="M216.468,-116.844C206.495,-111.761 183.636,-100.109 176.073,-96.254"/>
</g>
<!-- 28 -->
<g id="node29" class="node"><title>28</title>
<ellipse fill="#ff3030" stroke="black" cx="-2.78008" cy="80.624" rx="3.5" ry="3.5"/>
<text text-anchor="middle" x="-2.78008" y="82.524" font-family="monospace" font-size="8.00">28</text>
</g>
<!-- 28&#45;&gt;13 -->
<g id="edge43" class="edge"><title>28&#45;&gt;13</title>
<path fill="none" stroke="black" d="M-1.3541,77.3573C1.80704,70.1155 9.46883,52.5632 13.8443,42.5396"/>
</g>
<!-- anon_31_20_0 -->
<g id="node65" class="node"><title>anon_31_20_0</title>
<ellipse fill="white" stroke="black" cx="173.343" cy="-183.354" rx="2.5" ry="2.5"/>
</g>
<!-- 31&#45;&gt;anon_31_20_0 -->
<g id="edge45" class="edge"><title>31&#45;&gt;anon_31_20_0</title>
<path fill="none" stroke="black" d="M137.51,-139.035C148.001,-152.01 165.69,-173.889 171.461,-181.026"/>
</g>
<!-- 32 -->
<g id="node33" class="node"><title>32</title>
<ellipse fill="#ff3030" stroke="black" cx="120.073" cy="-170.721" rx="3.5" ry="3.5"/>
<text text-anchor="middle" x="120.073" y="-168.821" font-family="monospace" font-size="8.00">32</text>
</g>
<!-- 33 -->
<g id="node34" class="node"><title>33</title>
<ellipse fill="deepskyblue" stroke="black" cx="84.4412" cy="95.0399" rx="3.5" ry="3.5"/>
<text text-anchor="middle" x="84.4412" y="96.9399" font-family="monospace" font-size="8.00">33</text>
</g>
<!-- 33&#45;&gt;19 -->
<g id="edge48" class="edge"><title>33&#45;&gt;19</title>
<path fill="none" stroke="black" d="M83.5056,91.3766C81.6179,83.9858 77.2843,67.0181 74.3563,55.554"/>
</g>
<!-- 35 -->
<g id="node36" class="node"><title>35</title>
<ellipse fill="#ff3030" stroke="black" cx="-302.161" cy="-277.068" rx="3.5" ry="3.5"/>
<text text-anchor="middle" x="-302.161" y="-275.168" font-family="monospace" font-size="8.00">35</text>
</g>
<!-- anon_35_3_0 -->
<g id="node67" class="node"><title>anon_35_3_0</title>
<ellipse fill="white" stroke="black" cx="-261.132" cy="-243.648" rx="2.5" ry="2.5"/>
</g>
<!-- 35&#45;&gt;anon_35_3_0 -->
<g id="edge49" class="edge"><title>35&#45;&gt;anon_35_3_0</title>
<path fill="none" stroke="black" d="M-299.21,-274.665C-291.42,-268.319 -270.419,-251.213 -263.43,-245.52"/>
</g>
<!-- 37 -->
<g id="node38" class="node"><title>37</title>
<ellipse fill="#ff3030" stroke="black" cx="264.216" cy="-62.5718" rx="3.5" ry="3.5"/>
<text text-anchor="middle" x="264.216" y="-60.6718" font-family="monospace" font-size="8.00">37</text>
</g>
<!-- 37&#45;&gt;anon_37_2_0 -->
<g id="edge51" class="edge"><title>37&#45;&gt;anon_37_2_0</title>
<path fill="none" stroke="black" d="M260.697,-61.6771C251.407,-59.315 226.361,-52.9475 218.027,-50.8284"/>
</g>
<!-- 38 -->
<g id="node39" class="node"><title>38</title>
<ellipse fill="#ff3030" stroke="black" cx="-84.9018" cy="74.8108" rx="3.5" ry="3.5"/>
<text text-anchor="middle" x="-84.9018" y="76.7108" font-family="monospace" font-size="8.00">38</text>
</g>
<!-- 38&#45;&gt;5 -->
<g id="edge53" class="edge"><title>38&#45;&gt;5</title>
<path fill="none" stroke="black" d="M-81.7174,72.9613C-75.063,69.0963 -59.2971,59.9394 -47.179,52.901"/>
</g>
<!-- 39 -->
<g id="node40" class="node"><title>39</title>
<ellipse fill="#ff3030" stroke="black" cx="-57.5758" cy="99.4173" rx="3.5" ry="3.5"/>
<text text-anchor="middle" x="-57.5758" y="101.317" font-family="monospace" font-size="8.00">39</text>
</g>
<!-- 39&#45;&gt;5 -->
<g id="edge54" class="edge"><title>39&#45;&gt;5</title>
<path fill="none" stroke="black" d="M-56.0189,96.1022C-52.7655,89.1748 -45.0574,72.7619 -39.1327,60.1466"/>
</g>
<!-- 40 -->
<g id="node41" class="node"><title>40</title>
<ellipse fill="deepskyblue" stroke="black" cx="-316.53" cy="-99.4424" rx="3.5" ry="3.5"/>
<text text-anchor="middle" x="-316.53" y="-97.5424" font-family="monospace" font-size="8.00">40</text>
</g>
<!-- 40&#45;&gt;anon_40_3_0 -->
<g id="edge55" class="edge"><title>40&#45;&gt;anon_40_3_0</title>
<path fill="none" stroke="black" d="M-313.23,-101.329C-305.019,-106.024 -283.829,-118.142 -276.787,-122.169"/>
</g>
<!-- 42 -->
<g id="node43" class="node"><title>42</title>
<ellipse fill="#1874cd" stroke="black" cx="-163.332" cy="-357.998" rx="3.5" ry="3.5"/>
<text text-anchor="middle" x="-163.332" y="-356.098" font-family="monospace" font-size="8.00">42</text>
</g>
<!-- 42&#45;&gt;46 -->
<g id="edge58" class="edge"><title>42&#45;&gt;46</title>
<path fill="none" stroke="black" d="M-163.513,-354.484C-163.972,-345.555 -165.179,-322.057 -165.651,-312.879"/>
</g>
<!-- 43 -->
<g id="node44" class="node"><title>43</title>
<ellipse fill="#1874cd" stroke="black" cx="-210.66" cy="-126.314" rx="3.5" ry="3.5"/>
<text text-anchor="middle" x="-210.66" y="-124.414" font-family="monospace" font-size="8.00">43</text>
</g>
<!-- 43&#45;&gt;3 -->
<g id="edge59" class="edge"><title>43&#45;&gt;3</title>
<path fill="none" stroke="black" d="M-210.023,-129.842C-208.828,-136.462 -206.136,-151.377 -203.548,-165.709"/>
</g>
<!-- 45 -->
<g id="node46" class="node"><title>45</title>
<ellipse fill="#1874cd" stroke="black" cx="-330.547" cy="-192.889" rx="3.5" ry="3.5"/>
<text text-anchor="middle" x="-330.547" y="-190.989" font-family="monospace" font-size="8.00">45</text>
</g>
<!-- anon_45_3_0 -->
<g id="node70" class="node"><title>anon_45_3_0</title>
<ellipse fill="white" stroke="black" cx="-275.97" cy="-196.184" rx="2.5" ry="2.5"/>
</g>
<!-- 45&#45;&gt;anon_45_3_0 -->
<g id="edge60" class="edge"><title>45&#45;&gt;anon_45_3_0</title>
<path fill="none" stroke="black" d="M-326.966,-193.105C-316.721,-193.723 -287.46,-195.49 -278.565,-196.027"/>
</g>
<!-- 47 -->
<g id="node48" class="node"><title>47</title>
<ellipse fill="brown" stroke="black" cx="67.4774" cy="-92.6389" rx="3.5" ry="3.5"/>
<text text-anchor="middle" x="67.4774" y="-90.7389" font-family="monospace" font-size="8.00">47</text>
</g>
<!-- 47&#45;&gt;6 -->
<g id="edge62" class="edge"><title>47&#45;&gt;6</title>
<path fill="none" stroke="black" d="M66.4547,-88.9776C64.7725,-82.955 61.2599,-70.3791 57.7805,-57.9224"/>
</g>
<!-- 48&#45;&gt;11 -->
<g id="edge63" class="edge"><title>48&#45;&gt;11</title>
<path fill="none" stroke="black" d="M84.4392,-146.316C84.8538,-154.591 85.5921,-169.328 86.0617,-178.702"/>
<polygon fill="black" stroke="black" points="84.316,-178.833 86.3141,-183.739 87.8116,-178.658 84.316,-178.833"/>
<text text-anchor="middle" x="69.2505" y="-165.109" font-family="monospace" font-size="8.00">P1874L</text>
</g>
<!-- 48&#45;&gt;32 -->
<g id="edge64" class="edge"><title>48&#45;&gt;32</title>
<path fill="none" stroke="black" d="M88.829,-144.144C95.1323,-149.506 106.357,-159.054 113.497,-165.128"/>
<polygon fill="black" stroke="black" points="112.392,-166.485 117.335,-168.392 114.66,-163.819 112.392,-166.485"/>
<text text-anchor="middle" x="117.163" y="-157.236" font-family="monospace" font-size="8.00">P1874S</text>
</g>
<!-- 49 -->
<g id="node50" class="node"><title>49</title>
<ellipse fill="brown" stroke="black" cx="-62.3964" cy="20.2756" rx="3.5" ry="3.5"/>
<text text-anchor="middle" x="-62.3964" y="22.1756" font-family="monospace" font-size="8.00">49</text>
</g>
<!-- anon_49_6_0 -->
<g id="node71" class="node"><title>anon_49_6_0</title>
<ellipse fill="white" stroke="black" cx="-21.4528" cy="-8.00843" rx="2.5" ry="2.5"/>
</g>
<!-- 49&#45;&gt;anon_49_6_0 -->
<g id="edge65" class="edge"><title>49&#45;&gt;anon_49_6_0</title>
<path fill="none" stroke="black" d="M-59.4518,18.2415C-51.6774,12.8709 -30.72,-1.60662 -23.7455,-6.4246"/>
</g>
<!-- 50&#45;&gt;41 -->
<g id="edge57" class="edge"><title>50&#45;&gt;41</title>
<path fill="none" stroke="black" d="M-65.9373,-111.055C-72.8557,-117.226 -83.9787,-127.148 -90.9699,-133.384"/>
<polygon fill="black" stroke="black" points="-92.1481,-132.09 -94.7145,-136.725 -89.8183,-134.702 -92.1481,-132.09"/>
<text text-anchor="middle" x="-94.4536" y="-124.82" font-family="monospace" font-size="8.00">N1570Y</text>
</g>
<!-- 51 -->
<g id="node52" class="node"><title>51</title>
<ellipse fill="brown" stroke="black" cx="27.331" cy="-92.7675" rx="3.5" ry="3.5"/>
<text text-anchor="middle" x="27.331" y="-90.8675" font-family="monospace" font-size="8.00">51</text>
</g>
<!-- 51&#45;&gt;6 -->
<g id="edge67" class="edge"><title>51&#45;&gt;6</title>
<path fill="none" stroke="black" d="M28.4668,-89.0993C30.3522,-83.01 34.3081,-70.234 38.207,-57.642"/>
</g>
<!-- 52 -->
<g id="node53" class="node"><title>52</title>
<ellipse fill="brown" stroke="black" cx="-82.1092" cy="-63.1158" rx="3.5" ry="3.5"/>
<text text-anchor="middle" x="-82.1092" y="-61.2158" font-family="monospace" font-size="8.00">52</text>
</g>
<!-- 52&#45;&gt;50 -->
<g id="edge68" class="edge"><title>52&#45;&gt;50</title>
<path fill="none" stroke="black" d="M-80.3523,-66.4424C-76.765,-73.235 -68.5227,-88.8418 -63.6106,-98.1429"/>
</g>
<!-- 53 -->
<g id="node54" class="node"><title>53</title>
<ellipse fill="brown" stroke="black" cx="-97.2143" cy="-75.8935" rx="3.5" ry="3.5"/>
<text text-anchor="middle" x="-97.2143" y="-73.9935" font-family="monospace" font-size="8.00">53</text>
</g>
<!-- 53&#45;&gt;50 -->
<g id="edge69" class="edge"><title>53&#45;&gt;50</title>
<path fill="none" stroke="black" d="M-94.2722,-78.2174C-88.2646,-82.9627 -74.4615,-93.8655 -66.2353,-100.363"/>
</g>
<!-- 54 -->
<g id="node55" class="node"><title>54</title>
<ellipse fill="brown" stroke="black" cx="1.19443" cy="-76.5009" rx="3.5" ry="3.5"/>
<text text-anchor="middle" x="1.19443" y="-74.6009" font-family="monospace" font-size="8.00">54</text>
</g>
<!-- 54&#45;&gt;6 -->
<g id="edge70" class="edge"><title>54&#45;&gt;6</title>
<path fill="none" stroke="black" d="M3.73544,-73.7072C7.8769,-69.154 16.4834,-59.6919 25.0504,-50.2731"/>
</g>
<!-- anon_15_23_1 -->
<g id="node62" class="node"><title>anon_15_23_1</title>
<ellipse fill="white" stroke="black" cx="220.173" cy="196.78" rx="2.5" ry="2.5"/>
</g>
<!-- anon_15_23_0&#45;&gt;anon_15_23_1 -->
<g id="edge36" class="edge"><title>anon_15_23_0&#45;&gt;anon_15_23_1</title>
<path fill="none" stroke="black" d="M201.071,159.868C204.19,165.895 212.015,181.016 216.624,189.923"/>
<polygon fill="black" stroke="black" points="218.264,189.284 219.008,194.529 215.155,190.892 218.264,189.284"/>
<text text-anchor="middle" x="195.347" y="172.295" font-family="monospace" font-size="8.00">Q545L</text>
</g>
<!-- anon_15_23_1&#45;&gt;23 -->
<g id="edge37" class="edge"><title>anon_15_23_1&#45;&gt;23</title>
<path fill="none" stroke="black" d="M221.434,199.256C224.776,205.815 233.863,223.647 237.678,231.134"/>
</g>
<!-- anon_27_6_0&#45;&gt;anon_27_6_1 -->
<g id="edge41" class="edge"><title>anon_27_6_0&#45;&gt;anon_27_6_1</title>
<path fill="none" stroke="black" d="M171.274,-93.9998C163.175,-90.5411 136.182,-79.0143 127.944,-75.4966"/>
</g>
<!-- anon_31_20_1 -->
<g id="node66" class="node"><title>anon_31_20_1</title>
<ellipse fill="white" stroke="black" cx="205.983" cy="-219.072" rx="2.5" ry="2.5"/>
</g>
<!-- anon_31_20_0&#45;&gt;anon_31_20_1 -->
<g id="edge46" class="edge"><title>anon_31_20_0&#45;&gt;anon_31_20_1</title>
<path fill="none" stroke="black" d="M175.098,-185.275C179.835,-190.458 193.031,-204.899 200.552,-213.129"/>
<polygon fill="black" stroke="black" points="199.392,-214.454 204.057,-216.964 201.976,-212.093 199.392,-214.454"/>
<text text-anchor="middle" x="174.325" y="-201.802" font-family="monospace" font-size="8.00">T791M</text>
</g>
<!-- anon_31_20_1&#45;&gt;20 -->
<g id="edge47" class="edge"><title>anon_31_20_1&#45;&gt;20</title>
<path fill="none" stroke="black" d="M208.006,-221.014C212.443,-225.275 223.196,-235.6 230.236,-242.359"/>
<polygon fill="black" stroke="black" points="229.231,-243.819 234.049,-246.02 231.655,-241.295 229.231,-243.819"/>
<text text-anchor="middle" x="203.121" y="-234.286" font-family="monospace" font-size="8.00">L1366F</text>
</g>
<!-- anon_35_3_0&#45;&gt;3 -->
<g id="edge50" class="edge"><title>anon_35_3_0&#45;&gt;3</title>
<path fill="none" stroke="black" d="M-259.014,-242.178C-253.662,-238.464 -239.052,-228.325 -225.409,-218.857"/>
</g>
<!-- anon_45_3_0&#45;&gt;3 -->
<g id="edge61" class="edge"><title>anon_45_3_0&#45;&gt;3</title>
<path fill="none" stroke="black" d="M-273.358,-196.293C-266.706,-196.57 -248.453,-197.332 -231.515,-198.038"/>
</g>
<!-- anon_49_6_0&#45;&gt;6 -->
<g id="edge66" class="edge"><title>anon_49_6_0&#45;&gt;6</title>
<path fill="none" stroke="black" d="M-18.7977,-8.6363C-13.1111,-9.98101 0.84753,-13.2818 14.5833,-16.53"/>
</g>
</g>
</svg>
