<?xml version="1.0" encoding="UTF-8" standalone="no"?>
<!DOCTYPE svg PUBLIC "-//W3C//DTD SVG 1.1//EN"
 "http://www.w3.org/Graphics/SVG/1.1/DTD/svg11.dtd">
<!-- Generated by graphviz version 2.38.0 (20140413.2041)
 -->
<!-- Title: %3 Pages: 1 -->
<svg width="384pt" height="397pt"
 viewBox="0.00 0.00 383.82 396.58" xmlns="http://www.w3.org/2000/svg" xmlns:xlink="http://www.w3.org/1999/xlink">
<g id="graph0" class="graph" transform="scale(1 1) rotate(0) translate(181.751 204.678)">
<title>%3</title>
<polygon fill="white" stroke="none" points="-181.751,191.898 -181.751,-204.678 202.072,-204.678 202.072,191.898 -181.751,191.898"/>
<!-- 0 -->
<g id="node1" class="node"><title>0</title>
<path fill="olivedrab" stroke="black" stroke-width="0.5" d="M-10.1074,2.74802C-10.1074,2.74802 35.8926,2.74802 35.8926,2.74802 35.8926,1.1122 35.8053,-0.522463 35.6312,-2.14899 35.457,-3.77552 35.1962,-5.39161 34.8499,-6.99035 34.5036,-8.5891 34.0723,-10.1682 33.5577,-11.721 33.0432,-13.2738 32.4462,-14.7981 31.7693,-16.2873 31.0923,-17.7765 30.3365,-19.2285 29.5049,-20.6372 28.6733,-22.0458 27.7671,-23.4091 26.7902,-24.7213 25.8134,-26.0334 24.7673,-27.2925 23.6563,-28.4932 22.5453,-29.6939 21.371,-30.8344 20.1386,-31.91 20.1386,-31.91 -10.1074,2.74802 -10.1074,2.74802"/>
<path fill="#1874cd" stroke="black" stroke-width="0.5" d="M-10.1074,2.74802C-10.1074,2.74802 20.1386,-31.91 20.1386,-31.91 19.1583,-32.7655 18.1421,-33.5791 17.0928,-34.3484 16.0435,-35.1178 14.9621,-35.8423 13.8514,-36.52 12.7407,-37.1976 11.6018,-37.8279 10.4376,-38.409 9.2735,-38.9901 8.08524,-39.5216 6.87606,-40.002 5.66688,-40.4823 4.43785,-40.9112 3.19231,-41.2874 1.94677,-41.6636 0.685823,-41.9867 -0.587118,-42.256 -1.86006,-42.5253 -3.14385,-42.7405 -4.43503,-42.9009 -5.72621,-43.0613 -7.02362,-43.1669 -8.32376,-43.2174 -9.62389,-43.2678 -10.9256,-43.2631 -12.2253,-43.2032 -13.525,-43.1433 -14.8216,-43.0283 -16.1116,-42.8584 -17.4016,-42.6886 -18.6838,-42.4641 -19.9548,-42.1856 -21.2257,-41.9071 -22.4843,-41.5747 -23.727,-41.1895 -24.9698,-40.8043 -26.1957,-40.3665 -27.4013,-39.8773 -28.607,-39.3882 -29.7914,-38.8481 -30.9512,-38.2585 -32.1111,-37.6689 -33.2454,-37.0304 -34.3512,-36.3447 -35.4569,-35.659 -36.5331,-34.9266 -37.5767,-34.1496 -38.6204,-33.3727 -39.6306,-32.5518 -40.6046,-31.6892 -41.5787,-30.8265 -42.5157,-29.923 -43.4132,-28.9809 -44.3106,-28.0389 -45.1677,-27.0592 -45.9821,-26.0445 -46.7965,-25.0297 -47.5675,-23.9809 -48.293,-22.9008 -49.0184,-21.8208 -49.6978,-20.7104 -50.3291,-19.5727 -50.9605,-18.4351 -51.5432,-17.2711 -52.0759,-16.084 -52.6086,-14.8969 -53.0906,-13.6878 -53.5208,-12.4598 -53.9509,-11.2319 -54.3288,-9.98625 -54.6534,-8.72627 -54.9779,-7.46629 -55.2489,-6.1931 -55.4655,-4.91015 -55.6821,-3.62719 -55.8442,-2.33562 -55.9513,-1.03893 -56.0584,0.257766 -56.1104,1.55842 -56.1073,2.85953 -56.1041,4.16064 -56.0458,5.46103 -55.9324,6.75719 -55.819,8.05335 -55.6506,9.34411 -55.4278,10.626 -55.205,11.9079 -54.9279,13.1797 -54.5972,14.4381 -54.2666,15.6965 -53.8827,16.9403 -53.4466,18.1662 -53.0105,19.392 -52.5225,20.5988 -51.9841,21.7833 -51.4457,22.9678 -50.8573,24.1289 -50.2204,25.2635 -49.5836,26.3981 -48.8989,27.5052 -48.1682,28.5817 -47.4375,29.6583 -46.6614,30.7033 -45.8421,31.7141 -45.0228,32.7248 -44.161,33.7004 -43.259,34.6381 -42.3569,35.5758 -41.4156,36.4748 -40.4373,37.3327 -39.4591,38.1905 -38.4449,39.0065 -37.3975,39.7784 -36.3501,40.5503 -35.2704,41.2774 -34.1614,41.9578 -33.0523,42.6382 -31.9149,43.2712 -30.7522,43.8551 -29.5895,44.4391 -28.4025,44.9734 -27.1945,45.4567 -25.9865,45.94 -24.7585,46.3719 -23.5139,46.7511 -22.2692,47.1303 -21.0091,47.4565 -19.7368,47.7289 -18.4645,48.0012 -17.1812,48.2195 -15.8905,48.3831 -14.5997,48.5466 -13.3025,48.6554 -12.0025,48.709 -10.7025,48.7626 -9.40081,48.761 -8.10093,48.7042 -6.80106,48.6475 -5.50418,48.5356 -4.21379,48.3689 -2.9234,48.2022 -1.64067,47.9808 -0.369047,47.7054 0.902574,47.4299 2.16194,47.1007 3.40564,46.7184 4.64935,46.3362 5.87627,45.9014 7.08312,45.4152 8.28996,44.9289 9.47563,44.3917 10.6369,43.805 11.7982,43.2182 12.9341,42.5824 14.0415,41.8994 15.1489,41.2163 16.2268,40.4866 17.2723,39.7122 18.3179,38.9377 19.3301,38.1193 20.3062,37.259 21.2824,36.3988 22.2216,35.4975 23.1213,34.5576 24.0211,33.6177 24.8805,32.6401 25.6974,31.6274 26.5142,30.6146 27.2877,29.5677 28.0158,28.4894 28.7439,27.4111 29.4259,26.3023 30.06,25.1662 30.6941,24.0301 31.2797,22.8675 31.8153,21.6817 32.3508,20.496 32.8358,19.288 33.269,18.0611 33.7021,16.8342 34.083,15.5895 34.4106,14.3303 34.7382,13.0711 35.0122,11.7985 35.2319,10.5161 35.4516,9.2337 35.6169,7.94253 35.7271,6.64609 35.8374,5.34966 35.8926,4.04914 35.8926,2.74802 35.8926,2.74802 -10.1074,2.74802 -10.1074,2.74802"/>
<ellipse fill="none" stroke="black" cx="-10.1074" cy="2.74802" rx="46" ry="46"/>
<text text-anchor="middle" x="-10.1074" y="4.64802" font-family="monospace" font-size="8.00">0</text>
</g>
<!-- 1 -->
<g id="node2" class="node"><title>1</title>
<ellipse fill="#1874cd" stroke="black" cx="2.11043" cy="57.1857" rx="3.5" ry="3.5"/>
<text text-anchor="middle" x="2.11043" y="59.0857" font-family="monospace" font-size="8.00">1</text>
</g>
<!-- 0&#45;&gt;1 -->
<g id="edge1" class="edge"><title>0&#45;&gt;1</title>
<path fill="none" stroke="black" d="M-0.0177545,47.7034C0.496614,49.9952 0.944292,51.9899 1.29458,53.5506"/>
</g>
<!-- 2 -->
<g id="node3" class="node"><title>2</title>
<ellipse fill="#1874cd" stroke="black" cx="79.9672" cy="-89.9542" rx="3.5" ry="3.5"/>
<text text-anchor="middle" x="79.9672" y="-88.0542" font-family="monospace" font-size="8.00">2</text>
</g>
<!-- 0&#45;&gt;2 -->
<g id="edge2" class="edge"><title>0&#45;&gt;2</title>
<path fill="none" stroke="black" d="M22.1572,-30.4578C43.5608,-52.4858 69.1603,-78.832 77.3278,-87.2378"/>
</g>
<!-- 3 -->
<g id="node4" class="node"><title>3</title>
<ellipse fill="#1874cd" stroke="black" cx="58.7544" cy="18.0871" rx="3.5" ry="3.5"/>
<text text-anchor="middle" x="58.7544" y="19.9871" font-family="monospace" font-size="8.00">3</text>
</g>
<!-- 0&#45;&gt;3 -->
<g id="edge3" class="edge"><title>0&#45;&gt;3</title>
<path fill="none" stroke="black" d="M35.0561,12.8082C43.574,14.7056 51.1181,16.3861 55.2983,17.3172"/>
</g>
<!-- 4 -->
<g id="node5" class="node"><title>4</title>
<ellipse fill="#1874cd" stroke="black" cx="0.829927" cy="98.1821" rx="3.5" ry="3.5"/>
<text text-anchor="middle" x="0.829927" y="100.082" font-family="monospace" font-size="8.00">4</text>
</g>
<!-- 0&#45;&gt;4 -->
<g id="edge4" class="edge"><title>0&#45;&gt;4</title>
<path fill="none" stroke="black" d="M-4.86299,48.5084C-2.71388,67.2605 -0.518512,86.4163 0.392513,94.3655"/>
</g>
<!-- 5 -->
<g id="node6" class="node"><title>5</title>
<ellipse fill="#1874cd" stroke="black" cx="85.678" cy="-35.2054" rx="3.5" ry="3.5"/>
<text text-anchor="middle" x="85.678" y="-33.3054" font-family="monospace" font-size="8.00">5</text>
</g>
<!-- 0&#45;&gt;5 -->
<g id="edge5" class="edge"><title>0&#45;&gt;5</title>
<path fill="none" stroke="black" d="M32.7424,-14.2305C52.6669,-22.1253 73.7687,-30.4865 82.0473,-33.7668"/>
</g>
<!-- 7 -->
<g id="node8" class="node"><title>7</title>
<ellipse fill="#1874cd" stroke="black" cx="-79.8599" cy="-68.239" rx="3.5" ry="3.5"/>
<text text-anchor="middle" x="-79.8599" y="-66.339" font-family="monospace" font-size="8.00">7</text>
</g>
<!-- 0&#45;&gt;7 -->
<g id="edge9" class="edge"><title>0&#45;&gt;7</title>
<path fill="none" stroke="black" d="M-42.5332,-30.2517C-56.764,-44.7344 -71.5416,-59.7735 -77.3258,-65.6601"/>
</g>
<!-- 11 -->
<g id="node12" class="node"><title>11</title>
<ellipse fill="#1874cd" stroke="black" cx="111.694" cy="43.7639" rx="3.5" ry="3.5"/>
<text text-anchor="middle" x="111.694" y="45.6639" font-family="monospace" font-size="8.00">11</text>
</g>
<!-- 0&#45;&gt;11 -->
<g id="edge13" class="edge"><title>0&#45;&gt;11</title>
<path fill="none" stroke="black" d="M33.5218,17.4398C62.4645,27.1861 97.0809,38.8429 108.125,42.562"/>
</g>
<!-- 13 -->
<g id="node14" class="node"><title>13</title>
<ellipse fill="#1874cd" stroke="black" cx="-102.61" cy="-9.63981" rx="3.5" ry="3.5"/>
<text text-anchor="middle" x="-102.61" y="-7.73981" font-family="monospace" font-size="8.00">13</text>
</g>
<!-- 0&#45;&gt;13 -->
<g id="edge17" class="edge"><title>0&#45;&gt;13</title>
<path fill="none" stroke="black" d="M-55.8165,-3.37331C-73.6592,-5.7628 -91.6095,-8.16669 -99.0436,-9.16226"/>
</g>
<!-- 14 -->
<g id="node15" class="node"><title>14</title>
<ellipse fill="#1874cd" stroke="black" cx="1.53094" cy="-104.864" rx="3.5" ry="3.5"/>
<text text-anchor="middle" x="1.53094" y="-102.964" font-family="monospace" font-size="8.00">14</text>
</g>
<!-- 0&#45;&gt;14 -->
<g id="edge18" class="edge"><title>0&#45;&gt;14</title>
<path fill="none" stroke="black" d="M-5.13795,-43.2013C-2.99139,-63.0491 -0.687185,-84.3546 0.572259,-95.9998"/>
<polygon fill="black" stroke="black" points="-1.1483,-96.3673 1.12927,-101.15 2.33141,-95.9909 -1.1483,-96.3673"/>
<text text-anchor="middle" x="-15.7828" y="-72.2006" font-family="monospace" font-size="8.00">A586T</text>
</g>
<!-- 15 -->
<g id="node16" class="node"><title>15</title>
<ellipse fill="#1874cd" stroke="black" cx="92.5566" cy="-3.01204" rx="3.5" ry="3.5"/>
<text text-anchor="middle" x="92.5566" y="-1.11204" font-family="monospace" font-size="8.00">15</text>
</g>
<!-- 0&#45;&gt;15 -->
<g id="edge19" class="edge"><title>0&#45;&gt;15</title>
<path fill="none" stroke="black" d="M36.1189,0.15445C57.6207,-1.05192 80.3292,-2.32601 88.9526,-2.80983"/>
</g>
<!-- 17 -->
<g id="node18" class="node"><title>17</title>
<ellipse fill="#1874cd" stroke="black" cx="-35.1621" cy="-78.1207" rx="3.5" ry="3.5"/>
<text text-anchor="middle" x="-35.1621" y="-76.2207" font-family="monospace" font-size="8.00">17</text>
</g>
<!-- 0&#45;&gt;17 -->
<g id="edge20" class="edge"><title>0&#45;&gt;17</title>
<path fill="none" stroke="black" d="M-23.8077,-41.4721C-28.1032,-55.3368 -32.2132,-68.6026 -34.0936,-74.6717"/>
</g>
<!-- 19 -->
<g id="node20" class="node"><title>19</title>
<ellipse fill="#1874cd" stroke="black" cx="74.2206" cy="68.5392" rx="5" ry="5"/>
<text text-anchor="middle" x="74.2206" y="70.4392" font-family="monospace" font-size="8.00">19</text>
</g>
<!-- 0&#45;&gt;19 -->
<g id="edge23" class="edge"><title>0&#45;&gt;19</title>
<path fill="none" stroke="black" d="M26.6348,31.4136C43.6783,44.7106 61.9236,58.9453 69.981,65.2315"/>
</g>
<!-- 20 -->
<g id="node21" class="node"><title>20</title>
<ellipse fill="#1874cd" stroke="black" cx="2.81921" cy="-59.3654" rx="3.5" ry="3.5"/>
<text text-anchor="middle" x="2.81921" y="-57.4654" font-family="monospace" font-size="8.00">20</text>
</g>
<!-- 0&#45;&gt;20 -->
<g id="edge24" class="edge"><title>0&#45;&gt;20</title>
<path fill="none" stroke="black" d="M-0.713051,-42.3926C0.414647,-47.8113 1.39131,-52.5042 2.03005,-55.5734"/>
</g>
<!-- 21 -->
<g id="node22" class="node"><title>21</title>
<ellipse fill="#1874cd" stroke="black" cx="48.4541" cy="-35.9948" rx="3.5" ry="3.5"/>
<text text-anchor="middle" x="48.4541" y="-34.0948" font-family="monospace" font-size="8.00">21</text>
</g>
<!-- 0&#45;&gt;21 -->
<g id="edge25" class="edge"><title>0&#45;&gt;21</title>
<path fill="none" stroke="black" d="M28.3006,-22.6617C35.5443,-27.454 41.9601,-31.6985 45.5149,-34.0503"/>
</g>
<!-- 22 -->
<g id="node23" class="node"><title>22</title>
<ellipse fill="#1874cd" stroke="black" cx="-51.8306" cy="66.293" rx="3.5" ry="3.5"/>
<text text-anchor="middle" x="-51.8306" y="68.193" font-family="monospace" font-size="8.00">22</text>
</g>
<!-- 0&#45;&gt;22 -->
<g id="edge26" class="edge"><title>0&#45;&gt;22</title>
<path fill="none" stroke="black" d="M-35.5799,41.5429C-41.552,50.6386 -46.9935,58.926 -49.8112,63.2174"/>
</g>
<!-- 23 -->
<g id="node24" class="node"><title>23</title>
<ellipse fill="#1874cd" stroke="black" cx="-30.4678" cy="109.759" rx="5" ry="5"/>
<text text-anchor="middle" x="-30.4678" y="111.659" font-family="monospace" font-size="8.00">23</text>
</g>
<!-- 0&#45;&gt;23 -->
<g id="edge27" class="edge"><title>0&#45;&gt;23</title>
<path fill="none" stroke="black" d="M-18.742,48.1304C-22.9473,70.2327 -27.5128,94.2284 -29.4776,104.555"/>
</g>
<!-- 24 -->
<g id="node25" class="node"><title>24</title>
<ellipse fill="#1874cd" stroke="black" cx="-94.4806" cy="56.4297" rx="3.5" ry="3.5"/>
<text text-anchor="middle" x="-94.4806" y="58.3297" font-family="monospace" font-size="8.00">24</text>
</g>
<!-- 0&#45;&gt;24 -->
<g id="edge28" class="edge"><title>0&#45;&gt;24</title>
<path fill="none" stroke="black" d="M-49.33,27.703C-66.5436,38.655 -84.4187,50.0279 -91.4154,54.4794"/>
</g>
<!-- 26 -->
<g id="node27" class="node"><title>26</title>
<ellipse fill="#1874cd" stroke="black" cx="-64.4957" cy="-33.2964" rx="3.5" ry="3.5"/>
<text text-anchor="middle" x="-64.4957" y="-31.3964" font-family="monospace" font-size="8.00">26</text>
</g>
<!-- 0&#45;&gt;26 -->
<g id="edge31" class="edge"><title>0&#45;&gt;26</title>
<path fill="none" stroke="black" d="M-48.4716,-22.6768C-51.6444,-24.7795 -54.5717,-26.7195 -57.0322,-28.3501"/>
<polygon fill="black" stroke="black" points="-58.1553,-26.995 -61.3564,-31.2159 -56.2218,-29.9125 -58.1553,-26.995"/>
<text text-anchor="middle" x="-66.2519" y="-19.1135" font-family="monospace" font-size="8.00">A837V</text>
</g>
<!-- 27 -->
<g id="node28" class="node"><title>27</title>
<ellipse fill="olivedrab" stroke="black" cx="-75.4397" cy="22.0543" rx="3.5" ry="3.5"/>
<text text-anchor="middle" x="-75.4397" y="23.9543" font-family="monospace" font-size="8.00">27</text>
</g>
<!-- 0&#45;&gt;27 -->
<g id="edge32" class="edge"><title>0&#45;&gt;27</title>
<path fill="none" stroke="black" d="M-54.4086,15.8394C-61.6907,17.9913 -68.0855,19.881 -71.8575,20.9957"/>
</g>
<!-- 28 -->
<g id="node29" class="node"><title>28</title>
<ellipse fill="olivedrab" stroke="black" cx="33.5135" cy="-83.919" rx="3.5" ry="3.5"/>
<text text-anchor="middle" x="33.5135" y="-82.019" font-family="monospace" font-size="8.00">28</text>
</g>
<!-- 0&#45;&gt;28 -->
<g id="edge33" class="edge"><title>0&#45;&gt;28</title>
<path fill="none" stroke="black" d="M10.681,-38.5549C19.2828,-55.6452 28.0971,-73.1576 31.7562,-80.4277"/>
</g>
<!-- anon_0_6_0 -->
<g id="node30" class="node"><title>anon_0_6_0</title>
<ellipse fill="white" stroke="black" cx="-79.6339" cy="107.496" rx="2.5" ry="2.5"/>
</g>
<!-- 0&#45;&gt;anon_0_6_0 -->
<g id="edge6" class="edge"><title>0&#45;&gt;anon_0_6_0</title>
<path fill="none" stroke="black" d="M-35.6017,41.1576C-52.3441,66.3816 -72.1808,96.2676 -77.9711,104.991"/>
</g>
<!-- anon_0_10_0 -->
<g id="node32" class="node"><title>anon_0_10_0</title>
<ellipse fill="white" stroke="black" cx="36.3061" cy="120.444" rx="2.5" ry="2.5"/>
</g>
<!-- 0&#45;&gt;anon_0_10_0 -->
<g id="edge11" class="edge"><title>0&#45;&gt;anon_0_10_0</title>
<path fill="none" stroke="black" d="M6.78022,45.5719C18.0811,74.2289 31.5461,108.374 35.2946,117.879"/>
</g>
<!-- anon_0_12_0 -->
<g id="node33" class="node"><title>anon_0_12_0</title>
<ellipse fill="white" stroke="black" cx="-56.4739" cy="-115.613" rx="2.5" ry="2.5"/>
</g>
<!-- 0&#45;&gt;anon_0_12_0 -->
<g id="edge14" class="edge"><title>0&#45;&gt;anon_0_12_0</title>
<path fill="none" stroke="black" d="M-26.9779,-40.3178C-38.2674,-69.1367 -51.7187,-103.474 -55.4634,-113.033"/>
</g>
<!-- anon_0_18_0 -->
<g id="node35" class="node"><title>anon_0_18_0</title>
<ellipse fill="white" stroke="black" cx="-124.041" cy="-49.2155" rx="2.5" ry="2.5"/>
</g>
<!-- 0&#45;&gt;anon_0_18_0 -->
<g id="edge21" class="edge"><title>0&#45;&gt;anon_0_18_0</title>
<path fill="none" stroke="black" d="M-52.2083,-16.4536C-79.8461,-29.0589 -112.503,-43.9534 -121.589,-48.0974"/>
</g>
<!-- anon_0_25_0 -->
<g id="node36" class="node"><title>anon_0_25_0</title>
<ellipse fill="white" stroke="black" cx="-132.64" cy="26.9107" rx="2.5" ry="2.5"/>
</g>
<!-- 0&#45;&gt;anon_0_25_0 -->
<g id="edge29" class="edge"><title>0&#45;&gt;anon_0_25_0</title>
<path fill="none" stroke="black" d="M-55.3861,11.6767C-85.1099,17.538 -120.232,24.4638 -130.004,26.3908"/>
</g>
<!-- anon_2_8_0 -->
<g id="node37" class="node"><title>anon_2_8_0</title>
<ellipse fill="white" stroke="black" cx="112.846" cy="-124.538" rx="2.5" ry="2.5"/>
</g>
<!-- 2&#45;&gt;anon_2_8_0 -->
<g id="edge34" class="edge"><title>2&#45;&gt;anon_2_8_0</title>
<path fill="none" stroke="black" d="M82.5471,-92.6679C88.9657,-99.4194 105.532,-116.845 111.037,-122.635"/>
</g>
<!-- 6 -->
<g id="node7" class="node"><title>6</title>
<ellipse fill="#1874cd" stroke="black" cx="-126.03" cy="184.398" rx="3.5" ry="3.5"/>
<text text-anchor="middle" x="-126.03" y="186.298" font-family="monospace" font-size="8.00">6</text>
</g>
<!-- 8 -->
<g id="node9" class="node"><title>8</title>
<ellipse fill="#1874cd" stroke="black" cx="172.631" cy="-187.304" rx="3.5" ry="3.5"/>
<text text-anchor="middle" x="172.631" y="-185.404" font-family="monospace" font-size="8.00">8</text>
</g>
<!-- 9 -->
<g id="node10" class="node"><title>9</title>
<ellipse fill="#1874cd" stroke="black" cx="43.8657" cy="71.0406" rx="5" ry="5"/>
<text text-anchor="middle" x="43.8657" y="72.9406" font-family="monospace" font-size="8.00">9</text>
</g>
<!-- 9&#45;&gt;0 -->
<g id="edge10" class="edge"><title>9&#45;&gt;0</title>
<path fill="none" stroke="black" d="M40.6511,66.9731C36.6842,61.9538 29.5098,52.876 21.7803,43.0958"/>
<polygon fill="black" stroke="black" points="20.4064,44.1797 18.6791,39.1718 23.1524,42.0095 20.4064,44.1797"/>
<text text-anchor="middle" x="44.7157" y="61.4345" font-family="monospace" font-size="8.00">R254K</text>
</g>
<!-- 10 -->
<g id="node11" class="node"><title>10</title>
<ellipse fill="#1874cd" stroke="black" cx="50.2399" cy="160.376" rx="3.5" ry="3.5"/>
<text text-anchor="middle" x="50.2399" y="162.276" font-family="monospace" font-size="8.00">10</text>
</g>
<!-- anon_11_16_0 -->
<g id="node39" class="node"><title>anon_11_16_0</title>
<ellipse fill="white" stroke="black" cx="156.362" cy="63.7673" rx="2.5" ry="2.5"/>
</g>
<!-- 11&#45;&gt;anon_11_16_0 -->
<g id="edge37" class="edge"><title>11&#45;&gt;anon_11_16_0</title>
<path fill="none" stroke="black" d="M114.907,45.2025C123.388,49.0008 146.252,59.2397 153.861,62.6472"/>
</g>
<!-- 12 -->
<g id="node13" class="node"><title>12</title>
<ellipse fill="#1874cd" stroke="black" cx="-93.8786" cy="-197.178" rx="3.5" ry="3.5"/>
<text text-anchor="middle" x="-93.8786" y="-195.278" font-family="monospace" font-size="8.00">12</text>
</g>
<!-- 16 -->
<g id="node17" class="node"><title>16</title>
<ellipse fill="#1874cd" stroke="black" cx="194.572" cy="81.7323" rx="3.5" ry="3.5"/>
<text text-anchor="middle" x="194.572" y="83.6323" font-family="monospace" font-size="8.00">16</text>
</g>
<!-- 18 -->
<g id="node19" class="node"><title>18</title>
<ellipse fill="#1874cd" stroke="black" cx="-163.008" cy="-65.6917" rx="3.5" ry="3.5"/>
<text text-anchor="middle" x="-163.008" y="-63.7917" font-family="monospace" font-size="8.00">18</text>
</g>
<!-- 25 -->
<g id="node26" class="node"><title>25</title>
<ellipse fill="#1874cd" stroke="black" cx="-174.251" cy="34.5483" rx="3.5" ry="3.5"/>
<text text-anchor="middle" x="-174.251" y="36.4483" font-family="monospace" font-size="8.00">25</text>
</g>
<!-- anon_0_6_1 -->
<g id="node31" class="node"><title>anon_0_6_1</title>
<ellipse fill="white" stroke="black" cx="-103.986" cy="148.39" rx="2.5" ry="2.5"/>
</g>
<!-- anon_0_6_0&#45;&gt;anon_0_6_1 -->
<g id="edge7" class="edge"><title>anon_0_6_0&#45;&gt;anon_0_6_1</title>
<path fill="none" stroke="black" d="M-80.9431,109.695C-85.1319,116.729 -98.1855,138.65 -102.549,145.977"/>
</g>
<!-- anon_0_6_1&#45;&gt;6 -->
<g id="edge8" class="edge"><title>anon_0_6_1&#45;&gt;6</title>
<path fill="none" stroke="black" d="M-105.432,150.752C-109.264,157.011 -119.68,174.026 -124.054,181.171"/>
</g>
<!-- anon_0_10_0&#45;&gt;10 -->
<g id="edge12" class="edge"><title>anon_0_10_0&#45;&gt;10</title>
<path fill="none" stroke="black" d="M37.2203,123.064C39.6421,130.005 46.2264,148.874 48.9911,156.797"/>
</g>
<!-- anon_0_12_1 -->
<g id="node34" class="node"><title>anon_0_12_1</title>
<ellipse fill="white" stroke="black" cx="-75.6647" cy="-159.084" rx="2.5" ry="2.5"/>
</g>
<!-- anon_0_12_0&#45;&gt;anon_0_12_1 -->
<g id="edge15" class="edge"><title>anon_0_12_0&#45;&gt;anon_0_12_1</title>
<path fill="none" stroke="black" d="M-57.5057,-117.95C-60.8067,-125.428 -71.0937,-148.73 -74.5323,-156.519"/>
</g>
<!-- anon_0_12_1&#45;&gt;12 -->
<g id="edge16" class="edge"><title>anon_0_12_1&#45;&gt;12</title>
<path fill="none" stroke="black" d="M-76.8597,-161.583C-80.0254,-168.204 -88.6322,-186.206 -92.2462,-193.764"/>
</g>
<!-- anon_0_18_0&#45;&gt;18 -->
<g id="edge22" class="edge"><title>anon_0_18_0&#45;&gt;18</title>
<path fill="none" stroke="black" d="M-126.598,-50.2966C-133.37,-53.1602 -151.784,-60.9459 -159.516,-64.215"/>
</g>
<!-- anon_0_25_0&#45;&gt;25 -->
<g id="edge30" class="edge"><title>anon_0_25_0&#45;&gt;25</title>
<path fill="none" stroke="black" d="M-135.371,27.4118C-142.603,28.7393 -162.266,32.3484 -170.522,33.8638"/>
</g>
<!-- anon_2_8_1 -->
<g id="node38" class="node"><title>anon_2_8_1</title>
<ellipse fill="white" stroke="black" cx="143.516" cy="-156.785" rx="2.5" ry="2.5"/>
</g>
<!-- anon_2_8_0&#45;&gt;anon_2_8_1 -->
<g id="edge35" class="edge"><title>anon_2_8_0&#45;&gt;anon_2_8_1</title>
<path fill="none" stroke="black" d="M114.858,-126.654C120.508,-132.595 136.453,-149.36 141.768,-154.947"/>
</g>
<!-- anon_2_8_1&#45;&gt;8 -->
<g id="edge36" class="edge"><title>anon_2_8_1&#45;&gt;8</title>
<path fill="none" stroke="black" d="M145.426,-158.788C150.486,-164.092 164.244,-178.513 170.021,-184.569"/>
</g>
<!-- anon_11_16_0&#45;&gt;16 -->
<g id="edge38" class="edge"><title>anon_11_16_0&#45;&gt;16</title>
<path fill="none" stroke="black" d="M158.869,64.946C165.51,68.0685 183.566,76.5576 191.147,80.1222"/>
</g>
</g>
</svg>
