<?xml version="1.0" encoding="UTF-8" standalone="no"?>
<!DOCTYPE svg PUBLIC "-//W3C//DTD SVG 1.1//EN"
 "http://www.w3.org/Graphics/SVG/1.1/DTD/svg11.dtd">
<!-- Generated by graphviz version 2.36.0 (20140111.2315)
 -->
<!-- Title: %3 Pages: 1 -->
<svg width="786pt" height="907pt"
 viewBox="0.00 0.00 785.58 906.77" xmlns="http://www.w3.org/2000/svg" xmlns:xlink="http://www.w3.org/1999/xlink">
<g id="graph0" class="graph" transform="scale(1 1) rotate(0) translate(4 902.77)">
<title>%3</title>
<polygon fill="white" stroke="none" points="-4,4 -4,-902.77 781.575,-902.77 781.575,4 -4,4"/>
<!-- 0 -->
<g id="node1" class="node"><title>0</title>
<path fill="#787878" stroke="black" stroke-width="0.5" d="M294.869,-630.328C294.869,-630.328 335.869,-630.328 335.869,-630.328 335.869,-631.361 335.83,-632.392 335.752,-633.422 335.674,-634.451 335.557,-635.477 335.402,-636.497 335.247,-637.518 335.053,-638.532 334.821,-639.538 334.589,-640.544 334.32,-641.541 334.012,-642.526 333.705,-643.512 333.361,-644.485 332.981,-645.445 332.6,-646.404 332.183,-647.349 331.732,-648.277 331.28,-649.205 330.793,-650.116 330.272,-651.007 329.752,-651.898 329.198,-652.77 328.611,-653.619 328.025,-654.469 327.407,-655.296 326.758,-656.098 326.109,-656.901 325.43,-657.679 324.723,-658.431 324.015,-659.183 323.28,-659.907 322.517,-660.603 321.755,-661.299 320.967,-661.966 320.154,-662.603 319.342,-663.24 318.506,-663.845 317.647,-664.419 316.789,-664.992 315.909,-665.533 315.01,-666.04 314.111,-666.547 313.193,-667.02 312.259,-667.458 311.324,-667.896 310.373,-668.298 309.408,-668.664 308.443,-669.03 307.464,-669.36 306.474,-669.652 305.484,-669.944 304.483,-670.199 303.474,-670.415 302.465,-670.632 301.448,-670.81 300.425,-670.95 299.402,-671.09 298.375,-671.191 297.344,-671.254 296.314,-671.316 295.282,-671.339 294.25,-671.324 293.218,-671.308 292.186,-671.254 291.158,-671.16 290.131,-671.067 289.106,-670.935 288.088,-670.764 287.07,-670.593 286.059,-670.384 285.057,-670.137 284.055,-669.89 283.062,-669.605 282.082,-669.283 281.101,-668.961 280.133,-668.602 279.179,-668.207 278.225,-667.812 277.287,-667.382 276.366,-666.916 275.445,-666.45 274.541,-665.949 273.658,-665.415 272.775,-664.881 271.912,-664.314 271.071,-663.715 270.231,-663.116 269.413,-662.485 268.62,-661.825 267.827,-661.164 267.06,-660.473 266.319,-659.754 265.578,-659.036 264.864,-658.289 264.18,-657.516 264.18,-657.516 294.869,-630.328 294.869,-630.328"/>
<path fill="palegreen" stroke="black" stroke-width="0.5" d="M294.869,-630.328C294.869,-630.328 264.18,-657.516 264.18,-657.516 263.085,-656.28 262.065,-654.979 261.127,-653.619 260.188,-652.26 259.333,-650.845 258.565,-649.382 257.798,-647.919 257.119,-646.412 256.533,-644.867 255.948,-643.323 255.456,-641.744 255.06,-640.14 254.665,-638.536 254.367,-636.91 254.168,-635.27 253.969,-633.631 253.869,-631.98 253.869,-630.328 253.869,-628.677 253.969,-627.026 254.168,-625.386 254.367,-623.747 254.665,-622.12 255.06,-620.516 255.456,-618.913 255.948,-617.334 256.533,-615.79 257.119,-614.245 257.798,-612.737 258.565,-611.275 259.333,-609.812 260.188,-608.397 261.127,-607.038 262.065,-605.678 263.085,-604.377 264.18,-603.14 265.275,-601.904 266.444,-600.735 267.681,-599.639 268.917,-598.544 270.219,-597.524 271.578,-596.586 272.938,-595.648 274.353,-594.792 275.815,-594.025 277.278,-593.257 278.786,-592.578 280.33,-591.993 281.875,-591.407 283.453,-590.915 285.057,-590.52 286.661,-590.124 288.287,-589.826 289.927,-589.627 291.567,-589.428 293.217,-589.328 294.869,-589.328 296.521,-589.328 298.171,-589.428 299.811,-589.627 301.451,-589.826 303.077,-590.124 304.681,-590.52 306.285,-590.915 307.863,-591.407 309.408,-591.993 310.952,-592.578 312.46,-593.257 313.923,-594.025 315.385,-594.792 316.8,-595.648 318.16,-596.586 319.519,-597.524 320.821,-598.544 322.057,-599.639 323.293,-600.735 324.463,-601.904 325.558,-603.14 326.653,-604.377 327.673,-605.678 328.611,-607.038 329.55,-608.397 330.405,-609.812 331.173,-611.275 331.94,-612.737 332.619,-614.245 333.205,-615.79 333.79,-617.334 334.282,-618.913 334.678,-620.516 335.073,-622.12 335.371,-623.747 335.57,-625.386 335.769,-627.026 335.869,-628.677 335.869,-630.328 335.869,-630.328 294.869,-630.328 294.869,-630.328"/>
<ellipse fill="none" stroke="black" cx="294.869" cy="-630.328" rx="41" ry="41"/>
</g>
<!-- 22 -->
<g id="node23" class="node"><title>22</title>
<ellipse fill="palegreen" stroke="black" cx="258.532" cy="-701.216" rx="3.5" ry="3.5"/>
</g>
<!-- 0&#45;&#45;22 -->
<g id="edge1" class="edge"><title>0&#45;&#45;22</title>
<path fill="none" stroke="black" d="M276.062,-667.018C269.55,-679.721 263.148,-692.21 260.207,-697.948"/>
</g>
<!-- 47 -->
<g id="node48" class="node"><title>47</title>
<ellipse fill="#787878" stroke="black" cx="195.5" cy="-638.95" rx="3.5" ry="3.5"/>
</g>
<!-- 0&#45;&#45;47 -->
<g id="edge2" class="edge"><title>0&#45;&#45;47</title>
<path fill="none" stroke="black" d="M253.878,-633.885C232.066,-635.777 207.946,-637.87 199.048,-638.642"/>
</g>
<!-- 1 -->
<g id="node2" class="node"><title>1</title>
<ellipse fill="palegreen" stroke="black" cx="631.11" cy="-784.537" rx="33" ry="33"/>
</g>
<!-- 18 -->
<g id="node19" class="node"><title>18</title>
<ellipse fill="palegreen" stroke="black" cx="613.242" cy="-871.218" rx="5" ry="5"/>
</g>
<!-- 1&#45;&#45;18 -->
<g id="edge3" class="edge"><title>1&#45;&#45;18</title>
<path fill="none" stroke="black" d="M624.355,-817.307C620.56,-835.717 616.207,-856.837 614.267,-866.246"/>
</g>
<!-- 30 -->
<g id="node31" class="node"><title>30</title>
<ellipse fill="palegreen" stroke="black" cx="567.042" cy="-809.534" rx="3.5" ry="3.5"/>
</g>
<!-- 1&#45;&#45;30 -->
<g id="edge4" class="edge"><title>1&#45;&#45;30</title>
<path fill="none" stroke="black" d="M600.202,-796.596C588.426,-801.19 576.447,-805.864 570.641,-808.129"/>
</g>
<!-- 43 -->
<g id="node44" class="node"><title>43</title>
<ellipse fill="palegreen" stroke="black" cx="720.037" cy="-762.703" rx="3.5" ry="3.5"/>
</g>
<!-- 1&#45;&#45;43 -->
<g id="edge5" class="edge"><title>1&#45;&#45;43</title>
<path fill="none" stroke="black" d="M663.215,-776.654C683.513,-771.67 707.543,-765.77 716.468,-763.579"/>
</g>
<!-- 45 -->
<g id="node46" class="node"><title>45</title>
<ellipse fill="palegreen" stroke="black" cx="586.42" cy="-746.327" rx="3.5" ry="3.5"/>
</g>
<!-- 1&#45;&#45;45 -->
<g id="edge6" class="edge"><title>1&#45;&#45;45</title>
<path fill="none" stroke="black" d="M605.892,-762.975C599.239,-757.288 592.932,-751.895 589.382,-748.86"/>
</g>
<!-- 48 -->
<g id="node49" class="node"><title>48</title>
<ellipse fill="palegreen" stroke="black" cx="638.712" cy="-705.29" rx="3.5" ry="3.5"/>
</g>
<!-- 1&#45;&#45;48 -->
<g id="edge7" class="edge"><title>1&#45;&#45;48</title>
<path fill="none" stroke="black" d="M634.29,-751.388C635.885,-734.762 637.629,-716.573 638.36,-708.96"/>
</g>
<!-- 50 -->
<g id="node51" class="node"><title>50</title>
<ellipse fill="palegreen" stroke="black" cx="601.175" cy="-698.704" rx="3.5" ry="3.5"/>
</g>
<!-- 1&#45;&#45;50 -->
<g id="edge8" class="edge"><title>1&#45;&#45;50</title>
<path fill="none" stroke="black" d="M620.133,-753.063C613.325,-733.542 605.328,-710.614 602.361,-702.105"/>
</g>
<!-- 53 -->
<g id="node54" class="node"><title>53</title>
<ellipse fill="palegreen" stroke="black" cx="711.778" cy="-799.846" rx="3.5" ry="3.5"/>
</g>
<!-- 1&#45;&#45;53 -->
<g id="edge9" class="edge"><title>1&#45;&#45;53</title>
<path fill="none" stroke="black" d="M663.921,-790.763C681.02,-794.008 699.989,-797.608 707.942,-799.117"/>
</g>
<!-- 55 -->
<g id="node56" class="node"><title>55</title>
<ellipse fill="palegreen" stroke="black" cx="679.386" cy="-858.712" rx="3.5" ry="3.5"/>
</g>
<!-- 1&#45;&#45;55 -->
<g id="edge10" class="edge"><title>1&#45;&#45;55</title>
<path fill="none" stroke="black" d="M649.361,-812.579C660.042,-828.989 672.36,-847.916 677.238,-855.411"/>
</g>
<!-- 57 -->
<g id="node58" class="node"><title>57</title>
<ellipse fill="palegreen" stroke="black" cx="645.657" cy="-861.591" rx="3.5" ry="3.5"/>
</g>
<!-- 1&#45;&#45;57 -->
<g id="edge11" class="edge"><title>1&#45;&#45;57</title>
<path fill="none" stroke="black" d="M637.28,-817.215C640.315,-833.294 643.613,-850.764 644.993,-858.071"/>
</g>
<!-- 60 -->
<g id="node61" class="node"><title>60</title>
<ellipse fill="palegreen" stroke="black" cx="682.856" cy="-742.726" rx="3.5" ry="3.5"/>
</g>
<!-- 1&#45;&#45;60 -->
<g id="edge12" class="edge"><title>1&#45;&#45;60</title>
<path fill="none" stroke="black" d="M656.983,-763.631C666.281,-756.119 675.579,-748.606 680.074,-744.974"/>
</g>
<!-- 2 -->
<g id="node3" class="node"><title>2</title>
<path fill="olivedrab" stroke="black" stroke-width="0.5" d="M490.418,-364.391C490.418,-364.391 516.918,-364.391 516.918,-364.391 516.918,-365.132 516.887,-365.873 516.825,-366.611 516.763,-367.35 516.67,-368.086 516.546,-368.816 516.422,-369.547 516.268,-370.272 516.083,-370.99 515.899,-371.708 515.684,-372.418 515.44,-373.118 515.196,-373.818 514.923,-374.507 514.621,-375.184 514.319,-375.861 513.989,-376.525 513.631,-377.174 513.274,-377.823 512.889,-378.457 512.479,-379.074 512.068,-379.691 511.632,-380.291 511.171,-380.871 510.71,-381.451 510.225,-382.012 509.717,-382.552 509.209,-383.092 508.678,-383.61 508.127,-384.105 507.576,-384.601 507.004,-385.073 506.413,-385.52 505.822,-385.967 505.212,-386.39 504.586,-386.786 503.959,-387.182 503.317,-387.552 502.659,-387.894 502.002,-388.237 501.331,-388.551 500.647,-388.837 499.963,-389.123 499.268,-389.381 498.562,-389.608 497.857,-389.836 497.142,-390.034 496.421,-390.202 495.699,-390.37 494.97,-390.508 494.237,-390.614 493.503,-390.721 492.766,-390.797 492.026,-390.842 491.286,-390.887 490.545,-390.901 489.804,-390.884 489.063,-390.867 488.323,-390.818 487.586,-390.739 486.849,-390.66 486.115,-390.55 485.388,-390.409 484.66,-390.268 483.939,-390.097 483.225,-389.896 482.512,-389.695 481.807,-389.464 481.113,-389.203 480.419,-388.943 479.737,-388.654 479.067,-388.336 478.397,-388.019 477.741,-387.674 477.1,-387.301 476.459,-386.929 475.835,-386.529 475.227,-386.104 474.62,-385.68 474.031,-385.229 473.461,-384.755 472.892,-384.281 472.342,-383.783 471.814,-383.263 471.287,-382.742 470.781,-382.2 470.298,-381.637 469.816,-381.074 469.357,-380.492 468.924,-379.891 468.49,-379.289 468.082,-378.67 467.701,-378.035 467.319,-377.399 466.964,-376.748 466.637,-376.083 466.31,-375.418 466.011,-374.74 465.741,-374.049 465.471,-373.359 465.23,-372.658 465.019,-371.948 464.807,-371.237 464.626,-370.518 464.475,-369.793 464.324,-369.067 464.203,-368.335 464.113,-367.6 464.024,-366.864 463.965,-366.125 463.937,-365.384 463.909,-364.643 463.913,-363.902 463.947,-363.161 463.981,-362.421 464.047,-361.682 464.143,-360.948 464.239,-360.213 464.366,-359.482 464.524,-358.758 464.682,-358.034 464.869,-357.316 465.087,-356.608 465.305,-355.899 465.552,-355.2 465.828,-354.513 466.105,-353.825 466.41,-353.149 466.743,-352.487 467.076,-351.825 467.436,-351.177 467.823,-350.545 468.211,-349.913 468.624,-349.297 469.063,-348.7 469.502,-348.103 469.966,-347.524 470.453,-346.966 470.94,-346.407 471.451,-345.87 471.984,-345.354 472.516,-344.838 473.07,-344.345 473.644,-343.876 474.217,-343.407 474.811,-342.962 475.422,-342.543 476.033,-342.123 476.661,-341.73 477.305,-341.363 477.949,-340.996 478.608,-340.656 479.281,-340.345 479.954,-340.033 480.639,-339.75 481.335,-339.496 482.031,-339.242 482.738,-339.017 483.453,-338.823 484.168,-338.628 484.891,-338.463 485.62,-338.329 486.349,-338.195 487.083,-338.091 487.821,-338.018 488.559,-337.946 489.299,-337.904 490.04,-337.894 490.781,-337.883 491.522,-337.904 492.262,-337.955 493.001,-338.007 493.738,-338.089 494.47,-338.202 495.203,-338.316 495.93,-338.46 496.651,-338.634 497.371,-338.808 498.084,-339.013 498.787,-339.247 499.49,-339.481 500.183,-339.745 500.865,-340.037 501.546,-340.329 502.214,-340.649 502.869,-340.998 503.523,-341.346 504.162,-341.721 504.785,-342.123 505.408,-342.525 506.014,-342.953 506.601,-343.405 506.601,-343.405 490.418,-364.391 490.418,-364.391"/>
<path fill="#1874cd" stroke="black" stroke-width="0.5" d="M490.418,-364.391C490.418,-364.391 506.601,-343.405 506.601,-343.405 507.4,-344.022 508.163,-344.683 508.887,-345.387 509.611,-346.09 510.294,-346.835 510.933,-347.616 511.572,-348.397 512.166,-349.215 512.712,-350.064 513.257,-350.913 513.754,-351.793 514.199,-352.699 514.645,-353.604 515.038,-354.535 515.377,-355.486 515.716,-356.436 516.001,-357.406 516.23,-358.389 516.458,-359.372 516.631,-360.367 516.746,-361.37 516.861,-362.373 516.918,-363.381 516.918,-364.391 516.918,-364.391 490.418,-364.391 490.418,-364.391"/>
<ellipse fill="none" stroke="black" cx="490.418" cy="-364.391" rx="26.5" ry="26.5"/>
</g>
<!-- 37 -->
<g id="node38" class="node"><title>37</title>
<ellipse fill="olivedrab" stroke="black" cx="419.5" cy="-381.227" rx="3.5" ry="3.5"/>
</g>
<!-- 2&#45;&#45;37 -->
<g id="edge17" class="edge"><title>2&#45;&#45;37</title>
<path fill="none" stroke="black" d="M464.414,-370.564C448.917,-374.243 430.822,-378.539 423.191,-380.351"/>
</g>
<!-- 39 -->
<g id="node40" class="node"><title>39</title>
<ellipse fill="olivedrab" stroke="black" cx="509.352" cy="-294.402" rx="3.5" ry="3.5"/>
</g>
<!-- 2&#45;&#45;39 -->
<g id="edge18" class="edge"><title>2&#45;&#45;39</title>
<path fill="none" stroke="black" d="M497.361,-338.727C501.498,-323.434 506.33,-305.576 508.367,-298.045"/>
</g>
<!-- 49 -->
<g id="node50" class="node"><title>49</title>
<ellipse fill="olivedrab" stroke="black" cx="419.51" cy="-329.019" rx="3.5" ry="3.5"/>
</g>
<!-- 2&#45;&#45;49 -->
<g id="edge19" class="edge"><title>2&#45;&#45;49</title>
<path fill="none" stroke="black" d="M466.412,-352.415C450.341,-344.398 430.754,-334.628 422.954,-330.737"/>
</g>
<!-- 61 -->
<g id="node62" class="node"><title>61</title>
<ellipse fill="olivedrab" stroke="black" cx="457.925" cy="-291.5" rx="3.5" ry="3.5"/>
</g>
<!-- 2&#45;&#45;61 -->
<g id="edge20" class="edge"><title>2&#45;&#45;61</title>
<path fill="none" stroke="black" d="M479.599,-340.119C472.214,-323.554 463.139,-303.197 459.523,-295.084"/>
</g>
<!-- anon_2_24_0 -->
<g id="node63" class="node"><title>anon_2_24_0</title>
<ellipse fill="white" stroke="black" cx="482.336" cy="-442.246" rx="2.5" ry="2.5"/>
</g>
<!-- 2&#45;&#45;anon_2_24_0 -->
<g id="edge13" class="edge"><title>2&#45;&#45;anon_2_24_0</title>
<path fill="none" stroke="black" d="M487.637,-391.184C485.737,-409.482 483.425,-431.754 482.625,-439.463"/>
</g>
<!-- 3 -->
<g id="node4" class="node"><title>3</title>
<ellipse fill="#1874cd" stroke="black" cx="120.964" cy="-555.406" rx="18.5" ry="18.5"/>
</g>
<!-- 14 -->
<g id="node15" class="node"><title>14</title>
<ellipse fill="#1874cd" stroke="black" cx="108.633" cy="-615.574" rx="6" ry="6"/>
</g>
<!-- 3&#45;&#45;14 -->
<g id="edge29" class="edge"><title>3&#45;&#45;14</title>
<path fill="none" stroke="black" d="M117.197,-573.785C114.704,-585.95 111.591,-601.14 109.889,-609.446"/>
</g>
<!-- anon_3_5_0 -->
<g id="node66" class="node"><title>anon_3_5_0</title>
<ellipse fill="white" stroke="black" cx="135.683" cy="-499.509" rx="2.5" ry="2.5"/>
</g>
<!-- 3&#45;&#45;anon_3_5_0 -->
<g id="edge21" class="edge"><title>3&#45;&#45;anon_3_5_0</title>
<path fill="none" stroke="black" d="M125.702,-537.412C129.131,-524.391 133.433,-508.054 135.039,-501.954"/>
</g>
<!-- 4 -->
<g id="node5" class="node"><title>4</title>
<ellipse fill="palegreen" stroke="black" cx="353.631" cy="-520.512" rx="13" ry="13"/>
</g>
<!-- 4&#45;&#45;0 -->
<g id="edge30" class="edge"><title>4&#45;&#45;0</title>
<path fill="none" stroke="black" d="M347.342,-532.264C339.526,-546.872 325.819,-572.488 314.374,-593.876"/>
</g>
<!-- anon_4_33_0 -->
<g id="node73" class="node"><title>anon_4_33_0</title>
<ellipse fill="white" stroke="black" cx="341.236" cy="-463.517" rx="2.5" ry="2.5"/>
</g>
<!-- 4&#45;&#45;anon_4_33_0 -->
<g id="edge31" class="edge"><title>4&#45;&#45;anon_4_33_0</title>
<path fill="none" stroke="black" d="M350.818,-507.579C347.847,-493.916 343.378,-473.368 341.807,-466.142"/>
</g>
<!-- 5 -->
<g id="node6" class="node"><title>5</title>
<ellipse fill="#1874cd" stroke="black" cx="201.552" cy="-187.809" rx="12" ry="12"/>
</g>
<!-- 12 -->
<g id="node13" class="node"><title>12</title>
<ellipse fill="#1874cd" stroke="black" cx="243.548" cy="-223.274" rx="7" ry="7"/>
</g>
<!-- 5&#45;&#45;12 -->
<g id="edge33" class="edge"><title>5&#45;&#45;12</title>
<path fill="none" stroke="black" d="M210.872,-195.68C219.185,-202.7 231.078,-212.743 237.988,-218.578"/>
</g>
<!-- 28 -->
<g id="node29" class="node"><title>28</title>
<ellipse fill="#1874cd" stroke="black" cx="152.701" cy="-198.225" rx="3.5" ry="3.5"/>
</g>
<!-- 5&#45;&#45;28 -->
<g id="edge34" class="edge"><title>5&#45;&#45;28</title>
<path fill="none" stroke="black" d="M189.727,-190.33C178.883,-192.642 163.478,-195.927 156.453,-197.425"/>
</g>
<!-- 44 -->
<g id="node45" class="node"><title>44</title>
<ellipse fill="#1874cd" stroke="black" cx="234.468" cy="-156.944" rx="3.5" ry="3.5"/>
</g>
<!-- 5&#45;&#45;44 -->
<g id="edge35" class="edge"><title>5&#45;&#45;44</title>
<path fill="none" stroke="black" d="M210.546,-179.375C217.703,-172.664 227.249,-163.713 231.816,-159.431"/>
</g>
<!-- 6 -->
<g id="node7" class="node"><title>6</title>
<ellipse fill="#787878" stroke="black" cx="324.38" cy="-747.953" rx="11.5" ry="11.5"/>
</g>
<!-- 6&#45;&#45;0 -->
<g id="edge36" class="edge"><title>6&#45;&#45;0</title>
<path fill="none" stroke="black" d="M321.551,-736.674C317.742,-721.494 310.767,-693.694 304.904,-670.325"/>
</g>
<!-- 7 -->
<g id="node8" class="node"><title>7</title>
<ellipse fill="olivedrab" stroke="black" cx="766.575" cy="-324.808" rx="11" ry="11"/>
</g>
<!-- 8 -->
<g id="node9" class="node"><title>8</title>
<ellipse fill="#1874cd" stroke="black" cx="103.11" cy="-99.9733" rx="10" ry="10"/>
</g>
<!-- anon_8_36_0 -->
<g id="node74" class="node"><title>anon_8_36_0</title>
<ellipse fill="white" stroke="black" cx="48.3191" cy="-108.782" rx="2.5" ry="2.5"/>
</g>
<!-- 8&#45;&#45;anon_8_36_0 -->
<g id="edge37" class="edge"><title>8&#45;&#45;anon_8_36_0</title>
<path fill="none" stroke="black" d="M93.0608,-101.589C80.2088,-103.655 58.7048,-107.113 51.0926,-108.336"/>
</g>
<!-- 9 -->
<g id="node10" class="node"><title>9</title>
<ellipse fill="palegreen" stroke="black" cx="690.349" cy="-690.012" rx="9" ry="9"/>
</g>
<!-- 9&#45;&#45;1 -->
<g id="edge39" class="edge"><title>9&#45;&#45;1</title>
<path fill="none" stroke="black" d="M685.502,-697.747C677.543,-710.446 661.328,-736.319 648.663,-756.528"/>
</g>
<!-- 17 -->
<g id="node18" class="node"><title>17</title>
<ellipse fill="palegreen" stroke="black" cx="721" cy="-645" rx="5" ry="5"/>
</g>
<!-- 9&#45;&#45;17 -->
<g id="edge40" class="edge"><title>9&#45;&#45;17</title>
<path fill="none" stroke="black" d="M695.688,-682.171C702.137,-672.701 712.765,-657.093 717.956,-649.47"/>
</g>
<!-- 10 -->
<g id="node11" class="node"><title>10</title>
<ellipse fill="olivedrab" stroke="black" cx="663.46" cy="-336.243" rx="9" ry="9"/>
</g>
<!-- 21 -->
<g id="node22" class="node"><title>21</title>
<ellipse fill="olivedrab" stroke="black" cx="713.994" cy="-328.035" rx="5" ry="5"/>
</g>
<!-- 10&#45;&#45;21 -->
<g id="edge41" class="edge"><title>10&#45;&#45;21</title>
<path fill="none" stroke="black" d="M672.729,-334.737C683.328,-333.016 700.309,-330.258 708.803,-328.878"/>
</g>
<!-- 11 -->
<g id="node12" class="node"><title>11</title>
<ellipse fill="#1874cd" stroke="black" cx="101.207" cy="-666.616" rx="9" ry="9"/>
</g>
<!-- 11&#45;&#45;14 -->
<g id="edge42" class="edge"><title>11&#45;&#45;14</title>
<path fill="none" stroke="black" d="M102.569,-657.254C104.076,-646.893 106.462,-630.496 107.746,-621.674"/>
</g>
<!-- 13 -->
<g id="node14" class="node"><title>13</title>
<ellipse fill="#1874cd" stroke="black" cx="230" cy="-390" rx="6" ry="6"/>
</g>
<!-- 15 -->
<g id="node16" class="node"><title>15</title>
<ellipse fill="#1874cd" stroke="black" cx="162.251" cy="-125.502" rx="6" ry="6"/>
</g>
<!-- 15&#45;&#45;5 -->
<g id="edge43" class="edge"><title>15&#45;&#45;5</title>
<path fill="none" stroke="black" d="M165.602,-130.814C172.136,-141.173 186.678,-164.227 195.128,-177.625"/>
</g>
<!-- 15&#45;&#45;8 -->
<g id="edge44" class="edge"><title>15&#45;&#45;8</title>
<path fill="none" stroke="black" d="M156.364,-122.961C146.08,-118.521 124.766,-109.321 112.449,-104.004"/>
</g>
<!-- 19 -->
<g id="node20" class="node"><title>19</title>
<ellipse fill="#1874cd" stroke="black" cx="184.809" cy="-69.4984" rx="5" ry="5"/>
</g>
<!-- 15&#45;&#45;19 -->
<g id="edge45" class="edge"><title>15&#45;&#45;19</title>
<path fill="none" stroke="black" d="M164.496,-119.927C168.909,-108.971 178.647,-84.7959 182.833,-74.4039"/>
</g>
<!-- 25 -->
<g id="node26" class="node"><title>25</title>
<ellipse fill="#1874cd" stroke="black" cx="196.53" cy="-101.487" rx="3.5" ry="3.5"/>
</g>
<!-- 15&#45;&#45;25 -->
<g id="edge46" class="edge"><title>15&#45;&#45;25</title>
<path fill="none" stroke="black" d="M167.309,-121.958C174.46,-116.948 187.322,-107.938 193.305,-103.746"/>
</g>
<!-- 16 -->
<g id="node17" class="node"><title>16</title>
<ellipse fill="#1874cd" stroke="black" cx="214.241" cy="-26.0899" rx="5" ry="5"/>
</g>
<!-- 19&#45;&#45;16 -->
<g id="edge47" class="edge"><title>19&#45;&#45;16</title>
<path fill="none" stroke="black" d="M187.738,-65.1775C193.322,-56.9428 205.437,-39.0734 211.147,-30.6533"/>
</g>
<!-- 20 -->
<g id="node21" class="node"><title>20</title>
<ellipse fill="palegreen" stroke="black" cx="711.52" cy="-836.926" rx="5" ry="5"/>
</g>
<!-- 20&#45;&#45;1 -->
<g id="edge48" class="edge"><title>20&#45;&#45;1</title>
<path fill="none" stroke="black" d="M707.197,-834.109C698.194,-828.243 676.787,-814.296 658.966,-802.685"/>
</g>
<!-- 21&#45;&#45;7 -->
<g id="edge49" class="edge"><title>21&#45;&#45;7</title>
<path fill="none" stroke="black" d="M719.228,-327.714C727.644,-327.198 744.369,-326.171 755.517,-325.487"/>
</g>
<!-- 23 -->
<g id="node24" class="node"><title>23</title>
<ellipse fill="olivedrab" stroke="black" cx="570.111" cy="-361.02" rx="3.5" ry="3.5"/>
</g>
<!-- 23&#45;&#45;2 -->
<g id="edge50" class="edge"><title>23&#45;&#45;2</title>
<path fill="none" stroke="black" d="M566.268,-361.183C557.5,-361.553 535.381,-362.489 517.277,-363.255"/>
</g>
<!-- 24 -->
<g id="node25" class="node"><title>24</title>
<ellipse fill="olivedrab" stroke="black" cx="442.127" cy="-565.023" rx="3.5" ry="3.5"/>
</g>
<!-- 26 -->
<g id="node27" class="node"><title>26</title>
<ellipse fill="#787878" stroke="black" cx="352.609" cy="-670.364" rx="3.5" ry="3.5"/>
</g>
<!-- 26&#45;&#45;0 -->
<g id="edge51" class="edge"><title>26&#45;&#45;0</title>
<path fill="none" stroke="black" d="M349.505,-668.212C345.288,-665.288 337.284,-659.738 328.676,-653.769"/>
</g>
<!-- 27 -->
<g id="node28" class="node"><title>27</title>
<ellipse fill="palegreen" stroke="black" cx="212.605" cy="-683.761" rx="3.5" ry="3.5"/>
</g>
<!-- 27&#45;&#45;0 -->
<g id="edge52" class="edge"><title>27&#45;&#45;0</title>
<path fill="none" stroke="black" d="M215.729,-681.731C223.125,-676.928 242.412,-664.4 260.093,-652.916"/>
</g>
<!-- 29 -->
<g id="node30" class="node"><title>29</title>
<ellipse fill="#1874cd" stroke="black" cx="79.452" cy="-838.456" rx="3.5" ry="3.5"/>
</g>
<!-- 31 -->
<g id="node32" class="node"><title>31</title>
<ellipse fill="#787878" stroke="black" cx="202.609" cy="-592.176" rx="3.5" ry="3.5"/>
</g>
<!-- 31&#45;&#45;0 -->
<g id="edge53" class="edge"><title>31&#45;&#45;0</title>
<path fill="none" stroke="black" d="M206.113,-593.625C214.54,-597.109 236.728,-606.285 256.811,-614.59"/>
</g>
<!-- 32 -->
<g id="node33" class="node"><title>32</title>
<ellipse fill="palegreen" stroke="black" cx="411.876" cy="-508.229" rx="3.5" ry="3.5"/>
</g>
<!-- 32&#45;&#45;4 -->
<g id="edge54" class="edge"><title>32&#45;&#45;4</title>
<path fill="none" stroke="black" d="M408.407,-508.96C400.374,-510.654 380.153,-514.919 366.657,-517.765"/>
</g>
<!-- 33 -->
<g id="node34" class="node"><title>33</title>
<ellipse fill="palegreen" stroke="black" cx="337.34" cy="-419.5" rx="3.5" ry="3.5"/>
</g>
<!-- 34 -->
<g id="node35" class="node"><title>34</title>
<ellipse fill="palegreen" stroke="black" cx="290.842" cy="-564.638" rx="3.5" ry="3.5"/>
</g>
<!-- 34&#45;&#45;0 -->
<g id="edge55" class="edge"><title>34&#45;&#45;0</title>
<path fill="none" stroke="black" d="M291.059,-568.17C291.327,-572.54 291.814,-580.488 292.352,-589.274"/>
</g>
<!-- 35 -->
<g id="node36" class="node"><title>35</title>
<ellipse fill="palegreen" stroke="black" cx="419.5" cy="-687.333" rx="3.5" ry="3.5"/>
</g>
<!-- anon_35_1_0 -->
<g id="node75" class="node"><title>anon_35_1_0</title>
<ellipse fill="white" stroke="black" cx="457.501" cy="-708.204" rx="2.5" ry="2.5"/>
</g>
<!-- 35&#45;&#45;anon_35_1_0 -->
<g id="edge56" class="edge"><title>35&#45;&#45;anon_35_1_0</title>
<path fill="none" stroke="black" d="M423.007,-689.259C430.65,-693.457 448.645,-703.34 455.124,-706.898"/>
</g>
<!-- 36 -->
<g id="node37" class="node"><title>36</title>
<ellipse fill="#1874cd" stroke="black" cx="3.5" cy="-100.608" rx="3.5" ry="3.5"/>
</g>
<!-- 38 -->
<g id="node39" class="node"><title>38</title>
<ellipse fill="#1874cd" stroke="black" cx="101.047" cy="-756.843" rx="3.5" ry="3.5"/>
</g>
<!-- anon_38_11_0 -->
<g id="node78" class="node"><title>anon_38_11_0</title>
<ellipse fill="white" stroke="black" cx="100.878" cy="-714.392" rx="2.5" ry="2.5"/>
</g>
<!-- 38&#45;&#45;anon_38_11_0 -->
<g id="edge60" class="edge"><title>38&#45;&#45;anon_38_11_0</title>
<path fill="none" stroke="black" d="M101.032,-753.224C100.999,-744.883 100.918,-724.461 100.889,-717.096"/>
</g>
<!-- anon_38_29_0 -->
<g id="node79" class="node"><title>anon_38_29_0</title>
<ellipse fill="white" stroke="black" cx="94.6538" cy="-798.801" rx="2.5" ry="2.5"/>
</g>
<!-- 38&#45;&#45;anon_38_29_0 -->
<g id="edge62" class="edge"><title>38&#45;&#45;anon_38_29_0</title>
<path fill="none" stroke="black" d="M100.502,-760.42C99.2456,-768.664 96.1701,-788.849 95.061,-796.129"/>
</g>
<!-- 40 -->
<g id="node41" class="node"><title>40</title>
<ellipse fill="#1874cd" stroke="black" cx="69.9808" cy="-3.5" rx="3.5" ry="3.5"/>
</g>
<!-- anon_40_8_0 -->
<g id="node80" class="node"><title>anon_40_8_0</title>
<ellipse fill="white" stroke="black" cx="88.2012" cy="-45.0865" rx="2.5" ry="2.5"/>
</g>
<!-- 40&#45;&#45;anon_40_8_0 -->
<g id="edge64" class="edge"><title>40&#45;&#45;anon_40_8_0</title>
<path fill="none" stroke="black" d="M71.4106,-6.76322C74.9005,-14.7287 83.8037,-35.0496 87.0198,-42.3899"/>
</g>
<!-- 41 -->
<g id="node42" class="node"><title>41</title>
<ellipse fill="olivedrab" stroke="black" cx="227.5" cy="-451.5" rx="3.5" ry="3.5"/>
</g>
<!-- 42 -->
<g id="node43" class="node"><title>42</title>
<ellipse fill="#787878" stroke="black" cx="233.869" cy="-555.701" rx="3.5" ry="3.5"/>
</g>
<!-- 42&#45;&#45;0 -->
<g id="edge66" class="edge"><title>42&#45;&#45;0</title>
<path fill="none" stroke="black" d="M236.186,-558.536C241.626,-565.192 255.745,-582.464 268.77,-598.399"/>
</g>
<!-- 46 -->
<g id="node47" class="node"><title>46</title>
<ellipse fill="#1874cd" stroke="black" cx="259.5" cy="-323.5" rx="3.5" ry="3.5"/>
</g>
<!-- 51 -->
<g id="node52" class="node"><title>51</title>
<ellipse fill="#1874cd" stroke="black" cx="359.33" cy="-166.047" rx="3.5" ry="3.5"/>
</g>
<!-- anon_51_5_0 -->
<g id="node81" class="node"><title>anon_51_5_0</title>
<ellipse fill="white" stroke="black" cx="315.38" cy="-174.886" rx="2.5" ry="2.5"/>
</g>
<!-- 51&#45;&#45;anon_51_5_0 -->
<g id="edge67" class="edge"><title>51&#45;&#45;anon_51_5_0</title>
<path fill="none" stroke="black" d="M355.881,-166.741C347.463,-168.434 325.987,-172.753 318.23,-174.313"/>
</g>
<!-- 52 -->
<g id="node53" class="node"><title>52</title>
<ellipse fill="palegreen" stroke="black" cx="539.823" cy="-895.27" rx="3.5" ry="3.5"/>
</g>
<!-- anon_52_1_0 -->
<g id="node83" class="node"><title>anon_52_1_0</title>
<ellipse fill="white" stroke="black" cx="565.808" cy="-856.082" rx="2.5" ry="2.5"/>
</g>
<!-- 52&#45;&#45;anon_52_1_0 -->
<g id="edge70" class="edge"><title>52&#45;&#45;anon_52_1_0</title>
<path fill="none" stroke="black" d="M541.862,-892.195C546.935,-884.545 560.028,-864.799 564.378,-858.237"/>
</g>
<!-- 54 -->
<g id="node55" class="node"><title>54</title>
<ellipse fill="#787878" stroke="black" cx="442.229" cy="-643.873" rx="3.5" ry="3.5"/>
</g>
<!-- anon_54_0_0 -->
<g id="node84" class="node"><title>anon_54_0_0</title>
<ellipse fill="white" stroke="black" cx="397.07" cy="-634.412" rx="2.5" ry="2.5"/>
</g>
<!-- 54&#45;&#45;anon_54_0_0 -->
<g id="edge72" class="edge"><title>54&#45;&#45;anon_54_0_0</title>
<path fill="none" stroke="black" d="M438.685,-643.131C429.869,-641.284 407.115,-636.517 399.554,-634.933"/>
</g>
<!-- 56 -->
<g id="node57" class="node"><title>56</title>
<ellipse fill="#787878" stroke="black" cx="370.957" cy="-781.198" rx="3.5" ry="3.5"/>
</g>
<!-- 56&#45;&#45;6 -->
<g id="edge74" class="edge"><title>56&#45;&#45;6</title>
<path fill="none" stroke="black" d="M367.901,-779.016C361.101,-774.163 344.483,-762.301 333.862,-754.72"/>
</g>
<!-- 58 -->
<g id="node59" class="node"><title>58</title>
<ellipse fill="olivedrab" stroke="black" cx="615.244" cy="-351.57" rx="3.5" ry="3.5"/>
</g>
<!-- 58&#45;&#45;10 -->
<g id="edge75" class="edge"><title>58&#45;&#45;10</title>
<path fill="none" stroke="black" d="M618.711,-350.467C626.139,-348.106 643.786,-342.496 654.567,-339.069"/>
</g>
<!-- 58&#45;&#45;23 -->
<g id="edge76" class="edge"><title>58&#45;&#45;23</title>
<path fill="none" stroke="black" d="M611.702,-352.311C603.307,-354.069 582.265,-358.475 573.762,-360.256"/>
</g>
<!-- 59 -->
<g id="node60" class="node"><title>59</title>
<ellipse fill="#787878" stroke="black" cx="296.236" cy="-797.978" rx="3.5" ry="3.5"/>
</g>
<!-- 59&#45;&#45;6 -->
<g id="edge77" class="edge"><title>59&#45;&#45;6</title>
<path fill="none" stroke="black" d="M298.082,-794.696C302.191,-787.392 312.233,-769.544 318.651,-758.136"/>
</g>
<!-- anon_2_24_1 -->
<g id="node64" class="node"><title>anon_2_24_1</title>
<ellipse fill="white" stroke="black" cx="470.908" cy="-484.463" rx="2.5" ry="2.5"/>
</g>
<!-- anon_2_24_0&#45;&#45;anon_2_24_1 -->
<g id="edge14" class="edge"><title>anon_2_24_0&#45;&#45;anon_2_24_1</title>
<path fill="none" stroke="black" d="M481.656,-444.76C479.618,-452.287 473.585,-474.575 471.571,-482.015"/>
</g>
<!-- anon_2_24_2 -->
<g id="node65" class="node"><title>anon_2_24_2</title>
<ellipse fill="white" stroke="black" cx="459.084" cy="-525.411" rx="2.5" ry="2.5"/>
</g>
<!-- anon_2_24_1&#45;&#45;anon_2_24_2 -->
<g id="edge15" class="edge"><title>anon_2_24_1&#45;&#45;anon_2_24_2</title>
<path fill="none" stroke="black" d="M470.133,-487.15C467.995,-494.552 462.037,-515.184 459.878,-522.661"/>
</g>
<!-- anon_2_24_2&#45;&#45;24 -->
<g id="edge16" class="edge"><title>anon_2_24_2&#45;&#45;24</title>
<path fill="none" stroke="black" d="M457.971,-528.01C455.024,-534.895 447.011,-553.613 443.647,-561.473"/>
</g>
<!-- anon_3_5_1 -->
<g id="node67" class="node"><title>anon_3_5_1</title>
<ellipse fill="white" stroke="black" cx="146.333" cy="-459.233" rx="2.5" ry="2.5"/>
</g>
<!-- anon_3_5_0&#45;&#45;anon_3_5_1 -->
<g id="edge22" class="edge"><title>anon_3_5_0&#45;&#45;anon_3_5_1</title>
<path fill="none" stroke="black" d="M136.381,-496.867C138.307,-489.587 143.673,-469.293 145.618,-461.939"/>
</g>
<!-- anon_3_5_2 -->
<g id="node68" class="node"><title>anon_3_5_2</title>
<ellipse fill="white" stroke="black" cx="156.089" cy="-418.546" rx="2.5" ry="2.5"/>
</g>
<!-- anon_3_5_1&#45;&#45;anon_3_5_2 -->
<g id="edge23" class="edge"><title>anon_3_5_1&#45;&#45;anon_3_5_2</title>
<path fill="none" stroke="black" d="M146.973,-456.564C148.737,-449.209 153.652,-428.708 155.433,-421.279"/>
</g>
<!-- anon_3_5_3 -->
<g id="node69" class="node"><title>anon_3_5_3</title>
<ellipse fill="white" stroke="black" cx="163.321" cy="-377.063" rx="2.5" ry="2.5"/>
</g>
<!-- anon_3_5_2&#45;&#45;anon_3_5_3 -->
<g id="edge24" class="edge"><title>anon_3_5_2&#45;&#45;anon_3_5_3</title>
<path fill="none" stroke="black" d="M156.563,-415.824C157.87,-408.326 161.515,-387.424 162.835,-379.849"/>
</g>
<!-- anon_3_5_4 -->
<g id="node70" class="node"><title>anon_3_5_4</title>
<ellipse fill="white" stroke="black" cx="168.831" cy="-334.888" rx="2.5" ry="2.5"/>
</g>
<!-- anon_3_5_3&#45;&#45;anon_3_5_4 -->
<g id="edge25" class="edge"><title>anon_3_5_3&#45;&#45;anon_3_5_4</title>
<path fill="none" stroke="black" d="M163.683,-374.296C164.679,-366.672 167.455,-345.422 168.461,-337.72"/>
</g>
<!-- anon_3_5_5 -->
<g id="node71" class="node"><title>anon_3_5_5</title>
<ellipse fill="white" stroke="black" cx="174.971" cy="-292.02" rx="2.5" ry="2.5"/>
</g>
<!-- anon_3_5_4&#45;&#45;anon_3_5_5 -->
<g id="edge26" class="edge"><title>anon_3_5_4&#45;&#45;anon_3_5_5</title>
<path fill="none" stroke="black" d="M169.197,-332.335C170.291,-324.692 173.533,-302.06 174.615,-294.506"/>
</g>
<!-- anon_3_5_6 -->
<g id="node72" class="node"><title>anon_3_5_6</title>
<ellipse fill="white" stroke="black" cx="184.37" cy="-248.033" rx="2.5" ry="2.5"/>
</g>
<!-- anon_3_5_5&#45;&#45;anon_3_5_6 -->
<g id="edge27" class="edge"><title>anon_3_5_5&#45;&#45;anon_3_5_6</title>
<path fill="none" stroke="black" d="M175.531,-289.4C177.207,-281.558 182.169,-258.335 183.825,-250.584"/>
</g>
<!-- anon_3_5_6&#45;&#45;5 -->
<g id="edge28" class="edge"><title>anon_3_5_6&#45;&#45;5</title>
<path fill="none" stroke="black" d="M185.108,-245.445C187.343,-237.61 194.137,-213.799 198.259,-199.349"/>
</g>
<!-- anon_4_33_0&#45;&#45;33 -->
<g id="edge32" class="edge"><title>anon_4_33_0&#45;&#45;33</title>
<path fill="none" stroke="black" d="M341.004,-460.895C340.335,-453.344 338.406,-431.541 337.649,-422.995"/>
</g>
<!-- anon_8_36_0&#45;&#45;36 -->
<g id="edge38" class="edge"><title>anon_8_36_0&#45;&#45;36</title>
<path fill="none" stroke="black" d="M45.6497,-108.295C37.9609,-106.893 15.7606,-102.844 7.05904,-101.257"/>
</g>
<!-- anon_35_1_1 -->
<g id="node76" class="node"><title>anon_35_1_1</title>
<ellipse fill="white" stroke="black" cx="495.894" cy="-728.103" rx="2.5" ry="2.5"/>
</g>
<!-- anon_35_1_0&#45;&#45;anon_35_1_1 -->
<g id="edge57" class="edge"><title>anon_35_1_0&#45;&#45;anon_35_1_1</title>
<path fill="none" stroke="black" d="M460.02,-709.51C466.96,-713.106 486.305,-723.133 493.316,-726.766"/>
</g>
<!-- anon_35_1_2 -->
<g id="node77" class="node"><title>anon_35_1_2</title>
<ellipse fill="white" stroke="black" cx="536.318" cy="-748.257" rx="2.5" ry="2.5"/>
</g>
<!-- anon_35_1_1&#45;&#45;anon_35_1_2 -->
<g id="edge58" class="edge"><title>anon_35_1_1&#45;&#45;anon_35_1_2</title>
<path fill="none" stroke="black" d="M498.547,-729.425C505.994,-733.138 527.01,-743.616 534.014,-747.108"/>
</g>
<!-- anon_35_1_2&#45;&#45;1 -->
<g id="edge59" class="edge"><title>anon_35_1_2&#45;&#45;1</title>
<path fill="none" stroke="black" d="M538.661,-749.154C547.1,-752.384 576.68,-763.705 600.137,-772.682"/>
</g>
<!-- anon_38_11_0&#45;&#45;11 -->
<g id="edge61" class="edge"><title>anon_38_11_0&#45;&#45;11</title>
<path fill="none" stroke="black" d="M100.896,-711.824C100.942,-705.156 101.066,-687.04 101.143,-675.87"/>
</g>
<!-- anon_38_29_0&#45;&#45;29 -->
<g id="edge63" class="edge"><title>anon_38_29_0&#45;&#45;29</title>
<path fill="none" stroke="black" d="M93.6563,-801.403C91.0142,-808.295 83.8308,-827.034 80.8145,-834.902"/>
</g>
<!-- anon_40_8_0&#45;&#45;8 -->
<g id="edge65" class="edge"><title>anon_40_8_0&#45;&#45;8</title>
<path fill="none" stroke="black" d="M88.9203,-47.7338C90.9678,-55.2715 96.907,-77.1362 100.419,-90.0655"/>
</g>
<!-- anon_51_5_1 -->
<g id="node82" class="node"><title>anon_51_5_1</title>
<ellipse fill="white" stroke="black" cx="269.716" cy="-181.676" rx="2.5" ry="2.5"/>
</g>
<!-- anon_51_5_0&#45;&#45;anon_51_5_1 -->
<g id="edge68" class="edge"><title>anon_51_5_0&#45;&#45;anon_51_5_1</title>
<path fill="none" stroke="black" d="M312.661,-175.291C304.519,-176.501 280.411,-180.086 272.364,-181.283"/>
</g>
<!-- anon_51_5_1&#45;&#45;5 -->
<g id="edge69" class="edge"><title>anon_51_5_1&#45;&#45;5</title>
<path fill="none" stroke="black" d="M267.127,-181.909C258.469,-182.688 230.148,-185.236 213.694,-186.717"/>
</g>
<!-- anon_52_1_0&#45;&#45;1 -->
<g id="edge71" class="edge"><title>anon_52_1_0&#45;&#45;1</title>
<path fill="none" stroke="black" d="M567.692,-854.018C573.714,-847.419 593.028,-826.26 608.774,-809.008"/>
</g>
<!-- anon_54_0_0&#45;&#45;0 -->
<g id="edge73" class="edge"><title>anon_54_0_0&#45;&#45;0</title>
<path fill="none" stroke="black" d="M394.544,-634.311C386.336,-633.984 359.583,-632.914 335.858,-631.966"/>
</g>
</g>
</svg>
