<?xml version="1.0" encoding="UTF-8" standalone="no"?>
<!DOCTYPE svg PUBLIC "-//W3C//DTD SVG 1.1//EN"
 "http://www.w3.org/Graphics/SVG/1.1/DTD/svg11.dtd">
<!-- Generated by graphviz version 2.36.0 (20140111.2315)
 -->
<!-- Title: %3 Pages: 1 -->
<svg width="162pt" height="202pt"
 viewBox="0.00 0.00 162.20 202.05" xmlns="http://www.w3.org/2000/svg" xmlns:xlink="http://www.w3.org/1999/xlink">
<g id="graph0" class="graph" transform="scale(1 1) rotate(0) translate(4 198.047)">
<title>%3</title>
<polygon fill="white" stroke="none" points="-4,4 -4,-198.047 158.203,-198.047 158.203,4 -4,4"/>
<!-- 0 -->
<g id="node1" class="node"><title>0</title>
<ellipse fill="palegreen" stroke="black" cx="75.7234" cy="-76.5855" rx="33" ry="33"/>
</g>
<!-- 1 -->
<g id="node2" class="node"><title>1</title>
<ellipse fill="palegreen" stroke="black" cx="145.203" cy="-113.447" rx="9" ry="9"/>
</g>
<!-- 0&#45;&#45;1 -->
<g id="edge1" class="edge"><title>0&#45;&#45;1</title>
<path fill="none" stroke="black" d="M105.189,-92.2181C116.877,-98.4187 129.38,-105.052 137.239,-109.222"/>
</g>
<!-- 2 -->
<g id="node3" class="node"><title>2</title>
<ellipse fill="palegreen" stroke="black" cx="122.76" cy="-189.047" rx="5" ry="5"/>
</g>
<!-- 3 -->
<g id="node4" class="node"><title>3</title>
<ellipse fill="palegreen" stroke="black" cx="23.6827" cy="-130.434" rx="5" ry="5"/>
</g>
<!-- 3&#45;&#45;0 -->
<g id="edge2" class="edge"><title>3&#45;&#45;0</title>
<path fill="none" stroke="black" d="M27.4253,-126.561C32.7856,-121.015 43.0765,-110.367 52.7864,-100.319"/>
</g>
<!-- 4 -->
<g id="node5" class="node"><title>4</title>
<ellipse fill="palegreen" stroke="black" cx="105.152" cy="-146.09" rx="5" ry="5"/>
</g>
<!-- 4&#45;&#45;0 -->
<g id="edge3" class="edge"><title>4&#45;&#45;0</title>
<path fill="none" stroke="black" d="M103.035,-141.092C100.004,-133.933 94.1847,-120.188 88.6939,-107.22"/>
</g>
<!-- 4&#45;&#45;2 -->
<g id="edge4" class="edge"><title>4&#45;&#45;2</title>
<path fill="none" stroke="black" d="M107.171,-151.018C110.568,-159.304 117.383,-175.93 120.763,-184.177"/>
</g>
<!-- 5 -->
<g id="node6" class="node"><title>5</title>
<ellipse fill="palegreen" stroke="black" cx="56.9317" cy="-147.394" rx="3.5" ry="3.5"/>
</g>
<!-- 5&#45;&#45;0 -->
<g id="edge5" class="edge"><title>5&#45;&#45;0</title>
<path fill="none" stroke="black" d="M57.838,-143.979C59.5683,-137.459 63.5034,-122.631 67.2432,-108.539"/>
</g>
<!-- 6 -->
<g id="node7" class="node"><title>6</title>
<ellipse fill="palegreen" stroke="black" cx="140.252" cy="-41.6855" rx="3.5" ry="3.5"/>
</g>
<!-- 6&#45;&#45;0 -->
<g id="edge6" class="edge"><title>6&#45;&#45;0</title>
<path fill="none" stroke="black" d="M137.14,-43.3688C131.199,-46.5822 117.686,-53.8906 104.844,-60.8361"/>
</g>
<!-- 7 -->
<g id="node8" class="node"><title>7</title>
<ellipse fill="palegreen" stroke="black" cx="5.91252" cy="-99.1361" rx="3.5" ry="3.5"/>
</g>
<!-- 7&#45;&#45;0 -->
<g id="edge7" class="edge"><title>7&#45;&#45;0</title>
<path fill="none" stroke="black" d="M9.27964,-98.0484C15.7074,-95.9721 30.3265,-91.2498 44.2198,-86.7619"/>
</g>
<!-- 8 -->
<g id="node9" class="node"><title>8</title>
<ellipse fill="palegreen" stroke="black" cx="116.168" cy="-15.36" rx="3.5" ry="3.5"/>
</g>
<!-- 8&#45;&#45;0 -->
<g id="edge8" class="edge"><title>8&#45;&#45;0</title>
<path fill="none" stroke="black" d="M114.217,-18.313C110.493,-23.9503 102.024,-36.7715 93.9749,-48.9562"/>
</g>
<!-- 9 -->
<g id="node10" class="node"><title>9</title>
<ellipse fill="palegreen" stroke="black" cx="3.5" cy="-63.612" rx="3.5" ry="3.5"/>
</g>
<!-- 9&#45;&#45;0 -->
<g id="edge9" class="edge"><title>9&#45;&#45;0</title>
<path fill="none" stroke="black" d="M6.98349,-64.2378C13.6334,-65.4323 28.7576,-68.149 43.1311,-70.7309"/>
</g>
<!-- 10 -->
<g id="node11" class="node"><title>10</title>
<ellipse fill="palegreen" stroke="black" cx="149.035" cy="-76.3657" rx="3.5" ry="3.5"/>
</g>
<!-- 10&#45;&#45;0 -->
<g id="edge10" class="edge"><title>10&#45;&#45;0</title>
<path fill="none" stroke="black" d="M145.499,-76.3763C138.749,-76.3965 123.397,-76.4425 108.807,-76.4863"/>
</g>
<!-- 11 -->
<g id="node12" class="node"><title>11</title>
<ellipse fill="palegreen" stroke="black" cx="82.3194" cy="-3.5" rx="3.5" ry="3.5"/>
</g>
<!-- 11&#45;&#45;0 -->
<g id="edge11" class="edge"><title>11&#45;&#45;0</title>
<path fill="none" stroke="black" d="M82.0012,-7.02507C81.3939,-13.7543 80.0127,-29.0591 78.7,-43.6041"/>
</g>
<!-- 12 -->
<g id="node13" class="node"><title>12</title>
<ellipse fill="palegreen" stroke="black" cx="18.2504" cy="-30.9565" rx="3.5" ry="3.5"/>
</g>
<!-- 12&#45;&#45;0 -->
<g id="edge12" class="edge"><title>12&#45;&#45;0</title>
<path fill="none" stroke="black" d="M21.0224,-33.1573C26.3142,-37.3585 38.3496,-46.9137 49.7875,-55.9945"/>
</g>
<!-- 13 -->
<g id="node14" class="node"><title>13</title>
<ellipse fill="palegreen" stroke="black" cx="46.8207" cy="-9.13282" rx="3.5" ry="3.5"/>
</g>
<!-- 13&#45;&#45;0 -->
<g id="edge13" class="edge"><title>13&#45;&#45;0</title>
<path fill="none" stroke="black" d="M48.2147,-12.3862C50.8759,-18.5968 56.9284,-32.722 62.6805,-46.146"/>
</g>
</g>
</svg>
