<?xml version="1.0" encoding="UTF-8" standalone="no"?>
<!DOCTYPE svg PUBLIC "-//W3C//DTD SVG 1.1//EN"
 "http://www.w3.org/Graphics/SVG/1.1/DTD/svg11.dtd">
<!-- Generated by graphviz version 2.36.0 (20140111.2315)
 -->
<!-- Title: %3 Pages: 1 -->
<svg width="535pt" height="484pt"
 viewBox="0.00 0.00 534.55 484.20" xmlns="http://www.w3.org/2000/svg" xmlns:xlink="http://www.w3.org/1999/xlink">
<g id="graph0" class="graph" transform="scale(1 1) rotate(0) translate(4 480.2)">
<title>%3</title>
<polygon fill="white" stroke="none" points="-4,4 -4,-480.2 530.552,-480.2 530.552,4 -4,4"/>
<!-- 0 -->
<g id="node1" class="node"><title>0</title>
<path fill="brown" stroke="black" stroke-width="0.5" d="M235.679,-252.965C235.679,-252.965 270.179,-252.965 270.179,-252.965 270.179,-253.972 270.135,-254.98 270.047,-255.984 269.959,-256.987 269.827,-257.987 269.651,-258.979 269.475,-259.972 269.256,-260.956 268.994,-261.929 268.733,-262.902 268.428,-263.863 268.082,-264.81 267.736,-265.756 267.349,-266.687 266.921,-267.6 266.494,-268.512 266.026,-269.406 265.521,-270.278 265.015,-271.149 264.471,-271.998 263.891,-272.823 263.311,-273.647 262.695,-274.445 262.045,-275.215 261.395,-275.985 260.712,-276.727 259.997,-277.437 259.282,-278.147 258.537,-278.826 257.762,-279.471 256.988,-280.116 256.186,-280.727 255.358,-281.302 254.53,-281.877 253.678,-282.415 252.803,-282.915 251.928,-283.415 251.032,-283.877 250.117,-284.299 249.201,-284.72 248.268,-285.102 247.319,-285.442 246.371,-285.782 245.407,-286.08 244.433,-286.336 243.458,-286.591 242.472,-286.804 241.479,-286.974 240.485,-287.143 239.485,-287.269 238.481,-287.351 237.476,-287.432 236.469,-287.47 235.461,-287.464 234.453,-287.457 233.446,-287.407 232.443,-287.312 231.439,-287.218 230.441,-287.079 229.45,-286.897 228.458,-286.715 227.476,-286.49 226.504,-286.222 225.533,-285.954 224.573,-285.644 223.629,-285.292 222.685,-284.94 221.756,-284.546 220.846,-284.113 219.937,-283.68 219.046,-283.207 218.178,-282.696 217.309,-282.184 216.464,-281.635 215.643,-281.05 214.823,-280.465 214.028,-279.844 213.262,-279.189 212.496,-278.534 211.759,-277.846 211.054,-277.127 210.348,-276.408 209.674,-275.658 209.034,-274.879 208.393,-274.101 207.788,-273.295 207.218,-272.464 206.649,-271.632 206.116,-270.776 205.621,-269.898 205.126,-269.02 204.67,-268.121 204.255,-267.203 203.839,-266.285 203.463,-265.349 203.129,-264.398 202.795,-263.448 202.503,-262.483 202.253,-261.506 202.004,-260.53 201.797,-259.543 201.634,-258.549 201.471,-257.554 201.352,-256.553 201.276,-255.548 201.201,-254.543 201.169,-253.535 201.182,-252.528 201.195,-251.52 201.252,-250.513 201.353,-249.51 201.454,-248.508 201.598,-247.51 201.787,-246.52 201.975,-245.53 202.206,-244.549 202.481,-243.579 202.755,-242.609 203.071,-241.652 203.429,-240.71 203.787,-239.768 204.186,-238.842 204.625,-237.935 205.064,-237.028 205.543,-236.14 206.06,-235.275 206.576,-234.41 207.131,-233.568 207.721,-232.751 208.312,-231.934 208.938,-231.144 209.597,-230.382 210.257,-229.62 210.95,-228.887 211.674,-228.186 212.397,-227.485 213.151,-226.816 213.934,-226.181 214.716,-225.545 215.526,-224.945 216.361,-224.38 217.196,-223.816 218.055,-223.289 218.936,-222.8 219.818,-222.311 220.72,-221.86 221.64,-221.45 222.561,-221.04 223.499,-220.671 224.452,-220.343 225.405,-220.015 226.372,-219.729 227.35,-219.485 228.328,-219.242 229.316,-219.042 230.311,-218.885 231.307,-218.728 232.309,-218.615 233.314,-218.546 234.319,-218.477 235.327,-218.452 236.335,-218.471 237.342,-218.49 238.349,-218.553 239.351,-218.66 240.353,-218.768 241.35,-218.919 242.339,-219.113 243.327,-219.308 244.307,-219.546 245.275,-219.826 246.243,-220.106 247.198,-220.429 248.138,-220.793 249.078,-221.157 250.001,-221.562 250.906,-222.006 251.81,-222.451 252.694,-222.935 253.556,-223.458 254.418,-223.98 255.257,-224.539 256.07,-225.135 256.883,-225.731 257.669,-226.362 258.427,-227.026 259.184,-227.691 259.913,-228.388 260.609,-229.116 261.306,-229.844 261.97,-230.603 262.601,-231.389 262.601,-231.389 235.679,-252.965 235.679,-252.965"/>
<path fill="#ff3030" stroke="black" stroke-width="0.5" d="M235.679,-252.965C235.679,-252.965 262.601,-231.389 262.601,-231.389 263.573,-232.602 264.462,-233.879 265.262,-235.212 266.062,-236.545 266.77,-237.931 267.383,-239.359 267.383,-239.359 235.679,-252.965 235.679,-252.965"/>
<path fill="deepskyblue" stroke="black" stroke-width="0.5" d="M235.679,-252.965C235.679,-252.965 267.383,-239.359 267.383,-239.359 267.843,-240.43 268.248,-241.524 268.597,-242.637 268.946,-243.749 269.239,-244.878 269.473,-246.02 269.708,-247.162 269.884,-248.315 270.002,-249.474 270.12,-250.634 270.179,-251.799 270.179,-252.965 270.179,-252.965 235.679,-252.965 235.679,-252.965"/>
<ellipse fill="none" stroke="black" cx="235.679" cy="-252.965" rx="34.5" ry="34.5"/>
</g>
<!-- 1 -->
<g id="node2" class="node"><title>1</title>
<path fill="#ff3030" stroke="black" stroke-width="0.5" d="M406.592,-232.825C406.592,-232.825 440.592,-232.825 440.592,-232.825 440.592,-234.358 440.488,-235.89 440.281,-237.41 440.074,-238.929 439.765,-240.433 439.355,-241.911 438.945,-243.389 438.436,-244.837 437.831,-246.246 437.225,-247.655 436.525,-249.021 435.735,-250.336 434.946,-251.651 434.068,-252.91 433.108,-254.106 432.148,-255.302 431.108,-256.432 429.996,-257.487 428.883,-258.543 427.701,-259.522 426.456,-260.418 425.212,-261.314 423.908,-262.125 422.554,-262.845 421.2,-263.565 419.799,-264.192 418.36,-264.723 416.921,-265.254 415.448,-265.687 413.951,-266.019 412.454,-266.351 410.936,-266.581 409.407,-266.708 407.879,-266.835 406.344,-266.858 404.812,-266.778 403.281,-266.698 401.757,-266.514 400.25,-266.228 398.743,-265.942 397.258,-265.554 395.803,-265.068 394.349,-264.581 392.929,-263.997 391.554,-263.318 390.179,-262.64 388.851,-261.87 387.579,-261.012 387.579,-261.012 406.592,-232.825 406.592,-232.825"/>
<path fill="#98f5ff" stroke="black" stroke-width="0.5" d="M406.592,-232.825C406.592,-232.825 387.579,-261.012 387.579,-261.012 386.759,-260.459 385.964,-259.87 385.195,-259.248 384.426,-258.625 383.685,-257.969 382.973,-257.282 382.262,-256.595 381.581,-255.877 380.932,-255.131 380.283,-254.384 379.667,-253.61 379.085,-252.809 379.085,-252.809 406.592,-232.825 406.592,-232.825"/>
<path fill="deepskyblue" stroke="black" stroke-width="0.5" d="M406.592,-232.825C406.592,-232.825 379.085,-252.809 379.085,-252.809 378.271,-251.689 377.526,-250.52 376.855,-249.308 376.183,-248.097 375.586,-246.846 375.068,-245.561 374.549,-244.277 374.109,-242.962 373.75,-241.625 373.392,-240.287 373.115,-238.928 372.923,-237.557 372.73,-236.185 372.621,-234.803 372.597,-233.418 372.573,-232.033 372.633,-230.648 372.778,-229.271 372.923,-227.893 373.152,-226.526 373.463,-225.176 373.775,-223.827 374.169,-222.498 374.642,-221.196 375.116,-219.894 375.669,-218.623 376.298,-217.389 376.926,-216.155 377.63,-214.96 378.405,-213.812 379.179,-212.664 380.023,-211.564 380.932,-210.519 381.84,-209.473 382.812,-208.485 383.841,-207.558 384.871,-206.631 385.956,-205.768 387.09,-204.974 388.225,-204.179 389.407,-203.455 390.63,-202.804 391.853,-202.154 393.114,-201.579 394.407,-201.083 395.7,-200.587 397.023,-200.17 398.366,-199.835 398.366,-199.835 406.592,-232.825 406.592,-232.825"/>
<path fill="#1874cd" stroke="black" stroke-width="0.5" d="M406.592,-232.825C406.592,-232.825 398.366,-199.835 398.366,-199.835 399.614,-199.524 400.879,-199.283 402.154,-199.116 403.429,-198.948 404.713,-198.852 405.998,-198.83 407.284,-198.807 408.57,-198.858 409.851,-198.981 411.131,-199.105 412.403,-199.3 413.661,-199.568 414.919,-199.835 416.161,-200.174 417.38,-200.582 418.6,-200.99 419.795,-201.467 420.961,-202.01 422.126,-202.554 423.26,-203.163 424.357,-203.835 425.453,-204.507 426.511,-205.241 427.524,-206.032 428.538,-206.824 429.505,-207.673 430.423,-208.574 431.34,-209.476 432.205,-210.428 433.015,-211.428 433.824,-212.427 434.576,-213.472 435.267,-214.557 435.958,-215.641 436.587,-216.764 437.151,-217.92 437.715,-219.076 438.212,-220.263 438.642,-221.475 439.071,-222.688 439.431,-223.923 439.72,-225.176 440.01,-226.429 440.228,-227.698 440.373,-228.976 440.519,-230.254 440.592,-231.539 440.592,-232.825 440.592,-232.825 406.592,-232.825 406.592,-232.825"/>
<ellipse fill="none" stroke="black" cx="406.592" cy="-232.825" rx="34" ry="34"/>
</g>
<!-- 0&#45;&#45;1 -->
<g id="edge1" class="edge"><title>0&#45;&#45;1</title>
<path fill="none" stroke="black" d="M270.266,-248.889C300.114,-245.372 342.979,-240.321 372.64,-236.826"/>
</g>
<!-- 9 -->
<g id="node10" class="node"><title>9</title>
<ellipse fill="#ff3030" stroke="black" cx="300.78" cy="-293.398" rx="9.5" ry="9.5"/>
</g>
<!-- 0&#45;&#45;9 -->
<g id="edge2" class="edge"><title>0&#45;&#45;9</title>
<path fill="none" stroke="black" d="M265.182,-271.288C275.14,-277.473 285.482,-283.897 292.435,-288.215"/>
</g>
<!-- 10 -->
<g id="node11" class="node"><title>10</title>
<ellipse fill="brown" stroke="black" cx="248.597" cy="-167.744" rx="8" ry="8"/>
</g>
<!-- 0&#45;&#45;10 -->
<g id="edge3" class="edge"><title>0&#45;&#45;10</title>
<path fill="none" stroke="black" d="M240.859,-218.793C243.245,-203.049 245.874,-185.703 247.372,-175.826"/>
</g>
<!-- anon_0_18_0 -->
<g id="node61" class="node"><title>anon_0_18_0</title>
<ellipse fill="white" stroke="black" cx="209.73" cy="-327.297" rx="2.5" ry="2.5"/>
</g>
<!-- 0&#45;&#45;anon_0_18_0 -->
<g id="edge4" class="edge"><title>0&#45;&#45;anon_0_18_0</title>
<path fill="none" stroke="black" d="M224.222,-285.784C218.683,-301.652 212.769,-318.592 210.595,-324.819"/>
</g>
<!-- 20 -->
<g id="node21" class="node"><title>20</title>
<ellipse fill="#ff3030" stroke="black" cx="424.008" cy="-308.31" rx="3.5" ry="3.5"/>
</g>
<!-- 1&#45;&#45;20 -->
<g id="edge7" class="edge"><title>1&#45;&#45;20</title>
<path fill="none" stroke="black" d="M414.282,-266.153C417.781,-281.32 421.503,-297.45 423.145,-304.567"/>
</g>
<!-- 27 -->
<g id="node28" class="node"><title>27</title>
<ellipse fill="#1874cd" stroke="black" cx="477.538" cy="-281.033" rx="3.5" ry="3.5"/>
</g>
<!-- 1&#45;&#45;27 -->
<g id="edge8" class="edge"><title>1&#45;&#45;27</title>
<path fill="none" stroke="black" d="M435.04,-252.155C450.46,-262.633 467.725,-274.365 474.541,-278.996"/>
</g>
<!-- 28 -->
<g id="node29" class="node"><title>28</title>
<ellipse fill="deepskyblue" stroke="black" cx="395.849" cy="-157.468" rx="3.5" ry="3.5"/>
</g>
<!-- 1&#45;&#45;28 -->
<g id="edge9" class="edge"><title>1&#45;&#45;28</title>
<path fill="none" stroke="black" d="M401.786,-199.114C399.641,-184.066 397.374,-168.164 396.375,-161.154"/>
</g>
<!-- 29 -->
<g id="node30" class="node"><title>29</title>
<ellipse fill="#1874cd" stroke="black" cx="461.719" cy="-284.966" rx="3.5" ry="3.5"/>
</g>
<!-- 1&#45;&#45;29 -->
<g id="edge10" class="edge"><title>1&#45;&#45;29</title>
<path fill="none" stroke="black" d="M431.574,-256.454C442.514,-266.801 454,-277.665 459.06,-282.451"/>
</g>
<!-- 33 -->
<g id="node34" class="node"><title>33</title>
<ellipse fill="deepskyblue" stroke="black" cx="442.593" cy="-167.424" rx="3.5" ry="3.5"/>
</g>
<!-- 1&#45;&#45;33 -->
<g id="edge11" class="edge"><title>1&#45;&#45;33</title>
<path fill="none" stroke="black" d="M423.117,-202.804C430.216,-189.909 437.622,-176.455 440.881,-170.534"/>
</g>
<!-- 34 -->
<g id="node35" class="node"><title>34</title>
<ellipse fill="black" stroke="black" cx="366.21" cy="-171.383" rx="3.5" ry="3.5"/>
</g>
<!-- 1&#45;&#45;34 -->
<g id="edge12" class="edge"><title>1&#45;&#45;34</title>
<path fill="none" stroke="black" d="M387.82,-204.262C380.076,-192.479 372.052,-180.27 368.335,-174.616"/>
</g>
<!-- 38 -->
<g id="node39" class="node"><title>38</title>
<ellipse fill="#ff3030" stroke="black" cx="478.434" cy="-256.615" rx="3.5" ry="3.5"/>
</g>
<!-- 1&#45;&#45;38 -->
<g id="edge13" class="edge"><title>1&#45;&#45;38</title>
<path fill="none" stroke="black" d="M439.149,-243.606C453.406,-248.327 468.375,-253.284 474.968,-255.468"/>
</g>
<!-- 39 -->
<g id="node40" class="node"><title>39</title>
<ellipse fill="deepskyblue" stroke="black" cx="481.982" cy="-238.237" rx="3.5" ry="3.5"/>
</g>
<!-- 1&#45;&#45;39 -->
<g id="edge14" class="edge"><title>1&#45;&#45;39</title>
<path fill="none" stroke="black" d="M440.758,-235.277C455.718,-236.351 471.427,-237.479 478.346,-237.976"/>
</g>
<!-- 40 -->
<g id="node41" class="node"><title>40</title>
<ellipse fill="#1874cd" stroke="black" cx="395.115" cy="-307.473" rx="3.5" ry="3.5"/>
</g>
<!-- 1&#45;&#45;40 -->
<g id="edge15" class="edge"><title>1&#45;&#45;40</title>
<path fill="none" stroke="black" d="M401.391,-266.654C399.113,-281.467 396.722,-297.021 395.668,-303.872"/>
</g>
<!-- 41 -->
<g id="node42" class="node"><title>41</title>
<ellipse fill="deepskyblue" stroke="black" cx="410.042" cy="-309.565" rx="3.5" ry="3.5"/>
</g>
<!-- 1&#45;&#45;41 -->
<g id="edge16" class="edge"><title>1&#45;&#45;41</title>
<path fill="none" stroke="black" d="M408.135,-267.155C408.825,-282.479 409.553,-298.672 409.874,-305.811"/>
</g>
<!-- 43 -->
<g id="node44" class="node"><title>43</title>
<ellipse fill="#ff3030" stroke="black" cx="437.224" cy="-304.124" rx="3.5" ry="3.5"/>
</g>
<!-- 1&#45;&#45;43 -->
<g id="edge17" class="edge"><title>1&#45;&#45;43</title>
<path fill="none" stroke="black" d="M420.117,-264.305C426.271,-278.63 432.817,-293.866 435.705,-300.588"/>
</g>
<!-- 46 -->
<g id="node47" class="node"><title>46</title>
<ellipse fill="#ff3030" stroke="black" cx="449.73" cy="-296.838" rx="3.5" ry="3.5"/>
</g>
<!-- 1&#45;&#45;46 -->
<g id="edge18" class="edge"><title>1&#45;&#45;46</title>
<path fill="none" stroke="black" d="M425.638,-261.088C434.305,-273.949 443.523,-287.628 447.59,-293.664"/>
</g>
<!-- 47 -->
<g id="node48" class="node"><title>47</title>
<ellipse fill="#98f5ff" stroke="black" cx="411.223" cy="-157.133" rx="3.5" ry="3.5"/>
</g>
<!-- 1&#45;&#45;47 -->
<g id="edge19" class="edge"><title>1&#45;&#45;47</title>
<path fill="none" stroke="black" d="M408.69,-198.522C409.609,-183.502 410.574,-167.73 410.999,-160.783"/>
</g>
<!-- 48 -->
<g id="node49" class="node"><title>48</title>
<ellipse fill="#1874cd" stroke="black" cx="381.196" cy="-161.903" rx="3.5" ry="3.5"/>
</g>
<!-- 1&#45;&#45;48 -->
<g id="edge20" class="edge"><title>1&#45;&#45;48</title>
<path fill="none" stroke="black" d="M395.083,-200.684C390.043,-186.61 384.752,-171.833 382.421,-165.324"/>
</g>
<!-- 2 -->
<g id="node3" class="node"><title>2</title>
<path fill="deepskyblue" stroke="black" stroke-width="0.5" d="M272.406,-367.753C272.406,-367.753 304.406,-367.753 304.406,-367.753 304.406,-368.854 304.349,-369.954 304.235,-371.05 304.122,-372.145 303.952,-373.234 303.726,-374.311 303.501,-375.389 303.22,-376.454 302.884,-377.503 302.548,-378.552 302.159,-379.583 301.717,-380.591 301.275,-381.6 300.782,-382.585 300.239,-383.543 299.695,-384.501 299.103,-385.43 298.464,-386.326 297.824,-387.223 297.139,-388.086 296.411,-388.912 295.683,-389.738 294.913,-390.526 294.104,-391.273 293.294,-392.02 292.447,-392.724 291.565,-393.383 290.683,-394.042 289.768,-394.656 288.822,-395.221 287.877,-395.786 286.903,-396.301 285.905,-396.766 284.907,-397.23 283.885,-397.643 282.844,-398.002 281.803,-398.361 280.744,-398.667 279.672,-398.917 278.6,-399.167 277.515,-399.361 276.423,-399.5 275.33,-399.638 274.231,-399.72 273.131,-399.744 272.03,-399.769 270.928,-399.738 269.831,-399.649 268.733,-399.56 267.641,-399.415 266.558,-399.214 265.476,-399.013 264.404,-398.756 263.348,-398.444 262.292,-398.132 261.253,-397.766 260.234,-397.348 259.216,-396.929 258.22,-396.458 257.25,-395.936 256.28,-395.415 255.338,-394.843 254.427,-394.225 253.516,-393.606 252.638,-392.941 251.795,-392.232 250.953,-391.522 250.148,-390.77 249.383,-389.978 248.618,-389.186 247.895,-388.355 247.216,-387.488 246.537,-386.621 245.903,-385.72 245.317,-384.787 244.73,-383.855 244.193,-382.894 243.706,-381.906 243.219,-380.918 242.783,-379.906 242.4,-378.874 242.018,-377.841 241.688,-376.79 241.414,-375.723 241.14,-374.657 240.921,-373.577 240.758,-372.488 240.595,-371.399 240.488,-370.302 240.439,-369.202 240.389,-368.102 240.396,-367 240.459,-365.901 240.523,-364.802 240.643,-363.706 240.82,-362.62 240.82,-362.62 272.406,-367.753 272.406,-367.753"/>
<path fill="#98f5ff" stroke="black" stroke-width="0.5" d="M272.406,-367.753C272.406,-367.753 240.82,-362.62 240.82,-362.62 241.053,-361.188 241.383,-359.774 241.807,-358.387 242.232,-357 242.75,-355.643 243.359,-354.326 243.967,-353.01 244.665,-351.736 245.446,-350.514 246.227,-349.292 247.091,-348.124 248.031,-347.019 248.971,-345.915 249.985,-344.875 251.065,-343.907 252.146,-342.94 253.292,-342.047 254.494,-341.236 255.696,-340.424 256.952,-339.694 258.252,-339.053 259.553,-338.411 260.896,-337.859 262.272,-337.4 263.648,-336.94 265.054,-336.575 266.479,-336.306 267.905,-336.038 269.347,-335.866 270.795,-335.793 272.244,-335.72 273.696,-335.746 275.141,-335.87 276.586,-335.994 278.021,-336.216 279.437,-336.535 280.852,-336.853 282.243,-337.268 283.602,-337.775 284.961,-338.283 286.284,-338.882 287.561,-339.569 288.839,-340.256 290.068,-341.029 291.241,-341.883 292.414,-342.737 293.527,-343.669 294.573,-344.674 294.573,-344.674 272.406,-367.753 272.406,-367.753"/>
<path fill="#ff3030" stroke="black" stroke-width="0.5" d="M272.406,-367.753C272.406,-367.753 294.573,-344.674 294.573,-344.674 295.348,-345.418 296.084,-346.201 296.78,-347.019 297.477,-347.838 298.131,-348.691 298.741,-349.575 299.351,-350.459 299.917,-351.373 300.435,-352.314 300.953,-353.255 301.424,-354.221 301.845,-355.21 302.266,-356.198 302.637,-357.207 302.957,-358.233 303.276,-359.258 303.544,-360.299 303.759,-361.352 303.974,-362.404 304.136,-363.467 304.244,-364.536 304.352,-365.605 304.406,-366.678 304.406,-367.753 304.406,-367.753 272.406,-367.753 272.406,-367.753"/>
<ellipse fill="none" stroke="black" cx="272.406" cy="-367.753" rx="32" ry="32"/>
</g>
<!-- 2&#45;&#45;0 -->
<g id="edge21" class="edge"><title>2&#45;&#45;0</title>
<path fill="none" stroke="black" d="M262.564,-336.992C257.549,-321.319 251.446,-302.242 246.322,-286.229"/>
</g>
<!-- 3 -->
<g id="node4" class="node"><title>3</title>
<path fill="deepskyblue" stroke="black" stroke-width="0.5" d="M234.921,-378.887C234.921,-378.887 260.421,-378.887 260.421,-378.887 260.421,-380.189 260.321,-381.49 260.123,-382.777 259.924,-384.064 259.627,-385.334 259.234,-386.576 258.841,-387.818 258.354,-389.028 257.777,-390.195 257.199,-391.362 256.533,-392.484 255.784,-393.549 255.035,-394.615 254.206,-395.622 253.303,-396.56 252.4,-397.499 251.427,-398.368 250.391,-399.158 249.356,-399.948 248.262,-400.658 247.118,-401.281 245.974,-401.904 244.784,-402.438 243.559,-402.879 242.333,-403.32 241.076,-403.667 239.798,-403.916 238.519,-404.165 237.224,-404.316 235.922,-404.367 234.621,-404.418 233.317,-404.369 232.023,-404.221 230.729,-404.073 229.449,-403.827 228.192,-403.483 226.936,-403.139 225.708,-402.7 224.519,-402.168 223.33,-401.637 222.183,-401.016 221.089,-400.309 219.995,-399.603 218.956,-398.813 217.983,-397.948 217.009,-397.083 216.103,-396.145 215.273,-395.141 214.443,-394.137 213.691,-393.072 213.023,-391.953 212.356,-390.835 211.775,-389.667 211.286,-388.46 210.797,-387.253 210.402,-386.01 210.102,-384.742 209.803,-383.474 209.602,-382.186 209.5,-380.887 209.398,-379.589 209.395,-378.285 209.492,-376.986 209.589,-375.687 209.786,-374.398 210.08,-373.129 210.374,-371.86 210.765,-370.616 211.249,-369.406 211.733,-368.197 212.309,-367.027 212.972,-365.906 213.635,-364.785 214.383,-363.716 215.209,-362.71 216.036,-361.703 216.938,-360.761 217.908,-359.892 218.878,-359.023 219.913,-358.23 221.005,-357.519 222.096,-356.808 223.24,-356.182 224.427,-355.646 225.615,-355.11 226.841,-354.666 228.096,-354.317 229.351,-353.968 230.63,-353.717 231.924,-353.563 233.217,-353.41 234.521,-353.357 235.822,-353.403 237.124,-353.449 238.42,-353.594 239.699,-353.838 239.699,-353.838 234.921,-378.887 234.921,-378.887"/>
<path fill="#98f5ff" stroke="black" stroke-width="0.5" d="M234.921,-378.887C234.921,-378.887 239.699,-353.838 239.699,-353.838 240.421,-353.976 241.136,-354.145 241.843,-354.344 242.55,-354.543 243.248,-354.773 243.935,-355.033 244.622,-355.292 245.297,-355.582 245.959,-355.9 246.621,-356.217 247.269,-356.564 247.902,-356.938 248.534,-357.312 249.15,-357.713 249.747,-358.14 250.345,-358.567 250.924,-359.019 251.482,-359.496 252.041,-359.973 252.578,-360.474 253.093,-360.998 253.609,-361.521 254.101,-362.066 254.569,-362.632 255.037,-363.198 255.481,-363.784 255.898,-364.388 256.316,-364.993 256.707,-365.615 257.071,-366.252 257.435,-366.89 257.771,-367.544 258.079,-368.211 258.386,-368.878 258.665,-369.558 258.914,-370.249 259.162,-370.94 259.381,-371.641 259.569,-372.351 259.758,-373.061 259.915,-373.779 260.041,-374.502 260.168,-375.226 260.263,-375.955 260.326,-376.686 260.389,-377.418 260.421,-378.152 260.421,-378.887 260.421,-378.887 234.921,-378.887 234.921,-378.887"/>
<ellipse fill="none" stroke="black" cx="234.921" cy="-378.887" rx="25.5" ry="25.5"/>
</g>
<!-- 3&#45;&#45;0 -->
<g id="edge22" class="edge"><title>3&#45;&#45;0</title>
<path fill="none" stroke="black" d="M235.076,-353.101C235.19,-334.249 235.345,-308.469 235.47,-287.789"/>
</g>
<!-- 24 -->
<g id="node25" class="node"><title>24</title>
<ellipse fill="black" stroke="black" cx="233.974" cy="-448.189" rx="3.5" ry="3.5"/>
</g>
<!-- 3&#45;&#45;24 -->
<g id="edge23" class="edge"><title>3&#45;&#45;24</title>
<path fill="none" stroke="black" d="M234.568,-404.692C234.362,-419.778 234.123,-437.26 234.022,-444.627"/>
</g>
<!-- 51 -->
<g id="node52" class="node"><title>51</title>
<ellipse fill="deepskyblue" stroke="black" cx="204.548" cy="-440.994" rx="3.5" ry="3.5"/>
</g>
<!-- 3&#45;&#45;51 -->
<g id="edge24" class="edge"><title>3&#45;&#45;51</title>
<path fill="none" stroke="black" d="M223.611,-402.013C217,-415.533 209.338,-431.201 206.109,-437.802"/>
</g>
<!-- 4 -->
<g id="node5" class="node"><title>4</title>
<path fill="deepskyblue" stroke="black" stroke-width="0.5" d="M96.6181,-352.034C96.6181,-352.034 114.618,-352.034 114.618,-352.034 114.618,-352.883 114.558,-353.73 114.439,-354.57 114.319,-355.411 114.14,-356.241 113.903,-357.056 113.667,-357.871 113.373,-358.668 113.023,-359.441 112.674,-360.215 112.271,-360.963 111.816,-361.679 111.361,-362.396 110.857,-363.079 110.305,-363.724 109.754,-364.37 109.158,-364.975 108.522,-365.536 107.885,-366.097 107.21,-366.613 106.501,-367.079 105.791,-367.545 105.05,-367.96 104.282,-368.321 103.514,-368.682 102.722,-368.989 101.911,-369.238 101.1,-369.488 100.272,-369.68 99.434,-369.813 98.5958,-369.945 97.7493,-370.019 96.9009,-370.032 96.0524,-370.045 95.204,-369.999 94.3621,-369.892 93.5202,-369.786 92.6869,-369.62 91.8684,-369.396 91.0499,-369.172 90.2483,-368.891 89.4695,-368.554 88.6907,-368.217 87.9367,-367.825 87.2132,-367.382 86.4896,-366.938 85.7983,-366.444 85.1445,-365.903 84.4907,-365.363 83.8759,-364.776 83.3048,-364.148 82.7337,-363.521 82.2077,-362.854 81.7307,-362.152 81.2537,-361.45 80.827,-360.715 80.4536,-359.953 80.0803,-359.191 79.7613,-358.404 79.4991,-357.597 79.2369,-356.789 79.0321,-355.965 78.8862,-355.129 78.7403,-354.293 78.6537,-353.448 78.627,-352.6 78.6004,-351.751 78.6337,-350.902 78.7268,-350.059 78.82,-349.216 78.9726,-348.38 79.1836,-347.558 79.3947,-346.736 79.6636,-345.93 79.9883,-345.146 80.313,-344.362 80.6928,-343.602 81.1248,-342.871 81.5567,-342.141 82.0398,-341.442 82.5704,-340.78 83.101,-340.118 83.6777,-339.494 84.2963,-338.913 84.9149,-338.332 85.5738,-337.795 86.268,-337.308 86.9623,-336.82 87.6902,-336.381 88.4463,-335.996 89.2024,-335.611 89.9848,-335.28 90.7876,-335.005 91.5905,-334.73 92.4117,-334.512 93.2453,-334.353 93.2453,-334.353 96.6181,-352.034 96.6181,-352.034"/>
<path fill="#98f5ff" stroke="black" stroke-width="0.5" d="M96.6181,-352.034C96.6181,-352.034 93.2453,-334.353 93.2453,-334.353 93.8935,-334.229 94.548,-334.141 95.2059,-334.09 95.8637,-334.038 96.524,-334.022 97.1835,-334.043 97.8431,-334.064 98.501,-334.121 99.1544,-334.214 99.8077,-334.307 100.455,-334.436 101.095,-334.6 101.734,-334.764 102.363,-334.963 102.981,-335.196 103.598,-335.429 104.202,-335.696 104.79,-335.996 105.378,-336.296 105.949,-336.627 106.501,-336.99 107.052,-337.352 107.583,-337.744 108.092,-338.165 108.6,-338.586 109.085,-339.034 109.544,-339.508 110.004,-339.982 110.436,-340.48 110.841,-341.002 111.245,-341.523 111.621,-342.067 111.966,-342.629 112.31,-343.192 112.624,-343.773 112.905,-344.37 113.186,-344.967 113.434,-345.579 113.648,-346.204 113.861,-346.828 114.041,-347.464 114.185,-348.108 114.329,-348.752 114.437,-349.403 114.509,-350.059 114.582,-350.715 114.618,-351.374 114.618,-352.034 114.618,-352.034 96.6181,-352.034 96.6181,-352.034"/>
<ellipse fill="none" stroke="black" cx="96.6181" cy="-352.034" rx="18" ry="18"/>
</g>
<!-- 16 -->
<g id="node17" class="node"><title>16</title>
<path fill="#ff3030" stroke="black" stroke-width="0.5" d="M155.626,-310.167C155.626,-310.167 161.626,-310.167 161.626,-310.167 161.626,-310.429 161.609,-310.691 161.575,-310.95 161.54,-311.21 161.489,-311.467 161.421,-311.72 161.354,-311.973 161.269,-312.221 161.169,-312.463 161.069,-312.705 160.953,-312.94 160.822,-313.167 160.691,-313.394 160.545,-313.612 160.386,-313.82 160.227,-314.027 160.054,-314.224 159.869,-314.41 159.683,-314.595 159.486,-314.768 159.278,-314.927 159.071,-315.087 158.853,-315.232 158.626,-315.363 158.399,-315.494 158.164,-315.61 157.922,-315.71 157.68,-315.81 157.432,-315.895 157.179,-315.963 156.926,-316.03 156.669,-316.081 156.409,-316.116 156.149,-316.15 155.888,-316.167 155.626,-316.167 155.364,-316.167 155.102,-316.15 154.843,-316.116 154.583,-316.081 154.326,-316.03 154.073,-315.963 153.82,-315.895 153.572,-315.81 153.33,-315.71 153.088,-315.61 152.853,-315.494 152.626,-315.363 152.399,-315.232 152.181,-315.087 151.973,-314.927 151.766,-314.768 151.568,-314.595 151.383,-314.41 151.198,-314.224 151.025,-314.027 150.866,-313.82 150.706,-313.612 150.561,-313.394 150.43,-313.167 150.299,-312.94 150.183,-312.705 150.083,-312.463 149.982,-312.221 149.898,-311.973 149.83,-311.72 149.763,-311.467 149.711,-311.21 149.677,-310.95 149.643,-310.691 149.626,-310.429 149.626,-310.167 149.626,-309.905 149.643,-309.643 149.677,-309.384 149.711,-309.124 149.763,-308.867 149.83,-308.614 149.898,-308.361 149.982,-308.113 150.083,-307.871 150.183,-307.629 150.299,-307.394 150.43,-307.167 150.561,-306.94 150.706,-306.722 150.866,-306.514 151.025,-306.307 151.198,-306.11 151.383,-305.924 151.568,-305.739 151.766,-305.566 151.973,-305.407 152.181,-305.247 152.399,-305.102 152.626,-304.971 152.626,-304.971 155.626,-310.167 155.626,-310.167"/>
<path fill="#98f5ff" stroke="black" stroke-width="0.5" d="M155.626,-310.167C155.626,-310.167 152.626,-304.971 152.626,-304.971 152.853,-304.84 153.088,-304.724 153.33,-304.624 153.572,-304.524 153.82,-304.439 154.073,-304.371 154.326,-304.304 154.583,-304.253 154.843,-304.218 155.102,-304.184 155.364,-304.167 155.626,-304.167 155.888,-304.167 156.149,-304.184 156.409,-304.218 156.669,-304.253 156.926,-304.304 157.179,-304.371 157.432,-304.439 157.68,-304.524 157.922,-304.624 158.164,-304.724 158.399,-304.84 158.626,-304.971 158.853,-305.102 159.071,-305.247 159.278,-305.407 159.486,-305.566 159.683,-305.739 159.869,-305.924 160.054,-306.11 160.227,-306.307 160.386,-306.514 160.545,-306.722 160.691,-306.94 160.822,-307.167 160.953,-307.394 161.069,-307.629 161.169,-307.871 161.269,-308.113 161.354,-308.361 161.421,-308.614 161.489,-308.867 161.54,-309.124 161.575,-309.384 161.609,-309.643 161.626,-309.905 161.626,-310.167 161.626,-310.167 155.626,-310.167 155.626,-310.167"/>
<ellipse fill="none" stroke="black" cx="155.626" cy="-310.167" rx="6" ry="6"/>
</g>
<!-- 4&#45;&#45;16 -->
<g id="edge25" class="edge"><title>4&#45;&#45;16</title>
<path fill="none" stroke="black" d="M111.508,-341.469C124.346,-332.361 142.121,-319.749 150.658,-313.691"/>
</g>
<!-- 23 -->
<g id="node24" class="node"><title>23</title>
<ellipse fill="deepskyblue" stroke="black" cx="39.5083" cy="-368.328" rx="3.5" ry="3.5"/>
</g>
<!-- 4&#45;&#45;23 -->
<g id="edge26" class="edge"><title>4&#45;&#45;23</title>
<path fill="none" stroke="black" d="M79.173,-357.011C66.3143,-360.68 49.8948,-365.364 42.9045,-367.359"/>
</g>
<!-- anon_4_45_0 -->
<g id="node63" class="node"><title>anon_4_45_0</title>
<ellipse fill="white" stroke="black" cx="63.5236" cy="-405.482" rx="2.5" ry="2.5"/>
</g>
<!-- 4&#45;&#45;anon_4_45_0 -->
<g id="edge27" class="edge"><title>4&#45;&#45;anon_4_45_0</title>
<path fill="none" stroke="black" d="M87.0458,-367.493C79.1044,-380.319 68.5394,-397.381 64.8567,-403.329"/>
</g>
<!-- 5 -->
<g id="node6" class="node"><title>5</title>
<ellipse fill="#ff3030" stroke="black" cx="63.0608" cy="-115.553" rx="18" ry="18"/>
</g>
<!-- 49 -->
<g id="node50" class="node"><title>49</title>
<ellipse fill="#ff3030" stroke="black" cx="9.38855" cy="-90.0714" rx="3.5" ry="3.5"/>
</g>
<!-- 5&#45;&#45;49 -->
<g id="edge30" class="edge"><title>5&#45;&#45;49</title>
<path fill="none" stroke="black" d="M46.6657,-107.769C34.5811,-102.032 19.1498,-94.7057 12.5803,-91.5867"/>
</g>
<!-- 50 -->
<g id="node51" class="node"><title>50</title>
<ellipse fill="#ff3030" stroke="black" cx="3.5" cy="-123.197" rx="3.5" ry="3.5"/>
</g>
<!-- 5&#45;&#45;50 -->
<g id="edge31" class="edge"><title>5&#45;&#45;50</title>
<path fill="none" stroke="black" d="M45.1906,-117.846C31.7584,-119.57 14.456,-121.791 7.08335,-122.737"/>
</g>
<!-- 6 -->
<g id="node7" class="node"><title>6</title>
<ellipse fill="#ff3030" stroke="black" cx="287.951" cy="-317.495" rx="14" ry="14"/>
</g>
<!-- 6&#45;&#45;0 -->
<g id="edge32" class="edge"><title>6&#45;&#45;0</title>
<path fill="none" stroke="black" d="M279.084,-306.548C273.142,-299.213 265.044,-289.216 257.452,-279.844"/>
</g>
<!-- 7 -->
<g id="node8" class="node"><title>7</title>
<path fill="deepskyblue" stroke="black" stroke-width="0.5" d="M220.006,-148.292C220.006,-148.292 232.506,-148.292 232.506,-148.292 232.506,-148.769 232.479,-149.246 232.424,-149.72 232.37,-150.195 232.288,-150.665 232.18,-151.13 232.071,-151.595 231.936,-152.053 231.776,-152.503 231.615,-152.952 231.428,-153.392 231.217,-153.82 231.006,-154.249 230.771,-154.664 230.512,-155.065 230.253,-155.467 229.972,-155.853 229.669,-156.222 229.366,-156.591 229.042,-156.942 228.699,-157.274 228.356,-157.606 227.994,-157.918 227.616,-158.209 227.237,-158.499 226.842,-158.768 226.433,-159.013 226.023,-159.259 225.6,-159.481 225.165,-159.678 224.73,-159.875 224.285,-160.047 223.83,-160.193 223.376,-160.339 222.913,-160.458 222.445,-160.552 221.977,-160.645 221.504,-160.711 221.028,-160.75 220.552,-160.789 220.074,-160.801 219.597,-160.785 219.12,-160.769 218.644,-160.727 218.172,-160.657 217.7,-160.586 217.232,-160.489 216.771,-160.366 216.31,-160.242 215.856,-160.092 215.412,-159.917 214.968,-159.742 214.535,-159.541 214.114,-159.316 213.693,-159.091 213.285,-158.842 212.892,-158.57 212.5,-158.298 212.123,-158.005 211.764,-157.69 211.406,-157.375 211.065,-157.04 210.744,-156.686 210.424,-156.333 210.124,-155.961 209.846,-155.573 209.568,-155.185 209.312,-154.781 209.08,-154.364 208.848,-153.947 208.64,-153.516 208.458,-153.075 208.275,-152.634 208.118,-152.183 207.987,-151.724 207.856,-151.265 207.751,-150.799 207.673,-150.328 207.595,-149.857 207.545,-149.382 207.521,-148.905 207.498,-148.428 207.502,-147.951 207.533,-147.474 207.564,-146.998 207.623,-146.524 207.708,-146.054 207.794,-145.584 207.906,-145.12 208.044,-144.663 208.183,-144.206 208.348,-143.758 208.538,-143.32 208.727,-142.882 208.942,-142.455 209.181,-142.042 209.181,-142.042 220.006,-148.292 220.006,-148.292"/>
<path fill="#98f5ff" stroke="black" stroke-width="0.5" d="M220.006,-148.292C220.006,-148.292 209.181,-142.042 209.181,-142.042 209.522,-141.451 209.911,-140.889 210.344,-140.362 210.776,-139.835 211.252,-139.344 211.764,-138.894 212.277,-138.444 212.826,-138.037 213.405,-137.677 213.985,-137.317 214.592,-137.004 215.223,-136.743 215.853,-136.482 216.503,-136.273 217.168,-136.118 217.832,-135.963 218.508,-135.863 219.189,-135.819 219.869,-135.774 220.553,-135.785 221.231,-135.852 221.91,-135.919 222.583,-136.041 223.241,-136.218 223.9,-136.394 224.544,-136.624 225.165,-136.906 225.786,-137.188 226.384,-137.519 226.951,-137.898 227.518,-138.277 228.053,-138.702 228.551,-139.169 229.049,-139.635 229.508,-140.141 229.923,-140.682 230.338,-141.223 230.709,-141.798 231.03,-142.399 231.352,-143.001 231.624,-143.628 231.843,-144.274 232.062,-144.92 232.228,-145.583 232.339,-146.256 232.45,-146.929 232.506,-147.61 232.506,-148.292 232.506,-148.292 220.006,-148.292 220.006,-148.292"/>
<ellipse fill="none" stroke="black" cx="220.006" cy="-148.292" rx="12.5" ry="12.5"/>
</g>
<!-- 7&#45;&#45;0 -->
<g id="edge33" class="edge"><title>7&#45;&#45;0</title>
<path fill="none" stroke="black" d="M221.866,-160.71C223.99,-174.898 227.558,-198.723 230.535,-218.607"/>
</g>
<!-- anon_7_57_0 -->
<g id="node65" class="node"><title>anon_7_57_0</title>
<ellipse fill="white" stroke="black" cx="211.929" cy="-90.6929" rx="2.5" ry="2.5"/>
</g>
<!-- 7&#45;&#45;anon_7_57_0 -->
<g id="edge34" class="edge"><title>7&#45;&#45;anon_7_57_0</title>
<path fill="none" stroke="black" d="M218.254,-135.794C216.323,-122.03 213.354,-100.859 212.309,-93.4033"/>
</g>
<!-- 8 -->
<g id="node9" class="node"><title>8</title>
<path fill="deepskyblue" stroke="black" stroke-width="0.5" d="M148.868,-258.132C148.868,-258.132 160.368,-258.132 160.368,-258.132 160.368,-258.584 160.341,-259.035 160.288,-259.484 160.235,-259.933 160.155,-260.378 160.05,-260.817 159.945,-261.256 159.813,-261.689 159.657,-262.113 159.501,-262.536 159.319,-262.951 159.114,-263.353 158.909,-263.756 158.681,-264.146 158.43,-264.521 158.179,-264.897 157.906,-265.257 157.612,-265.601 157.319,-265.944 157.006,-266.27 156.674,-266.577 156.342,-266.884 155.993,-267.17 155.627,-267.436 155.262,-267.701 154.881,-267.945 154.487,-268.166 154.093,-268.387 153.686,-268.584 153.269,-268.757 152.851,-268.93 152.424,-269.078 151.989,-269.2 151.554,-269.323 151.113,-269.42 150.667,-269.491 150.221,-269.561 149.771,-269.606 149.319,-269.623 148.868,-269.641 148.416,-269.632 147.965,-269.597 147.515,-269.561 147.067,-269.499 146.624,-269.411 146.181,-269.323 145.744,-269.209 145.314,-269.069 144.884,-268.93 144.463,-268.765 144.053,-268.576 143.643,-268.387 143.244,-268.174 142.859,-267.938 142.474,-267.702 142.103,-267.443 141.748,-267.163 141.393,-266.884 141.055,-266.583 140.736,-266.264 140.417,-265.945 140.116,-265.607 139.837,-265.252 139.557,-264.897 139.298,-264.526 139.062,-264.141 138.826,-263.756 138.613,-263.357 138.424,-262.947 138.235,-262.537 138.07,-262.116 137.931,-261.686 137.791,-261.256 137.677,-260.819 137.589,-260.376 137.501,-259.933 137.439,-259.485 137.403,-259.035 137.368,-258.584 137.359,-258.132 137.377,-257.681 137.394,-257.229 137.439,-256.779 137.509,-256.333 137.58,-255.887 137.677,-255.445 137.799,-255.011 137.922,-254.576 138.07,-254.149 138.243,-253.731 138.416,-253.314 138.613,-252.907 138.834,-252.513 139.055,-252.119 139.298,-251.738 139.564,-251.373 139.564,-251.373 148.868,-258.132 148.868,-258.132"/>
<path fill="#98f5ff" stroke="black" stroke-width="0.5" d="M148.868,-258.132C148.868,-258.132 139.564,-251.373 139.564,-251.373 139.918,-250.885 140.31,-250.427 140.736,-250.001 141.162,-249.575 141.621,-249.183 142.108,-248.829 142.596,-248.474 143.11,-248.159 143.647,-247.886 144.184,-247.612 144.741,-247.381 145.314,-247.195 145.887,-247.009 146.474,-246.868 147.069,-246.774 147.664,-246.68 148.265,-246.632 148.868,-246.632 149.47,-246.632 150.072,-246.68 150.667,-246.774 151.262,-246.868 151.848,-247.009 152.421,-247.195 152.994,-247.381 153.552,-247.612 154.089,-247.886 154.625,-248.159 155.14,-248.474 155.627,-248.829 156.115,-249.183 156.573,-249.575 156.999,-250.001 157.425,-250.427 157.817,-250.885 158.171,-251.373 158.526,-251.86 158.841,-252.375 159.114,-252.911 159.388,-253.448 159.619,-254.006 159.805,-254.579 159.991,-255.152 160.132,-255.738 160.226,-256.333 160.32,-256.928 160.368,-257.53 160.368,-258.132 160.368,-258.132 148.868,-258.132 148.868,-258.132"/>
<ellipse fill="none" stroke="black" cx="148.868" cy="-258.132" rx="11.5" ry="11.5"/>
</g>
<!-- 8&#45;&#45;0 -->
<g id="edge37" class="edge"><title>8&#45;&#45;0</title>
<path fill="none" stroke="black" d="M160.576,-257.435C170.942,-256.818 186.614,-255.885 200.964,-255.031"/>
</g>
<!-- 11 -->
<g id="node12" class="node"><title>11</title>
<ellipse fill="#ff3030" stroke="black" cx="267.42" cy="-328.815" rx="8" ry="8"/>
</g>
<!-- 11&#45;&#45;0 -->
<g id="edge38" class="edge"><title>11&#45;&#45;0</title>
<path fill="none" stroke="black" d="M264.26,-321.265C260.685,-312.721 254.627,-298.242 249.005,-284.809"/>
</g>
<!-- 12 -->
<g id="node13" class="node"><title>12</title>
<ellipse fill="black" stroke="black" cx="280.406" cy="-130.205" rx="6" ry="6"/>
</g>
<!-- 13 -->
<g id="node14" class="node"><title>13</title>
<ellipse fill="#ff3030" stroke="black" cx="168.171" cy="-282.802" rx="6" ry="6"/>
</g>
<!-- 13&#45;&#45;0 -->
<g id="edge39" class="edge"><title>13&#45;&#45;0</title>
<path fill="none" stroke="black" d="M173.926,-280.258C180.686,-277.271 192.435,-272.078 203.883,-267.018"/>
</g>
<!-- 14 -->
<g id="node15" class="node"><title>14</title>
<ellipse fill="brown" stroke="black" cx="153.688" cy="-193.839" rx="6" ry="6"/>
</g>
<!-- 14&#45;&#45;0 -->
<g id="edge40" class="edge"><title>14&#45;&#45;0</title>
<path fill="none" stroke="black" d="M158.572,-197.36C168.018,-204.172 189.437,-219.618 207.308,-232.505"/>
</g>
<!-- 15 -->
<g id="node16" class="node"><title>15</title>
<ellipse fill="#ff3030" stroke="black" cx="271.231" cy="-179.949" rx="6" ry="6"/>
</g>
<!-- 15&#45;&#45;0 -->
<g id="edge41" class="edge"><title>15&#45;&#45;0</title>
<path fill="none" stroke="black" d="M268.441,-185.679C264.643,-193.478 257.561,-208.025 250.95,-221.602"/>
</g>
<!-- 15&#45;&#45;12 -->
<g id="edge42" class="edge"><title>15&#45;&#45;12</title>
<path fill="none" stroke="black" d="M272.356,-173.85C274.117,-164.302 277.505,-145.932 279.272,-136.355"/>
</g>
<!-- 16&#45;&#45;0 -->
<g id="edge43" class="edge"><title>16&#45;&#45;0</title>
<path fill="none" stroke="black" d="M160.878,-306.414C170.201,-299.753 190.258,-285.42 207.258,-273.273"/>
</g>
<!-- 17 -->
<g id="node18" class="node"><title>17</title>
<ellipse fill="deepskyblue" stroke="black" cx="196.153" cy="-313.346" rx="5" ry="5"/>
</g>
<!-- 17&#45;&#45;0 -->
<g id="edge44" class="edge"><title>17&#45;&#45;0</title>
<path fill="none" stroke="black" d="M198.996,-309.004C202.784,-303.217 209.814,-292.478 216.714,-281.937"/>
</g>
<!-- 18 -->
<g id="node19" class="node"><title>18</title>
<ellipse fill="#ff3030" stroke="black" cx="168.399" cy="-405.573" rx="5" ry="5"/>
</g>
<!-- 19 -->
<g id="node20" class="node"><title>19</title>
<ellipse fill="brown" stroke="black" cx="301.366" cy="-229.109" rx="3.5" ry="3.5"/>
</g>
<!-- 19&#45;&#45;0 -->
<g id="edge45" class="edge"><title>19&#45;&#45;0</title>
<path fill="none" stroke="black" d="M297.835,-230.392C292.079,-232.482 280.117,-236.826 268.21,-241.15"/>
</g>
<!-- 21 -->
<g id="node22" class="node"><title>21</title>
<ellipse fill="deepskyblue" stroke="black" cx="378.116" cy="-300.406" rx="3.5" ry="3.5"/>
</g>
<!-- 21&#45;&#45;1 -->
<g id="edge46" class="edge"><title>21&#45;&#45;1</title>
<path fill="none" stroke="black" d="M379.489,-297.146C382.044,-291.082 387.773,-277.486 393.309,-264.349"/>
</g>
<!-- 22 -->
<g id="node23" class="node"><title>22</title>
<ellipse fill="brown" stroke="black" cx="249.13" cy="-118.182" rx="3.5" ry="3.5"/>
</g>
<!-- 22&#45;&#45;10 -->
<g id="edge47" class="edge"><title>22&#45;&#45;10</title>
<path fill="none" stroke="black" d="M249.092,-121.746C249.007,-129.648 248.801,-148.799 248.683,-159.736"/>
</g>
<!-- 25 -->
<g id="node26" class="node"><title>25</title>
<ellipse fill="#ff3030" stroke="black" cx="446.414" cy="-110.881" rx="3.5" ry="3.5"/>
</g>
<!-- anon_25_1_0 -->
<g id="node67" class="node"><title>anon_25_1_0</title>
<ellipse fill="white" stroke="black" cx="430.712" cy="-152.475" rx="2.5" ry="2.5"/>
</g>
<!-- 25&#45;&#45;anon_25_1_0 -->
<g id="edge48" class="edge"><title>25&#45;&#45;anon_25_1_0</title>
<path fill="none" stroke="black" d="M445.075,-114.428C441.99,-122.6 434.436,-142.609 431.712,-149.826"/>
</g>
<!-- 26 -->
<g id="node27" class="node"><title>26</title>
<ellipse fill="#1874cd" stroke="black" cx="523.052" cy="-188.416" rx="3.5" ry="3.5"/>
</g>
<!-- anon_26_1_0 -->
<g id="node68" class="node"><title>anon_26_1_0</title>
<ellipse fill="white" stroke="black" cx="480.853" cy="-200.999" rx="2.5" ry="2.5"/>
</g>
<!-- 26&#45;&#45;anon_26_1_0 -->
<g id="edge50" class="edge"><title>26&#45;&#45;anon_26_1_0</title>
<path fill="none" stroke="black" d="M519.454,-189.489C511.163,-191.961 490.862,-198.015 483.541,-200.198"/>
</g>
<!-- 52 -->
<g id="node53" class="node"><title>52</title>
<ellipse fill="#1874cd" stroke="black" cx="514.531" cy="-307.565" rx="3.5" ry="3.5"/>
</g>
<!-- 27&#45;&#45;52 -->
<g id="edge52" class="edge"><title>27&#45;&#45;52</title>
<path fill="none" stroke="black" d="M480.441,-283.115C487.254,-288.001 504.229,-300.176 511.329,-305.268"/>
</g>
<!-- 30 -->
<g id="node31" class="node"><title>30</title>
<ellipse fill="brown" stroke="black" cx="169.852" cy="-155.403" rx="3.5" ry="3.5"/>
</g>
<!-- anon_30_0_0 -->
<g id="node69" class="node"><title>anon_30_0_0</title>
<ellipse fill="white" stroke="black" cx="192.421" cy="-192.268" rx="2.5" ry="2.5"/>
</g>
<!-- 30&#45;&#45;anon_30_0_0 -->
<g id="edge53" class="edge"><title>30&#45;&#45;anon_30_0_0</title>
<path fill="none" stroke="black" d="M171.935,-158.805C176.475,-166.22 187.161,-183.676 191.009,-189.962"/>
</g>
<!-- 31 -->
<g id="node32" class="node"><title>31</title>
<ellipse fill="deepskyblue" stroke="black" cx="493.784" cy="-142.375" rx="3.5" ry="3.5"/>
</g>
<!-- anon_31_1_0 -->
<g id="node70" class="node"><title>anon_31_1_0</title>
<ellipse fill="white" stroke="black" cx="463.062" cy="-174.153" rx="2.5" ry="2.5"/>
</g>
<!-- 31&#45;&#45;anon_31_1_0 -->
<g id="edge55" class="edge"><title>31&#45;&#45;anon_31_1_0</title>
<path fill="none" stroke="black" d="M490.949,-145.308C484.77,-151.7 470.222,-166.747 464.984,-172.166"/>
</g>
<!-- 32 -->
<g id="node33" class="node"><title>32</title>
<ellipse fill="deepskyblue" stroke="black" cx="38.062" cy="-338.397" rx="3.5" ry="3.5"/>
</g>
<!-- 32&#45;&#45;4 -->
<g id="edge57" class="edge"><title>32&#45;&#45;4</title>
<path fill="none" stroke="black" d="M41.5496,-339.209C48.739,-340.884 65.6394,-344.82 78.8358,-347.893"/>
</g>
<!-- 35 -->
<g id="node36" class="node"><title>35</title>
<ellipse fill="#ff3030" stroke="black" cx="18.4624" cy="-21.6412" rx="3.5" ry="3.5"/>
</g>
<!-- anon_35_5_0 -->
<g id="node71" class="node"><title>anon_35_5_0</title>
<ellipse fill="white" stroke="black" cx="40.2896" cy="-59.1071" rx="2.5" ry="2.5"/>
</g>
<!-- 35&#45;&#45;anon_35_5_0 -->
<g id="edge58" class="edge"><title>35&#45;&#45;anon_35_5_0</title>
<path fill="none" stroke="black" d="M20.4768,-25.0987C24.8671,-32.6347 35.2027,-50.3756 38.9242,-56.7635"/>
</g>
<!-- 36 -->
<g id="node37" class="node"><title>36</title>
<ellipse fill="deepskyblue" stroke="black" cx="261.919" cy="-442.987" rx="3.5" ry="3.5"/>
</g>
<!-- 36&#45;&#45;3 -->
<g id="edge60" class="edge"><title>36&#45;&#45;3</title>
<path fill="none" stroke="black" d="M260.467,-439.541C257.554,-432.623 250.772,-416.522 244.928,-402.647"/>
</g>
<!-- 37 -->
<g id="node38" class="node"><title>37</title>
<ellipse fill="brown" stroke="black" cx="166.847" cy="-235.128" rx="3.5" ry="3.5"/>
</g>
<!-- 37&#45;&#45;0 -->
<g id="edge61" class="edge"><title>37&#45;&#45;0</title>
<path fill="none" stroke="black" d="M170.548,-236.087C176.636,-237.665 189.347,-240.959 201.938,-244.221"/>
</g>
<!-- 42 -->
<g id="node43" class="node"><title>42</title>
<ellipse fill="#ff3030" stroke="black" cx="114.396" cy="-158.102" rx="3.5" ry="3.5"/>
</g>
<!-- 42&#45;&#45;5 -->
<g id="edge62" class="edge"><title>42&#45;&#45;5</title>
<path fill="none" stroke="black" d="M111.636,-155.815C105.221,-150.498 88.9461,-137.008 76.995,-127.102"/>
</g>
<!-- 42&#45;&#45;14 -->
<g id="edge63" class="edge"><title>42&#45;&#45;14</title>
<path fill="none" stroke="black" d="M117.221,-160.672C123.908,-166.754 140.757,-182.077 149,-189.574"/>
</g>
<!-- 44 -->
<g id="node45" class="node"><title>44</title>
<ellipse fill="deepskyblue" stroke="black" cx="107.155" cy="-198.172" rx="3.5" ry="3.5"/>
</g>
<!-- 44&#45;&#45;14 -->
<g id="edge64" class="edge"><title>44&#45;&#45;14</title>
<path fill="none" stroke="black" d="M110.806,-197.832C118.777,-197.09 137.802,-195.318 147.611,-194.405"/>
</g>
<!-- 45 -->
<g id="node46" class="node"><title>45</title>
<ellipse fill="deepskyblue" stroke="black" cx="9.26735" cy="-472.7" rx="3.5" ry="3.5"/>
</g>
<!-- 53 -->
<g id="node54" class="node"><title>53</title>
<ellipse fill="brown" stroke="black" cx="244.067" cy="-213.938" rx="3.5" ry="3.5"/>
</g>
<!-- 53&#45;&#45;10 -->
<g id="edge65" class="edge"><title>53&#45;&#45;10</title>
<path fill="none" stroke="black" d="M244.422,-210.313C245.148,-202.912 246.816,-185.906 247.81,-175.771"/>
</g>
<!-- 54 -->
<g id="node55" class="node"><title>54</title>
<ellipse fill="brown" stroke="black" cx="224.774" cy="-182.55" rx="3.5" ry="3.5"/>
</g>
<!-- 54&#45;&#45;0 -->
<g id="edge66" class="edge"><title>54&#45;&#45;0</title>
<path fill="none" stroke="black" d="M225.36,-186.336C226.333,-192.62 228.376,-205.806 230.388,-218.802"/>
</g>
<!-- 55 -->
<g id="node56" class="node"><title>55</title>
<ellipse fill="#ff3030" stroke="black" cx="289.409" cy="-373.288" rx="3.5" ry="3.5"/>
</g>
<!-- 55&#45;&#45;11 -->
<g id="edge67" class="edge"><title>55&#45;&#45;11</title>
<path fill="none" stroke="black" d="M287.827,-370.09C284.322,-362.999 275.825,-345.814 270.973,-336"/>
</g>
<!-- 56 -->
<g id="node57" class="node"><title>56</title>
<ellipse fill="deepskyblue" stroke="black" cx="96.1521" cy="-260.812" rx="3.5" ry="3.5"/>
</g>
<!-- 56&#45;&#45;8 -->
<g id="edge68" class="edge"><title>56&#45;&#45;8</title>
<path fill="none" stroke="black" d="M99.9432,-260.62C107.592,-260.231 125.152,-259.338 137.017,-258.735"/>
</g>
<!-- 57 -->
<g id="node58" class="node"><title>57</title>
<ellipse fill="deepskyblue" stroke="black" cx="201.775" cy="-3.5" rx="3.5" ry="3.5"/>
</g>
<!-- 58 -->
<g id="node59" class="node"><title>58</title>
<ellipse fill="deepskyblue" stroke="black" cx="479.806" cy="-218.257" rx="3.5" ry="3.5"/>
</g>
<!-- 58&#45;&#45;1 -->
<g id="edge69" class="edge"><title>58&#45;&#45;1</title>
<path fill="none" stroke="black" d="M476.275,-218.96C469.591,-220.289 454.461,-223.3 440.002,-226.177"/>
</g>
<!-- 59 -->
<g id="node60" class="node"><title>59</title>
<ellipse fill="#98f5ff" stroke="black" cx="298.022" cy="-441.349" rx="3.5" ry="3.5"/>
</g>
<!-- 59&#45;&#45;2 -->
<g id="edge70" class="edge"><title>59&#45;&#45;2</title>
<path fill="none" stroke="black" d="M296.786,-437.8C294.268,-430.564 288.322,-413.482 282.933,-397.999"/>
</g>
<!-- anon_0_18_1 -->
<g id="node62" class="node"><title>anon_0_18_1</title>
<ellipse fill="white" stroke="black" cx="189.075" cy="-365.327" rx="2.5" ry="2.5"/>
</g>
<!-- anon_0_18_0&#45;&#45;anon_0_18_1 -->
<g id="edge5" class="edge"><title>anon_0_18_0&#45;&#45;anon_0_18_1</title>
<path fill="none" stroke="black" d="M208.375,-329.792C204.641,-336.667 194.234,-355.829 190.462,-362.773"/>
</g>
<!-- anon_0_18_1&#45;&#45;18 -->
<g id="edge6" class="edge"><title>anon_0_18_1&#45;&#45;18</title>
<path fill="none" stroke="black" d="M187.719,-367.968C184.269,-374.683 175.126,-392.478 170.771,-400.956"/>
</g>
<!-- anon_4_45_1 -->
<g id="node64" class="node"><title>anon_4_45_1</title>
<ellipse fill="white" stroke="black" cx="37.1257" cy="-439.695" rx="2.5" ry="2.5"/>
</g>
<!-- anon_4_45_0&#45;&#45;anon_4_45_1 -->
<g id="edge28" class="edge"><title>anon_4_45_0&#45;&#45;anon_4_45_1</title>
<path fill="none" stroke="black" d="M61.7915,-407.726C57.0198,-413.911 43.7188,-431.15 38.8987,-437.397"/>
</g>
<!-- anon_4_45_1&#45;&#45;45 -->
<g id="edge29" class="edge"><title>anon_4_45_1&#45;&#45;45</title>
<path fill="none" stroke="black" d="M35.2978,-441.86C30.4558,-447.597 17.2917,-463.193 11.7641,-469.742"/>
</g>
<!-- anon_7_57_1 -->
<g id="node66" class="node"><title>anon_7_57_1</title>
<ellipse fill="white" stroke="black" cx="206.673" cy="-46.9255" rx="2.5" ry="2.5"/>
</g>
<!-- anon_7_57_0&#45;&#45;anon_7_57_1 -->
<g id="edge35" class="edge"><title>anon_7_57_0&#45;&#45;anon_7_57_1</title>
<path fill="none" stroke="black" d="M211.616,-88.0861C210.679,-80.2833 207.904,-57.1763 206.978,-49.4638"/>
</g>
<!-- anon_7_57_1&#45;&#45;57 -->
<g id="edge36" class="edge"><title>anon_7_57_1&#45;&#45;57</title>
<path fill="none" stroke="black" d="M206.381,-44.3391C205.549,-36.9624 203.162,-15.7998 202.192,-7.20009"/>
</g>
<!-- anon_25_1_0&#45;&#45;1 -->
<g id="edge49" class="edge"><title>anon_25_1_0&#45;&#45;1</title>
<path fill="none" stroke="black" d="M429.909,-155.148C427.784,-162.228 421.804,-182.148 416.433,-200.042"/>
</g>
<!-- anon_26_1_0&#45;&#45;1 -->
<g id="edge51" class="edge"><title>anon_26_1_0&#45;&#45;1</title>
<path fill="none" stroke="black" d="M478.382,-202.058C471.99,-204.798 454.272,-212.391 438.038,-219.348"/>
</g>
<!-- anon_30_0_0&#45;&#45;0 -->
<g id="edge54" class="edge"><title>anon_30_0_0&#45;&#45;0</title>
<path fill="none" stroke="black" d="M194.064,-194.573C197.706,-199.684 206.833,-212.489 215.613,-224.81"/>
</g>
<!-- anon_31_1_0&#45;&#45;1 -->
<g id="edge56" class="edge"><title>anon_31_1_0&#45;&#45;1</title>
<path fill="none" stroke="black" d="M461.183,-176.105C456.284,-181.196 442.636,-195.375 430.213,-208.283"/>
</g>
<!-- anon_35_5_0&#45;&#45;5 -->
<g id="edge59" class="edge"><title>anon_35_5_0&#45;&#45;5</title>
<path fill="none" stroke="black" d="M41.268,-61.5325C43.8218,-67.8631 50.8649,-85.3214 56.2595,-98.6938"/>
</g>
</g>
</svg>
