<?xml version="1.0" encoding="UTF-8" standalone="no"?>
<!DOCTYPE svg PUBLIC "-//W3C//DTD SVG 1.1//EN"
 "http://www.w3.org/Graphics/SVG/1.1/DTD/svg11.dtd">
<!-- Generated by graphviz version 2.38.0 (20140413.2041)
 -->
<!-- Title: %3 Pages: 1 -->
<svg width="223pt" height="231pt"
 viewBox="0.00 0.00 223.16 230.80" xmlns="http://www.w3.org/2000/svg" xmlns:xlink="http://www.w3.org/1999/xlink">
<g id="graph0" class="graph" transform="scale(1 1) rotate(0) translate(48.5306 177.637)">
<title>%3</title>
<polygon fill="white" stroke="none" points="-48.5306,53.1657 -48.5306,-177.637 174.628,-177.637 174.628,53.1657 -48.5306,53.1657"/>
<!-- 0 -->
<g id="node1" class="node"><title>0</title>
<path fill="#787878" stroke="black" stroke-width="0.5" d="M36.8944,-90.1055C36.8944,-90.1055 77.8944,-90.1055 77.8944,-90.1055 77.8944,-91.1378 77.8554,-92.1696 77.7776,-93.1989 77.6997,-94.2282 77.583,-95.2541 77.4276,-96.2746 77.2723,-97.2951 77.0785,-98.3093 76.8467,-99.3151 76.6148,-100.321 76.3451,-101.318 76.038,-102.303 75.7309,-103.289 75.3867,-104.262 75.0061,-105.222 74.6256,-106.181 74.2089,-107.126 73.757,-108.054 73.3052,-108.982 72.8184,-109.893 72.2978,-110.784 71.7772,-111.675 71.2231,-112.547 70.6367,-113.396 70.0504,-114.246 69.4321,-115.073 68.7834,-115.876 68.1346,-116.678 67.4557,-117.456 66.7482,-118.208 66.0407,-118.96 65.305,-119.684 64.5428,-120.38 63.7806,-121.076 62.9924,-121.743 62.1799,-122.38 61.3673,-123.017 60.531,-123.622 59.6728,-124.196 58.8145,-124.769 57.9349,-125.31 57.0358,-125.817 56.1368,-126.324 55.2189,-126.797 54.2841,-127.235 53.3493,-127.673 52.3983,-128.075 51.4332,-128.441 50.4681,-128.807 49.4895,-129.137 48.4994,-129.429 47.5094,-129.721 46.5088,-129.976 45.4995,-130.192 44.4903,-130.409 43.4733,-130.587 42.4506,-130.727 41.4279,-130.867 40.4003,-130.968 39.3699,-131.031 38.3396,-131.093 37.3073,-131.116 36.2752,-131.101 35.2431,-131.085 34.2119,-131.031 33.184,-130.937 32.156,-130.844 31.1319,-130.712 30.1139,-130.541 29.0959,-130.37 28.0847,-130.161 27.0825,-129.914 26.0802,-129.667 25.0877,-129.382 24.107,-129.06 23.1263,-128.738 22.158,-128.38 21.2044,-127.985 20.2507,-127.59 19.3124,-127.159 18.3912,-126.693 17.4701,-126.227 16.5669,-125.727 15.6836,-125.193 14.8002,-124.659 13.9373,-124.091 13.0968,-123.492 12.2562,-122.893 11.4386,-122.262 10.6457,-121.602 9.85274,-120.941 9.08503,-120.25 8.3442,-119.531 7.60337,-118.813 6.88995,-118.066 6.20547,-117.294 6.20547,-117.294 36.8944,-90.1055 36.8944,-90.1055"/>
<path fill="palegreen" stroke="black" stroke-width="0.5" d="M36.8944,-90.1055C36.8944,-90.1055 6.20547,-117.294 6.20547,-117.294 5.11009,-116.057 4.09043,-114.756 3.15207,-113.396 2.21371,-112.037 1.35837,-110.622 0.590713,-109.159 -0.176941,-107.697 -0.855501,-106.189 -1.44126,-104.644 -2.02701,-103.1 -2.51889,-101.521 -2.9142,-99.9175 -3.30952,-98.3136 -3.60754,-96.6874 -3.80665,-95.0475 -4.00576,-93.4077 -4.10559,-91.7574 -4.10559,-90.1055 -4.10559,-88.4537 -4.00576,-86.8033 -3.80665,-85.1635 -3.60754,-83.5237 -3.30952,-81.8975 -2.9142,-80.2936 -2.51889,-78.6897 -2.02701,-77.1112 -1.44126,-75.5667 -0.8555,-74.0222 -0.17694,-72.5145 0.590714,-71.0519 1.35837,-69.5892 2.21371,-68.1743 3.15207,-66.8149 4.09043,-65.4554 5.11009,-64.1539 6.20547,-62.9175 7.30085,-61.6811 8.46995,-60.512 9.70638,-59.4166 10.9428,-58.3212 12.2443,-57.3016 13.6038,-56.3632 14.9632,-55.4248 16.3781,-54.5695 17.8408,-53.8018 19.3034,-53.0342 20.8111,-52.3556 22.3556,-51.7699 23.9001,-51.1841 25.4786,-50.6922 27.0825,-50.2969 28.6863,-49.9016 30.3126,-49.6036 31.9524,-49.4045 33.5922,-49.2054 35.2426,-49.1055 36.8944,-49.1055 38.5463,-49.1055 40.1966,-49.2054 41.8364,-49.4045 43.4762,-49.6036 45.1025,-49.9016 46.7064,-50.2969 48.3102,-50.6922 49.8887,-51.1841 51.4332,-51.7699 52.9777,-52.3556 54.4854,-53.0342 55.9481,-53.8018 57.4107,-54.5695 58.8256,-55.4248 60.1851,-56.3632 61.5445,-57.3016 62.846,-58.3212 64.0824,-59.4166 65.3189,-60.512 66.488,-61.6811 67.5834,-62.9175 68.6787,-64.1539 69.6984,-65.4554 70.6367,-66.8149 71.5751,-68.1743 72.4305,-69.5892 73.1981,-71.0519 73.9658,-72.5145 74.6443,-74.0222 75.2301,-75.5667 75.8158,-77.1113 76.3077,-78.6897 76.703,-80.2936 77.0983,-81.8975 77.3964,-83.5237 77.5955,-85.1635 77.7946,-86.8033 77.8944,-88.4537 77.8944,-90.1055 77.8944,-90.1055 36.8944,-90.1055 36.8944,-90.1055"/>
<ellipse fill="none" stroke="black" cx="36.8944" cy="-90.1055" rx="41" ry="41"/>
</g>
<!-- 1 -->
<g id="node2" class="node"><title>1</title>
<ellipse fill="palegreen" stroke="black" cx="119.799" cy="-128.558" rx="13" ry="13"/>
</g>
<!-- 0&#45;&#45;1 -->
<g id="edge1" class="edge"><title>0&#45;&#45;1</title>
<path fill="none" stroke="black" d="M74.4656,-107.532C86.4615,-113.096 98.8949,-118.863 107.7,-122.946"/>
</g>
<!-- 2 -->
<g id="node3" class="node"><title>2</title>
<ellipse fill="palegreen" stroke="black" cx="-41.0306" cy="-67.3003" rx="3.5" ry="3.5"/>
</g>
<!-- 0&#45;&#45;2 -->
<g id="edge2" class="edge"><title>0&#45;&#45;2</title>
<path fill="none" stroke="black" d="M-2.52466,-78.5693C-16.7186,-74.4154 -30.8317,-70.2851 -37.3278,-68.3839"/>
</g>
<!-- 3 -->
<g id="node4" class="node"><title>3</title>
<ellipse fill="palegreen" stroke="black" cx="-17.0759" cy="-150.778" rx="3.5" ry="3.5"/>
</g>
<!-- 0&#45;&#45;3 -->
<g id="edge3" class="edge"><title>0&#45;&#45;3</title>
<path fill="none" stroke="black" d="M9.59304,-120.798C-0.237557,-131.849 -10.0122,-142.838 -14.5113,-147.895"/>
</g>
<!-- 4 -->
<g id="node5" class="node"><title>4</title>
<ellipse fill="palegreen" stroke="black" cx="-16.2038" cy="-28.8399" rx="3.5" ry="3.5"/>
</g>
<!-- 0&#45;&#45;4 -->
<g id="edge4" class="edge"><title>0&#45;&#45;4</title>
<path fill="none" stroke="black" d="M10.0342,-59.1137C0.362408,-47.9543 -9.25429,-36.8584 -13.6808,-31.7511"/>
</g>
<!-- 6 -->
<g id="node7" class="node"><title>6</title>
<ellipse fill="#787878" stroke="black" cx="59.1284" cy="-2.71586" rx="11.5" ry="11.5"/>
</g>
<!-- 0&#45;&#45;6 -->
<g id="edge5" class="edge"><title>0&#45;&#45;6</title>
<path fill="none" stroke="black" d="M47.0354,-50.2467C50.3797,-37.102 53.8428,-23.4908 56.2013,-14.2206"/>
</g>
<!-- 7 -->
<g id="node8" class="node"><title>7</title>
<ellipse fill="#787878" stroke="black" cx="23.2441" cy="-170.137" rx="3.5" ry="3.5"/>
</g>
<!-- 0&#45;&#45;7 -->
<g id="edge6" class="edge"><title>0&#45;&#45;7</title>
<path fill="none" stroke="black" d="M29.9893,-130.59C27.5029,-145.168 25.0307,-159.662 23.8927,-166.334"/>
</g>
<!-- 9 -->
<g id="node10" class="node"><title>9</title>
<ellipse fill="#787878" stroke="black" cx="-41.0106" cy="-113.068" rx="3.5" ry="3.5"/>
</g>
<!-- 0&#45;&#45;9 -->
<g id="edge7" class="edge"><title>0&#45;&#45;9</title>
<path fill="none" stroke="black" d="M-2.51457,-101.721C-16.7048,-105.904 -30.8143,-110.062 -37.3088,-111.977"/>
</g>
<!-- 10 -->
<g id="node11" class="node"><title>10</title>
<ellipse fill="#787878" stroke="black" cx="113.469" cy="-63.8283" rx="3.5" ry="3.5"/>
</g>
<!-- 0&#45;&#45;10 -->
<g id="edge8" class="edge"><title>0&#45;&#45;10</title>
<path fill="none" stroke="black" d="M76.0791,-76.659C89.9148,-71.9112 103.594,-67.217 109.885,-65.0582"/>
</g>
<!-- 11 -->
<g id="node12" class="node"><title>11</title>
<ellipse fill="#787878" stroke="black" cx="69.4695" cy="-164.345" rx="3.5" ry="3.5"/>
</g>
<!-- 0&#45;&#45;11 -->
<g id="edge9" class="edge"><title>0&#45;&#45;11</title>
<path fill="none" stroke="black" d="M53.3728,-127.66C59.3063,-141.183 65.206,-154.628 67.9216,-160.817"/>
</g>
<!-- 5 -->
<g id="node6" class="node"><title>5</title>
<ellipse fill="palegreen" stroke="black" cx="167.128" cy="-151.983" rx="3.5" ry="3.5"/>
</g>
<!-- 1&#45;&#45;5 -->
<g id="edge10" class="edge"><title>1&#45;&#45;5</title>
<path fill="none" stroke="black" d="M131.742,-134.469C142.477,-139.782 157.517,-147.226 163.977,-150.424"/>
</g>
<!-- 8 -->
<g id="node9" class="node"><title>8</title>
<ellipse fill="#787878" stroke="black" cx="95.7975" cy="33.0389" rx="3.5" ry="3.5"/>
</g>
<!-- 6&#45;&#45;8 -->
<g id="edge11" class="edge"><title>6&#45;&#45;8</title>
<path fill="none" stroke="black" d="M67.6332,5.57688C75.9268,13.6637 88.0302,25.4653 93.2481,30.5531"/>
</g>
<!-- 12 -->
<g id="node13" class="node"><title>12</title>
<ellipse fill="#787878" stroke="black" cx="42.3315" cy="45.6657" rx="3.5" ry="3.5"/>
</g>
<!-- 6&#45;&#45;12 -->
<g id="edge12" class="edge"><title>6&#45;&#45;12</title>
<path fill="none" stroke="black" d="M55.2326,8.50544C51.4336,19.4481 45.8895,35.4174 43.4993,42.302"/>
</g>
</g>
</svg>
