<?xml version="1.0" encoding="UTF-8" standalone="no"?>
<!DOCTYPE svg PUBLIC "-//W3C//DTD SVG 1.1//EN"
 "http://www.w3.org/Graphics/SVG/1.1/DTD/svg11.dtd">
<!-- Generated by graphviz version 2.36.0 (20140111.2315)
 -->
<!-- Title: %3 Pages: 1 -->
<svg width="394pt" height="276pt"
 viewBox="0.00 0.00 393.86 275.75" xmlns="http://www.w3.org/2000/svg" xmlns:xlink="http://www.w3.org/1999/xlink">
<g id="graph0" class="graph" transform="scale(1 1) rotate(0) translate(4 271.753)">
<title>%3</title>
<polygon fill="white" stroke="none" points="-4,4 -4,-271.753 389.859,-271.753 389.859,4 -4,4"/>
<!-- 0 -->
<g id="node1" class="node"><title>0</title>
<path fill="olivedrab" stroke="black" stroke-width="0.5" d="M207.147,-134.678C207.147,-134.678 253.147,-134.678 253.147,-134.678 253.147,-136.314 253.06,-137.948 252.886,-139.575 252.712,-141.201 252.451,-142.818 252.105,-144.416 251.758,-146.015 251.327,-147.594 250.813,-149.147 250.298,-150.7 249.701,-152.224 249.024,-153.713 248.347,-155.202 247.591,-156.654 246.76,-158.063 245.928,-159.472 245.022,-160.835 244.045,-162.147 243.068,-163.459 242.022,-164.718 240.911,-165.919 239.8,-167.12 238.626,-168.26 237.393,-169.336 237.393,-169.336 207.147,-134.678 207.147,-134.678"/>
<path fill="#1874cd" stroke="black" stroke-width="0.5" d="M207.147,-134.678C207.147,-134.678 237.393,-169.336 237.393,-169.336 236.413,-170.191 235.397,-171.005 234.348,-171.774 233.298,-172.544 232.217,-173.268 231.106,-173.946 229.995,-174.624 228.857,-175.254 227.692,-175.835 226.528,-176.416 225.34,-176.947 224.131,-177.428 222.922,-177.908 221.693,-178.337 220.447,-178.713 219.202,-179.089 217.941,-179.413 216.668,-179.682 215.395,-179.951 214.111,-180.166 212.82,-180.327 211.529,-180.487 210.231,-180.593 208.931,-180.643 207.631,-180.694 206.329,-180.689 205.029,-180.629 203.73,-180.569 202.433,-180.454 201.143,-180.284 199.853,-180.115 198.571,-179.89 197.3,-179.612 196.029,-179.333 194.771,-179.001 193.528,-178.615 192.285,-178.23 191.059,-177.792 189.853,-177.303 188.648,-176.814 187.463,-176.274 186.304,-175.684 185.144,-175.095 184.009,-174.456 182.904,-173.771 181.798,-173.085 180.722,-172.353 179.678,-171.576 178.634,-170.799 177.624,-169.978 176.65,-169.115 175.676,-168.252 174.739,-167.349 173.842,-166.407 172.944,-165.465 172.087,-164.485 171.273,-163.47 170.458,-162.456 169.687,-161.407 168.962,-160.327 168.236,-159.247 167.557,-158.136 166.926,-156.999 166.294,-155.861 165.712,-154.697 165.179,-153.51 164.646,-152.323 164.164,-151.114 163.734,-149.886 163.304,-148.658 162.926,-147.412 162.601,-146.152 162.277,-144.892 162.006,-143.619 161.789,-142.336 161.573,-141.053 161.411,-139.762 161.303,-138.465 161.196,-137.168 161.144,-135.867 161.147,-134.566 161.151,-133.265 161.209,-131.965 161.322,-130.669 161.436,-129.373 161.604,-128.082 161.827,-126.8 162.05,-125.518 162.327,-124.246 162.658,-122.988 162.988,-121.729 163.372,-120.486 163.808,-119.26 164.244,-118.034 164.732,-116.827 165.271,-115.643 165.809,-114.458 166.397,-113.297 167.034,-112.162 167.671,-111.028 168.356,-109.921 169.087,-108.844 169.817,-107.768 170.593,-106.723 171.413,-105.712 172.232,-104.701 173.094,-103.726 173.996,-102.788 174.898,-101.85 175.839,-100.951 176.817,-100.093 177.796,-99.2354 178.81,-98.4194 179.857,-97.6475 180.905,-96.8756 181.984,-96.1485 183.093,-95.4681 184.202,-94.7877 185.34,-94.1547 186.503,-93.5708 187.665,-92.9868 188.852,-92.4525 190.06,-91.9692 191.268,-91.4859 192.496,-91.054 193.741,-90.6748 194.986,-90.2956 196.246,-89.9694 197.518,-89.6971 198.79,-89.4247 200.074,-89.2064 201.364,-89.0429 202.655,-88.8793 203.952,-88.7705 205.252,-88.7169 206.552,-88.6633 207.854,-88.6649 209.154,-88.7217 210.454,-88.7784 211.751,-88.8903 213.041,-89.057 214.331,-89.2237 215.614,-89.4451 216.886,-89.7205 218.157,-89.996 219.417,-90.3253 220.66,-90.7075 221.904,-91.0897 223.131,-91.5245 224.338,-92.0107 225.545,-92.497 226.73,-93.0342 227.892,-93.621 229.053,-94.2077 230.189,-94.8435 231.296,-95.5265 232.404,-96.2096 233.482,-96.9393 234.527,-97.7137 235.573,-98.4882 236.585,-99.3066 237.561,-100.167 238.537,-101.027 239.476,-101.928 240.376,-102.868 241.276,-103.808 242.135,-104.786 242.952,-105.799 243.769,-106.811 244.543,-107.858 245.271,-108.937 245.999,-110.015 246.681,-111.124 247.315,-112.26 247.949,-113.396 248.535,-114.558 249.07,-115.744 249.606,-116.93 250.091,-118.138 250.524,-119.365 250.957,-120.592 251.338,-121.836 251.665,-123.096 251.993,-124.355 252.267,-125.627 252.487,-126.91 252.706,-128.192 252.872,-129.483 252.982,-130.78 253.092,-132.076 253.147,-133.377 253.147,-134.678 253.147,-134.678 207.147,-134.678 207.147,-134.678"/>
<ellipse fill="none" stroke="black" cx="207.147" cy="-134.678" rx="46" ry="46"/>
</g>
<!-- 1 -->
<g id="node2" class="node"><title>1</title>
<ellipse fill="#1874cd" stroke="black" cx="178.411" cy="-219.697" rx="5" ry="5"/>
</g>
<!-- 0&#45;&#45;1 -->
<g id="edge1" class="edge"><title>0&#45;&#45;1</title>
<path fill="none" stroke="black" d="M192.274,-178.682C187.344,-193.268 182.493,-207.62 180.048,-214.855"/>
</g>
<!-- anon_0_9_0 -->
<g id="node30" class="node"><title>anon_0_9_0</title>
<ellipse fill="white" stroke="black" cx="192.288" cy="-45.6551" rx="2.5" ry="2.5"/>
</g>
<!-- 0&#45;&#45;anon_0_9_0 -->
<g id="edge2" class="edge"><title>0&#45;&#45;anon_0_9_0</title>
<path fill="none" stroke="black" d="M199.543,-89.1234C196.63,-71.6697 193.753,-54.4301 192.704,-48.1466"/>
</g>
<!-- anon_0_28_0 -->
<g id="node31" class="node"><title>anon_0_28_0</title>
<ellipse fill="white" stroke="black" cx="299.634" cy="-154.697" rx="2.5" ry="2.5"/>
</g>
<!-- 0&#45;&#45;anon_0_28_0 -->
<g id="edge4" class="edge"><title>0&#45;&#45;anon_0_28_0</title>
<path fill="none" stroke="black" d="M252.307,-144.453C271.016,-148.502 289.961,-152.603 296.885,-154.102"/>
</g>
<!-- 2 -->
<g id="node3" class="node"><title>2</title>
<ellipse fill="#1874cd" stroke="black" cx="291.174" cy="-105.296" rx="5" ry="5"/>
</g>
<!-- 2&#45;&#45;0 -->
<g id="edge7" class="edge"><title>2&#45;&#45;0</title>
<path fill="none" stroke="black" d="M286.17,-107.046C278.962,-109.566 264.953,-114.465 250.707,-119.446"/>
</g>
<!-- 3 -->
<g id="node4" class="node"><title>3</title>
<ellipse fill="#1874cd" stroke="black" cx="132.461" cy="-182.049" rx="5" ry="5"/>
</g>
<!-- 3&#45;&#45;0 -->
<g id="edge8" class="edge"><title>3&#45;&#45;0</title>
<path fill="none" stroke="black" d="M136.909,-179.228C143.253,-175.204 155.524,-167.421 168.058,-159.471"/>
</g>
<!-- 4 -->
<g id="node5" class="node"><title>4</title>
<ellipse fill="#1874cd" stroke="black" cx="195.614" cy="-221.708" rx="3.5" ry="3.5"/>
</g>
<!-- 4&#45;&#45;0 -->
<g id="edge9" class="edge"><title>4&#45;&#45;0</title>
<path fill="none" stroke="black" d="M196.11,-217.968C197.015,-211.136 199.035,-195.896 201.102,-180.296"/>
</g>
<!-- 5 -->
<g id="node6" class="node"><title>5</title>
<ellipse fill="#1874cd" stroke="black" cx="120.182" cy="-139.747" rx="3.5" ry="3.5"/>
</g>
<!-- 5&#45;&#45;0 -->
<g id="edge10" class="edge"><title>5&#45;&#45;0</title>
<path fill="none" stroke="black" d="M123.919,-139.529C130.681,-139.135 145.685,-138.26 161.118,-137.361"/>
</g>
<!-- 6 -->
<g id="node7" class="node"><title>6</title>
<ellipse fill="#1874cd" stroke="black" cx="293.785" cy="-125.321" rx="3.5" ry="3.5"/>
</g>
<!-- 6&#45;&#45;0 -->
<g id="edge11" class="edge"><title>6&#45;&#45;0</title>
<path fill="none" stroke="black" d="M290.062,-125.723C283.325,-126.45 268.378,-128.065 253.003,-129.725"/>
</g>
<!-- 7 -->
<g id="node8" class="node"><title>7</title>
<ellipse fill="#1874cd" stroke="black" cx="287.576" cy="-168.072" rx="3.5" ry="3.5"/>
</g>
<!-- 7&#45;&#45;0 -->
<g id="edge12" class="edge"><title>7&#45;&#45;0</title>
<path fill="none" stroke="black" d="M284.121,-166.637C277.866,-164.041 263.99,-158.279 249.717,-152.353"/>
</g>
<!-- 8 -->
<g id="node9" class="node"><title>8</title>
<ellipse fill="#1874cd" stroke="black" cx="265.579" cy="-200.073" rx="3.5" ry="3.5"/>
</g>
<!-- 8&#45;&#45;0 -->
<g id="edge13" class="edge"><title>8&#45;&#45;0</title>
<path fill="none" stroke="black" d="M263.069,-197.263C258.525,-192.178 248.444,-180.896 238.074,-169.29"/>
</g>
<!-- 9 -->
<g id="node10" class="node"><title>9</title>
<ellipse fill="#1874cd" stroke="black" cx="183.387" cy="-3.5" rx="3.5" ry="3.5"/>
</g>
<!-- 10 -->
<g id="node11" class="node"><title>10</title>
<ellipse fill="#1874cd" stroke="black" cx="65.1317" cy="-20.1547" rx="3.5" ry="3.5"/>
</g>
<!-- 11 -->
<g id="node12" class="node"><title>11</title>
<ellipse fill="#1874cd" stroke="black" cx="333.517" cy="-6.98607" rx="3.5" ry="3.5"/>
</g>
<!-- anon_11_0_0 -->
<g id="node33" class="node"><title>anon_11_0_0</title>
<ellipse fill="white" stroke="black" cx="302.928" cy="-37.1224" rx="2.5" ry="2.5"/>
</g>
<!-- 11&#45;&#45;anon_11_0_0 -->
<g id="edge14" class="edge"><title>11&#45;&#45;anon_11_0_0</title>
<path fill="none" stroke="black" d="M330.694,-9.76721C324.541,-15.8289 310.056,-30.099 304.841,-35.2372"/>
</g>
<!-- 12 -->
<g id="node13" class="node"><title>12</title>
<ellipse fill="#1874cd" stroke="black" cx="231.033" cy="-3.65789" rx="3.5" ry="3.5"/>
</g>
<!-- anon_12_0_0 -->
<g id="node35" class="node"><title>anon_12_0_0</title>
<ellipse fill="white" stroke="black" cx="222.956" cy="-45.9609" rx="2.5" ry="2.5"/>
</g>
<!-- 12&#45;&#45;anon_12_0_0 -->
<g id="edge17" class="edge"><title>12&#45;&#45;anon_12_0_0</title>
<path fill="none" stroke="black" d="M230.344,-7.26463C228.757,-15.5766 224.872,-35.9272 223.471,-43.2665"/>
</g>
<!-- 13 -->
<g id="node14" class="node"><title>13</title>
<ellipse fill="#1874cd" stroke="black" cx="173.444" cy="-54.5772" rx="3.5" ry="3.5"/>
</g>
<!-- 13&#45;&#45;0 -->
<g id="edge19" class="edge"><title>13&#45;&#45;0</title>
<path fill="none" stroke="black" d="M174.892,-58.019C177.488,-64.1877 183.216,-77.8021 189.136,-91.8721"/>
</g>
<!-- 14 -->
<g id="node15" class="node"><title>14</title>
<ellipse fill="#1874cd" stroke="black" cx="154.43" cy="-65.6357" rx="3.5" ry="3.5"/>
</g>
<!-- 14&#45;&#45;0 -->
<g id="edge20" class="edge"><title>14&#45;&#45;0</title>
<path fill="none" stroke="black" d="M156.695,-68.6024C160.755,-73.9194 169.715,-85.6542 178.975,-97.7818"/>
</g>
<!-- 15 -->
<g id="node16" class="node"><title>15</title>
<ellipse fill="#1874cd" stroke="black" cx="213.661" cy="-222.101" rx="3.5" ry="3.5"/>
</g>
<!-- 15&#45;&#45;0 -->
<g id="edge21" class="edge"><title>15&#45;&#45;0</title>
<path fill="none" stroke="black" d="M213.381,-218.345C212.875,-211.547 211.751,-196.464 210.595,-180.949"/>
</g>
<!-- 16 -->
<g id="node17" class="node"><title>16</title>
<ellipse fill="#1874cd" stroke="black" cx="121.24" cy="-119.565" rx="3.5" ry="3.5"/>
</g>
<!-- 16&#45;&#45;0 -->
<g id="edge22" class="edge"><title>16&#45;&#45;0</title>
<path fill="none" stroke="black" d="M124.931,-120.214C131.611,-121.389 146.433,-123.997 161.678,-126.679"/>
</g>
<!-- 17 -->
<g id="node18" class="node"><title>17</title>
<ellipse fill="#1874cd" stroke="black" cx="163.139" cy="-210.441" rx="3.5" ry="3.5"/>
</g>
<!-- 17&#45;&#45;0 -->
<g id="edge23" class="edge"><title>17&#45;&#45;0</title>
<path fill="none" stroke="black" d="M165.03,-207.185C168.452,-201.294 176.045,-188.223 183.855,-174.778"/>
</g>
<!-- 18 -->
<g id="node19" class="node"><title>18</title>
<ellipse fill="#1874cd" stroke="black" cx="117.833" cy="-175.458" rx="3.5" ry="3.5"/>
</g>
<!-- 18&#45;&#45;0 -->
<g id="edge24" class="edge"><title>18&#45;&#45;0</title>
<path fill="none" stroke="black" d="M121.225,-173.91C128.681,-170.505 147.269,-162.018 165.256,-153.805"/>
</g>
<!-- anon_18_26_0 -->
<g id="node36" class="node"><title>anon_18_26_0</title>
<ellipse fill="white" stroke="black" cx="78.377" cy="-195.788" rx="2.5" ry="2.5"/>
</g>
<!-- 18&#45;&#45;anon_18_26_0 -->
<g id="edge25" class="edge"><title>18&#45;&#45;anon_18_26_0</title>
<path fill="none" stroke="black" d="M114.469,-177.192C106.716,-181.186 87.7354,-190.966 80.8901,-194.493"/>
</g>
<!-- 19 -->
<g id="node20" class="node"><title>19</title>
<ellipse fill="#1874cd" stroke="black" cx="250.636" cy="-210.764" rx="3.5" ry="3.5"/>
</g>
<!-- 19&#45;&#45;0 -->
<g id="edge28" class="edge"><title>19&#45;&#45;0</title>
<path fill="none" stroke="black" d="M248.767,-207.494C245.386,-201.578 237.883,-188.451 230.165,-174.949"/>
</g>
<!-- 20 -->
<g id="node21" class="node"><title>20</title>
<ellipse fill="#1874cd" stroke="black" cx="245.143" cy="-264.253" rx="3.5" ry="3.5"/>
</g>
<!-- anon_20_0_0 -->
<g id="node38" class="node"><title>anon_20_0_0</title>
<ellipse fill="white" stroke="black" cx="233.26" cy="-222.696" rx="2.5" ry="2.5"/>
</g>
<!-- 20&#45;&#45;anon_20_0_0 -->
<g id="edge29" class="edge"><title>20&#45;&#45;anon_20_0_0</title>
<path fill="none" stroke="black" d="M244.13,-260.71C241.795,-252.544 236.079,-232.553 234.017,-225.343"/>
</g>
<!-- 21 -->
<g id="node22" class="node"><title>21</title>
<ellipse fill="olivedrab" stroke="black" cx="277.794" cy="-186.382" rx="3.5" ry="3.5"/>
</g>
<!-- 21&#45;&#45;0 -->
<g id="edge31" class="edge"><title>21&#45;&#45;0</title>
<path fill="none" stroke="black" d="M274.759,-184.16C269.265,-180.14 257.077,-171.219 244.54,-162.044"/>
</g>
<!-- 22 -->
<g id="node23" class="node"><title>22</title>
<ellipse fill="olivedrab" stroke="black" cx="127.321" cy="-100.018" rx="3.5" ry="3.5"/>
</g>
<!-- 22&#45;&#45;0 -->
<g id="edge32" class="edge"><title>22&#45;&#45;0</title>
<path fill="none" stroke="black" d="M130.751,-101.508C136.959,-104.203 150.731,-110.182 164.897,-116.333"/>
</g>
<!-- 23 -->
<g id="node24" class="node"><title>23</title>
<ellipse fill="#1874cd" stroke="black" cx="132.309" cy="-75.1324" rx="3.5" ry="3.5"/>
</g>
<!-- 23&#45;&#45;0 -->
<g id="edge33" class="edge"><title>23&#45;&#45;0</title>
<path fill="none" stroke="black" d="M135.151,-77.3939C141.238,-82.2375 156.181,-94.1268 170.886,-105.826"/>
</g>
<!-- anon_23_10_0 -->
<g id="node39" class="node"><title>anon_23_10_0</title>
<ellipse fill="white" stroke="black" cx="98.2114" cy="-47.525" rx="2.5" ry="2.5"/>
</g>
<!-- 23&#45;&#45;anon_23_10_0 -->
<g id="edge34" class="edge"><title>23&#45;&#45;anon_23_10_0</title>
<path fill="none" stroke="black" d="M129.162,-72.5846C122.304,-67.0317 106.158,-53.959 100.344,-49.252"/>
</g>
<!-- 24 -->
<g id="node25" class="node"><title>24</title>
<ellipse fill="#1874cd" stroke="black" cx="148.145" cy="-199.041" rx="3.5" ry="3.5"/>
</g>
<!-- 24&#45;&#45;0 -->
<g id="edge36" class="edge"><title>24&#45;&#45;0</title>
<path fill="none" stroke="black" d="M150.68,-196.276C155.268,-191.271 165.448,-180.166 175.919,-168.744"/>
</g>
<!-- 25 -->
<g id="node26" class="node"><title>25</title>
<ellipse fill="#1874cd" stroke="black" cx="244.599" cy="-56.4111" rx="3.5" ry="3.5"/>
</g>
<!-- 25&#45;&#45;0 -->
<g id="edge37" class="edge"><title>25&#45;&#45;0</title>
<path fill="none" stroke="black" d="M242.99,-59.7741C240.105,-65.8015 233.74,-79.1042 227.161,-92.8521"/>
</g>
<!-- 26 -->
<g id="node27" class="node"><title>26</title>
<ellipse fill="#1874cd" stroke="black" cx="3.5" cy="-236.101" rx="3.5" ry="3.5"/>
</g>
<!-- 27 -->
<g id="node28" class="node"><title>27</title>
<ellipse fill="#1874cd" stroke="black" cx="279.773" cy="-87.0382" rx="3.5" ry="3.5"/>
</g>
<!-- 27&#45;&#45;0 -->
<g id="edge38" class="edge"><title>27&#45;&#45;0</title>
<path fill="none" stroke="black" d="M276.652,-89.0853C271.059,-92.754 258.716,-100.851 245.958,-109.219"/>
</g>
<!-- 28 -->
<g id="node29" class="node"><title>28</title>
<ellipse fill="#1874cd" stroke="black" cx="382.359" cy="-177.048" rx="3.5" ry="3.5"/>
</g>
<!-- anon_0_9_0&#45;&#45;9 -->
<g id="edge3" class="edge"><title>anon_0_9_0&#45;&#45;9</title>
<path fill="none" stroke="black" d="M191.704,-42.8892C190.157,-35.5624 185.951,-15.6424 184.185,-7.27809"/>
</g>
<!-- anon_0_28_1 -->
<g id="node32" class="node"><title>anon_0_28_1</title>
<ellipse fill="white" stroke="black" cx="340.984" cy="-165.543" rx="2.5" ry="2.5"/>
</g>
<!-- anon_0_28_0&#45;&#45;anon_0_28_1 -->
<g id="edge5" class="edge"><title>anon_0_28_0&#45;&#45;anon_0_28_1</title>
<path fill="none" stroke="black" d="M302.348,-155.408C309.822,-157.369 330.656,-162.834 338.207,-164.814"/>
</g>
<!-- anon_0_28_1&#45;&#45;28 -->
<g id="edge6" class="edge"><title>anon_0_28_1&#45;&#45;28</title>
<path fill="none" stroke="black" d="M343.699,-166.298C350.89,-168.297 370.442,-173.734 378.651,-176.017"/>
</g>
<!-- anon_11_0_1 -->
<g id="node34" class="node"><title>anon_11_0_1</title>
<ellipse fill="white" stroke="black" cx="272.467" cy="-67.0454" rx="2.5" ry="2.5"/>
</g>
<!-- anon_11_0_0&#45;&#45;anon_11_0_1 -->
<g id="edge15" class="edge"><title>anon_11_0_0&#45;&#45;anon_11_0_1</title>
<path fill="none" stroke="black" d="M300.929,-39.0857C295.423,-44.4946 280.075,-59.5718 274.513,-65.0356"/>
</g>
<!-- anon_11_0_1&#45;&#45;0 -->
<g id="edge16" class="edge"><title>anon_11_0_1&#45;&#45;0</title>
<path fill="none" stroke="black" d="M270.583,-68.9965C265.772,-73.978 252.482,-87.7382 239.302,-101.385"/>
</g>
<!-- anon_12_0_0&#45;&#45;0 -->
<g id="edge18" class="edge"><title>anon_12_0_0&#45;&#45;0</title>
<path fill="none" stroke="black" d="M222.5,-48.5204C221.376,-54.8275 218.341,-71.863 215.262,-89.1377"/>
</g>
<!-- anon_18_26_1 -->
<g id="node37" class="node"><title>anon_18_26_1</title>
<ellipse fill="white" stroke="black" cx="41.0415" cy="-215.711" rx="2.5" ry="2.5"/>
</g>
<!-- anon_18_26_0&#45;&#45;anon_18_26_1 -->
<g id="edge26" class="edge"><title>anon_18_26_0&#45;&#45;anon_18_26_1</title>
<path fill="none" stroke="black" d="M75.9273,-197.095C69.1786,-200.697 50.3665,-210.735 43.5492,-214.373"/>
</g>
<!-- anon_18_26_1&#45;&#45;26 -->
<g id="edge27" class="edge"><title>anon_18_26_1&#45;&#45;26</title>
<path fill="none" stroke="black" d="M38.5783,-217.049C32.0534,-220.593 14.3135,-230.228 6.8646,-234.274"/>
</g>
<!-- anon_20_0_0&#45;&#45;0 -->
<g id="edge30" class="edge"><title>anon_20_0_0&#45;&#45;0</title>
<path fill="none" stroke="black" d="M232.507,-220.156C230.617,-213.786 225.455,-196.385 220.277,-178.933"/>
</g>
<!-- anon_23_10_0&#45;&#45;10 -->
<g id="edge35" class="edge"><title>anon_23_10_0&#45;&#45;10</title>
<path fill="none" stroke="black" d="M96.0409,-45.7292C90.2914,-40.972 74.66,-28.0385 68.0964,-22.6077"/>
</g>
</g>
</svg>
