<?xml version="1.0" encoding="UTF-8" standalone="no"?>
<!DOCTYPE svg PUBLIC "-//W3C//DTD SVG 1.1//EN"
 "http://www.w3.org/Graphics/SVG/1.1/DTD/svg11.dtd">
<!-- Generated by graphviz version 2.38.0 (20140413.2041)
 -->
<!-- Title: %3 Pages: 1 -->
<svg width="199pt" height="191pt"
 viewBox="0.00 0.00 199.09 191.36" xmlns="http://www.w3.org/2000/svg" xmlns:xlink="http://www.w3.org/1999/xlink">
<g id="graph0" class="graph" transform="scale(1 1) rotate(0) translate(73.7416 130.826)">
<title>%3</title>
<polygon fill="white" stroke="none" points="-73.7416,60.5367 -73.7416,-130.826 125.35,-130.826 125.35,60.5367 -73.7416,60.5367"/>
<!-- 0 -->
<g id="node1" class="node"><title>0</title>
<path fill="olivedrab" stroke="black" stroke-width="0.5" d="M6.05903,-51.2598C6.05903,-51.2598 32.559,-51.2598 32.559,-51.2598 32.559,-52.001 32.5279,-52.7419 32.4658,-53.4804 32.4037,-54.219 32.3107,-54.9546 32.1869,-55.6854 32.0631,-56.4162 31.9087,-57.1414 31.7241,-57.8593 31.5395,-58.5771 31.3249,-59.2869 31.0809,-59.9867 30.8368,-60.6865 30.5634,-61.3758 30.2616,-62.0528 29.9597,-62.7297 29.6296,-63.3936 29.272,-64.0429 28.9145,-64.6921 28.5299,-65.3261 28.1192,-65.9431 27.7085,-66.5601 27.2722,-67.1596 26.8112,-67.74 26.3503,-68.3204 25.8652,-68.8813 25.3573,-69.421 24.8493,-69.9608 24.3189,-70.479 23.7675,-70.9743 23.2161,-71.4695 22.6442,-71.9415 22.0533,-72.3888 21.4623,-72.8362 20.8528,-73.2585 20.2265,-73.6548 19.6001,-74.051 18.9574,-74.4208 18.3,-74.7632 17.6427,-75.1056 16.9712,-75.4202 16.2875,-75.7063 15.6037,-75.9924 14.9083,-76.2496 14.203,-76.4774 13.4977,-76.7052 12.7831,-76.9033 12.0612,-77.0711 11.3393,-77.239 10.6106,-77.3765 9.87719,-77.4833 9.14374,-77.5901 8.40614,-77.6661 7.66632,-77.711 6.92651,-77.756 6.18513,-77.7699 5.44415,-77.7527 4.70317,-77.7355 3.96324,-77.6872 3.22631,-77.608 2.48938,-77.5288 1.75609,-77.4187 1.02839,-77.278 0.300687,-77.1372 -0.420791,-76.9661 -1.13414,-76.7649 -1.8475,-76.5637 -2.55209,-76.3327 -3.24608,-76.0724 -3.94006,-75.8122 -4.62282,-75.5229 -5.29256,-75.2054 -5.96229,-74.8879 -6.61841,-74.5425 -7.25919,-74.17 -7.89996,-73.7975 -8.52483,-73.3983 -9.13213,-72.9734 -9.73944,-72.5485 -10.3287,-72.0983 -10.8982,-71.6241 -11.4678,-71.1498 -12.0172,-70.6518 -12.545,-70.1315 -13.0729,-69.6111 -13.5786,-69.0689 -14.061,-68.5061 -14.5433,-67.9434 -15.0019,-67.3607 -15.4354,-66.7595 -15.8689,-66.1583 -16.277,-65.5392 -16.6586,-64.9038 -17.0402,-64.2684 -17.395,-63.6173 -17.722,-62.9522 -18.0491,-62.2871 -18.348,-61.6085 -18.6182,-60.9183 -18.8883,-60.2281 -19.1294,-59.5269 -19.3407,-58.8165 -19.5521,-58.1061 -19.7335,-57.3871 -19.8846,-56.6615 -20.0357,-55.9359 -20.1563,-55.2042 -20.246,-54.4685 -20.3357,-53.7328 -20.3946,-52.9936 -20.4224,-52.2529 -20.4501,-51.5123 -20.4468,-50.7708 -20.4124,-50.0304 -20.3781,-49.29 -20.3126,-48.5514 -20.2163,-47.8165 -20.12,-47.0816 -19.9929,-46.3511 -19.8354,-45.6268 -19.6778,-44.9026 -19.4899,-44.1853 -19.2723,-43.4768 -19.0546,-42.7683 -18.8073,-42.0693 -18.531,-41.3815 -18.2547,-40.6937 -17.9497,-40.0179 -17.6167,-39.3557 -17.2838,-38.6935 -16.9232,-38.0456 -16.5359,-37.4136 -16.1487,-36.7817 -15.7351,-36.1662 -15.2962,-35.5689 -14.8573,-34.9717 -14.3936,-34.393 -13.9063,-33.8346 -13.4189,-33.2762 -12.9083,-32.7385 -12.3759,-32.2229 -11.8434,-31.7073 -11.2896,-31.2143 -10.7158,-30.7451 -10.142,-30.2759 -9.54881,-29.831 -8.93774,-29.4116 -8.32666,-28.9921 -7.69826,-28.5985 -7.05418,-28.2317 -6.41011,-27.865 -5.75093,-27.5254 -5.07839,-27.2139 -4.40585,-26.9024 -3.72053,-26.6192 -3.02425,-26.3652 -2.32797,-26.1111 -1.62134,-25.8864 -0.906224,-25.6916 -0.191105,-25.4968 0.531873,-25.332 1.2608,-25.1978 1.98973,-25.0636 2.72397,-24.9601 3.46158,-24.8874 4.19919,-24.8148 4.93952,-24.7731 5.68063,-24.7625 6.42173,-24.7519 7.16295,-24.7725 7.90234,-24.824 8.64172,-24.8756 9.37862,-24.9581 10.1111,-25.0715 10.8435,-25.1848 11.5709,-25.3288 12.2913,-25.5031 13.0117,-25.6774 13.7245,-25.8819 14.4277,-26.1159 15.131,-26.35 15.8241,-26.6135 16.5053,-26.9056 17.1864,-27.1978 17.855,-27.5184 18.5093,-27.8667 19.1636,-28.2149 19.803,-28.5904 20.4258,-28.9922 21.0486,-29.394 21.6543,-29.8218 22.2412,-30.2744 22.2412,-30.2744 6.05903,-51.2598 6.05903,-51.2598"/>
<path fill="#1874cd" stroke="black" stroke-width="0.5" d="M6.05903,-51.2598C6.05903,-51.2598 22.2412,-30.2744 22.2412,-30.2744 23.0405,-30.8908 23.804,-31.5524 24.5279,-32.2558 25.2517,-32.9593 25.9348,-33.7036 26.5738,-34.485 27.2127,-35.2664 27.8065,-36.0837 28.3522,-36.9328 28.898,-37.782 29.3947,-38.6616 29.8401,-39.5675 30.2855,-40.4733 30.6787,-41.4038 31.0179,-42.3545 31.3571,-43.3052 31.6417,-44.2745 31.8703,-45.2577 32.099,-46.2408 32.2712,-47.2362 32.3863,-48.2391 32.5014,-49.2419 32.559,-50.2504 32.559,-51.2598 32.559,-51.2598 6.05903,-51.2598 6.05903,-51.2598"/>
<ellipse fill="none" stroke="black" cx="6.05903" cy="-51.2598" rx="26.5" ry="26.5"/>
<text text-anchor="middle" x="6.05903" y="-49.3598" font-family="monospace" font-size="8.00">0</text>
</g>
<!-- 2 -->
<g id="node3" class="node"><title>2</title>
<ellipse fill="olivedrab" stroke="black" cx="64.0766" cy="8.68375" rx="9" ry="9"/>
<text text-anchor="middle" x="64.0766" y="10.5837" font-family="monospace" font-size="8.00">2</text>
</g>
<!-- 0&#45;&gt;2 -->
<g id="edge1" class="edge"><title>0&#45;&gt;2</title>
<path fill="none" stroke="black" d="M24.7355,-31.9633C35.9983,-20.3267 49.6513,-6.22046 57.5533,1.94393"/>
</g>
<!-- 4 -->
<g id="node5" class="node"><title>4</title>
<ellipse fill="olivedrab" stroke="black" cx="94.8012" cy="-55.954" rx="11" ry="11"/>
<text text-anchor="middle" x="94.8012" y="-54.054" font-family="monospace" font-size="8.00">4</text>
</g>
<!-- 0&#45;&gt;4 -->
<g id="edge2" class="edge"><title>0&#45;&gt;4</title>
<path fill="none" stroke="black" d="M32.6846,-52.6682C49.6345,-53.5648 70.7208,-54.6802 83.4521,-55.3537"/>
</g>
<!-- 5 -->
<g id="node6" class="node"><title>5</title>
<ellipse fill="olivedrab" stroke="black" cx="-66.2416" cy="-17.8969" rx="3.5" ry="3.5"/>
<text text-anchor="middle" x="-66.2416" y="-15.9969" font-family="monospace" font-size="8.00">5</text>
</g>
<!-- 0&#45;&gt;5 -->
<g id="edge3" class="edge"><title>0&#45;&gt;5</title>
<path fill="none" stroke="black" d="M-18.016,-40.1505C-34.4475,-32.5682 -54.6393,-23.2507 -62.687,-19.5371"/>
</g>
<!-- 6 -->
<g id="node7" class="node"><title>6</title>
<ellipse fill="olivedrab" stroke="black" cx="0.304442" cy="26.0725" rx="3.5" ry="3.5"/>
<text text-anchor="middle" x="0.304442" y="27.9725" font-family="monospace" font-size="8.00">6</text>
</g>
<!-- 0&#45;&gt;6 -->
<g id="edge4" class="edge"><title>0&#45;&gt;6</title>
<path fill="none" stroke="black" d="M4.07863,-24.6464C2.77816,-7.1703 1.20609,13.9557 0.580543,22.3621"/>
</g>
<!-- 7 -->
<g id="node8" class="node"><title>7</title>
<ellipse fill="olivedrab" stroke="black" cx="43.4287" cy="-119.976" rx="3.5" ry="3.5"/>
<text text-anchor="middle" x="43.4287" y="-118.076" font-family="monospace" font-size="8.00">7</text>
</g>
<!-- 0&#45;&gt;7 -->
<g id="edge5" class="edge"><title>0&#45;&gt;7</title>
<path fill="none" stroke="black" d="M18.9195,-74.9079C27.3646,-90.4368 37.5734,-109.209 41.6357,-116.679"/>
</g>
<!-- 8 -->
<g id="node9" class="node"><title>8</title>
<ellipse fill="olivedrab" stroke="black" cx="-17.5826" cy="-123.326" rx="3.5" ry="3.5"/>
<text text-anchor="middle" x="-17.5826" y="-121.426" font-family="monospace" font-size="8.00">8</text>
</g>
<!-- 0&#45;&gt;8 -->
<g id="edge6" class="edge"><title>0&#45;&gt;8</title>
<path fill="none" stroke="black" d="M-2.20965,-76.4649C-7.53587,-92.7006 -13.9228,-112.17 -16.4622,-119.91"/>
</g>
<!-- 9 -->
<g id="node10" class="node"><title>9</title>
<ellipse fill="olivedrab" stroke="black" cx="-64.2633" cy="-79.8701" rx="3.5" ry="3.5"/>
<text text-anchor="middle" x="-64.2633" y="-77.9701" font-family="monospace" font-size="8.00">9</text>
</g>
<!-- 0&#45;&gt;9 -->
<g id="edge7" class="edge"><title>0&#45;&gt;9</title>
<path fill="none" stroke="black" d="M-18.5363,-61.2663C-31.6562,-66.6041 -46.9398,-72.8221 -56.0957,-76.5472"/>
<polygon fill="black" stroke="black" points="-56.9587,-75.0089 -60.9306,-78.5142 -55.6397,-78.2509 -56.9587,-75.0089"/>
<text text-anchor="middle" x="-50.816" y="-62.5068" font-family="monospace" font-size="8.00">K251R</text>
</g>
<!-- 1 -->
<g id="node2" class="node"><title>1</title>
<ellipse fill="olivedrab" stroke="black" cx="38.0636" cy="53.0367" rx="3.5" ry="3.5"/>
<text text-anchor="middle" x="38.0636" y="54.9367" font-family="monospace" font-size="8.00">1</text>
</g>
<!-- 1&#45;&gt;2 -->
<g id="edge8" class="edge"><title>1&#45;&gt;2</title>
<path fill="none" stroke="black" d="M39.9344,49.8469C43.9884,42.9347 53.6846,26.4024 59.4803,16.5206"/>
</g>
<!-- 1&#45;&gt;6 -->
<g id="edge10" class="edge"><title>1&#45;&gt;6</title>
<path fill="none" stroke="black" stroke-dasharray="5,2" d="M35.1007,50.9209C28.1465,45.9548 10.8203,33.5819 3.57284,28.4065"/>
</g>
<!-- 3 -->
<g id="node4" class="node"><title>3</title>
<ellipse fill="olivedrab" stroke="black" cx="116.35" cy="-4.34052" rx="5" ry="5"/>
<text text-anchor="middle" x="116.35" y="-2.44052" font-family="monospace" font-size="8.00">3</text>
</g>
<!-- 2&#45;&gt;3 -->
<g id="edge9" class="edge"><title>2&#45;&gt;3</title>
<path fill="none" stroke="black" d="M73.1819,6.41509C84.2974,3.64559 102.692,-0.937575 111.438,-3.11669"/>
</g>
<!-- 3&#45;&gt;4 -->
<g id="edge11" class="edge"><title>3&#45;&gt;4</title>
<path fill="none" stroke="black" stroke-dasharray="5,2" d="M114.361,-9.10367C110.902,-17.389 103.705,-34.6285 99.0714,-45.726"/>
</g>
</g>
</svg>
