<?xml version="1.0" encoding="UTF-8" standalone="no"?>
<!DOCTYPE svg PUBLIC "-//W3C//DTD SVG 1.1//EN"
 "http://www.w3.org/Graphics/SVG/1.1/DTD/svg11.dtd">
<!-- Generated by graphviz version 2.38.0 (20140413.2041)
 -->
<!-- Title: %3 Pages: 1 -->
<svg width="444pt" height="452pt"
 viewBox="0.00 0.00 444.00 451.72" xmlns="http://www.w3.org/2000/svg" xmlns:xlink="http://www.w3.org/1999/xlink">
<g id="graph0" class="graph" transform="scale(1 1) rotate(0) translate(204.987 216.574)">
<title>%3</title>
<polygon fill="white" stroke="none" points="-204.987,235.151 -204.987,-216.574 239.013,-216.574 239.013,235.151 -204.987,235.151"/>
<!-- 0 -->
<g id="node1" class="node"><title>0</title>
<path fill="olivedrab" stroke="black" stroke-width="0.5" d="M89.1265,-10.6425C89.1265,-10.6425 101.126,-10.6425 101.126,-10.6425 101.126,-11.071 101.104,-11.4992 101.058,-11.9253 101.012,-12.3513 100.943,-12.7746 100.852,-13.1933 100.761,-13.612 100.648,-14.0256 100.512,-14.4321 100.377,-14.8387 100.22,-15.2377 100.042,-15.6275 99.8641,-16.0173 99.6653,-16.3973 99.4467,-16.7658 99.228,-17.1343 98.9898,-17.4908 98.733,-17.8339 98.4762,-18.1769 98.2012,-18.5059 97.9092,-18.8196 97.6172,-19.1332 97.3086,-19.4309 96.9848,-19.7115 96.661,-19.9921 96.3223,-20.2552 95.9704,-20.4996 95.6184,-20.744 95.2536,-20.9693 94.8775,-21.1747 94.5014,-21.3801 94.1146,-21.5651 93.7187,-21.7291 93.3228,-21.8931 92.9184,-22.0357 92.5073,-22.1565 92.0961,-22.2772 91.6788,-22.3758 91.2571,-22.4519 90.8354,-22.528 90.41,-22.5814 89.9826,-22.612 89.5551,-22.6425 89.1264,-22.6502 88.6982,-22.6349 88.2699,-22.6196 87.8428,-22.5814 87.4187,-22.5204 87.4187,-22.5204 89.1265,-10.6425 89.1265,-10.6425"/>
<path fill="#1874cd" stroke="black" stroke-width="0.5" d="M89.1265,-10.6425C89.1265,-10.6425 87.4187,-22.5204 87.4187,-22.5204 86.8531,-22.4391 86.294,-22.3175 85.7457,-22.1565 85.1974,-21.9955 84.6613,-21.7955 84.1415,-21.5581 83.6217,-21.3207 83.1195,-21.0465 82.6388,-20.7376 82.1581,-20.4286 81.7,-20.0858 81.2682,-19.7115 80.8363,-19.3373 80.4317,-18.9327 80.0575,-18.5009 79.6833,-18.069 79.3404,-17.611 79.0314,-17.1302 78.7225,-16.6495 78.4483,-16.1473 78.2109,-15.6275 77.9735,-15.1077 77.7736,-14.5716 77.6126,-14.0233 77.4516,-13.475 77.3299,-12.9159 77.2486,-12.3503 77.1673,-11.7847 77.1265,-11.214 77.1265,-10.6425 77.1265,-10.0711 77.1673,-9.50039 77.2486,-8.93476 77.3299,-8.36914 77.4516,-7.81005 77.6126,-7.26175 77.7736,-6.71346 77.9735,-6.17736 78.2109,-5.65756 78.4483,-5.13776 78.7225,-4.63558 79.0314,-4.15485 79.3404,-3.67413 79.6833,-3.21608 80.0575,-2.78421 80.4317,-2.35235 80.8363,-1.94776 81.2682,-1.57355 81.7,-1.19933 82.1581,-0.856445 82.6388,-0.547501 83.1195,-0.238556 83.6217,0.0356555 84.1415,0.273041 84.6613,0.510426 85.1974,0.710379 85.7457,0.871372 86.294,1.03237 86.8531,1.15399 87.4187,1.23531 87.9843,1.31664 88.555,1.35746 89.1265,1.35746 89.6979,1.35746 90.2686,1.31664 90.8343,1.23531 91.3999,1.15399 91.959,1.03237 92.5073,0.871372 93.0556,0.710379 93.5917,0.510426 94.1115,0.273041 94.6313,0.0356553 95.1334,-0.238557 95.6142,-0.547501 96.0949,-0.856445 96.5529,-1.19933 96.9848,-1.57355 97.4167,-1.94776 97.8213,-2.35235 98.1955,-2.78421 98.5697,-3.21608 98.9126,-3.67413 99.2215,-4.15485 99.5305,-4.63558 99.8047,-5.13776 100.042,-5.65756 100.279,-6.17736 100.479,-6.71346 100.64,-7.26175 100.801,-7.81005 100.923,-8.36914 101.004,-8.93477 101.086,-9.50039 101.126,-10.0711 101.126,-10.6425 101.126,-10.6425 89.1265,-10.6425 89.1265,-10.6425"/>
<ellipse fill="none" stroke="black" cx="89.1265" cy="-10.6425" rx="12" ry="12"/>
<text text-anchor="middle" x="89.1265" y="-8.74254" font-family="monospace" font-size="8.00">0</text>
</g>
<!-- 8 -->
<g id="node9" class="node"><title>8</title>
<ellipse fill="olivedrab" stroke="black" cx="118.608" cy="45.2958" rx="3.5" ry="3.5"/>
<text text-anchor="middle" x="118.608" y="47.1958" font-family="monospace" font-size="8.00">8</text>
</g>
<!-- 0&#45;&gt;8 -->
<g id="edge2" class="edge"><title>0&#45;&gt;8</title>
<path fill="none" stroke="black" d="M94.8107,0.142933C101.637,13.0962 112.695,34.0777 116.906,42.067"/>
</g>
<!-- 1 -->
<g id="node2" class="node"><title>1</title>
<path fill="olivedrab" stroke="black" stroke-width="0.5" d="M53.3095,-61.4431C53.3095,-61.4431 67.3095,-61.4431 67.3095,-61.4431 67.3095,-61.9319 67.2839,-62.4204 67.2328,-62.9065 67.1818,-63.3926 67.1052,-63.8757 67.0036,-64.3539 66.902,-64.832 66.7754,-65.3045 66.6243,-65.7693 66.4733,-66.2342 66.298,-66.6909 66.0992,-67.1374 65.9004,-67.584 65.6783,-68.0198 65.4339,-68.4431 65.1895,-68.8664 64.9231,-69.2766 64.6358,-69.6721 64.3485,-70.0676 64.0406,-70.4477 63.7136,-70.8109 63.3865,-71.1742 63.0406,-71.5201 62.6774,-71.8471 62.3141,-72.1742 61.934,-72.482 61.5385,-72.7693 61.1431,-73.0567 60.7329,-73.3231 60.3095,-73.5675 59.8862,-73.8119 59.4504,-74.0339 59.0038,-74.2327 58.5573,-74.4316 58.1007,-74.6068 57.6358,-74.7579 57.1709,-74.9089 56.6984,-75.0355 56.2203,-75.1372 55.7422,-75.2388 55.2591,-75.3153 54.7729,-75.3664 54.2868,-75.4175 53.7983,-75.4431 53.3095,-75.4431 52.8207,-75.4431 52.3323,-75.4175 51.8461,-75.3664 51.36,-75.3153 50.8769,-75.2388 50.3988,-75.1372 49.9207,-75.0355 49.4482,-74.9089 48.9833,-74.7579 48.5184,-74.6068 48.0618,-74.4316 47.6152,-74.2327 47.1687,-74.0339 46.7329,-73.8119 46.3095,-73.5675 45.8862,-73.3231 45.476,-73.0567 45.0805,-72.7693 44.6851,-72.482 44.305,-72.1742 43.9417,-71.8471 43.5785,-71.5201 43.2326,-71.1742 42.9055,-70.8109 42.5784,-70.4477 42.2706,-70.0675 41.9833,-69.6721 41.696,-69.2766 41.4296,-68.8664 41.1852,-68.4431 40.9408,-68.0198 40.7187,-67.584 40.5199,-67.1374 40.3211,-66.6909 40.1458,-66.2342 39.9947,-65.7693 39.8437,-65.3045 39.7171,-64.832 39.6155,-64.3539 39.5138,-63.8757 39.4373,-63.3926 39.3862,-62.9065 39.3351,-62.4204 39.3095,-61.9319 39.3095,-61.4431 39.3095,-60.9543 39.3351,-60.4658 39.3862,-59.9797 39.4373,-59.4936 39.5138,-59.0105 39.6155,-58.5323 39.6155,-58.5323 53.3095,-61.4431 53.3095,-61.4431"/>
<path fill="#1874cd" stroke="black" stroke-width="0.5" d="M53.3095,-61.4431C53.3095,-61.4431 39.6155,-58.5323 39.6155,-58.5323 39.7934,-57.6952 40.0477,-56.8762 40.3752,-56.0855 40.7027,-55.2949 41.102,-54.5359 41.5682,-53.8182 42.0343,-53.1004 42.5652,-52.4269 43.1543,-51.8061 43.7434,-51.1854 44.3882,-50.6199 45.0805,-50.1169 45.7729,-49.6138 46.5099,-49.1753 47.2824,-48.8069 48.0548,-48.4385 48.8594,-48.1416 49.6861,-47.9201 50.5127,-47.6986 51.3579,-47.5534 52.2111,-47.4863 53.0643,-47.4191 53.9218,-47.4303 54.7729,-47.5198 55.6241,-47.6093 56.4652,-47.7766 57.2858,-48.0196 58.1063,-48.2627 58.9029,-48.5805 59.6654,-48.969 60.4279,-49.3575 61.1532,-49.8152 61.8322,-50.3362 62.5112,-50.8571 63.1409,-51.4393 63.7136,-52.0753 64.2862,-52.7113 64.7993,-53.3984 65.2465,-54.1281 65.6937,-54.8578 66.073,-55.627 66.3797,-56.426 66.6864,-57.2249 66.9191,-58.0503 67.0751,-58.8918 67.2311,-59.7333 67.3095,-60.5873 67.3095,-61.4431 67.3095,-61.4431 53.3095,-61.4431 53.3095,-61.4431"/>
<ellipse fill="none" stroke="black" cx="53.3095" cy="-61.4431" rx="14" ry="14"/>
<text text-anchor="middle" x="53.3095" y="-59.5431" font-family="monospace" font-size="8.00">1</text>
</g>
<!-- 1&#45;&gt;0 -->
<g id="edge1" class="edge"><title>1&#45;&gt;0</title>
<path fill="none" stroke="black" d="M61.437,-49.9157C66.6614,-42.5057 73.4878,-32.8235 79.0553,-24.9269"/>
<polygon fill="black" stroke="black" points="80.5498,-25.8442 82.0007,-20.7493 77.6892,-23.8274 80.5498,-25.8442"/>
<text text-anchor="middle" x="54.2461" y="-31.0213" font-family="monospace" font-size="8.00">F1920S</text>
</g>
<!-- 2 -->
<g id="node3" class="node"><title>2</title>
<ellipse fill="#1874cd" stroke="black" cx="123.727" cy="-57.1205" rx="6" ry="6"/>
<text text-anchor="middle" x="123.727" y="-55.2205" font-family="monospace" font-size="8.00">2</text>
</g>
<!-- 1&#45;&gt;2 -->
<g id="edge3" class="edge"><title>1&#45;&gt;2</title>
<path fill="none" stroke="black" d="M67.5596,-60.5684C82.831,-59.6309 106.373,-58.1858 117.497,-57.5029"/>
</g>
<!-- 5 -->
<g id="node6" class="node"><title>5</title>
<ellipse fill="olivedrab" stroke="black" cx="53.0478" cy="-18.9084" rx="3.5" ry="3.5"/>
<text text-anchor="middle" x="53.0478" y="-17.0084" font-family="monospace" font-size="8.00">5</text>
</g>
<!-- 1&#45;&gt;5 -->
<g id="edge7" class="edge"><title>1&#45;&gt;5</title>
<path fill="none" stroke="black" d="M53.2209,-47.0428C53.1817,-40.6711 53.1369,-33.3782 53.1026,-27.8143"/>
<polygon fill="black" stroke="black" points="54.8512,-27.57 53.0704,-22.5809 51.3513,-27.5916 54.8512,-27.57"/>
<text text-anchor="middle" x="39.6618" y="-40.0286" font-family="monospace" font-size="8.00">R537L</text>
</g>
<!-- 6 -->
<g id="node7" class="node"><title>6</title>
<ellipse fill="olivedrab" stroke="black" cx="53.0184" cy="-105.413" rx="3.5" ry="3.5"/>
<text text-anchor="middle" x="53.0184" y="-103.513" font-family="monospace" font-size="8.00">6</text>
</g>
<!-- 1&#45;&gt;6 -->
<g id="edge8" class="edge"><title>1&#45;&gt;6</title>
<path fill="none" stroke="black" d="M53.2142,-75.8404C53.1684,-82.7531 53.1151,-90.8064 53.0757,-96.7619"/>
<polygon fill="black" stroke="black" points="51.3249,-96.8867 53.0417,-101.898 54.8248,-96.9099 51.3249,-96.8867"/>
<text text-anchor="middle" x="37.145" y="-88.9012" font-family="monospace" font-size="8.00">H1755Y</text>
</g>
<!-- 7 -->
<g id="node8" class="node"><title>7</title>
<ellipse fill="olivedrab" stroke="black" cx="11.3129" cy="-114.22" rx="3.5" ry="3.5"/>
<text text-anchor="middle" x="11.3129" y="-112.32" font-family="monospace" font-size="8.00">7</text>
</g>
<!-- 1&#45;&gt;7 -->
<g id="edge9" class="edge"><title>1&#45;&gt;7</title>
<path fill="none" stroke="black" d="M44.4031,-72.6358C34.5795,-84.9811 19.3996,-104.058 13.6382,-111.298"/>
</g>
<!-- 9 -->
<g id="node10" class="node"><title>9</title>
<ellipse fill="olivedrab" stroke="black" cx="-3.26568" cy="-85.7774" rx="3.5" ry="3.5"/>
<text text-anchor="middle" x="-3.26568" y="-83.8774" font-family="monospace" font-size="8.00">9</text>
</g>
<!-- 1&#45;&gt;9 -->
<g id="edge10" class="edge"><title>1&#45;&gt;9</title>
<path fill="none" stroke="black" d="M40.1878,-67.0871C29.2731,-71.7818 14.0813,-78.3161 4.85428,-82.2849"/>
<polygon fill="black" stroke="black" points="4.08985,-80.7086 0.188191,-84.2919 5.47283,-83.9238 4.08985,-80.7086"/>
<text text-anchor="middle" x="9.02106" y="-68.286" font-family="monospace" font-size="8.00">K251R</text>
</g>
<!-- anon_1_3_0 -->
<g id="node18" class="node"><title>anon_1_3_0</title>
<ellipse fill="white" stroke="black" cx="78.9793" cy="-124.728" rx="2.5" ry="2.5"/>
</g>
<!-- 1&#45;&gt;anon_1_3_0 -->
<g id="edge4" class="edge"><title>1&#45;&gt;anon_1_3_0</title>
<path fill="none" stroke="black" d="M58.6283,-74.5558C64.8548,-89.9063 74.7252,-114.24 77.9342,-122.151"/>
</g>
<!-- anon_1_16_0 -->
<g id="node20" class="node"><title>anon_1_16_0</title>
<ellipse fill="white" stroke="black" cx="-5.85111" cy="-26.5722" rx="2.5" ry="2.5"/>
</g>
<!-- 1&#45;&gt;anon_1_16_0 -->
<g id="edge11" class="edge"><title>1&#45;&gt;anon_1_16_0</title>
<path fill="none" stroke="black" d="M41.0514,-54.2178C26.7012,-45.7595 3.95321,-32.3512 -3.44251,-27.9919"/>
</g>
<!-- anon_2_4_0 -->
<g id="node23" class="node"><title>anon_2_4_0</title>
<ellipse fill="white" stroke="black" cx="170.722" cy="-39.1309" rx="2.5" ry="2.5"/>
</g>
<!-- 2&#45;&gt;anon_2_4_0 -->
<g id="edge15" class="edge"><title>2&#45;&gt;anon_2_4_0</title>
<path fill="none" stroke="black" d="M129.49,-54.9146C139.686,-51.0116 160.533,-43.0313 167.993,-40.1759"/>
</g>
<!-- 3 -->
<g id="node4" class="node"><title>3</title>
<ellipse fill="#1874cd" stroke="black" cx="59.4076" cy="-209.074" rx="3.5" ry="3.5"/>
<text text-anchor="middle" x="59.4076" y="-207.174" font-family="monospace" font-size="8.00">3</text>
</g>
<!-- 4 -->
<g id="node5" class="node"><title>4</title>
<ellipse fill="#1874cd" stroke="black" cx="231.513" cy="22.0299" rx="3.5" ry="3.5"/>
<text text-anchor="middle" x="231.513" y="23.9299" font-family="monospace" font-size="8.00">4</text>
</g>
<!-- 10 -->
<g id="node11" class="node"><title>10</title>
<ellipse fill="#1874cd" stroke="black" cx="-83.8934" cy="175.449" rx="21.5" ry="21.5"/>
<text text-anchor="middle" x="-83.8934" y="177.349" font-family="monospace" font-size="8.00">10</text>
</g>
<!-- 14 -->
<g id="node15" class="node"><title>14</title>
<ellipse fill="#1874cd" stroke="black" cx="-26.1642" cy="218.632" rx="3.5" ry="3.5"/>
<text text-anchor="middle" x="-26.1642" y="220.532" font-family="monospace" font-size="8.00">14</text>
</g>
<!-- 10&#45;&gt;14 -->
<g id="edge18" class="edge"><title>10&#45;&gt;14</title>
<path fill="none" stroke="black" d="M-66.5728,188.405C-53.288,198.343 -36.0973,211.202 -29.212,216.352"/>
</g>
<!-- 15 -->
<g id="node16" class="node"><title>15</title>
<ellipse fill="#1874cd" stroke="black" cx="-109.721" cy="227.651" rx="3.5" ry="3.5"/>
<text text-anchor="middle" x="-109.721" y="229.551" font-family="monospace" font-size="8.00">15</text>
</g>
<!-- 10&#45;&gt;15 -->
<g id="edge19" class="edge"><title>10&#45;&gt;15</title>
<path fill="none" stroke="black" d="M-93.5106,194.887C-98.9032,205.787 -105.118,218.347 -108.039,224.251"/>
</g>
<!-- 11 -->
<g id="node12" class="node"><title>11</title>
<ellipse fill="#1874cd" stroke="black" cx="-148.193" cy="56.1982" rx="9" ry="9"/>
<text text-anchor="middle" x="-148.193" y="58.0982" font-family="monospace" font-size="8.00">11</text>
</g>
<!-- 13 -->
<g id="node14" class="node"><title>13</title>
<ellipse fill="#1874cd" stroke="black" cx="-197.487" cy="38.0797" rx="3.5" ry="3.5"/>
<text text-anchor="middle" x="-197.487" y="39.9797" font-family="monospace" font-size="8.00">13</text>
</g>
<!-- 11&#45;&gt;13 -->
<g id="edge22" class="edge"><title>11&#45;&gt;13</title>
<path fill="none" stroke="black" d="M-156.78,53.0422C-167.813,48.9867 -186.452,42.1355 -194.079,39.3322"/>
</g>
<!-- 12 -->
<g id="node13" class="node"><title>12</title>
<ellipse fill="#1874cd" stroke="black" cx="-69.068" cy="100.494" rx="9" ry="9"/>
<text text-anchor="middle" x="-69.068" y="102.394" font-family="monospace" font-size="8.00">12</text>
</g>
<!-- 16 -->
<g id="node17" class="node"><title>16</title>
<ellipse fill="white" stroke="black" cx="-101.786" cy="66.2371" rx="2.5" ry="2.5"/>
<text text-anchor="middle" x="-101.786" y="68.1371" font-family="monospace" font-size="8.00">16</text>
</g>
<!-- 16&#45;&gt;11 -->
<g id="edge23" class="edge"><title>16&#45;&gt;11</title>
<path fill="none" stroke="black" d="M-104.281,65.6973C-109.846,64.4934 -123.624,61.5129 -134.276,59.2088"/>
<polygon fill="black" stroke="black" points="-134.687,60.9104 -139.204,58.1427 -133.947,57.4895 -134.687,60.9104"/>
<text text-anchor="middle" x="-103.278" y="59.8531" font-family="monospace" font-size="8.00">S1683I</text>
</g>
<!-- 16&#45;&gt;12 -->
<g id="edge24" class="edge"><title>16&#45;&gt;12</title>
<path fill="none" stroke="black" d="M-100.026,68.0789C-96.1026,72.1873 -86.389,82.358 -78.8797,90.2207"/>
<polygon fill="black" stroke="black" points="-77.5932,89.0339 -75.4054,93.8585 -80.1243,91.4513 -77.5932,89.0339"/>
<text text-anchor="middle" x="-102.953" y="76.5498" font-family="monospace" font-size="8.00">G317S</text>
</g>
<!-- anon_10_16_0 -->
<g id="node25" class="node"><title>anon_10_16_0</title>
<ellipse fill="white" stroke="black" cx="-105.922" cy="119.605" rx="2.5" ry="2.5"/>
</g>
<!-- 16&#45;&gt;anon_10_16_0 -->
<g id="edge21" class="edge"><title>16&#45;&gt;anon_10_16_0</title>
<path fill="none" stroke="black" d="M-101.985,68.8111C-102.579,76.4708 -104.352,99.346 -105.303,111.618"/>
<polygon fill="black" stroke="black" points="-103.583,112.082 -105.715,116.931 -107.073,111.811 -103.583,112.082"/>
<text text-anchor="middle" x="-119.644" y="87.6143" font-family="monospace" font-size="8.00">I1940T</text>
</g>
<!-- anon_1_3_1 -->
<g id="node19" class="node"><title>anon_1_3_1</title>
<ellipse fill="white" stroke="black" cx="75.3514" cy="-170.068" rx="2.5" ry="2.5"/>
</g>
<!-- anon_1_3_0&#45;&gt;anon_1_3_1 -->
<g id="edge5" class="edge"><title>anon_1_3_0&#45;&gt;anon_1_3_1</title>
<path fill="none" stroke="black" d="M78.7632,-127.428C78.1164,-135.512 76.2011,-159.449 75.5618,-167.439"/>
</g>
<!-- anon_1_3_1&#45;&gt;3 -->
<g id="edge6" class="edge"><title>anon_1_3_1&#45;&gt;3</title>
<path fill="none" stroke="black" d="M74.3053,-172.627C71.5341,-179.407 64.0001,-197.838 60.8366,-205.578"/>
</g>
<!-- anon_1_16_1 -->
<g id="node21" class="node"><title>anon_1_16_1</title>
<ellipse fill="white" stroke="black" cx="-44.2377" cy="-0.945057" rx="2.5" ry="2.5"/>
</g>
<!-- anon_1_16_0&#45;&gt;anon_1_16_1 -->
<g id="edge12" class="edge"><title>anon_1_16_0&#45;&gt;anon_1_16_1</title>
<path fill="none" stroke="black" d="M-8.36977,-24.8908C-15.4419,-20.1693 -35.3987,-6.84602 -42.05,-2.40561"/>
</g>
<!-- anon_1_16_2 -->
<g id="node22" class="node"><title>anon_1_16_2</title>
<ellipse fill="white" stroke="black" cx="-76.4081" cy="33.7913" rx="2.5" ry="2.5"/>
</g>
<!-- anon_1_16_1&#45;&gt;anon_1_16_2 -->
<g id="edge13" class="edge"><title>anon_1_16_1&#45;&gt;anon_1_16_2</title>
<path fill="none" stroke="black" d="M-45.9673,0.922519C-51.501,6.89752 -68.7455,25.5175 -74.5099,31.7416"/>
</g>
<!-- anon_1_16_2&#45;&gt;16 -->
<g id="edge14" class="edge"><title>anon_1_16_2&#45;&gt;16</title>
<path fill="none" stroke="black" d="M-78.0732,35.9201C-82.6604,41.785 -95.4472,58.1334 -100.081,64.0578"/>
</g>
<!-- anon_2_4_1 -->
<g id="node24" class="node"><title>anon_2_4_1</title>
<ellipse fill="white" stroke="black" cx="205.465" cy="-11.1019" rx="2.5" ry="2.5"/>
</g>
<!-- anon_2_4_0&#45;&gt;anon_2_4_1 -->
<g id="edge16" class="edge"><title>anon_2_4_0&#45;&gt;anon_2_4_1</title>
<path fill="none" stroke="black" d="M173.002,-37.2919C179.403,-32.1279 197.465,-17.5559 203.485,-12.6993"/>
</g>
<!-- anon_2_4_1&#45;&gt;4 -->
<g id="edge17" class="edge"><title>anon_2_4_1&#45;&gt;4</title>
<path fill="none" stroke="black" d="M207.174,-8.928C211.701,-3.16947 224.01,12.4865 229.179,19.0605"/>
</g>
<!-- anon_10_16_0&#45;&gt;10 -->
<g id="edge20" class="edge"><title>anon_10_16_0&#45;&gt;10</title>
<path fill="none" stroke="black" d="M-104.975,122.005C-103.001,127.01 -98.253,139.046 -93.7619,150.432"/>
<polygon fill="black" stroke="black" points="-92.0686,149.955 -91.8618,155.249 -95.3245,151.24 -92.0686,149.955"/>
<text text-anchor="middle" x="-112.869" y="133.618" font-family="monospace" font-size="8.00">D466H</text>
</g>
</g>
</svg>
