<?xml version="1.0" encoding="UTF-8" standalone="no"?>
<!DOCTYPE svg PUBLIC "-//W3C//DTD SVG 1.1//EN"
 "http://www.w3.org/Graphics/SVG/1.1/DTD/svg11.dtd">
<!-- Generated by graphviz version 2.38.0 (20140413.2041)
 -->
<!-- Title: %3 Pages: 1 -->
<svg width="338pt" height="301pt"
 viewBox="0.00 0.00 337.52 301.23" xmlns="http://www.w3.org/2000/svg" xmlns:xlink="http://www.w3.org/1999/xlink">
<g id="graph0" class="graph" transform="scale(1 1) rotate(0) translate(37.6057 176.336)">
<title>%3</title>
<polygon fill="white" stroke="none" points="-37.6057,124.897 -37.6057,-176.336 299.918,-176.336 299.918,124.897 -37.6057,124.897"/>
<!-- 0 -->
<g id="node1" class="node"><title>0</title>
<ellipse fill="#1874cd" stroke="black" cx="281.31" cy="-110.315" rx="14.5" ry="14.5"/>
</g>
<!-- 5 -->
<g id="node6" class="node"><title>5</title>
<ellipse fill="#1874cd" stroke="black" cx="259.385" cy="-156.534" rx="2.5" ry="2.5"/>
</g>
<!-- 0&#45;&gt;5 -->
<g id="edge1" class="edge"><title>0&#45;&gt;5</title>
<path fill="none" stroke="black" d="M275.086,-123.436C270.022,-134.111 263.287,-148.308 260.583,-154.008"/>
</g>
<!-- 9 -->
<g id="node10" class="node"><title>9</title>
<ellipse fill="#1874cd" stroke="black" cx="293.418" cy="-60.8079" rx="2.5" ry="2.5"/>
</g>
<!-- 0&#45;&gt;9 -->
<g id="edge2" class="edge"><title>0&#45;&gt;9</title>
<path fill="none" stroke="black" d="M284.812,-95.9954C287.606,-84.5725 291.287,-69.5211 292.764,-63.4827"/>
</g>
<!-- 1 -->
<g id="node2" class="node"><title>1</title>
<ellipse fill="#1874cd" stroke="black" cx="42.2935" cy="-4.1361" rx="12" ry="12"/>
</g>
<!-- 2 -->
<g id="node3" class="node"><title>2</title>
<ellipse fill="#1874cd" stroke="black" cx="56.7387" cy="44.4054" rx="2.5" ry="2.5"/>
</g>
<!-- 1&#45;&gt;2 -->
<g id="edge3" class="edge"><title>1&#45;&gt;2</title>
<path fill="none" stroke="black" d="M45.7902,7.61443C49.197,19.0623 54.1266,35.6277 55.9887,41.8851"/>
</g>
<!-- 4 -->
<g id="node5" class="node"><title>4</title>
<ellipse fill="#1874cd" stroke="black" cx="100.194" cy="21.2289" rx="4.5" ry="4.5"/>
</g>
<!-- 1&#45;&gt;4 -->
<g id="edge4" class="edge"><title>1&#45;&gt;4</title>
<path fill="none" stroke="black" d="M53.4573,0.75453C66.3392,6.39779 86.892,15.4015 95.8185,19.312"/>
</g>
<!-- 6 -->
<g id="node7" class="node"><title>6</title>
<ellipse fill="#1874cd" stroke="black" cx="4.14559" cy="42.3591" rx="3.5" ry="3.5"/>
</g>
<!-- 1&#45;&gt;6 -->
<g id="edge5" class="edge"><title>1&#45;&gt;6</title>
<path fill="none" stroke="black" d="M34.5737,5.2729C27.3619,14.0627 16.7454,27.0023 10.1483,35.0429"/>
<polygon fill="black" stroke="black" points="11.1509,36.5799 6.62652,39.3353 8.44512,34.3598 11.1509,36.5799"/>
<text text-anchor="middle" x="-0.639003" y="16.7579" font-family="monospace" font-size="12.00">S2076T</text>
</g>
<!-- 12 -->
<g id="node13" class="node"><title>12</title>
<ellipse fill="#1874cd" stroke="black" cx="-13.1155" cy="-8.67549" rx="2.5" ry="2.5"/>
</g>
<!-- 1&#45;&gt;12 -->
<g id="edge6" class="edge"><title>1&#45;&gt;12</title>
<path fill="none" stroke="black" d="M30.2705,-5.12108C19.4091,-6.01091 3.75276,-7.29356 -5.48186,-8.05011"/>
<polygon fill="black" stroke="black" points="-5.66768,-6.30938 -10.5081,-8.46188 -5.38183,-9.79769 -5.66768,-6.30938"/>
<text text-anchor="middle" x="-10.6057" y="3.0144" font-family="monospace" font-size="12.00">L1617F</text>
</g>
<!-- 13 -->
<g id="node14" class="node"><title>13</title>
<ellipse fill="white" stroke="black" cx="46.5402" cy="-63.6161" rx="1" ry="1"/>
</g>
<!-- 1&#45;&gt;13 -->
<g id="edge7" class="edge"><title>1&#45;&gt;13</title>
<path fill="none" stroke="black" d="M43.1529,-16.1728C44.2387,-31.3805 46.0178,-56.2985 46.4456,-62.2904"/>
</g>
<!-- 3 -->
<g id="node4" class="node"><title>3</title>
<ellipse fill="#1874cd" stroke="black" cx="110.204" cy="-112.514" rx="2.5" ry="2.5"/>
</g>
<!-- anon_3_13_0 -->
<g id="node15" class="node"><title>anon_3_13_0</title>
<ellipse fill="white" stroke="black" cx="80.7766" cy="-81.6077" rx="1" ry="1"/>
</g>
<!-- 3&#45;&gt;anon_3_13_0 -->
<g id="edge8" class="edge"><title>3&#45;&gt;anon_3_13_0</title>
<path fill="none" stroke="black" d="M108.273,-110.486C102.545,-104.47 85.7891,-86.872 81.6896,-82.5665"/>
</g>
<!-- 7 -->
<g id="node8" class="node"><title>7</title>
<ellipse fill="#1874cd" stroke="black" cx="131.132" cy="55.8891" rx="2.5" ry="2.5"/>
</g>
<!-- 4&#45;&gt;7 -->
<g id="edge10" class="edge"><title>4&#45;&gt;7</title>
<path fill="none" stroke="black" d="M103.274,24.679C109.632,31.8021 124.049,47.9537 129.232,53.7601"/>
</g>
<!-- 10 -->
<g id="node11" class="node"><title>10</title>
<ellipse fill="#1874cd" stroke="black" cx="-11.2934" cy="83.3357" rx="2.5" ry="2.5"/>
</g>
<!-- 6&#45;&gt;10 -->
<g id="edge11" class="edge"><title>6&#45;&gt;10</title>
<path fill="none" stroke="black" d="M2.82927,45.8528C-0.204259,53.9041 -7.63146,73.6166 -10.31,80.7258"/>
</g>
<!-- 8 -->
<g id="node9" class="node"><title>8</title>
<ellipse fill="#1874cd" stroke="black" cx="249.749" cy="118.397" rx="2.5" ry="2.5"/>
</g>
<!-- 11 -->
<g id="node12" class="node"><title>11</title>
<ellipse fill="#1874cd" stroke="black" cx="-0.123341" cy="-169.836" rx="2.5" ry="2.5"/>
</g>
<!-- anon_11_13_0 -->
<g id="node16" class="node"><title>anon_11_13_0</title>
<ellipse fill="white" stroke="black" cx="2.22828" cy="-129.081" rx="1" ry="1"/>
</g>
<!-- 11&#45;&gt;anon_11_13_0 -->
<g id="edge12" class="edge"><title>11&#45;&gt;anon_11_13_0</title>
<path fill="none" stroke="black" d="M0.0309556,-167.162C0.488732,-159.229 1.82773,-136.023 2.15532,-130.345"/>
</g>
<!-- anon_3_13_0&#45;&gt;13 -->
<g id="edge9" class="edge"><title>anon_3_13_0&#45;&gt;13</title>
<path fill="none" stroke="black" d="M79.3056,-80.8346C73.5716,-77.8214 52.7861,-66.8984 47.6793,-64.2147"/>
</g>
<!-- anon_11_13_1 -->
<g id="node17" class="node"><title>anon_11_13_1</title>
<ellipse fill="white" stroke="black" cx="20.1288" cy="-92.007" rx="1" ry="1"/>
</g>
<!-- anon_11_13_0&#45;&gt;anon_11_13_1 -->
<g id="edge13" class="edge"><title>anon_11_13_0&#45;&gt;anon_11_13_1</title>
<path fill="none" stroke="black" d="M2.67077,-128.165C5.08273,-123.169 16.6401,-99.2326 19.4917,-93.3265"/>
</g>
<!-- anon_11_13_1&#45;&gt;13 -->
<g id="edge14" class="edge"><title>anon_11_13_1&#45;&gt;13</title>
<path fill="none" stroke="black" d="M21.2637,-90.7871C25.6871,-86.0322 41.7219,-68.7956 45.6615,-64.5607"/>
</g>
</g>
</svg>
