<?xml version="1.0" encoding="UTF-8" standalone="no"?>
<!DOCTYPE svg PUBLIC "-//W3C//DTD SVG 1.1//EN"
 "http://www.w3.org/Graphics/SVG/1.1/DTD/svg11.dtd">
<!-- Generated by graphviz version 2.38.0 (20140413.2041)
 -->
<!-- Title: %3 Pages: 1 -->
<svg width="405pt" height="422pt"
 viewBox="0.00 0.00 405.01 422.08" xmlns="http://www.w3.org/2000/svg" xmlns:xlink="http://www.w3.org/1999/xlink">
<g id="graph0" class="graph" transform="scale(1 1) rotate(0) translate(230.26 250.31)">
<title>%3</title>
<polygon fill="white" stroke="none" points="-230.26,171.766 -230.26,-250.31 174.748,-250.31 174.748,171.766 -230.26,171.766"/>
<!-- 0 -->
<g id="node1" class="node"><title>0</title>
<ellipse fill="#1874cd" stroke="black" cx="-180.948" cy="-13.8839" rx="14.5" ry="14.5"/>
</g>
<!-- 6 -->
<g id="node7" class="node"><title>6</title>
<ellipse fill="#1874cd" stroke="black" cx="-197.289" cy="-66.8001" rx="2.5" ry="2.5"/>
</g>
<!-- 0&#45;&gt;6 -->
<g id="edge1" class="edge"><title>0&#45;&gt;6</title>
<path fill="none" stroke="black" d="M-185.241,-27.787C-189.099,-40.2805 -194.459,-57.6362 -196.477,-64.1714"/>
</g>
<!-- 10 -->
<g id="node11" class="node"><title>10</title>
<ellipse fill="#1874cd" stroke="black" cx="-160.676" cy="38.1192" rx="2.5" ry="2.5"/>
</g>
<!-- 0&#45;&gt;10 -->
<g id="edge2" class="edge"><title>0&#45;&gt;10</title>
<path fill="none" stroke="black" d="M-175.622,-0.22068C-170.835,12.0573 -164.186,29.1135 -161.683,35.536"/>
</g>
<!-- 12 -->
<g id="node13" class="node"><title>12</title>
<ellipse fill="#1874cd" stroke="black" cx="-223.76" cy="4.62437" rx="2.5" ry="2.5"/>
</g>
<!-- 0&#45;&gt;12 -->
<g id="edge3" class="edge"><title>0&#45;&gt;12</title>
<path fill="none" stroke="black" d="M-194.494,-8.02776C-204.097,-3.87628 -216.151,1.33469 -221.273,3.54929"/>
</g>
<!-- 1 -->
<g id="node2" class="node"><title>1</title>
<ellipse fill="#1874cd" stroke="black" cx="65.8216" cy="-77.1866" rx="12" ry="12"/>
</g>
<!-- 3 -->
<g id="node4" class="node"><title>3</title>
<ellipse fill="#1874cd" stroke="black" cx="104.993" cy="-114.602" rx="2.5" ry="2.5"/>
</g>
<!-- 1&#45;&gt;3 -->
<g id="edge4" class="edge"><title>1&#45;&gt;3</title>
<path fill="none" stroke="black" d="M74.515,-85.4903C83.8913,-94.4463 98.1512,-108.067 103.169,-112.86"/>
</g>
<!-- 5 -->
<g id="node6" class="node"><title>5</title>
<ellipse fill="#1874cd" stroke="black" cx="87.8774" cy="-20.3078" rx="4.5" ry="4.5"/>
</g>
<!-- 1&#45;&gt;5 -->
<g id="edge5" class="edge"><title>1&#45;&gt;5</title>
<path fill="none" stroke="black" d="M70.1791,-65.9492C75.1004,-53.258 82.8604,-33.246 86.2275,-24.5626"/>
</g>
<!-- 7 -->
<g id="node8" class="node"><title>7</title>
<ellipse fill="#1874cd" stroke="black" cx="124.57" cy="-60.7161" rx="3.5" ry="3.5"/>
</g>
<!-- 1&#45;&gt;7 -->
<g id="edge6" class="edge"><title>1&#45;&gt;7</title>
<path fill="none" stroke="black" d="M77.4285,-73.9326C88.8273,-70.7369 105.944,-65.9382 116.112,-63.0874"/>
<polygon fill="black" stroke="black" points="116.624,-64.7615 120.966,-61.7267 115.679,-61.3914 116.624,-64.7615"/>
<text text-anchor="middle" x="119.77" y="-71.91" font-family="monospace" font-size="12.00">S2076T</text>
</g>
<!-- 13 -->
<g id="node14" class="node"><title>13</title>
<ellipse fill="#1874cd" stroke="black" cx="42.5458" cy="-21.4975" rx="2.5" ry="2.5"/>
</g>
<!-- 1&#45;&gt;13 -->
<g id="edge7" class="edge"><title>1&#45;&gt;13</title>
<path fill="none" stroke="black" d="M61.1114,-65.9171C55.5854,-52.6957 46.7829,-31.6352 43.6763,-24.2024"/>
</g>
<!-- 15 -->
<g id="node16" class="node"><title>15</title>
<ellipse fill="#1874cd" stroke="black" cx="15.1451" cy="-58.102" rx="2.5" ry="2.5"/>
</g>
<!-- 1&#45;&gt;15 -->
<g id="edge8" class="edge"><title>1&#45;&gt;15</title>
<path fill="none" stroke="black" d="M54.5749,-72.9511C44.7189,-69.2394 30.6921,-63.957 22.2966,-60.7953"/>
<polygon fill="black" stroke="black" points="22.8004,-59.1151 17.5045,-58.9906 21.5669,-62.3905 22.8004,-59.1151"/>
<text text-anchor="middle" x="15.4357" y="-70.2732" font-family="monospace" font-size="12.00">L1617F</text>
</g>
<!-- 16 -->
<g id="node17" class="node"><title>16</title>
<ellipse fill="white" stroke="black" cx="32.4902" cy="-129.868" rx="1" ry="1"/>
</g>
<!-- 1&#45;&gt;16 -->
<g id="edge9" class="edge"><title>1&#45;&gt;16</title>
<path fill="none" stroke="black" d="M59.395,-87.3442C50.92,-100.739 36.6773,-123.25 33.249,-128.669"/>
</g>
<!-- 2 -->
<g id="node3" class="node"><title>2</title>
<ellipse fill="#1874cd" stroke="black" cx="131.371" cy="-12.3689" rx="3.5" ry="3.5"/>
</g>
<!-- 2&#45;&gt;7 -->
<g id="edge18" class="edge"><title>2&#45;&gt;7</title>
<path fill="none" stroke="black" stroke-dasharray="5,2" d="M130.882,-15.8459C129.639,-24.6797 126.369,-47.9277 125.092,-57.0077"/>
</g>
<!-- 4 -->
<g id="node5" class="node"><title>4</title>
<ellipse fill="#1874cd" stroke="black" cx="-47.7249" cy="-146.051" rx="2.5" ry="2.5"/>
</g>
<!-- anon_4_16_0 -->
<g id="node18" class="node"><title>anon_4_16_0</title>
<ellipse fill="white" stroke="black" cx="-6.25426" cy="-132.217" rx="1" ry="1"/>
</g>
<!-- 4&#45;&gt;anon_4_16_0 -->
<g id="edge11" class="edge"><title>4&#45;&gt;anon_4_16_0</title>
<path fill="none" stroke="black" d="M-45.0039,-145.143C-36.9311,-142.45 -13.318,-134.573 -7.54086,-132.646"/>
</g>
<!-- 5&#45;&gt;2 -->
<g id="edge10" class="edge"><title>5&#45;&gt;2</title>
<path fill="none" stroke="black" d="M92.5319,-19.4582C99.7226,-18.1457 113.648,-15.6038 122.723,-13.9473"/>
<polygon fill="black" stroke="black" points="123.262,-15.6279 127.867,-13.0085 122.634,-12.1848 123.262,-15.6279"/>
<text text-anchor="middle" x="130.628" y="-20.1027" font-family="monospace" font-size="12.00">S2076T</text>
</g>
<!-- 8 -->
<g id="node9" class="node"><title>8</title>
<ellipse fill="#1874cd" stroke="black" cx="62.3387" cy="17.9859" rx="2.5" ry="2.5"/>
</g>
<!-- 5&#45;&gt;8 -->
<g id="edge13" class="edge"><title>5&#45;&gt;8</title>
<path fill="none" stroke="black" d="M85.3353,-16.496C80.0868,-8.6262 68.1857,9.21864 63.9074,15.6338"/>
</g>
<!-- 11 -->
<g id="node12" class="node"><title>11</title>
<ellipse fill="#1874cd" stroke="black" cx="168.248" cy="-69.9015" rx="2.5" ry="2.5"/>
</g>
<!-- 7&#45;&gt;11 -->
<g id="edge14" class="edge"><title>7&#45;&gt;11</title>
<path fill="none" stroke="black" d="M127.998,-61.4369C136.364,-63.1962 157.707,-67.6846 165.416,-69.3059"/>
</g>
<!-- 8&#45;&gt;13 -->
<g id="edge19" class="edge"><title>8&#45;&gt;13</title>
<path fill="none" stroke="black" stroke-dasharray="5,2" d="M61.04,15.3953C57.3935,8.12105 47.1033,-12.406 43.6738,-19.2473"/>
</g>
<!-- 9 -->
<g id="node10" class="node"><title>9</title>
<ellipse fill="#1874cd" stroke="black" cx="-19.5437" cy="165.266" rx="2.5" ry="2.5"/>
</g>
<!-- 14 -->
<g id="node15" class="node"><title>14</title>
<ellipse fill="#1874cd" stroke="black" cx="14.6441" cy="-243.81" rx="2.5" ry="2.5"/>
</g>
<!-- anon_14_16_0 -->
<g id="node19" class="node"><title>anon_14_16_0</title>
<ellipse fill="white" stroke="black" cx="36.274" cy="-208.801" rx="1" ry="1"/>
</g>
<!-- 14&#45;&gt;anon_14_16_0 -->
<g id="edge15" class="edge"><title>14&#45;&gt;anon_14_16_0</title>
<path fill="none" stroke="black" d="M16.0633,-241.513C20.2739,-234.698 32.5897,-214.764 35.6029,-209.887"/>
</g>
<!-- anon_4_16_0&#45;&gt;16 -->
<g id="edge12" class="edge"><title>anon_4_16_0&#45;&gt;16</title>
<path fill="none" stroke="black" d="M-4.96516,-132.139C0.917255,-131.782 25.1822,-130.311 31.1565,-129.949"/>
</g>
<!-- anon_14_16_1 -->
<g id="node20" class="node"><title>anon_14_16_1</title>
<ellipse fill="white" stroke="black" cx="41.2837" cy="-167.672" rx="1" ry="1"/>
</g>
<!-- anon_14_16_0&#45;&gt;anon_14_16_1 -->
<g id="edge16" class="edge"><title>anon_14_16_0&#45;&gt;anon_14_16_1</title>
<path fill="none" stroke="black" d="M36.3978,-207.784C37.0728,-202.242 40.3073,-175.688 41.1054,-169.136"/>
</g>
<!-- anon_14_16_1&#45;&gt;16 -->
<g id="edge17" class="edge"><title>anon_14_16_1&#45;&gt;16</title>
<path fill="none" stroke="black" d="M40.9911,-166.415C39.656,-160.675 34.1488,-136.999 32.7929,-131.17"/>
</g>
</g>
</svg>
