<?xml version="1.0" encoding="UTF-8" standalone="no"?>
<!DOCTYPE svg PUBLIC "-//W3C//DTD SVG 1.1//EN"
 "http://www.w3.org/Graphics/SVG/1.1/DTD/svg11.dtd">
<!-- Generated by graphviz version 2.38.0 (20140413.2041)
 -->
<!-- Title: %3 Pages: 1 -->
<svg width="291pt" height="260pt"
 viewBox="0.00 0.00 291.03 259.72" xmlns="http://www.w3.org/2000/svg" xmlns:xlink="http://www.w3.org/1999/xlink">
<g id="graph0" class="graph" transform="scale(1 1) rotate(0) translate(83.47 104.539)">
<title>%3</title>
<polygon fill="white" stroke="none" points="-83.47,155.186 -83.47,-104.539 207.565,-104.539 207.565,155.186 -83.47,155.186"/>
<!-- 0 -->
<g id="node1" class="node"><title>0</title>
<path fill="olivedrab" stroke="black" stroke-width="0.5" d="M-29.4157,-43.3297C-29.4157,-43.3297 -17.4157,-43.3297 -17.4157,-43.3297 -17.4157,-43.7582 -17.4387,-44.1864 -17.4845,-44.6125 -17.5303,-45.0385 -17.5989,-45.4618 -17.69,-45.8805 -17.7811,-46.2992 -17.8945,-46.7128 -18.0298,-47.1193 -18.1652,-47.5259 -18.3222,-47.9249 -18.5002,-48.3147 -18.6782,-48.7045 -18.8769,-49.0845 -19.0956,-49.453 -19.3142,-49.8215 -19.5525,-50.178 -19.8092,-50.5211 -20.066,-50.8641 -20.341,-51.1931 -20.633,-51.5068 -20.925,-51.8204 -21.2336,-52.1181 -21.5574,-52.3987 -21.8813,-52.6793 -22.2199,-52.9424 -22.5719,-53.1868 -22.9239,-53.4312 -23.2887,-53.6565 -23.6648,-53.8619 -24.0408,-54.0672 -24.4277,-54.2523 -24.8235,-54.4163 -25.2194,-54.5803 -25.6238,-54.7229 -26.035,-54.8437 -26.4461,-54.9644 -26.8634,-55.063 -27.2851,-55.1391 -27.7068,-55.2152 -28.1323,-55.2686 -28.5597,-55.2992 -28.9871,-55.3297 -29.4158,-55.3374 -29.8441,-55.3221 -30.2723,-55.3068 -30.6994,-55.2686 -31.1235,-55.2076 -31.1235,-55.2076 -29.4157,-43.3297 -29.4157,-43.3297"/>
<path fill="#1874cd" stroke="black" stroke-width="0.5" d="M-29.4157,-43.3297C-29.4157,-43.3297 -31.1235,-55.2076 -31.1235,-55.2076 -31.6891,-55.1263 -32.2482,-55.0047 -32.7965,-54.8437 -33.3448,-54.6827 -33.8809,-54.4827 -34.4007,-54.2453 -34.9205,-54.0079 -35.4227,-53.7337 -35.9034,-53.4248 -36.3842,-53.1158 -36.8422,-52.773 -37.2741,-52.3987 -37.7059,-52.0245 -38.1105,-51.6199 -38.4847,-51.1881 -38.859,-50.7562 -39.2018,-50.2982 -39.5108,-49.8174 -39.8197,-49.3367 -40.0939,-48.8345 -40.3313,-48.3147 -40.5687,-47.7949 -40.7687,-47.2588 -40.9297,-46.7105 -41.0907,-46.1622 -41.2123,-45.6031 -41.2936,-45.0375 -41.3749,-44.4719 -41.4157,-43.9012 -41.4157,-43.3297 -41.4157,-42.7583 -41.3749,-42.1876 -41.2936,-41.622 -41.2123,-41.0563 -41.0907,-40.4972 -40.9297,-39.949 -40.7687,-39.4007 -40.5687,-38.8646 -40.3313,-38.3448 -40.0939,-37.825 -39.8197,-37.3228 -39.5108,-36.8421 -39.2018,-36.3613 -38.859,-35.9033 -38.4847,-35.4714 -38.1105,-35.0395 -37.7059,-34.635 -37.2741,-34.2607 -36.8422,-33.8865 -36.3842,-33.5436 -35.9034,-33.2347 -35.4227,-32.9258 -34.9205,-32.6515 -34.4007,-32.4142 -33.8809,-32.1768 -33.3448,-31.9768 -32.7965,-31.8158 -32.2482,-31.6548 -31.6891,-31.5332 -31.1235,-31.4519 -30.5579,-31.3706 -29.9872,-31.3297 -29.4157,-31.3297 -28.8443,-31.3297 -28.2736,-31.3706 -27.708,-31.4519 -27.1423,-31.5332 -26.5832,-31.6548 -26.035,-31.8158 -25.4867,-31.9768 -24.9506,-32.1768 -24.4308,-32.4142 -23.911,-32.6515 -23.4088,-32.9258 -22.9281,-33.2347 -22.4473,-33.5436 -21.9893,-33.8865 -21.5574,-34.2607 -21.1255,-34.635 -20.721,-35.0395 -20.3467,-35.4714 -19.9725,-35.9033 -19.6296,-36.3613 -19.3207,-36.8421 -19.0118,-37.3228 -18.7375,-37.825 -18.5002,-38.3448 -18.2628,-38.8646 -18.0628,-39.4007 -17.9018,-39.949 -17.7408,-40.4972 -17.6192,-41.0563 -17.5379,-41.622 -17.4566,-42.1876 -17.4157,-42.7583 -17.4157,-43.3297 -17.4157,-43.3297 -29.4157,-43.3297 -29.4157,-43.3297"/>
<ellipse fill="none" stroke="black" cx="-29.4157" cy="-43.3297" rx="12" ry="12"/>
</g>
<!-- 8 -->
<g id="node9" class="node"><title>8</title>
<ellipse fill="olivedrab" stroke="black" cx="-75.97" cy="-81.1886" rx="3.5" ry="3.5"/>
</g>
<!-- 0&#45;&gt;8 -->
<g id="edge2" class="edge"><title>0&#45;&gt;8</title>
<path fill="none" stroke="black" d="M-38.8367,-50.9911C-49.4643,-59.6336 -66.1507,-73.2033 -72.9424,-78.7265"/>
</g>
<!-- 1 -->
<g id="node2" class="node"><title>1</title>
<path fill="#1874cd" stroke="black" stroke-width="0.5" d="M19.978,-1.63528C19.978,-1.63528 33.978,-1.63528 33.978,-1.63528 33.978,-2.49109 33.8995,-3.3451 33.7435,-4.18657 33.5876,-5.02805 33.3548,-5.85346 33.0481,-6.65243 32.7414,-7.4514 32.3621,-8.22056 31.9149,-8.95026 31.4678,-9.67995 30.9546,-10.3671 30.382,-11.0031 29.8093,-11.6391 29.1796,-12.2212 28.5006,-12.7422 27.8217,-13.2632 27.0964,-13.7208 26.3338,-14.1094 25.5713,-14.4979 24.7747,-14.8157 23.9542,-15.0588 23.1336,-15.3018 22.2925,-15.4691 21.4414,-15.5586 20.5902,-15.648 19.7327,-15.6593 18.8795,-15.5921 18.0264,-15.525 17.1811,-15.3797 16.3545,-15.1582 15.5278,-14.9367 14.7232,-14.6399 13.9508,-14.2715 13.1784,-13.903 12.4413,-13.4645 11.749,-12.9615 11.0566,-12.4585 10.4118,-11.893 9.82272,-11.2722 9.23362,-10.6515 8.70268,-9.97797 8.23658,-9.26022 7.77047,-8.54248 7.37115,-7.78351 7.04365,-6.99284 6.71615,-6.20218 6.46183,-5.38315 6.2839,-4.54604 6.2839,-4.54604 19.978,-1.63528 19.978,-1.63528"/>
<path fill="olivedrab" stroke="black" stroke-width="0.5" d="M19.978,-1.63528C19.978,-1.63528 6.2839,-4.54604 6.2839,-4.54604 6.18227,-4.06792 6.10575,-3.5848 6.05466,-3.09868 6.00356,-2.61255 5.97796,-2.12408 5.97796,-1.63528 5.97796,-1.14647 6.00356,-0.658004 6.05466,-0.171878 6.10575,0.314248 6.18227,0.797364 6.2839,1.27549 6.38552,1.75361 6.51212,2.22608 6.66317,2.69096 6.81422,3.15584 6.98951,3.61249 7.18833,4.05904 7.38714,4.50558 7.60921,4.94141 7.85361,5.36472 8.09801,5.78804 8.36441,6.19827 8.65173,6.59372 8.93904,6.98917 9.24686,7.3693 9.57394,7.73255 9.90101,8.0958 10.2469,8.44168 10.6101,8.76875 10.9734,9.09582 11.3535,9.40365 11.749,9.69096 12.1444,9.97827 12.5546,10.2447 12.978,10.4891 13.4013,10.7335 13.8371,10.9555 14.2837,11.1544 14.7302,11.3532 15.1868,11.5285 15.6517,11.6795 16.1166,11.8306 16.5891,11.9572 17.0672,12.0588 17.5453,12.1604 18.0284,12.2369 18.5146,12.288 19.0007,12.3391 19.4892,12.3647 19.978,12.3647 20.4668,12.3647 20.9552,12.3391 21.4414,12.288 21.9275,12.2369 22.4106,12.1604 22.8887,12.0588 23.3668,11.9572 23.8393,11.8306 24.3042,11.6795 24.7691,11.5285 25.2257,11.3532 25.6723,11.1544 26.1188,10.9555 26.5546,10.7335 26.978,10.4891 27.4013,10.2447 27.8115,9.97827 28.207,9.69096 28.6024,9.40365 28.9825,9.09582 29.3458,8.76875 29.709,8.44168 30.0549,8.0958 30.382,7.73255 30.7091,7.3693 31.0169,6.98917 31.3042,6.59372 31.5915,6.19827 31.8579,5.78804 32.1023,5.36472 32.3467,4.94141 32.5688,4.50558 32.7676,4.05904 32.9664,3.61249 33.1417,3.15584 33.2928,2.69096 33.4438,2.22608 33.5704,1.75361 33.672,1.27549 33.7737,0.797364 33.8502,0.314248 33.9013,-0.171879 33.9524,-0.658005 33.978,-1.14647 33.978,-1.63528 33.978,-1.63528 19.978,-1.63528 19.978,-1.63528"/>
<ellipse fill="none" stroke="black" cx="19.978" cy="-1.63528" rx="14" ry="14"/>
</g>
<!-- 1&#45;&gt;0 -->
<g id="edge1" class="edge"><title>1&#45;&gt;0</title>
<path fill="none" stroke="black" d="M9.0159,-10.8886C1.62987,-17.1234 -8.1593,-25.3866 -16.0093,-32.013"/>
<polygon fill="black" stroke="black" points="-17.4513,-30.9401 -20.1433,-35.5026 -15.1937,-33.6147 -17.4513,-30.9401"/>
<text text-anchor="middle" x="-26.4967" y="-11.8508" font-family="monospace" font-size="12.00">F1920S</text>
</g>
<!-- 2 -->
<g id="node3" class="node"><title>2</title>
<ellipse fill="#1874cd" stroke="black" cx="82.131" cy="-38.2133" rx="6" ry="6"/>
</g>
<!-- 1&#45;&gt;2 -->
<g id="edge3" class="edge"><title>1&#45;&gt;2</title>
<path fill="none" stroke="black" d="M32.2574,-8.86192C45.8424,-16.8569 67.1038,-29.3696 76.8855,-35.1262"/>
</g>
<!-- 5 -->
<g id="node6" class="node"><title>5</title>
<ellipse fill="olivedrab" stroke="black" cx="19.9202" cy="-56.6322" rx="3.5" ry="3.5"/>
</g>
<!-- 1&#45;&gt;5 -->
<g id="edge7" class="edge"><title>1&#45;&gt;5</title>
<path fill="none" stroke="black" d="M19.9631,-15.7984C19.9524,-25.9351 19.9384,-39.2619 19.9294,-47.8872"/>
<polygon fill="black" stroke="black" points="18.1793,-48.0085 19.924,-53.0104 21.6793,-48.0123 18.1793,-48.0085"/>
<text text-anchor="middle" x="38.9462" y="-35.2428" font-family="monospace" font-size="12.00">R537L</text>
</g>
<!-- 6 -->
<g id="node7" class="node"><title>6</title>
<ellipse fill="olivedrab" stroke="black" cx="-19.0084" cy="43.8608" rx="3.5" ry="3.5"/>
</g>
<!-- 1&#45;&gt;6 -->
<g id="edge8" class="edge"><title>1&#45;&gt;6</title>
<path fill="none" stroke="black" d="M10.5404,9.37805C3.07559,18.0893 -7.09852,29.9623 -13.3517,37.2595"/>
<polygon fill="black" stroke="black" points="-12.0968,38.4846 -16.6792,41.1426 -14.7545,36.2072 -12.0968,38.4846"/>
<text text-anchor="middle" x="-24.4056" y="32.9188" font-family="monospace" font-size="12.00">H1755Y</text>
</g>
<!-- 7 -->
<g id="node8" class="node"><title>7</title>
<ellipse fill="olivedrab" stroke="black" cx="-38.0156" cy="7.94206" rx="3.5" ry="3.5"/>
</g>
<!-- 1&#45;&gt;7 -->
<g id="edge9" class="edge"><title>1&#45;&gt;7</title>
<path fill="none" stroke="black" d="M5.93933,0.683128C-7.46955,2.89753 -26.755,6.08243 -34.5508,7.36986"/>
</g>
<!-- 9 -->
<g id="node10" class="node"><title>9</title>
<ellipse fill="olivedrab" stroke="black" cx="71.4863" cy="20.9539" rx="3.5" ry="3.5"/>
</g>
<!-- 1&#45;&gt;9 -->
<g id="edge10" class="edge"><title>1&#45;&gt;9</title>
<path fill="none" stroke="black" d="M32.9757,4.06492C42.4678,8.22772 55.0529,13.747 63.2097,17.3241"/>
<polygon fill="black" stroke="black" points="64.1807,15.839 68.0568,19.4498 62.7749,19.0443 64.1807,15.839"/>
<text text-anchor="middle" x="67.0927" y="7.29453" font-family="monospace" font-size="12.00">K251R</text>
</g>
<!-- anon_1_3_0 -->
<g id="node11" class="node"><title>anon_1_3_0</title>
<ellipse fill="white" stroke="black" cx="37.4138" cy="64.1021" rx="2.5" ry="2.5"/>
</g>
<!-- 1&#45;&gt;anon_1_3_0 -->
<g id="edge4" class="edge"><title>1&#45;&gt;anon_1_3_0</title>
<path fill="none" stroke="black" d="M23.5907,11.9855C27.82,27.931 34.5243,53.2079 36.704,61.4257"/>
</g>
<!-- anon_2_4_0 -->
<g id="node13" class="node"><title>anon_2_4_0</title>
<ellipse fill="white" stroke="black" cx="122.999" cy="-64.0562" rx="2.5" ry="2.5"/>
</g>
<!-- 2&#45;&gt;anon_2_4_0 -->
<g id="edge11" class="edge"><title>2&#45;&gt;anon_2_4_0</title>
<path fill="none" stroke="black" d="M87.4738,-41.5918C96.4745,-47.2834 114.301,-58.5561 120.67,-62.5833"/>
</g>
<!-- 3 -->
<g id="node4" class="node"><title>3</title>
<ellipse fill="#1874cd" stroke="black" cx="61.5311" cy="147.686" rx="3.5" ry="3.5"/>
</g>
<!-- 4 -->
<g id="node5" class="node"><title>4</title>
<ellipse fill="#1874cd" stroke="black" cx="200.065" cy="-97.0386" rx="3.5" ry="3.5"/>
</g>
<!-- anon_1_3_1 -->
<g id="node12" class="node"><title>anon_1_3_1</title>
<ellipse fill="white" stroke="black" cx="47.525" cy="107.806" rx="2.5" ry="2.5"/>
</g>
<!-- anon_1_3_0&#45;&gt;anon_1_3_1 -->
<g id="edge5" class="edge"><title>anon_1_3_0&#45;&gt;anon_1_3_1</title>
<path fill="none" stroke="black" d="M38.0161,66.7051C39.8187,74.4967 45.1569,97.5703 46.9386,105.272"/>
</g>
<!-- anon_1_3_1&#45;&gt;3 -->
<g id="edge6" class="edge"><title>anon_1_3_1&#45;&gt;3</title>
<path fill="none" stroke="black" d="M48.444,110.423C50.8783,117.354 57.4968,136.199 60.2758,144.112"/>
</g>
<!-- anon_2_4_1 -->
<g id="node14" class="node"><title>anon_2_4_1</title>
<ellipse fill="white" stroke="black" cx="159.773" cy="-84.7365" rx="2.5" ry="2.5"/>
</g>
<!-- anon_2_4_0&#45;&gt;anon_2_4_1 -->
<g id="edge12" class="edge"><title>anon_2_4_0&#45;&gt;anon_2_4_1</title>
<path fill="none" stroke="black" d="M125.412,-65.413C132.059,-69.1512 150.589,-79.5713 157.303,-83.3475"/>
</g>
<!-- anon_2_4_1&#45;&gt;4 -->
<g id="edge13" class="edge"><title>anon_2_4_1&#45;&gt;4</title>
<path fill="none" stroke="black" d="M162.417,-85.5436C169.42,-87.6818 188.459,-93.4951 196.454,-95.9361"/>
</g>
</g>
</svg>
