<?xml version="1.0" encoding="UTF-8" standalone="no"?>
<!DOCTYPE svg PUBLIC "-//W3C//DTD SVG 1.1//EN"
 "http://www.w3.org/Graphics/SVG/1.1/DTD/svg11.dtd">
<!-- Generated by graphviz version 2.38.0 (20140413.2041)
 -->
<!-- Title: %3 Pages: 1 -->
<svg width="548pt" height="765pt"
 viewBox="0.00 0.00 547.66 765.20" xmlns="http://www.w3.org/2000/svg" xmlns:xlink="http://www.w3.org/1999/xlink">
<g id="graph0" class="graph" transform="scale(1 1) rotate(0) translate(310.312 397.809)">
<title>%3</title>
<polygon fill="white" stroke="none" points="-310.312,367.386 -310.312,-397.809 237.353,-397.809 237.353,367.386 -310.312,367.386"/>
<!-- 0 -->
<g id="node1" class="node"><title>0</title>
<path fill="deepskyblue" stroke="black" stroke-width="0.5" d="M127.592,29.398C127.592,29.398 153.092,29.398 153.092,29.398 153.092,28.0956 152.992,26.7951 152.793,25.5079 152.595,24.2207 152.298,22.9506 151.905,21.7088 151.512,20.467 151.025,19.2571 150.447,18.0897 149.87,16.9224 149.204,15.801 148.455,14.7354 147.706,13.6698 146.876,12.6631 145.974,11.7243 145.071,10.7854 144.098,9.91709 143.062,9.12693 142.027,8.33676 140.933,7.62708 139.789,7.00412 138.645,6.38115 137.455,5.84673 136.23,5.40555 135.004,4.96436 133.747,4.61771 132.468,4.36864 131.19,4.11956 129.894,3.9688 128.593,3.91767 127.292,3.86653 125.988,3.91518 124.694,4.06319 123.4,4.21119 122.119,4.45811 120.863,4.80179 119.607,5.14547 118.379,5.58489 117.19,6.11619 116,6.6475 114.854,7.26913 113.76,7.97562 112.665,8.68211 111.627,9.4714 110.653,10.3365 109.68,11.2017 108.774,12.1402 107.944,13.1437 107.114,14.1472 106.361,15.2129 105.694,16.3314 105.027,17.4498 104.446,18.6177 103.957,19.8249 103.468,21.0321 103.072,22.2749 102.773,23.5426 102.474,24.8102 102.273,26.0989 102.17,27.3973 102.068,28.6957 102.066,30.0001 102.163,31.2989 102.26,32.5977 102.456,33.8871 102.75,35.1559 103.045,36.4247 103.435,37.6691 103.92,38.8782 104.404,40.0873 104.98,41.2575 105.643,42.3786 106.306,43.4996 107.054,44.5682 107.88,45.575 108.706,46.5818 109.609,47.5238 110.579,48.3928 111.549,49.2618 112.584,50.0551 113.676,50.7659 114.767,51.4767 115.911,52.1028 117.098,52.6388 118.285,53.1748 119.512,53.619 120.767,53.9676 122.021,54.3162 123.301,54.5682 124.595,54.7213 125.888,54.8743 127.191,54.9281 128.493,54.8821 129.795,54.8361 131.091,54.6904 132.37,54.4463 132.37,54.4463 127.592,29.398 127.592,29.398"/>
<path fill="#98f5ff" stroke="black" stroke-width="0.5" d="M127.592,29.398C127.592,29.398 132.37,54.4463 132.37,54.4463 133.092,54.3087 133.807,54.14 134.514,53.9406 135.22,53.7413 135.918,53.5114 136.605,53.2518 137.292,52.9922 137.968,52.703 138.63,52.3851 139.292,52.0672 139.94,51.7208 140.572,51.3469 141.205,50.9731 141.82,50.572 142.418,50.145 143.015,49.718 143.594,49.2654 144.153,48.7884 144.711,48.3114 145.249,47.8105 145.764,47.2871 146.279,46.7637 146.772,46.2182 147.24,45.6523 147.708,45.0864 148.152,44.5005 148.569,43.8963 148.987,43.2921 149.378,42.6702 149.742,42.0322 150.106,41.3942 150.442,40.7408 150.749,40.0738 151.057,39.4068 151.336,38.7269 151.584,38.0358 151.833,37.3448 152.052,36.6433 152.24,35.9334 152.428,35.2235 152.586,34.5057 152.712,33.7822 152.838,33.0587 152.933,32.33 152.997,31.5983 153.06,30.8666 153.092,30.1325 153.092,29.398 153.092,29.398 127.592,29.398 127.592,29.398"/>
<ellipse fill="none" stroke="black" cx="127.592" cy="29.398" rx="25.5" ry="25.5"/>
</g>
<!-- 22 -->
<g id="node23" class="node"><title>22</title>
<ellipse fill="deepskyblue" stroke="black" cx="221.447" cy="36.6797" rx="3.5" ry="3.5"/>
</g>
<!-- 0&#45;&gt;22 -->
<g id="edge2" class="edge"><title>0&#45;&gt;22</title>
<path fill="none" stroke="black" d="M153.238,31.3878C176.033,33.1563 207.328,35.5844 217.839,36.3998"/>
</g>
<!-- 24 -->
<g id="node25" class="node"><title>24</title>
<ellipse fill="deepskyblue" stroke="black" cx="216.468" cy="-8.01342" rx="3.5" ry="3.5"/>
</g>
<!-- 0&#45;&gt;24 -->
<g id="edge3" class="edge"><title>0&#45;&gt;24</title>
<path fill="none" stroke="black" d="M151.409,19.3724C170.305,11.4183 195.594,0.773527 208.362,-4.60137"/>
<polygon fill="black" stroke="black" points="207.726,-6.23208 213.013,-6.55904 209.084,-3.00622 207.726,-6.23208"/>
<text text-anchor="middle" x="199.886" y="20.1855" font-family="monospace" font-size="16.00">P55L</text>
</g>
<!-- 58 -->
<g id="node59" class="node"><title>58</title>
<ellipse fill="black" stroke="black" cx="208.427" cy="81.3143" rx="3.5" ry="3.5"/>
</g>
<!-- 0&#45;&gt;58 -->
<g id="edge4" class="edge"><title>0&#45;&gt;58</title>
<path fill="none" stroke="black" d="M149.254,43.3106C168.709,55.8054 195.613,73.0845 205.018,79.1249"/>
</g>
<!-- 1 -->
<g id="node2" class="node"><title>1</title>
<ellipse fill="deepskyblue" stroke="black" cx="0.125176" cy="-292.134" rx="3.5" ry="3.5"/>
</g>
<!-- 3 -->
<g id="node4" class="node"><title>3</title>
<path fill="#ff3030" stroke="black" stroke-width="0.5" d="M-42.1699,-262.833C-42.1699,-262.833 -8.1699,-262.833 -8.1699,-262.833 -8.1699,-264.367 -8.27365,-265.898 -8.48046,-267.418 -8.68726,-268.937 -8.99663,-270.441 -9.40646,-271.919 -9.81629,-273.397 -10.3256,-274.845 -10.931,-276.254 -11.5364,-277.663 -12.2364,-279.03 -13.0262,-280.344 -13.8161,-281.659 -14.6939,-282.918 -15.6538,-284.114 -16.6137,-285.31 -17.6534,-286.44 -18.7658,-287.496 -19.8783,-288.551 -21.0608,-289.53 -22.3054,-290.426 -23.55,-291.322 -24.8538,-292.133 -26.2079,-292.853 -27.5619,-293.573 -28.9631,-294.201 -30.4019,-294.731 -31.8407,-295.262 -33.3137,-295.695 -34.811,-296.027 -36.3082,-296.359 -37.8261,-296.589 -39.3544,-296.716 -40.8827,-296.843 -42.4179,-296.867 -43.9493,-296.786 -45.4808,-296.706 -47.0051,-296.522 -48.5117,-296.236 -50.0184,-295.95 -51.5039,-295.563 -52.9583,-295.076 -54.4126,-294.589 -55.8323,-294.005 -57.2077,-293.327 -58.5831,-292.648 -59.9111,-291.878 -61.1825,-291.02 -61.1825,-291.02 -42.1699,-262.833 -42.1699,-262.833"/>
<path fill="#1874cd" stroke="black" stroke-width="0.5" d="M-42.1699,-262.833C-42.1699,-262.833 -61.1825,-291.02 -61.1825,-291.02 -62.2487,-290.301 -63.2732,-289.522 -64.2511,-288.687 -65.2291,-287.852 -66.1588,-286.961 -67.0359,-286.021 -67.913,-285.08 -68.736,-284.091 -69.501,-283.057 -70.266,-282.023 -70.9717,-280.947 -71.6148,-279.833 -72.2578,-278.719 -72.8371,-277.57 -73.3499,-276.39 -73.8628,-275.211 -74.3082,-274.003 -74.6843,-272.774 -75.0603,-271.544 -75.3662,-270.293 -75.6006,-269.029 -75.8349,-267.764 -75.9974,-266.488 -76.0871,-265.205 -76.1768,-263.922 -76.1936,-262.635 -76.1375,-261.35 -76.0814,-260.065 -75.9525,-258.784 -75.7513,-257.514 -75.5501,-256.244 -75.277,-254.986 -74.9333,-253.747 -74.5896,-252.508 -74.1759,-251.289 -73.6941,-250.096 -73.2124,-248.904 -72.6633,-247.74 -72.0497,-246.61 -71.436,-245.479 -70.7587,-244.385 -70.0211,-243.331 -69.2834,-242.278 -68.4866,-241.267 -67.6344,-240.304 -66.7822,-239.341 -65.8761,-238.427 -64.9203,-237.566 -64.9203,-237.566 -42.1699,-262.833 -42.1699,-262.833"/>
<path fill="deepskyblue" stroke="black" stroke-width="0.5" d="M-42.1699,-262.833C-42.1699,-262.833 -64.9203,-237.566 -64.9203,-237.566 -63.891,-236.639 -62.8061,-235.776 -61.6715,-234.982 -60.5369,-234.187 -59.3549,-233.463 -58.1319,-232.813 -56.909,-232.162 -55.6475,-231.588 -54.3544,-231.091 -53.0613,-230.595 -51.7392,-230.178 -50.3952,-229.843 -49.0513,-229.508 -47.6882,-229.255 -46.3135,-229.086 -44.9387,-228.918 -43.555,-228.833 -42.1699,-228.833 -40.7848,-228.833 -39.4011,-228.918 -38.0263,-229.086 -36.6516,-229.255 -35.2885,-229.508 -33.9445,-229.843 -32.6006,-230.178 -31.2784,-230.595 -29.9854,-231.091 -28.6923,-231.588 -27.4308,-232.162 -26.2079,-232.813 -24.9849,-233.463 -23.8029,-234.187 -22.6683,-234.982 -21.5337,-235.776 -20.4488,-236.639 -19.4195,-237.566 -18.3902,-238.493 -17.4184,-239.482 -16.5098,-240.527 -15.6011,-241.572 -14.7571,-242.672 -13.9826,-243.82 -13.2081,-244.969 -12.5045,-246.163 -11.8757,-247.397 -11.2469,-248.631 -10.6941,-249.903 -10.2203,-251.204 -10.2203,-251.204 -42.1699,-262.833 -42.1699,-262.833"/>
<path fill="#98f5ff" stroke="black" stroke-width="0.5" d="M-42.1699,-262.833C-42.1699,-262.833 -10.2203,-251.204 -10.2203,-251.204 -9.88203,-252.134 -9.58444,-253.078 -9.32842,-254.033 -9.0724,-254.989 -8.8582,-255.955 -8.68643,-256.929 -8.51466,-257.903 -8.38549,-258.884 -8.29928,-259.87 -8.21307,-260.855 -8.1699,-261.844 -8.1699,-262.833 -8.1699,-262.833 -42.1699,-262.833 -42.1699,-262.833"/>
<ellipse fill="none" stroke="black" cx="-42.1699" cy="-262.833" rx="34" ry="34"/>
</g>
<!-- 1&#45;&gt;3 -->
<g id="edge5" class="edge"><title>1&#45;&gt;3</title>
<path fill="none" stroke="black" d="M-2.91658,-290.027C-5.49258,-288.242 -9.46966,-285.487 -13.9217,-282.403"/>
</g>
<!-- 2 -->
<g id="node3" class="node"><title>2</title>
<ellipse fill="#ff3030" stroke="black" cx="78.4716" cy="85.8627" rx="14" ry="14"/>
</g>
<!-- anon_37_2_0 -->
<g id="node68" class="node"><title>anon_37_2_0</title>
<ellipse fill="white" stroke="black" cx="137.408" cy="133.876" rx="2.5" ry="2.5"/>
</g>
<!-- 2&#45;&gt;anon_37_2_0 -->
<g id="edge52" class="edge"><title>2&#45;&gt;anon_37_2_0</title>
<path fill="none" stroke="black" d="M89.5571,94.8936C101.936,104.978 121.522,120.934 131.354,128.944"/>
<polygon fill="black" stroke="black" points="132.552,127.663 135.323,132.178 130.342,130.376 132.552,127.663"/>
<text text-anchor="middle" x="80.9557" y="124.719" font-family="monospace" font-size="16.00">P1874S</text>
</g>
<!-- 10 -->
<g id="node11" class="node"><title>10</title>
<ellipse fill="#ff3030" stroke="black" cx="67.415" cy="-284.612" rx="3.5" ry="3.5"/>
</g>
<!-- 3&#45;&gt;10 -->
<g id="edge7" class="edge"><title>3&#45;&gt;10</title>
<path fill="none" stroke="black" d="M-8.69537,-269.486C17.9925,-274.79 52.6744,-281.682 63.8079,-283.895"/>
</g>
<!-- 16 -->
<g id="node17" class="node"><title>16</title>
<ellipse fill="#ff3030" stroke="black" cx="-133.032" cy="-229.992" rx="3.5" ry="3.5"/>
</g>
<!-- 3&#45;&gt;16 -->
<g id="edge38" class="edge"><title>3&#45;&gt;16</title>
<path fill="none" stroke="black" d="M-74.2043,-251.255C-92.2944,-244.716 -113.497,-237.053 -124.856,-232.947"/>
<polygon fill="black" stroke="black" points="-124.288,-231.292 -129.585,-231.238 -125.478,-234.583 -124.288,-231.292"/>
<text text-anchor="middle" x="-124.03" y="-247.301" font-family="monospace" font-size="16.00">M704V</text>
</g>
<!-- 21 -->
<g id="node22" class="node"><title>21</title>
<ellipse fill="deepskyblue" stroke="black" cx="-73.3268" cy="-305.902" rx="3.5" ry="3.5"/>
</g>
<!-- 3&#45;&gt;21 -->
<g id="edge8" class="edge"><title>3&#45;&gt;21</title>
<path fill="none" stroke="black" d="M-62.4296,-290.839C-65.963,-295.723 -69.1422,-300.118 -71.1421,-302.882"/>
</g>
<!-- 25 -->
<g id="node26" class="node"><title>25</title>
<ellipse fill="deepskyblue" stroke="black" cx="-77.0035" cy="-227.4" rx="3.5" ry="3.5"/>
</g>
<!-- 3&#45;&gt;25 -->
<g id="edge9" class="edge"><title>3&#45;&gt;25</title>
<path fill="none" stroke="black" d="M-66.363,-238.224C-69.5208,-235.012 -72.3264,-232.158 -74.2629,-230.188"/>
</g>
<!-- 29 -->
<g id="node30" class="node"><title>29</title>
<ellipse fill="deepskyblue" stroke="black" cx="-16.2284" cy="-228.182" rx="3.5" ry="3.5"/>
</g>
<!-- 3&#45;&gt;29 -->
<g id="edge44" class="edge"><title>3&#45;&gt;29</title>
<path fill="none" stroke="black" d="M-21.7299,-235.531C-21.6483,-235.422 -21.5673,-235.313 -21.4869,-235.206"/>
<polygon fill="black" stroke="black" points="-19.958,-236.084 -18.3623,-231.032 -22.7598,-233.986 -19.958,-236.084"/>
<text text-anchor="middle" x="7.8916" y="-222.568" font-family="monospace" font-size="16.00">V1303A</text>
</g>
<!-- 30 -->
<g id="node31" class="node"><title>30</title>
<ellipse fill="deepskyblue" stroke="black" cx="24.8285" cy="-236.109" rx="3.5" ry="3.5"/>
</g>
<!-- 3&#45;&gt;30 -->
<g id="edge10" class="edge"><title>3&#45;&gt;30</title>
<path fill="none" stroke="black" d="M-10.2404,-250.097C2.43204,-245.042 15.4047,-239.868 21.4024,-237.475"/>
</g>
<!-- 34 -->
<g id="node35" class="node"><title>34</title>
<ellipse fill="#ff3030" stroke="black" cx="26.6194" cy="-331.401" rx="3.5" ry="3.5"/>
</g>
<!-- 3&#45;&gt;34 -->
<g id="edge11" class="edge"><title>3&#45;&gt;34</title>
<path fill="none" stroke="black" d="M-17.7237,-287.201C-1.96784,-302.906 16.8354,-321.649 23.8242,-328.615"/>
</g>
<!-- 36 -->
<g id="node37" class="node"><title>36</title>
<ellipse fill="#ff3030" stroke="black" cx="-107.027" cy="-221.906" rx="3.5" ry="3.5"/>
</g>
<!-- 3&#45;&gt;36 -->
<g id="edge12" class="edge"><title>3&#45;&gt;36</title>
<path fill="none" stroke="black" d="M-71.1837,-244.524C-84.135,-236.351 -97.821,-227.715 -103.855,-223.907"/>
</g>
<!-- 41 -->
<g id="node42" class="node"><title>41</title>
<ellipse fill="#1874cd" stroke="black" cx="-21.6111" cy="-147.55" rx="3.5" ry="3.5"/>
</g>
<!-- 3&#45;&gt;41 -->
<g id="edge13" class="edge"><title>3&#45;&gt;41</title>
<path fill="none" stroke="black" d="M-36.1682,-229.178C-31.0955,-200.734 -24.3314,-162.804 -22.2484,-151.123"/>
</g>
<!-- 44 -->
<g id="node45" class="node"><title>44</title>
<ellipse fill="#1874cd" stroke="black" cx="34.3087" cy="-272.062" rx="3.5" ry="3.5"/>
</g>
<!-- 3&#45;&gt;44 -->
<g id="edge14" class="edge"><title>3&#45;&gt;44</title>
<path fill="none" stroke="black" d="M-8.40264,-266.908C6.96304,-268.762 23.3053,-270.734 30.5161,-271.605"/>
</g>
<!-- 46 -->
<g id="node47" class="node"><title>46</title>
<ellipse fill="#1874cd" stroke="black" cx="-80.9166" cy="-343.404" rx="3.5" ry="3.5"/>
</g>
<!-- 3&#45;&gt;46 -->
<g id="edge15" class="edge"><title>3&#45;&gt;46</title>
<path fill="none" stroke="black" d="M-57.0396,-293.754C-65.5761,-311.505 -75.3477,-331.824 -79.2143,-339.865"/>
</g>
<!-- 56 -->
<g id="node57" class="node"><title>56</title>
<ellipse fill="#98f5ff" stroke="black" cx="51.0761" cy="-311.827" rx="3.5" ry="3.5"/>
</g>
<!-- 3&#45;&gt;56 -->
<g id="edge16" class="edge"><title>3&#45;&gt;56</title>
<path fill="none" stroke="black" d="M-11.8956,-278.74C10.2265,-290.364 37.9713,-304.942 47.5979,-310"/>
</g>
<!-- 59 -->
<g id="node60" class="node"><title>59</title>
<ellipse fill="black" stroke="black" cx="60.0036" cy="-251.247" rx="3.5" ry="3.5"/>
</g>
<!-- 3&#45;&gt;59 -->
<g id="edge17" class="edge"><title>3&#45;&gt;59</title>
<path fill="none" stroke="black" d="M-8.14761,-258.975C16.0018,-256.236 45.8988,-252.846 56.2612,-251.671"/>
</g>
<!-- anon_40_3_0 -->
<g id="node69" class="node"><title>anon_40_3_0</title>
<ellipse fill="white" stroke="black" cx="-150.08" cy="-265.347" rx="2.5" ry="2.5"/>
</g>
<!-- 3&#45;&gt;anon_40_3_0 -->
<g id="edge56" class="edge"><title>3&#45;&gt;anon_40_3_0</title>
<path fill="none" stroke="black" d="M-76.3134,-263.628C-99.6595,-264.172 -128.752,-264.85 -142.373,-265.167"/>
<polygon fill="black" stroke="black" points="-142.508,-263.42 -147.466,-265.286 -142.427,-266.919 -142.508,-263.42"/>
<text text-anchor="middle" x="-133.843" y="-269.598" font-family="monospace" font-size="16.00">P940H</text>
</g>
<!-- 4 -->
<g id="node5" class="node"><title>4</title>
<path fill="#ff3030" stroke="black" stroke-width="0.5" d="M121.559,-11.5884C121.559,-11.5884 153.559,-11.5884 153.559,-11.5884 153.559,-12.6627 153.505,-13.7363 153.397,-14.8051 153.289,-15.874 153.127,-16.9367 152.912,-17.9892 152.697,-19.0418 152.43,-20.0829 152.11,-21.1085 151.79,-22.1342 151.419,-23.143 150.998,-24.1314 150.577,-25.1197 150.107,-26.0861 149.588,-27.0271 149.07,-27.9681 148.505,-28.8824 147.894,-29.7665 147.284,-30.6506 146.63,-31.5034 145.934,-32.3217 145.238,-33.14 144.501,-33.9227 143.726,-34.6669 143.726,-34.6669 121.559,-11.5884 121.559,-11.5884"/>
<path fill="deepskyblue" stroke="black" stroke-width="0.5" d="M121.559,-11.5884C121.559,-11.5884 143.726,-34.6669 143.726,-34.6669 142.932,-35.4297 142.099,-36.151 141.23,-36.8279 140.362,-37.5048 139.459,-38.1364 138.525,-38.7203 137.592,-39.3041 136.629,-39.8393 135.64,-40.3239 134.651,-40.8084 133.638,-41.2416 132.604,-41.6217 131.571,-42.0018 130.519,-42.3283 129.451,-42.5998 128.384,-42.8714 127.304,-43.0878 126.214,-43.248 125.125,-43.4082 124.028,-43.512 122.928,-43.5591 121.828,-43.6062 120.726,-43.5965 119.627,-43.53 118.528,-43.4636 117.433,-43.3404 116.346,-43.161 115.26,-42.9816 114.183,-42.7463 113.121,-42.456 112.059,-42.1656 111.012,-41.8206 109.986,-41.4224 108.959,-41.0242 107.954,-40.5732 106.974,-40.0713 105.994,-39.5694 105.04,-39.0173 104.117,-38.4171 103.194,-37.8169 102.302,-37.1695 101.446,-36.4774 100.589,-35.7852 99.7691,-35.0494 98.9885,-34.2727 98.2079,-33.4961 97.4679,-32.6796 96.7715,-31.8267 96.0751,-30.9737 95.4232,-30.0854 94.8183,-29.1652 94.2135,-28.2451 93.6566,-27.2943 93.1498,-26.3167 92.643,-25.3391 92.1869,-24.3361 91.7835,-23.3115 91.3801,-22.2869 91.0299,-21.2421 90.7342,-20.1814 90.4385,-19.1207 90.1978,-18.0455 90.0129,-16.96 89.8281,-15.8744 89.6994,-14.7801 89.6274,-13.6813 89.5554,-12.5825 89.5401,-11.4808 89.5817,-10.3804 89.6233,-9.28004 89.7216,-8.18256 89.8763,-7.09234 90.031,-6.00212 90.2419,-4.92061 90.5081,-3.85213 90.7743,-2.78365 91.0955,-1.72962 91.4704,-0.694253 91.8453,0.341115 92.2733,1.35644 92.7529,2.34768 93.2324,3.33892 93.7628,4.30474 94.342,5.24129 94.9211,6.17785 95.5482,7.08389 96.2207,7.95579 96.8932,8.8277 97.6103,9.66431 98.3691,10.4623 99.1279,11.2603 99.9273,12.0185 100.764,12.7341 101.601,13.4497 102.475,14.1215 103.381,14.7471 103.381,14.7471 121.559,-11.5884 121.559,-11.5884"/>
<path fill="#98f5ff" stroke="black" stroke-width="0.5" d="M121.559,-11.5884C121.559,-11.5884 103.381,14.7471 103.381,14.7471 104.575,15.5711 105.823,16.3129 107.117,16.9675 108.412,17.6222 109.749,18.188 111.12,18.6612 112.492,19.1343 113.893,19.5137 115.316,19.7967 116.739,20.0797 118.179,20.2656 119.627,20.3532 121.075,20.4408 122.527,20.4298 123.973,20.3204 125.42,20.2109 126.857,20.0033 128.275,19.6988 129.693,19.3944 131.089,18.9939 132.453,18.5001 133.817,18.0062 135.146,17.4203 136.43,16.7462 137.714,16.0721 138.951,15.3114 140.133,14.4695 141.314,13.6276 142.436,12.7063 143.493,11.7121 144.549,10.7179 145.536,9.65297 146.448,8.52478 147.36,7.39659 148.193,6.20772 148.944,4.96639 149.694,3.72506 150.359,2.43414 150.935,1.10257 151.51,-0.229005 151.994,-1.59815 152.384,-2.9954 152.773,-4.39265 153.067,-5.81476 153.264,-7.25191 153.46,-8.68905 153.559,-10.1379 153.559,-11.5884 153.559,-11.5884 121.559,-11.5884 121.559,-11.5884"/>
<ellipse fill="none" stroke="black" cx="121.559" cy="-11.5884" rx="32" ry="32"/>
</g>
<!-- 55 -->
<g id="node56" class="node"><title>55</title>
<ellipse fill="#98f5ff" stroke="black" cx="229.853" cy="-44.4607" rx="3.5" ry="3.5"/>
</g>
<!-- 4&#45;&gt;55 -->
<g id="edge19" class="edge"><title>4&#45;&gt;55</title>
<path fill="none" stroke="black" d="M152.302,-20.9204C179.066,-29.0444 215.276,-40.0358 226.437,-43.4237"/>
</g>
<!-- 5 -->
<g id="node6" class="node"><title>5</title>
<ellipse fill="#ff3030" stroke="black" cx="-71.1434" cy="92.0882" rx="18" ry="18"/>
</g>
<!-- 6 -->
<g id="node7" class="node"><title>6</title>
<path fill="#ff3030" stroke="black" stroke-width="0.5" d="M12.0092,23.0968C12.0092,23.0968 46.5092,23.0968 46.5092,23.0968 46.5092,21.5423 46.4042,19.9895 46.1947,18.4492 45.9853,16.9089 45.6721,15.3845 45.2571,13.8864 45.2571,13.8864 12.0092,23.0968 12.0092,23.0968"/>
<path fill="brown" stroke="black" stroke-width="0.5" d="M12.0092,23.0968C12.0092,23.0968 45.2571,13.8864 45.2571,13.8864 44.988,12.9152 44.6766,11.9562 44.3236,11.0123 43.9706,10.0684 43.5764,9.14039 43.1421,8.23097 42.7079,7.32155 42.234,6.4316 41.7219,5.56367 41.2097,4.69574 40.6598,3.85067 40.0736,3.03089 39.4875,2.2111 38.8657,1.41739 38.2101,0.652047 37.5545,-0.113301 36.8656,-0.849554 36.1455,-1.55459 35.4254,-2.25964 34.6748,-2.93279 33.8958,-3.57211 33.1168,-4.21143 32.3101,-4.81632 31.4781,-5.38502 30.6462,-5.95372 29.7897,-6.4857 28.9111,-6.97941 28.0326,-7.47313 27.1328,-7.92812 26.2144,-8.34306 25.296,-8.75801 24.3599,-9.13252 23.4088,-9.46551 22.4576,-9.79849 21.4923,-10.0896 20.5156,-10.3381 19.539,-10.5866 18.5519,-10.7922 17.5572,-10.9542 16.5626,-11.1163 15.5613,-11.2347 14.5563,-11.3091 13.5513,-11.3835 12.5435,-11.4138 11.5358,-11.4 10.5281,-11.3862 9.52151,-11.3282 8.51891,-11.2262 7.51631,-11.1243 6.51865,-10.9785 5.52882,-10.7892 4.53899,-10.5999 3.55792,-10.3673 2.58845,-10.0921 1.61898,-9.8169 0.662028,-9.49937 -0.279644,-9.1404 -1.22132,-8.78143 -2.14681,-8.38138 -3.05346,-7.94139 -3.96011,-7.50139 -4.84704,-7.02189 -5.71171,-6.50424 -6.57638,-5.9866 -7.41795,-5.43132 -8.234,-4.84 -9.05006,-4.24868 -9.83981,-3.62189 -10.601,-2.96143 -11.3622,-2.30097 -12.094,-1.60747 -12.7945,-0.882932 -13.495,-0.158396 -14.1634,0.596484 -14.7977,1.37954 -15.4321,2.16259 -16.0319,2.97306 -16.5953,3.80862 -17.1587,4.64418 -17.6853,5.50403 -18.1734,6.38568 -18.6615,7.26734 -19.1108,8.16997 -19.5199,9.09096 -19.9291,10.0119 -20.2976,10.9504 -20.6246,11.9037 -20.9515,12.8569 -21.2366,13.8241 -21.4789,14.8023 -21.7212,15.7805 -21.9205,16.7689 -22.0762,17.7645 -22.232,18.7602 -22.344,19.7622 -22.4121,20.7677 -22.4801,21.7731 -22.5041,22.7811 -22.4838,23.7887 -22.4636,24.7962 -22.3993,25.8024 -22.291,26.8044 -22.1827,27.8063 -22.0305,28.803 -21.835,29.7916 -21.6394,30.7803 -21.4006,31.7598 -21.1193,32.7275 -20.838,33.6952 -20.5144,34.6502 -20.1495,35.5895 -19.7845,36.5289 -19.3786,37.4519 -18.9329,38.3557 -18.4872,39.2596 -18.0021,40.1434 -17.4789,41.0048 -16.9558,41.8662 -16.3952,42.7042 -15.7988,43.5165 -15.2023,44.3288 -14.5705,45.1146 -13.9052,45.8715 -13.24,46.6285 -12.5418,47.356 -11.8129,48.0519 -11.0839,48.7477 -10.3248,49.4113 -9.53778,50.0407 -8.75072,50.6701 -7.93647,51.2647 -7.09735,51.8229 -6.25824,52.381 -5.39508,52.9021 -4.51035,53.3846 -3.62561,53.8672 -2.72016,54.3107 -1.7966,54.714 -0.873036,55.1173 0.0677554,55.4799 1.02307,55.8008 1.97838,56.1217 2.94729,56.4006 3.92702,56.6367 4.90675,56.8728 5.89635,57.0658 6.89298,57.2153 7.88961,57.3647 8.89231,57.4704 9.89819,57.5321 10.9041,57.5938 11.9122,57.6113 12.9196,57.5847 13.927,57.5581 14.9328,57.4874 15.934,57.3728 16.9353,57.2581 17.931,57.0997 18.9183,56.8978 19.9057,56.696 20.8837,56.451 21.8496,56.1636 22.8155,55.8761 23.7684,55.5465 24.7054,55.1756 25.6425,54.8048 26.5628,54.393 27.4638,53.9416 28.3648,53.4902 29.2456,52.9994 30.1037,52.4709 30.9617,51.9423 31.7962,51.3764 32.6047,50.7748 33.4132,50.1732 34.1949,49.5365 34.9477,48.8664 35.7004,48.1964 36.4235,47.4937 37.1147,46.7603 37.8059,46.027 38.4647,45.2637 39.0891,44.4727 39.7135,43.6816 40.303,42.8636 40.8558,42.021 41.4086,41.1784 41.9242,40.3119 42.4011,39.4241 42.878,38.5364 43.3158,37.6281 43.7133,36.702 43.7133,36.702 12.0092,23.0968 12.0092,23.0968"/>
<path fill="deepskyblue" stroke="black" stroke-width="0.5" d="M12.0092,23.0968C12.0092,23.0968 43.7133,36.702 43.7133,36.702 44.1729,35.6308 44.5781,34.537 44.927,33.4248 45.276,32.3126 45.5683,31.1834 45.803,30.0416 46.0376,28.8997 46.2143,27.7468 46.3322,26.5871 46.4501,25.4274 46.5092,24.2624 46.5092,23.0968 46.5092,23.0968 12.0092,23.0968 12.0092,23.0968"/>
<ellipse fill="none" stroke="black" cx="12.0092" cy="23.0968" rx="34.5" ry="34.5"/>
</g>
<!-- 6&#45;&gt;0 -->
<g id="edge1" class="edge"><title>6&#45;&gt;0</title>
<path fill="none" stroke="black" d="M46.6878,24.9873C62.6986,25.8602 81.5431,26.8876 97.0151,27.731"/>
<polygon fill="black" stroke="black" points="97.2266,25.9899 102.124,28.0096 97.036,29.4847 97.2266,25.9899"/>
<text text-anchor="middle" x="71.8515" y="39.1592" font-family="monospace" font-size="16.00">I1868T</text>
</g>
<!-- 6&#45;&gt;2 -->
<g id="edge6" class="edge"><title>6&#45;&gt;2</title>
<path fill="none" stroke="black" d="M37.1358,46.8259C46.3602,55.5372 56.4719,65.0865 64.3854,72.5599"/>
<polygon fill="black" stroke="black" points="65.6464,71.3437 68.08,76.0491 63.2433,73.8884 65.6464,71.3437"/>
<text text-anchor="middle" x="21.2606" y="72.4929" font-family="monospace" font-size="16.00">A1934V</text>
</g>
<!-- 6&#45;&gt;4 -->
<g id="edge18" class="edge"><title>6&#45;&gt;4</title>
<path fill="none" stroke="black" d="M45.175,12.5959C57.9619,8.54739 72.62,3.90642 85.654,-0.220361"/>
<polygon fill="black" stroke="black" points="85.4555,-1.99307 90.7505,-1.834 86.512,1.34368 85.4555,-1.99307"/>
<text text-anchor="middle" x="65.4145" y="18.9878" font-family="monospace" font-size="16.00">P1874L</text>
</g>
<!-- 6&#45;&gt;5 -->
<g id="edge20" class="edge"><title>6&#45;&gt;5</title>
<path fill="none" stroke="black" d="M-14.7585,45.3058C-27.2746,55.6904 -41.8503,67.7838 -53.0464,77.0732"/>
<polygon fill="black" stroke="black" points="-52.0429,78.5144 -57.0083,80.3603 -54.2777,75.8208 -52.0429,78.5144"/>
<text text-anchor="middle" x="-63.4025" y="55.9895" font-family="monospace" font-size="16.00">P1874S</text>
</g>
<!-- 7 -->
<g id="node8" class="node"><title>7</title>
<ellipse fill="#ff3030" stroke="black" cx="-15.1926" cy="-25.4148" rx="9.5" ry="9.5"/>
</g>
<!-- 6&#45;&gt;7 -->
<g id="edge21" class="edge"><title>6&#45;&gt;7</title>
<path fill="none" stroke="black" d="M-4.90875,-7.07466C-5.90273,-8.84733 -6.87154,-10.5751 -7.79213,-12.2169"/>
<polygon fill="black" stroke="black" points="-9.46714,-11.626 -10.3862,-16.8431 -6.4143,-13.3379 -9.46714,-11.626"/>
<text text-anchor="middle" x="23.1496" y="-14.8458" font-family="monospace" font-size="16.00">K1603T</text>
</g>
<!-- 8 -->
<g id="node9" class="node"><title>8</title>
<ellipse fill="#ff3030" stroke="black" cx="77.4202" cy="-21.9522" rx="6" ry="6"/>
</g>
<!-- 6&#45;&gt;8 -->
<g id="edge22" class="edge"><title>6&#45;&gt;8</title>
<path fill="none" stroke="black" d="M40.5091,3.46868C50.3554,-3.31251 60.7188,-10.4498 67.9493,-15.4295"/>
<polygon fill="black" stroke="black" points="67.2991,-17.1066 72.4096,-18.5014 69.2843,-14.224 67.2991,-17.1066"/>
<text text-anchor="middle" x="83.7292" y="-11.1804" font-family="monospace" font-size="16.00">L1667M</text>
</g>
<!-- 13 -->
<g id="node14" class="node"><title>13</title>
<ellipse fill="#ff3030" stroke="black" cx="67.3203" cy="-48.9495" rx="8" ry="8"/>
</g>
<!-- 6&#45;&gt;13 -->
<g id="edge23" class="edge"><title>6&#45;&gt;13</title>
<path fill="none" stroke="black" d="M33.2358,-4.55215C42.3467,-16.4197 52.4431,-29.5709 59.2653,-38.4572"/>
<polygon fill="black" stroke="black" points="57.8997,-39.5523 62.3326,-42.4527 60.6759,-37.4209 57.8997,-39.5523"/>
<text text-anchor="middle" x="75.7505" y="-26.7047" font-family="monospace" font-size="16.00">I1940T</text>
</g>
<!-- 14 -->
<g id="node15" class="node"><title>14</title>
<path fill="#ff3030" stroke="black" stroke-width="0.5" d="M26.5545,128.671C26.5545,128.671 32.5545,128.671 32.5545,128.671 32.5545,128.409 32.5373,128.147 32.5031,127.888 32.4689,127.628 32.4178,127.371 32.35,127.118 32.2822,126.865 32.198,126.617 32.0977,126.375 31.9975,126.133 31.8816,125.898 31.7506,125.671 31.6197,125.444 31.474,125.226 31.3146,125.018 31.1551,124.81 30.9823,124.613 30.7971,124.428 30.6119,124.243 30.4148,124.07 30.207,123.911 29.9992,123.751 29.7813,123.606 29.5545,123.475 29.3276,123.344 29.0925,123.228 28.8506,123.127 28.6086,123.027 28.3603,122.943 28.1074,122.875 27.8544,122.807 27.5973,122.756 27.3376,122.722 27.078,122.688 26.8163,122.671 26.5545,122.671 26.2926,122.671 26.0309,122.688 25.7713,122.722 25.5116,122.756 25.2545,122.807 25.0015,122.875 24.7486,122.943 24.5003,123.027 24.2584,123.127 24.0164,123.228 23.7813,123.344 23.5545,123.475 23.3276,123.606 23.1097,123.751 22.9019,123.911 22.6941,124.07 22.497,124.243 22.3118,124.428 22.1266,124.613 21.9538,124.81 21.7943,125.018 21.6349,125.226 21.4892,125.444 21.3583,125.671 21.2274,125.898 21.1114,126.133 21.0112,126.375 20.911,126.617 20.8267,126.865 20.7589,127.118 20.6911,127.371 20.64,127.628 20.6058,127.888 20.5716,128.147 20.5545,128.409 20.5545,128.671 20.5545,128.933 20.5716,129.194 20.6058,129.454 20.64,129.714 20.6911,129.971 20.7589,130.224 20.8267,130.477 20.911,130.725 21.0112,130.967 21.1114,131.209 21.2274,131.444 21.3583,131.671 21.4892,131.898 21.6349,132.116 21.7943,132.323 21.9538,132.531 22.1266,132.728 22.3118,132.913 22.497,133.099 22.6941,133.271 22.9019,133.431 23.1097,133.59 23.3276,133.736 23.5545,133.867 23.5545,133.867 26.5545,128.671 26.5545,128.671"/>
<path fill="#98f5ff" stroke="black" stroke-width="0.5" d="M26.5545,128.671C26.5545,128.671 23.5545,133.867 23.5545,133.867 23.7813,133.998 24.0164,134.114 24.2584,134.214 24.5003,134.314 24.7486,134.398 25.0015,134.466 25.2545,134.534 25.5116,134.585 25.7713,134.619 26.0309,134.654 26.2926,134.671 26.5545,134.671 26.8163,134.671 27.078,134.654 27.3376,134.619 27.5973,134.585 27.8544,134.534 28.1074,134.466 28.3603,134.398 28.6086,134.314 28.8506,134.214 29.0925,134.114 29.3276,133.998 29.5545,133.867 29.7813,133.736 29.9992,133.59 30.207,133.431 30.4148,133.271 30.6119,133.099 30.7971,132.913 30.9823,132.728 31.1551,132.531 31.3146,132.323 31.474,132.116 31.6197,131.898 31.7506,131.671 31.8816,131.444 31.9975,131.209 32.0977,130.967 32.198,130.725 32.2822,130.477 32.35,130.224 32.4178,129.971 32.4689,129.714 32.5031,129.454 32.5373,129.194 32.5545,128.933 32.5545,128.671 32.5545,128.671 26.5545,128.671 26.5545,128.671"/>
<ellipse fill="none" stroke="black" cx="26.5545" cy="128.671" rx="6" ry="6"/>
</g>
<!-- 6&#45;&gt;14 -->
<g id="edge24" class="edge"><title>6&#45;&gt;14</title>
<path fill="none" stroke="black" d="M16.7316,57.3736C19.6023,78.2096 23.0799,103.451 25.0325,117.624"/>
<polygon fill="black" stroke="black" points="26.7756,117.455 25.7245,122.647 23.3084,117.932 26.7756,117.455"/>
<text text-anchor="middle" x="33.1321" y="100.299" font-family="monospace" font-size="16.00">T791M</text>
</g>
<!-- 17 -->
<g id="node18" class="node"><title>17</title>
<ellipse fill="#ff3030" stroke="black" cx="-30.2141" cy="0.47201" rx="6" ry="6"/>
</g>
<!-- 6&#45;&gt;17 -->
<g id="edge25" class="edge"><title>6&#45;&gt;17</title>
<path fill="none" stroke="black" d="M-18.6764,6.65432C-19.2392,6.35278 -19.7904,6.0574 -20.328,5.76936"/>
<polygon fill="black" stroke="black" points="-21.1568,7.31069 -24.7374,3.40661 -19.5037,4.22566 -21.1568,7.31069"/>
<text text-anchor="middle" x="-49.0022" y="19.0118" font-family="monospace" font-size="16.00">N1345I</text>
</g>
<!-- 19 -->
<g id="node20" class="node"><title>19</title>
<path fill="deepskyblue" stroke="black" stroke-width="0.5" d="M97.3148,59.2129C97.3148,59.2129 108.815,59.2129 108.815,59.2129 108.815,58.7611 108.788,58.3098 108.735,57.8612 108.682,57.4126 108.603,56.9675 108.497,56.5282 108.392,56.089 108.26,55.6563 108.104,55.2325 107.948,54.8087 107.766,54.3945 107.561,53.992 107.356,53.5895 107.128,53.1994 106.877,52.8238 106.626,52.4482 106.353,52.0877 106.059,51.7442 105.766,51.4007 105.453,51.0748 105.121,50.7682 104.789,50.4615 104.44,50.1747 104.074,49.9092 103.709,49.6436 103.328,49.3999 102.934,49.1792 102.54,48.9584 102.133,48.7611 101.716,48.5882 101.298,48.4154 100.871,48.2672 100.436,48.1446 100.002,48.022 99.56,47.9251 99.1138,47.8544 98.6676,47.7838 98.2177,47.7395 97.7663,47.7217 97.3149,47.704 96.8629,47.7129 96.4125,47.7483 95.9622,47.7838 95.5143,47.8457 95.0713,47.9338 94.6282,48.022 94.1907,48.1361 93.7611,48.2757 93.3315,48.4153 92.9104,48.5801 92.5002,48.7692 92.09,48.9583 91.6912,49.1715 91.3061,49.4075 90.9209,49.6435 90.55,49.9021 90.1952,50.1817 89.8405,50.4614 89.5025,50.7617 89.1831,51.0811 88.8636,51.4006 88.5633,51.7385 88.2837,52.0933 88.004,52.448 87.7455,52.819 87.5094,53.2041 87.2734,53.5893 87.0603,53.988 86.8712,54.3983 86.682,54.8085 86.5172,55.2295 86.3776,55.6592 86.2381,56.0888 86.1239,56.5263 86.0358,56.9693 85.9476,57.4124 85.8857,57.8602 85.8502,58.3106 85.8148,58.7609 85.8059,59.213 85.8237,59.6644 85.8414,60.1157 85.8857,60.5657 85.9564,61.0119 86.027,61.458 86.1239,61.8997 86.2466,62.3344 86.3692,62.7692 86.5173,63.1964 86.6902,63.6137 86.8631,64.0311 87.0604,64.4379 87.2811,64.832 87.5018,65.2261 87.7456,65.6069 88.0111,65.9724 88.0111,65.9724 97.3148,59.2129 97.3148,59.2129"/>
<path fill="#98f5ff" stroke="black" stroke-width="0.5" d="M97.3148,59.2129C97.3148,59.2129 88.0111,65.9724 88.0111,65.9724 88.3652,66.4598 88.7571,66.9186 89.1831,67.3446 89.6091,67.7706 90.0679,68.1624 90.5553,68.5166 91.0427,68.8707 91.5571,69.1859 92.0939,69.4594 92.6307,69.7329 93.1881,69.9638 93.7611,70.15 94.3341,70.3362 94.9208,70.477 95.5158,70.5713 96.1108,70.6655 96.7124,70.7129 97.3148,70.7129 97.9172,70.7129 98.5188,70.6655 99.1138,70.5713 99.7088,70.477 100.296,70.3362 100.868,70.15 101.441,69.9638 101.999,69.7329 102.536,69.4594 103.072,69.1859 103.587,68.8707 104.074,68.5166 104.562,68.1624 105.021,67.7706 105.447,67.3446 105.873,66.9186 106.264,66.4598 106.618,65.9724 106.973,65.485 107.288,64.9705 107.561,64.4338 107.835,63.897 108.066,63.3395 108.252,62.7666 108.438,62.1936 108.579,61.6069 108.673,61.0119 108.767,60.4168 108.815,59.8153 108.815,59.2129 108.815,59.2129 97.3148,59.2129 97.3148,59.2129"/>
<ellipse fill="none" stroke="black" cx="97.3148" cy="59.2129" rx="11.5" ry="11.5"/>
</g>
<!-- 6&#45;&gt;19 -->
<g id="edge26" class="edge"><title>6&#45;&gt;19</title>
<path fill="none" stroke="black" d="M44.2596,36.7507C57.0724,42.1753 71.2189,48.1646 81.6799,52.5935"/>
<polygon fill="black" stroke="black" points="82.5752,51.0721 86.4973,54.633 81.2106,54.2951 82.5752,51.0721"/>
<text text-anchor="middle" x="62.9698" y="57.4721" font-family="monospace" font-size="16.00">E1597G</text>
</g>
<!-- 26 -->
<g id="node27" class="node"><title>26</title>
<ellipse fill="deepskyblue" stroke="black" cx="21.2111" cy="-19.9681" rx="5" ry="5"/>
</g>
<!-- 6&#45;&gt;26 -->
<g id="edge27" class="edge"><title>6&#45;&gt;26</title>
<path fill="none" stroke="black" d="M19.2596,-10.8352C19.2797,-10.929 19.2996,-11.0223 19.3194,-11.1152"/>
<polygon fill="black" stroke="black" points="17.3767,-10.3987 20.133,-14.9226 20.7995,-9.66724 17.3767,-10.3987"/>
<text text-anchor="middle" x="48.7895" y="1.82483" font-family="monospace" font-size="16.00">I1584T</text>
</g>
<!-- 31 -->
<g id="node32" class="node"><title>31</title>
<path fill="deepskyblue" stroke="black" stroke-width="0.5" d="M-114.634,9.8482C-114.634,9.8482 -102.134,9.8482 -102.134,9.8482 -102.134,9.37083 -102.161,8.89386 -102.216,8.41961 -102.27,7.94537 -102.352,7.47465 -102.461,7.00975 -102.569,6.54485 -102.704,6.08654 -102.865,5.63708 -103.026,5.18761 -103.212,4.74773 -103.423,4.31959 -103.634,3.89145 -103.87,3.47576 -104.128,3.07456 -104.387,2.67335 -104.669,2.2873 -104.971,1.91829 -105.274,1.54927 -105.598,1.19791 -105.941,0.865932 -106.284,0.533949 -106.646,0.221889 -107.025,-0.0687149 -107.403,-0.359319 -107.798,-0.627989 -108.208,-0.873406 -108.617,-1.11882 -109.04,-1.34058 -109.475,-1.5376 -109.91,-1.73461 -110.356,-1.90655 -110.81,-2.05258 -111.265,-2.19861 -111.727,-2.31848 -112.195,-2.41161 -112.664,-2.50474 -113.137,-2.57098 -113.613,-2.60999 -114.088,-2.649 -114.566,-2.66072 -115.043,-2.64511 -115.52,-2.62949 -115.996,-2.58655 -116.468,-2.5165 -116.94,-2.44646 -117.408,-2.34942 -117.869,-2.22587 -118.33,-2.10232 -118.784,-1.95245 -119.228,-1.77701 -119.672,-1.60157 -120.105,-1.40084 -120.526,-1.17581 -120.947,-0.950785 -121.355,-0.701822 -121.748,-0.430152 -122.14,-0.158481 -122.517,0.135452 -122.876,0.450203 -123.235,0.764954 -123.575,1.10001 -123.896,1.45371 -124.217,1.80742 -124.517,2.1792 -124.795,2.56723 -125.073,2.95526 -125.328,3.35889 -125.56,3.77616 -125.792,4.19342 -126,4.62363 -126.183,5.06466 -126.365,5.50569 -126.522,5.95682 -126.654,6.41584 -126.785,6.87486 -126.889,7.34101 -126.967,7.81201 -127.045,8.283 -127.096,8.75806 -127.119,9.23485 -127.142,9.71165 -127.138,10.1894 -127.107,10.6657 -127.076,11.1421 -127.018,11.6163 -126.932,12.0859 -126.847,12.5556 -126.734,13.0199 -126.596,13.4768 -126.457,13.9336 -126.293,14.3821 -126.103,14.8201 -125.913,15.258 -125.698,15.6848 -125.459,16.0982 -125.459,16.0982 -114.634,9.8482 -114.634,9.8482"/>
<path fill="#98f5ff" stroke="black" stroke-width="0.5" d="M-114.634,9.8482C-114.634,9.8482 -125.459,16.0982 -125.459,16.0982 -125.118,16.689 -124.729,17.2508 -124.297,17.7781 -123.864,18.3054 -123.389,18.7964 -122.876,19.2462 -122.363,19.696 -121.814,20.103 -121.235,20.4632 -120.656,20.8234 -120.048,21.1356 -119.418,21.3967 -118.787,21.6577 -118.137,21.8668 -117.472,22.0217 -116.808,22.1766 -116.132,22.2768 -115.452,22.3214 -114.771,22.3661 -114.088,22.3549 -113.409,22.288 -112.73,22.2211 -112.058,22.0988 -111.399,21.9223 -110.74,21.7457 -110.097,21.5155 -109.475,21.234 -108.854,20.9525 -108.257,20.6206 -107.689,20.2416 -107.122,19.8626 -106.587,19.4378 -106.089,18.9715 -105.591,18.5052 -105.132,17.9989 -104.717,17.4577 -104.302,16.9165 -103.932,16.3423 -103.61,15.7407 -103.288,15.1391 -103.017,14.5121 -102.797,13.8662 -102.578,13.2202 -102.412,12.5574 -102.301,11.8844 -102.19,11.2114 -102.134,10.5304 -102.134,9.8482 -102.134,9.8482 -114.634,9.8482 -114.634,9.8482"/>
<ellipse fill="none" stroke="black" cx="-114.634" cy="9.8482" rx="12.5" ry="12.5"/>
</g>
<!-- 6&#45;&gt;31 -->
<g id="edge28" class="edge"><title>6&#45;&gt;31</title>
<path fill="none" stroke="black" d="M-22.5966,19.4765C-46.6958,16.9554 -77.8352,13.6978 -97.0108,11.6918"/>
<polygon fill="black" stroke="black" points="-97.2955,13.4217 -102.086,11.1609 -96.9313,9.94068 -97.2955,13.4217"/>
<text text-anchor="middle" x="-89.3037" y="10.3842" font-family="monospace" font-size="16.00">V1853I</text>
</g>
<!-- 48 -->
<g id="node49" class="node"><title>48</title>
<ellipse fill="brown" stroke="black" cx="-27.8995" cy="105.936" rx="6" ry="6"/>
</g>
<!-- 6&#45;&gt;48 -->
<g id="edge29" class="edge"><title>6&#45;&gt;48</title>
<path fill="none" stroke="black" d="M-3.07856,54.4147C-11.2898,71.4588 -20.6719,90.9333 -25.1888,100.309"/>
</g>
<!-- 50 -->
<g id="node51" class="node"><title>50</title>
<ellipse fill="brown" stroke="black" cx="-20.6275" cy="-97.5456" rx="8" ry="8"/>
</g>
<!-- 6&#45;&gt;50 -->
<g id="edge30" class="edge"><title>6&#45;&gt;50</title>
<path fill="none" stroke="black" d="M2.91806,-10.5089C-4.4001,-37.5606 -14.1484,-73.5955 -18.441,-89.4632"/>
</g>
<!-- anon_27_6_1 -->
<g id="node64" class="node"><title>anon_27_6_1</title>
<ellipse fill="white" stroke="black" cx="-78.9204" cy="18.6848" rx="2.5" ry="2.5"/>
</g>
<!-- 6&#45;&gt;anon_27_6_1 -->
<g id="edge42" class="edge"><title>6&#45;&gt;anon_27_6_1</title>
<path fill="none" stroke="black" d="M-22.6267,21.4162C-40.4155,20.5531 -60.5527,19.576 -71.262,19.0564"/>
<polygon fill="black" stroke="black" points="-71.4797,20.798 -76.389,18.8077 -71.31,17.3021 -71.4797,20.798"/>
<text text-anchor="middle" x="-46.9444" y="33.0363" font-family="monospace" font-size="16.00">G54C</text>
</g>
<!-- 57 -->
<g id="node58" class="node"><title>57</title>
<ellipse fill="black" stroke="black" cx="140.514" cy="-45.9456" rx="6" ry="6"/>
</g>
<!-- 8&#45;&gt;57 -->
<g id="edge31" class="edge"><title>8&#45;&gt;57</title>
<path fill="none" stroke="black" d="M83.2428,-24.1664C95.3235,-28.7605 122.977,-39.2766 134.887,-43.8058"/>
</g>
<!-- 9 -->
<g id="node10" class="node"><title>9</title>
<ellipse fill="deepskyblue" stroke="black" cx="80.2267" cy="238.945" rx="3.5" ry="3.5"/>
</g>
<!-- 11 -->
<g id="node12" class="node"><title>11</title>
<ellipse fill="deepskyblue" stroke="black" cx="-61.4388" cy="138.944" rx="3.5" ry="3.5"/>
</g>
<!-- 12 -->
<g id="node13" class="node"><title>12</title>
<ellipse fill="deepskyblue" stroke="black" cx="-20.3332" cy="246.034" rx="3.5" ry="3.5"/>
</g>
<!-- 15 -->
<g id="node16" class="node"><title>15</title>
<path fill="deepskyblue" stroke="black" stroke-width="0.5" d="M27.7707,210.915C27.7707,210.915 45.7707,210.915 45.7707,210.915 45.7707,210.067 45.7107,209.219 45.5911,208.379 45.4715,207.539 45.2927,206.708 45.056,205.893 44.8192,205.079 44.5251,204.281 44.1759,203.508 43.8267,202.735 43.4233,201.987 42.9686,201.27 42.5139,200.554 42.0091,199.871 41.458,199.225 40.9069,198.58 40.3108,197.974 39.6743,197.413 39.0378,196.852 38.3623,196.337 37.6531,195.871 36.9438,195.405 36.2025,194.99 35.4347,194.628 34.6669,194.267 33.8745,193.961 33.0634,193.711 32.2523,193.462 31.4246,193.27 30.5865,193.137 29.7484,193.004 28.9019,192.931 28.0534,192.918 27.2049,192.904 26.3566,192.951 25.5147,193.057 24.6728,193.164 23.8395,193.329 23.021,193.553 22.2025,193.777 21.4008,194.059 20.622,194.396 19.8432,194.733 19.0892,195.124 18.3657,195.568 17.6422,196.011 16.9509,196.505 16.2971,197.046 15.6432,197.587 15.0284,198.173 14.4573,198.801 13.8862,199.429 13.3602,200.096 12.8832,200.798 12.4063,201.5 11.9795,202.234 11.6062,202.996 11.2329,203.758 10.9139,204.546 10.6517,205.353 10.3894,206.16 10.1846,206.985 10.0387,207.821 9.89282,208.657 9.80622,209.502 9.77957,210.35 9.75291,211.198 9.78627,212.047 9.87939,212.891 9.97251,213.734 10.1252,214.57 10.3362,215.392 10.5472,216.214 10.8161,217.02 11.1409,217.804 11.4656,218.588 11.8454,219.348 12.2773,220.078 12.7093,220.808 13.1924,221.507 13.7229,222.17 14.2535,222.832 14.8302,223.456 15.4488,224.037 16.0674,224.618 16.7263,225.154 17.4206,225.642 18.1149,226.13 18.8428,226.568 19.5989,226.953 20.355,227.339 21.1373,227.67 21.9402,227.945 22.743,228.22 23.5643,228.437 24.3978,228.596 24.3978,228.596 27.7707,210.915 27.7707,210.915"/>
<path fill="#98f5ff" stroke="black" stroke-width="0.5" d="M27.7707,210.915C27.7707,210.915 24.3978,228.596 24.3978,228.596 25.046,228.72 25.7006,228.808 26.3584,228.86 27.0163,228.912 27.6765,228.927 28.3361,228.906 28.9957,228.886 29.6536,228.829 30.3069,228.736 30.9602,228.643 31.6079,228.514 32.2471,228.35 32.8863,228.186 33.5159,227.987 34.1332,227.753 34.7505,227.52 35.3545,227.253 35.9425,226.953 36.5305,226.654 37.1015,226.322 37.6531,225.96 38.2046,225.598 38.7359,225.205 39.2443,224.785 39.7528,224.364 40.2377,223.916 40.697,223.442 41.1562,222.968 41.589,222.469 41.9935,221.948 42.3979,221.426 42.7734,220.883 43.1182,220.32 43.463,219.758 43.7766,219.176 44.0576,218.579 44.3385,217.982 44.5865,217.37 44.8002,216.746 45.014,216.121 45.1932,215.486 45.3372,214.842 45.4811,214.198 45.5896,213.546 45.662,212.891 45.7344,212.235 45.7707,211.575 45.7707,210.915 45.7707,210.915 27.7707,210.915 27.7707,210.915"/>
<ellipse fill="none" stroke="black" cx="27.7707" cy="210.915" rx="18" ry="18"/>
</g>
<!-- 14&#45;&gt;15 -->
<g id="edge34" class="edge"><title>14&#45;&gt;15</title>
<path fill="none" stroke="black" d="M26.6459,134.852C26.8091,145.889 27.1585,169.515 27.4248,187.526"/>
<polygon fill="black" stroke="black" points="29.1803,187.89 27.5045,192.916 25.6807,187.942 29.1803,187.89"/>
<text text-anchor="middle" x="-2.46466" y="173.989" font-family="monospace" font-size="16.00">A1746S</text>
</g>
<!-- 15&#45;&gt;9 -->
<g id="edge32" class="edge"><title>15&#45;&gt;9</title>
<path fill="none" stroke="black" d="M43.7943,219.477C55.6051,225.789 70.6866,233.847 77.1073,237.278"/>
</g>
<!-- 15&#45;&gt;12 -->
<g id="edge33" class="edge"><title>15&#45;&gt;12</title>
<path fill="none" stroke="black" d="M13.0766,221.643C2.24567,229.55 -11.5846,239.647 -17.4726,243.946"/>
</g>
<!-- anon_15_23_0 -->
<g id="node61" class="node"><title>anon_15_23_0</title>
<ellipse fill="white" stroke="black" cx="26.8054" cy="274.194" rx="2.5" ry="2.5"/>
</g>
<!-- 15&#45;&gt;anon_15_23_0 -->
<g id="edge35" class="edge"><title>15&#45;&gt;anon_15_23_0</title>
<path fill="none" stroke="black" d="M27.4915,229.218C27.2599,244.403 26.9517,264.603 26.8443,271.645"/>
</g>
<!-- 18 -->
<g id="node19" class="node"><title>18</title>
<ellipse fill="deepskyblue" stroke="black" cx="-7.72514" cy="-328.196" rx="3.5" ry="3.5"/>
</g>
<!-- 18&#45;&gt;3 -->
<g id="edge39" class="edge"><title>18&#45;&gt;3</title>
<path fill="none" stroke="black" d="M-9.38648,-325.043C-12.5042,-319.127 -19.5276,-305.799 -26.2771,-292.991"/>
</g>
<!-- 20 -->
<g id="node21" class="node"><title>20</title>
<ellipse fill="deepskyblue" stroke="black" cx="-269.685" cy="67.1395" rx="3.5" ry="3.5"/>
</g>
<!-- 23 -->
<g id="node24" class="node"><title>23</title>
<ellipse fill="deepskyblue" stroke="black" cx="16.0084" cy="359.886" rx="3.5" ry="3.5"/>
</g>
<!-- 27 -->
<g id="node28" class="node"><title>27</title>
<ellipse fill="#ff3030" stroke="black" cx="-179.822" cy="64.0241" rx="5" ry="5"/>
</g>
<!-- anon_27_6_0 -->
<g id="node63" class="node"><title>anon_27_6_0</title>
<ellipse fill="white" stroke="black" cx="-132.087" cy="35.8524" rx="2.5" ry="2.5"/>
</g>
<!-- 27&#45;&gt;anon_27_6_0 -->
<g id="edge40" class="edge"><title>27&#45;&gt;anon_27_6_0</title>
<path fill="none" stroke="black" d="M-175.417,61.4242C-165.631,55.6488 -142.338,41.902 -134.62,37.3472"/>
</g>
<!-- 28 -->
<g id="node29" class="node"><title>28</title>
<ellipse fill="#ff3030" stroke="black" cx="109.942" cy="-73.4032" rx="3.5" ry="3.5"/>
</g>
<!-- 28&#45;&gt;13 -->
<g id="edge43" class="edge"><title>28&#45;&gt;13</title>
<path fill="none" stroke="black" d="M106.877,-71.6446C100.158,-67.7897 83.981,-58.5083 74.5264,-53.0839"/>
</g>
<!-- anon_31_20_0 -->
<g id="node65" class="node"><title>anon_31_20_0</title>
<ellipse fill="white" stroke="black" cx="-184.035" cy="28.2895" rx="2.5" ry="2.5"/>
</g>
<!-- 31&#45;&gt;anon_31_20_0 -->
<g id="edge45" class="edge"><title>31&#45;&gt;anon_31_20_0</title>
<path fill="none" stroke="black" d="M-126.723,13.0604C-143.5,17.5184 -172.767,25.2953 -181.503,27.6168"/>
</g>
<!-- 32 -->
<g id="node33" class="node"><title>32</title>
<ellipse fill="#ff3030" stroke="black" cx="-21.2183" cy="152.187" rx="3.5" ry="3.5"/>
</g>
<!-- 33 -->
<g id="node34" class="node"><title>33</title>
<ellipse fill="deepskyblue" stroke="black" cx="145.147" cy="81.3329" rx="3.5" ry="3.5"/>
</g>
<!-- 33&#45;&gt;19 -->
<g id="edge48" class="edge"><title>33&#45;&gt;19</title>
<path fill="none" stroke="black" d="M141.707,79.7421C134.767,76.5325 118.833,69.1641 108.068,64.1857"/>
</g>
<!-- 35 -->
<g id="node36" class="node"><title>35</title>
<ellipse fill="#ff3030" stroke="black" cx="-156.28" cy="-333.577" rx="3.5" ry="3.5"/>
</g>
<!-- anon_35_3_0 -->
<g id="node67" class="node"><title>anon_35_3_0</title>
<ellipse fill="white" stroke="black" cx="-109.019" cy="-302.352" rx="2.5" ry="2.5"/>
</g>
<!-- 35&#45;&gt;anon_35_3_0 -->
<g id="edge49" class="edge"><title>35&#45;&gt;anon_35_3_0</title>
<path fill="none" stroke="black" d="M-153.179,-331.528C-144.308,-325.667 -118.968,-308.925 -111.266,-303.837"/>
</g>
<!-- 37 -->
<g id="node38" class="node"><title>37</title>
<ellipse fill="#ff3030" stroke="black" cx="179.631" cy="160.004" rx="3.5" ry="3.5"/>
</g>
<!-- 37&#45;&gt;anon_37_2_0 -->
<g id="edge51" class="edge"><title>37&#45;&gt;anon_37_2_0</title>
<path fill="none" stroke="black" d="M176.595,158.124C168.577,153.163 146.965,139.79 139.772,135.339"/>
</g>
<!-- 38 -->
<g id="node39" class="node"><title>38</title>
<ellipse fill="#ff3030" stroke="black" cx="-126.986" cy="118.925" rx="3.5" ry="3.5"/>
</g>
<!-- 38&#45;&gt;5 -->
<g id="edge53" class="edge"><title>38&#45;&gt;5</title>
<path fill="none" stroke="black" d="M-123.66,117.327C-116.71,113.987 -100.243,106.073 -87.5866,99.9905"/>
</g>
<!-- 39 -->
<g id="node40" class="node"><title>39</title>
<ellipse fill="#ff3030" stroke="black" cx="-103.994" cy="144.542" rx="3.5" ry="3.5"/>
</g>
<!-- 39&#45;&gt;5 -->
<g id="edge54" class="edge"><title>39&#45;&gt;5</title>
<path fill="none" stroke="black" d="M-102.037,141.418C-97.9488,134.889 -88.262,119.422 -80.8164,107.533"/>
</g>
<!-- 40 -->
<g id="node41" class="node"><title>40</title>
<ellipse fill="deepskyblue" stroke="black" cx="-197.735" cy="-276.647" rx="3.5" ry="3.5"/>
</g>
<!-- 40&#45;&gt;anon_40_3_0 -->
<g id="edge55" class="edge"><title>40&#45;&gt;anon_40_3_0</title>
<path fill="none" stroke="black" d="M-194.308,-275.834C-185.259,-273.688 -160.866,-267.904 -152.749,-265.98"/>
</g>
<!-- 42 -->
<g id="node43" class="node"><title>42</title>
<ellipse fill="#1874cd" stroke="black" cx="-101.227" cy="-387.348" rx="3.5" ry="3.5"/>
</g>
<!-- 42&#45;&gt;46 -->
<g id="edge58" class="edge"><title>42&#45;&gt;46</title>
<path fill="none" stroke="black" d="M-99.6331,-383.9C-95.8177,-375.645 -86.198,-354.831 -82.4473,-346.716"/>
</g>
<!-- 43 -->
<g id="node44" class="node"><title>43</title>
<ellipse fill="#1874cd" stroke="black" cx="-115.231" cy="-267.006" rx="3.5" ry="3.5"/>
</g>
<!-- 43&#45;&gt;3 -->
<g id="edge59" class="edge"><title>43&#45;&gt;3</title>
<path fill="none" stroke="black" d="M-111.707,-266.805C-105.151,-266.431 -90.4526,-265.591 -76.2504,-264.78"/>
</g>
<!-- 45 -->
<g id="node46" class="node"><title>45</title>
<ellipse fill="#1874cd" stroke="black" cx="-8.95621" cy="-390.309" rx="3.5" ry="3.5"/>
</g>
<!-- anon_45_3_0 -->
<g id="node70" class="node"><title>anon_45_3_0</title>
<ellipse fill="white" stroke="black" cx="-30.2514" cy="-338.967" rx="2.5" ry="2.5"/>
</g>
<!-- 45&#45;&gt;anon_45_3_0 -->
<g id="edge60" class="edge"><title>45&#45;&gt;anon_45_3_0</title>
<path fill="none" stroke="black" d="M-10.3534,-386.94C-14.3508,-377.303 -25.7682,-349.776 -29.2386,-341.409"/>
</g>
<!-- 47 -->
<g id="node48" class="node"><title>47</title>
<ellipse fill="brown" stroke="black" cx="6.2813" cy="90.2075" rx="3.5" ry="3.5"/>
</g>
<!-- 47&#45;&gt;6 -->
<g id="edge62" class="edge"><title>47&#45;&gt;6</title>
<path fill="none" stroke="black" d="M6.58926,86.5993C7.07259,80.9364 8.05772,69.3941 9.05717,57.6842"/>
</g>
<!-- 48&#45;&gt;11 -->
<g id="edge63" class="edge"><title>48&#45;&gt;11</title>
<path fill="none" stroke="black" d="M-32.2842,110.251C-38.166,116.04 -48.6404,126.348 -55.3029,132.905"/>
<polygon fill="black" stroke="black" points="-54.0923,134.169 -58.8835,136.429 -56.5474,131.675 -54.0923,134.169"/>
<text text-anchor="middle" x="-14.2936" y="134.378" font-family="monospace" font-size="16.00">P1874L</text>
</g>
<!-- 48&#45;&gt;32 -->
<g id="edge64" class="edge"><title>48&#45;&gt;32</title>
<path fill="none" stroke="black" d="M-27.0261,111.982C-25.8654,120.017 -23.8071,134.266 -22.4783,143.464"/>
<polygon fill="black" stroke="black" points="-20.7102,143.464 -21.7273,148.663 -24.1743,143.965 -20.7102,143.464"/>
<text text-anchor="middle" x="-54.2522" y="122.523" font-family="monospace" font-size="16.00">P1874S</text>
</g>
<!-- 49 -->
<g id="node50" class="node"><title>49</title>
<ellipse fill="brown" stroke="black" cx="-102.11" cy="64.0792" rx="3.5" ry="3.5"/>
</g>
<!-- anon_49_6_0 -->
<g id="node71" class="node"><title>anon_49_6_0</title>
<ellipse fill="white" stroke="black" cx="-55.8918" cy="42.9182" rx="2.5" ry="2.5"/>
</g>
<!-- 49&#45;&gt;anon_49_6_0 -->
<g id="edge65" class="edge"><title>49&#45;&gt;anon_49_6_0</title>
<path fill="none" stroke="black" d="M-98.7859,62.5574C-90.01,58.5393 -66.3528,47.7078 -58.4798,44.1032"/>
</g>
<!-- 50&#45;&gt;41 -->
<g id="edge57" class="edge"><title>50&#45;&gt;41</title>
<path fill="none" stroke="black" d="M-20.79,-105.803C-20.969,-114.905 -21.2558,-129.487 -21.4387,-138.786"/>
<polygon fill="black" stroke="black" points="-23.193,-138.99 -21.5418,-144.024 -19.6937,-139.059 -23.193,-138.99"/>
<text text-anchor="middle" x="-50.6143" y="-127.494" font-family="monospace" font-size="16.00">N1570Y</text>
</g>
<!-- 51 -->
<g id="node52" class="node"><title>51</title>
<ellipse fill="brown" stroke="black" cx="78.9993" cy="11.9293" rx="3.5" ry="3.5"/>
</g>
<!-- 51&#45;&gt;6 -->
<g id="edge67" class="edge"><title>51&#45;&gt;6</title>
<path fill="none" stroke="black" d="M75.3976,12.5297C69.6904,13.4811 58.0012,15.4297 46.1972,17.3975"/>
</g>
<!-- 52 -->
<g id="node53" class="node"><title>52</title>
<ellipse fill="brown" stroke="black" cx="-66.6825" cy="-84.3089" rx="3.5" ry="3.5"/>
</g>
<!-- 52&#45;&gt;50 -->
<g id="edge68" class="edge"><title>52&#45;&gt;50</title>
<path fill="none" stroke="black" d="M-63.0686,-85.3475C-55.6892,-87.4685 -38.7345,-92.3415 -28.63,-95.2456"/>
</g>
<!-- 53 -->
<g id="node54" class="node"><title>53</title>
<ellipse fill="brown" stroke="black" cx="-68.0007" cy="-103.931" rx="3.5" ry="3.5"/>
</g>
<!-- 53&#45;&gt;50 -->
<g id="edge69" class="edge"><title>53&#45;&gt;50</title>
<path fill="none" stroke="black" d="M-64.2834,-103.43C-56.6928,-102.407 -39.2527,-100.056 -28.859,-98.6551"/>
</g>
<!-- 54 -->
<g id="node55" class="node"><title>54</title>
<ellipse fill="brown" stroke="black" cx="47.3152" cy="81.3854" rx="3.5" ry="3.5"/>
</g>
<!-- 54&#45;&gt;6 -->
<g id="edge70" class="edge"><title>54&#45;&gt;6</title>
<path fill="none" stroke="black" d="M45.417,78.2516C42.4092,73.2857 36.2486,63.1148 30.0274,52.8441"/>
</g>
<!-- anon_15_23_1 -->
<g id="node62" class="node"><title>anon_15_23_1</title>
<ellipse fill="white" stroke="black" cx="21.4515" cy="317.941" rx="2.5" ry="2.5"/>
</g>
<!-- anon_15_23_0&#45;&gt;anon_15_23_1 -->
<g id="edge36" class="edge"><title>anon_15_23_0&#45;&gt;anon_15_23_1</title>
<path fill="none" stroke="black" d="M26.4866,276.799C25.6961,283.258 23.6218,300.207 22.3963,310.221"/>
<polygon fill="black" stroke="black" points="24.1065,310.653 21.762,315.404 20.6324,310.228 24.1065,310.653"/>
<text text-anchor="middle" x="-0.0585816" y="288.31" font-family="monospace" font-size="16.00">Q545L</text>
</g>
<!-- anon_15_23_1&#45;&gt;23 -->
<g id="edge37" class="edge"><title>anon_15_23_1&#45;&gt;23</title>
<path fill="none" stroke="black" d="M21.0943,320.693C20.1483,327.983 17.5763,347.804 16.4963,356.127"/>
</g>
<!-- anon_27_6_0&#45;&gt;anon_27_6_1 -->
<g id="edge41" class="edge"><title>anon_27_6_0&#45;&gt;anon_27_6_1</title>
<path fill="none" stroke="black" d="M-129.523,35.0244C-120.562,32.1309 -90.698,22.4878 -81.5842,19.545"/>
</g>
<!-- anon_31_20_1 -->
<g id="node66" class="node"><title>anon_31_20_1</title>
<ellipse fill="white" stroke="black" cx="-230.697" cy="49.4536" rx="2.5" ry="2.5"/>
</g>
<!-- anon_31_20_0&#45;&gt;anon_31_20_1 -->
<g id="edge46" class="edge"><title>anon_31_20_0&#45;&gt;anon_31_20_1</title>
<path fill="none" stroke="black" d="M-186.544,29.4273C-193.508,32.5859 -213.259,41.5441 -223.826,46.3373"/>
<polygon fill="black" stroke="black" points="-223.123,47.9397 -228.399,48.4113 -224.568,44.7522 -223.123,47.9397"/>
<text text-anchor="middle" x="-229.685" y="32.6823" font-family="monospace" font-size="16.00">T791M</text>
</g>
<!-- anon_31_20_1&#45;&gt;20 -->
<g id="edge47" class="edge"><title>anon_31_20_1&#45;&gt;20</title>
<path fill="none" stroke="black" d="M-233.255,50.614C-238.867,53.1596 -252.466,59.3285 -261.368,63.3668"/>
<polygon fill="black" stroke="black" points="-260.915,65.0825 -266.191,65.5544 -262.361,61.8951 -260.915,65.0825"/>
<text text-anchor="middle" x="-276.812" y="51.7904" font-family="monospace" font-size="16.00">L1366F</text>
</g>
<!-- anon_35_3_0&#45;&gt;3 -->
<g id="edge50" class="edge"><title>anon_35_3_0&#45;&gt;3</title>
<path fill="none" stroke="black" d="M-106.795,-301.037C-101.176,-297.715 -85.8384,-288.648 -71.5151,-280.181"/>
</g>
<!-- anon_45_3_0&#45;&gt;3 -->
<g id="edge61" class="edge"><title>anon_45_3_0&#45;&gt;3</title>
<path fill="none" stroke="black" d="M-30.6479,-336.434C-31.6416,-330.087 -34.3402,-312.848 -36.8761,-296.649"/>
</g>
<!-- anon_49_6_0&#45;&gt;6 -->
<g id="edge66" class="edge"><title>anon_49_6_0&#45;&gt;6</title>
<path fill="none" stroke="black" d="M-53.3129,42.1654C-47.8381,40.5672 -34.4692,36.6646 -21.242,32.8033"/>
</g>
</g>
</svg>
