<?xml version="1.0" encoding="UTF-8" standalone="no"?>
<!DOCTYPE svg PUBLIC "-//W3C//DTD SVG 1.1//EN"
 "http://www.w3.org/Graphics/SVG/1.1/DTD/svg11.dtd">
<!-- Generated by graphviz version 2.38.0 (20140413.2041)
 -->
<!-- Title: %3 Pages: 1 -->
<svg width="695pt" height="590pt"
 viewBox="0.00 0.00 695.48 590.28" xmlns="http://www.w3.org/2000/svg" xmlns:xlink="http://www.w3.org/1999/xlink">
<g id="graph0" class="graph" transform="scale(1 1) rotate(0) translate(249.77 377.709)">
<title>%3</title>
<polygon fill="white" stroke="none" points="-249.77,212.573 -249.77,-377.709 445.714,-377.709 445.714,212.573 -249.77,212.573"/>
<!-- 0 -->
<g id="node1" class="node"><title>0</title>
<path fill="deepskyblue" stroke="black" stroke-width="0.5" d="M-38.5333,106.183C-38.5333,106.183 -13.0333,106.183 -13.0333,106.183 -13.0333,104.881 -13.1331,103.58 -13.3318,102.293 -13.5304,101.006 -13.8275,99.736 -14.2202,98.4942 -14.6129,97.2524 -15.1002,96.0425 -15.6778,94.8751 -16.2554,93.7078 -16.9216,92.5864 -17.6705,91.5208 -18.4194,90.4552 -19.2488,89.4486 -20.1515,88.5097 -21.0542,87.5708 -22.0275,86.7025 -23.0629,85.9124 -24.0982,85.1222 -25.1926,84.4125 -26.3364,83.7895 -27.4802,83.1666 -28.67,82.6322 -29.8955,82.191 -31.1209,81.7498 -32.3783,81.4031 -33.6567,81.1541 -34.9351,80.905 -36.2307,80.7542 -37.5322,80.7031 -38.8336,80.652 -40.137,80.7006 -41.431,80.8486 -42.725,80.9966 -44.0058,81.2435 -45.262,81.5872 -46.5183,81.9309 -47.7464,82.3703 -48.9355,82.9016 -50.1247,83.4329 -51.2714,84.0546 -52.3655,84.761 -53.4597,85.4675 -54.4981,86.2568 -55.4717,87.122 -56.4453,87.9871 -57.3512,88.9256 -58.1814,89.9291 -59.0116,90.9327 -59.7637,91.9983 -60.4311,93.1168 -61.0984,94.2352 -61.6792,95.4032 -62.1681,96.6103 -62.6571,97.8175 -63.0528,99.0604 -63.3519,100.328 -63.651,101.596 -63.8525,102.884 -63.9547,104.183 -64.0569,105.481 -64.0594,106.785 -63.9623,108.084 -63.8652,109.383 -63.6688,110.673 -63.3747,111.941 -63.0806,113.21 -62.6897,114.455 -62.2055,115.664 -61.7213,116.873 -61.1452,118.043 -60.4822,119.164 -59.8192,120.285 -59.0713,121.354 -58.245,122.36 -57.4188,123.367 -56.5166,124.309 -55.5464,125.178 -54.5763,126.047 -53.5409,126.841 -52.4496,127.551 -51.3582,128.262 -50.2139,128.888 -49.0269,129.424 -47.8399,129.96 -46.6135,130.404 -45.3586,130.753 -44.1037,131.102 -42.8239,131.354 -41.5305,131.507 -40.2371,131.66 -38.9338,131.714 -37.6322,131.668 -36.3306,131.621 -35.0344,131.476 -33.7551,131.232 -33.7551,131.232 -38.5333,106.183 -38.5333,106.183"/>
<path fill="#98f5ff" stroke="black" stroke-width="0.5" d="M-38.5333,106.183C-38.5333,106.183 -33.7551,131.232 -33.7551,131.232 -33.0336,131.094 -32.3184,130.925 -31.6116,130.726 -30.9047,130.527 -30.2067,130.297 -29.5197,130.037 -28.8326,129.778 -28.1571,129.488 -27.495,129.171 -26.8329,128.853 -26.1849,128.506 -25.5527,128.132 -24.9205,127.758 -24.3048,127.357 -23.7072,126.93 -23.1097,126.503 -22.5308,126.051 -21.9724,125.574 -21.4139,125.097 -20.8762,124.596 -20.361,124.072 -19.8457,123.549 -19.3534,123.004 -18.8852,122.438 -18.417,121.872 -17.9735,121.286 -17.5559,120.682 -17.1384,120.078 -16.7471,119.456 -16.3832,118.818 -16.0193,118.18 -15.6831,117.526 -15.3756,116.859 -15.0681,116.192 -14.7896,115.512 -14.5408,114.821 -14.292,114.13 -14.0732,113.429 -13.885,112.719 -13.6967,112.009 -13.5393,111.291 -13.413,110.568 -13.2867,109.844 -13.1918,109.115 -13.1284,108.384 -13.065,107.652 -13.0333,106.918 -13.0333,106.183 -13.0333,106.183 -38.5333,106.183 -38.5333,106.183"/>
<ellipse fill="none" stroke="black" cx="-38.5333" cy="106.183" rx="25.5" ry="25.5"/>
</g>
<!-- 6 -->
<g id="node7" class="node"><title>6</title>
<path fill="#ff3030" stroke="black" stroke-width="0.5" d="M17.9887,-36.3342C17.9887,-36.3342 52.4887,-36.3342 52.4887,-36.3342 52.4887,-37.8887 52.3837,-39.4414 52.1743,-40.9817 51.9649,-42.522 51.6516,-44.0465 51.2366,-45.5445 51.2366,-45.5445 17.9887,-36.3342 17.9887,-36.3342"/>
<path fill="brown" stroke="black" stroke-width="0.5" d="M17.9887,-36.3342C17.9887,-36.3342 51.2366,-45.5445 51.2366,-45.5445 50.9675,-46.5157 50.6561,-47.4747 50.3031,-48.4186 49.9501,-49.3625 49.5559,-50.2905 49.1217,-51.1999 48.6874,-52.1094 48.2135,-52.9993 47.7014,-53.8672 47.1892,-54.7352 46.6393,-55.5802 46.0532,-56.4 45.467,-57.2198 44.8452,-58.0135 44.1896,-58.7789 43.534,-59.5442 42.8451,-60.2805 42.125,-60.9855 41.405,-61.6905 40.6543,-62.3637 39.8753,-63.003 39.0963,-63.6423 38.2896,-64.2472 37.4577,-64.8159 36.6257,-65.3846 35.7692,-65.9166 34.8906,-66.4103 34.0121,-66.904 33.1123,-67.359 32.194,-67.774 31.2756,-68.1889 30.3395,-68.5634 29.3883,-68.8964 28.4371,-69.2294 27.4718,-69.5206 26.4952,-69.769 25.5185,-70.0175 24.5314,-70.2231 23.5368,-70.3851 22.5421,-70.5472 21.5408,-70.6656 20.5358,-70.74 19.5308,-70.8144 18.523,-70.8447 17.5153,-70.8309 16.5076,-70.8171 15.501,-70.7591 14.4984,-70.6572 13.4958,-70.5552 12.4982,-70.4094 11.5083,-70.2201 10.5185,-70.0308 9.53745,-69.7982 8.56798,-69.523 7.59851,-69.2478 6.64156,-68.9303 5.69988,-68.5713 4.75821,-68.2123 3.83272,-67.8123 2.92607,-67.3723 2.01942,-66.9323 1.13249,-66.4528 0.267821,-65.9352 -0.596847,-65.4175 -1.43842,-64.8622 -2.25447,-64.2709 -3.07053,-63.6796 -3.86028,-63.0528 -4.62146,-62.3923 -5.38264,-61.7319 -6.11452,-61.0384 -6.81498,-60.3138 -7.51545,-59.5893 -8.18383,-58.8344 -8.81821,-58.0514 -9.45258,-57.2683 -10.0523,-56.4579 -10.6158,-55.6223 -11.1792,-54.7867 -11.7057,-53.9269 -12.1939,-53.0452 -12.682,-52.1636 -13.1313,-51.2609 -13.5404,-50.34 -13.9495,-49.419 -14.3181,-48.4805 -14.6451,-47.5272 -14.972,-46.574 -15.2571,-45.6068 -15.4993,-44.6286 -15.7416,-43.6504 -15.9409,-42.6621 -16.0967,-41.6664 -16.2525,-40.6707 -16.3645,-39.6687 -16.4325,-38.6633 -16.5006,-37.6578 -16.5245,-36.6498 -16.5043,-35.6422 -16.4841,-34.6347 -16.4198,-33.6285 -16.3115,-32.6265 -16.2032,-31.6246 -16.051,-30.6279 -15.8554,-29.6393 -15.6599,-28.6507 -15.4211,-27.6711 -15.1398,-26.7034 -14.8584,-25.7357 -14.5349,-24.7807 -14.1699,-23.8414 -13.805,-22.902 -13.3991,-21.979 -12.9534,-21.0752 -12.5076,-20.1714 -12.0225,-19.2875 -11.4994,-18.4261 -10.9763,-17.5647 -10.4157,-16.7267 -9.81923,-15.9144 -9.22276,-15.1021 -8.59097,-14.3163 -7.9257,-13.5594 -7.26043,-12.8024 -6.56232,-12.0749 -5.83336,-11.3791 -5.1044,-10.6832 -4.3453,-10.0196 -3.55825,-9.3902 -2.77119,-8.76079 -1.95694,-8.16618 -1.11783,-7.60806 -0.278714,-7.04994 0.58445,-6.52886 1.46918,-6.04631 2.35391,-5.56376 3.25936,-5.12021 4.18293,-4.71693 5.10649,-4.31365 6.04728,-3.95103 7.0026,-3.63012 7.95791,-3.3092 8.92682,-3.0303 9.90655,-2.79422 10.8863,-2.55813 11.8759,-2.36508 12.8725,-2.21563 13.8691,-2.06618 14.8718,-1.96047 15.8777,-1.89881 16.8836,-1.83715 17.8917,-1.81958 18.8991,-1.84618 19.9065,-1.87277 20.9123,-1.94349 21.9135,-2.05814 22.9148,-2.17279 23.9105,-2.33125 24.8979,-2.53307 25.8852,-2.73489 26.8633,-2.97987 27.8292,-3.26732 28.7951,-3.55477 29.7479,-3.8844 30.685,-4.25527 31.622,-4.62613 32.5424,-5.03788 33.4434,-5.48932 34.3444,-5.94076 35.2252,-6.43147 36.0832,-6.96002 36.9413,-7.48857 37.7757,-8.05447 38.5842,-8.65608 39.3927,-9.25769 40.1745,-9.89444 40.9272,-10.5645 41.68,-11.2345 42.403,-11.9372 43.0942,-12.6706 43.7855,-13.404 44.4442,-14.1672 45.0686,-14.9583 45.693,-15.7493 46.2825,-16.5673 46.8353,-17.4099 47.3881,-18.2526 47.9037,-19.119 48.3806,-20.0068 48.8576,-20.8945 49.2954,-21.8028 49.6928,-22.7289 49.6928,-22.7289 17.9887,-36.3342 17.9887,-36.3342"/>
<path fill="deepskyblue" stroke="black" stroke-width="0.5" d="M17.9887,-36.3342C17.9887,-36.3342 49.6928,-22.7289 49.6928,-22.7289 50.1525,-23.8001 50.5576,-24.8939 50.9065,-26.0061 51.2555,-27.1184 51.5479,-28.2475 51.7825,-29.3894 52.0172,-30.5312 52.1938,-31.6842 52.3117,-32.8439 52.4297,-34.0036 52.4887,-35.1685 52.4887,-36.3342 52.4887,-36.3342 17.9887,-36.3342 17.9887,-36.3342"/>
<ellipse fill="none" stroke="black" cx="17.9887" cy="-36.3342" rx="34.5" ry="34.5"/>
</g>
<!-- 0&#45;&gt;6 -->
<g id="edge1" class="edge"><title>0&#45;&gt;6</title>
<path fill="none" stroke="black" d="M-29.0728,82.3292C-19.6762,58.6362 -5.20478,22.1472 5.20964,-4.11227"/>
</g>
<!-- 22 -->
<g id="node23" class="node"><title>22</title>
<ellipse fill="deepskyblue" stroke="black" cx="-76.7866" cy="173.501" rx="3.5" ry="3.5"/>
</g>
<!-- 0&#45;&gt;22 -->
<g id="edge2" class="edge"><title>0&#45;&gt;22</title>
<path fill="none" stroke="black" d="M-51.2711,128.599C-59.9648,143.898 -70.648,162.698 -74.9059,170.191"/>
</g>
<!-- 24 -->
<g id="node25" class="node"><title>24</title>
<ellipse fill="deepskyblue" stroke="black" cx="-28.9426" cy="187.478" rx="3.5" ry="3.5"/>
</g>
<!-- 0&#45;&gt;24 -->
<g id="edge3" class="edge"><title>0&#45;&gt;24</title>
<path fill="none" stroke="black" d="M-35.4987,131.905C-33.2597,150.884 -30.4259,174.904 -29.367,183.88"/>
</g>
<!-- 58 -->
<g id="node59" class="node"><title>58</title>
<ellipse fill="black" stroke="black" cx="-116.443" cy="140.258" rx="3.5" ry="3.5"/>
</g>
<!-- 0&#45;&gt;58 -->
<g id="edge4" class="edge"><title>0&#45;&gt;58</title>
<path fill="none" stroke="black" d="M-61.9087,116.407C-80.3753,124.484 -104.434,135.006 -113.128,138.809"/>
</g>
<!-- 1 -->
<g id="node2" class="node"><title>1</title>
<ellipse fill="deepskyblue" stroke="black" cx="345.591" cy="22.3514" rx="3.5" ry="3.5"/>
</g>
<!-- 3 -->
<g id="node4" class="node"><title>3</title>
<path fill="#ff3030" stroke="black" stroke-width="0.5" d="M308.765,-13.6012C308.765,-13.6012 342.765,-13.6012 342.765,-13.6012 342.765,-15.1348 342.661,-16.6666 342.455,-18.1862 342.248,-19.7057 341.938,-21.2095 341.529,-22.6873 341.119,-24.1651 340.609,-25.6135 340.004,-27.0225 339.399,-28.4315 338.699,-29.798 337.909,-31.1125 337.119,-32.427 336.241,-33.6866 335.281,-34.8826 334.321,-36.0786 333.282,-37.2083 332.169,-38.264 331.057,-39.3196 329.874,-40.2988 328.63,-41.1947 327.385,-42.0907 326.081,-42.9015 324.727,-43.6214 323.373,-44.3414 321.972,-44.9689 320.533,-45.4997 319.094,-46.0305 317.621,-46.4634 316.124,-46.7953 314.627,-47.1272 313.109,-47.3575 311.581,-47.4845 310.052,-47.6114 308.517,-47.6349 306.986,-47.5546 305.454,-47.4744 303.93,-47.2906 302.423,-47.0045 300.917,-46.7185 299.431,-46.3308 297.977,-45.8442 296.523,-45.3576 295.103,-44.7732 293.727,-44.0949 292.352,-43.4166 291.024,-42.6461 289.753,-41.7885 289.753,-41.7885 308.765,-13.6012 308.765,-13.6012"/>
<path fill="deepskyblue" stroke="black" stroke-width="0.5" d="M308.765,-13.6012C308.765,-13.6012 289.753,-41.7885 289.753,-41.7885 288.604,-41.014 287.505,-40.17 286.459,-39.2613 285.414,-38.3527 284.425,-37.381 283.498,-36.3517 282.572,-35.3224 281.708,-34.2374 280.914,-33.1028 280.12,-31.9682 279.395,-30.7862 278.745,-29.5633 278.095,-28.3403 277.52,-27.0788 277.023,-25.7857 276.527,-24.4927 276.11,-23.1705 275.775,-21.8266 275.44,-20.4827 275.187,-19.1195 275.019,-17.7448 274.85,-16.37 274.765,-14.9863 274.765,-13.6012 274.765,-12.2162 274.85,-10.8324 275.019,-9.45766 275.187,-8.08293 275.44,-6.71979 275.775,-5.37588 276.11,-4.03196 276.527,-2.70977 277.023,-1.41671 277.52,-0.123648 278.095,1.13788 278.745,2.36081 279.395,3.58375 280.12,4.7658 280.914,5.90038 281.708,7.03495 282.572,8.11992 283.498,9.14922 284.425,10.1785 285.414,11.1502 286.459,12.0589 287.505,12.9676 288.604,13.8115 289.753,14.5861 289.753,14.5861 308.765,-13.6012 308.765,-13.6012"/>
<path fill="#1874cd" stroke="black" stroke-width="0.5" d="M308.765,-13.6012C308.765,-13.6012 289.753,14.5861 289.753,14.5861 290.819,15.3052 291.925,15.9633 293.066,16.5571 294.207,17.151 295.38,17.6796 296.581,18.1405 297.781,18.6014 299.007,18.9938 300.252,19.3158 301.497,19.6378 302.76,19.8889 304.033,20.0679 305.307,20.2469 306.59,20.3535 307.875,20.3871 309.161,20.4208 310.447,20.3815 311.729,20.2694 313.01,20.1573 314.283,19.9726 315.544,19.7162 316.804,19.4598 318.049,19.1321 319.272,18.7347 320.495,18.3373 321.695,17.8708 322.865,17.3375 324.035,16.8041 325.174,16.2048 326.277,15.5425 327.379,14.8801 328.443,14.1557 329.463,13.3728 330.483,12.5899 331.458,11.7497 332.384,10.8563 333.309,9.96294 334.182,9.01779 335,8.02543 335.818,7.03307 336.58,5.99509 337.28,4.9165 337.98,3.83791 338.619,2.72044 339.193,1.56949 339.767,0.418546 340.275,-0.764036 340.715,-1.97255 340.715,-1.97255 308.765,-13.6012 308.765,-13.6012"/>
<path fill="#98f5ff" stroke="black" stroke-width="0.5" d="M308.765,-13.6012C308.765,-13.6012 340.715,-1.97255 340.715,-1.97255 341.053,-2.90207 341.351,-3.84591 341.607,-4.80138 341.863,-5.75685 342.077,-6.72304 342.249,-7.69719 342.42,-8.67134 342.55,-9.65252 342.636,-10.6379 342.722,-11.6233 342.765,-12.612 342.765,-13.6012 342.765,-13.6012 308.765,-13.6012 308.765,-13.6012"/>
<ellipse fill="none" stroke="black" cx="308.765" cy="-13.6012" rx="34" ry="34"/>
</g>
<!-- 1&#45;&gt;3 -->
<g id="edge5" class="edge"><title>1&#45;&gt;3</title>
<path fill="none" stroke="black" d="M342.701,19.5302C340.463,17.3452 337.123,14.0846 333.399,10.4483"/>
</g>
<!-- 2 -->
<g id="node3" class="node"><title>2</title>
<ellipse fill="#ff3030" stroke="black" cx="23.8435" cy="97.412" rx="14" ry="14"/>
</g>
<!-- 2&#45;&gt;6 -->
<g id="edge6" class="edge"><title>2&#45;&gt;6</title>
<path fill="none" stroke="black" d="M23.2169,83.0988C22.3378,63.017 20.711,25.8526 19.5046,-1.7064"/>
</g>
<!-- 10 -->
<g id="node11" class="node"><title>10</title>
<ellipse fill="#ff3030" stroke="black" cx="383.117" cy="-44.8553" rx="3.5" ry="3.5"/>
</g>
<!-- 3&#45;&gt;10 -->
<g id="edge7" class="edge"><title>3&#45;&gt;10</title>
<path fill="none" stroke="black" d="M340.297,-26.8558C355.812,-33.3776 372.67,-40.4639 379.72,-43.4273"/>
</g>
<!-- 21 -->
<g id="node22" class="node"><title>21</title>
<ellipse fill="deepskyblue" stroke="black" cx="292.14" cy="-119.495" rx="3.5" ry="3.5"/>
</g>
<!-- 3&#45;&gt;21 -->
<g id="edge8" class="edge"><title>3&#45;&gt;21</title>
<path fill="none" stroke="black" d="M303.459,-47.3977C299.468,-72.8195 294.408,-105.049 292.719,-115.81"/>
</g>
<!-- 25 -->
<g id="node26" class="node"><title>25</title>
<ellipse fill="deepskyblue" stroke="black" cx="273.464" cy="-86.2946" rx="3.5" ry="3.5"/>
</g>
<!-- 3&#45;&gt;25 -->
<g id="edge9" class="edge"><title>3&#45;&gt;25</title>
<path fill="none" stroke="black" d="M293.794,-44.4298C286.428,-59.5988 278.424,-76.0807 275.077,-82.9733"/>
</g>
<!-- 30 -->
<g id="node31" class="node"><title>30</title>
<ellipse fill="deepskyblue" stroke="black" cx="333.911" cy="-57.4614" rx="3.5" ry="3.5"/>
</g>
<!-- 3&#45;&gt;30 -->
<g id="edge10" class="edge"><title>3&#45;&gt;30</title>
<path fill="none" stroke="black" d="M325.677,-43.0999C328.236,-47.5628 330.521,-51.549 332.031,-54.1827"/>
</g>
<!-- 34 -->
<g id="node35" class="node"><title>34</title>
<ellipse fill="#ff3030" stroke="black" cx="350.35" cy="-104.36" rx="3.5" ry="3.5"/>
</g>
<!-- 3&#45;&gt;34 -->
<g id="edge11" class="edge"><title>3&#45;&gt;34</title>
<path fill="none" stroke="black" d="M322.96,-44.5814C332.748,-65.9438 344.712,-92.0555 348.855,-101.096"/>
</g>
<!-- 36 -->
<g id="node37" class="node"><title>36</title>
<ellipse fill="#ff3030" stroke="black" cx="269.536" cy="20.2153" rx="3.5" ry="3.5"/>
</g>
<!-- 3&#45;&gt;36 -->
<g id="edge12" class="edge"><title>3&#45;&gt;36</title>
<path fill="none" stroke="black" d="M282.817,8.76659C278.713,12.304 275.024,15.4843 272.581,17.5899"/>
</g>
<!-- 41 -->
<g id="node42" class="node"><title>41</title>
<ellipse fill="#1874cd" stroke="black" cx="194.87" cy="-22.7764" rx="3.5" ry="3.5"/>
</g>
<!-- 3&#45;&gt;41 -->
<g id="edge13" class="edge"><title>3&#45;&gt;41</title>
<path fill="none" stroke="black" d="M274.593,-16.3541C246.811,-18.5922 210.37,-21.5278 198.664,-22.4708"/>
</g>
<!-- 44 -->
<g id="node45" class="node"><title>44</title>
<ellipse fill="#1874cd" stroke="black" cx="324.022" cy="-122.452" rx="3.5" ry="3.5"/>
</g>
<!-- 3&#45;&gt;44 -->
<g id="edge14" class="edge"><title>3&#45;&gt;44</title>
<path fill="none" stroke="black" d="M313.509,-47.4455C317.218,-73.9068 321.994,-107.98 323.526,-118.911"/>
</g>
<!-- 46 -->
<g id="node47" class="node"><title>46</title>
<ellipse fill="#1874cd" stroke="black" cx="364.673" cy="70.6637" rx="3.5" ry="3.5"/>
</g>
<!-- 3&#45;&gt;46 -->
<g id="edge15" class="edge"><title>3&#45;&gt;46</title>
<path fill="none" stroke="black" d="M327.693,14.927C340.871,34.7894 357.047,59.1703 362.65,67.6149"/>
</g>
<!-- 56 -->
<g id="node57" class="node"><title>56</title>
<ellipse fill="#98f5ff" stroke="black" cx="271.595" cy="-43.5776" rx="3.5" ry="3.5"/>
</g>
<!-- 3&#45;&gt;56 -->
<g id="edge16" class="edge"><title>3&#45;&gt;56</title>
<path fill="none" stroke="black" d="M282.147,-35.0678C279.168,-37.4702 276.53,-39.5977 274.637,-41.1245"/>
</g>
<!-- 59 -->
<g id="node60" class="node"><title>59</title>
<ellipse fill="black" stroke="black" cx="281.551" cy="83.0583" rx="3.5" ry="3.5"/>
</g>
<!-- 3&#45;&gt;59 -->
<g id="edge17" class="edge"><title>3&#45;&gt;59</title>
<path fill="none" stroke="black" d="M299.476,19.3932C293.07,42.1444 285.24,69.9538 282.529,79.5825"/>
</g>
<!-- 4 -->
<g id="node5" class="node"><title>4</title>
<path fill="#ff3030" stroke="black" stroke-width="0.5" d="M-91.8178,-103.111C-91.8178,-103.111 -59.8178,-103.111 -59.8178,-103.111 -59.8178,-104.185 -59.8719,-105.259 -59.9799,-106.328 -60.0878,-107.396 -60.2496,-108.459 -60.4645,-109.512 -60.6794,-110.564 -60.9471,-111.605 -61.2667,-112.631 -61.5863,-113.657 -61.9573,-114.665 -62.3784,-115.654 -62.7995,-116.642 -63.2701,-117.609 -63.7884,-118.55 -64.3067,-119.491 -64.872,-120.405 -65.4823,-121.289 -66.0925,-122.173 -66.7469,-123.026 -67.443,-123.844 -68.139,-124.662 -68.8758,-125.445 -69.6506,-126.189 -69.6506,-126.189 -91.8178,-103.111 -91.8178,-103.111"/>
<path fill="deepskyblue" stroke="black" stroke-width="0.5" d="M-91.8178,-103.111C-91.8178,-103.111 -69.6506,-126.189 -69.6506,-126.189 -70.4447,-126.952 -71.2777,-127.673 -72.1462,-128.35 -73.0147,-129.027 -73.9176,-129.659 -74.8512,-130.243 -75.7849,-130.827 -76.748,-131.362 -77.7368,-131.846 -78.7256,-132.331 -79.7388,-132.764 -80.7723,-133.144 -81.8057,-133.524 -82.8581,-133.851 -83.9253,-134.122 -84.9924,-134.394 -86.0728,-134.61 -87.1622,-134.77 -88.2517,-134.931 -89.3486,-135.034 -90.4488,-135.082 -91.5489,-135.129 -92.6507,-135.119 -93.7499,-135.052 -94.849,-134.986 -95.944,-134.863 -97.0304,-134.683 -98.1169,-134.504 -99.1933,-134.269 -100.255,-133.978 -101.318,-133.688 -102.364,-133.343 -103.391,-132.945 -104.417,-132.547 -105.423,-132.096 -106.403,-131.594 -107.383,-131.092 -108.337,-130.54 -109.26,-129.94 -110.183,-129.339 -111.075,-128.692 -111.931,-128 -112.787,-127.308 -113.608,-126.572 -114.388,-125.795 -115.169,-125.018 -115.909,-124.202 -116.605,-123.349 -117.302,-122.496 -117.953,-121.608 -118.558,-120.688 -119.163,-119.768 -119.72,-118.817 -120.227,-117.839 -120.734,-116.862 -121.19,-115.858 -121.593,-114.834 -121.996,-113.809 -122.347,-112.765 -122.642,-111.704 -122.938,-110.643 -123.179,-109.568 -123.364,-108.482 -123.549,-107.397 -123.677,-106.303 -123.749,-105.204 -123.821,-104.105 -123.837,-103.003 -123.795,-101.903 -123.753,-100.802 -123.655,-99.705 -123.5,-98.6148 -123.346,-97.5246 -123.135,-96.443 -122.869,-95.3746 -122.602,-94.3061 -122.281,-93.2521 -121.906,-92.2167 -121.531,-91.1813 -121.103,-90.166 -120.624,-89.1748 -120.144,-88.1835 -119.614,-87.2177 -119.035,-86.2811 -118.456,-85.3446 -117.828,-84.4386 -117.156,-83.5666 -116.483,-82.6947 -115.766,-81.8581 -115.008,-81.0601 -114.249,-80.2622 -113.449,-79.5039 -112.612,-78.7883 -111.775,-78.0728 -110.902,-77.4009 -109.996,-76.7754 -109.996,-76.7754 -91.8178,-103.111 -91.8178,-103.111"/>
<path fill="#98f5ff" stroke="black" stroke-width="0.5" d="M-91.8178,-103.111C-91.8178,-103.111 -109.996,-76.7754 -109.996,-76.7754 -108.802,-75.9514 -107.554,-75.2095 -106.259,-74.5549 -104.965,-73.9003 -103.627,-73.3344 -102.256,-72.8613 -100.885,-72.3881 -99.4833,-72.0087 -98.0607,-71.7257 -96.638,-71.4427 -95.1978,-71.2568 -93.7499,-71.1692 -92.302,-71.0817 -90.8498,-71.0926 -89.4035,-71.2021 -87.9571,-71.3115 -86.5198,-71.5192 -85.1016,-71.8236 -83.6834,-72.128 -82.2875,-72.5285 -80.9236,-73.0224 -79.5597,-73.5162 -78.231,-74.1022 -76.9466,-74.7763 -75.6623,-75.4504 -74.4252,-76.211 -73.244,-77.0529 -72.0628,-77.8949 -70.9403,-78.8161 -69.8841,-79.8103 -68.8279,-80.8046 -67.8405,-81.8695 -66.9288,-82.9977 -66.0171,-84.1258 -65.1832,-85.3147 -64.4328,-86.556 -63.6824,-87.7974 -63.0172,-89.0883 -62.4419,-90.4199 -61.8667,-91.7514 -61.3826,-93.1206 -60.9931,-94.5178 -60.6036,-95.9151 -60.3095,-97.3372 -60.113,-98.7743 -59.9164,-100.211 -59.8178,-101.66 -59.8178,-103.111 -59.8178,-103.111 -91.8178,-103.111 -91.8178,-103.111"/>
<ellipse fill="none" stroke="black" cx="-91.8178" cy="-103.111" rx="32" ry="32"/>
</g>
<!-- 4&#45;&gt;6 -->
<g id="edge18" class="edge"><title>4&#45;&gt;6</title>
<path fill="none" stroke="black" d="M-64.3922,-86.4325C-48.3843,-76.6977 -28.1775,-64.4093 -11.783,-54.4393"/>
</g>
<!-- 55 -->
<g id="node56" class="node"><title>55</title>
<ellipse fill="#98f5ff" stroke="black" cx="-181.55" cy="-133.396" rx="3.5" ry="3.5"/>
</g>
<!-- 4&#45;&gt;55 -->
<g id="edge19" class="edge"><title>4&#45;&gt;55</title>
<path fill="none" stroke="black" d="M-122.197,-113.364C-143.145,-120.434 -168.812,-129.097 -178.039,-132.211"/>
</g>
<!-- 5 -->
<g id="node6" class="node"><title>5</title>
<ellipse fill="#ff3030" stroke="black" cx="-40.5207" cy="-115.642" rx="18" ry="18"/>
</g>
<!-- 6&#45;&gt;5 -->
<g id="edge20" class="edge"><title>6&#45;&gt;5</title>
<path fill="none" stroke="black" d="M-2.80425,-64.5185C-11.8698,-76.8066 -22.1215,-90.7025 -29.6462,-100.902"/>
</g>
<!-- 7 -->
<g id="node8" class="node"><title>7</title>
<ellipse fill="#ff3030" stroke="black" cx="0.883407" cy="-75.3921" rx="9.5" ry="9.5"/>
</g>
<!-- 6&#45;&gt;7 -->
<g id="edge21" class="edge"><title>6&#45;&gt;7</title>
<path fill="none" stroke="black" d="M4.02079,-68.2282C3.96271,-68.3608 3.9052,-68.4922 3.84828,-68.6221"/>
</g>
<!-- 8 -->
<g id="node9" class="node"><title>8</title>
<ellipse fill="#ff3030" stroke="black" cx="-37.2606" cy="11.7559" rx="6" ry="6"/>
</g>
<!-- 6&#45;&gt;8 -->
<g id="edge22" class="edge"><title>6&#45;&gt;8</title>
<path fill="none" stroke="black" d="M-8.34145,-13.4159C-17.6799,-5.28748 -27.2161,3.01298 -32.6687,7.75906"/>
</g>
<!-- 13 -->
<g id="node14" class="node"><title>13</title>
<ellipse fill="#ff3030" stroke="black" cx="68.1966" cy="47.6082" rx="8" ry="8"/>
</g>
<!-- 6&#45;&gt;13 -->
<g id="edge23" class="edge"><title>6&#45;&gt;13</title>
<path fill="none" stroke="black" d="M35.8315,-6.50288C45.9785,10.4617 57.8571,30.3215 64.0157,40.6181"/>
</g>
<!-- 14 -->
<g id="node15" class="node"><title>14</title>
<path fill="#ff3030" stroke="black" stroke-width="0.5" d="M6.58957,-152.716C6.58957,-152.716 12.5896,-152.716 12.5896,-152.716 12.5896,-152.978 12.5724,-153.24 12.5382,-153.499 12.5041,-153.759 12.4529,-154.016 12.3851,-154.269 12.3173,-154.522 12.2331,-154.77 12.1328,-155.012 12.0326,-155.254 11.9167,-155.489 11.7857,-155.716 11.6548,-155.943 11.5091,-156.161 11.3497,-156.369 11.1903,-156.576 11.0174,-156.773 10.8322,-156.959 10.647,-157.144 10.4499,-157.317 10.2421,-157.476 10.0344,-157.636 9.81637,-157.781 9.58957,-157.912 9.36276,-158.043 9.12763,-158.159 8.88567,-158.259 8.64371,-158.36 8.39545,-158.444 8.14248,-158.512 7.88951,-158.579 7.63238,-158.631 7.37272,-158.665 7.11307,-158.699 6.85146,-158.716 6.58957,-158.716 6.32767,-158.716 6.06606,-158.699 5.80641,-158.665 5.54676,-158.631 5.28962,-158.579 5.03665,-158.512 4.78368,-158.444 4.53542,-158.36 4.29347,-158.259 4.05151,-158.159 3.81637,-158.043 3.58957,-157.912 3.36276,-157.781 3.14477,-157.636 2.937,-157.476 2.72922,-157.317 2.53211,-157.144 2.34693,-156.959 2.16174,-156.773 1.98888,-156.576 1.82945,-156.369 1.67002,-156.161 1.52436,-155.943 1.39341,-155.716 1.26247,-155.489 1.14651,-155.254 1.04629,-155.012 0.946068,-154.77 0.861795,-154.522 0.794012,-154.269 0.726229,-154.016 0.675082,-153.759 0.640898,-153.499 0.606714,-153.24 0.589567,-152.978 0.589567,-152.716 0.589567,-152.454 0.606714,-152.193 0.640898,-151.933 0.675082,-151.673 0.72623,-151.416 0.794013,-151.163 0.861795,-150.91 0.946068,-150.662 1.04629,-150.42 1.14651,-150.178 1.26247,-149.943 1.39342,-149.716 1.52436,-149.489 1.67002,-149.271 1.82945,-149.063 1.98888,-148.856 2.16174,-148.659 2.34693,-148.473 2.53211,-148.288 2.72923,-148.115 2.937,-147.956 3.14477,-147.796 3.36276,-147.651 3.58957,-147.52 3.58957,-147.52 6.58957,-152.716 6.58957,-152.716"/>
<path fill="#98f5ff" stroke="black" stroke-width="0.5" d="M6.58957,-152.716C6.58957,-152.716 3.58957,-147.52 3.58957,-147.52 3.81637,-147.389 4.05151,-147.273 4.29347,-147.173 4.53542,-147.073 4.78368,-146.988 5.03665,-146.92 5.28962,-146.853 5.54676,-146.802 5.80641,-146.767 6.06606,-146.733 6.32768,-146.716 6.58957,-146.716 6.85146,-146.716 7.11307,-146.733 7.37272,-146.767 7.63238,-146.802 7.88951,-146.853 8.14248,-146.92 8.39545,-146.988 8.64371,-147.073 8.88567,-147.173 9.12763,-147.273 9.36276,-147.389 9.58957,-147.52 9.81637,-147.651 10.0344,-147.796 10.2421,-147.956 10.4499,-148.115 10.647,-148.288 10.8322,-148.473 11.0174,-148.659 11.1903,-148.856 11.3497,-149.063 11.5091,-149.271 11.6548,-149.489 11.7857,-149.716 11.9167,-149.943 12.0326,-150.178 12.1328,-150.42 12.2331,-150.662 12.3173,-150.91 12.3851,-151.163 12.4529,-151.416 12.5041,-151.673 12.5382,-151.933 12.5724,-152.193 12.5896,-152.454 12.5896,-152.716 12.5896,-152.716 6.58957,-152.716 6.58957,-152.716"/>
<ellipse fill="none" stroke="black" cx="6.58957" cy="-152.716" rx="6" ry="6"/>
</g>
<!-- 6&#45;&gt;14 -->
<g id="edge24" class="edge"><title>6&#45;&gt;14</title>
<path fill="none" stroke="black" d="M14.5995,-70.9375C11.9743,-97.7392 8.56212,-132.577 7.19489,-146.536"/>
</g>
<!-- 17 -->
<g id="node18" class="node"><title>17</title>
<ellipse fill="#ff3030" stroke="black" cx="61.1919" cy="-57.1962" rx="6" ry="6"/>
</g>
<!-- 6&#45;&gt;17 -->
<g id="edge25" class="edge"><title>6&#45;&gt;17</title>
<path fill="none" stroke="black" d="M49.3865,-51.4956C51.6897,-52.6078 53.8045,-53.629 55.5882,-54.4903"/>
</g>
<!-- 19 -->
<g id="node20" class="node"><title>19</title>
<path fill="deepskyblue" stroke="black" stroke-width="0.5" d="M-37.2826,50.0447C-37.2826,50.0447 -25.7826,50.0447 -25.7826,50.0447 -25.7826,49.593 -25.8092,49.1416 -25.8623,48.693 -25.9154,48.2444 -25.9949,47.7994 -26.1003,47.3601 -26.2058,46.9208 -26.337,46.4882 -26.4934,46.0644 -26.6497,45.6406 -26.8309,45.2263 -27.036,44.8238 -27.2411,44.4213 -27.4697,44.0313 -27.7207,43.6557 -27.9717,43.2801 -28.2445,42.9196 -28.5379,42.5761 -28.8313,42.2326 -29.1447,41.9067 -29.4764,41.6 -29.8081,41.2934 -30.1576,41.0066 -30.5231,40.741 -30.8885,40.4755 -31.2693,40.2317 -31.6634,40.011 -32.0576,39.7903 -32.4644,39.593 -32.8817,39.4201 -33.2991,39.2472 -33.7263,39.0991 -34.161,38.9765 -34.5958,38.8539 -35.0374,38.757 -35.4836,38.6863 -35.9298,38.6156 -36.3797,38.5713 -36.8311,38.5536 -37.2825,38.5359 -37.7345,38.5447 -38.1849,38.5802 -38.6352,38.6156 -39.0831,38.6776 -39.5261,38.7657 -39.9692,38.8538 -40.4067,38.968 -40.8363,39.1076 -41.2659,39.2472 -41.6869,39.412 -42.0972,39.6011 -42.5074,39.7902 -42.9062,40.0033 -43.2913,40.2394 -43.6765,40.4754 -44.0474,40.7339 -44.4022,41.0136 -44.7569,41.2932 -45.0949,41.5936 -45.4143,41.913 -45.7337,42.2324 -46.0341,42.5704 -46.3137,42.9251 -46.5934,43.2799 -46.8519,43.6508 -47.088,44.036 -47.324,44.4212 -47.5371,44.8199 -47.7262,45.2301 -47.9154,45.6404 -48.0802,46.0614 -48.2197,46.491 -48.3593,46.9207 -48.4735,47.3581 -48.5616,47.8012 -48.6498,48.2442 -48.7117,48.6921 -48.7471,49.1424 -48.7826,49.5928 -48.7915,50.0448 -48.7737,50.4962 -48.756,50.9476 -48.7117,51.3975 -48.641,51.8437 -48.5703,52.2899 -48.4734,52.7315 -48.3508,53.1663 -48.2282,53.6011 -48.0801,54.0282 -47.9072,54.4456 -47.7343,54.8629 -47.537,55.2697 -47.3163,55.6639 -47.0956,56.058 -46.8518,56.4388 -46.5863,56.8043 -46.5863,56.8043 -37.2826,50.0447 -37.2826,50.0447"/>
<path fill="#98f5ff" stroke="black" stroke-width="0.5" d="M-37.2826,50.0447C-37.2826,50.0447 -46.5863,56.8043 -46.5863,56.8043 -46.2322,57.2916 -45.8403,57.7505 -45.4143,58.1765 -44.9883,58.6024 -44.5295,58.9943 -44.0421,59.3484 -43.5547,59.7025 -43.0403,60.0178 -42.5035,60.2913 -41.9667,60.5648 -41.4092,60.7957 -40.8363,60.9819 -40.2633,61.168 -39.6766,61.3089 -39.0816,61.4031 -38.4866,61.4974 -37.885,61.5447 -37.2826,61.5447 -36.6801,61.5447 -36.0786,61.4974 -35.4836,61.4031 -34.8886,61.3089 -34.3019,61.168 -33.7289,60.9819 -33.1559,60.7957 -32.5985,60.5648 -32.0617,60.2913 -31.5249,60.0178 -31.0105,59.7025 -30.5231,59.3484 -30.0357,58.9943 -29.5769,58.6024 -29.1509,58.1765 -28.7249,57.7505 -28.333,57.2916 -27.9789,56.8043 -27.6248,56.3169 -27.3095,55.8024 -27.036,55.2656 -26.7625,54.7288 -26.5316,54.1714 -26.3454,53.5984 -26.1593,53.0255 -26.0184,52.4388 -25.9242,51.8437 -25.8299,51.2487 -25.7826,50.6472 -25.7826,50.0447 -25.7826,50.0447 -37.2826,50.0447 -37.2826,50.0447"/>
<ellipse fill="none" stroke="black" cx="-37.2826" cy="50.0447" rx="11.5" ry="11.5"/>
</g>
<!-- 6&#45;&gt;19 -->
<g id="edge26" class="edge"><title>6&#45;&gt;19</title>
<path fill="none" stroke="black" d="M-0.72361,-7.09021C-11.2463,9.35488 -23.7026,28.8217 -31.0229,40.262"/>
</g>
<!-- 26 -->
<g id="node27" class="node"><title>26</title>
<ellipse fill="deepskyblue" stroke="black" cx="58.1175" cy="-20.9059" rx="5" ry="5"/>
</g>
<!-- 6&#45;&gt;26 -->
<g id="edge27" class="edge"><title>6&#45;&gt;26</title>
<path fill="none" stroke="black" d="M50.3803,-23.8806C51.3784,-23.4968 52.3101,-23.1386 53.1567,-22.8132"/>
</g>
<!-- 31 -->
<g id="node32" class="node"><title>31</title>
<path fill="deepskyblue" stroke="black" stroke-width="0.5" d="M-91.5181,0.564843C-91.5181,0.564843 -79.0181,0.564843 -79.0181,0.564843 -79.0181,0.0874743 -79.0455,-0.389503 -79.1,-0.863744 -79.1546,-1.33798 -79.2363,-1.80871 -79.3447,-2.27361 -79.4531,-2.73851 -79.588,-3.19682 -79.7488,-3.64628 -79.9097,-4.09574 -80.0961,-4.53563 -80.3072,-4.96377 -80.5184,-5.3919 -80.7538,-5.8076 -81.0125,-6.2088 -81.2712,-6.61001 -81.5527,-6.99606 -81.8555,-7.36507 -82.1583,-7.73408 -82.4821,-8.08544 -82.8251,-8.41743 -83.1681,-8.74941 -83.5299,-9.06147 -83.9086,-9.35207 -84.2873,-9.64268 -84.6824,-9.91135 -85.0918,-10.1568 -85.5013,-10.4022 -85.9245,-10.6239 -86.3593,-10.821 -86.7941,-11.018 -87.2399,-11.1899 -87.6943,-11.3359 -88.1488,-11.482 -88.6113,-11.6018 -89.0795,-11.695 -89.5477,-11.7881 -90.0208,-11.8543 -90.4966,-11.8933 -90.9724,-11.9324 -91.45,-11.9441 -91.9271,-11.9285 -92.4042,-11.9128 -92.8801,-11.8699 -93.3523,-11.7999 -93.8245,-11.7298 -94.2923,-11.6328 -94.7534,-11.5092 -95.2145,-11.3857 -95.6681,-11.2358 -96.1121,-11.0604 -96.556,-10.8849 -96.9896,-10.6842 -97.4106,-10.4592 -97.8316,-10.2341 -98.2394,-9.98518 -98.6319,-9.71351 -99.0244,-9.44184 -99.4011,-9.14791 -99.76,-8.83316 -100.119,-8.5184 -100.459,-8.18335 -100.78,-7.82964 -101.101,-7.47594 -101.401,-7.10416 -101.679,-6.71613 -101.957,-6.3281 -102.212,-5.92446 -102.444,-5.5072 -102.676,-5.08994 -102.884,-4.65973 -103.067,-4.2187 -103.249,-3.77767 -103.407,-3.32654 -103.538,-2.86752 -103.669,-2.4085 -103.773,-1.94234 -103.851,-1.47135 -103.929,-1.00036 -103.98,-0.525298 -104.003,-0.0485041 -104.026,0.42829 -104.023,0.906034 -103.991,1.38238 -103.96,1.85873 -103.902,2.3329 -103.816,2.80255 -103.731,3.27221 -103.618,3.73659 -103.48,4.1934 -103.341,4.65021 -103.177,5.09871 -102.987,5.5367 -102.797,5.97468 -102.582,6.40143 -102.343,6.81484 -102.343,6.81484 -91.5181,0.564843 -91.5181,0.564843"/>
<path fill="#98f5ff" stroke="black" stroke-width="0.5" d="M-91.5181,0.564843C-91.5181,0.564843 -102.343,6.81484 -102.343,6.81484 -102.002,7.4056 -101.614,7.96745 -101.181,8.49476 -100.748,9.02207 -100.273,9.51307 -99.76,9.96284 -99.2471,10.4126 -98.6983,10.8196 -98.119,11.1799 -97.5397,11.5401 -96.9319,11.8523 -96.3017,12.1133 -95.6715,12.3744 -95.0209,12.5834 -94.3566,12.7383 -93.6923,12.8932 -93.0164,12.9935 -92.3357,13.0381 -91.655,13.0827 -90.9718,13.0715 -90.2929,13.0047 -89.6141,12.9378 -88.9418,12.8155 -88.2829,12.6389 -87.624,12.4624 -86.9806,12.2322 -86.3593,11.9506 -85.738,11.6691 -85.1407,11.3372 -84.5735,10.9582 -84.0063,10.5792 -83.4711,10.1545 -82.9732,9.68814 -82.4754,9.22183 -82.0165,8.71555 -81.6012,8.17436 -81.186,7.63318 -80.8157,7.0589 -80.4941,6.4573 -80.1726,5.8557 -79.9008,5.22878 -79.6815,4.58284 -79.4622,3.93689 -79.2962,3.27407 -79.1851,2.60104 -79.074,1.928 -79.0181,1.24699 -79.0181,0.564843 -79.0181,0.564843 -91.5181,0.564843 -91.5181,0.564843"/>
<ellipse fill="none" stroke="black" cx="-91.5181" cy="0.564843" rx="12.5" ry="12.5"/>
</g>
<!-- 6&#45;&gt;31 -->
<g id="edge28" class="edge"><title>6&#45;&gt;31</title>
<path fill="none" stroke="black" d="M-14.8669,-25.2632C-36.6649,-17.9183 -64.0066,-8.70532 -79.4447,-3.50337"/>
</g>
<!-- 48 -->
<g id="node49" class="node"><title>48</title>
<ellipse fill="brown" stroke="black" cx="-70.7986" cy="-54.9401" rx="6" ry="6"/>
</g>
<!-- 6&#45;&gt;48 -->
<g id="edge29" class="edge"><title>6&#45;&gt;48</title>
<path fill="none" stroke="black" d="M-15.8312,-43.4214C-34.0616,-47.2417 -54.8178,-51.5913 -64.8059,-53.6843"/>
</g>
<!-- 50 -->
<g id="node51" class="node"><title>50</title>
<ellipse fill="brown" stroke="black" cx="134.688" cy="-28.128" rx="8" ry="8"/>
</g>
<!-- 6&#45;&gt;50 -->
<g id="edge30" class="edge"><title>6&#45;&gt;50</title>
<path fill="none" stroke="black" d="M52.6863,-33.8943C78.2174,-32.099 111.021,-29.7923 126.238,-28.7222"/>
</g>
<!-- 57 -->
<g id="node58" class="node"><title>57</title>
<ellipse fill="black" stroke="black" cx="-94.1403" cy="46.4244" rx="6" ry="6"/>
</g>
<!-- 8&#45;&gt;57 -->
<g id="edge31" class="edge"><title>8&#45;&gt;57</title>
<path fill="none" stroke="black" d="M-42.5098,14.9553C-53.2906,21.5263 -77.8281,36.482 -88.7379,43.1316"/>
</g>
<!-- 9 -->
<g id="node10" class="node"><title>9</title>
<ellipse fill="deepskyblue" stroke="black" cx="-57.7325" cy="-247.26" rx="3.5" ry="3.5"/>
</g>
<!-- 11 -->
<g id="node12" class="node"><title>11</title>
<ellipse fill="deepskyblue" stroke="black" cx="-109.887" cy="-80.8395" rx="3.5" ry="3.5"/>
</g>
<!-- 12 -->
<g id="node13" class="node"><title>12</title>
<ellipse fill="deepskyblue" stroke="black" cx="28.1009" cy="-266.273" rx="3.5" ry="3.5"/>
</g>
<!-- 15 -->
<g id="node16" class="node"><title>15</title>
<path fill="deepskyblue" stroke="black" stroke-width="0.5" d="M-6.07118,-217.27C-6.07118,-217.27 11.9288,-217.27 11.9288,-217.27 11.9288,-218.119 11.8688,-218.966 11.7492,-219.806 11.6297,-220.646 11.4509,-221.477 11.2141,-222.292 10.9774,-223.107 10.6833,-223.904 10.3341,-224.677 9.98488,-225.451 9.58142,-226.198 9.12673,-226.915 8.67203,-227.631 8.16724,-228.315 7.61613,-228.96 7.06502,-229.605 6.46897,-230.211 5.83244,-230.772 5.1959,-231.333 4.52049,-231.849 3.81123,-232.314 3.10198,-232.78 2.36067,-233.196 1.59285,-233.557 0.825029,-233.918 0.0326179,-234.225 -0.778452,-234.474 -1.58952,-234.724 -2.41722,-234.916 -3.25536,-235.048 -4.09349,-235.181 -4.93997,-235.254 -5.78845,-235.268 -6.63692,-235.281 -7.48528,-235.234 -8.32718,-235.128 -9.16907,-235.022 -10.0024,-234.856 -10.8209,-234.632 -11.6394,-234.408 -12.441,-234.127 -13.2198,-233.79 -13.9986,-233.452 -14.7526,-233.061 -15.4762,-232.617 -16.1997,-232.174 -16.891,-231.68 -17.5448,-231.139 -18.1987,-230.598 -18.8134,-230.012 -19.3845,-229.384 -19.9556,-228.757 -20.4817,-228.089 -20.9586,-227.387 -21.4356,-226.686 -21.8623,-225.951 -22.2357,-225.189 -22.609,-224.427 -22.928,-223.639 -23.1902,-222.832 -23.4524,-222.025 -23.6572,-221.201 -23.8031,-220.365 -23.949,-219.529 -24.0356,-218.683 -24.0623,-217.835 -24.0889,-216.987 -24.0556,-216.138 -23.9625,-215.295 -23.8694,-214.451 -23.7167,-213.615 -23.5057,-212.794 -23.2946,-211.972 -23.0257,-211.166 -22.701,-210.382 -22.3763,-209.598 -21.9965,-208.838 -21.5645,-208.107 -21.1326,-207.377 -20.6495,-206.678 -20.1189,-206.016 -19.5884,-205.353 -19.0116,-204.729 -18.393,-204.148 -17.7744,-203.568 -17.1155,-203.031 -16.4213,-202.543 -15.727,-202.055 -14.9991,-201.617 -14.243,-201.232 -13.4869,-200.847 -12.7045,-200.515 -11.9017,-200.24 -11.0989,-199.966 -10.2776,-199.748 -9.44404,-199.589 -9.44404,-199.589 -6.07118,-217.27 -6.07118,-217.27"/>
<path fill="#98f5ff" stroke="black" stroke-width="0.5" d="M-6.07118,-217.27C-6.07118,-217.27 -9.44404,-199.589 -9.44404,-199.589 -8.79583,-199.465 -8.1413,-199.377 -7.48344,-199.325 -6.82557,-199.274 -6.16536,-199.258 -5.50578,-199.279 -4.84621,-199.3 -4.18827,-199.357 -3.53495,-199.45 -2.88164,-199.542 -2.23393,-199.671 -1.59476,-199.835 -0.955588,-200 -0.325928,-200.199 0.291372,-200.432 0.908672,-200.665 1.51268,-200.932 2.10065,-201.232 2.68863,-201.531 3.25969,-201.863 3.81124,-202.225 4.36279,-202.588 4.89399,-202.98 5.40246,-203.401 5.91092,-203.821 6.39586,-204.27 6.8551,-204.743 7.31433,-205.217 7.74716,-205.716 8.15161,-206.238 8.55607,-206.759 8.93155,-207.302 9.27635,-207.865 9.62114,-208.428 9.93474,-209.009 10.2157,-209.606 10.4967,-210.203 10.7446,-210.815 10.9584,-211.439 11.1721,-212.064 11.3514,-212.699 11.4953,-213.343 11.6393,-213.987 11.7477,-214.639 11.8201,-215.295 11.8925,-215.951 11.9288,-216.61 11.9288,-217.27 11.9288,-217.27 -6.07118,-217.27 -6.07118,-217.27"/>
<ellipse fill="none" stroke="black" cx="-6.07118" cy="-217.27" rx="18" ry="18"/>
</g>
<!-- 15&#45;&gt;9 -->
<g id="edge32" class="edge"><title>15&#45;&gt;9</title>
<path fill="none" stroke="black" d="M-21.852,-226.431C-33.4838,-233.183 -48.3369,-241.805 -54.6603,-245.476"/>
</g>
<!-- 15&#45;&gt;12 -->
<g id="edge33" class="edge"><title>15&#45;&gt;12</title>
<path fill="none" stroke="black" d="M4.36725,-232.239C12.0613,-243.272 21.8861,-257.361 26.0688,-263.359"/>
</g>
<!-- 15&#45;&gt;14 -->
<g id="edge34" class="edge"><title>15&#45;&gt;14</title>
<path fill="none" stroke="black" d="M-2.54445,-199.288C0.118868,-185.708 3.61191,-167.898 5.40878,-158.737"/>
</g>
<!-- anon_15_23_0 -->
<g id="node61" class="node"><title>anon_15_23_0</title>
<ellipse fill="white" stroke="black" cx="-25.9228" cy="-288.383" rx="2.5" ry="2.5"/>
</g>
<!-- 15&#45;&gt;anon_15_23_0 -->
<g id="edge35" class="edge"><title>15&#45;&gt;anon_15_23_0</title>
<path fill="none" stroke="black" d="M-10.9783,-234.849C-15.8466,-252.288 -22.9006,-277.557 -25.1816,-285.728"/>
</g>
<!-- 16 -->
<g id="node17" class="node"><title>16</title>
<ellipse fill="#ff3030" stroke="black" cx="273.002" cy="51.5525" rx="3.5" ry="3.5"/>
</g>
<!-- 16&#45;&gt;3 -->
<g id="edge38" class="edge"><title>16&#45;&gt;3</title>
<path fill="none" stroke="black" d="M274.727,48.41C277.964,42.5127 285.256,29.2275 292.264,16.4606"/>
</g>
<!-- 18 -->
<g id="node19" class="node"><title>18</title>
<ellipse fill="deepskyblue" stroke="black" cx="375.65" cy="19.2172" rx="3.5" ry="3.5"/>
</g>
<!-- 18&#45;&gt;3 -->
<g id="edge39" class="edge"><title>18&#45;&gt;3</title>
<path fill="none" stroke="black" d="M372.424,17.6343C366.37,14.6638 352.732,7.97196 339.626,1.54116"/>
</g>
<!-- 20 -->
<g id="node21" class="node"><title>20</title>
<ellipse fill="deepskyblue" stroke="black" cx="-242.27" cy="39.9394" rx="3.5" ry="3.5"/>
</g>
<!-- 23 -->
<g id="node24" class="node"><title>23</title>
<ellipse fill="deepskyblue" stroke="black" cx="-57.9859" cy="-370.209" rx="3.5" ry="3.5"/>
</g>
<!-- 27 -->
<g id="node28" class="node"><title>27</title>
<ellipse fill="#ff3030" stroke="black" cx="87.0814" cy="-200.347" rx="5" ry="5"/>
</g>
<!-- anon_27_6_0 -->
<g id="node63" class="node"><title>anon_27_6_0</title>
<ellipse fill="white" stroke="black" cx="74.0109" cy="-150.058" rx="2.5" ry="2.5"/>
</g>
<!-- 27&#45;&gt;anon_27_6_0 -->
<g id="edge40" class="edge"><title>27&#45;&gt;anon_27_6_0</title>
<path fill="none" stroke="black" d="M85.7804,-195.341C83.0426,-184.807 76.7678,-160.665 74.6918,-152.677"/>
</g>
<!-- 28 -->
<g id="node29" class="node"><title>28</title>
<ellipse fill="#ff3030" stroke="black" cx="82.8963" cy="94.7141" rx="3.5" ry="3.5"/>
</g>
<!-- 28&#45;&gt;13 -->
<g id="edge43" class="edge"><title>28&#45;&gt;13</title>
<path fill="none" stroke="black" d="M81.8391,91.3263C79.5219,83.9007 73.9426,66.0216 70.6819,55.5724"/>
</g>
<!-- 29 -->
<g id="node30" class="node"><title>29</title>
<ellipse fill="deepskyblue" stroke="black" cx="331.46" cy="56.5946" rx="3.5" ry="3.5"/>
</g>
<!-- 29&#45;&gt;3 -->
<g id="edge44" class="edge"><title>29&#45;&gt;3</title>
<path fill="none" stroke="black" d="M330.365,53.2089C328.311,46.8553 323.683,32.542 319.236,18.7871"/>
</g>
<!-- anon_31_20_0 -->
<g id="node65" class="node"><title>anon_31_20_0</title>
<ellipse fill="white" stroke="black" cx="-155.923" cy="16.3713" rx="2.5" ry="2.5"/>
</g>
<!-- 31&#45;&gt;anon_31_20_0 -->
<g id="edge45" class="edge"><title>31&#45;&gt;anon_31_20_0</title>
<path fill="none" stroke="black" d="M-103.936,3.6125C-119.435,7.41623 -144.916,13.6699 -153.217,15.7073"/>
</g>
<!-- 32 -->
<g id="node33" class="node"><title>32</title>
<ellipse fill="#ff3030" stroke="black" cx="-116.397" cy="-43.3249" rx="3.5" ry="3.5"/>
</g>
<!-- 33 -->
<g id="node34" class="node"><title>33</title>
<ellipse fill="deepskyblue" stroke="black" cx="-74.2972" cy="87.777" rx="3.5" ry="3.5"/>
</g>
<!-- 33&#45;&gt;19 -->
<g id="edge48" class="edge"><title>33&#45;&gt;19</title>
<path fill="none" stroke="black" d="M-71.3927,84.8162C-65.8709,79.1873 -53.6782,66.7582 -45.4686,58.3895"/>
</g>
<!-- 35 -->
<g id="node36" class="node"><title>35</title>
<ellipse fill="#ff3030" stroke="black" cx="328.274" cy="126.372" rx="3.5" ry="3.5"/>
</g>
<!-- anon_35_3_0 -->
<g id="node67" class="node"><title>anon_35_3_0</title>
<ellipse fill="white" stroke="black" cx="311.949" cy="66.4588" rx="2.5" ry="2.5"/>
</g>
<!-- 35&#45;&gt;anon_35_3_0 -->
<g id="edge49" class="edge"><title>35&#45;&gt;anon_35_3_0</title>
<path fill="none" stroke="black" d="M327.301,122.803C324.309,111.82 315.28,78.6839 312.666,69.0886"/>
</g>
<!-- 37 -->
<g id="node38" class="node"><title>37</title>
<ellipse fill="#ff3030" stroke="black" cx="28.7047" cy="205.073" rx="3.5" ry="3.5"/>
</g>
<!-- anon_37_2_0 -->
<g id="node68" class="node"><title>anon_37_2_0</title>
<ellipse fill="white" stroke="black" cx="28.1925" cy="152.276" rx="2.5" ry="2.5"/>
</g>
<!-- 37&#45;&gt;anon_37_2_0 -->
<g id="edge51" class="edge"><title>37&#45;&gt;anon_37_2_0</title>
<path fill="none" stroke="black" d="M28.6679,201.276C28.5706,191.25 28.3084,164.226 28.2212,155.232"/>
</g>
<!-- 38 -->
<g id="node39" class="node"><title>38</title>
<ellipse fill="#ff3030" stroke="black" cx="-60.025" cy="-172.392" rx="3.5" ry="3.5"/>
</g>
<!-- 38&#45;&gt;5 -->
<g id="edge53" class="edge"><title>38&#45;&gt;5</title>
<path fill="none" stroke="black" d="M-58.8633,-169.012C-56.4686,-162.045 -50.8393,-145.665 -46.4438,-132.876"/>
</g>
<!-- 39 -->
<g id="node40" class="node"><title>39</title>
<ellipse fill="#ff3030" stroke="black" cx="-92.5954" cy="-147.309" rx="3.5" ry="3.5"/>
</g>
<!-- 39&#45;&gt;5 -->
<g id="edge54" class="edge"><title>39&#45;&gt;5</title>
<path fill="none" stroke="black" d="M-89.4938,-145.423C-83.1002,-141.535 -68.0705,-132.395 -56.3348,-125.259"/>
</g>
<!-- 40 -->
<g id="node41" class="node"><title>40</title>
<ellipse fill="deepskyblue" stroke="black" cx="406.076" cy="-111.954" rx="3.5" ry="3.5"/>
</g>
<!-- anon_40_3_0 -->
<g id="node69" class="node"><title>anon_40_3_0</title>
<ellipse fill="white" stroke="black" cx="364.459" cy="-70.0939" rx="2.5" ry="2.5"/>
</g>
<!-- 40&#45;&gt;anon_40_3_0 -->
<g id="edge55" class="edge"><title>40&#45;&gt;anon_40_3_0</title>
<path fill="none" stroke="black" d="M403.346,-109.207C395.534,-101.35 373.22,-78.9064 366.438,-72.0847"/>
</g>
<!-- 41&#45;&gt;50 -->
<g id="edge57" class="edge"><title>41&#45;&gt;50</title>
<path fill="none" stroke="black" d="M191.286,-23.0951C181.872,-23.9322 156.26,-26.2097 142.957,-27.3927"/>
</g>
<!-- 42 -->
<g id="node43" class="node"><title>42</title>
<ellipse fill="#1874cd" stroke="black" cx="393.509" cy="110.014" rx="3.5" ry="3.5"/>
</g>
<!-- 42&#45;&gt;46 -->
<g id="edge58" class="edge"><title>42&#45;&gt;46</title>
<path fill="none" stroke="black" d="M391.435,107.184C386.166,99.9938 372.3,81.0723 366.885,73.6821"/>
</g>
<!-- 43 -->
<g id="node44" class="node"><title>43</title>
<ellipse fill="#1874cd" stroke="black" cx="306.103" cy="-87.4503" rx="3.5" ry="3.5"/>
</g>
<!-- 43&#45;&gt;3 -->
<g id="edge59" class="edge"><title>43&#45;&gt;3</title>
<path fill="none" stroke="black" d="M306.232,-83.8884C306.473,-77.2041 307.015,-62.1459 307.537,-47.6751"/>
</g>
<!-- 45 -->
<g id="node46" class="node"><title>45</title>
<ellipse fill="#1874cd" stroke="black" cx="438.214" cy="-10.6737" rx="3.5" ry="3.5"/>
</g>
<!-- anon_45_3_0 -->
<g id="node70" class="node"><title>anon_45_3_0</title>
<ellipse fill="white" stroke="black" cx="385.287" cy="-12.1204" rx="2.5" ry="2.5"/>
</g>
<!-- 45&#45;&gt;anon_45_3_0 -->
<g id="edge60" class="edge"><title>45&#45;&gt;anon_45_3_0</title>
<path fill="none" stroke="black" d="M434.407,-10.7777C424.357,-11.0524 397.266,-11.793 388.251,-12.0394"/>
</g>
<!-- 47 -->
<g id="node48" class="node"><title>47</title>
<ellipse fill="brown" stroke="black" cx="33.1238" cy="-104.271" rx="3.5" ry="3.5"/>
</g>
<!-- 47&#45;&gt;6 -->
<g id="edge62" class="edge"><title>47&#45;&gt;6</title>
<path fill="none" stroke="black" d="M32.31,-100.618C30.9961,-94.72 28.2786,-82.5221 25.5604,-70.321"/>
</g>
<!-- 48&#45;&gt;11 -->
<g id="edge63" class="edge"><title>48&#45;&gt;11</title>
<path fill="none" stroke="black" d="M-75.9087,-58.326C-84.1862,-63.8107 -100.269,-74.4667 -106.909,-78.8663"/>
</g>
<!-- 48&#45;&gt;32 -->
<g id="edge64" class="edge"><title>48&#45;&gt;32</title>
<path fill="none" stroke="black" d="M-76.7597,-53.4216C-86.4159,-50.9619 -105.177,-46.183 -112.922,-44.2099"/>
</g>
<!-- 49 -->
<g id="node50" class="node"><title>49</title>
<ellipse fill="brown" stroke="black" cx="54.2013" cy="80.7141" rx="3.5" ry="3.5"/>
</g>
<!-- anon_49_6_0 -->
<g id="node71" class="node"><title>anon_49_6_0</title>
<ellipse fill="white" stroke="black" cx="45.5066" cy="29.7317" rx="2.5" ry="2.5"/>
</g>
<!-- 49&#45;&gt;anon_49_6_0 -->
<g id="edge65" class="edge"><title>49&#45;&gt;anon_49_6_0</title>
<path fill="none" stroke="black" d="M53.576,77.0475C51.9251,67.3669 47.4746,41.2711 45.9935,32.5866"/>
</g>
<!-- 51 -->
<g id="node52" class="node"><title>51</title>
<ellipse fill="brown" stroke="black" cx="-48.4178" cy="-24.4378" rx="3.5" ry="3.5"/>
</g>
<!-- 51&#45;&gt;6 -->
<g id="edge67" class="edge"><title>51&#45;&gt;6</title>
<path fill="none" stroke="black" d="M-44.8475,-25.0774C-39.2439,-26.0812 -27.8228,-28.1272 -16.2358,-30.203"/>
</g>
<!-- 52 -->
<g id="node53" class="node"><title>52</title>
<ellipse fill="brown" stroke="black" cx="144.09" cy="18.2828" rx="3.5" ry="3.5"/>
</g>
<!-- 52&#45;&gt;50 -->
<g id="edge68" class="edge"><title>52&#45;&gt;50</title>
<path fill="none" stroke="black" d="M143.352,14.641C141.846,7.2046 138.384,-9.88118 136.321,-20.0638"/>
</g>
<!-- 53 -->
<g id="node54" class="node"><title>53</title>
<ellipse fill="brown" stroke="black" cx="146.537" cy="-74.1781" rx="3.5" ry="3.5"/>
</g>
<!-- 53&#45;&gt;50 -->
<g id="edge69" class="edge"><title>53&#45;&gt;50</title>
<path fill="none" stroke="black" d="M145.608,-70.5647C143.709,-63.1861 139.347,-46.2331 136.747,-36.1296"/>
</g>
<!-- 54 -->
<g id="node55" class="node"><title>54</title>
<ellipse fill="brown" stroke="black" cx="10.6626" cy="32.8787" rx="3.5" ry="3.5"/>
</g>
<!-- 54&#45;&gt;6 -->
<g id="edge70" class="edge"><title>54&#45;&gt;6</title>
<path fill="none" stroke="black" d="M11.0565,29.1575C11.6925,23.1487 13.0079,10.7216 14.3237,-1.70872"/>
</g>
<!-- anon_15_23_1 -->
<g id="node62" class="node"><title>anon_15_23_1</title>
<ellipse fill="white" stroke="black" cx="-42.4257" cy="-330.784" rx="2.5" ry="2.5"/>
</g>
<!-- anon_15_23_0&#45;&gt;anon_15_23_1 -->
<g id="edge36" class="edge"><title>anon_15_23_0&#45;&gt;anon_15_23_1</title>
<path fill="none" stroke="black" d="M-26.9057,-290.909C-29.8479,-298.468 -38.5606,-320.853 -41.4686,-328.325"/>
</g>
<!-- anon_15_23_1&#45;&gt;23 -->
<g id="edge37" class="edge"><title>anon_15_23_1&#45;&gt;23</title>
<path fill="none" stroke="black" d="M-43.4467,-333.371C-46.1512,-340.223 -53.5039,-358.853 -56.5914,-366.676"/>
</g>
<!-- anon_27_6_1 -->
<g id="node64" class="node"><title>anon_27_6_1</title>
<ellipse fill="white" stroke="black" cx="58.657" cy="-100.173" rx="2.5" ry="2.5"/>
</g>
<!-- anon_27_6_0&#45;&gt;anon_27_6_1 -->
<g id="edge41" class="edge"><title>anon_27_6_0&#45;&gt;anon_27_6_1</title>
<path fill="none" stroke="black" d="M73.2703,-147.652C70.6825,-139.244 62.0582,-111.224 59.4263,-102.673"/>
</g>
<!-- anon_27_6_1&#45;&gt;6 -->
<g id="edge42" class="edge"><title>anon_27_6_1&#45;&gt;6</title>
<path fill="none" stroke="black" d="M57.3039,-98.0493C53.9962,-92.8569 45.1508,-78.9719 36.6862,-65.6846"/>
</g>
<!-- anon_31_20_1 -->
<g id="node66" class="node"><title>anon_31_20_1</title>
<ellipse fill="white" stroke="black" cx="-201.343" cy="28.3418" rx="2.5" ry="2.5"/>
</g>
<!-- anon_31_20_0&#45;&gt;anon_31_20_1 -->
<g id="edge46" class="edge"><title>anon_31_20_0&#45;&gt;anon_31_20_1</title>
<path fill="none" stroke="black" d="M-158.365,17.0149C-166.177,19.074 -190.524,25.4906 -198.663,27.6355"/>
</g>
<!-- anon_31_20_1&#45;&gt;20 -->
<g id="edge47" class="edge"><title>anon_31_20_1&#45;&gt;20</title>
<path fill="none" stroke="black" d="M-204.028,29.1028C-211.142,31.1185 -230.482,36.5988 -238.602,38.9"/>
</g>
<!-- anon_35_3_0&#45;&gt;3 -->
<g id="edge50" class="edge"><title>anon_35_3_0&#45;&gt;3</title>
<path fill="none" stroke="black" d="M311.843,63.7951C311.571,56.9578 310.822,38.1018 310.13,20.7144"/>
</g>
<!-- anon_37_2_0&#45;&gt;2 -->
<g id="edge52" class="edge"><title>anon_37_2_0&#45;&gt;2</title>
<path fill="none" stroke="black" d="M27.9827,149.63C27.4465,142.866 25.9955,124.56 24.9631,111.536"/>
</g>
<!-- anon_40_3_0&#45;&gt;3 -->
<g id="edge56" class="edge"><title>anon_40_3_0&#45;&gt;3</title>
<path fill="none" stroke="black" d="M362.606,-68.2143C357.849,-63.3897 344.732,-50.0844 332.637,-37.8153"/>
</g>
<!-- anon_45_3_0&#45;&gt;3 -->
<g id="edge61" class="edge"><title>anon_45_3_0&#45;&gt;3</title>
<path fill="none" stroke="black" d="M382.741,-12.1697C376.413,-12.2921 359.316,-12.623 343.151,-12.9358"/>
</g>
<!-- anon_49_6_0&#45;&gt;6 -->
<g id="edge66" class="edge"><title>anon_49_6_0&#45;&gt;6</title>
<path fill="none" stroke="black" d="M44.4615,27.2226C42.2231,21.8486 36.7287,8.65737 31.322,-4.32326"/>
</g>
</g>
</svg>
