<?xml version="1.0" encoding="UTF-8" standalone="no"?>
<!DOCTYPE svg PUBLIC "-//W3C//DTD SVG 1.1//EN"
 "http://www.w3.org/Graphics/SVG/1.1/DTD/svg11.dtd">
<!-- Generated by graphviz version 2.38.0 (20140413.2041)
 -->
<!-- Title: %3 Pages: 1 -->
<svg width="695pt" height="590pt"
 viewBox="0.00 0.00 695.48 590.28" xmlns="http://www.w3.org/2000/svg" xmlns:xlink="http://www.w3.org/1999/xlink">
<g id="graph0" class="graph" transform="scale(1 1) rotate(0) translate(249.77 377.709)">
<title>%3</title>
<polygon fill="white" stroke="none" points="-249.77,212.573 -249.77,-377.709 445.714,-377.709 445.714,212.573 -249.77,212.573"/>
<!-- 0 -->
<g id="node1" class="node"><title>0</title>
<path fill="#98f5ff" stroke="black" stroke-width="0.5" d="M-38.5333,106.183C-38.5333,106.183 -13.0333,106.183 -13.0333,106.183 -13.0333,105.449 -13.065,104.715 -13.1284,103.983 -13.1918,103.251 -13.2867,102.523 -13.413,101.799 -13.5393,101.076 -13.6967,100.358 -13.885,99.6481 -14.0732,98.9381 -14.292,98.2367 -14.5408,97.5456 -14.7896,96.8546 -15.0681,96.1746 -15.3756,95.5076 -15.6831,94.8406 -16.0193,94.1872 -16.3832,93.5492 -16.7471,92.9113 -17.1384,92.2893 -17.5559,91.6851 -17.9735,91.0809 -18.417,90.495 -18.8852,89.9291 -19.3534,89.3632 -19.8457,88.8178 -20.361,88.2944 -20.8762,87.771 -21.4139,87.2701 -21.9724,86.7931 -22.5308,86.3161 -23.1097,85.8634 -23.7072,85.4364 -24.3048,85.0094 -24.9205,84.6084 -25.5527,84.2345 -26.1849,83.8606 -26.8329,83.5143 -27.495,83.1963 -28.1571,82.8784 -28.8326,82.5892 -29.5197,82.3296 -30.2067,82.07 -30.9047,81.8402 -31.6115,81.6408 -32.3184,81.4415 -33.0336,81.2727 -33.7551,81.1351 -33.7551,81.1351 -38.5333,106.183 -38.5333,106.183"/>
<path fill="deepskyblue" stroke="black" stroke-width="0.5" d="M-38.5333,106.183C-38.5333,106.183 -33.7551,81.1351 -33.7551,81.1351 -35.0344,80.8911 -36.3306,80.7454 -37.6322,80.6994 -38.9338,80.6533 -40.2371,80.7071 -41.5305,80.8602 -42.8239,81.0133 -44.1037,81.2652 -45.3586,81.6138 -46.6135,81.9624 -47.8399,82.4067 -49.0269,82.9427 -50.2139,83.4786 -51.3582,84.1047 -52.4496,84.8155 -53.5409,85.5263 -54.5763,86.3197 -55.5464,87.1886 -56.5166,88.0576 -57.4188,88.9996 -58.245,90.0064 -59.0713,91.0132 -59.8192,92.0818 -60.4822,93.2029 -61.1452,94.3239 -61.7213,95.4941 -62.2055,96.7032 -62.6897,97.9123 -63.0806,99.1567 -63.3747,100.426 -63.6688,101.694 -63.8652,102.984 -63.9623,104.283 -64.0594,105.581 -64.0569,106.886 -63.9547,108.184 -63.8525,109.483 -63.651,110.771 -63.3519,112.039 -63.0528,113.307 -62.6571,114.549 -62.1681,115.757 -61.6792,116.964 -61.0984,118.132 -60.4311,119.25 -59.7637,120.369 -59.0116,121.434 -58.1814,122.438 -57.3512,123.441 -56.4453,124.38 -55.4717,125.245 -54.4981,126.11 -53.4597,126.899 -52.3655,127.606 -51.2714,128.312 -50.1247,128.934 -48.9355,129.465 -47.7464,129.997 -46.5183,130.436 -45.262,130.78 -44.0058,131.123 -42.725,131.37 -41.431,131.518 -40.137,131.666 -38.8336,131.715 -37.5322,131.664 -36.2307,131.613 -34.9351,131.462 -33.6567,131.213 -32.3783,130.964 -31.1209,130.617 -29.8955,130.176 -28.67,129.735 -27.4802,129.2 -26.3364,128.577 -25.1926,127.954 -24.0982,127.245 -23.0629,126.455 -22.0275,125.664 -21.0542,124.796 -20.1515,123.857 -19.2488,122.918 -18.4194,121.912 -17.6705,120.846 -16.9216,119.78 -16.2554,118.659 -15.6778,117.492 -15.1002,116.324 -14.6129,115.114 -14.2202,113.873 -13.8275,112.631 -13.5304,111.361 -13.3318,110.074 -13.1331,108.786 -13.0333,107.486 -13.0333,106.183 -13.0333,106.183 -38.5333,106.183 -38.5333,106.183"/>
<ellipse fill="none" stroke="black" cx="-38.5333" cy="106.183" rx="25.5" ry="25.5"/>
</g>
<!-- 6 -->
<g id="node7" class="node"><title>6</title>
<path fill="#ff3030" stroke="black" stroke-width="0.5" d="M17.9887,-36.3342C17.9887,-36.3342 52.4887,-36.3342 52.4887,-36.3342 52.4887,-37.8887 52.3837,-39.4414 52.1743,-40.9817 51.9649,-42.522 51.6516,-44.0465 51.2366,-45.5445 51.2366,-45.5445 17.9887,-36.3342 17.9887,-36.3342"/>
<path fill="deepskyblue" stroke="black" stroke-width="0.5" d="M17.9887,-36.3342C17.9887,-36.3342 51.2366,-45.5445 51.2366,-45.5445 50.9254,-46.6679 50.5575,-47.7748 50.1342,-48.8609 49.711,-49.947 49.2329,-51.011 48.702,-52.0487 48.171,-53.0865 47.5878,-54.0966 46.9546,-55.0753 46.3214,-56.054 45.6389,-57 44.9099,-57.9096 44.9099,-57.9096 17.9887,-36.3342 17.9887,-36.3342"/>
<path fill="brown" stroke="black" stroke-width="0.5" d="M17.9887,-36.3342C17.9887,-36.3342 44.9099,-57.9096 44.9099,-57.9096 44.2797,-58.696 43.6153,-59.4544 42.9187,-60.1826 42.2221,-60.9108 41.4939,-61.6082 40.7362,-62.2726 39.9785,-62.9371 39.1921,-63.5681 38.3791,-64.1637 37.5662,-64.7593 36.7276,-65.319 35.8657,-65.8412 35.0037,-66.3634 34.1193,-66.8476 33.215,-67.2924 32.3107,-67.7371 31.3874,-68.1421 30.4476,-68.506 29.5078,-68.8699 28.5526,-69.1925 27.5846,-69.4728 26.6165,-69.7531 25.6367,-69.9909 24.6479,-70.1854 23.6591,-70.3799 22.6622,-70.531 21.6602,-70.6383 20.6581,-70.7455 19.6518,-70.8088 18.6443,-70.8279 17.6367,-70.8471 16.6287,-70.8221 15.6233,-70.753 14.6179,-70.6839 13.616,-70.5708 12.6205,-70.414 11.625,-70.2571 10.6369,-70.0568 9.65893,-69.8135 8.68097,-69.5702 7.71415,-69.2841 6.76123,-68.9561 5.80832,-68.6282 4.87023,-68.2586 3.94968,-67.8485 3.02912,-67.4384 2.12697,-66.9882 1.24583,-66.4991 0.364684,-66.01 -0.494606,-65.4826 -1.32957,-64.9183 -2.16454,-64.354 -2.97437,-63.7534 -3.75676,-63.1182 -4.53914,-62.483 -5.29331,-61.8138 -6.01711,-61.1126 -6.74091,-60.4113 -7.43363,-59.6787 -8.09329,-58.9168 -8.75295,-58.155 -9.3789,-57.3646 -9.96936,-56.5479 -10.5598,-55.7312 -11.1142,-54.889 -11.6309,-54.0238 -12.1477,-53.1586 -12.6262,-52.2712 -13.0653,-51.3641 -13.5043,-50.457 -13.9034,-49.531 -14.2614,-48.589 -14.6193,-47.6469 -14.9359,-46.6897 -15.21,-45.7199 -15.4842,-44.7501 -15.7157,-43.7688 -15.904,-42.7788 -16.0922,-41.7888 -16.237,-40.7909 -16.3379,-39.7882 -16.4388,-38.7855 -16.4957,-37.7789 -16.5085,-36.7712 -16.5213,-35.7635 -16.4899,-34.7557 -16.4144,-33.7508 -16.3389,-32.7458 -16.2195,-31.7447 -16.0564,-30.7502 -15.8933,-29.7557 -15.6866,-28.7689 -15.4371,-27.7925 -15.1876,-26.8161 -14.8955,-25.8511 -14.5615,-24.9003 -14.2275,-23.9494 -13.852,-23.0137 -13.4361,-22.0958 -13.0201,-21.1778 -12.5642,-20.2785 -12.0696,-19.4005 -11.5749,-18.5225 -11.042,-17.6666 -10.4725,-16.8352 -9.90288,-16.0038 -9.29714,-15.1978 -8.657,-14.4195 -8.01685,-13.6411 -7.34291,-12.8912 -6.63711,-12.1719 -5.93131,-11.4525 -5.19433,-10.7644 -4.42829,-10.1096 -3.66225,-9.4548 -2.86789,-8.83386 -2.04749,-8.24859 -1.22708,-7.66331 -0.381432,-7.11427 0.487038,-6.60303 1.35551,-6.09179 2.24596,-5.61885 3.15584,-5.18557 4.06571,-4.75229 4.99413,-4.35908 5.93843,-4.00708 6.88273,-3.65509 7.842,-3.34463 8.81348,-3.07661 9.78496,-2.8086 10.7677,-2.58328 11.7589,-2.4013 12.7501,-2.21932 13.7488,-2.08086 14.7522,-1.98632 15.7555,-1.89177 16.7625,-1.84124 17.7702,-1.83486 18.778,-1.82847 19.7855,-1.86625 20.79,-1.94807 21.7944,-2.0299 22.7948,-2.1557 23.7882,-2.32511 24.7817,-2.49451 25.7672,-2.70737 26.742,-2.96306 27.7168,-3.21875 28.6799,-3.51702 29.6286,-3.85703 30.5773,-4.19704 31.5106,-4.57845 32.4259,-5.00018 33.3412,-5.4219 34.2376,-5.88352 35.1124,-6.38371 35.9873,-6.88391 36.8398,-7.4222 37.6676,-7.99704 38.4953,-8.57187 39.2975,-9.1827 40.0718,-9.82776 40.8461,-10.4728 41.5917,-11.1515 42.3065,-11.8618 43.0214,-12.5722 43.7048,-13.3135 44.3547,-14.0837 45.0047,-14.8539 45.6206,-15.6521 46.2007,-16.4762 46.7807,-17.3003 47.3244,-18.1494 47.8301,-19.0211 48.3359,-19.8928 48.8032,-20.7862 49.2307,-21.6988 49.6582,-22.6114 50.0455,-23.5423 50.3915,-24.4888 50.7375,-25.4354 51.0419,-26.3966 51.3037,-27.3697 51.5656,-28.3429 51.7847,-29.3271 51.9604,-30.3194 52.1361,-31.3117 52.2682,-32.3113 52.3564,-33.3152 52.4446,-34.3191 52.4887,-35.3264 52.4887,-36.3342 52.4887,-36.3342 17.9887,-36.3342 17.9887,-36.3342"/>
<ellipse fill="none" stroke="black" cx="17.9887" cy="-36.3342" rx="34.5" ry="34.5"/>
</g>
<!-- 0&#45;&gt;6 -->
<g id="edge1" class="edge"><title>0&#45;&gt;6</title>
<path fill="none" stroke="black" d="M-29.0728,82.3292C-19.6762,58.6362 -5.20478,22.1472 5.20964,-4.11227"/>
</g>
<!-- 22 -->
<g id="node23" class="node"><title>22</title>
<ellipse fill="deepskyblue" stroke="black" cx="-76.7866" cy="173.501" rx="3.5" ry="3.5"/>
</g>
<!-- 0&#45;&gt;22 -->
<g id="edge2" class="edge"><title>0&#45;&gt;22</title>
<path fill="none" stroke="black" d="M-51.2711,128.599C-59.9648,143.898 -70.648,162.698 -74.9059,170.191"/>
</g>
<!-- 24 -->
<g id="node25" class="node"><title>24</title>
<ellipse fill="deepskyblue" stroke="black" cx="-28.9426" cy="187.478" rx="3.5" ry="3.5"/>
</g>
<!-- 0&#45;&gt;24 -->
<g id="edge3" class="edge"><title>0&#45;&gt;24</title>
<path fill="none" stroke="black" d="M-35.4987,131.905C-33.2597,150.884 -30.4259,174.904 -29.367,183.88"/>
</g>
<!-- 58 -->
<g id="node59" class="node"><title>58</title>
<ellipse fill="black" stroke="black" cx="-116.443" cy="140.258" rx="3.5" ry="3.5"/>
</g>
<!-- 0&#45;&gt;58 -->
<g id="edge4" class="edge"><title>0&#45;&gt;58</title>
<path fill="none" stroke="black" d="M-61.9087,116.407C-80.3753,124.484 -104.434,135.006 -113.128,138.809"/>
</g>
<!-- 1 -->
<g id="node2" class="node"><title>1</title>
<ellipse fill="deepskyblue" stroke="black" cx="345.591" cy="22.3514" rx="3.5" ry="3.5"/>
</g>
<!-- 3 -->
<g id="node4" class="node"><title>3</title>
<path fill="#ff3030" stroke="black" stroke-width="0.5" d="M308.765,-13.6012C308.765,-13.6012 342.765,-13.6012 342.765,-13.6012 342.765,-15.1348 342.661,-16.6666 342.455,-18.1862 342.248,-19.7057 341.938,-21.2095 341.529,-22.6873 341.119,-24.1651 340.609,-25.6135 340.004,-27.0225 339.399,-28.4315 338.699,-29.798 337.909,-31.1125 337.119,-32.427 336.241,-33.6866 335.281,-34.8826 334.321,-36.0786 333.282,-37.2083 332.169,-38.264 331.057,-39.3196 329.874,-40.2988 328.63,-41.1947 327.385,-42.0907 326.081,-42.9015 324.727,-43.6214 323.373,-44.3414 321.972,-44.9689 320.533,-45.4997 319.094,-46.0305 317.621,-46.4634 316.124,-46.7953 314.627,-47.1272 313.109,-47.3575 311.581,-47.4845 310.052,-47.6114 308.517,-47.6349 306.986,-47.5546 305.454,-47.4744 303.93,-47.2906 302.423,-47.0045 300.917,-46.7185 299.431,-46.3308 297.977,-45.8442 296.523,-45.3576 295.103,-44.7732 293.727,-44.0949 292.352,-43.4166 291.024,-42.6461 289.753,-41.7885 289.753,-41.7885 308.765,-13.6012 308.765,-13.6012"/>
<path fill="#98f5ff" stroke="black" stroke-width="0.5" d="M308.765,-13.6012C308.765,-13.6012 289.753,-41.7885 289.753,-41.7885 288.933,-41.2354 288.137,-40.6467 287.368,-40.0242 286.6,-39.4017 285.858,-38.7459 285.147,-38.0588 284.435,-37.3716 283.754,-36.6538 283.105,-35.9072 282.456,-35.1607 281.84,-34.3862 281.259,-33.5859 281.259,-33.5859 308.765,-13.6012 308.765,-13.6012"/>
<path fill="deepskyblue" stroke="black" stroke-width="0.5" d="M308.765,-13.6012C308.765,-13.6012 281.259,-33.5859 281.259,-33.5859 280.445,-32.4654 279.7,-31.2961 279.028,-30.0848 278.357,-28.8734 277.76,-27.6221 277.241,-26.3378 276.722,-25.0536 276.282,-23.7389 275.924,-22.4011 275.565,-21.0632 275.289,-19.7047 275.096,-18.3331 274.903,-16.9615 274.795,-15.5795 274.77,-14.1946 274.746,-12.8098 274.807,-11.4247 274.951,-10.0473 275.096,-8.66978 275.325,-7.30245 275.637,-5.95289 275.948,-4.60333 276.342,-3.27407 276.816,-1.97254 277.289,-0.671008 277.842,0.600359 278.471,1.83446 279.1,3.06855 279.803,4.26307 280.578,5.41134 281.352,6.5596 282.196,7.65947 283.105,8.70478 284.014,9.7501 284.985,10.7389 286.015,11.6657 287.044,12.5925 288.129,13.4555 289.264,14.2499 290.398,15.0444 291.58,15.7687 292.803,16.419 294.026,17.0692 295.288,17.6442 296.581,18.1405 297.874,18.6369 299.196,19.0538 300.54,19.3888 300.54,19.3888 308.765,-13.6012 308.765,-13.6012"/>
<path fill="#1874cd" stroke="black" stroke-width="0.5" d="M308.765,-13.6012C308.765,-13.6012 300.54,19.3888 300.54,19.3888 301.788,19.7 303.052,19.94 304.327,20.1079 305.602,20.2758 306.886,20.3712 308.172,20.3936 309.458,20.416 310.744,20.3655 312.024,20.2422 313.304,20.119 314.576,19.9232 315.834,19.6558 317.092,19.3884 318.334,19.0499 319.554,18.6418 320.773,18.2337 321.969,17.7568 323.134,17.2132 324.3,16.6697 325.434,16.0605 326.53,15.3885 327.627,14.7166 328.684,13.9829 329.698,13.1911 330.711,12.3994 331.679,11.5507 332.596,10.6493 333.513,9.74787 334.379,8.79513 335.188,7.79567 335.998,6.7962 336.75,5.75162 337.441,4.66696 338.132,3.5823 338.76,2.45931 339.324,1.30339 339.888,0.147481 340.386,-1.03949 340.815,-2.25179 341.244,-3.4641 341.604,-4.69978 341.894,-5.95289 342.183,-7.206 342.401,-8.47451 342.547,-9.75232 342.692,-11.0301 342.765,-12.3152 342.765,-13.6012 342.765,-13.6012 308.765,-13.6012 308.765,-13.6012"/>
<ellipse fill="none" stroke="black" cx="308.765" cy="-13.6012" rx="34" ry="34"/>
</g>
<!-- 1&#45;&gt;3 -->
<g id="edge5" class="edge"><title>1&#45;&gt;3</title>
<path fill="none" stroke="black" d="M342.701,19.5302C340.463,17.3452 337.123,14.0846 333.399,10.4483"/>
</g>
<!-- 2 -->
<g id="node3" class="node"><title>2</title>
<ellipse fill="#ff3030" stroke="black" cx="23.8435" cy="97.412" rx="14" ry="14"/>
</g>
<!-- 2&#45;&gt;6 -->
<g id="edge6" class="edge"><title>2&#45;&gt;6</title>
<path fill="none" stroke="black" d="M23.2169,83.0988C22.3378,63.017 20.711,25.8526 19.5046,-1.7064"/>
</g>
<!-- 10 -->
<g id="node11" class="node"><title>10</title>
<ellipse fill="#ff3030" stroke="black" cx="383.117" cy="-44.8553" rx="3.5" ry="3.5"/>
</g>
<!-- 3&#45;&gt;10 -->
<g id="edge7" class="edge"><title>3&#45;&gt;10</title>
<path fill="none" stroke="black" d="M340.297,-26.8558C355.812,-33.3776 372.67,-40.4639 379.72,-43.4273"/>
</g>
<!-- 21 -->
<g id="node22" class="node"><title>21</title>
<ellipse fill="deepskyblue" stroke="black" cx="292.14" cy="-119.495" rx="3.5" ry="3.5"/>
</g>
<!-- 3&#45;&gt;21 -->
<g id="edge8" class="edge"><title>3&#45;&gt;21</title>
<path fill="none" stroke="black" d="M303.459,-47.3977C299.468,-72.8195 294.408,-105.049 292.719,-115.81"/>
</g>
<!-- 25 -->
<g id="node26" class="node"><title>25</title>
<ellipse fill="deepskyblue" stroke="black" cx="273.464" cy="-86.2946" rx="3.5" ry="3.5"/>
</g>
<!-- 3&#45;&gt;25 -->
<g id="edge9" class="edge"><title>3&#45;&gt;25</title>
<path fill="none" stroke="black" d="M293.794,-44.4298C286.428,-59.5988 278.424,-76.0807 275.077,-82.9733"/>
</g>
<!-- 30 -->
<g id="node31" class="node"><title>30</title>
<ellipse fill="deepskyblue" stroke="black" cx="333.911" cy="-57.4614" rx="3.5" ry="3.5"/>
</g>
<!-- 3&#45;&gt;30 -->
<g id="edge10" class="edge"><title>3&#45;&gt;30</title>
<path fill="none" stroke="black" d="M325.677,-43.0999C328.236,-47.5628 330.521,-51.549 332.031,-54.1827"/>
</g>
<!-- 34 -->
<g id="node35" class="node"><title>34</title>
<ellipse fill="#ff3030" stroke="black" cx="350.35" cy="-104.36" rx="3.5" ry="3.5"/>
</g>
<!-- 3&#45;&gt;34 -->
<g id="edge11" class="edge"><title>3&#45;&gt;34</title>
<path fill="none" stroke="black" d="M322.96,-44.5814C332.748,-65.9438 344.712,-92.0555 348.855,-101.096"/>
</g>
<!-- 36 -->
<g id="node37" class="node"><title>36</title>
<ellipse fill="#ff3030" stroke="black" cx="269.536" cy="20.2153" rx="3.5" ry="3.5"/>
</g>
<!-- 3&#45;&gt;36 -->
<g id="edge12" class="edge"><title>3&#45;&gt;36</title>
<path fill="none" stroke="black" d="M282.817,8.76659C278.713,12.304 275.024,15.4843 272.581,17.5899"/>
</g>
<!-- 41 -->
<g id="node42" class="node"><title>41</title>
<ellipse fill="#1874cd" stroke="black" cx="194.87" cy="-22.7764" rx="3.5" ry="3.5"/>
</g>
<!-- 3&#45;&gt;41 -->
<g id="edge13" class="edge"><title>3&#45;&gt;41</title>
<path fill="none" stroke="black" d="M274.593,-16.3541C246.811,-18.5922 210.37,-21.5278 198.664,-22.4708"/>
</g>
<!-- 44 -->
<g id="node45" class="node"><title>44</title>
<ellipse fill="#1874cd" stroke="black" cx="324.022" cy="-122.452" rx="3.5" ry="3.5"/>
</g>
<!-- 3&#45;&gt;44 -->
<g id="edge14" class="edge"><title>3&#45;&gt;44</title>
<path fill="none" stroke="black" d="M313.509,-47.4455C317.218,-73.9068 321.994,-107.98 323.526,-118.911"/>
</g>
<!-- 46 -->
<g id="node47" class="node"><title>46</title>
<ellipse fill="#1874cd" stroke="black" cx="364.673" cy="70.6637" rx="3.5" ry="3.5"/>
</g>
<!-- 3&#45;&gt;46 -->
<g id="edge15" class="edge"><title>3&#45;&gt;46</title>
<path fill="none" stroke="black" d="M327.693,14.927C340.871,34.7894 357.047,59.1703 362.65,67.6149"/>
</g>
<!-- 56 -->
<g id="node57" class="node"><title>56</title>
<ellipse fill="#98f5ff" stroke="black" cx="271.595" cy="-43.5776" rx="3.5" ry="3.5"/>
</g>
<!-- 3&#45;&gt;56 -->
<g id="edge16" class="edge"><title>3&#45;&gt;56</title>
<path fill="none" stroke="black" d="M282.147,-35.0678C279.168,-37.4702 276.53,-39.5977 274.637,-41.1245"/>
</g>
<!-- 59 -->
<g id="node60" class="node"><title>59</title>
<ellipse fill="black" stroke="black" cx="281.551" cy="83.0583" rx="3.5" ry="3.5"/>
</g>
<!-- 3&#45;&gt;59 -->
<g id="edge17" class="edge"><title>3&#45;&gt;59</title>
<path fill="none" stroke="black" d="M299.476,19.3932C293.07,42.1444 285.24,69.9538 282.529,79.5825"/>
</g>
<!-- 4 -->
<g id="node5" class="node"><title>4</title>
<path fill="#ff3030" stroke="black" stroke-width="0.5" d="M-91.8178,-103.111C-91.8178,-103.111 -59.8178,-103.111 -59.8178,-103.111 -59.8178,-104.185 -59.8719,-105.259 -59.9799,-106.328 -60.0878,-107.396 -60.2496,-108.459 -60.4645,-109.512 -60.6794,-110.564 -60.9471,-111.605 -61.2667,-112.631 -61.5863,-113.657 -61.9573,-114.665 -62.3784,-115.654 -62.7995,-116.642 -63.2701,-117.609 -63.7884,-118.55 -64.3067,-119.491 -64.872,-120.405 -65.4823,-121.289 -66.0925,-122.173 -66.7469,-123.026 -67.443,-123.844 -68.139,-124.662 -68.8758,-125.445 -69.6506,-126.189 -69.6506,-126.189 -91.8178,-103.111 -91.8178,-103.111"/>
<path fill="deepskyblue" stroke="black" stroke-width="0.5" d="M-91.8178,-103.111C-91.8178,-103.111 -69.6506,-126.189 -69.6506,-126.189 -70.4447,-126.952 -71.2777,-127.673 -72.1462,-128.35 -73.0147,-129.027 -73.9176,-129.659 -74.8512,-130.243 -75.7849,-130.827 -76.748,-131.362 -77.7368,-131.846 -78.7256,-132.331 -79.7388,-132.764 -80.7723,-133.144 -81.8057,-133.524 -82.8581,-133.851 -83.9253,-134.122 -84.9924,-134.394 -86.0728,-134.61 -87.1622,-134.77 -88.2517,-134.931 -89.3486,-135.034 -90.4488,-135.082 -91.5489,-135.129 -92.6507,-135.119 -93.7499,-135.052 -94.849,-134.986 -95.944,-134.863 -97.0304,-134.683 -98.1169,-134.504 -99.1933,-134.269 -100.255,-133.978 -101.318,-133.688 -102.364,-133.343 -103.391,-132.945 -104.417,-132.547 -105.423,-132.096 -106.403,-131.594 -107.383,-131.092 -108.337,-130.54 -109.26,-129.94 -110.183,-129.339 -111.075,-128.692 -111.931,-128 -112.787,-127.308 -113.608,-126.572 -114.388,-125.795 -115.169,-125.018 -115.909,-124.202 -116.605,-123.349 -117.302,-122.496 -117.953,-121.608 -118.558,-120.688 -119.163,-119.768 -119.72,-118.817 -120.227,-117.839 -120.734,-116.862 -121.19,-115.858 -121.593,-114.834 -121.996,-113.809 -122.347,-112.765 -122.642,-111.704 -122.938,-110.643 -123.179,-109.568 -123.364,-108.482 -123.549,-107.397 -123.677,-106.303 -123.749,-105.204 -123.821,-104.105 -123.837,-103.003 -123.795,-101.903 -123.753,-100.802 -123.655,-99.705 -123.5,-98.6148 -123.346,-97.5246 -123.135,-96.443 -122.869,-95.3746 -122.602,-94.3061 -122.281,-93.2521 -121.906,-92.2167 -121.531,-91.1813 -121.103,-90.166 -120.624,-89.1748 -120.144,-88.1835 -119.614,-87.2177 -119.035,-86.2811 -118.456,-85.3446 -117.828,-84.4386 -117.156,-83.5666 -116.483,-82.6947 -115.766,-81.8581 -115.008,-81.0601 -114.249,-80.2622 -113.449,-79.5039 -112.612,-78.7883 -111.775,-78.0728 -110.902,-77.4009 -109.996,-76.7754 -109.996,-76.7754 -91.8178,-103.111 -91.8178,-103.111"/>
<path fill="#98f5ff" stroke="black" stroke-width="0.5" d="M-91.8178,-103.111C-91.8178,-103.111 -109.996,-76.7754 -109.996,-76.7754 -108.802,-75.9514 -107.554,-75.2095 -106.259,-74.5549 -104.965,-73.9003 -103.627,-73.3344 -102.256,-72.8613 -100.885,-72.3881 -99.4833,-72.0087 -98.0607,-71.7257 -96.638,-71.4427 -95.1978,-71.2568 -93.7499,-71.1692 -92.302,-71.0817 -90.8498,-71.0926 -89.4035,-71.2021 -87.9571,-71.3115 -86.5198,-71.5192 -85.1016,-71.8236 -83.6834,-72.128 -82.2875,-72.5285 -80.9236,-73.0224 -79.5597,-73.5162 -78.231,-74.1022 -76.9466,-74.7763 -75.6623,-75.4504 -74.4252,-76.211 -73.244,-77.0529 -72.0628,-77.8949 -70.9403,-78.8161 -69.8841,-79.8103 -68.8279,-80.8046 -67.8405,-81.8695 -66.9288,-82.9977 -66.0171,-84.1258 -65.1832,-85.3147 -64.4328,-86.556 -63.6824,-87.7974 -63.0172,-89.0883 -62.4419,-90.4199 -61.8667,-91.7514 -61.3826,-93.1206 -60.9931,-94.5178 -60.6036,-95.9151 -60.3095,-97.3372 -60.113,-98.7743 -59.9164,-100.211 -59.8178,-101.66 -59.8178,-103.111 -59.8178,-103.111 -91.8178,-103.111 -91.8178,-103.111"/>
<ellipse fill="none" stroke="black" cx="-91.8178" cy="-103.111" rx="32" ry="32"/>
</g>
<!-- 4&#45;&gt;6 -->
<g id="edge18" class="edge"><title>4&#45;&gt;6</title>
<path fill="none" stroke="black" d="M-64.3922,-86.4325C-48.3843,-76.6977 -28.1775,-64.4093 -11.783,-54.4393"/>
</g>
<!-- 55 -->
<g id="node56" class="node"><title>55</title>
<ellipse fill="#98f5ff" stroke="black" cx="-181.55" cy="-133.396" rx="3.5" ry="3.5"/>
</g>
<!-- 4&#45;&gt;55 -->
<g id="edge19" class="edge"><title>4&#45;&gt;55</title>
<path fill="none" stroke="black" d="M-122.197,-113.364C-143.145,-120.434 -168.812,-129.097 -178.039,-132.211"/>
</g>
<!-- 5 -->
<g id="node6" class="node"><title>5</title>
<ellipse fill="#ff3030" stroke="black" cx="-40.5207" cy="-115.642" rx="18" ry="18"/>
</g>
<!-- 6&#45;&gt;5 -->
<g id="edge20" class="edge"><title>6&#45;&gt;5</title>
<path fill="none" stroke="black" d="M-2.80425,-64.5185C-11.8698,-76.8066 -22.1215,-90.7025 -29.6462,-100.902"/>
</g>
<!-- 7 -->
<g id="node8" class="node"><title>7</title>
<ellipse fill="#ff3030" stroke="black" cx="0.883407" cy="-75.3921" rx="9.5" ry="9.5"/>
</g>
<!-- 6&#45;&gt;7 -->
<g id="edge21" class="edge"><title>6&#45;&gt;7</title>
<path fill="none" stroke="black" d="M4.02079,-68.2282C3.96271,-68.3608 3.9052,-68.4922 3.84828,-68.6221"/>
</g>
<!-- 8 -->
<g id="node9" class="node"><title>8</title>
<ellipse fill="#ff3030" stroke="black" cx="-37.2606" cy="11.7559" rx="6" ry="6"/>
</g>
<!-- 6&#45;&gt;8 -->
<g id="edge22" class="edge"><title>6&#45;&gt;8</title>
<path fill="none" stroke="black" d="M-8.34145,-13.4159C-17.6799,-5.28748 -27.2161,3.01298 -32.6687,7.75906"/>
</g>
<!-- 13 -->
<g id="node14" class="node"><title>13</title>
<ellipse fill="#ff3030" stroke="black" cx="68.1966" cy="47.6082" rx="8" ry="8"/>
</g>
<!-- 6&#45;&gt;13 -->
<g id="edge23" class="edge"><title>6&#45;&gt;13</title>
<path fill="none" stroke="black" d="M35.8315,-6.50288C45.9785,10.4617 57.8571,30.3215 64.0157,40.6181"/>
</g>
<!-- 14 -->
<g id="node15" class="node"><title>14</title>
<path fill="#98f5ff" stroke="black" stroke-width="0.5" d="M6.58957,-152.716C6.58957,-152.716 12.5896,-152.716 12.5896,-152.716 12.5896,-152.978 12.5724,-153.24 12.5382,-153.499 12.5041,-153.759 12.4529,-154.016 12.3851,-154.269 12.3173,-154.522 12.2331,-154.77 12.1328,-155.012 12.0326,-155.254 11.9167,-155.489 11.7857,-155.716 11.6548,-155.943 11.5091,-156.161 11.3497,-156.369 11.1903,-156.576 11.0174,-156.773 10.8322,-156.959 10.647,-157.144 10.4499,-157.317 10.2421,-157.476 10.0344,-157.636 9.81637,-157.781 9.58957,-157.912 9.36276,-158.043 9.12763,-158.159 8.88567,-158.259 8.64371,-158.36 8.39545,-158.444 8.14248,-158.512 7.88951,-158.579 7.63238,-158.631 7.37272,-158.665 7.11307,-158.699 6.85146,-158.716 6.58957,-158.716 6.32767,-158.716 6.06606,-158.699 5.80641,-158.665 5.54676,-158.631 5.28962,-158.579 5.03665,-158.512 4.78368,-158.444 4.53542,-158.36 4.29347,-158.259 4.05151,-158.159 3.81637,-158.043 3.58957,-157.912 3.58957,-157.912 6.58957,-152.716 6.58957,-152.716"/>
<path fill="#ff3030" stroke="black" stroke-width="0.5" d="M6.58957,-152.716C6.58957,-152.716 3.58957,-157.912 3.58957,-157.912 3.36276,-157.781 3.14477,-157.636 2.937,-157.476 2.72922,-157.317 2.53211,-157.144 2.34693,-156.959 2.16174,-156.773 1.98888,-156.576 1.82945,-156.369 1.67002,-156.161 1.52436,-155.943 1.39341,-155.716 1.26247,-155.489 1.14651,-155.254 1.04629,-155.012 0.946068,-154.77 0.861795,-154.522 0.794012,-154.269 0.726229,-154.016 0.675082,-153.759 0.640898,-153.499 0.606714,-153.24 0.589567,-152.978 0.589567,-152.716 0.589567,-152.454 0.606714,-152.193 0.640898,-151.933 0.675082,-151.673 0.72623,-151.416 0.794012,-151.163 0.861795,-150.91 0.946068,-150.662 1.04629,-150.42 1.14651,-150.178 1.26247,-149.943 1.39341,-149.716 1.52436,-149.489 1.67002,-149.271 1.82945,-149.063 1.98888,-148.856 2.16174,-148.659 2.34693,-148.473 2.53211,-148.288 2.72923,-148.115 2.937,-147.956 3.14477,-147.796 3.36276,-147.651 3.58957,-147.52 3.81637,-147.389 4.05151,-147.273 4.29347,-147.173 4.53542,-147.073 4.78368,-146.988 5.03665,-146.92 5.28962,-146.853 5.54676,-146.802 5.80641,-146.767 6.06606,-146.733 6.32767,-146.716 6.58957,-146.716 6.85146,-146.716 7.11307,-146.733 7.37272,-146.767 7.63238,-146.802 7.88951,-146.853 8.14248,-146.92 8.39545,-146.988 8.64371,-147.073 8.88567,-147.173 9.12763,-147.273 9.36276,-147.389 9.58957,-147.52 9.81637,-147.651 10.0344,-147.796 10.2421,-147.956 10.4499,-148.115 10.647,-148.288 10.8322,-148.473 11.0174,-148.659 11.1903,-148.856 11.3497,-149.063 11.5091,-149.271 11.6548,-149.489 11.7857,-149.716 11.9167,-149.943 12.0326,-150.178 12.1328,-150.42 12.2331,-150.662 12.3173,-150.91 12.3851,-151.163 12.4529,-151.416 12.5041,-151.673 12.5382,-151.933 12.5724,-152.193 12.5896,-152.454 12.5896,-152.716 12.5896,-152.716 6.58957,-152.716 6.58957,-152.716"/>
<ellipse fill="none" stroke="black" cx="6.58957" cy="-152.716" rx="6" ry="6"/>
</g>
<!-- 6&#45;&gt;14 -->
<g id="edge24" class="edge"><title>6&#45;&gt;14</title>
<path fill="none" stroke="black" d="M14.5995,-70.9375C11.9743,-97.7392 8.56212,-132.577 7.19489,-146.536"/>
</g>
<!-- 17 -->
<g id="node18" class="node"><title>17</title>
<ellipse fill="#ff3030" stroke="black" cx="61.1919" cy="-57.1962" rx="6" ry="6"/>
</g>
<!-- 6&#45;&gt;17 -->
<g id="edge25" class="edge"><title>6&#45;&gt;17</title>
<path fill="none" stroke="black" d="M49.3865,-51.4956C51.6897,-52.6078 53.8045,-53.629 55.5882,-54.4903"/>
</g>
<!-- 19 -->
<g id="node20" class="node"><title>19</title>
<path fill="#98f5ff" stroke="black" stroke-width="0.5" d="M-37.2826,50.0447C-37.2826,50.0447 -25.7826,50.0447 -25.7826,50.0447 -25.7826,49.4423 -25.8299,48.8408 -25.9242,48.2457 -26.0184,47.6507 -26.1593,47.064 -26.3454,46.491 -26.5316,45.9181 -26.7625,45.3606 -27.036,44.8238 -27.3095,44.287 -27.6248,43.7726 -27.9789,43.2852 -28.333,42.7978 -28.7249,42.339 -29.1509,41.913 -29.5769,41.487 -30.0357,41.0951 -30.5231,40.741 -31.0105,40.3869 -31.5249,40.0717 -32.0617,39.7981 -32.5985,39.5246 -33.1559,39.2937 -33.7289,39.1076 -34.3019,38.9214 -34.8886,38.7806 -35.4836,38.6863 -36.0786,38.5921 -36.6801,38.5447 -37.2826,38.5447 -37.885,38.5447 -38.4866,38.5921 -39.0816,38.6863 -39.6766,38.7806 -40.2633,38.9214 -40.8363,39.1076 -41.4093,39.2937 -41.9667,39.5246 -42.5035,39.7981 -43.0403,40.0717 -43.5547,40.3869 -44.0421,40.741 -44.5295,41.0951 -44.9883,41.487 -45.4143,41.913 -45.8403,42.339 -46.2322,42.7978 -46.5863,43.2852 -46.5863,43.2852 -37.2826,50.0447 -37.2826,50.0447"/>
<path fill="deepskyblue" stroke="black" stroke-width="0.5" d="M-37.2826,50.0447C-37.2826,50.0447 -46.5863,43.2852 -46.5863,43.2852 -46.8518,43.6507 -47.0956,44.0314 -47.3163,44.4256 -47.537,44.8197 -47.7343,45.2265 -47.9072,45.6439 -48.0801,46.0612 -48.2282,46.4884 -48.3508,46.9232 -48.4734,47.3579 -48.5703,47.7996 -48.641,48.2457 -48.7117,48.6919 -48.756,49.1419 -48.7737,49.5932 -48.7915,50.0446 -48.7826,50.4967 -48.7471,50.947 -48.7117,51.3973 -48.6498,51.8452 -48.5616,52.2883 -48.4735,52.7313 -48.3593,53.1688 -48.2197,53.5984 -48.0801,54.028 -47.9154,54.4491 -47.7262,54.8593 -47.5371,55.2696 -47.324,55.6683 -47.088,56.0535 -46.8519,56.4386 -46.5934,56.8096 -46.3137,57.1643 -46.0341,57.5191 -45.7337,57.857 -45.4143,58.1765 -45.0949,58.4959 -44.7569,58.7962 -44.4022,59.0759 -44.0474,59.3555 -43.6765,59.6141 -43.2913,59.8501 -42.9062,60.0861 -42.5074,60.2992 -42.0972,60.4884 -41.6869,60.6775 -41.2659,60.8423 -40.8363,60.9819 -40.4067,61.1215 -39.9692,61.2356 -39.5261,61.3238 -39.0831,61.4119 -38.6352,61.4738 -38.1849,61.5093 -37.7345,61.5447 -37.2825,61.5536 -36.8311,61.5359 -36.3797,61.5181 -35.9298,61.4738 -35.4836,61.4031 -35.0374,61.3325 -34.5958,61.2356 -34.161,61.113 -33.7263,60.9903 -33.2991,60.8422 -32.8817,60.6693 -32.4644,60.4965 -32.0576,60.2992 -31.6634,60.0784 -31.2693,59.8577 -30.8885,59.6139 -30.5231,59.3484 -30.1576,59.0829 -29.8081,58.7961 -29.4764,58.4894 -29.1447,58.1828 -28.8313,57.8569 -28.5379,57.5134 -28.2445,57.1699 -27.9717,56.8094 -27.7207,56.4338 -27.4697,56.0582 -27.2411,55.6681 -27.036,55.2656 -26.8309,54.8631 -26.6497,54.4489 -26.4934,54.0251 -26.337,53.6013 -26.2058,53.1686 -26.1003,52.7293 -25.9949,52.2901 -25.9154,51.845 -25.8623,51.3964 -25.8092,50.9478 -25.7826,50.4965 -25.7826,50.0447 -25.7826,50.0447 -37.2826,50.0447 -37.2826,50.0447"/>
<ellipse fill="none" stroke="black" cx="-37.2826" cy="50.0447" rx="11.5" ry="11.5"/>
</g>
<!-- 6&#45;&gt;19 -->
<g id="edge26" class="edge"><title>6&#45;&gt;19</title>
<path fill="none" stroke="black" d="M-0.72361,-7.09021C-11.2463,9.35488 -23.7026,28.8217 -31.0229,40.262"/>
</g>
<!-- 26 -->
<g id="node27" class="node"><title>26</title>
<ellipse fill="deepskyblue" stroke="black" cx="58.1175" cy="-20.9059" rx="5" ry="5"/>
</g>
<!-- 6&#45;&gt;26 -->
<g id="edge27" class="edge"><title>6&#45;&gt;26</title>
<path fill="none" stroke="black" d="M50.3803,-23.8806C51.3784,-23.4968 52.3101,-23.1386 53.1567,-22.8132"/>
</g>
<!-- 31 -->
<g id="node32" class="node"><title>31</title>
<path fill="#98f5ff" stroke="black" stroke-width="0.5" d="M-91.5181,0.564843C-91.5181,0.564843 -79.0181,0.564843 -79.0181,0.564843 -79.0181,-0.117306 -79.074,-0.798312 -79.1851,-1.47135 -79.2962,-2.14439 -79.4622,-2.8072 -79.6815,-3.45315 -79.9008,-4.0991 -80.1726,-4.72601 -80.4941,-5.32762 -80.8157,-5.92922 -81.1859,-6.50349 -81.6012,-7.04467 -82.0165,-7.58586 -82.4754,-8.09215 -82.9732,-8.55846 -83.4711,-9.02477 -84.0063,-9.44954 -84.5735,-9.82853 -85.1407,-10.2075 -85.7379,-10.5394 -86.3593,-10.821 -86.9806,-11.1025 -87.624,-11.3327 -88.2829,-11.5092 -88.9418,-11.6858 -89.6141,-11.8081 -90.2929,-11.875 -90.9718,-11.9418 -91.655,-11.953 -92.3357,-11.9084 -93.0164,-11.8638 -93.6923,-11.7635 -94.3566,-11.6086 -95.0209,-11.4537 -95.6715,-11.2447 -96.3017,-10.9837 -96.9319,-10.7226 -97.5397,-10.4104 -98.119,-10.0502 -98.6983,-9.68996 -99.2471,-9.28293 -99.76,-8.83315 -100.273,-8.38338 -100.748,-7.89238 -101.181,-7.36507 -101.614,-6.83776 -102.002,-6.27592 -102.343,-5.68516 -102.343,-5.68516 -91.5181,0.564843 -91.5181,0.564843"/>
<path fill="deepskyblue" stroke="black" stroke-width="0.5" d="M-91.5181,0.564843C-91.5181,0.564843 -102.343,-5.68516 -102.343,-5.68516 -102.582,-5.27174 -102.797,-4.845 -102.987,-4.40701 -103.177,-3.96903 -103.341,-3.52053 -103.48,-3.06372 -103.618,-2.6069 -103.731,-2.14253 -103.816,-1.67287 -103.902,-1.20321 -103.96,-0.729043 -103.991,-0.252697 -104.023,0.22365 -104.026,0.701395 -104.003,1.17819 -103.98,1.65498 -103.929,2.13004 -103.851,2.60104 -103.773,3.07203 -103.669,3.53818 -103.538,3.9972 -103.407,4.45622 -103.249,4.90735 -103.067,5.34839 -102.884,5.78942 -102.676,6.21962 -102.444,6.63689 -102.212,7.05415 -101.957,7.45779 -101.679,7.84581 -101.401,8.23384 -101.101,8.60562 -100.78,8.95933 -100.459,9.31304 -100.119,9.64809 -99.76,9.96284 -99.4011,10.2776 -99.0244,10.5715 -98.6319,10.8432 -98.2394,11.1149 -97.8316,11.3638 -97.4106,11.5889 -96.9896,11.8139 -96.556,12.0146 -96.1121,12.1901 -95.6681,12.3655 -95.2145,12.5154 -94.7534,12.6389 -94.2923,12.7625 -93.8245,12.8595 -93.3523,12.9295 -92.8801,12.9996 -92.4042,13.0425 -91.9271,13.0582 -91.45,13.0738 -90.9724,13.062 -90.4966,13.023 -90.0208,12.984 -89.5477,12.9178 -89.0795,12.8247 -88.6113,12.7315 -88.1488,12.6117 -87.6943,12.4656 -87.2399,12.3196 -86.7941,12.1477 -86.3593,11.9506 -85.9245,11.7536 -85.5013,11.5319 -85.0918,11.2865 -84.6824,11.041 -84.2873,10.7724 -83.9086,10.4818 -83.5299,10.1912 -83.1681,9.8791 -82.8251,9.54711 -82.4821,9.21513 -82.1583,8.86377 -81.8555,8.49476 -81.5527,8.12575 -81.2712,7.73969 -81.0125,7.33849 -80.7538,6.93728 -80.5184,6.52159 -80.3072,6.09345 -80.0961,5.66531 -79.9097,5.22543 -79.7488,4.77597 -79.588,4.3265 -79.4531,3.8682 -79.3447,3.4033 -79.2363,2.9384 -79.1546,2.46767 -79.1,1.99343 -79.0455,1.51919 -79.0181,1.04221 -79.0181,0.564843 -79.0181,0.564843 -91.5181,0.564843 -91.5181,0.564843"/>
<ellipse fill="none" stroke="black" cx="-91.5181" cy="0.564843" rx="12.5" ry="12.5"/>
</g>
<!-- 6&#45;&gt;31 -->
<g id="edge28" class="edge"><title>6&#45;&gt;31</title>
<path fill="none" stroke="black" d="M-14.8669,-25.2632C-36.6649,-17.9183 -64.0066,-8.70532 -79.4447,-3.50337"/>
</g>
<!-- 48 -->
<g id="node49" class="node"><title>48</title>
<ellipse fill="brown" stroke="black" cx="-70.7986" cy="-54.9401" rx="6" ry="6"/>
</g>
<!-- 6&#45;&gt;48 -->
<g id="edge29" class="edge"><title>6&#45;&gt;48</title>
<path fill="none" stroke="black" d="M-15.8312,-43.4214C-34.0616,-47.2417 -54.8178,-51.5913 -64.8059,-53.6843"/>
</g>
<!-- 50 -->
<g id="node51" class="node"><title>50</title>
<ellipse fill="brown" stroke="black" cx="134.688" cy="-28.128" rx="8" ry="8"/>
</g>
<!-- 6&#45;&gt;50 -->
<g id="edge30" class="edge"><title>6&#45;&gt;50</title>
<path fill="none" stroke="black" d="M52.6863,-33.8943C78.2174,-32.099 111.021,-29.7923 126.238,-28.7222"/>
</g>
<!-- 57 -->
<g id="node58" class="node"><title>57</title>
<ellipse fill="black" stroke="black" cx="-94.1403" cy="46.4244" rx="6" ry="6"/>
</g>
<!-- 8&#45;&gt;57 -->
<g id="edge31" class="edge"><title>8&#45;&gt;57</title>
<path fill="none" stroke="black" d="M-42.5098,14.9553C-53.2906,21.5263 -77.8281,36.482 -88.7379,43.1316"/>
</g>
<!-- 9 -->
<g id="node10" class="node"><title>9</title>
<ellipse fill="deepskyblue" stroke="black" cx="-57.7325" cy="-247.26" rx="3.5" ry="3.5"/>
</g>
<!-- 11 -->
<g id="node12" class="node"><title>11</title>
<ellipse fill="deepskyblue" stroke="black" cx="-109.887" cy="-80.8395" rx="3.5" ry="3.5"/>
</g>
<!-- 12 -->
<g id="node13" class="node"><title>12</title>
<ellipse fill="deepskyblue" stroke="black" cx="28.1009" cy="-266.273" rx="3.5" ry="3.5"/>
</g>
<!-- 15 -->
<g id="node16" class="node"><title>15</title>
<path fill="#98f5ff" stroke="black" stroke-width="0.5" d="M-6.07118,-217.27C-6.07118,-217.27 11.9288,-217.27 11.9288,-217.27 11.9288,-217.93 11.8925,-218.589 11.8201,-219.245 11.7477,-219.901 11.6393,-220.552 11.4953,-221.197 11.3514,-221.841 11.1721,-222.476 10.9584,-223.1 10.7446,-223.725 10.4967,-224.337 10.2157,-224.934 9.93474,-225.531 9.62114,-226.112 9.27635,-226.675 8.93155,-227.238 8.55607,-227.781 8.15161,-228.302 7.74716,-228.824 7.31433,-229.322 6.8551,-229.796 6.39586,-230.27 5.91092,-230.719 5.40245,-231.139 4.89399,-231.56 4.36278,-231.952 3.81123,-232.314 3.25968,-232.677 2.68863,-233.008 2.10065,-233.308 1.51268,-233.608 0.90867,-233.875 0.29137,-234.108 -0.32593,-234.341 -0.95559,-234.54 -1.59476,-234.704 -2.23393,-234.869 -2.88164,-234.997 -3.53495,-235.09 -4.18827,-235.183 -4.84621,-235.24 -5.50578,-235.261 -6.16536,-235.282 -6.82557,-235.266 -7.48344,-235.214 -8.14131,-235.163 -8.79583,-235.075 -9.44404,-234.951 -9.44404,-234.951 -6.07118,-217.27 -6.07118,-217.27"/>
<path fill="deepskyblue" stroke="black" stroke-width="0.5" d="M-6.07118,-217.27C-6.07118,-217.27 -9.44404,-234.951 -9.44404,-234.951 -10.2776,-234.792 -11.0989,-234.574 -11.9017,-234.299 -12.7045,-234.025 -13.4869,-233.693 -14.243,-233.308 -14.9991,-232.923 -15.727,-232.485 -16.4213,-231.997 -17.1155,-231.509 -17.7744,-230.972 -18.393,-230.391 -19.0116,-229.81 -19.5884,-229.187 -20.1189,-228.524 -20.6495,-227.862 -21.1326,-227.163 -21.5645,-226.433 -21.9965,-225.702 -22.3763,-224.942 -22.701,-224.158 -23.0257,-223.374 -23.2946,-222.568 -23.5057,-221.746 -23.7167,-220.924 -23.8694,-220.089 -23.9625,-219.245 -24.0556,-218.402 -24.0889,-217.553 -24.0623,-216.705 -24.0356,-215.856 -23.949,-215.011 -23.8031,-214.175 -23.6572,-213.339 -23.4524,-212.515 -23.1902,-211.708 -22.928,-210.901 -22.609,-210.113 -22.2357,-209.351 -21.8623,-208.589 -21.4356,-207.854 -20.9586,-207.152 -20.4817,-206.451 -19.9556,-205.783 -19.3845,-205.156 -18.8134,-204.528 -18.1987,-203.942 -17.5448,-203.401 -16.891,-202.86 -16.1997,-202.366 -15.4762,-201.922 -14.7526,-201.479 -13.9986,-201.087 -13.2198,-200.75 -12.441,-200.413 -11.6394,-200.132 -10.8209,-199.908 -10.0024,-199.684 -9.16907,-199.518 -8.32718,-199.412 -7.48528,-199.306 -6.63692,-199.259 -5.78845,-199.272 -4.93997,-199.285 -4.09349,-199.359 -3.25536,-199.492 -2.41722,-199.624 -1.58952,-199.816 -0.778451,-200.066 0.0326187,-200.315 0.825029,-200.622 1.59285,-200.983 2.36067,-201.344 3.10198,-201.76 3.81123,-202.225 4.52049,-202.691 5.19591,-203.207 5.83244,-203.768 6.46897,-204.329 7.06502,-204.935 7.61613,-205.58 8.16724,-206.225 8.67203,-206.909 9.12673,-207.625 9.58142,-208.342 9.98488,-209.089 10.3341,-209.863 10.6833,-210.636 10.9774,-211.433 11.2141,-212.248 11.4509,-213.063 11.6297,-213.894 11.7492,-214.734 11.8688,-215.574 11.9288,-216.421 11.9288,-217.27 11.9288,-217.27 -6.07118,-217.27 -6.07118,-217.27"/>
<ellipse fill="none" stroke="black" cx="-6.07118" cy="-217.27" rx="18" ry="18"/>
</g>
<!-- 15&#45;&gt;9 -->
<g id="edge32" class="edge"><title>15&#45;&gt;9</title>
<path fill="none" stroke="black" d="M-21.852,-226.431C-33.4838,-233.183 -48.3369,-241.805 -54.6603,-245.476"/>
</g>
<!-- 15&#45;&gt;12 -->
<g id="edge33" class="edge"><title>15&#45;&gt;12</title>
<path fill="none" stroke="black" d="M4.36725,-232.239C12.0613,-243.272 21.8861,-257.361 26.0688,-263.359"/>
</g>
<!-- 15&#45;&gt;14 -->
<g id="edge34" class="edge"><title>15&#45;&gt;14</title>
<path fill="none" stroke="black" d="M-2.54445,-199.288C0.118868,-185.708 3.61191,-167.898 5.40878,-158.737"/>
</g>
<!-- anon_15_23_0 -->
<g id="node61" class="node"><title>anon_15_23_0</title>
<ellipse fill="white" stroke="black" cx="-25.9228" cy="-288.383" rx="2.5" ry="2.5"/>
</g>
<!-- 15&#45;&gt;anon_15_23_0 -->
<g id="edge35" class="edge"><title>15&#45;&gt;anon_15_23_0</title>
<path fill="none" stroke="black" d="M-10.9783,-234.849C-15.8466,-252.288 -22.9006,-277.557 -25.1816,-285.728"/>
</g>
<!-- 16 -->
<g id="node17" class="node"><title>16</title>
<ellipse fill="#ff3030" stroke="black" cx="273.002" cy="51.5525" rx="3.5" ry="3.5"/>
</g>
<!-- 16&#45;&gt;3 -->
<g id="edge38" class="edge"><title>16&#45;&gt;3</title>
<path fill="none" stroke="black" d="M274.727,48.41C277.964,42.5127 285.256,29.2275 292.264,16.4606"/>
</g>
<!-- 18 -->
<g id="node19" class="node"><title>18</title>
<ellipse fill="deepskyblue" stroke="black" cx="375.65" cy="19.2172" rx="3.5" ry="3.5"/>
</g>
<!-- 18&#45;&gt;3 -->
<g id="edge39" class="edge"><title>18&#45;&gt;3</title>
<path fill="none" stroke="black" d="M372.424,17.6343C366.37,14.6638 352.732,7.97196 339.626,1.54116"/>
</g>
<!-- 20 -->
<g id="node21" class="node"><title>20</title>
<ellipse fill="deepskyblue" stroke="black" cx="-242.27" cy="39.9394" rx="3.5" ry="3.5"/>
</g>
<!-- 23 -->
<g id="node24" class="node"><title>23</title>
<ellipse fill="deepskyblue" stroke="black" cx="-57.9859" cy="-370.209" rx="3.5" ry="3.5"/>
</g>
<!-- 27 -->
<g id="node28" class="node"><title>27</title>
<ellipse fill="#ff3030" stroke="black" cx="87.0814" cy="-200.347" rx="5" ry="5"/>
</g>
<!-- anon_27_6_0 -->
<g id="node63" class="node"><title>anon_27_6_0</title>
<ellipse fill="white" stroke="black" cx="74.0109" cy="-150.058" rx="2.5" ry="2.5"/>
</g>
<!-- 27&#45;&gt;anon_27_6_0 -->
<g id="edge40" class="edge"><title>27&#45;&gt;anon_27_6_0</title>
<path fill="none" stroke="black" d="M85.7804,-195.341C83.0426,-184.807 76.7678,-160.665 74.6918,-152.677"/>
</g>
<!-- 28 -->
<g id="node29" class="node"><title>28</title>
<ellipse fill="#ff3030" stroke="black" cx="82.8963" cy="94.7141" rx="3.5" ry="3.5"/>
</g>
<!-- 28&#45;&gt;13 -->
<g id="edge43" class="edge"><title>28&#45;&gt;13</title>
<path fill="none" stroke="black" d="M81.8391,91.3263C79.5219,83.9007 73.9426,66.0216 70.6819,55.5724"/>
</g>
<!-- 29 -->
<g id="node30" class="node"><title>29</title>
<ellipse fill="deepskyblue" stroke="black" cx="331.46" cy="56.5946" rx="3.5" ry="3.5"/>
</g>
<!-- 29&#45;&gt;3 -->
<g id="edge44" class="edge"><title>29&#45;&gt;3</title>
<path fill="none" stroke="black" d="M330.365,53.2089C328.311,46.8553 323.683,32.542 319.236,18.7871"/>
</g>
<!-- anon_31_20_0 -->
<g id="node65" class="node"><title>anon_31_20_0</title>
<ellipse fill="white" stroke="black" cx="-155.923" cy="16.3713" rx="2.5" ry="2.5"/>
</g>
<!-- 31&#45;&gt;anon_31_20_0 -->
<g id="edge45" class="edge"><title>31&#45;&gt;anon_31_20_0</title>
<path fill="none" stroke="black" d="M-103.936,3.6125C-119.435,7.41623 -144.916,13.6699 -153.217,15.7073"/>
</g>
<!-- 32 -->
<g id="node33" class="node"><title>32</title>
<ellipse fill="#ff3030" stroke="black" cx="-116.397" cy="-43.3249" rx="3.5" ry="3.5"/>
</g>
<!-- 33 -->
<g id="node34" class="node"><title>33</title>
<ellipse fill="deepskyblue" stroke="black" cx="-74.2972" cy="87.777" rx="3.5" ry="3.5"/>
</g>
<!-- 33&#45;&gt;19 -->
<g id="edge48" class="edge"><title>33&#45;&gt;19</title>
<path fill="none" stroke="black" d="M-71.3927,84.8162C-65.8709,79.1873 -53.6782,66.7582 -45.4686,58.3895"/>
</g>
<!-- 35 -->
<g id="node36" class="node"><title>35</title>
<ellipse fill="#ff3030" stroke="black" cx="328.274" cy="126.372" rx="3.5" ry="3.5"/>
</g>
<!-- anon_35_3_0 -->
<g id="node67" class="node"><title>anon_35_3_0</title>
<ellipse fill="white" stroke="black" cx="311.949" cy="66.4588" rx="2.5" ry="2.5"/>
</g>
<!-- 35&#45;&gt;anon_35_3_0 -->
<g id="edge49" class="edge"><title>35&#45;&gt;anon_35_3_0</title>
<path fill="none" stroke="black" d="M327.301,122.803C324.309,111.82 315.28,78.6839 312.666,69.0886"/>
</g>
<!-- 37 -->
<g id="node38" class="node"><title>37</title>
<ellipse fill="#ff3030" stroke="black" cx="28.7047" cy="205.073" rx="3.5" ry="3.5"/>
</g>
<!-- anon_37_2_0 -->
<g id="node68" class="node"><title>anon_37_2_0</title>
<ellipse fill="white" stroke="black" cx="28.1925" cy="152.276" rx="2.5" ry="2.5"/>
</g>
<!-- 37&#45;&gt;anon_37_2_0 -->
<g id="edge51" class="edge"><title>37&#45;&gt;anon_37_2_0</title>
<path fill="none" stroke="black" d="M28.6679,201.276C28.5706,191.25 28.3084,164.226 28.2212,155.232"/>
</g>
<!-- 38 -->
<g id="node39" class="node"><title>38</title>
<ellipse fill="#ff3030" stroke="black" cx="-60.025" cy="-172.392" rx="3.5" ry="3.5"/>
</g>
<!-- 38&#45;&gt;5 -->
<g id="edge53" class="edge"><title>38&#45;&gt;5</title>
<path fill="none" stroke="black" d="M-58.8633,-169.012C-56.4686,-162.045 -50.8393,-145.665 -46.4438,-132.876"/>
</g>
<!-- 39 -->
<g id="node40" class="node"><title>39</title>
<ellipse fill="#ff3030" stroke="black" cx="-92.5954" cy="-147.309" rx="3.5" ry="3.5"/>
</g>
<!-- 39&#45;&gt;5 -->
<g id="edge54" class="edge"><title>39&#45;&gt;5</title>
<path fill="none" stroke="black" d="M-89.4938,-145.423C-83.1002,-141.535 -68.0705,-132.395 -56.3348,-125.259"/>
</g>
<!-- 40 -->
<g id="node41" class="node"><title>40</title>
<ellipse fill="deepskyblue" stroke="black" cx="406.076" cy="-111.954" rx="3.5" ry="3.5"/>
</g>
<!-- anon_40_3_0 -->
<g id="node69" class="node"><title>anon_40_3_0</title>
<ellipse fill="white" stroke="black" cx="364.459" cy="-70.0939" rx="2.5" ry="2.5"/>
</g>
<!-- 40&#45;&gt;anon_40_3_0 -->
<g id="edge55" class="edge"><title>40&#45;&gt;anon_40_3_0</title>
<path fill="none" stroke="black" d="M403.346,-109.207C395.534,-101.35 373.22,-78.9064 366.438,-72.0847"/>
</g>
<!-- 41&#45;&gt;50 -->
<g id="edge57" class="edge"><title>41&#45;&gt;50</title>
<path fill="none" stroke="black" d="M191.286,-23.0951C181.872,-23.9322 156.26,-26.2097 142.957,-27.3927"/>
</g>
<!-- 42 -->
<g id="node43" class="node"><title>42</title>
<ellipse fill="#1874cd" stroke="black" cx="393.509" cy="110.014" rx="3.5" ry="3.5"/>
</g>
<!-- 42&#45;&gt;46 -->
<g id="edge58" class="edge"><title>42&#45;&gt;46</title>
<path fill="none" stroke="black" d="M391.435,107.184C386.166,99.9938 372.3,81.0723 366.885,73.6821"/>
</g>
<!-- 43 -->
<g id="node44" class="node"><title>43</title>
<ellipse fill="#1874cd" stroke="black" cx="306.103" cy="-87.4503" rx="3.5" ry="3.5"/>
</g>
<!-- 43&#45;&gt;3 -->
<g id="edge59" class="edge"><title>43&#45;&gt;3</title>
<path fill="none" stroke="black" d="M306.232,-83.8884C306.473,-77.2041 307.015,-62.1459 307.537,-47.6751"/>
</g>
<!-- 45 -->
<g id="node46" class="node"><title>45</title>
<ellipse fill="#1874cd" stroke="black" cx="438.214" cy="-10.6737" rx="3.5" ry="3.5"/>
</g>
<!-- anon_45_3_0 -->
<g id="node70" class="node"><title>anon_45_3_0</title>
<ellipse fill="white" stroke="black" cx="385.287" cy="-12.1204" rx="2.5" ry="2.5"/>
</g>
<!-- 45&#45;&gt;anon_45_3_0 -->
<g id="edge60" class="edge"><title>45&#45;&gt;anon_45_3_0</title>
<path fill="none" stroke="black" d="M434.407,-10.7777C424.357,-11.0524 397.266,-11.793 388.251,-12.0394"/>
</g>
<!-- 47 -->
<g id="node48" class="node"><title>47</title>
<ellipse fill="brown" stroke="black" cx="33.1238" cy="-104.271" rx="3.5" ry="3.5"/>
</g>
<!-- 47&#45;&gt;6 -->
<g id="edge62" class="edge"><title>47&#45;&gt;6</title>
<path fill="none" stroke="black" d="M32.31,-100.618C30.9961,-94.72 28.2786,-82.5221 25.5604,-70.321"/>
</g>
<!-- 48&#45;&gt;11 -->
<g id="edge63" class="edge"><title>48&#45;&gt;11</title>
<path fill="none" stroke="black" d="M-75.9087,-58.326C-84.1862,-63.8107 -100.269,-74.4667 -106.909,-78.8663"/>
</g>
<!-- 48&#45;&gt;32 -->
<g id="edge64" class="edge"><title>48&#45;&gt;32</title>
<path fill="none" stroke="black" d="M-76.7597,-53.4216C-86.4159,-50.9619 -105.177,-46.183 -112.922,-44.2099"/>
</g>
<!-- 49 -->
<g id="node50" class="node"><title>49</title>
<ellipse fill="brown" stroke="black" cx="54.2013" cy="80.7141" rx="3.5" ry="3.5"/>
</g>
<!-- anon_49_6_0 -->
<g id="node71" class="node"><title>anon_49_6_0</title>
<ellipse fill="white" stroke="black" cx="45.5066" cy="29.7317" rx="2.5" ry="2.5"/>
</g>
<!-- 49&#45;&gt;anon_49_6_0 -->
<g id="edge65" class="edge"><title>49&#45;&gt;anon_49_6_0</title>
<path fill="none" stroke="black" d="M53.576,77.0475C51.9251,67.3669 47.4746,41.2711 45.9935,32.5866"/>
</g>
<!-- 51 -->
<g id="node52" class="node"><title>51</title>
<ellipse fill="brown" stroke="black" cx="-48.4178" cy="-24.4378" rx="3.5" ry="3.5"/>
</g>
<!-- 51&#45;&gt;6 -->
<g id="edge67" class="edge"><title>51&#45;&gt;6</title>
<path fill="none" stroke="black" d="M-44.8475,-25.0774C-39.2439,-26.0812 -27.8228,-28.1272 -16.2358,-30.203"/>
</g>
<!-- 52 -->
<g id="node53" class="node"><title>52</title>
<ellipse fill="brown" stroke="black" cx="144.09" cy="18.2828" rx="3.5" ry="3.5"/>
</g>
<!-- 52&#45;&gt;50 -->
<g id="edge68" class="edge"><title>52&#45;&gt;50</title>
<path fill="none" stroke="black" d="M143.352,14.641C141.846,7.2046 138.384,-9.88118 136.321,-20.0638"/>
</g>
<!-- 53 -->
<g id="node54" class="node"><title>53</title>
<ellipse fill="brown" stroke="black" cx="146.537" cy="-74.1781" rx="3.5" ry="3.5"/>
</g>
<!-- 53&#45;&gt;50 -->
<g id="edge69" class="edge"><title>53&#45;&gt;50</title>
<path fill="none" stroke="black" d="M145.608,-70.5647C143.709,-63.1861 139.347,-46.2331 136.747,-36.1296"/>
</g>
<!-- 54 -->
<g id="node55" class="node"><title>54</title>
<ellipse fill="brown" stroke="black" cx="10.6626" cy="32.8787" rx="3.5" ry="3.5"/>
</g>
<!-- 54&#45;&gt;6 -->
<g id="edge70" class="edge"><title>54&#45;&gt;6</title>
<path fill="none" stroke="black" d="M11.0565,29.1575C11.6925,23.1487 13.0079,10.7216 14.3237,-1.70872"/>
</g>
<!-- anon_15_23_1 -->
<g id="node62" class="node"><title>anon_15_23_1</title>
<ellipse fill="white" stroke="black" cx="-42.4257" cy="-330.784" rx="2.5" ry="2.5"/>
</g>
<!-- anon_15_23_0&#45;&gt;anon_15_23_1 -->
<g id="edge36" class="edge"><title>anon_15_23_0&#45;&gt;anon_15_23_1</title>
<path fill="none" stroke="black" d="M-26.9057,-290.909C-29.8479,-298.468 -38.5606,-320.853 -41.4686,-328.325"/>
</g>
<!-- anon_15_23_1&#45;&gt;23 -->
<g id="edge37" class="edge"><title>anon_15_23_1&#45;&gt;23</title>
<path fill="none" stroke="black" d="M-43.4467,-333.371C-46.1512,-340.223 -53.5039,-358.853 -56.5914,-366.676"/>
</g>
<!-- anon_27_6_1 -->
<g id="node64" class="node"><title>anon_27_6_1</title>
<ellipse fill="white" stroke="black" cx="58.657" cy="-100.173" rx="2.5" ry="2.5"/>
</g>
<!-- anon_27_6_0&#45;&gt;anon_27_6_1 -->
<g id="edge41" class="edge"><title>anon_27_6_0&#45;&gt;anon_27_6_1</title>
<path fill="none" stroke="black" d="M73.2703,-147.652C70.6825,-139.244 62.0582,-111.224 59.4263,-102.673"/>
</g>
<!-- anon_27_6_1&#45;&gt;6 -->
<g id="edge42" class="edge"><title>anon_27_6_1&#45;&gt;6</title>
<path fill="none" stroke="black" d="M57.3039,-98.0493C53.9962,-92.8569 45.1508,-78.9719 36.6862,-65.6846"/>
</g>
<!-- anon_31_20_1 -->
<g id="node66" class="node"><title>anon_31_20_1</title>
<ellipse fill="white" stroke="black" cx="-201.343" cy="28.3418" rx="2.5" ry="2.5"/>
</g>
<!-- anon_31_20_0&#45;&gt;anon_31_20_1 -->
<g id="edge46" class="edge"><title>anon_31_20_0&#45;&gt;anon_31_20_1</title>
<path fill="none" stroke="black" d="M-158.365,17.0149C-166.177,19.074 -190.524,25.4906 -198.663,27.6355"/>
</g>
<!-- anon_31_20_1&#45;&gt;20 -->
<g id="edge47" class="edge"><title>anon_31_20_1&#45;&gt;20</title>
<path fill="none" stroke="black" d="M-204.028,29.1028C-211.142,31.1185 -230.482,36.5988 -238.602,38.9"/>
</g>
<!-- anon_35_3_0&#45;&gt;3 -->
<g id="edge50" class="edge"><title>anon_35_3_0&#45;&gt;3</title>
<path fill="none" stroke="black" d="M311.843,63.7951C311.571,56.9578 310.822,38.1018 310.13,20.7144"/>
</g>
<!-- anon_37_2_0&#45;&gt;2 -->
<g id="edge52" class="edge"><title>anon_37_2_0&#45;&gt;2</title>
<path fill="none" stroke="black" d="M27.9827,149.63C27.4465,142.866 25.9955,124.56 24.9631,111.536"/>
</g>
<!-- anon_40_3_0&#45;&gt;3 -->
<g id="edge56" class="edge"><title>anon_40_3_0&#45;&gt;3</title>
<path fill="none" stroke="black" d="M362.606,-68.2143C357.849,-63.3897 344.732,-50.0844 332.637,-37.8153"/>
</g>
<!-- anon_45_3_0&#45;&gt;3 -->
<g id="edge61" class="edge"><title>anon_45_3_0&#45;&gt;3</title>
<path fill="none" stroke="black" d="M382.741,-12.1697C376.413,-12.2921 359.316,-12.623 343.151,-12.9358"/>
</g>
<!-- anon_49_6_0&#45;&gt;6 -->
<g id="edge66" class="edge"><title>anon_49_6_0&#45;&gt;6</title>
<path fill="none" stroke="black" d="M44.4615,27.2226C42.2231,21.8486 36.7287,8.65737 31.322,-4.32326"/>
</g>
</g>
</svg>
