<?xml version="1.0" encoding="UTF-8" standalone="no"?>
<!DOCTYPE svg PUBLIC "-//W3C//DTD SVG 1.1//EN"
 "http://www.w3.org/Graphics/SVG/1.1/DTD/svg11.dtd">
<!-- Generated by graphviz version 2.38.0 (20140413.2041)
 -->
<!-- Title: %3 Pages: 1 -->
<svg width="287pt" height="243pt"
 viewBox="0.00 0.00 286.64 243.25" xmlns="http://www.w3.org/2000/svg" xmlns:xlink="http://www.w3.org/1999/xlink">
<g id="graph0" class="graph" transform="scale(1 1) rotate(0) translate(112.529 129.133)">
<title>%3</title>
<polygon fill="white" stroke="none" points="-112.529,114.114 -112.529,-129.133 174.108,-129.133 174.108,114.114 -112.529,114.114"/>
<!-- 0 -->
<g id="node1" class="node"><title>0</title>
<path fill="olivedrab" stroke="black" stroke-width="0.5" d="M129.957,-84.6997C129.957,-84.6997 141.957,-84.6997 141.957,-84.6997 141.957,-85.1282 141.934,-85.5564 141.888,-85.9825 141.843,-86.4085 141.774,-86.8318 141.683,-87.2505 141.592,-87.6692 141.478,-88.0827 141.343,-88.4893 141.208,-88.8959 141.051,-89.2949 140.873,-89.6847 140.695,-90.0745 140.496,-90.4544 140.277,-90.823 140.059,-91.1915 139.82,-91.548 139.564,-91.891 139.307,-92.2341 139.032,-92.5631 138.74,-92.8767 138.448,-93.1903 138.139,-93.4881 137.815,-93.7687 137.492,-94.0493 137.153,-94.3124 136.801,-94.5568 136.449,-94.8011 136.084,-95.0265 135.708,-95.2319 135.332,-95.4372 134.945,-95.6223 134.549,-95.7863 134.153,-95.9502 133.749,-96.0929 133.338,-96.2136 132.927,-96.3344 132.509,-96.433 132.088,-96.509 131.666,-96.5851 131.241,-96.6386 130.813,-96.6691 130.386,-96.6997 129.957,-96.7074 129.529,-96.6921 129.101,-96.6768 128.673,-96.6386 128.249,-96.5776 128.249,-96.5776 129.957,-84.6997 129.957,-84.6997"/>
<path fill="#1874cd" stroke="black" stroke-width="0.5" d="M129.957,-84.6997C129.957,-84.6997 128.249,-96.5776 128.249,-96.5776 127.684,-96.4962 127.125,-96.3746 126.576,-96.2136 126.028,-96.0526 125.492,-95.8527 124.972,-95.6153 124.452,-95.3779 123.95,-95.1037 123.469,-94.7948 122.989,-94.4858 122.531,-94.1429 122.099,-93.7687 121.667,-93.3945 121.262,-92.9899 120.888,-92.558 120.514,-92.1262 120.171,-91.6681 119.862,-91.1874 119.553,-90.7067 119.279,-90.2045 119.041,-89.6847 118.804,-89.1649 118.604,-88.6288 118.443,-88.0805 118.282,-87.5322 118.161,-86.9731 118.079,-86.4075 117.998,-85.8419 117.957,-85.2712 117.957,-84.6997 117.957,-84.1283 117.998,-83.5576 118.079,-82.9919 118.161,-82.4263 118.282,-81.8672 118.443,-81.3189 118.604,-80.7706 118.804,-80.2345 119.041,-79.7147 119.279,-79.1949 119.553,-78.6928 119.862,-78.212 120.171,-77.7313 120.514,-77.2733 120.888,-76.8414 121.262,-76.4095 121.667,-76.0049 122.099,-75.6307 122.531,-75.2565 122.989,-74.9136 123.469,-74.6047 123.95,-74.2957 124.452,-74.0215 124.972,-73.7841 125.492,-73.5467 126.028,-73.3468 126.576,-73.1858 127.125,-73.0248 127.684,-72.9032 128.249,-72.8219 128.815,-72.7405 129.386,-72.6997 129.957,-72.6997 130.529,-72.6997 131.099,-72.7405 131.665,-72.8219 132.23,-72.9032 132.79,-73.0248 133.338,-73.1858 133.886,-73.3468 134.422,-73.5467 134.942,-73.7841 135.462,-74.0215 135.964,-74.2957 136.445,-74.6047 136.925,-74.9136 137.384,-75.2565 137.815,-75.6307 138.247,-76.0049 138.652,-76.4095 139.026,-76.8414 139.4,-77.2733 139.743,-77.7313 140.052,-78.212 140.361,-78.6928 140.635,-79.1949 140.873,-79.7147 141.11,-80.2345 141.31,-80.7706 141.471,-81.3189 141.632,-81.8672 141.754,-82.4263 141.835,-82.9919 141.916,-83.5576 141.957,-84.1283 141.957,-84.6997 141.957,-84.6997 129.957,-84.6997 129.957,-84.6997"/>
<ellipse fill="none" stroke="black" cx="129.957" cy="-84.6997" rx="12" ry="12"/>
</g>
<!-- 1 -->
<g id="node2" class="node"><title>1</title>
<path fill="olivedrab" stroke="black" stroke-width="0.5" d="M67.6723,-26.3842C67.6723,-26.3842 81.6723,-26.3842 81.6723,-26.3842 81.6723,-26.873 81.6467,-27.3615 81.5956,-27.8476 81.5446,-28.3337 81.468,-28.8168 81.3664,-29.295 81.2648,-29.7731 81.1382,-30.2456 80.9871,-30.7104 80.8361,-31.1753 80.6608,-31.632 80.462,-32.0785 80.2632,-32.5251 80.0411,-32.9609 79.7967,-33.3842 79.5523,-33.8075 79.2859,-34.2177 78.9986,-34.6132 78.7113,-35.0086 78.4034,-35.3888 78.0764,-35.752 77.7493,-36.1153 77.4034,-36.4611 77.0402,-36.7882 76.6769,-37.1153 76.2968,-37.4231 75.9013,-37.7104 75.5059,-37.9977 75.0957,-38.2641 74.6723,-38.5085 74.249,-38.753 73.8132,-38.975 73.3667,-39.1738 72.9201,-39.3726 72.4635,-39.5479 71.9986,-39.699 71.5337,-39.85 71.0612,-39.9766 70.5831,-40.0783 70.105,-40.1799 69.6219,-40.2564 69.1357,-40.3075 68.6496,-40.3586 68.1611,-40.3842 67.6723,-40.3842 67.1835,-40.3842 66.6951,-40.3586 66.2089,-40.3075 65.7228,-40.2564 65.2397,-40.1799 64.7616,-40.0783 64.2835,-39.9766 63.811,-39.85 63.3461,-39.699 62.8812,-39.5479 62.4246,-39.3726 61.978,-39.1738 61.5315,-38.975 61.0957,-38.753 60.6723,-38.5085 60.249,-38.2641 59.8388,-37.9977 59.4433,-37.7104 59.0479,-37.4231 58.6678,-37.1153 58.3045,-36.7882 57.9413,-36.4611 57.5954,-36.1153 57.2683,-35.752 56.9412,-35.3888 56.6334,-35.0086 56.3461,-34.6132 56.0588,-34.2177 55.7924,-33.8075 55.548,-33.3842 55.3036,-32.9609 55.0815,-32.525 54.8827,-32.0785 54.6839,-31.632 54.5086,-31.1753 54.3575,-30.7104 54.2065,-30.2455 54.0799,-29.7731 53.9783,-29.295 53.8766,-28.8168 53.8001,-28.3337 53.749,-27.8476 53.6979,-27.3615 53.6723,-26.873 53.6723,-26.3842 53.6723,-25.8954 53.6979,-25.4069 53.749,-24.9208 53.8001,-24.4347 53.8766,-23.9516 53.9783,-23.4734 53.9783,-23.4734 67.6723,-26.3842 67.6723,-26.3842"/>
<path fill="#1874cd" stroke="black" stroke-width="0.5" d="M67.6723,-26.3842C67.6723,-26.3842 53.9783,-23.4734 53.9783,-23.4734 54.1562,-22.6363 54.4105,-21.8173 54.738,-21.0266 55.0655,-20.236 55.4648,-19.477 55.931,-18.7592 56.3971,-18.0415 56.928,-17.368 57.5171,-16.7472 58.1062,-16.1264 58.751,-15.561 59.4433,-15.058 60.1357,-14.5549 60.8727,-14.1164 61.6452,-13.748 62.4176,-13.3796 63.2222,-13.0827 64.0489,-12.8612 64.8755,-12.6397 65.7207,-12.4945 66.5739,-12.4274 67.4271,-12.3602 68.2846,-12.3714 69.1357,-12.4609 69.9869,-12.5503 70.828,-12.7177 71.6486,-12.9607 72.4691,-13.2038 73.2657,-13.5216 74.0282,-13.9101 74.7907,-14.2986 75.516,-14.7563 76.195,-15.2772 76.874,-15.7982 77.5037,-16.3804 78.0764,-17.0164 78.649,-17.6524 79.1621,-18.3395 79.6093,-19.0692 80.0565,-19.7989 80.4358,-20.5681 80.7425,-21.367 81.0492,-22.166 81.2819,-22.9914 81.4379,-23.8329 81.5939,-24.6744 81.6723,-25.5284 81.6723,-26.3842 81.6723,-26.3842 67.6723,-26.3842 67.6723,-26.3842"/>
<ellipse fill="none" stroke="black" cx="67.6723" cy="-26.3842" rx="14" ry="14"/>
</g>
<!-- 0&#45;&gt;1 -->
<g id="edge1" class="edge"><title>0&#45;&gt;1</title>
<path fill="none" stroke="black" d="M121.033,-76.3445C109.731,-65.7626 90.2824,-47.5534 78.2469,-36.2849"/>
</g>
<!-- 5 -->
<g id="node6" class="node"><title>5</title>
<ellipse fill="olivedrab" stroke="black" cx="127.228" cy="-27.4915" rx="3.5" ry="3.5"/>
</g>
<!-- 1&#45;&gt;5 -->
<g id="edge2" class="edge"><title>1&#45;&gt;5</title>
<path fill="none" stroke="black" d="M81.7863,-26.6466C95.5452,-26.9024 115.541,-27.2742 123.631,-27.4246"/>
</g>
<!-- 6 -->
<g id="node7" class="node"><title>6</title>
<ellipse fill="olivedrab" stroke="black" cx="12.706" cy="2.04904" rx="3.5" ry="3.5"/>
</g>
<!-- 1&#45;&gt;6 -->
<g id="edge3" class="edge"><title>1&#45;&gt;6</title>
<path fill="none" stroke="black" d="M55.1996,-19.9323C42.5298,-13.3783 23.7205,-3.6486 16.0977,0.294548"/>
</g>
<!-- 9 -->
<g id="node10" class="node"><title>9</title>
<ellipse fill="olivedrab" stroke="black" cx="74.1356" cy="-83.4588" rx="3.5" ry="3.5"/>
</g>
<!-- 1&#45;&gt;9 -->
<g id="edge4" class="edge"><title>1&#45;&gt;9</title>
<path fill="none" stroke="black" d="M69.27,-40.4925C70.7354,-53.4327 72.809,-71.7443 73.7006,-79.617"/>
</g>
<!-- 2 -->
<g id="node3" class="node"><title>2</title>
<ellipse fill="#1874cd" stroke="black" cx="19.1134" cy="-59.9163" rx="6" ry="6"/>
</g>
<!-- 2&#45;&gt;1 -->
<g id="edge5" class="edge"><title>2&#45;&gt;1</title>
<path fill="none" stroke="black" d="M24.31,-56.3278C31.8457,-51.124 46.0069,-41.3451 56.0952,-34.3787"/>
</g>
<!-- anon_2_4_0 -->
<g id="node11" class="node"><title>anon_2_4_0</title>
<ellipse fill="white" stroke="black" cx="-25.9599" cy="-87.3457" rx="2.5" ry="2.5"/>
</g>
<!-- 2&#45;&gt;anon_2_4_0 -->
<g id="edge6" class="edge"><title>2&#45;&gt;anon_2_4_0</title>
<path fill="none" stroke="black" d="M13.9429,-63.0628C4.13849,-69.0293 -16.7924,-81.7668 -23.6977,-85.969"/>
</g>
<!-- 3 -->
<g id="node4" class="node"><title>3</title>
<ellipse fill="#1874cd" stroke="black" cx="126.869" cy="106.614" rx="3.5" ry="3.5"/>
</g>
<!-- anon_3_1_0 -->
<g id="node13" class="node"><title>anon_3_1_0</title>
<ellipse fill="white" stroke="black" cx="117.243" cy="63.8773" rx="2.5" ry="2.5"/>
</g>
<!-- 3&#45;&gt;anon_3_1_0 -->
<g id="edge9" class="edge"><title>3&#45;&gt;anon_3_1_0</title>
<path fill="none" stroke="black" d="M126.049,102.97C124.157,94.5729 119.526,74.0138 117.856,66.5994"/>
</g>
<!-- 4 -->
<g id="node5" class="node"><title>4</title>
<ellipse fill="#1874cd" stroke="black" cx="-105.029" cy="-116.37" rx="3.5" ry="3.5"/>
</g>
<!-- 7 -->
<g id="node8" class="node"><title>7</title>
<ellipse fill="olivedrab" stroke="black" cx="45.3408" cy="22.9919" rx="3.5" ry="3.5"/>
</g>
<!-- 7&#45;&gt;1 -->
<g id="edge12" class="edge"><title>7&#45;&gt;1</title>
<path fill="none" stroke="black" d="M46.806,19.7522C49.7947,13.1441 56.7386,-2.20932 61.7977,-13.3951"/>
</g>
<!-- 8 -->
<g id="node9" class="node"><title>8</title>
<ellipse fill="olivedrab" stroke="black" cx="166.608" cy="-121.633" rx="3.5" ry="3.5"/>
</g>
<!-- 8&#45;&gt;0 -->
<g id="edge13" class="edge"><title>8&#45;&gt;0</title>
<path fill="none" stroke="black" d="M163.732,-118.735C158.4,-113.362 146.784,-101.656 138.672,-93.4818"/>
</g>
<!-- anon_2_4_1 -->
<g id="node12" class="node"><title>anon_2_4_1</title>
<ellipse fill="white" stroke="black" cx="-64.1519" cy="-106.208" rx="2.5" ry="2.5"/>
</g>
<!-- anon_2_4_0&#45;&gt;anon_2_4_1 -->
<g id="edge7" class="edge"><title>anon_2_4_0&#45;&gt;anon_2_4_1</title>
<path fill="none" stroke="black" d="M-28.4658,-88.5833C-35.3694,-91.9928 -54.6131,-101.497 -61.5868,-104.941"/>
</g>
<!-- anon_2_4_1&#45;&gt;4 -->
<g id="edge8" class="edge"><title>anon_2_4_1&#45;&gt;4</title>
<path fill="none" stroke="black" d="M-66.834,-106.875C-73.9387,-108.641 -93.2547,-113.443 -101.365,-115.46"/>
</g>
<!-- anon_3_1_1 -->
<g id="node14" class="node"><title>anon_3_1_1</title>
<ellipse fill="white" stroke="black" cx="96.6621" cy="20.1553" rx="2.5" ry="2.5"/>
</g>
<!-- anon_3_1_0&#45;&gt;anon_3_1_1 -->
<g id="edge10" class="edge"><title>anon_3_1_0&#45;&gt;anon_3_1_1</title>
<path fill="none" stroke="black" d="M116.136,61.5266C112.596,54.006 101.564,30.5693 97.8765,22.7351"/>
</g>
<!-- anon_3_1_1&#45;&gt;1 -->
<g id="edge11" class="edge"><title>anon_3_1_1&#45;&gt;1</title>
<path fill="none" stroke="black" d="M95.2639,17.9106C91.6899,12.1729 82.0174,-3.35508 75.1356,-14.4029"/>
</g>
</g>
</svg>
