<?xml version="1.0" encoding="UTF-8" standalone="no"?>
<!-- Generated by graphviz version 2.38.0 (20140413.2041)
 -->

<!-- Title: %3 Pages: 1 -->

<svg
   xmlns:dc="http://purl.org/dc/elements/1.1/"
   xmlns:cc="http://creativecommons.org/ns#"
   xmlns:rdf="http://www.w3.org/1999/02/22-rdf-syntax-ns#"
   xmlns:svg="http://www.w3.org/2000/svg"
   xmlns="http://www.w3.org/2000/svg"
   xmlns:sodipodi="http://sodipodi.sourceforge.net/DTD/sodipodi-0.dtd"
   xmlns:inkscape="http://www.inkscape.org/namespaces/inkscape"
   width="548pt"
   height="765pt"
   viewBox="0.00 0.00 547.66 765.20"
   id="svg2"
   version="1.1"
   inkscape:version="0.48.4 r9939"
   sodipodi:docname="995F_cluster_16_standalone.svg">
  <metadata
     id="metadata858">
    <rdf:RDF>
      <cc:Work
         rdf:about="">
        <dc:format>image/svg+xml</dc:format>
        <dc:type
           rdf:resource="http://purl.org/dc/dcmitype/StillImage" />
      </cc:Work>
    </rdf:RDF>
  </metadata>
  <defs
     id="defs856" />
  <sodipodi:namedview
     pagecolor="#ffffff"
     bordercolor="#666666"
     borderopacity="1"
     objecttolerance="10"
     gridtolerance="10"
     guidetolerance="10"
     inkscape:pageopacity="0"
     inkscape:pageshadow="2"
     inkscape:window-width="1855"
     inkscape:window-height="1176"
     id="namedview854"
     showgrid="false"
     inkscape:zoom="1.1575153"
     inkscape:cx="459.72803"
     inkscape:cy="570.61169"
     inkscape:window-x="1985"
     inkscape:window-y="24"
     inkscape:window-maximized="1"
     inkscape:current-layer="graph0" />
  <g
     id="graph0"
     class="graph"
     transform="scale(1 1) rotate(0) translate(310.312 397.809)">
    <title
       id="title5">%3</title>
    <polygon
       points="-310.312,-397.809 237.353,-397.809 237.353,367.386 -310.312,367.386 -310.312,367.386 "
       id="polygon7"
       transform="translate(-0.2997038,-0.2997038)"
       style="fill:#ffffff;stroke:none" />
    <!-- 0 -->
    <g
       id="node1"
       class="node">
      <title
         id="title10">0</title>
      <path
         fill="deepskyblue"
         stroke="black"
         stroke-width="0.5"
         d="M127.592,29.398C127.592,29.398 153.092,29.398 153.092,29.398 153.092,28.0956 152.992,26.7951 152.793,25.5079 152.595,24.2207 152.298,22.9506 151.905,21.7088 151.512,20.467 151.025,19.2571 150.447,18.0897 149.87,16.9224 149.204,15.801 148.455,14.7354 147.706,13.6698 146.876,12.6631 145.974,11.7243 145.071,10.7854 144.098,9.91709 143.062,9.12693 142.027,8.33676 140.933,7.62708 139.789,7.00412 138.645,6.38115 137.455,5.84673 136.23,5.40555 135.004,4.96436 133.747,4.61771 132.468,4.36864 131.19,4.11956 129.894,3.9688 128.593,3.91767 127.292,3.86653 125.988,3.91518 124.694,4.06319 123.4,4.21119 122.119,4.45811 120.863,4.80179 119.607,5.14547 118.379,5.58489 117.19,6.11619 116,6.6475 114.854,7.26913 113.76,7.97562 112.665,8.68211 111.627,9.4714 110.653,10.3365 109.68,11.2017 108.774,12.1402 107.944,13.1437 107.114,14.1472 106.361,15.2129 105.694,16.3314 105.027,17.4498 104.446,18.6177 103.957,19.8249 103.468,21.0321 103.072,22.2749 102.773,23.5426 102.474,24.8102 102.273,26.0989 102.17,27.3973 102.068,28.6957 102.066,30.0001 102.163,31.2989 102.26,32.5977 102.456,33.8871 102.75,35.1559 103.045,36.4247 103.435,37.6691 103.92,38.8782 104.404,40.0873 104.98,41.2575 105.643,42.3786 106.306,43.4996 107.054,44.5682 107.88,45.575 108.706,46.5818 109.609,47.5238 110.579,48.3928 111.549,49.2618 112.584,50.0551 113.676,50.7659 114.767,51.4767 115.911,52.1028 117.098,52.6388 118.285,53.1748 119.512,53.619 120.767,53.9676 122.021,54.3162 123.301,54.5682 124.595,54.7213 125.888,54.8743 127.191,54.9281 128.493,54.8821 129.795,54.8361 131.091,54.6904 132.37,54.4463 132.37,54.4463 127.592,29.398 127.592,29.398"
         id="path12" />
      <path
         fill="#98f5ff"
         stroke="black"
         stroke-width="0.5"
         d="M127.592,29.398C127.592,29.398 132.37,54.4463 132.37,54.4463 133.092,54.3087 133.807,54.14 134.514,53.9406 135.22,53.7413 135.918,53.5114 136.605,53.2518 137.292,52.9922 137.968,52.703 138.63,52.3851 139.292,52.0672 139.94,51.7208 140.572,51.3469 141.205,50.9731 141.82,50.572 142.418,50.145 143.015,49.718 143.594,49.2654 144.153,48.7884 144.711,48.3114 145.249,47.8105 145.764,47.2871 146.279,46.7637 146.772,46.2182 147.24,45.6523 147.708,45.0864 148.152,44.5005 148.569,43.8963 148.987,43.2921 149.378,42.6702 149.742,42.0322 150.106,41.3942 150.442,40.7408 150.749,40.0738 151.057,39.4068 151.336,38.7269 151.584,38.0358 151.833,37.3448 152.052,36.6433 152.24,35.9334 152.428,35.2235 152.586,34.5057 152.712,33.7822 152.838,33.0587 152.933,32.33 152.997,31.5983 153.06,30.8666 153.092,30.1325 153.092,29.398 153.092,29.398 127.592,29.398 127.592,29.398"
         id="path14" />
      <ellipse
         fill="none"
         stroke="black"
         cx="127.592"
         cy="29.398"
         rx="25.5"
         ry="25.5"
         id="ellipse16" />
    </g>
    <!-- 22 -->
    <g
       id="node23"
       class="node">
      <title
         id="title19">22</title>
      <ellipse
         fill="deepskyblue"
         stroke="black"
         cx="221.447"
         cy="36.6797"
         rx="3.5"
         ry="3.5"
         id="ellipse21" />
    </g>
    <!-- 0&#45;&gt;22 -->
    <g
       id="edge2"
       class="edge">
      <title
         id="title24">0-&gt;22</title>
      <path
         fill="none"
         stroke="black"
         d="M153.238,31.3878C176.033,33.1563 207.328,35.5844 217.839,36.3998"
         id="path26" />
    </g>
    <!-- 24 -->
    <g
       id="node25"
       class="node"
       transform="translate(6.7150418,17.34719)">
      <title
         id="title29">24</title>
      <ellipse
         cx="216.468"
         cy="-8.0134201"
         rx="3.5"
         ry="3.5"
         id="ellipse31"
         d="m 219.968,-8.0134201 c 0,1.9329966 -1.567,3.5 -3.5,3.5 -1.93299,0 -3.5,-1.5670034 -3.5,-3.5 0,-1.9329966 1.56701,-3.4999999 3.5,-3.4999999 1.933,0 3.5,1.5670033 3.5,3.4999999 z"
         sodipodi:cx="216.468"
         sodipodi:cy="-8.0134201"
         sodipodi:rx="3.5"
         sodipodi:ry="3.5"
         style="fill:#00bfff;stroke:#000000" />
    </g>
    <!-- 0&#45;&gt;24 -->
    <g
       id="edge3"
       class="edge">
      <title
         id="title34">0-&gt;24</title>
      <path
         d="m 151.62174,21.53986 c 20.24013,-3.265536 47.32792,-7.635493 61.00422,-9.842324"
         id="path36"
         inkscape:connector-curvature="0"
         style="fill:none;stroke:#000000;stroke-width:1" />
      <polygon
         points="213.013,-6.55904 209.084,-3.00622 207.726,-6.23208 207.726,-6.23208 "
         id="polygon38"
         transform="matrix(0.98114577,0.19326919,-0.19326919,0.98114577,7.8273072,-24.304442)"
         style="fill:#000000;stroke:#000000"
         inkscape:transform-center-x="8.8444128"
         inkscape:transform-center-y="-14.243041" />
      <text
         x="215.48259"
         y="27.640535"
         font-size="16.00"
         id="text40"
         style="font-size:16px;text-anchor:middle;font-family:monospace">P55L</text>
    </g>
    <!-- 58 -->
    <g
       id="node59"
       class="node">
      <title
         id="title43">58</title>
      <ellipse
         fill="black"
         stroke="black"
         cx="208.427"
         cy="81.3143"
         rx="3.5"
         ry="3.5"
         id="ellipse45" />
    </g>
    <!-- 0&#45;&gt;58 -->
    <g
       id="edge4"
       class="edge">
      <title
         id="title48">0-&gt;58</title>
      <path
         fill="none"
         stroke="black"
         d="M149.254,43.3106C168.709,55.8054 195.613,73.0845 205.018,79.1249"
         id="path50" />
    </g>
    <!-- 1 -->
    <g
       id="node2"
       class="node">
      <title
         id="title53">1</title>
      <ellipse
         fill="deepskyblue"
         stroke="black"
         cx="0.125176"
         cy="-292.134"
         rx="3.5"
         ry="3.5"
         id="ellipse55" />
    </g>
    <!-- 3 -->
    <g
       id="node4"
       class="node">
      <title
         id="title58">3</title>
      <path
         fill="deepskyblue"
         stroke="black"
         stroke-width="0.5"
         d="M-42.1699,-262.833C-42.1699,-262.833 -8.1699,-262.833 -8.1699,-262.833 -8.1699,-264.218 -8.25453,-265.602 -8.42333,-266.976 -8.59212,-268.351 -8.84477,-269.714 -9.17984,-271.058 -9.51492,-272.402 -9.9318,-273.724 -10.4282,-275.017 -10.9245,-276.311 -11.4994,-277.572 -12.1497,-278.795 -12.7999,-280.018 -13.5243,-281.2 -14.3187,-282.335 -15.1132,-283.469 -15.9762,-284.554 -16.903,-285.583 -17.8298,-286.613 -18.8186,-287.584 -19.8639,-288.493 -20.9092,-289.402 -22.0091,-290.246 -23.1573,-291.02 -24.3056,-291.795 -25.5001,-292.498 -26.7342,-293.127 -27.9683,-293.756 -29.2397,-294.309 -30.5412,-294.782 -31.8427,-295.256 -33.172,-295.65 -34.5216,-295.962 -35.8711,-296.273 -37.2385,-296.502 -38.6159,-296.647 -39.9934,-296.791 -41.3784,-296.852 -42.7633,-296.828 -44.1481,-296.804 -45.5302,-296.695 -46.9018,-296.502 -48.2734,-296.309 -49.6319,-296.033 -50.9697,-295.674 -52.3076,-295.316 -53.6223,-294.876 -54.9065,-294.357 -54.9065,-294.357 -42.1699,-262.833 -42.1699,-262.833"
         id="path60" />
      <path
         fill="#98f5ff"
         stroke="black"
         stroke-width="0.5"
         d="M-42.1699,-262.833C-42.1699,-262.833 -54.9065,-294.357 -54.9065,-294.357 -55.8237,-293.987 -56.7242,-293.576 -57.6056,-293.127 -58.4869,-292.678 -59.3483,-292.191 -60.1872,-291.667 -61.026,-291.142 -61.8416,-290.582 -62.6316,-289.987 -63.4216,-289.391 -64.1852,-288.762 -64.9203,-288.1 -64.9203,-288.1 -42.1699,-262.833 -42.1699,-262.833"
         id="path62" />
      <path
         fill="#ff3030"
         stroke="black"
         stroke-width="0.5"
         d="M-42.1699,-262.833C-42.1699,-262.833 -64.9203,-288.1 -64.9203,-288.1 -66.06,-287.074 -67.1289,-285.972 -68.1198,-284.801 -69.1107,-283.631 -70.0212,-282.395 -70.8452,-281.101 -71.6692,-279.808 -72.4047,-278.46 -73.0468,-277.067 -73.6888,-275.675 -74.2359,-274.24 -74.6843,-272.774 -75.1326,-271.307 -75.4813,-269.812 -75.7278,-268.298 -75.9743,-266.785 -76.1181,-265.256 -76.1582,-263.723 -76.1984,-262.19 -76.1348,-260.656 -75.9678,-259.131 -75.8009,-257.607 -75.531,-256.096 -75.16,-254.608 -74.7889,-253.12 -74.3177,-251.658 -73.7494,-250.234 -73.1811,-248.81 -72.5172,-247.425 -71.762,-246.091 -71.0068,-244.756 -70.1622,-243.474 -69.234,-242.253 -68.3057,-241.032 -67.2959,-239.876 -66.2115,-238.791 -65.1271,-237.707 -63.9706,-236.697 -62.7499,-235.769 -61.5292,-234.841 -60.247,-233.996 -58.9123,-233.241 -57.5775,-232.486 -56.1932,-231.822 -54.7688,-231.253 -53.3445,-230.685 -51.8832,-230.214 -50.3952,-229.843 -50.3952,-229.843 -42.1699,-262.833 -42.1699,-262.833"
         id="path64" />
      <path
         fill="#1874cd"
         stroke="black"
         stroke-width="0.5"
         d="M-42.1699,-262.833C-42.1699,-262.833 -50.3952,-229.843 -50.3952,-229.843 -49.1474,-229.532 -47.8829,-229.292 -46.6078,-229.124 -45.3327,-228.956 -44.0492,-228.861 -42.7633,-228.838 -41.4774,-228.816 -40.1913,-228.866 -38.9111,-228.989 -37.631,-229.113 -36.3589,-229.309 -35.1009,-229.576 -33.8429,-229.843 -32.6011,-230.182 -31.3815,-230.59 -30.1619,-230.998 -28.9664,-231.475 -27.8009,-232.018 -26.6353,-232.562 -25.5015,-233.171 -24.4049,-233.843 -23.3084,-234.515 -22.2508,-235.249 -21.2374,-236.041 -20.224,-236.832 -19.2563,-237.681 -18.339,-238.582 -17.4217,-239.484 -16.5563,-240.437 -15.7469,-241.436 -14.9376,-242.436 -14.1856,-243.48 -13.4946,-244.565 -12.8036,-245.649 -12.1747,-246.772 -11.6109,-247.928 -11.0471,-249.084 -10.5494,-250.271 -10.1201,-251.484 -9.69079,-252.696 -9.33062,-253.931 -9.04132,-255.185 -8.75201,-256.438 -8.53404,-257.706 -8.38845,-258.984 -8.24287,-260.262 -8.1699,-261.547 -8.1699,-262.833 -8.1699,-262.833 -42.1699,-262.833 -42.1699,-262.833"
         id="path66" />
      <ellipse
         fill="none"
         stroke="black"
         cx="-42.1699"
         cy="-262.833"
         rx="34"
         ry="34"
         id="ellipse68" />
    </g>
    <!-- 1&#45;&gt;3 -->
    <g
       id="edge5"
       class="edge">
      <title
         id="title71">1-&gt;3</title>
      <path
         fill="none"
         stroke="black"
         d="M-2.91658,-290.027C-5.49258,-288.242 -9.46966,-285.487 -13.9217,-282.403"
         id="path73" />
    </g>
    <!-- 2 -->
    <g
       id="node3"
       class="node">
      <title
         id="title76">2</title>
      <ellipse
         cx="78.4716"
         cy="85.8627"
         rx="14"
         ry="14"
         id="ellipse78"
         stroke="black"
         fill="#ff3030"
         d="m 92.471603,85.862701 c 0,7.731987 -6.268013,14 -14,14 -7.731986,0 -14,-6.268013 -14,-14 0,-7.731986 6.268014,-14 14,-14 7.731987,0 14,6.268014 14,14 z" />
    </g>
    <!-- anon_37_2_0 -->
    <g
       id="node68"
       class="node">
      <title
         id="title81">anon_37_2_0</title>
      <ellipse
         fill="white"
         stroke="black"
         cx="137.408"
         cy="133.876"
         rx="2.5"
         ry="2.5"
         id="ellipse83" />
    </g>
    <!-- 2&#45;&gt;anon_37_2_0 -->
    <g
       id="edge52"
       class="edge"
       transform="translate(0,0.39713912)">
      <title
         id="title86">2-&gt;anon_37_2_0</title>
      <path
         d="M 89.5571,94.8936 C 101.936,104.978 121.522,120.934 131.354,128.944"
         id="path88"
         inkscape:connector-curvature="0"
         style="fill:none;stroke:#000000" />
      <polygon
         points="135.323,132.178 130.342,130.376 132.552,127.663 132.552,127.663 "
         id="polygon90"
         style="fill:#000000;stroke:#000000" />
      <text
         x="150.97832"
         y="121.87557"
         font-size="16.00"
         id="text92"
         style="font-size:16px;text-anchor:middle;font-family:monospace">P1874S</text>
    </g>
    <!-- 10 -->
    <g
       id="node11"
       class="node">
      <title
         id="title95">10</title>
      <ellipse
         fill="#ff3030"
         stroke="black"
         cx="67.415"
         cy="-284.612"
         rx="3.5"
         ry="3.5"
         id="ellipse97" />
    </g>
    <!-- 3&#45;&gt;10 -->
    <g
       id="edge7"
       class="edge">
      <title
         id="title100">3-&gt;10</title>
      <path
         fill="none"
         stroke="black"
         d="M-8.69537,-269.486C17.9925,-274.79 52.6744,-281.682 63.8079,-283.895"
         id="path102" />
    </g>
    <!-- 16 -->
    <g
       id="node17"
       class="node">
      <title
         id="title105">16</title>
      <ellipse
         fill="#ff3030"
         stroke="black"
         cx="-133.032"
         cy="-229.992"
         rx="3.5"
         ry="3.5"
         id="ellipse107" />
    </g>
    <!-- 3&#45;&gt;16 -->
    <g
       id="edge38"
       class="edge">
      <title
         id="title110">3-&gt;16</title>
      <path
         d="M-74.2043,-251.255C-92.2944,-244.716 -113.497,-237.053 -124.856,-232.947"
         id="path112"
         stroke="black"
         fill="none" />
      <polygon
         points="-124.288,-231.292 -129.585,-231.238 -125.478,-234.583 -124.288,-231.292"
         id="polygon114"
         stroke="black"
         fill="black" />
      <text
         x="-140.7645"
         y="-238.93375"
         font-size="16.00"
         id="text116"
         style="font-size:16px;text-anchor:middle;font-family:monospace">M704V</text>
    </g>
    <!-- 21 -->
    <g
       id="node22"
       class="node">
      <title
         id="title119">21</title>
      <ellipse
         fill="deepskyblue"
         stroke="black"
         cx="-73.3268"
         cy="-305.902"
         rx="3.5"
         ry="3.5"
         id="ellipse121" />
    </g>
    <!-- 3&#45;&gt;21 -->
    <g
       id="edge8"
       class="edge">
      <title
         id="title124">3-&gt;21</title>
      <path
         fill="none"
         stroke="black"
         d="M-62.4296,-290.839C-65.963,-295.723 -69.1422,-300.118 -71.1421,-302.882"
         id="path126" />
    </g>
    <!-- 25 -->
    <g
       id="node26"
       class="node">
      <title
         id="title129">25</title>
      <ellipse
         fill="deepskyblue"
         stroke="black"
         cx="-77.0035"
         cy="-227.4"
         rx="3.5"
         ry="3.5"
         id="ellipse131" />
    </g>
    <!-- 3&#45;&gt;25 -->
    <g
       id="edge9"
       class="edge">
      <title
         id="title134">3-&gt;25</title>
      <path
         fill="none"
         stroke="black"
         d="M-66.363,-238.224C-69.5208,-235.012 -72.3264,-232.158 -74.2629,-230.188"
         id="path136" />
    </g>
    <!-- 29 -->
    <g
       id="node30"
       class="node"
       transform="translate(14.166755,7.6094055)">
      <title
         id="title139">29</title>
      <ellipse
         cx="-16.228399"
         cy="-228.18201"
         rx="3.5"
         ry="3.5"
         id="ellipse141"
         d="m -12.728399,-228.18201 c 0,1.933 -1.567004,3.5 -3.5,3.5 -1.932997,0 -3.5,-1.567 -3.5,-3.5 0,-1.93299 1.567003,-3.5 3.5,-3.5 1.932996,0 3.5,1.56701 3.5,3.5 z"
         sodipodi:cx="-16.228399"
         sodipodi:cy="-228.18201"
         sodipodi:rx="3.5"
         sodipodi:ry="3.5"
         style="fill:#00bfff;stroke:#000000" />
    </g>
    <!-- 3&#45;&gt;29 -->
    <g
       id="edge44"
       class="edge">
      <title
         id="title144">3-&gt;29</title>
      <path
         fill="none"
         stroke="black"
         d="M-21.7299,-235.531C-21.6483,-235.422 -21.5673,-235.313 -21.4869,-235.206"
         id="path146" />
      <text
         x="11.857537"
         y="-202.86542"
         font-size="16.00"
         id="text150"
         style="font-size:16px;text-anchor:middle;font-family:monospace">V1303A</text>
    </g>
    <!-- 30 -->
    <g
       id="node31"
       class="node">
      <title
         id="title153">30</title>
      <ellipse
         fill="deepskyblue"
         stroke="black"
         cx="24.8285"
         cy="-236.109"
         rx="3.5"
         ry="3.5"
         id="ellipse155" />
    </g>
    <!-- 3&#45;&gt;30 -->
    <g
       id="edge10"
       class="edge">
      <title
         id="title158">3-&gt;30</title>
      <path
         fill="none"
         stroke="black"
         d="M-10.2404,-250.097C2.43204,-245.042 15.4047,-239.868 21.4024,-237.475"
         id="path160" />
    </g>
    <!-- 34 -->
    <g
       id="node35"
       class="node">
      <title
         id="title163">34</title>
      <ellipse
         fill="#ff3030"
         stroke="black"
         cx="26.6194"
         cy="-331.401"
         rx="3.5"
         ry="3.5"
         id="ellipse165" />
    </g>
    <!-- 3&#45;&gt;34 -->
    <g
       id="edge11"
       class="edge">
      <title
         id="title168">3-&gt;34</title>
      <path
         fill="none"
         stroke="black"
         d="M-17.7237,-287.201C-1.96784,-302.906 16.8354,-321.649 23.8242,-328.615"
         id="path170" />
    </g>
    <!-- 36 -->
    <g
       id="node37"
       class="node">
      <title
         id="title173">36</title>
      <ellipse
         fill="#ff3030"
         stroke="black"
         cx="-107.027"
         cy="-221.906"
         rx="3.5"
         ry="3.5"
         id="ellipse175" />
    </g>
    <!-- 3&#45;&gt;36 -->
    <g
       id="edge12"
       class="edge">
      <title
         id="title178">3-&gt;36</title>
      <path
         fill="none"
         stroke="black"
         d="M-71.1837,-244.524C-84.135,-236.351 -97.821,-227.715 -103.855,-223.907"
         id="path180" />
    </g>
    <!-- 41 -->
    <g
       id="node42"
       class="node">
      <title
         id="title183">41</title>
      <ellipse
         fill="#1874cd"
         stroke="black"
         cx="-21.6111"
         cy="-147.55"
         rx="3.5"
         ry="3.5"
         id="ellipse185" />
    </g>
    <!-- 3&#45;&gt;41 -->
    <g
       id="edge13"
       class="edge">
      <title
         id="title188">3-&gt;41</title>
      <path
         fill="none"
         stroke="black"
         d="M-36.1682,-229.178C-31.0955,-200.734 -24.3314,-162.804 -22.2484,-151.123"
         id="path190" />
    </g>
    <!-- 44 -->
    <g
       id="node45"
       class="node">
      <title
         id="title193">44</title>
      <ellipse
         fill="#1874cd"
         stroke="black"
         cx="34.3087"
         cy="-272.062"
         rx="3.5"
         ry="3.5"
         id="ellipse195" />
    </g>
    <!-- 3&#45;&gt;44 -->
    <g
       id="edge14"
       class="edge">
      <title
         id="title198">3-&gt;44</title>
      <path
         fill="none"
         stroke="black"
         d="M-8.40264,-266.908C6.96304,-268.762 23.3053,-270.734 30.5161,-271.605"
         id="path200" />
    </g>
    <!-- 46 -->
    <g
       id="node47"
       class="node">
      <title
         id="title203">46</title>
      <ellipse
         fill="#1874cd"
         stroke="black"
         cx="-80.9166"
         cy="-343.404"
         rx="3.5"
         ry="3.5"
         id="ellipse205" />
    </g>
    <!-- 3&#45;&gt;46 -->
    <g
       id="edge15"
       class="edge">
      <title
         id="title208">3-&gt;46</title>
      <path
         fill="none"
         stroke="black"
         d="M-57.0396,-293.754C-65.5761,-311.505 -75.3477,-331.824 -79.2143,-339.865"
         id="path210" />
    </g>
    <!-- 56 -->
    <g
       id="node57"
       class="node">
      <title
         id="title213">56</title>
      <ellipse
         fill="#98f5ff"
         stroke="black"
         cx="51.0761"
         cy="-311.827"
         rx="3.5"
         ry="3.5"
         id="ellipse215" />
    </g>
    <!-- 3&#45;&gt;56 -->
    <g
       id="edge16"
       class="edge">
      <title
         id="title218">3-&gt;56</title>
      <path
         fill="none"
         stroke="black"
         d="M-11.8956,-278.74C10.2265,-290.364 37.9713,-304.942 47.5979,-310"
         id="path220" />
    </g>
    <!-- 59 -->
    <g
       id="node60"
       class="node">
      <title
         id="title223">59</title>
      <ellipse
         fill="black"
         stroke="black"
         cx="60.0036"
         cy="-251.247"
         rx="3.5"
         ry="3.5"
         id="ellipse225" />
    </g>
    <!-- 3&#45;&gt;59 -->
    <g
       id="edge17"
       class="edge">
      <title
         id="title228">3-&gt;59</title>
      <path
         fill="none"
         stroke="black"
         d="M-8.14761,-258.975C16.0018,-256.236 45.8988,-252.846 56.2612,-251.671"
         id="path230" />
    </g>
    <!-- anon_40_3_0 -->
    <g
       id="node69"
       class="node">
      <title
         id="title233">anon_40_3_0</title>
      <ellipse
         fill="white"
         stroke="black"
         cx="-150.08"
         cy="-265.347"
         rx="2.5"
         ry="2.5"
         id="ellipse235" />
    </g>
    <!-- 3&#45;&gt;anon_40_3_0 -->
    <g
       id="edge56"
       class="edge">
      <title
         id="title238">3-&gt;anon_40_3_0</title>
      <path
         fill="none"
         stroke="black"
         d="M-76.3134,-263.628C-99.6595,-264.172 -128.752,-264.85 -142.373,-265.167"
         id="path240" />
      <polygon
         fill="black"
         stroke="black"
         points="-142.508,-263.42 -147.466,-265.286 -142.427,-266.919 -142.508,-263.42"
         id="polygon242" />
      <text
         x="-147.78842"
         y="-275.17615"
         font-size="16.00"
         id="text244"
         style="font-size:16px;text-anchor:middle;font-family:monospace">P940H</text>
    </g>
    <!-- 4 -->
    <g
       id="node5"
       class="node">
      <title
         id="title247">4</title>
      <path
         fill="deepskyblue"
         stroke="black"
         stroke-width="0.5"
         d="M121.559,-11.5884C121.559,-11.5884 153.559,-11.5884 153.559,-11.5884 153.559,-12.6896 153.502,-13.79 153.389,-14.8853 153.275,-15.9805 153.105,-17.0692 152.88,-18.147 152.654,-19.2248 152.373,-20.2902 152.037,-21.339 151.702,-22.3877 151.312,-23.4185 150.87,-24.4271 150.429,-25.4358 149.935,-26.4209 149.392,-27.3787 148.848,-28.3364 148.256,-29.2655 147.617,-30.1622 146.978,-31.0588 146.293,-31.9219 145.565,-32.748 144.836,-33.574 144.066,-34.362 143.257,-35.1086 142.447,-35.8552 141.6,-36.5596 140.718,-37.2189 139.836,-37.8782 138.921,-38.4915 137.976,-39.0564 137.03,-39.6213 136.057,-40.1371 135.058,-40.6016 134.06,-41.0661 133.038,-41.4788 131.997,-41.838 130.956,-42.1972 129.898,-42.5024 128.825,-42.7525 127.753,-43.0025 126.668,-43.1971 125.576,-43.3353 124.483,-43.4735 123.385,-43.5553 122.284,-43.5802 121.183,-43.6052 120.082,-43.5733 118.984,-43.4847 117.886,-43.396 116.794,-43.2508 115.711,-43.0496 114.629,-42.8484 113.557,-42.5915 112.501,-42.2798 111.445,-41.9681 110.406,-41.6021 109.387,-41.1833 108.369,-40.7645 107.373,-40.2934 106.403,-39.7718 105.433,-39.2503 104.491,-38.6791 103.58,-38.0604 102.669,-37.4418 101.791,-36.7765 100.949,-36.0673 100.106,-35.3581 99.3011,-34.6058 98.5363,-33.8136 97.7715,-33.0214 97.0481,-32.1902 96.369,-31.3234 95.6899,-30.4566 95.056,-29.5553 94.4698,-28.6232 93.8836,-27.691 93.346,-26.7292 92.8589,-25.7417 92.3719,-24.7541 91.9362,-23.742 91.5535,-22.7095 91.1708,-21.677 90.8417,-20.6254 90.5674,-19.559 90.2931,-18.4925 90.0741,-17.4127 89.9112,-16.3236 89.7482,-15.2346 89.6416,-14.1379 89.5917,-13.0379 89.5418,-11.9379 89.5488,-10.836 89.6125,-9.73672 89.6762,-8.63742 89.7966,-7.54214 89.9733,-6.45526 89.9733,-6.45526 121.559,-11.5884 121.559,-11.5884"
         id="path249" />
      <path
         fill="#ff3030"
         stroke="black"
         stroke-width="0.5"
         d="M121.559,-11.5884C121.559,-11.5884 89.9733,-6.45526 89.9733,-6.45526 90.1456,-5.39489 90.3712,-4.34388 90.6492,-3.30621 90.9273,-2.26854 91.2574,-1.24553 91.6384,-0.241063 92.0193,0.763403 92.4506,1.74805 92.9306,2.70913 93.4106,3.67022 93.9386,4.60652 94.5128,5.51449 95.087,6.42245 95.7065,7.30093 96.369,8.14659 97.0315,8.99224 97.7362,9.80399 98.4804,10.5788 99.2246,11.3535 100.007,12.0903 100.826,12.7864 101.644,13.4824 102.497,14.1368 103.381,14.7471 103.381,14.7471 121.559,-11.5884 121.559,-11.5884"
         id="path251" />
      <path
         fill="#98f5ff"
         stroke="black"
         stroke-width="0.5"
         d="M121.559,-11.5884C121.559,-11.5884 103.381,14.7471 103.381,14.7471 104.575,15.5711 105.823,16.3129 107.117,16.9675 108.412,17.6222 109.749,18.188 111.12,18.6612 112.492,19.1343 113.893,19.5137 115.316,19.7967 116.739,20.0797 118.179,20.2656 119.627,20.3532 121.075,20.4408 122.527,20.4298 123.973,20.3204 125.42,20.2109 126.857,20.0033 128.275,19.6988 129.693,19.3944 131.089,18.9939 132.453,18.5001 133.817,18.0062 135.146,17.4203 136.43,16.7462 137.714,16.0721 138.951,15.3114 140.133,14.4695 141.314,13.6276 142.436,12.7063 143.493,11.7121 144.549,10.7179 145.536,9.65297 146.448,8.52478 147.36,7.39659 148.193,6.20772 148.944,4.96639 149.694,3.72506 150.359,2.43414 150.935,1.10257 151.51,-0.229005 151.994,-1.59815 152.384,-2.9954 152.773,-4.39265 153.067,-5.81476 153.264,-7.25191 153.46,-8.68905 153.559,-10.1379 153.559,-11.5884 153.559,-11.5884 121.559,-11.5884 121.559,-11.5884"
         id="path253" />
      <ellipse
         fill="none"
         stroke="black"
         cx="121.559"
         cy="-11.5884"
         rx="32"
         ry="32"
         id="ellipse255" />
    </g>
    <!-- 55 -->
    <g
       id="node56"
       class="node">
      <title
         id="title258">55</title>
      <ellipse
         fill="#98f5ff"
         stroke="black"
         cx="229.853"
         cy="-44.4607"
         rx="3.5"
         ry="3.5"
         id="ellipse260" />
    </g>
    <!-- 4&#45;&gt;55 -->
    <g
       id="edge19"
       class="edge">
      <title
         id="title263">4-&gt;55</title>
      <path
         fill="none"
         stroke="black"
         d="M152.302,-20.9204C179.066,-29.0444 215.276,-40.0358 226.437,-43.4237"
         id="path265" />
    </g>
    <!-- 5 -->
    <g
       id="node6"
       class="node">
      <title
         id="title268">5</title>
      <ellipse
         fill="#ff3030"
         stroke="black"
         cx="-71.1434"
         cy="92.0882"
         rx="18"
         ry="18"
         id="ellipse270" />
    </g>
    <!-- 6 -->
    <g
       id="node7"
       class="node">
      <title
         id="title273">6</title>
      <path
         fill="deepskyblue"
         stroke="black"
         stroke-width="0.5"
         d="M12.0092,23.0968C12.0092,23.0968 46.5092,23.0968 46.5092,23.0968 46.5092,21.9311 46.4501,20.7661 46.3322,19.6064 46.2143,18.4467 46.0376,17.2938 45.803,16.152 45.5683,15.0101 45.276,13.8809 44.927,12.7687 44.5781,11.6565 44.173,10.5627 43.7133,9.49147 43.7133,9.49147 12.0092,23.0968 12.0092,23.0968"
         id="path275" />
      <path
         fill="brown"
         stroke="black"
         stroke-width="0.5"
         d="M12.0092,23.0968C12.0092,23.0968 43.7133,9.49147 43.7133,9.49147 43.3158,8.56537 42.878,7.65713 42.4011,6.76936 41.9242,5.88159 41.4086,5.01514 40.8558,4.17251 40.303,3.32988 39.7135,2.51188 39.0891,1.72085 38.4647,0.929829 37.8059,0.166542 37.1147,-0.566809 36.4235,-1.30016 35.7004,-2.00287 34.9477,-2.67292 34.1949,-3.34297 33.4132,-3.97972 32.6047,-4.58133 31.7962,-5.18294 30.9617,-5.74884 30.1037,-6.27739 29.2456,-6.80594 28.3649,-7.29665 27.4639,-7.74809 26.5628,-8.19953 25.6425,-8.61128 24.7054,-8.98215 23.7684,-9.35301 22.8155,-9.68264 21.8496,-9.97009 20.8837,-10.2575 19.9057,-10.5025 18.9183,-10.7043 17.931,-10.9062 16.9353,-11.0646 15.934,-11.1793 14.9328,-11.2939 13.927,-11.3646 12.9196,-11.3912 11.9122,-11.4178 10.9041,-11.4003 9.89819,-11.3386 8.89231,-11.2769 7.88961,-11.1712 6.89298,-11.0218 5.89635,-10.8723 4.90675,-10.6793 3.92702,-10.4432 2.94729,-10.2071 1.97838,-9.92821 1.02307,-9.6073 0.0677592,-9.28638 -0.873032,-8.92376 -1.7966,-8.52048 -2.72016,-8.11721 -3.62561,-7.67365 -4.51034,-7.19111 -5.39508,-6.70856 -6.25824,-6.18747 -7.09735,-5.62935 -7.93646,-5.07124 -8.75072,-4.47662 -9.53777,-3.84722 -10.3248,-3.21781 -11.0839,-2.55422 -11.8129,-1.85836 -12.5418,-1.1625 -13.24,-0.435031 -13.9052,0.32195 -14.5705,1.07893 -15.2023,1.8647 -15.7988,2.67699 -16.3952,3.48928 -16.9558,4.32732 -17.4789,5.18869 -18.0021,6.05007 -18.4872,6.93395 -18.9329,7.83779 -19.3786,8.74163 -19.7845,9.66457 -20.1495,10.604 -20.5144,11.5433 -20.838,12.4983 -21.1193,13.466 -21.4006,14.4337 -21.6394,15.4132 -21.835,16.4019 -22.0305,17.3905 -22.1827,18.3872 -22.291,19.3891 -22.3993,20.3911 -22.4636,21.3973 -22.4838,22.4048 -22.5041,23.4124 -22.4801,24.4204 -22.4121,25.4258 -22.344,26.4313 -22.232,27.4333 -22.0762,28.429 -21.9205,29.4246 -21.7212,30.413 -21.4789,31.3912 -21.2366,32.3694 -20.9516,33.3366 -20.6246,34.2898 -20.2976,35.2431 -19.9291,36.1815 -19.5199,37.1025 -19.1108,38.0235 -18.6615,38.9262 -18.1734,39.8078 -17.6853,40.6895 -17.1587,41.5493 -16.5953,42.3849 -16.0319,43.2204 -15.4321,44.0309 -14.7977,44.814 -14.1634,45.597 -13.495,46.3519 -12.7945,47.0764 -12.094,47.801 -11.3622,48.4945 -10.601,49.1549 -9.83981,49.8154 -9.05006,50.4422 -8.23401,51.0335 -7.41795,51.6248 -6.57638,52.1801 -5.71171,52.6977 -4.84704,53.2154 -3.96011,53.6949 -3.05346,54.1349 -2.14681,54.5749 -1.22132,54.9749 -0.279648,55.3339 0.662024,55.6929 1.61897,56.0104 2.58845,56.2856 3.55792,56.5608 4.53898,56.7934 5.52882,56.9827 6.51865,57.172 7.5163,57.3178 8.5189,57.4197 9.52151,57.5217 10.5281,57.5797 11.5358,57.5935 12.5434,57.6073 13.5512,57.577 14.5563,57.5026 15.5613,57.4282 16.5626,57.3098 17.5572,57.1477 18.5519,56.9857 19.539,56.7801 20.5156,56.5316 21.4923,56.2832 22.4576,55.992 23.4087,55.659 24.3599,55.326 25.296,54.9515 26.2144,54.5366 27.1328,54.1216 28.0326,53.6666 28.9111,53.1729 29.7897,52.6792 30.6462,52.1472 31.4781,51.5785 32.3101,51.0098 33.1168,50.4049 33.8958,49.7656 34.6748,49.1263 35.4254,48.4531 36.1455,47.7481 36.8656,47.0431 37.5544,46.3068 38.2101,45.5415 38.8657,44.7761 39.4875,43.9824 40.0736,43.1626 40.6598,42.3428 41.2097,41.4978 41.7219,40.6298 42.234,39.7619 42.7079,38.872 43.1421,37.9625 43.5764,37.0531 43.9706,36.1251 44.3236,35.1812 44.6765,34.2373 44.988,33.2783 45.2571,32.3071 45.2571,32.3071 12.0092,23.0968 12.0092,23.0968"
         id="path277" />
      <path
         fill="#ff3030"
         stroke="black"
         stroke-width="0.5"
         d="M12.0092,23.0968C12.0092,23.0968 45.2571,32.3071 45.2571,32.3071 45.6721,30.809 45.9853,29.2846 46.1947,27.7443 46.4042,26.204 46.5092,24.6512 46.5092,23.0968 46.5092,23.0968 12.0092,23.0968 12.0092,23.0968"
         id="path279" />
      <ellipse
         fill="none"
         stroke="black"
         cx="12.0092"
         cy="23.0968"
         rx="34.5"
         ry="34.5"
         id="ellipse281" />
    </g>
    <!-- 6&#45;&gt;0 -->
    <g
       id="edge1"
       class="edge">
      <title
         id="title284">6-&gt;0</title>
      <path
         d="M46.6878,24.9873C62.6986,25.8602 81.5431,26.8876 97.0151,27.731"
         id="path286"
         stroke="black"
         fill="none" />
      <polygon
         points="97.2266,25.9899 102.124,28.0096 97.036,29.4847 97.2266,25.9899"
         id="polygon288"
         stroke="black"
         fill="black" />
      <text
         x="78.286751"
         y="42.796513"
         font-size="16.00"
         id="text290"
         style="font-size:16px;text-anchor:middle;font-family:monospace">I1868T</text>
    </g>
    <!-- 6&#45;&gt;2 -->
    <g
       id="edge6"
       class="edge">
      <title
         id="title293">6-&gt;2</title>
      <path
         fill="none"
         stroke="black"
         d="M37.1358,46.8259C46.3602,55.5372 56.4719,65.0865 64.3854,72.5599"
         id="path295" />
      <polygon
         fill="black"
         stroke="black"
         points="65.6464,71.3437 68.08,76.0491 63.2433,73.8884 65.6464,71.3437"
         id="polygon297" />
      <text
         x="64.11824"
         y="113.25262"
         font-size="16.00"
         id="text299"
         style="font-size:16px;text-anchor:middle;font-family:monospace">A1934V</text>
    </g>
    <!-- 6&#45;&gt;4 -->
    <g
       id="edge18"
       class="edge">
      <title
         id="title302">6-&gt;4</title>
      <path
         fill="none"
         stroke="black"
         d="M45.175,12.5959C57.9619,8.54739 72.62,3.90642 85.654,-0.220361"
         id="path304" />
      <polygon
         fill="black"
         stroke="black"
         points="85.4555,-1.99307 90.7505,-1.834 86.512,1.34368 85.4555,-1.99307"
         id="polygon306" />
      <text
         x="182.36813"
         y="-8.99154"
         font-size="16.00"
         id="text308"
         style="font-size:16px;text-anchor:middle;font-family:monospace">P1874L</text>
    </g>
    <!-- 6&#45;&gt;5 -->
    <g
       id="edge20"
       class="edge">
      <title
         id="title311">6-&gt;5</title>
      <path
         fill="none"
         stroke="black"
         d="M-14.7585,45.3058C-27.2746,55.6904 -41.8503,67.7838 -53.0464,77.0732"
         id="path313" />
      <polygon
         fill="black"
         stroke="black"
         points="-52.0429,78.5144 -57.0083,80.3603 -54.2777,75.8208 -52.0429,78.5144"
         id="polygon315" />
      <text
         x="-59.953323"
         y="71.165878"
         font-size="16.00"
         id="text317"
         style="font-size:16px;text-anchor:middle;font-family:monospace">P1874S</text>
    </g>
    <!-- 7 -->
    <g
       id="node8"
       class="node">
      <title
         id="title320">7</title>
      <ellipse
         fill="#ff3030"
         stroke="black"
         cx="-15.1926"
         cy="-25.4148"
         rx="9.5"
         ry="9.5"
         id="ellipse322" />
    </g>
    <!-- 6&#45;&gt;7 -->
    <g
       id="edge21"
       class="edge">
      <title
         id="title325">6-&gt;7</title>
      <path
         fill="none"
         stroke="black"
         d="M-4.90875,-7.07466C-5.90273,-8.84733 -6.87154,-10.5751 -7.79213,-12.2169"
         id="path327" />
      <polygon
         fill="black"
         stroke="black"
         points="-9.46714,-11.626 -10.3862,-16.8431 -6.4143,-13.3379 -9.46714,-11.626"
         id="polygon329" />
      <text
         x="-45.420563"
         y="-36.106686"
         font-size="16.00"
         id="text331"
         style="font-size:16px;text-anchor:middle;font-family:monospace">K1603T</text>
    </g>
    <!-- 8 -->
    <g
       id="node9"
       class="node">
      <title
         id="title334">8</title>
      <ellipse
         fill="#ff3030"
         stroke="black"
         cx="77.4202"
         cy="-21.9522"
         rx="6"
         ry="6"
         id="ellipse336" />
    </g>
    <!-- 6&#45;&gt;8 -->
    <g
       id="edge22"
       class="edge">
      <title
         id="title339">6-&gt;8</title>
      <path
         fill="none"
         stroke="black"
         d="M40.5091,3.46868C50.3554,-3.31251 60.7188,-10.4498 67.9493,-15.4295"
         id="path341" />
      <polygon
         fill="black"
         stroke="black"
         points="67.2991,-17.1066 72.4096,-18.5014 69.2843,-14.224 67.2991,-17.1066"
         id="polygon343" />
      <text
         x="87.925056"
         y="-28.563221"
         font-size="16.00"
         id="text345"
         style="font-size:16px;text-anchor:middle;font-family:monospace">L1667M</text>
    </g>
    <!-- 13 -->
    <g
       id="node14"
       class="node">
      <title
         id="title348">13</title>
      <ellipse
         fill="#ff3030"
         stroke="black"
         cx="67.3203"
         cy="-48.9495"
         rx="8"
         ry="8"
         id="ellipse350" />
    </g>
    <!-- 6&#45;&gt;13 -->
    <g
       id="edge23"
       class="edge">
      <title
         id="title353">6-&gt;13</title>
      <path
         fill="none"
         stroke="black"
         d="M33.2358,-4.55215C42.3467,-16.4197 52.4431,-29.5709 59.2653,-38.4572"
         id="path355" />
      <polygon
         fill="black"
         stroke="black"
         points="57.8997,-39.5523 62.3326,-42.4527 60.6759,-37.4209 57.8997,-39.5523"
         id="polygon357" />
      <text
         x="61.337036"
         y="-60.016666"
         font-size="16.00"
         id="text359"
         style="font-size:16px;text-anchor:middle;font-family:monospace"
         transform="matrix(0.9999915,-0.00412348,0.00412348,0.9999915,0,0)">I1940T</text>
    </g>
    <!-- 14 -->
    <g
       id="node15"
       class="node">
      <title
         id="title362">14</title>
      <path
         fill="#ff3030"
         stroke="black"
         stroke-width="0.5"
         d="M26.5545,128.671C26.5545,128.671 32.5545,128.671 32.5545,128.671 32.5545,128.409 32.5373,128.147 32.5031,127.888 32.4689,127.628 32.4178,127.371 32.35,127.118 32.2822,126.865 32.198,126.617 32.0977,126.375 31.9975,126.133 31.8816,125.898 31.7506,125.671 31.6197,125.444 31.474,125.226 31.3146,125.018 31.1551,124.81 30.9823,124.613 30.7971,124.428 30.6119,124.243 30.4148,124.07 30.207,123.911 29.9992,123.751 29.7813,123.606 29.5545,123.475 29.3276,123.344 29.0925,123.228 28.8506,123.127 28.6086,123.027 28.3603,122.943 28.1074,122.875 27.8544,122.807 27.5973,122.756 27.3376,122.722 27.078,122.688 26.8163,122.671 26.5545,122.671 26.2926,122.671 26.0309,122.688 25.7713,122.722 25.5116,122.756 25.2545,122.807 25.0015,122.875 24.7486,122.943 24.5003,123.027 24.2584,123.127 24.0164,123.228 23.7813,123.344 23.5545,123.475 23.3276,123.606 23.1097,123.751 22.9019,123.911 22.6941,124.07 22.497,124.243 22.3118,124.428 22.1266,124.613 21.9538,124.81 21.7943,125.018 21.6349,125.226 21.4892,125.444 21.3583,125.671 21.2274,125.898 21.1114,126.133 21.0112,126.375 20.911,126.617 20.8267,126.865 20.7589,127.118 20.6911,127.371 20.64,127.628 20.6058,127.888 20.5716,128.147 20.5545,128.409 20.5545,128.671 20.5545,128.933 20.5716,129.194 20.6058,129.454 20.64,129.714 20.6911,129.971 20.7589,130.224 20.8267,130.477 20.911,130.725 21.0112,130.967 21.1114,131.209 21.2274,131.444 21.3583,131.671 21.4892,131.898 21.6349,132.116 21.7943,132.323 21.9538,132.531 22.1266,132.728 22.3118,132.913 22.497,133.099 22.6941,133.271 22.9019,133.431 23.1097,133.59 23.3276,133.736 23.5545,133.867 23.5545,133.867 26.5545,128.671 26.5545,128.671"
         id="path364" />
      <path
         fill="#98f5ff"
         stroke="black"
         stroke-width="0.5"
         d="M26.5545,128.671C26.5545,128.671 23.5545,133.867 23.5545,133.867 23.7813,133.998 24.0164,134.114 24.2584,134.214 24.5003,134.314 24.7486,134.398 25.0015,134.466 25.2545,134.534 25.5116,134.585 25.7713,134.619 26.0309,134.654 26.2926,134.671 26.5545,134.671 26.8163,134.671 27.078,134.654 27.3376,134.619 27.5973,134.585 27.8544,134.534 28.1074,134.466 28.3603,134.398 28.6086,134.314 28.8506,134.214 29.0925,134.114 29.3276,133.998 29.5545,133.867 29.7813,133.736 29.9992,133.59 30.207,133.431 30.4148,133.271 30.6119,133.099 30.7971,132.913 30.9823,132.728 31.1551,132.531 31.3146,132.323 31.474,132.116 31.6197,131.898 31.7506,131.671 31.8816,131.444 31.9975,131.209 32.0977,130.967 32.198,130.725 32.2822,130.477 32.35,130.224 32.4178,129.971 32.4689,129.714 32.5031,129.454 32.5373,129.194 32.5545,128.933 32.5545,128.671 32.5545,128.671 26.5545,128.671 26.5545,128.671"
         id="path366" />
      <ellipse
         fill="none"
         stroke="black"
         cx="26.5545"
         cy="128.671"
         rx="6"
         ry="6"
         id="ellipse368" />
    </g>
    <!-- 6&#45;&gt;14 -->
    <g
       id="edge24"
       class="edge">
      <title
         id="title371">6-&gt;14</title>
      <path
         fill="none"
         stroke="black"
         d="M16.7316,57.3736C19.6023,78.2096 23.0799,103.451 25.0325,117.624"
         id="path373" />
      <polygon
         fill="black"
         stroke="black"
         points="26.7756,117.455 25.7245,122.647 23.3084,117.932 26.7756,117.455"
         id="polygon375" />
      <text
         x="-1.464918"
         y="123.49539"
         font-size="16.00"
         id="text377"
         style="font-size:16px;text-anchor:middle;font-family:monospace">T791M</text>
    </g>
    <!-- 17 -->
    <g
       id="node18"
       class="node">
      <title
         id="title380">17</title>
      <ellipse
         fill="#ff3030"
         stroke="black"
         cx="-30.2141"
         cy="0.47201"
         rx="6"
         ry="6"
         id="ellipse382" />
    </g>
    <!-- 6&#45;&gt;17 -->
    <g
       id="edge25"
       class="edge">
      <title
         id="title385">6-&gt;17</title>
      <path
         fill="none"
         stroke="black"
         d="M-18.6764,6.65432C-19.2392,6.35278 -19.7904,6.0574 -20.328,5.76936"
         id="path387" />
      <polygon
         fill="black"
         stroke="black"
         points="-21.1568,7.31069 -24.7374,3.40661 -19.5037,4.22566 -21.1568,7.31069"
         id="polygon389" />
      <text
         x="-53.446087"
         y="-8.0726385"
         font-size="16.00"
         id="text391"
         style="font-size:16px;text-anchor:middle;font-family:monospace">N1345I</text>
    </g>
    <!-- 19 -->
    <g
       id="node20"
       class="node">
      <title
         id="title394">19</title>
      <path
         fill="deepskyblue"
         stroke="black"
         stroke-width="0.5"
         d="M97.3148,59.2129C97.3148,59.2129 108.815,59.2129 108.815,59.2129 108.815,58.7611 108.788,58.3098 108.735,57.8612 108.682,57.4126 108.603,56.9675 108.497,56.5282 108.392,56.089 108.26,55.6563 108.104,55.2325 107.948,54.8087 107.766,54.3945 107.561,53.992 107.356,53.5895 107.128,53.1994 106.877,52.8238 106.626,52.4482 106.353,52.0877 106.059,51.7442 105.766,51.4007 105.453,51.0748 105.121,50.7682 104.789,50.4615 104.44,50.1747 104.074,49.9092 103.709,49.6436 103.328,49.3999 102.934,49.1792 102.54,48.9584 102.133,48.7611 101.716,48.5882 101.298,48.4154 100.871,48.2672 100.436,48.1446 100.002,48.022 99.56,47.9251 99.1138,47.8544 98.6676,47.7838 98.2177,47.7395 97.7663,47.7217 97.3149,47.704 96.8629,47.7129 96.4125,47.7483 95.9622,47.7838 95.5143,47.8457 95.0713,47.9338 94.6282,48.022 94.1907,48.1361 93.7611,48.2757 93.3315,48.4153 92.9104,48.5801 92.5002,48.7692 92.09,48.9583 91.6912,49.1715 91.3061,49.4075 90.9209,49.6435 90.55,49.9021 90.1952,50.1817 89.8405,50.4614 89.5025,50.7617 89.1831,51.0811 88.8636,51.4006 88.5633,51.7385 88.2837,52.0933 88.004,52.448 87.7455,52.819 87.5094,53.2041 87.2734,53.5893 87.0603,53.988 86.8712,54.3983 86.682,54.8085 86.5172,55.2295 86.3776,55.6592 86.2381,56.0888 86.1239,56.5263 86.0358,56.9693 85.9476,57.4124 85.8857,57.8602 85.8502,58.3106 85.8148,58.7609 85.8059,59.213 85.8237,59.6644 85.8414,60.1157 85.8857,60.5657 85.9564,61.0119 86.027,61.458 86.1239,61.8997 86.2466,62.3344 86.3692,62.7692 86.5173,63.1964 86.6902,63.6137 86.8631,64.0311 87.0604,64.4379 87.2811,64.832 87.5018,65.2261 87.7456,65.6069 88.0111,65.9724 88.0111,65.9724 97.3148,59.2129 97.3148,59.2129"
         id="path396" />
      <path
         fill="#98f5ff"
         stroke="black"
         stroke-width="0.5"
         d="M97.3148,59.2129C97.3148,59.2129 88.0111,65.9724 88.0111,65.9724 88.3652,66.4598 88.7571,66.9186 89.1831,67.3446 89.6091,67.7706 90.0679,68.1624 90.5553,68.5166 91.0427,68.8707 91.5571,69.1859 92.0939,69.4594 92.6307,69.7329 93.1881,69.9638 93.7611,70.15 94.3341,70.3362 94.9208,70.477 95.5158,70.5713 96.1108,70.6655 96.7124,70.7129 97.3148,70.7129 97.9172,70.7129 98.5188,70.6655 99.1138,70.5713 99.7088,70.477 100.296,70.3362 100.868,70.15 101.441,69.9638 101.999,69.7329 102.536,69.4594 103.072,69.1859 103.587,68.8707 104.074,68.5166 104.562,68.1624 105.021,67.7706 105.447,67.3446 105.873,66.9186 106.264,66.4598 106.618,65.9724 106.973,65.485 107.288,64.9705 107.561,64.4338 107.835,63.897 108.066,63.3395 108.252,62.7666 108.438,62.1936 108.579,61.6069 108.673,61.0119 108.767,60.4168 108.815,59.8153 108.815,59.2129 108.815,59.2129 97.3148,59.2129 97.3148,59.2129"
         id="path398" />
      <ellipse
         fill="none"
         stroke="black"
         cx="97.3148"
         cy="59.2129"
         rx="11.5"
         ry="11.5"
         id="ellipse400" />
    </g>
    <!-- 6&#45;&gt;19 -->
    <g
       id="edge26"
       class="edge">
      <title
         id="title403">6-&gt;19</title>
      <path
         d="M44.2596,36.7507C57.0724,42.1753 71.2189,48.1646 81.6799,52.5935"
         id="path405"
         stroke="black"
         fill="none" />
      <polygon
         points="82.5752,51.0721 86.4973,54.633 81.2106,54.2951 82.5752,51.0721"
         id="polygon407"
         stroke="black"
         fill="black" />
      <text
         x="121.11234"
         y="85.344551"
         font-size="16.00"
         id="text409"
         style="font-size:16px;text-anchor:middle;font-family:monospace">E1597G</text>
    </g>
    <!-- 26 -->
    <g
       id="node27"
       class="node"
       transform="translate(1.9626813,-17.51717)">
      <title
         id="title412">26</title>
      <ellipse
         cx="21.2111"
         cy="-19.9681"
         rx="5"
         ry="5"
         id="ellipse414"
         d="m 26.2111,-19.9681 c 0,2.761424 -2.238577,5 -5,5 -2.761424,0 -5,-2.238576 -5,-5 0,-2.761423 2.238576,-5 5,-5 2.761423,0 5,2.238577 5,5 z"
         sodipodi:cx="21.2111"
         sodipodi:cy="-19.9681"
         sodipodi:rx="5"
         sodipodi:ry="5"
         style="fill:#00bfff;stroke:#000000" />
    </g>
    <!-- 6&#45;&gt;26 -->
    <g
       id="edge27"
       class="edge">
      <title
         id="title417">6-&gt;26</title>
      <path
         fill="none"
         stroke="black"
         d="M19.2596,-10.8352C19.2797,-10.929 19.2996,-11.0223 19.3194,-11.1152"
         id="path419" />
      <polygon
         points="20.7995,-9.66724 17.3767,-10.3987 17.3767,-10.3987 20.133,-14.9226 "
         id="polygon421"
         transform="translate(2.0771551,-15.931779)"
         style="fill:#000000;stroke:#000000" />
      <text
         x="25.549538"
         y="-44.55175"
         font-size="16.00"
         id="text423"
         style="font-size:16px;text-anchor:middle;font-family:monospace">I1584T</text>
    </g>
    <!-- 31 -->
    <g
       id="node32"
       class="node">
      <title
         id="title426">31</title>
      <path
         fill="deepskyblue"
         stroke="black"
         stroke-width="0.5"
         d="M-114.634,9.8482C-114.634,9.8482 -102.134,9.8482 -102.134,9.8482 -102.134,9.37083 -102.161,8.89386 -102.216,8.41961 -102.27,7.94537 -102.352,7.47465 -102.461,7.00975 -102.569,6.54485 -102.704,6.08654 -102.865,5.63708 -103.026,5.18761 -103.212,4.74773 -103.423,4.31959 -103.634,3.89145 -103.87,3.47576 -104.128,3.07456 -104.387,2.67335 -104.669,2.2873 -104.971,1.91829 -105.274,1.54927 -105.598,1.19791 -105.941,0.865932 -106.284,0.533949 -106.646,0.221889 -107.025,-0.0687149 -107.403,-0.359319 -107.798,-0.627989 -108.208,-0.873406 -108.617,-1.11882 -109.04,-1.34058 -109.475,-1.5376 -109.91,-1.73461 -110.356,-1.90655 -110.81,-2.05258 -111.265,-2.19861 -111.727,-2.31848 -112.195,-2.41161 -112.664,-2.50474 -113.137,-2.57098 -113.613,-2.60999 -114.088,-2.649 -114.566,-2.66072 -115.043,-2.64511 -115.52,-2.62949 -115.996,-2.58655 -116.468,-2.5165 -116.94,-2.44646 -117.408,-2.34942 -117.869,-2.22587 -118.33,-2.10232 -118.784,-1.95245 -119.228,-1.77701 -119.672,-1.60157 -120.105,-1.40084 -120.526,-1.17581 -120.947,-0.950785 -121.355,-0.701822 -121.748,-0.430152 -122.14,-0.158481 -122.517,0.135452 -122.876,0.450203 -123.235,0.764954 -123.575,1.10001 -123.896,1.45371 -124.217,1.80742 -124.517,2.1792 -124.795,2.56723 -125.073,2.95526 -125.328,3.35889 -125.56,3.77616 -125.792,4.19342 -126,4.62363 -126.183,5.06466 -126.365,5.50569 -126.522,5.95682 -126.654,6.41584 -126.785,6.87486 -126.889,7.34101 -126.967,7.81201 -127.045,8.283 -127.096,8.75806 -127.119,9.23485 -127.142,9.71165 -127.138,10.1894 -127.107,10.6657 -127.076,11.1421 -127.018,11.6163 -126.932,12.0859 -126.847,12.5556 -126.734,13.0199 -126.596,13.4768 -126.457,13.9336 -126.293,14.3821 -126.103,14.8201 -125.913,15.258 -125.698,15.6848 -125.459,16.0982 -125.459,16.0982 -114.634,9.8482 -114.634,9.8482"
         id="path428" />
      <path
         fill="#98f5ff"
         stroke="black"
         stroke-width="0.5"
         d="M-114.634,9.8482C-114.634,9.8482 -125.459,16.0982 -125.459,16.0982 -125.118,16.689 -124.729,17.2508 -124.297,17.7781 -123.864,18.3054 -123.389,18.7964 -122.876,19.2462 -122.363,19.696 -121.814,20.103 -121.235,20.4632 -120.656,20.8234 -120.048,21.1356 -119.418,21.3967 -118.787,21.6577 -118.137,21.8668 -117.472,22.0217 -116.808,22.1766 -116.132,22.2768 -115.452,22.3214 -114.771,22.3661 -114.088,22.3549 -113.409,22.288 -112.73,22.2211 -112.058,22.0988 -111.399,21.9223 -110.74,21.7457 -110.097,21.5155 -109.475,21.234 -108.854,20.9525 -108.257,20.6206 -107.689,20.2416 -107.122,19.8626 -106.587,19.4378 -106.089,18.9715 -105.591,18.5052 -105.132,17.9989 -104.717,17.4577 -104.302,16.9165 -103.932,16.3423 -103.61,15.7407 -103.288,15.1391 -103.017,14.5121 -102.797,13.8662 -102.578,13.2202 -102.412,12.5574 -102.301,11.8844 -102.19,11.2114 -102.134,10.5304 -102.134,9.8482 -102.134,9.8482 -114.634,9.8482 -114.634,9.8482"
         id="path430" />
      <ellipse
         fill="none"
         stroke="black"
         cx="-114.634"
         cy="9.8482"
         rx="12.5"
         ry="12.5"
         id="ellipse432" />
    </g>
    <!-- 6&#45;&gt;31 -->
    <g
       id="edge28"
       class="edge">
      <title
         id="title435">6-&gt;31</title>
      <path
         fill="none"
         stroke="black"
         d="M-22.5966,19.4765C-46.6958,16.9554 -77.8352,13.6978 -97.0108,11.6918"
         id="path437" />
      <polygon
         fill="black"
         stroke="black"
         points="-97.2955,13.4217 -102.086,11.1609 -96.9313,9.94068 -97.2955,13.4217"
         id="polygon439" />
      <text
         x="-73.437485"
         y="8.3146935"
         font-size="16.00"
         id="text441"
         style="font-size:16px;text-anchor:middle;font-family:monospace">V1853I</text>
    </g>
    <!-- 48 -->
    <g
       id="node49"
       class="node">
      <title
         id="title444">48</title>
      <ellipse
         fill="brown"
         stroke="black"
         cx="-27.8995"
         cy="105.936"
         rx="6"
         ry="6"
         id="ellipse446" />
    </g>
    <!-- 6&#45;&gt;48 -->
    <g
       id="edge29"
       class="edge">
      <title
         id="title449">6-&gt;48</title>
      <path
         fill="none"
         stroke="black"
         d="M-3.07856,54.4147C-11.2898,71.4588 -20.6719,90.9333 -25.1888,100.309"
         id="path451" />
    </g>
    <!-- 50 -->
    <g
       id="node51"
       class="node">
      <title
         id="title454">50</title>
      <ellipse
         fill="brown"
         stroke="black"
         cx="-20.6275"
         cy="-97.5456"
         rx="8"
         ry="8"
         id="ellipse456" />
    </g>
    <!-- 6&#45;&gt;50 -->
    <g
       id="edge30"
       class="edge">
      <title
         id="title459">6-&gt;50</title>
      <path
         d="M2.91806,-10.5089C-4.4001,-37.5606 -14.1484,-73.5955 -18.441,-89.4632"
         id="path461"
         stroke="black"
         fill="none" />
    </g>
    <!-- anon_27_6_1 -->
    <g
       id="node64"
       class="node">
      <title
         id="title464">anon_27_6_1</title>
      <ellipse
         fill="white"
         stroke="black"
         cx="-78.9204"
         cy="18.6848"
         rx="2.5"
         ry="2.5"
         id="ellipse466" />
    </g>
    <!-- 6&#45;&gt;anon_27_6_1 -->
    <g
       id="edge42"
       class="edge">
      <title
         id="title469">6-&gt;anon_27_6_1</title>
      <path
         fill="none"
         stroke="black"
         d="M-22.6267,21.4162C-40.4155,20.5531 -60.5527,19.576 -71.262,19.0564"
         id="path471" />
      <polygon
         fill="black"
         stroke="black"
         points="-71.4797,20.798 -76.389,18.8077 -71.31,17.3021 -71.4797,20.798"
         id="polygon473" />
      <text
         x="-60.741112"
         y="36.485477"
         font-size="16.00"
         id="text475"
         style="font-size:16px;text-anchor:middle;font-family:monospace">G54C</text>
    </g>
    <!-- 57 -->
    <g
       id="node58"
       class="node">
      <title
         id="title478">57</title>
      <ellipse
         fill="black"
         stroke="black"
         cx="140.514"
         cy="-45.9456"
         rx="6"
         ry="6"
         id="ellipse480" />
    </g>
    <!-- 8&#45;&gt;57 -->
    <g
       id="edge31"
       class="edge">
      <title
         id="title483">8-&gt;57</title>
      <path
         fill="none"
         stroke="black"
         d="M83.2428,-24.1664C95.3235,-28.7605 122.977,-39.2766 134.887,-43.8058"
         id="path485" />
    </g>
    <!-- 9 -->
    <g
       id="node10"
       class="node">
      <title
         id="title488">9</title>
      <ellipse
         fill="deepskyblue"
         stroke="black"
         cx="80.2267"
         cy="238.945"
         rx="3.5"
         ry="3.5"
         id="ellipse490" />
    </g>
    <!-- 11 -->
    <g
       id="node12"
       class="node">
      <title
         id="title493">11</title>
      <ellipse
         fill="deepskyblue"
         stroke="black"
         cx="-61.4388"
         cy="138.944"
         rx="3.5"
         ry="3.5"
         id="ellipse495" />
    </g>
    <!-- 12 -->
    <g
       id="node13"
       class="node">
      <title
         id="title498">12</title>
      <ellipse
         fill="deepskyblue"
         stroke="black"
         cx="-20.3332"
         cy="246.034"
         rx="3.5"
         ry="3.5"
         id="ellipse500" />
    </g>
    <!-- 15 -->
    <g
       id="node16"
       class="node">
      <title
         id="title503">15</title>
      <path
         fill="deepskyblue"
         stroke="black"
         stroke-width="0.5"
         d="M27.7707,210.915C27.7707,210.915 45.7707,210.915 45.7707,210.915 45.7707,210.067 45.7107,209.219 45.5911,208.379 45.4715,207.539 45.2927,206.708 45.056,205.893 44.8192,205.079 44.5251,204.281 44.1759,203.508 43.8267,202.735 43.4233,201.987 42.9686,201.27 42.5139,200.554 42.0091,199.871 41.458,199.225 40.9069,198.58 40.3108,197.974 39.6743,197.413 39.0378,196.852 38.3623,196.337 37.6531,195.871 36.9438,195.405 36.2025,194.99 35.4347,194.628 34.6669,194.267 33.8745,193.961 33.0634,193.711 32.2523,193.462 31.4246,193.27 30.5865,193.137 29.7484,193.004 28.9019,192.931 28.0534,192.918 27.2049,192.904 26.3566,192.951 25.5147,193.057 24.6728,193.164 23.8395,193.329 23.021,193.553 22.2025,193.777 21.4008,194.059 20.622,194.396 19.8432,194.733 19.0892,195.124 18.3657,195.568 17.6422,196.011 16.9509,196.505 16.2971,197.046 15.6432,197.587 15.0284,198.173 14.4573,198.801 13.8862,199.429 13.3602,200.096 12.8832,200.798 12.4063,201.5 11.9795,202.234 11.6062,202.996 11.2329,203.758 10.9139,204.546 10.6517,205.353 10.3894,206.16 10.1846,206.985 10.0387,207.821 9.89282,208.657 9.80622,209.502 9.77957,210.35 9.75291,211.198 9.78627,212.047 9.87939,212.891 9.97251,213.734 10.1252,214.57 10.3362,215.392 10.5472,216.214 10.8161,217.02 11.1409,217.804 11.4656,218.588 11.8454,219.348 12.2773,220.078 12.7093,220.808 13.1924,221.507 13.7229,222.17 14.2535,222.832 14.8302,223.456 15.4488,224.037 16.0674,224.618 16.7263,225.154 17.4206,225.642 18.1149,226.13 18.8428,226.568 19.5989,226.953 20.355,227.339 21.1373,227.67 21.9402,227.945 22.743,228.22 23.5643,228.437 24.3978,228.596 24.3978,228.596 27.7707,210.915 27.7707,210.915"
         id="path505" />
      <path
         fill="#98f5ff"
         stroke="black"
         stroke-width="0.5"
         d="M27.7707,210.915C27.7707,210.915 24.3978,228.596 24.3978,228.596 25.046,228.72 25.7006,228.808 26.3584,228.86 27.0163,228.912 27.6765,228.927 28.3361,228.906 28.9957,228.886 29.6536,228.829 30.3069,228.736 30.9602,228.643 31.6079,228.514 32.2471,228.35 32.8863,228.186 33.5159,227.987 34.1332,227.753 34.7505,227.52 35.3545,227.253 35.9425,226.953 36.5305,226.654 37.1015,226.322 37.6531,225.96 38.2046,225.598 38.7359,225.205 39.2443,224.785 39.7528,224.364 40.2377,223.916 40.697,223.442 41.1562,222.968 41.589,222.469 41.9935,221.948 42.3979,221.426 42.7734,220.883 43.1182,220.32 43.463,219.758 43.7766,219.176 44.0576,218.579 44.3385,217.982 44.5865,217.37 44.8002,216.746 45.014,216.121 45.1932,215.486 45.3372,214.842 45.4811,214.198 45.5896,213.546 45.662,212.891 45.7344,212.235 45.7707,211.575 45.7707,210.915 45.7707,210.915 27.7707,210.915 27.7707,210.915"
         id="path507" />
      <ellipse
         fill="none"
         stroke="black"
         cx="27.7707"
         cy="210.915"
         rx="18"
         ry="18"
         id="ellipse509" />
    </g>
    <!-- 14&#45;&gt;15 -->
    <g
       id="edge34"
       class="edge">
      <title
         id="title512">14-&gt;15</title>
      <path
         fill="none"
         stroke="black"
         d="M26.6459,134.852C26.8091,145.889 27.1585,169.515 27.4248,187.526"
         id="path514" />
      <polygon
         fill="black"
         stroke="black"
         points="29.1803,187.89 27.5045,192.916 25.6807,187.942 29.1803,187.89"
         id="polygon516" />
      <text
         x="58.694763"
         y="183.1232"
         font-size="16.00"
         id="text518"
         style="font-size:16px;text-anchor:middle;font-family:monospace">A1746S</text>
    </g>
    <!-- 15&#45;&gt;9 -->
    <g
       id="edge32"
       class="edge">
      <title
         id="title521">15-&gt;9</title>
      <path
         fill="none"
         stroke="black"
         d="M43.7943,219.477C55.6051,225.789 70.6866,233.847 77.1073,237.278"
         id="path523" />
    </g>
    <!-- 15&#45;&gt;12 -->
    <g
       id="edge33"
       class="edge">
      <title
         id="title526">15-&gt;12</title>
      <path
         fill="none"
         stroke="black"
         d="M13.0766,221.643C2.24567,229.55 -11.5846,239.647 -17.4726,243.946"
         id="path528" />
    </g>
    <!-- anon_15_23_0 -->
    <g
       id="node61"
       class="node">
      <title
         id="title531">anon_15_23_0</title>
      <ellipse
         fill="white"
         stroke="black"
         cx="26.8054"
         cy="274.194"
         rx="2.5"
         ry="2.5"
         id="ellipse533" />
    </g>
    <!-- 15&#45;&gt;anon_15_23_0 -->
    <g
       id="edge35"
       class="edge">
      <title
         id="title536">15-&gt;anon_15_23_0</title>
      <path
         fill="none"
         stroke="black"
         d="M27.4915,229.218C27.2599,244.403 26.9517,264.603 26.8443,271.645"
         id="path538" />
    </g>
    <!-- 18 -->
    <g
       id="node19"
       class="node">
      <title
         id="title541">18</title>
      <ellipse
         fill="deepskyblue"
         stroke="black"
         cx="-7.72514"
         cy="-328.196"
         rx="3.5"
         ry="3.5"
         id="ellipse543" />
    </g>
    <!-- 18&#45;&gt;3 -->
    <g
       id="edge39"
       class="edge">
      <title
         id="title546">18-&gt;3</title>
      <path
         fill="none"
         stroke="black"
         d="M-9.38648,-325.043C-12.5042,-319.127 -19.5276,-305.799 -26.2771,-292.991"
         id="path548" />
    </g>
    <!-- 20 -->
    <g
       id="node21"
       class="node">
      <title
         id="title551">20</title>
      <ellipse
         fill="deepskyblue"
         stroke="black"
         cx="-269.685"
         cy="67.1395"
         rx="3.5"
         ry="3.5"
         id="ellipse553" />
    </g>
    <!-- 23 -->
    <g
       id="node24"
       class="node">
      <title
         id="title556">23</title>
      <ellipse
         fill="deepskyblue"
         stroke="black"
         cx="16.0084"
         cy="359.886"
         rx="3.5"
         ry="3.5"
         id="ellipse558" />
    </g>
    <!-- 27 -->
    <g
       id="node28"
       class="node">
      <title
         id="title561">27</title>
      <ellipse
         fill="#ff3030"
         stroke="black"
         cx="-179.822"
         cy="64.0241"
         rx="5"
         ry="5"
         id="ellipse563" />
    </g>
    <!-- anon_27_6_0 -->
    <g
       id="node63"
       class="node">
      <title
         id="title566">anon_27_6_0</title>
      <ellipse
         fill="white"
         stroke="black"
         cx="-132.087"
         cy="35.8524"
         rx="2.5"
         ry="2.5"
         id="ellipse568" />
    </g>
    <!-- 27&#45;&gt;anon_27_6_0 -->
    <g
       id="edge40"
       class="edge">
      <title
         id="title571">27-&gt;anon_27_6_0</title>
      <path
         fill="none"
         stroke="black"
         d="M-175.417,61.4242C-165.631,55.6488 -142.338,41.902 -134.62,37.3472"
         id="path573" />
    </g>
    <!-- 28 -->
    <g
       id="node29"
       class="node">
      <title
         id="title576">28</title>
      <ellipse
         fill="#ff3030"
         stroke="black"
         cx="109.942"
         cy="-73.4032"
         rx="3.5"
         ry="3.5"
         id="ellipse578" />
    </g>
    <!-- 28&#45;&gt;13 -->
    <g
       id="edge43"
       class="edge">
      <title
         id="title581">28-&gt;13</title>
      <path
         fill="none"
         stroke="black"
         d="M106.877,-71.6446C100.158,-67.7897 83.981,-58.5083 74.5264,-53.0839"
         id="path583" />
    </g>
    <!-- anon_31_20_0 -->
    <g
       id="node65"
       class="node">
      <title
         id="title586">anon_31_20_0</title>
      <ellipse
         fill="white"
         stroke="black"
         cx="-184.035"
         cy="28.2895"
         rx="2.5"
         ry="2.5"
         id="ellipse588" />
    </g>
    <!-- 31&#45;&gt;anon_31_20_0 -->
    <g
       id="edge45"
       class="edge">
      <title
         id="title591">31-&gt;anon_31_20_0</title>
      <path
         fill="none"
         stroke="black"
         d="M-126.723,13.0604C-143.5,17.5184 -172.767,25.2953 -181.503,27.6168"
         id="path593" />
    </g>
    <!-- 32 -->
    <g
       id="node33"
       class="node">
      <title
         id="title596">32</title>
      <ellipse
         fill="#ff3030"
         stroke="black"
         cx="-21.2183"
         cy="152.187"
         rx="3.5"
         ry="3.5"
         id="ellipse598" />
    </g>
    <!-- 33 -->
    <g
       id="node34"
       class="node"
       transform="translate(3.2967418,-12.587559)">
      <title
         id="title601">33</title>
      <ellipse
         cx="145.147"
         cy="81.332901"
         rx="3.5"
         ry="3.5"
         id="ellipse603"
         d="m 148.647,81.332901 c 0,1.932997 -1.567,3.5 -3.5,3.5 -1.93299,0 -3.5,-1.567003 -3.5,-3.5 0,-1.932997 1.56701,-3.5 3.5,-3.5 1.933,0 3.5,1.567003 3.5,3.5 z"
         sodipodi:cx="145.147"
         sodipodi:cy="81.332901"
         sodipodi:rx="3.5"
         sodipodi:ry="3.5"
         style="fill:#00bfff;stroke:#000000" />
    </g>
    <!-- 33&#45;&gt;19 -->
    <g
       id="edge48"
       class="edge"
       transform="matrix(0.9594351,-0.2819296,0.2819296,0.9594351,-13.424481,31.535207)">
      <title
         id="title606">33-&gt;19</title>
      <path
         d="m 141.707,79.7421 c -6.94,-3.2096 -22.874,-10.578 -33.639,-15.5564"
         id="path608"
         inkscape:connector-curvature="0"
         style="fill:none;stroke:#000000" />
    </g>
    <!-- 35 -->
    <g
       id="node36"
       class="node">
      <title
         id="title611">35</title>
      <ellipse
         fill="#ff3030"
         stroke="black"
         cx="-156.28"
         cy="-333.577"
         rx="3.5"
         ry="3.5"
         id="ellipse613" />
    </g>
    <!-- anon_35_3_0 -->
    <g
       id="node67"
       class="node">
      <title
         id="title616">anon_35_3_0</title>
      <ellipse
         fill="white"
         stroke="black"
         cx="-109.019"
         cy="-302.352"
         rx="2.5"
         ry="2.5"
         id="ellipse618" />
    </g>
    <!-- 35&#45;&gt;anon_35_3_0 -->
    <g
       id="edge49"
       class="edge">
      <title
         id="title621">35-&gt;anon_35_3_0</title>
      <path
         fill="none"
         stroke="black"
         d="M-153.179,-331.528C-144.308,-325.667 -118.968,-308.925 -111.266,-303.837"
         id="path623" />
    </g>
    <!-- 37 -->
    <g
       id="node38"
       class="node">
      <title
         id="title626">37</title>
      <ellipse
         fill="#ff3030"
         stroke="black"
         cx="179.631"
         cy="160.004"
         rx="3.5"
         ry="3.5"
         id="ellipse628" />
    </g>
    <!-- 37&#45;&gt;anon_37_2_0 -->
    <g
       id="edge51"
       class="edge">
      <title
         id="title631">37-&gt;anon_37_2_0</title>
      <path
         fill="none"
         stroke="black"
         d="M176.595,158.124C168.577,153.163 146.965,139.79 139.772,135.339"
         id="path633" />
    </g>
    <!-- 38 -->
    <g
       id="node39"
       class="node">
      <title
         id="title636">38</title>
      <ellipse
         fill="#ff3030"
         stroke="black"
         cx="-126.986"
         cy="118.925"
         rx="3.5"
         ry="3.5"
         id="ellipse638" />
    </g>
    <!-- 38&#45;&gt;5 -->
    <g
       id="edge53"
       class="edge">
      <title
         id="title641">38-&gt;5</title>
      <path
         fill="none"
         stroke="black"
         d="M-123.66,117.327C-116.71,113.987 -100.243,106.073 -87.5866,99.9905"
         id="path643" />
    </g>
    <!-- 39 -->
    <g
       id="node40"
       class="node">
      <title
         id="title646">39</title>
      <ellipse
         fill="#ff3030"
         stroke="black"
         cx="-103.994"
         cy="144.542"
         rx="3.5"
         ry="3.5"
         id="ellipse648" />
    </g>
    <!-- 39&#45;&gt;5 -->
    <g
       id="edge54"
       class="edge">
      <title
         id="title651">39-&gt;5</title>
      <path
         fill="none"
         stroke="black"
         d="M-102.037,141.418C-97.9488,134.889 -88.262,119.422 -80.8164,107.533"
         id="path653" />
    </g>
    <!-- 40 -->
    <g
       id="node41"
       class="node">
      <title
         id="title656">40</title>
      <ellipse
         fill="deepskyblue"
         stroke="black"
         cx="-197.735"
         cy="-276.647"
         rx="3.5"
         ry="3.5"
         id="ellipse658" />
    </g>
    <!-- 40&#45;&gt;anon_40_3_0 -->
    <g
       id="edge55"
       class="edge">
      <title
         id="title661">40-&gt;anon_40_3_0</title>
      <path
         fill="none"
         stroke="black"
         d="M-194.308,-275.834C-185.259,-273.688 -160.866,-267.904 -152.749,-265.98"
         id="path663" />
    </g>
    <!-- 42 -->
    <g
       id="node43"
       class="node">
      <title
         id="title666">42</title>
      <ellipse
         fill="#1874cd"
         stroke="black"
         cx="-101.227"
         cy="-387.348"
         rx="3.5"
         ry="3.5"
         id="ellipse668" />
    </g>
    <!-- 42&#45;&gt;46 -->
    <g
       id="edge58"
       class="edge">
      <title
         id="title671">42-&gt;46</title>
      <path
         fill="none"
         stroke="black"
         d="M-99.6331,-383.9C-95.8177,-375.645 -86.198,-354.831 -82.4473,-346.716"
         id="path673" />
    </g>
    <!-- 43 -->
    <g
       id="node44"
       class="node"
       transform="translate(2.091812,-11.853602)">
      <title
         id="title676">43</title>
      <ellipse
         cx="-115.231"
         cy="-267.00601"
         rx="3.5"
         ry="3.5"
         id="ellipse678"
         d="m -111.731,-267.00601 c 0,1.93299 -1.56701,3.5 -3.5,3.5 -1.933,0 -3.5,-1.56701 -3.5,-3.5 0,-1.933 1.567,-3.5 3.5,-3.5 1.93299,0 3.5,1.567 3.5,3.5 z"
         sodipodi:cx="-115.231"
         sodipodi:cy="-267.00601"
         sodipodi:rx="3.5"
         sodipodi:ry="3.5"
         style="fill:#1874cd;stroke:#000000" />
    </g>
    <!-- 43&#45;&gt;3 -->
    <g
       id="edge59"
       class="edge"
       transform="matrix(0.98105041,0.19375265,-0.19375265,0.98105041,-51.678439,5.1698721)">
      <title
         id="title681">43-&gt;3</title>
      <path
         d="m -111.707,-266.805 c 6.556,0.374 21.2544,1.214 35.4566,2.025"
         id="path683"
         inkscape:connector-curvature="0"
         style="fill:none;stroke:#000000" />
    </g>
    <!-- 45 -->
    <g
       id="node46"
       class="node">
      <title
         id="title686">45</title>
      <ellipse
         fill="#1874cd"
         stroke="black"
         cx="-8.95621"
         cy="-390.309"
         rx="3.5"
         ry="3.5"
         id="ellipse688" />
    </g>
    <!-- anon_45_3_0 -->
    <g
       id="node70"
       class="node">
      <title
         id="title691">anon_45_3_0</title>
      <ellipse
         fill="white"
         stroke="black"
         cx="-30.2514"
         cy="-338.967"
         rx="2.5"
         ry="2.5"
         id="ellipse693" />
    </g>
    <!-- 45&#45;&gt;anon_45_3_0 -->
    <g
       id="edge60"
       class="edge">
      <title
         id="title696">45-&gt;anon_45_3_0</title>
      <path
         fill="none"
         stroke="black"
         d="M-10.3534,-386.94C-14.3508,-377.303 -25.7682,-349.776 -29.2386,-341.409"
         id="path698" />
    </g>
    <!-- 47 -->
    <g
       id="node48"
       class="node">
      <title
         id="title701">47</title>
      <ellipse
         fill="brown"
         stroke="black"
         cx="6.2813"
         cy="90.2075"
         rx="3.5"
         ry="3.5"
         id="ellipse703" />
    </g>
    <!-- 47&#45;&gt;6 -->
    <g
       id="edge62"
       class="edge">
      <title
         id="title706">47-&gt;6</title>
      <path
         fill="none"
         stroke="black"
         d="M6.58926,86.5993C7.07259,80.9364 8.05772,69.3941 9.05717,57.6842"
         id="path708" />
    </g>
    <!-- 48&#45;&gt;11 -->
    <g
       id="edge63"
       class="edge">
      <title
         id="title711">48-&gt;11</title>
      <path
         fill="none"
         stroke="black"
         d="M-32.2842,110.251C-38.166,116.04 -48.6404,126.348 -55.3029,132.905"
         id="path713" />
      <polygon
         fill="black"
         stroke="black"
         points="-54.0923,134.169 -58.8835,136.429 -56.5474,131.675 -54.0923,134.169"
         id="polygon715" />
      <text
         x="-9.8747931"
         y="170.39417"
         font-size="16.00"
         id="text717"
         style="font-size:16px;text-anchor:middle;font-family:monospace">P1874L</text>
    </g>
    <!-- 48&#45;&gt;32 -->
    <g
       id="edge64"
       class="edge">
      <title
         id="title720">48-&gt;32</title>
      <path
         fill="none"
         stroke="black"
         d="M-27.0261,111.982C-25.8654,120.017 -23.8071,134.266 -22.4783,143.464"
         id="path722" />
      <polygon
         fill="black"
         stroke="black"
         points="-20.7102,143.464 -21.7273,148.663 -24.1743,143.965 -20.7102,143.464"
         id="polygon724" />
      <text
         x="-63.220062"
         y="154.94527"
         font-size="16.00"
         id="text726"
         style="font-size:16px;text-anchor:middle;font-family:monospace">P1874S</text>
    </g>
    <!-- 49 -->
    <g
       id="node50"
       class="node">
      <title
         id="title729">49</title>
      <ellipse
         fill="brown"
         stroke="black"
         cx="-102.11"
         cy="64.0792"
         rx="3.5"
         ry="3.5"
         id="ellipse731" />
    </g>
    <!-- anon_49_6_0 -->
    <g
       id="node71"
       class="node">
      <title
         id="title734">anon_49_6_0</title>
      <ellipse
         fill="white"
         stroke="black"
         cx="-55.8918"
         cy="42.9182"
         rx="2.5"
         ry="2.5"
         id="ellipse736" />
    </g>
    <!-- 49&#45;&gt;anon_49_6_0 -->
    <g
       id="edge65"
       class="edge">
      <title
         id="title739">49-&gt;anon_49_6_0</title>
      <path
         fill="none"
         stroke="black"
         d="M-98.7859,62.5574C-90.01,58.5393 -66.3528,47.7078 -58.4798,44.1032"
         id="path741" />
    </g>
    <!-- 50&#45;&gt;41 -->
    <g
       id="edge57"
       class="edge">
      <title
         id="title744">50-&gt;41</title>
      <path
         fill="none"
         stroke="black"
         d="M-20.79,-105.803C-20.969,-114.905 -21.2558,-129.487 -21.4387,-138.786"
         id="path746" />
      <polygon
         fill="black"
         stroke="black"
         points="-23.193,-138.99 -21.5418,-144.024 -19.6937,-139.059 -23.193,-138.99"
         id="polygon748" />
      <text
         x="11.339402"
         y="-120.74264"
         font-size="16.00"
         id="text750"
         style="font-size:16px;text-anchor:middle;font-family:monospace">N1570Y</text>
    </g>
    <!-- 51 -->
    <g
       id="node52"
       class="node">
      <title
         id="title753">51</title>
      <ellipse
         fill="brown"
         stroke="black"
         cx="78.9993"
         cy="11.9293"
         rx="3.5"
         ry="3.5"
         id="ellipse755" />
    </g>
    <!-- 51&#45;&gt;6 -->
    <g
       id="edge67"
       class="edge">
      <title
         id="title758">51-&gt;6</title>
      <path
         fill="none"
         stroke="black"
         d="M75.3976,12.5297C69.6904,13.4811 58.0012,15.4297 46.1972,17.3975"
         id="path760" />
    </g>
    <!-- 52 -->
    <g
       id="node53"
       class="node">
      <title
         id="title763">52</title>
      <ellipse
         fill="brown"
         stroke="black"
         cx="-66.6825"
         cy="-84.3089"
         rx="3.5"
         ry="3.5"
         id="ellipse765" />
    </g>
    <!-- 52&#45;&gt;50 -->
    <g
       id="edge68"
       class="edge">
      <title
         id="title768">52-&gt;50</title>
      <path
         fill="none"
         stroke="black"
         d="M-63.0686,-85.3475C-55.6892,-87.4685 -38.7345,-92.3415 -28.63,-95.2456"
         id="path770" />
    </g>
    <!-- 53 -->
    <g
       id="node54"
       class="node">
      <title
         id="title773">53</title>
      <ellipse
         fill="brown"
         stroke="black"
         cx="-68.0007"
         cy="-103.931"
         rx="3.5"
         ry="3.5"
         id="ellipse775" />
    </g>
    <!-- 53&#45;&gt;50 -->
    <g
       id="edge69"
       class="edge">
      <title
         id="title778">53-&gt;50</title>
      <path
         fill="none"
         stroke="black"
         d="M-64.2834,-103.43C-56.6928,-102.407 -39.2527,-100.056 -28.859,-98.6551"
         id="path780" />
    </g>
    <!-- 54 -->
    <g
       id="node55"
       class="node">
      <title
         id="title783">54</title>
      <ellipse
         fill="brown"
         stroke="black"
         cx="47.3152"
         cy="81.3854"
         rx="3.5"
         ry="3.5"
         id="ellipse785" />
    </g>
    <!-- 54&#45;&gt;6 -->
    <g
       id="edge70"
       class="edge">
      <title
         id="title788">54-&gt;6</title>
      <path
         fill="none"
         stroke="black"
         d="M45.417,78.2516C42.4092,73.2857 36.2486,63.1148 30.0274,52.8441"
         id="path790" />
    </g>
    <!-- anon_15_23_1 -->
    <g
       id="node62"
       class="node">
      <title
         id="title793">anon_15_23_1</title>
      <ellipse
         fill="white"
         stroke="black"
         cx="21.4515"
         cy="317.941"
         rx="2.5"
         ry="2.5"
         id="ellipse795" />
    </g>
    <!-- anon_15_23_0&#45;&gt;anon_15_23_1 -->
    <g
       id="edge36"
       class="edge">
      <title
         id="title798">anon_15_23_0-&gt;anon_15_23_1</title>
      <path
         fill="none"
         stroke="black"
         d="M26.4866,276.799C25.6961,283.258 23.6218,300.207 22.3963,310.221"
         id="path800" />
      <polygon
         fill="black"
         stroke="black"
         points="24.1065,310.653 21.762,315.404 20.6324,310.228 24.1065,310.653"
         id="polygon802" />
      <text
         x="-4.0299726"
         y="298.63562"
         font-size="16.00"
         id="text804"
         style="font-size:16px;text-anchor:middle;font-family:monospace">Q545L</text>
    </g>
    <!-- anon_15_23_1&#45;&gt;23 -->
    <g
       id="edge37"
       class="edge">
      <title
         id="title807">anon_15_23_1-&gt;23</title>
      <path
         fill="none"
         stroke="black"
         d="M21.0943,320.693C20.1483,327.983 17.5763,347.804 16.4963,356.127"
         id="path809" />
    </g>
    <!-- anon_27_6_0&#45;&gt;anon_27_6_1 -->
    <g
       id="edge41"
       class="edge">
      <title
         id="title812">anon_27_6_0-&gt;anon_27_6_1</title>
      <path
         fill="none"
         stroke="black"
         d="M-129.523,35.0244C-120.562,32.1309 -90.698,22.4878 -81.5842,19.545"
         id="path814" />
    </g>
    <!-- anon_31_20_1 -->
    <g
       id="node66"
       class="node">
      <title
         id="title817">anon_31_20_1</title>
      <ellipse
         fill="white"
         stroke="black"
         cx="-230.697"
         cy="49.4536"
         rx="2.5"
         ry="2.5"
         id="ellipse819" />
    </g>
    <!-- anon_31_20_0&#45;&gt;anon_31_20_1 -->
    <g
       id="edge46"
       class="edge">
      <title
         id="title822">anon_31_20_0-&gt;anon_31_20_1</title>
      <path
         fill="none"
         stroke="black"
         d="M-186.544,29.4273C-193.508,32.5859 -213.259,41.5441 -223.826,46.3373"
         id="path824" />
      <polygon
         fill="black"
         stroke="black"
         points="-223.123,47.9397 -228.399,48.4113 -224.568,44.7522 -223.123,47.9397"
         id="polygon826" />
      <text
         x="-228.77567"
         y="32.682301"
         font-size="16.00"
         id="text828"
         style="font-size:16px;text-anchor:middle;font-family:monospace">T791M</text>
    </g>
    <!-- anon_31_20_1&#45;&gt;20 -->
    <g
       id="edge47"
       class="edge">
      <title
         id="title831">anon_31_20_1-&gt;20</title>
      <path
         fill="none"
         stroke="black"
         d="M-233.255,50.614C-238.867,53.1596 -252.466,59.3285 -261.368,63.3668"
         id="path833" />
      <polygon
         fill="black"
         stroke="black"
         points="-260.915,65.0825 -266.191,65.5544 -262.361,61.8951 -260.915,65.0825"
         id="polygon835" />
      <text
         x="-275.90268"
         y="55.427715"
         font-size="16.00"
         id="text837"
         style="font-size:16px;text-anchor:middle;font-family:monospace">L1366F</text>
    </g>
    <!-- anon_35_3_0&#45;&gt;3 -->
    <g
       id="edge50"
       class="edge">
      <title
         id="title840">anon_35_3_0-&gt;3</title>
      <path
         fill="none"
         stroke="black"
         d="M-106.795,-301.037C-101.176,-297.715 -85.8384,-288.648 -71.5151,-280.181"
         id="path842" />
    </g>
    <!-- anon_45_3_0&#45;&gt;3 -->
    <g
       id="edge61"
       class="edge">
      <title
         id="title845">anon_45_3_0-&gt;3</title>
      <path
         fill="none"
         stroke="black"
         d="M-30.6479,-336.434C-31.6416,-330.087 -34.3402,-312.848 -36.8761,-296.649"
         id="path847" />
    </g>
    <!-- anon_49_6_0&#45;&gt;6 -->
    <g
       id="edge66"
       class="edge">
      <title
         id="title850">anon_49_6_0-&gt;6</title>
      <path
         fill="none"
         stroke="black"
         d="M-53.3129,42.1654C-47.8381,40.5672 -34.4692,36.6646 -21.242,32.8033"
         id="path852" />
    </g>
    <g
       transform="matrix(0.9979423,0.06411839,-0.06411839,0.9979423,-160.56453,-328.72708)"
       id="edge52-6"
       class="edge">
      <title
         id="title86-7">2-&gt;anon_37_2_0</title>
      <polygon
         style="fill:#000000;stroke:#000000"
         points="135.323,132.178 130.342,130.376 132.552,127.663 132.552,127.663 "
         id="polygon90-3"
         transform="translate(26.496286,-37.652617)" />
    </g>
    <g
       transform="translate(53.269524,63.204177)"
       id="edge8-6"
       class="edge">
      <title
         id="title124-2">3-&gt;21</title>
      <path
         style="fill:none;stroke:#000000"
         inkscape:connector-curvature="0"
         d="m -62.4296,-290.839 c -3.5334,-4.884 -6.7126,-9.279 -8.7125,-12.043"
         id="path126-9" />
    </g>
    <g
       transform="matrix(0.99226943,-0.12410227,0.12410227,0.99226943,123.23819,267.03874)"
       id="edge8-6-1"
       class="edge">
      <title
         id="title124-2-2">3-&gt;21</title>
      <path
         style="fill:none;stroke:#000000"
         inkscape:connector-curvature="0"
         d="m -68.754774,-288.90171 c 1.596936,-5.81276 3.034248,-11.0432 3.937848,-14.333"
         id="path126-9-7" />
    </g>
  </g>
</svg>
