<?xml version="1.0" encoding="UTF-8" standalone="no"?>
<!DOCTYPE svg PUBLIC "-//W3C//DTD SVG 1.1//EN"
 "http://www.w3.org/Graphics/SVG/1.1/DTD/svg11.dtd">
<!-- Generated by graphviz version 2.38.0 (20140413.2041)
 -->
<!-- Title: %3 Pages: 1 -->
<svg width="202pt" height="128pt"
 viewBox="0.00 0.00 202.37 127.66" xmlns="http://www.w3.org/2000/svg" xmlns:xlink="http://www.w3.org/1999/xlink">
<g id="graph0" class="graph" transform="scale(1 1) rotate(0) translate(100.61 98.4733)">
<title>%3</title>
<polygon fill="white" stroke="none" points="-100.61,29.1872 -100.61,-98.4733 101.761,-98.4733 101.761,29.1872 -100.61,29.1872"/>
<!-- 0 -->
<g id="node1" class="node"><title>0</title>
<ellipse fill="#1874cd" stroke="black" cx="0.574614" cy="-34.6471" rx="11.5" ry="11.5"/>
</g>
<!-- 2 -->
<g id="node3" class="node"><title>2</title>
<ellipse fill="#1874cd" stroke="black" cx="-15.5604" cy="21.6872" rx="3.5" ry="3.5"/>
</g>
<!-- 0&#45;&gt;2 -->
<g id="edge3" class="edge"><title>0&#45;&gt;2</title>
<path fill="none" stroke="black" d="M-2.61315,-23.5173C-6.28678,-10.6911 -12.1227,9.68481 -14.5002,17.9855"/>
</g>
<!-- 3 -->
<g id="node4" class="node"><title>3</title>
<ellipse fill="#1874cd" stroke="black" cx="16.7193" cy="-90.9733" rx="3.5" ry="3.5"/>
</g>
<!-- 0&#45;&gt;3 -->
<g id="edge4" class="edge"><title>0&#45;&gt;3</title>
<path fill="none" stroke="black" d="M3.76429,-45.7754C7.44012,-58.5997 13.2796,-78.9727 15.6585,-87.2721"/>
</g>
<!-- anon_0_1_0 -->
<g id="node6" class="node"><title>anon_0_1_0</title>
<ellipse fill="white" stroke="black" cx="-52.482" cy="-49.8473" rx="2.5" ry="2.5"/>
</g>
<!-- 0&#45;&gt;anon_0_1_0 -->
<g id="edge1" class="edge"><title>0&#45;&gt;anon_0_1_0</title>
<path fill="none" stroke="black" d="M-10.6773,-37.8707C-23.3314,-41.496 -43.0202,-47.1366 -49.9587,-49.1244"/>
</g>
<!-- anon_0_4_0 -->
<g id="node7" class="node"><title>anon_0_4_0</title>
<ellipse fill="white" stroke="black" cx="53.6334" cy="-19.4429" rx="2.5" ry="2.5"/>
</g>
<!-- 0&#45;&gt;anon_0_4_0 -->
<g id="edge5" class="edge"><title>0&#45;&gt;anon_0_4_0</title>
<path fill="none" stroke="black" d="M11.827,-31.4227C24.4817,-27.7965 44.1713,-22.1543 51.11,-20.166"/>
</g>
<!-- 1 -->
<g id="node2" class="node"><title>1</title>
<ellipse fill="#1874cd" stroke="black" cx="-93.1105" cy="-61.4885" rx="3.5" ry="3.5"/>
</g>
<!-- 4 -->
<g id="node5" class="node"><title>4</title>
<ellipse fill="#1874cd" stroke="black" cx="94.2608" cy="-7.80239" rx="3.5" ry="3.5"/>
</g>
<!-- anon_0_1_0&#45;&gt;1 -->
<g id="edge2" class="edge"><title>anon_0_1_0&#45;&gt;1</title>
<path fill="none" stroke="black" d="M-55.1477,-50.6111C-62.2093,-52.6344 -81.4078,-58.1354 -89.4692,-60.4452"/>
</g>
<!-- anon_0_4_0&#45;&gt;4 -->
<g id="edge6" class="edge"><title>anon_0_4_0&#45;&gt;4</title>
<path fill="none" stroke="black" d="M56.2991,-18.6792C63.3604,-16.656 82.5584,-11.1554 90.6196,-8.84566"/>
</g>
</g>
</svg>
