<?xml version="1.0" encoding="UTF-8" standalone="no"?>
<!DOCTYPE svg PUBLIC "-//W3C//DTD SVG 1.1//EN"
 "http://www.w3.org/Graphics/SVG/1.1/DTD/svg11.dtd">
<!-- Generated by graphviz version 2.38.0 (20140413.2041)
 -->
<!-- Title: %3 Pages: 1 -->
<svg width="249pt" height="274pt"
 viewBox="0.00 0.00 248.58 274.08" xmlns="http://www.w3.org/2000/svg" xmlns:xlink="http://www.w3.org/1999/xlink">
<g id="graph0" class="graph" transform="scale(1 1) rotate(0) translate(115.269 168.257)">
<title>%3</title>
<polygon fill="white" stroke="none" points="-115.269,105.824 -115.269,-168.257 133.309,-168.257 133.309,105.824 -115.269,105.824"/>
<!-- 0 -->
<g id="node1" class="node"><title>0</title>
<ellipse fill="#1874cd" stroke="black" cx="-45.9641" cy="-99.5529" rx="21.5" ry="21.5"/>
</g>
<!-- 4 -->
<g id="node5" class="node"><title>4</title>
<ellipse fill="#1874cd" stroke="black" cx="-107.769" cy="-75.314" rx="3.5" ry="3.5"/>
</g>
<!-- 0&#45;&gt;4 -->
<g id="edge4" class="edge"><title>0&#45;&gt;4</title>
<path fill="none" stroke="black" d="M-66.2013,-91.6162C-80.0016,-86.2039 -97.0363,-79.5232 -104.263,-76.6889"/>
</g>
<!-- anon_0_1_0 -->
<g id="node7" class="node"><title>anon_0_1_0</title>
<ellipse fill="white" stroke="black" cx="7.89454" cy="-64.8518" rx="2.5" ry="2.5"/>
</g>
<!-- 0&#45;&gt;anon_0_1_0 -->
<g id="edge1" class="edge"><title>0&#45;&gt;anon_0_1_0</title>
<path fill="none" stroke="black" d="M-27.7301,-87.8047C-15.279,-79.7825 -0.049857,-69.9704 5.62326,-66.3152"/>
</g>
<!-- 1 -->
<g id="node2" class="node"><title>1</title>
<ellipse fill="#1874cd" stroke="black" cx="74.0747" cy="-2.77659" rx="9" ry="9"/>
</g>
<!-- 3 -->
<g id="node4" class="node"><title>3</title>
<ellipse fill="#1874cd" stroke="black" cx="125.809" cy="-17.0659" rx="3.5" ry="3.5"/>
</g>
<!-- 1&#45;&gt;3 -->
<g id="edge7" class="edge"><title>1&#45;&gt;3</title>
<path fill="none" stroke="black" d="M83.0861,-5.26559C94.666,-8.46401 114.228,-13.8672 122.233,-16.0781"/>
</g>
<!-- anon_1_2_0 -->
<g id="node9" class="node"><title>anon_1_2_0</title>
<ellipse fill="white" stroke="black" cx="68.2302" cy="48.9435" rx="2.5" ry="2.5"/>
</g>
<!-- 1&#45;&gt;anon_1_2_0 -->
<g id="edge5" class="edge"><title>1&#45;&gt;anon_1_2_0</title>
<path fill="none" stroke="black" d="M73.0567,6.23236C71.6961,18.2721 69.3603,38.9433 68.5321,46.2717"/>
</g>
<!-- 2 -->
<g id="node3" class="node"><title>2</title>
<ellipse fill="#1874cd" stroke="black" cx="50.2052" cy="92.8241" rx="9" ry="9"/>
</g>
<!-- 5 -->
<g id="node6" class="node"><title>5</title>
<ellipse fill="#1874cd" stroke="black" cx="-42.7544" cy="-160.757" rx="3.5" ry="3.5"/>
</g>
<!-- 5&#45;&gt;0 -->
<g id="edge8" class="edge"><title>5&#45;&gt;0</title>
<path fill="none" stroke="black" d="M-42.9456,-157.111C-43.3127,-150.112 -44.1417,-134.305 -44.8382,-121.023"/>
</g>
<!-- anon_0_1_1 -->
<g id="node8" class="node"><title>anon_0_1_1</title>
<ellipse fill="white" stroke="black" cx="40.5918" cy="-36.9342" rx="2.5" ry="2.5"/>
</g>
<!-- anon_0_1_0&#45;&gt;anon_0_1_1 -->
<g id="edge2" class="edge"><title>anon_0_1_0&#45;&gt;anon_0_1_1</title>
<path fill="none" stroke="black" d="M10.0399,-63.02C15.9502,-57.9737 32.4253,-43.9069 38.3956,-38.8093"/>
</g>
<!-- anon_0_1_1&#45;&gt;1 -->
<g id="edge3" class="edge"><title>anon_0_1_1&#45;&gt;1</title>
<path fill="none" stroke="black" d="M42.392,-35.0978C47.0647,-30.3309 59.7605,-17.3792 67.5891,-9.39289"/>
</g>
<!-- anon_1_2_0&#45;&gt;2 -->
<g id="edge6" class="edge"><title>anon_1_2_0&#45;&gt;2</title>
<path fill="none" stroke="black" d="M67.2611,51.3027C64.7456,57.4264 57.911,74.0648 53.6966,84.3244"/>
</g>
</g>
</svg>
