<?xml version="1.0" encoding="UTF-8" standalone="no"?>
<!DOCTYPE svg PUBLIC "-//W3C//DTD SVG 1.1//EN"
 "http://www.w3.org/Graphics/SVG/1.1/DTD/svg11.dtd">
<!-- Generated by graphviz version 2.38.0 (20140413.2041)
 -->
<!-- Title: %3 Pages: 1 -->
<svg width="254pt" height="171pt"
 viewBox="0.00 0.00 253.89 171.10" xmlns="http://www.w3.org/2000/svg" xmlns:xlink="http://www.w3.org/1999/xlink">
<g id="graph0" class="graph" transform="scale(1 1) rotate(0) translate(70.7022 113.24)">
<title>%3</title>
<polygon fill="white" stroke="none" points="-70.7022,57.8592 -70.7022,-113.24 183.192,-113.24 183.192,57.8592 -70.7022,57.8592"/>
<!-- 0 -->
<g id="node1" class="node"><title>0</title>
<ellipse fill="#1874cd" stroke="black" cx="-5.53796" cy="-41.9813" rx="21.5" ry="21.5"/>
</g>
<!-- 4 -->
<g id="node5" class="node"><title>4</title>
<ellipse fill="#1874cd" stroke="black" cx="-29.2038" cy="-105.74" rx="3.5" ry="3.5"/>
</g>
<!-- 0&#45;&gt;4 -->
<g id="edge1" class="edge"><title>0&#45;&gt;4</title>
<path fill="none" stroke="black" d="M-13.026,-62.1548C-18.3343,-76.4561 -24.9974,-94.4071 -27.8292,-102.036"/>
</g>
<!-- 5 -->
<g id="node6" class="node"><title>5</title>
<ellipse fill="#1874cd" stroke="black" cx="-63.2022" cy="-7.60474" rx="3.5" ry="3.5"/>
</g>
<!-- 0&#45;&gt;5 -->
<g id="edge2" class="edge"><title>0&#45;&gt;5</title>
<path fill="none" stroke="black" d="M-24.1007,-30.9151C-37.0069,-23.2211 -53.0711,-13.6444 -59.8922,-9.57801"/>
</g>
<!-- 1 -->
<g id="node2" class="node"><title>1</title>
<ellipse fill="#1874cd" stroke="black" cx="135.364" cy="-27.617" rx="9" ry="9"/>
</g>
<!-- 3 -->
<g id="node4" class="node"><title>3</title>
<ellipse fill="#1874cd" stroke="black" cx="175.692" cy="-57.764" rx="3.5" ry="3.5"/>
</g>
<!-- 1&#45;&gt;3 -->
<g id="edge5" class="edge"><title>1&#45;&gt;3</title>
<path fill="none" stroke="black" d="M142.76,-33.1464C151.674,-39.8098 166.243,-50.7003 172.582,-55.4392"/>
</g>
<!-- 2 -->
<g id="node3" class="node"><title>2</title>
<ellipse fill="#1874cd" stroke="black" cx="102.079" cy="44.8592" rx="9" ry="9"/>
</g>
<!-- 6 -->
<g id="node7" class="node"><title>6</title>
<ellipse fill="white" stroke="black" cx="94.4789" cy="-2.52409" rx="2.5" ry="2.5"/>
</g>
<!-- 6&#45;&gt;1 -->
<g id="edge6" class="edge"><title>6&#45;&gt;1</title>
<path fill="none" stroke="black" d="M96.677,-3.87319C101.58,-6.8826 113.719,-14.3326 123.103,-20.0919"/>
<polygon fill="black" stroke="black" points="122.267,-21.6326 127.444,-22.7565 124.098,-18.6496 122.267,-21.6326"/>
<text text-anchor="middle" x="86.8899" y="-15.3825" font-family="monospace" font-size="12.00">S1683I</text>
</g>
<!-- 6&#45;&gt;2 -->
<g id="edge7" class="edge"><title>6&#45;&gt;2</title>
<path fill="none" stroke="black" d="M94.8875,0.0234446C95.7991,5.70614 98.0556,19.774 99.8001,30.6494"/>
<polygon fill="black" stroke="black" points="101.543,30.467 100.607,35.6811 98.0873,31.0214 101.543,30.467"/>
<text text-anchor="middle" x="78.3438" y="11.9364" font-family="monospace" font-size="12.00">G317S</text>
</g>
<!-- anon_0_6_0 -->
<g id="node8" class="node"><title>anon_0_6_0</title>
<ellipse fill="white" stroke="black" cx="50.975" cy="-20.0347" rx="2.5" ry="2.5"/>
</g>
<!-- 6&#45;&gt;anon_0_6_0 -->
<g id="edge4" class="edge"><title>6&#45;&gt;anon_0_6_0</title>
<path fill="none" stroke="black" d="M92.1399,-3.46553C85.8261,-6.00691 68.2379,-13.0863 58.2133,-17.1212"/>
<polygon fill="black" stroke="black" points="57.5269,-15.511 53.542,-19.0015 58.8338,-18.7579 57.5269,-15.511"/>
<text text-anchor="middle" x="52.1766" y="-0.693367" font-family="monospace" font-size="12.00">I1940T</text>
</g>
<!-- anon_0_6_0&#45;&gt;0 -->
<g id="edge3" class="edge"><title>anon_0_6_0&#45;&gt;0</title>
<path fill="none" stroke="black" d="M48.5467,-20.9777C43.4446,-22.9591 31.1227,-27.7442 19.5271,-32.2474"/>
<polygon fill="black" stroke="black" points="18.6525,-30.7096 14.6252,-34.151 19.9196,-33.9722 18.6525,-30.7096"/>
<text text-anchor="middle" x="53.0369" y="-30.0125" font-family="monospace" font-size="12.00">D466H</text>
</g>
</g>
</svg>
