<?xml version="1.0" encoding="UTF-8" standalone="no"?>
<!DOCTYPE svg PUBLIC "-//W3C//DTD SVG 1.1//EN"
 "http://www.w3.org/Graphics/SVG/1.1/DTD/svg11.dtd">
<!-- Generated by graphviz version 2.38.0 (20140413.2041)
 -->
<!-- Title: %3 Pages: 1 -->
<svg width="442pt" height="344pt"
 viewBox="0.00 0.00 442.02 343.64" xmlns="http://www.w3.org/2000/svg" xmlns:xlink="http://www.w3.org/1999/xlink">
<g id="graph0" class="graph" transform="scale(1 1) rotate(0) translate(151.969 239.27)">
<title>%3</title>
<polygon fill="white" stroke="none" points="-151.969,104.373 -151.969,-239.27 290.048,-239.27 290.048,104.373 -151.969,104.373"/>
<!-- 0 -->
<g id="node1" class="node"><title>0</title>
<path fill="olivedrab" stroke="black" stroke-width="0.5" d="M42.6115,-74.7351C42.6115,-74.7351 88.6115,-74.7351 88.6115,-74.7351 88.6115,-76.3709 88.5242,-78.0056 88.3501,-79.6321 88.1759,-81.2586 87.9152,-82.8747 87.5688,-84.4734 87.2225,-86.0722 86.7912,-87.6513 86.2767,-89.2041 85.7621,-90.7569 85.1651,-92.2812 84.4882,-93.7704 83.8113,-95.2596 83.0554,-96.7116 82.2238,-98.1203 81.3922,-99.5289 80.486,-100.892 79.5092,-102.204 78.5323,-103.516 77.4862,-104.776 76.3752,-105.976 75.2642,-107.177 74.09,-108.318 72.8575,-109.393 72.8575,-109.393 42.6115,-74.7351 42.6115,-74.7351"/>
<path fill="#1874cd" stroke="black" stroke-width="0.5" d="M42.6115,-74.7351C42.6115,-74.7351 72.8575,-109.393 72.8575,-109.393 71.8772,-110.249 70.861,-111.062 69.8117,-111.832 68.7625,-112.601 67.681,-113.325 66.5703,-114.003 65.4596,-114.681 64.3207,-115.311 63.1565,-115.892 61.9924,-116.473 60.8042,-117.005 59.595,-117.485 58.3858,-117.965 57.1568,-118.394 55.9112,-118.77 54.6657,-119.147 53.4047,-119.47 52.1318,-119.739 50.8589,-120.008 49.5751,-120.224 48.2839,-120.384 46.9927,-120.544 45.6953,-120.65 44.3952,-120.7 43.095,-120.751 41.7933,-120.746 40.4936,-120.686 39.1939,-120.626 37.8973,-120.511 36.6073,-120.342 35.3173,-120.172 34.0351,-119.947 32.7642,-119.669 31.4932,-119.39 30.2347,-119.058 28.9919,-118.673 27.7491,-118.287 26.5232,-117.85 25.3176,-117.36 24.1119,-116.871 22.9276,-116.331 21.7677,-115.742 20.6078,-115.152 19.4735,-114.514 18.3677,-113.828 17.262,-113.142 16.1858,-112.41 15.1422,-111.633 14.0985,-110.856 13.0883,-110.035 12.1143,-109.172 11.1402,-108.31 10.2032,-107.406 9.30574,-106.464 8.40828,-105.522 7.5512,-104.542 6.73681,-103.528 5.92241,-102.513 5.15143,-101.464 4.42595,-100.384 3.70047,-99.3039 3.02114,-98.1935 2.3898,-97.0558 1.75846,-95.9181 1.17567,-94.7542 0.643003,-93.5671 0.110338,-92.38 -0.371723,-91.1709 -0.801878,-89.9429 -1.23203,-88.715 -1.6099,-87.4693 -1.93445,-86.2094 -2.259,-84.9494 -2.52994,-83.6762 -2.74656,-82.3932 -2.96317,-81.1103 -3.12525,-79.8187 -3.23236,-78.522 -3.33948,-77.2253 -3.39153,-75.9247 -3.38837,-74.6236 -3.38522,-73.3225 -3.32686,-72.0221 -3.21347,-70.7259 -3.10007,-69.4297 -2.93172,-68.139 -2.7089,-66.8571 -2.48607,-65.5752 -2.20895,-64.3033 -1.8783,-63.0449 -1.54764,-61.7866 -1.16374,-60.5428 -0.727639,-59.3169 -0.291536,-58.0911 0.196381,-56.8843 0.734795,-55.6998 1.27321,-54.5153 1.86164,-53.3542 2.49849,-52.2196 3.13534,-51.085 3.82004,-49.9779 4.55075,-48.9014 5.28146,-47.8248 6.05751,-46.7798 6.87682,-45.769 7.69612,-44.7582 8.55794,-43.7827 9.45995,-42.845 10.362,-41.9073 11.3034,-41.0083 12.2816,-40.1504 13.2598,-39.2926 14.274,-38.4766 15.3214,-37.7047 16.3688,-36.9328 17.4485,-36.2056 18.5575,-35.5253 19.6666,-34.8449 20.804,-34.2119 21.9667,-33.628 23.1294,-33.044 24.3164,-32.5097 25.5244,-32.0264 26.7324,-31.5431 27.9604,-31.1112 29.2051,-30.732 30.4497,-30.3528 31.7098,-30.0266 32.9821,-29.7542 34.2544,-29.4819 35.5377,-29.2636 36.8285,-29.1 38.1193,-28.9365 39.4164,-28.8277 40.7164,-28.7741 42.0164,-28.7205 43.3181,-28.7221 44.618,-28.7789 45.9179,-28.8356 47.2147,-28.9475 48.5051,-29.1142 49.7955,-29.2809 51.0782,-29.5023 52.3499,-29.7777 53.6215,-30.0532 54.8809,-30.3824 56.1246,-30.7647 57.3683,-31.1469 58.5952,-31.5817 59.802,-32.0679 61.0089,-32.5542 62.1945,-33.0914 63.3558,-33.6781 64.5171,-34.2649 65.653,-34.9006 66.7604,-35.5837 67.8678,-36.2668 68.9457,-36.9965 69.9913,-37.7709 71.0368,-38.5454 72.049,-39.3638 73.0251,-40.2241 74.0013,-41.0843 74.9405,-41.9856 75.8402,-42.9255 76.74,-43.8653 77.5994,-44.843 78.4163,-45.8557 79.2331,-46.8685 80.0066,-47.9154 80.7347,-48.9937 81.4628,-50.072 82.1449,-51.1808 82.779,-52.3169 83.4131,-53.453 83.9987,-54.6156 84.5342,-55.8013 85.0697,-56.9871 85.5547,-58.1951 85.9879,-59.422 86.421,-60.6489 86.8019,-61.8936 87.1295,-63.1528 87.4571,-64.412 87.7311,-65.6845 87.9508,-66.967 88.1706,-68.2494 88.3358,-69.5406 88.446,-70.837 88.5563,-72.1334 88.6115,-73.434 88.6115,-74.7351 88.6115,-74.7351 42.6115,-74.7351 42.6115,-74.7351"/>
<ellipse fill="none" stroke="black" cx="42.6115" cy="-74.7351" rx="46" ry="46"/>
</g>
<!-- 1 -->
<g id="node2" class="node"><title>1</title>
<ellipse fill="#1874cd" stroke="black" cx="-15.487" cy="-177.269" rx="3.5" ry="3.5"/>
</g>
<!-- 0&#45;&gt;1 -->
<g id="edge1" class="edge"><title>0&#45;&gt;1</title>
<path fill="none" stroke="black" d="M19.8162,-114.965C6.59144,-138.305 -8.44869,-164.848 -13.6238,-173.981"/>
</g>
<!-- 24 -->
<g id="node25" class="node"><title>24</title>
<ellipse fill="#1874cd" stroke="black" cx="37.7717" cy="-17.8683" rx="3.5" ry="3.5"/>
</g>
<!-- 0&#45;&gt;24 -->
<g id="edge10" class="edge"><title>0&#45;&gt;24</title>
<path fill="none" stroke="black" d="M38.7048,-28.8328C38.4641,-26.0038 38.2553,-23.5515 38.0967,-21.6878"/>
</g>
<!-- 26 -->
<g id="node27" class="node"><title>26</title>
<ellipse fill="#1874cd" stroke="black" cx="17.3269" cy="32.9409" rx="3.5" ry="3.5"/>
</g>
<!-- 0&#45;&gt;26 -->
<g id="edge11" class="edge"><title>0&#45;&gt;26</title>
<path fill="none" stroke="black" d="M32.0351,-29.6947C26.4597,-5.95157 20.3333,20.1379 18.1529,29.4233"/>
</g>
<!-- 27 -->
<g id="node28" class="node"><title>27</title>
<ellipse fill="olivedrab" stroke="black" cx="25.8525" cy="-194.818" rx="3.5" ry="3.5"/>
</g>
<!-- 0&#45;&gt;27 -->
<g id="edge12" class="edge"><title>0&#45;&gt;27</title>
<path fill="none" stroke="black" d="M36.2278,-120.476C32.3428,-148.314 27.8499,-180.506 26.3608,-191.176"/>
</g>
<!-- 28 -->
<g id="node29" class="node"><title>28</title>
<ellipse fill="olivedrab" stroke="black" cx="135.397" cy="-103.315" rx="3.5" ry="3.5"/>
</g>
<!-- 0&#45;&gt;28 -->
<g id="edge13" class="edge"><title>0&#45;&gt;28</title>
<path fill="none" stroke="black" d="M86.8305,-88.3555C105.127,-93.9914 123.876,-99.7665 131.66,-102.164"/>
</g>
<!-- anon_0_6_0 -->
<g id="node30" class="node"><title>anon_0_6_0</title>
<ellipse fill="white" stroke="black" cx="-71.4492" cy="-135.344" rx="2.5" ry="2.5"/>
</g>
<!-- 0&#45;&gt;anon_0_6_0 -->
<g id="edge2" class="edge"><title>0&#45;&gt;anon_0_6_0</title>
<path fill="none" stroke="black" d="M1.75513,-96.445C-26.3709,-111.39 -60.2186,-129.376 -69.182,-134.139"/>
</g>
<!-- anon_0_10_0 -->
<g id="node32" class="node"><title>anon_0_10_0</title>
<ellipse fill="white" stroke="black" cx="57.2094" cy="53.9978" rx="2.5" ry="2.5"/>
</g>
<!-- 0&#45;&gt;anon_0_10_0 -->
<g id="edge5" class="edge"><title>0&#45;&gt;anon_0_10_0</title>
<path fill="none" stroke="black" d="M47.7993,-28.9862C51.4051,2.81201 55.763,41.2429 56.9174,51.4227"/>
</g>
<!-- anon_0_12_0 -->
<g id="node33" class="node"><title>anon_0_12_0</title>
<ellipse fill="white" stroke="black" cx="141.151" cy="9.54926" rx="2.5" ry="2.5"/>
</g>
<!-- 0&#45;&gt;anon_0_12_0 -->
<g id="edge7" class="edge"><title>0&#45;&gt;anon_0_12_0</title>
<path fill="none" stroke="black" d="M77.6302,-44.7822C101.97,-23.9633 131.387,1.19829 139.18,7.86328"/>
</g>
<!-- 2 -->
<g id="node3" class="node"><title>2</title>
<ellipse fill="#1874cd" stroke="black" cx="144.445" cy="-96.1983" rx="3.5" ry="3.5"/>
</g>
<!-- 2&#45;&gt;0 -->
<g id="edge14" class="edge"><title>2&#45;&gt;0</title>
<path fill="none" stroke="black" d="M140.577,-95.3831C131.713,-93.5148 109.048,-88.7378 87.7497,-84.2488"/>
</g>
<!-- anon_2_8_0 -->
<g id="node35" class="node"><title>anon_2_8_0</title>
<ellipse fill="white" stroke="black" cx="202.538" cy="-122.666" rx="2.5" ry="2.5"/>
</g>
<!-- 2&#45;&gt;anon_2_8_0 -->
<g id="edge15" class="edge"><title>2&#45;&gt;anon_2_8_0</title>
<path fill="none" stroke="black" d="M147.905,-97.7747C158.653,-102.672 191.275,-117.535 200.238,-121.619"/>
</g>
<!-- 3 -->
<g id="node4" class="node"><title>3</title>
<ellipse fill="#1874cd" stroke="black" cx="-41.0592" cy="-54.5038" rx="3.5" ry="3.5"/>
</g>
<!-- 3&#45;&gt;0 -->
<g id="edge18" class="edge"><title>3&#45;&gt;0</title>
<path fill="none" stroke="black" d="M-37.464,-55.3731C-31.0204,-56.9311 -16.7993,-60.3698 -2.10212,-63.9235"/>
</g>
<!-- 4 -->
<g id="node5" class="node"><title>4</title>
<ellipse fill="#1874cd" stroke="black" cx="104.104" cy="-138.215" rx="3.5" ry="3.5"/>
</g>
<!-- 4&#45;&gt;0 -->
<g id="edge19" class="edge"><title>4&#45;&gt;0</title>
<path fill="none" stroke="black" d="M101.462,-135.487C96.6341,-130.504 85.8664,-119.388 74.8435,-108.009"/>
</g>
<!-- 5 -->
<g id="node6" class="node"><title>5</title>
<ellipse fill="#1874cd" stroke="black" cx="10.4482" cy="-153.246" rx="3.5" ry="3.5"/>
</g>
<!-- 5&#45;&gt;0 -->
<g id="edge20" class="edge"><title>5&#45;&gt;0</title>
<path fill="none" stroke="black" d="M11.8302,-149.873C14.259,-143.944 19.5626,-130.998 25.0945,-117.494"/>
</g>
<!-- 6 -->
<g id="node7" class="node"><title>6</title>
<ellipse fill="#1874cd" stroke="black" cx="-144.469" cy="-187.015" rx="3.5" ry="3.5"/>
</g>
<!-- 7 -->
<g id="node8" class="node"><title>7</title>
<ellipse fill="#1874cd" stroke="black" cx="116.209" cy="-118.746" rx="3.5" ry="3.5"/>
</g>
<!-- 7&#45;&gt;0 -->
<g id="edge21" class="edge"><title>7&#45;&gt;0</title>
<path fill="none" stroke="black" d="M113.047,-116.855C107.434,-113.498 95.112,-106.13 82.3184,-98.4795"/>
</g>
<!-- 8 -->
<g id="node9" class="node"><title>8</title>
<ellipse fill="#1874cd" stroke="black" cx="282.548" cy="-164.43" rx="3.5" ry="3.5"/>
</g>
<!-- 9 -->
<g id="node10" class="node"><title>9</title>
<ellipse fill="#1874cd" stroke="black" cx="69.0795" cy="-160.18" rx="5" ry="5"/>
</g>
<!-- 9&#45;&gt;0 -->
<g id="edge22" class="edge"><title>9&#45;&gt;0</title>
<path fill="none" stroke="black" d="M67.5031,-155.091C65.2328,-147.761 60.82,-133.516 56.3325,-119.029"/>
</g>
<!-- 10 -->
<g id="node11" class="node"><title>10</title>
<ellipse fill="#1874cd" stroke="black" cx="58.0485" cy="96.8727" rx="3.5" ry="3.5"/>
</g>
<!-- 11 -->
<g id="node12" class="node"><title>11</title>
<ellipse fill="#1874cd" stroke="black" cx="-52.8486" cy="-27.8629" rx="3.5" ry="3.5"/>
</g>
<!-- 11&#45;&gt;0 -->
<g id="edge23" class="edge"><title>11&#45;&gt;0</title>
<path fill="none" stroke="black" d="M-49.6724,-29.4225C-41.5846,-33.3937 -19.3929,-44.2901 1.20116,-54.4021"/>
</g>
<!-- 12 -->
<g id="node13" class="node"><title>12</title>
<ellipse fill="#1874cd" stroke="black" cx="204.501" cy="73.1013" rx="3.5" ry="3.5"/>
</g>
<!-- 13 -->
<g id="node14" class="node"><title>13</title>
<ellipse fill="#1874cd" stroke="black" cx="-37.4467" cy="-105.305" rx="3.5" ry="3.5"/>
</g>
<!-- 13&#45;&gt;0 -->
<g id="edge24" class="edge"><title>13&#45;&gt;0</title>
<path fill="none" stroke="black" d="M-34.0067,-103.992C-27.9012,-101.66 -14.4977,-96.5421 -0.58103,-91.2281"/>
</g>
<!-- 14 -->
<g id="node15" class="node"><title>14</title>
<ellipse fill="#1874cd" stroke="black" cx="-20.2616" cy="-16.0232" rx="3.5" ry="3.5"/>
</g>
<!-- 14&#45;&gt;0 -->
<g id="edge25" class="edge"><title>14&#45;&gt;0</title>
<path fill="none" stroke="black" d="M-17.56,-18.5459C-12.7651,-23.0235 -2.23874,-32.8532 8.69059,-43.0592"/>
</g>
<!-- 15 -->
<g id="node16" class="node"><title>15</title>
<ellipse fill="#1874cd" stroke="black" cx="-44.3906" cy="-79.2834" rx="3.5" ry="3.5"/>
</g>
<!-- 15&#45;&gt;0 -->
<g id="edge26" class="edge"><title>15&#45;&gt;0</title>
<path fill="none" stroke="black" d="M-40.6523,-79.088C-33.8871,-78.7343 -18.8768,-77.9496 -3.43716,-77.1424"/>
</g>
<!-- 16 -->
<g id="node17" class="node"><title>16</title>
<ellipse fill="#1874cd" stroke="black" cx="-142.385" cy="17.0452" rx="3.5" ry="3.5"/>
</g>
<!-- anon_16_11_0 -->
<g id="node37" class="node"><title>anon_16_11_0</title>
<ellipse fill="white" stroke="black" cx="-93.6451" cy="-8.21361" rx="2.5" ry="2.5"/>
</g>
<!-- 16&#45;&gt;anon_16_11_0 -->
<g id="edge27" class="edge"><title>16&#45;&gt;anon_16_11_0</title>
<path fill="none" stroke="black" d="M-139.187,15.3879C-130.038,10.6465 -103.906,-2.89603 -95.9632,-7.01232"/>
</g>
<!-- 17 -->
<g id="node18" class="node"><title>17</title>
<ellipse fill="#1874cd" stroke="black" cx="87.9047" cy="-150.48" rx="3.5" ry="3.5"/>
</g>
<!-- 17&#45;&gt;0 -->
<g id="edge29" class="edge"><title>17&#45;&gt;0</title>
<path fill="none" stroke="black" d="M85.9585,-147.226C82.4027,-141.279 74.4716,-128.016 66.3524,-114.438"/>
</g>
<!-- 18 -->
<g id="node19" class="node"><title>18</title>
<ellipse fill="#1874cd" stroke="black" cx="67.7164" cy="-231.77" rx="3.5" ry="3.5"/>
</g>
<!-- anon_18_0_0 -->
<g id="node38" class="node"><title>anon_18_0_0</title>
<ellipse fill="white" stroke="black" cx="52.9673" cy="-169.972" rx="2.5" ry="2.5"/>
</g>
<!-- 18&#45;&gt;anon_18_0_0 -->
<g id="edge30" class="edge"><title>18&#45;&gt;anon_18_0_0</title>
<path fill="none" stroke="black" d="M66.838,-228.089C64.1093,-216.656 55.8267,-181.953 53.5511,-172.419"/>
</g>
<!-- 19 -->
<g id="node20" class="node"><title>19</title>
<ellipse fill="#1874cd" stroke="black" cx="95.739" cy="-3.91109" rx="5" ry="5"/>
</g>
<!-- 19&#45;&gt;0 -->
<g id="edge32" class="edge"><title>19&#45;&gt;0</title>
<path fill="none" stroke="black" d="M92.5747,-8.12935C88.0623,-14.1448 79.3335,-25.7812 70.4176,-37.6669"/>
</g>
<!-- 20 -->
<g id="node21" class="node"><title>20</title>
<ellipse fill="#1874cd" stroke="black" cx="116.987" cy="-31.0205" rx="3.5" ry="3.5"/>
</g>
<!-- 20&#45;&gt;0 -->
<g id="edge33" class="edge"><title>20&#45;&gt;0</title>
<path fill="none" stroke="black" d="M113.791,-32.8989C108.063,-36.2654 95.422,-43.6954 82.3576,-51.374"/>
</g>
<!-- 21 -->
<g id="node22" class="node"><title>21</title>
<ellipse fill="#1874cd" stroke="black" cx="66.7166" cy="8.42773" rx="3.5" ry="3.5"/>
</g>
<!-- 21&#45;&gt;0 -->
<g id="edge34" class="edge"><title>21&#45;&gt;0</title>
<path fill="none" stroke="black" d="M65.6808,4.85433C63.8245,-1.55013 59.7274,-15.685 55.4932,-30.2929"/>
</g>
<!-- 22 -->
<g id="node23" class="node"><title>22</title>
<ellipse fill="#1874cd" stroke="black" cx="127.319" cy="-54.8139" rx="3.5" ry="3.5"/>
</g>
<!-- 22&#45;&gt;0 -->
<g id="edge35" class="edge"><title>22&#45;&gt;0</title>
<path fill="none" stroke="black" d="M123.68,-55.6699C117.093,-57.219 102.478,-60.6559 87.4458,-64.1912"/>
</g>
<!-- 23 -->
<g id="node24" class="node"><title>23</title>
<ellipse fill="#1874cd" stroke="black" cx="-20.9493" cy="-134.987" rx="5" ry="5"/>
</g>
<!-- 23&#45;&gt;0 -->
<g id="edge36" class="edge"><title>23&#45;&gt;0</title>
<path fill="none" stroke="black" d="M-17.1637,-131.398C-11.8186,-126.331 -1.52836,-116.577 9.02799,-106.57"/>
</g>
<!-- 25 -->
<g id="node26" class="node"><title>25</title>
<ellipse fill="#1874cd" stroke="black" cx="-35.9606" cy="61.24" rx="3.5" ry="3.5"/>
</g>
<!-- anon_25_0_0 -->
<g id="node39" class="node"><title>anon_25_0_0</title>
<ellipse fill="white" stroke="black" cx="-4.42148" cy="7.47672" rx="2.5" ry="2.5"/>
</g>
<!-- 25&#45;&gt;anon_25_0_0 -->
<g id="edge37" class="edge"><title>25&#45;&gt;anon_25_0_0</title>
<path fill="none" stroke="black" d="M-34.0821,58.0379C-28.3532,48.2721 -11.176,18.9909 -5.94801,10.0789"/>
</g>
<!-- anon_0_6_1 -->
<g id="node31" class="node"><title>anon_0_6_1</title>
<ellipse fill="white" stroke="black" cx="-110.064" cy="-162.06" rx="2.5" ry="2.5"/>
</g>
<!-- anon_0_6_0&#45;&gt;anon_0_6_1 -->
<g id="edge3" class="edge"><title>anon_0_6_0&#45;&gt;anon_0_6_1</title>
<path fill="none" stroke="black" d="M-73.5253,-136.78C-80.1675,-141.375 -100.867,-155.696 -107.786,-160.484"/>
</g>
<!-- anon_0_6_1&#45;&gt;6 -->
<g id="edge4" class="edge"><title>anon_0_6_1&#45;&gt;6</title>
<path fill="none" stroke="black" d="M-112.322,-163.697C-118.301,-168.035 -134.559,-179.827 -141.385,-184.779"/>
</g>
<!-- anon_0_10_0&#45;&gt;10 -->
<g id="edge6" class="edge"><title>anon_0_10_0&#45;&gt;10</title>
<path fill="none" stroke="black" d="M57.2594,56.5515C57.4019,63.8346 57.8108,84.7289 57.977,93.2196"/>
</g>
<!-- anon_0_12_1 -->
<g id="node34" class="node"><title>anon_0_12_1</title>
<ellipse fill="white" stroke="black" cx="174.958" cy="42.4942" rx="2.5" ry="2.5"/>
</g>
<!-- anon_0_12_0&#45;&gt;anon_0_12_1 -->
<g id="edge8" class="edge"><title>anon_0_12_0&#45;&gt;anon_0_12_1</title>
<path fill="none" stroke="black" d="M142.968,11.3205C148.784,16.9874 166.905,34.6471 172.963,40.5503"/>
</g>
<!-- anon_0_12_1&#45;&gt;12 -->
<g id="edge9" class="edge"><title>anon_0_12_1&#45;&gt;12</title>
<path fill="none" stroke="black" d="M176.896,44.5024C182.031,49.8221 195.991,64.2852 201.853,70.3582"/>
</g>
<!-- anon_2_8_1 -->
<g id="node36" class="node"><title>anon_2_8_1</title>
<ellipse fill="white" stroke="black" cx="244.82" cy="-144.85" rx="2.5" ry="2.5"/>
</g>
<!-- anon_2_8_0&#45;&gt;anon_2_8_1 -->
<g id="edge16" class="edge"><title>anon_2_8_0&#45;&gt;anon_2_8_1</title>
<path fill="none" stroke="black" d="M204.811,-123.859C212.084,-127.675 234.749,-139.566 242.325,-143.541"/>
</g>
<!-- anon_2_8_1&#45;&gt;8 -->
<g id="edge17" class="edge"><title>anon_2_8_1&#45;&gt;8</title>
<path fill="none" stroke="black" d="M247.295,-146.135C253.853,-149.538 271.681,-158.79 279.166,-162.675"/>
</g>
<!-- anon_16_11_0&#45;&gt;11 -->
<g id="edge28" class="edge"><title>anon_16_11_0&#45;&gt;11</title>
<path fill="none" stroke="black" d="M-90.9683,-9.50286C-83.7358,-12.9864 -63.8237,-22.5769 -56.0328,-26.3293"/>
</g>
<!-- anon_18_0_0&#45;&gt;0 -->
<g id="edge31" class="edge"><title>anon_18_0_0&#45;&gt;0</title>
<path fill="none" stroke="black" d="M52.6685,-167.225C51.8925,-160.088 49.7251,-140.156 47.6003,-120.615"/>
</g>
<!-- anon_25_0_0&#45;&gt;0 -->
<g id="edge38" class="edge"><title>anon_25_0_0&#45;&gt;0</title>
<path fill="none" stroke="black" d="M-3.0646,5.10495C0.429695,-1.00294 10.1356,-17.9685 19.7064,-34.6979"/>
</g>
</g>
</svg>
