<?xml version="1.0" encoding="UTF-8" standalone="no"?>
<!DOCTYPE svg PUBLIC "-//W3C//DTD SVG 1.1//EN"
 "http://www.w3.org/Graphics/SVG/1.1/DTD/svg11.dtd">
<!-- Generated by graphviz version 2.38.0 (20140413.2041)
 -->
<!-- Title: %3 Pages: 1 -->
<svg width="485pt" height="403pt"
 viewBox="0.00 0.00 484.96 402.50" xmlns="http://www.w3.org/2000/svg" xmlns:xlink="http://www.w3.org/1999/xlink">
<g id="graph0" class="graph" transform="scale(1 1) rotate(0) translate(158.025 199.121)">
<title>%3</title>
<polygon fill="white" stroke="none" points="-158.025,203.382 -158.025,-199.121 326.933,-199.121 326.933,203.382 -158.025,203.382"/>
<!-- 0 -->
<g id="node1" class="node"><title>0</title>
<path fill="olivedrab" stroke="black" stroke-width="0.5" d="M64.1841,10.6981C64.1841,10.6981 110.184,10.6981 110.184,10.6981 110.184,9.06226 110.097,7.4276 109.923,5.80107 109.749,4.17454 109.488,2.55845 109.141,0.959706 108.795,-0.639042 108.364,-2.21818 107.849,-3.77097 107.335,-5.32377 106.738,-6.84801 106.061,-8.33721 105.384,-9.8264 104.628,-11.2784 103.796,-12.6871 102.965,-14.0958 102.059,-15.4591 101.082,-16.7712 100.105,-18.0833 99.0587,-19.3424 97.9478,-20.5431 96.8368,-21.7438 95.6625,-22.8844 94.43,-23.96 94.43,-23.96 64.1841,10.6981 64.1841,10.6981"/>
<path fill="#1874cd" stroke="black" stroke-width="0.5" d="M64.1841,10.6981C64.1841,10.6981 94.43,-23.96 94.43,-23.96 93.4497,-24.8155 92.4336,-25.629 91.3843,-26.3984 90.335,-27.1677 89.2536,-27.8922 88.1429,-28.5699 87.0322,-29.2476 85.8932,-29.8778 84.7291,-30.4589 83.565,-31.0401 82.3767,-31.5715 81.1675,-32.0519 79.9584,-32.5323 78.7293,-32.9611 77.4838,-33.3373 76.2383,-33.7135 74.9773,-34.0367 73.7044,-34.306 72.4314,-34.5752 71.1476,-34.7904 69.8565,-34.9508 68.5653,-35.1113 67.2679,-35.2169 65.9677,-35.2673 64.6676,-35.3178 63.3659,-35.313 62.0662,-35.2531 60.7664,-35.1932 59.4698,-35.0782 58.1799,-34.9084 56.8899,-34.7386 55.6077,-34.5141 54.3367,-34.2355 53.0658,-33.957 51.8072,-33.6247 50.5645,-33.2394 49.3217,-32.8542 48.0958,-32.4164 46.8901,-31.9273 45.6845,-31.4381 44.5001,-30.898 43.3403,-30.3084 42.1804,-29.7189 41.046,-29.0804 39.9403,-28.3946 38.8346,-27.7089 37.7584,-26.9766 36.7148,-26.1996 35.6711,-25.4226 34.6609,-24.6017 33.6868,-23.7391 32.7128,-22.8765 31.7758,-21.9729 30.8783,-21.0309 29.9809,-20.0888 29.1238,-19.1091 28.3094,-18.0944 27.495,-17.0797 26.724,-16.0309 25.9985,-14.9508 25.273,-13.8707 24.5937,-12.7603 23.9624,-11.6227 23.331,-10.485 22.7482,-9.32104 22.2156,-8.13396 21.6829,-6.94688 21.2009,-5.73774 20.7707,-4.50979 20.3405,-3.28184 19.9627,-2.03619 19.6381,-0.77621 19.3136,0.483774 19.0426,1.75696 18.826,3.03991 18.6094,4.32287 18.4473,5.61444 18.3402,6.91113 18.2331,8.20783 18.181,9.50848 18.1842,10.8096 18.1874,12.1107 18.2457,13.4111 18.3591,14.7072 18.4725,16.0034 18.6408,17.2942 18.8637,18.5761 19.0865,19.858 19.3636,21.1298 19.6943,22.3882 20.0249,23.6466 20.4088,24.8904 20.8449,26.1162 21.281,27.3421 21.769,28.5489 22.3074,29.7334 22.8458,30.9179 23.4342,32.079 24.0711,33.2136 24.7079,34.3482 25.3926,35.4552 26.1233,36.5318 26.854,37.6083 27.6301,38.6534 28.4494,39.6641 29.2687,40.6749 30.1305,41.6504 31.0325,42.5881 31.9345,43.5258 32.8759,44.4248 33.8542,45.2827 34.8324,46.1406 35.8466,46.9566 36.894,47.7285 37.9414,48.5004 39.0211,49.2275 40.1301,49.9079 41.2392,50.5882 42.3766,51.2212 43.5393,51.8052 44.702,52.3891 45.889,52.9235 47.097,53.4068 48.305,53.8901 49.533,54.3219 50.7776,54.7011 52.0223,55.0803 53.2824,55.4065 54.5547,55.6789 55.827,55.9513 57.1102,56.1695 58.401,56.3331 59.6918,56.4967 60.989,56.6054 62.289,56.659 63.589,56.7126 64.8907,56.7111 66.1906,56.6543 67.4904,56.5975 68.7873,56.4857 70.0777,56.319 71.3681,56.1523 72.6508,55.9309 73.9224,55.6554 75.1941,55.38 76.4534,55.0507 77.6971,54.6685 78.9408,54.2863 80.1678,53.8515 81.3746,53.3652 82.5814,52.879 83.7671,52.3418 84.9284,51.755 86.0897,51.1683 87.2256,50.5325 88.333,49.8495 89.4404,49.1664 90.5183,48.4367 91.5638,47.6622 92.6094,46.8878 93.6216,46.0693 94.5977,45.2091 95.5739,44.3488 96.5131,43.4476 97.4128,42.5077 98.3125,41.5678 99.172,40.5902 99.9888,39.5774 100.806,38.5647 101.579,37.5178 102.307,36.4394 103.035,35.3611 103.717,34.2524 104.352,33.1163 104.986,31.9801 105.571,30.8176 106.107,29.6318 106.642,28.446 107.127,27.2381 107.56,26.0111 107.994,24.7842 108.374,23.5395 108.702,22.2803 109.03,21.0211 109.304,19.7486 109.523,18.4662 109.743,17.1838 109.908,15.8926 110.019,14.5962 110.129,13.2997 110.184,11.9992 110.184,10.6981 110.184,10.6981 64.1841,10.6981 64.1841,10.6981"/>
<ellipse fill="none" stroke="black" cx="64.1841" cy="10.6981" rx="46" ry="46"/>
</g>
<!-- 1 -->
<g id="node2" class="node"><title>1</title>
<ellipse fill="#1874cd" stroke="black" cx="-26.8907" cy="-33.4966" rx="3.5" ry="3.5"/>
</g>
<!-- 0&#45;&gt;1 -->
<g id="edge1" class="edge"><title>0&#45;&gt;1</title>
<path fill="none" stroke="black" d="M22.6444,-9.45933C3.87875,-18.5655 -15.7994,-28.1145 -23.5106,-31.8564"/>
</g>
<!-- 2 -->
<g id="node3" class="node"><title>2</title>
<ellipse fill="#1874cd" stroke="black" cx="189.163" cy="-21.3203" rx="3.5" ry="3.5"/>
</g>
<!-- 0&#45;&gt;2 -->
<g id="edge2" class="edge"><title>0&#45;&gt;2</title>
<path fill="none" stroke="black" d="M108.951,-0.77085C138.649,-8.37911 174.168,-17.4788 185.5,-20.3821"/>
</g>
<!-- 3 -->
<g id="node4" class="node"><title>3</title>
<ellipse fill="#1874cd" stroke="black" cx="126.557" cy="-1.65012" rx="3.5" ry="3.5"/>
</g>
<!-- 0&#45;&gt;3 -->
<g id="edge3" class="edge"><title>0&#45;&gt;3</title>
<path fill="none" stroke="black" d="M109.514,1.72408C114.955,0.646845 119.668,-0.286118 122.75,-0.896272"/>
</g>
<!-- 4 -->
<g id="node5" class="node"><title>4</title>
<ellipse fill="#1874cd" stroke="black" cx="33.5422" cy="-63.3289" rx="3.5" ry="3.5"/>
</g>
<!-- 0&#45;&gt;4 -->
<g id="edge4" class="edge"><title>0&#45;&gt;4</title>
<path fill="none" stroke="black" d="M46.5371,-31.9348C41.6414,-43.7623 37.0701,-54.806 34.886,-60.0825"/>
</g>
<!-- 5 -->
<g id="node6" class="node"><title>5</title>
<ellipse fill="#1874cd" stroke="black" cx="-9.58856" cy="22.186" rx="3.5" ry="3.5"/>
</g>
<!-- 0&#45;&gt;5 -->
<g id="edge5" class="edge"><title>0&#45;&gt;5</title>
<path fill="none" stroke="black" d="M18.7229,17.7773C8.2856,19.4026 -1.182,20.8769 -6.07998,21.6397"/>
</g>
<!-- 7 -->
<g id="node8" class="node"><title>7</title>
<ellipse fill="#1874cd" stroke="black" cx="-8.8187" cy="-63.1792" rx="3.5" ry="3.5"/>
</g>
<!-- 0&#45;&gt;7 -->
<g id="edge9" class="edge"><title>0&#45;&gt;7</title>
<path fill="none" stroke="black" d="M31.5261,-22.3511C16.3406,-37.7185 0.257952,-53.9938 -6.05158,-60.3789"/>
</g>
<!-- 11 -->
<g id="node12" class="node"><title>11</title>
<ellipse fill="#1874cd" stroke="black" cx="16.1569" cy="-107.922" rx="3.5" ry="3.5"/>
</g>
<!-- 0&#45;&gt;11 -->
<g id="edge13" class="edge"><title>0&#45;&gt;11</title>
<path fill="none" stroke="black" d="M46.8451,-32.1265C35.4528,-60.264 21.8833,-93.7787 17.5553,-104.468"/>
</g>
<!-- 13 -->
<g id="node14" class="node"><title>13</title>
<ellipse fill="#1874cd" stroke="black" cx="92.2736" cy="-49.2004" rx="3.5" ry="3.5"/>
</g>
<!-- 0&#45;&gt;13 -->
<g id="edge17" class="edge"><title>0&#45;&gt;13</title>
<path fill="none" stroke="black" d="M83.8458,-31.2289C86.7225,-37.3632 89.2228,-42.6948 90.7372,-45.9241"/>
</g>
<!-- 14 -->
<g id="node15" class="node"><title>14</title>
<ellipse fill="#1874cd" stroke="black" cx="64.274" cy="76.3233" rx="3.5" ry="3.5"/>
</g>
<!-- 0&#45;&gt;14 -->
<g id="edge18" class="edge"><title>0&#45;&gt;14</title>
<path fill="none" stroke="black" d="M64.2475,56.9885C64.2529,60.9176 64.2578,64.5346 64.2619,67.551"/>
<polygon fill="black" stroke="black" points="66.0122,67.8042 64.2691,72.8066 62.5122,67.8091 66.0122,67.8042"/>
<text text-anchor="middle" x="83.2547" y="71.8697" font-family="monospace" font-size="12.00">A586T</text>
</g>
<!-- 15 -->
<g id="node16" class="node"><title>15</title>
<ellipse fill="#1874cd" stroke="black" cx="158.745" cy="53.3397" rx="3.5" ry="3.5"/>
</g>
<!-- 0&#45;&gt;15 -->
<g id="edge19" class="edge"><title>0&#45;&gt;15</title>
<path fill="none" stroke="black" d="M106.211,29.6497C125.941,38.5469 146.907,48.0015 155.136,51.7121"/>
</g>
<!-- 17 -->
<g id="node18" class="node"><title>17</title>
<ellipse fill="#1874cd" stroke="black" cx="116.201" cy="55.121" rx="3.5" ry="3.5"/>
</g>
<!-- 0&#45;&gt;17 -->
<g id="edge20" class="edge"><title>0&#45;&gt;17</title>
<path fill="none" stroke="black" d="M99.169,40.5753C105.05,45.5976 110.233,50.024 113.293,52.6374"/>
</g>
<!-- 19 -->
<g id="node20" class="node"><title>19</title>
<ellipse fill="#1874cd" stroke="black" cx="-40.8798" cy="44.6511" rx="5" ry="5"/>
</g>
<!-- 0&#45;&gt;19 -->
<g id="edge23" class="edge"><title>0&#45;&gt;19</title>
<path fill="none" stroke="black" d="M20.2363,24.9005C-1.80622,32.0239 -25.9213,39.817 -36.0144,43.0787"/>
</g>
<!-- 20 -->
<g id="node21" class="node"><title>20</title>
<ellipse fill="#1874cd" stroke="black" cx="143.506" cy="-40.5793" rx="3.5" ry="3.5"/>
</g>
<!-- 0&#45;&gt;20 -->
<g id="edge24" class="edge"><title>0&#45;&gt;20</title>
<path fill="none" stroke="black" d="M102.916,-14.3397C118.332,-24.3055 133.936,-34.3923 140.403,-38.5731"/>
</g>
<!-- 21 -->
<g id="node22" class="node"><title>21</title>
<ellipse fill="#1874cd" stroke="black" cx="128.849" cy="-71.0521" rx="3.5" ry="3.5"/>
</g>
<!-- 0&#45;&gt;21 -->
<g id="edge25" class="edge"><title>0&#45;&gt;21</title>
<path fill="none" stroke="black" d="M92.7353,-25.3967C106.269,-42.5059 120.698,-60.7478 126.364,-67.9099"/>
</g>
<!-- 22 -->
<g id="node23" class="node"><title>22</title>
<ellipse fill="#1874cd" stroke="black" cx="17.2537" cy="66.3757" rx="3.5" ry="3.5"/>
</g>
<!-- 0&#45;&gt;22 -->
<g id="edge26" class="edge"><title>0&#45;&gt;22</title>
<path fill="none" stroke="black" d="M34.4623,45.9596C28.3502,53.2109 22.8491,59.7373 19.7893,63.3674"/>
</g>
<!-- 23 -->
<g id="node24" class="node"><title>23</title>
<ellipse fill="#1874cd" stroke="black" cx="-22.9841" cy="74.5204" rx="5" ry="5"/>
</g>
<!-- 0&#45;&gt;23 -->
<g id="edge27" class="edge"><title>0&#45;&gt;23</title>
<path fill="none" stroke="black" d="M26.9641,37.9496C9.19507,50.9596 -10.0163,65.0257 -18.5113,71.2456"/>
</g>
<!-- 24 -->
<g id="node25" class="node"><title>24</title>
<ellipse fill="#1874cd" stroke="black" cx="106.984" cy="94.7189" rx="3.5" ry="3.5"/>
</g>
<!-- 0&#45;&gt;24 -->
<g id="edge28" class="edge"><title>0&#45;&gt;24</title>
<path fill="none" stroke="black" d="M85.0825,51.724C93.4006,68.0534 101.82,84.5812 105.309,91.4317"/>
</g>
<!-- 26 -->
<g id="node27" class="node"><title>26</title>
<ellipse fill="#1874cd" stroke="black" cx="46.5595" cy="108.602" rx="3.5" ry="3.5"/>
</g>
<!-- 0&#45;&gt;26 -->
<g id="edge31" class="edge"><title>0&#45;&gt;26</title>
<path fill="none" stroke="black" d="M55.991,56.2105C52.9851,72.9077 49.8828,90.1411 48.092,100.089"/>
<polygon fill="black" stroke="black" points="49.8081,100.434 47.1998,105.045 46.3634,99.814 49.8081,100.434"/>
<text text-anchor="middle" x="33.0415" y="87.7497" font-family="monospace" font-size="12.00">A837V</text>
</g>
<!-- 27 -->
<g id="node28" class="node"><title>27</title>
<ellipse fill="olivedrab" stroke="black" cx="10.2789" cy="-18.1409" rx="3.5" ry="3.5"/>
</g>
<!-- 0&#45;&gt;27 -->
<g id="edge32" class="edge"><title>0&#45;&gt;27</title>
<path fill="none" stroke="black" d="M23.6038,-11.0121C19.5352,-13.1888 16.0288,-15.0647 13.6356,-16.345"/>
</g>
<!-- 28 -->
<g id="node29" class="node"><title>28</title>
<ellipse fill="olivedrab" stroke="black" cx="161.13" cy="20.411" rx="3.5" ry="3.5"/>
</g>
<!-- 0&#45;&gt;28 -->
<g id="edge33" class="edge"><title>0&#45;&gt;28</title>
<path fill="none" stroke="black" d="M110.102,15.2986C129.286,17.2207 149.006,19.1964 157.196,20.0169"/>
</g>
<!-- anon_0_6_0 -->
<g id="node30" class="node"><title>anon_0_6_0</title>
<ellipse fill="white" stroke="black" cx="-1.12325" cy="119.085" rx="2.5" ry="2.5"/>
</g>
<!-- 0&#45;&gt;anon_0_6_0 -->
<g id="edge6" class="edge"><title>0&#45;&gt;anon_0_6_0</title>
<path fill="none" stroke="black" d="M40.4219,50.135C24.6666,76.2834 5.92178,107.393 0.448687,116.477"/>
</g>
<!-- anon_0_10_0 -->
<g id="node32" class="node"><title>anon_0_10_0</title>
<ellipse fill="white" stroke="black" cx="157.083" cy="96.2858" rx="2.5" ry="2.5"/>
</g>
<!-- 0&#45;&gt;anon_0_10_0 -->
<g id="edge11" class="edge"><title>0&#45;&gt;anon_0_10_0</title>
<path fill="none" stroke="black" d="M98.2487,42.0818C120.619,62.6918 147.124,87.111 154.861,94.2388"/>
</g>
<!-- anon_0_12_0 -->
<g id="node33" class="node"><title>anon_0_12_0</title>
<ellipse fill="white" stroke="black" cx="-61.1523" cy="-3.76547" rx="2.5" ry="2.5"/>
</g>
<!-- 0&#45;&gt;anon_0_12_0 -->
<g id="edge14" class="edge"><title>0&#45;&gt;anon_0_12_0</title>
<path fill="none" stroke="black" d="M18.2251,5.39452C-12.2361,1.87936 -48.3793,-2.29149 -58.4381,-3.45226"/>
</g>
<!-- anon_0_18_0 -->
<g id="node35" class="node"><title>anon_0_18_0</title>
<ellipse fill="white" stroke="black" cx="104.25" cy="-106.991" rx="2.5" ry="2.5"/>
</g>
<!-- 0&#45;&gt;anon_0_18_0 -->
<g id="edge21" class="edge"><title>0&#45;&gt;anon_0_18_0</title>
<path fill="none" stroke="black" d="M79.1031,-33.125C88.8035,-61.6188 100.218,-95.1487 103.393,-104.475"/>
</g>
<!-- anon_0_25_0 -->
<g id="node36" class="node"><title>anon_0_25_0</title>
<ellipse fill="white" stroke="black" cx="90.5646" cy="133.688" rx="2.5" ry="2.5"/>
</g>
<!-- 0&#45;&gt;anon_0_25_0 -->
<g id="edge29" class="edge"><title>0&#45;&gt;anon_0_25_0</title>
<path fill="none" stroke="black" d="M73.8574,55.7966C80.2688,85.6875 87.8761,121.154 89.9933,131.025"/>
</g>
<!-- anon_2_8_0 -->
<g id="node37" class="node"><title>anon_2_8_0</title>
<ellipse fill="white" stroke="black" cx="235.322" cy="-32.9688" rx="2.5" ry="2.5"/>
</g>
<!-- 2&#45;&gt;anon_2_8_0 -->
<g id="edge34" class="edge"><title>2&#45;&gt;anon_2_8_0</title>
<path fill="none" stroke="black" d="M192.785,-22.2343C201.796,-24.5084 225.054,-30.3776 232.783,-32.328"/>
</g>
<!-- 6 -->
<g id="node7" class="node"><title>6</title>
<ellipse fill="#1874cd" stroke="black" cx="-48.4509" cy="195.882" rx="3.5" ry="3.5"/>
</g>
<!-- 8 -->
<g id="node9" class="node"><title>8</title>
<ellipse fill="#1874cd" stroke="black" cx="319.433" cy="-53.7685" rx="3.5" ry="3.5"/>
</g>
<!-- 9 -->
<g id="node10" class="node"><title>9</title>
<ellipse fill="#1874cd" stroke="black" cx="66.5232" cy="-77.7001" rx="5" ry="5"/>
</g>
<!-- 9&#45;&gt;0 -->
<g id="edge10" class="edge"><title>9&#45;&gt;0</title>
<path fill="none" stroke="black" d="M66.3907,-72.6942C66.2167,-66.1165 65.8921,-53.8485 65.5443,-40.707"/>
<polygon fill="black" stroke="black" points="67.2867,-40.3907 65.4049,-35.4388 63.7879,-40.4833 67.2867,-40.3907"/>
<text text-anchor="middle" x="46.9675" y="-47.1006" font-family="monospace" font-size="12.00">R254K</text>
</g>
<!-- 10 -->
<g id="node11" class="node"><title>10</title>
<ellipse fill="#1874cd" stroke="black" cx="188.793" cy="125.117" rx="3.5" ry="3.5"/>
</g>
<!-- anon_11_16_0 -->
<g id="node39" class="node"><title>anon_11_16_0</title>
<ellipse fill="white" stroke="black" cx="-3.61655" cy="-152.374" rx="2.5" ry="2.5"/>
</g>
<!-- 11&#45;&gt;anon_11_16_0 -->
<g id="edge37" class="edge"><title>11&#45;&gt;anon_11_16_0</title>
<path fill="none" stroke="black" d="M14.6053,-111.41C10.7451,-120.088 0.781963,-142.486 -2.52882,-149.929"/>
</g>
<!-- 12 -->
<g id="node13" class="node"><title>12</title>
<ellipse fill="#1874cd" stroke="black" cx="-150.525" cy="-14.3256" rx="3.5" ry="3.5"/>
</g>
<!-- 16 -->
<g id="node17" class="node"><title>16</title>
<ellipse fill="#1874cd" stroke="black" cx="-19.9672" cy="-191.621" rx="3.5" ry="3.5"/>
</g>
<!-- 18 -->
<g id="node19" class="node"><title>18</title>
<ellipse fill="#1874cd" stroke="black" cx="119.869" cy="-146.883" rx="3.5" ry="3.5"/>
</g>
<!-- 25 -->
<g id="node26" class="node"><title>25</title>
<ellipse fill="#1874cd" stroke="black" cx="101.162" cy="175.24" rx="3.5" ry="3.5"/>
</g>
<!-- anon_0_6_1 -->
<g id="node31" class="node"><title>anon_0_6_1</title>
<ellipse fill="white" stroke="black" cx="-26.5082" cy="159.44" rx="2.5" ry="2.5"/>
</g>
<!-- anon_0_6_0&#45;&gt;anon_0_6_1 -->
<g id="edge7" class="edge"><title>anon_0_6_0&#45;&gt;anon_0_6_1</title>
<path fill="none" stroke="black" d="M-2.48806,121.255C-6.85453,128.197 -20.4619,149.828 -25.0104,157.059"/>
</g>
<!-- anon_0_6_1&#45;&gt;6 -->
<g id="edge8" class="edge"><title>anon_0_6_1&#45;&gt;6</title>
<path fill="none" stroke="black" d="M-27.948,161.831C-31.7617,168.165 -42.1305,185.385 -46.4843,192.616"/>
</g>
<!-- anon_0_10_0&#45;&gt;10 -->
<g id="edge12" class="edge"><title>anon_0_10_0&#45;&gt;10</title>
<path fill="none" stroke="black" d="M159.164,98.1775C164.675,103.189 179.659,116.812 185.951,122.533"/>
</g>
<!-- anon_0_12_1 -->
<g id="node34" class="node"><title>anon_0_12_1</title>
<ellipse fill="white" stroke="black" cx="-108.281" cy="-9.48389" rx="2.5" ry="2.5"/>
</g>
<!-- anon_0_12_0&#45;&gt;anon_0_12_1 -->
<g id="edge15" class="edge"><title>anon_0_12_0&#45;&gt;anon_0_12_1</title>
<path fill="none" stroke="black" d="M-63.6862,-4.07292C-71.7928,-5.05654 -97.0556,-8.12183 -105.5,-9.14647"/>
</g>
<!-- anon_0_12_1&#45;&gt;12 -->
<g id="edge16" class="edge"><title>anon_0_12_1&#45;&gt;12</title>
<path fill="none" stroke="black" d="M-110.797,-9.77226C-117.902,-10.5866 -138.153,-12.9076 -146.673,-13.8842"/>
</g>
<!-- anon_0_18_0&#45;&gt;18 -->
<g id="edge22" class="edge"><title>anon_0_18_0&#45;&gt;18</title>
<path fill="none" stroke="black" d="M105.275,-109.608C107.989,-116.542 115.37,-135.392 118.469,-143.307"/>
</g>
<!-- anon_0_25_0&#45;&gt;25 -->
<g id="edge30" class="edge"><title>anon_0_25_0&#45;&gt;25</title>
<path fill="none" stroke="black" d="M91.2599,136.414C93.1019,143.636 98.1098,163.271 100.213,171.516"/>
</g>
<!-- anon_2_8_1 -->
<g id="node38" class="node"><title>anon_2_8_1</title>
<ellipse fill="white" stroke="black" cx="278.326" cy="-43.6164" rx="2.5" ry="2.5"/>
</g>
<!-- anon_2_8_0&#45;&gt;anon_2_8_1 -->
<g id="edge35" class="edge"><title>anon_2_8_0&#45;&gt;anon_2_8_1</title>
<path fill="none" stroke="black" d="M237.884,-33.6029C245.55,-35.5012 268.254,-41.1226 275.832,-42.9989"/>
</g>
<!-- anon_2_8_1&#45;&gt;8 -->
<g id="edge36" class="edge"><title>anon_2_8_1&#45;&gt;8</title>
<path fill="none" stroke="black" d="M281.023,-44.2826C288.167,-46.0471 307.592,-50.8443 315.748,-52.8587"/>
</g>
<!-- anon_11_16_0&#45;&gt;16 -->
<g id="edge38" class="edge"><title>anon_11_16_0&#45;&gt;16</title>
<path fill="none" stroke="black" d="M-4.68937,-154.949C-7.53123,-161.771 -15.2575,-180.316 -18.5018,-188.104"/>
</g>
</g>
</svg>
