<?xml version="1.0" encoding="UTF-8" standalone="no"?>
<!DOCTYPE svg PUBLIC "-//W3C//DTD SVG 1.1//EN"
 "http://www.w3.org/Graphics/SVG/1.1/DTD/svg11.dtd">
<!-- Generated by graphviz version 2.38.0 (20140413.2041)
 -->
<!-- Title: %3 Pages: 1 -->
<svg width="212pt" height="130pt"
 viewBox="0.00 0.00 211.78 129.67" xmlns="http://www.w3.org/2000/svg" xmlns:xlink="http://www.w3.org/1999/xlink">
<g id="graph0" class="graph" transform="scale(1 1) rotate(0) translate(58.8786 87.198)">
<title>%3</title>
<polygon fill="white" stroke="none" points="-58.8786,42.4766 -58.8786,-87.198 152.897,-87.198 152.897,42.4766 -58.8786,42.4766"/>
<!-- 0 -->
<g id="node1" class="node"><title>0</title>
<ellipse fill="#1874cd" stroke="black" cx="-44.8786" cy="-9.63888" rx="10" ry="10"/>
</g>
<!-- 6 -->
<g id="node7" class="node"><title>6</title>
<ellipse fill="#1874cd" stroke="black" cx="14.034" cy="-16.2456" rx="6" ry="6"/>
</g>
<!-- 0&#45;&gt;6 -->
<g id="edge1" class="edge"><title>0&#45;&gt;6</title>
<path fill="none" stroke="black" d="M-34.8849,-10.7596C-22.6728,-12.1291 -2.38243,-14.4046 7.80079,-15.5466"/>
</g>
<!-- 1 -->
<g id="node2" class="node"><title>1</title>
<ellipse fill="#1874cd" stroke="black" cx="77.9486" cy="-22.039" rx="12" ry="12"/>
</g>
<!-- 3 -->
<g id="node4" class="node"><title>3</title>
<ellipse fill="#1874cd" stroke="black" cx="63.8322" cy="34.9766" rx="3.5" ry="3.5"/>
</g>
<!-- 1&#45;&gt;3 -->
<g id="edge2" class="edge"><title>1&#45;&gt;3</title>
<path fill="none" stroke="black" d="M75.0237,-10.2253C71.7934,2.82175 66.7797,23.0718 64.7408,31.3069"/>
</g>
<!-- 4 -->
<g id="node5" class="node"><title>4</title>
<ellipse fill="#1874cd" stroke="black" cx="127.747" cy="-60.995" rx="7" ry="7"/>
</g>
<!-- 1&#45;&gt;4 -->
<g id="edge3" class="edge"><title>1&#45;&gt;4</title>
<path fill="none" stroke="black" d="M87.5502,-29.5501C96.3914,-36.4663 109.434,-46.669 118.244,-53.5607"/>
<polygon fill="black" stroke="black" points="117.175,-54.9466 122.191,-56.649 119.332,-52.1899 117.175,-54.9466"/>
<text text-anchor="middle" x="125.897" y="-31.9554" font-family="monospace" font-size="12.00">V1681I</text>
</g>
<!-- 5 -->
<g id="node6" class="node"><title>5</title>
<ellipse fill="#1874cd" stroke="black" cx="54.7019" cy="-78.198" rx="5" ry="5"/>
</g>
<!-- 1&#45;&gt;5 -->
<g id="edge4" class="edge"><title>1&#45;&gt;5</title>
<path fill="none" stroke="black" d="M73.3558,-33.1342C69.0686,-43.4911 62.7375,-58.7859 58.666,-68.6217"/>
<polygon fill="black" stroke="black" points="56.9594,-68.1691 56.6639,-73.4583 60.1933,-69.5078 56.9594,-68.1691"/>
<text text-anchor="middle" x="43.0109" y="-54.2779" font-family="monospace" font-size="12.00">S2076T</text>
</g>
<!-- 1&#45;&gt;6 -->
<g id="edge5" class="edge"><title>1&#45;&gt;6</title>
<path fill="none" stroke="black" d="M65.9268,-20.9493C52.3302,-19.7168 30.7175,-17.7578 20.1951,-16.804"/>
</g>
<!-- 7 -->
<g id="node8" class="node"><title>7</title>
<ellipse fill="#1874cd" stroke="black" cx="129.263" cy="6.10891" rx="3.5" ry="3.5"/>
</g>
<!-- 1&#45;&gt;7 -->
<g id="edge6" class="edge"><title>1&#45;&gt;7</title>
<path fill="none" stroke="black" d="M88.8311,-16.0695C98.5765,-10.7239 112.636,-3.0119 121.348,1.76696"/>
<polygon fill="black" stroke="black" points="122.453,0.377021 125.995,4.31606 120.769,3.44568 122.453,0.377021"/>
<text text-anchor="middle" x="82.0894" y="2.44872" font-family="monospace" font-size="12.00">L1617F</text>
</g>
<!-- 2 -->
<g id="node3" class="node"><title>2</title>
<ellipse fill="#1874cd" stroke="black" cx="18.0013" cy="34.6564" rx="3.5" ry="3.5"/>
</g>
<!-- 2&#45;&gt;3 -->
<g id="edge7" class="edge"><title>2&#45;&gt;3</title>
<path fill="none" stroke="black" d="M21.5975,34.6815C30.1228,34.7411 51.4903,34.8904 60.1254,34.9507"/>
</g>
<!-- 2&#45;&gt;6 -->
<g id="edge9" class="edge"><title>2&#45;&gt;6</title>
<path fill="none" stroke="black" stroke-dasharray="5,2" d="M17.7159,30.9956C17.0408,22.3333 15.3397,0.506644 14.5074,-10.172"/>
</g>
<!-- 8 -->
<g id="node9" class="node"><title>8</title>
<ellipse fill="#1874cd" stroke="black" cx="6.47715" cy="-68.7142" rx="5" ry="5"/>
</g>
<!-- 5&#45;&gt;8 -->
<g id="edge8" class="edge"><title>5&#45;&gt;8</title>
<path fill="none" stroke="black" d="M49.5411,-77.1831C40.2105,-75.3482 20.6524,-71.5019 11.4564,-69.6934"/>
</g>
<!-- 6&#45;&gt;8 -->
<g id="edge10" class="edge"><title>6&#45;&gt;8</title>
<path fill="none" stroke="black" stroke-dasharray="5,2" d="M13.1672,-22.2644C11.8862,-31.1581 9.47252,-47.9169 7.92148,-58.686"/>
<polygon fill="black" stroke="black" points="6.18034,-58.4997 7.1996,-63.6982 9.64459,-58.9987 6.18034,-58.4997"/>
<text text-anchor="middle" x="-12.4557" y="-43.8752" font-family="monospace" font-size="12.00">S2076T</text>
</g>
</g>
</svg>
