<?xml version="1.0" encoding="UTF-8" standalone="no"?>
<!DOCTYPE svg PUBLIC "-//W3C//DTD SVG 1.1//EN"
 "http://www.w3.org/Graphics/SVG/1.1/DTD/svg11.dtd">
<!-- Generated by graphviz version 2.38.0 (20140413.2041)
 -->
<!-- Title: %3 Pages: 1 -->
<svg width="223pt" height="277pt"
 viewBox="0.00 0.00 222.74 277.49" xmlns="http://www.w3.org/2000/svg" xmlns:xlink="http://www.w3.org/1999/xlink">
<g id="graph0" class="graph" transform="scale(1 1) rotate(0) translate(86.8018 156.612)">
<title>%3</title>
<polygon fill="white" stroke="none" points="-86.8018,120.875 -86.8018,-156.612 135.939,-156.612 135.939,120.875 -86.8018,120.875"/>
<!-- 0 -->
<g id="node1" class="node"><title>0</title>
<ellipse fill="#1874cd" stroke="black" cx="-71.1988" cy="-90.0219" rx="6" ry="6"/>
</g>
<!-- 1 -->
<g id="node2" class="node"><title>1</title>
<ellipse fill="#1874cd" stroke="black" cx="69.9425" cy="-55.3032" rx="15" ry="15"/>
</g>
<!-- 3 -->
<g id="node4" class="node"><title>3</title>
<ellipse fill="#1874cd" stroke="black" cx="129.439" cy="-79.5522" rx="2.5" ry="2.5"/>
</g>
<!-- 1&#45;&gt;3 -->
<g id="edge4" class="edge"><title>1&#45;&gt;3</title>
<path fill="none" stroke="black" d="M84.0424,-61.0499C98.3375,-66.8762 119.372,-75.4492 126.758,-78.4592"/>
</g>
<!-- 4 -->
<g id="node5" class="node"><title>4</title>
<ellipse fill="#1874cd" stroke="black" cx="92.1094" cy="-112.043" rx="2.5" ry="2.5"/>
</g>
<!-- 1&#45;&gt;4 -->
<g id="edge5" class="edge"><title>1&#45;&gt;4</title>
<path fill="none" stroke="black" d="M75.422,-69.3289C80.7554,-82.9808 88.4383,-102.647 91.1319,-109.541"/>
</g>
<!-- 7 -->
<g id="node8" class="node"><title>7</title>
<ellipse fill="#1874cd" stroke="black" cx="128.592" cy="-31.6172" rx="2.5" ry="2.5"/>
</g>
<!-- 1&#45;&gt;7 -->
<g id="edge10" class="edge"><title>1&#45;&gt;7</title>
<path fill="none" stroke="black" d="M84.1399,-49.5695C98.2429,-43.8739 118.774,-35.5823 125.977,-32.6732"/>
</g>
<!-- anon_1_5_0 -->
<g id="node10" class="node"><title>anon_1_5_0</title>
<ellipse fill="white" stroke="black" cx="62.0732" cy="5.73123" rx="1" ry="1"/>
</g>
<!-- 1&#45;&gt;anon_1_5_0 -->
<g id="edge6" class="edge"><title>1&#45;&gt;anon_1_5_0</title>
<path fill="none" stroke="black" d="M67.9973,-40.2161C65.9582,-24.4013 62.9519,-1.08397 62.2322,4.49825"/>
</g>
<!-- 2 -->
<g id="node3" class="node"><title>2</title>
<ellipse fill="#1874cd" stroke="black" cx="-23.5713" cy="-101.896" rx="6" ry="6"/>
</g>
<!-- 2&#45;&gt;0 -->
<g id="edge1" class="edge"><title>2&#45;&gt;0</title>
<path fill="none" stroke="black" d="M-29.4113,-100.44C-37.0527,-98.535 -50.5969,-95.1582 -60.1922,-92.766"/>
<polygon fill="black" stroke="black" points="-60.0361,-91.0014 -65.311,-91.4898 -60.8829,-94.3975 -60.0361,-91.0014"/>
<text text-anchor="middle" x="-63.8018" y="-100.003" font-family="monospace" font-size="12.00">G317S</text>
</g>
<!-- 6 -->
<g id="node7" class="node"><title>6</title>
<ellipse fill="#1874cd" stroke="black" cx="-32.8979" cy="-150.112" rx="2.5" ry="2.5"/>
</g>
<!-- 2&#45;&gt;6 -->
<g id="edge11" class="edge"><title>2&#45;&gt;6</title>
<path fill="none" stroke="black" d="M-24.7149,-107.808C-26.7384,-118.269 -30.8758,-139.658 -32.3562,-147.311"/>
</g>
<!-- anon_1_2_0 -->
<g id="node9" class="node"><title>anon_1_2_0</title>
<ellipse fill="white" stroke="black" cx="22.1803" cy="-79.1966" rx="1" ry="1"/>
</g>
<!-- 2&#45;&gt;anon_1_2_0 -->
<g id="edge3" class="edge"><title>2&#45;&gt;anon_1_2_0</title>
<path fill="none" stroke="black" d="M-17.9612,-99.1127C-9.27569,-94.8034 7.34893,-86.5551 16.2343,-82.1467"/>
<polygon fill="black" stroke="black" points="17.2554,-83.5937 20.9566,-79.8038 15.6998,-80.4584 17.2554,-83.5937"/>
<text text-anchor="middle" x="-23.8635" y="-81.0297" font-family="monospace" font-size="12.00">I1940T</text>
</g>
<!-- 5 -->
<g id="node6" class="node"><title>5</title>
<ellipse fill="#1874cd" stroke="black" cx="22.0262" cy="114.375" rx="2.5" ry="2.5"/>
</g>
<!-- anon_1_2_0&#45;&gt;1 -->
<g id="edge2" class="edge"><title>anon_1_2_0&#45;&gt;1</title>
<path fill="none" stroke="black" d="M23.361,-78.606C27.2827,-76.6441 40.2656,-70.1493 51.5319,-64.5133"/>
<polygon fill="black" stroke="black" points="52.5351,-65.9683 56.2238,-62.1661 50.9691,-62.8381 52.5351,-65.9683"/>
<text text-anchor="middle" x="18.4464" y="-61.9596" font-family="monospace" font-size="12.00">D466H</text>
</g>
<!-- anon_1_5_1 -->
<g id="node11" class="node"><title>anon_1_5_1</title>
<ellipse fill="white" stroke="black" cx="59.2255" cy="46.0941" rx="1" ry="1"/>
</g>
<!-- anon_1_5_0&#45;&gt;anon_1_5_1 -->
<g id="edge7" class="edge"><title>anon_1_5_0&#45;&gt;anon_1_5_1</title>
<path fill="none" stroke="black" d="M62.0028,6.72897C61.6191,12.1676 59.7805,38.2275 59.3268,44.6576"/>
</g>
<!-- anon_1_5_2 -->
<g id="node12" class="node"><title>anon_1_5_2</title>
<ellipse fill="white" stroke="black" cx="46.7923" cy="83.3569" rx="1" ry="1"/>
</g>
<!-- anon_1_5_1&#45;&gt;anon_1_5_2 -->
<g id="edge8" class="edge"><title>anon_1_5_1&#45;&gt;anon_1_5_2</title>
<path fill="none" stroke="black" d="M58.8118,47.3339C56.9241,52.9914 49.1375,76.3284 47.2203,82.0742"/>
</g>
<!-- anon_1_5_2&#45;&gt;5 -->
<g id="edge9" class="edge"><title>anon_1_5_2&#45;&gt;5</title>
<path fill="none" stroke="black" d="M45.7281,84.6897C41.8766,89.5136 28.6368,106.096 23.8073,112.144"/>
</g>
</g>
</svg>
