<?xml version="1.0" encoding="UTF-8" standalone="no"?>
<!DOCTYPE svg PUBLIC "-//W3C//DTD SVG 1.1//EN"
 "http://www.w3.org/Graphics/SVG/1.1/DTD/svg11.dtd">
<!-- Generated by graphviz version 2.38.0 (20140413.2041)
 -->
<!-- Title: %3 Pages: 1 -->
<svg width="299pt" height="180pt"
 viewBox="0.00 0.00 298.89 179.62" xmlns="http://www.w3.org/2000/svg" xmlns:xlink="http://www.w3.org/1999/xlink">
<g id="graph0" class="graph" transform="scale(1 1) rotate(0) translate(141.839 127.584)">
<title>%3</title>
<polygon fill="white" stroke="none" points="-141.839,52.0354 -141.839,-127.584 157.049,-127.584 157.049,52.0354 -141.839,52.0354"/>
<!-- 0 -->
<g id="node1" class="node"><title>0</title>
<path fill="olivedrab" stroke="black" stroke-width="0.5" d="M97.1702,-1.59064C97.1702,-1.59064 105.17,-1.59064 105.17,-1.59064 105.17,-1.90489 105.152,-2.21887 105.115,-2.53094 105.078,-2.84301 105.023,-3.15264 104.949,-3.45821 104.876,-3.76377 104.784,-4.06475 104.676,-4.35958 104.567,-4.65441 104.441,-4.94257 104.298,-5.22257 104.156,-5.50257 103.997,-5.77392 103.822,-6.03521 103.647,-6.2965 103.458,-6.54727 103.253,-6.78623 103.049,-7.02519 102.831,-7.25191 102.601,-7.46522 102.37,-7.67854 102.127,-7.87807 101.872,-8.06278 101.618,-8.24749 101.353,-8.41706 101.079,-8.57061 100.805,-8.72416 100.522,-8.86142 100.232,-8.98168 99.9413,-9.10194 99.6442,-9.20499 99.3417,-9.29029 99.0393,-9.37559 98.7321,-9.44299 98.4217,-9.49215 98.1113,-9.54131 97.7983,-9.57214 97.4843,-9.58448 97.1703,-9.59681 96.8558,-9.59064 96.5425,-9.56598 96.2292,-9.54133 95.9177,-9.49823 95.6095,-9.43693 95.3013,-9.37562 94.9969,-9.2962 94.6981,-9.1991 94.6981,-9.1991 97.1702,-1.59064 97.1702,-1.59064"/>
<path fill="#1874cd" stroke="black" stroke-width="0.5" d="M97.1702,-1.59064C97.1702,-1.59064 94.6981,-9.1991 94.6981,-9.1991 94.3493,-9.08579 94.0088,-8.94865 93.6789,-8.78863 93.349,-8.62861 93.0305,-8.44611 92.7256,-8.2424 92.4208,-8.03869 92.1303,-7.81427 91.8562,-7.57071 91.5821,-7.32715 91.3251,-7.06504 91.0869,-6.78623 90.8488,-6.50741 90.6301,-6.21256 90.4325,-5.90375 90.2348,-5.59494 90.0586,-5.2729 89.9051,-4.93992 89.7515,-4.60694 89.6211,-4.2638 89.5147,-3.91292 89.4082,-3.56205 89.326,-3.20427 89.2687,-2.84212 89.2113,-2.47997 89.1789,-2.11431 89.1717,-1.74771 89.1645,-1.38112 89.1826,-1.01447 89.2257,-0.650344 89.2687,-0.286222 89.3368,0.0745061 89.4294,0.429289 89.522,0.784072 89.6388,1.13207 89.7792,1.47082 89.9195,1.80958 90.0829,2.13828 90.2683,2.45462 90.4537,2.77095 90.6607,3.07416 90.8877,3.36211 91.1147,3.65005 91.3612,3.92206 91.6255,4.17619 91.8898,4.43031 92.1713,4.66597 92.4679,4.88149 92.7646,5.09701 93.0757,5.29188 93.399,5.46473 93.7224,5.63757 94.0573,5.78798 94.4013,5.91489 94.7453,6.0418 95.0976,6.1449 95.4557,6.22348 95.8139,6.30206 96.177,6.35593 96.5425,6.38469 96.9081,6.41346 97.2751,6.41707 97.6412,6.39548 98.0072,6.3739 98.3713,6.32717 98.7309,6.25564 99.0905,6.18411 99.4448,6.08793 99.7912,5.9678 100.138,5.84767 100.475,5.70387 100.802,5.53741 101.129,5.37095 101.444,5.18222 101.745,4.97257 102.045,4.76291 102.331,4.53283 102.601,4.28394 102.87,4.03504 103.122,3.76794 103.354,3.4845 103.587,3.20107 103.8,2.90198 103.991,2.58934 104.183,2.27671 104.353,1.95128 104.5,1.61535 104.647,1.27941 104.77,0.933777 104.87,0.58088 104.969,0.227983 105.045,-0.13134 105.095,-0.494545 105.145,-0.857751 105.17,-1.22398 105.17,-1.59064 105.17,-1.59064 97.1702,-1.59064 97.1702,-1.59064"/>
<ellipse fill="none" stroke="black" cx="97.1702" cy="-1.59064" rx="8" ry="8"/>
</g>
<!-- 5 -->
<g id="node6" class="node"><title>5</title>
<ellipse fill="olivedrab" stroke="black" cx="150.549" cy="-20.9234" rx="2.5" ry="2.5"/>
</g>
<!-- 0&#45;&gt;5 -->
<g id="edge2" class="edge"><title>0&#45;&gt;5</title>
<path fill="none" stroke="black" d="M105.046,-4.44326C117.343,-8.89669 140.479,-17.2761 148.068,-20.0249"/>
</g>
<!-- 7 -->
<g id="node8" class="node"><title>7</title>
<ellipse fill="#1874cd" stroke="black" cx="134.175" cy="42.6696" rx="2.5" ry="2.5"/>
</g>
<!-- 0&#45;&gt;7 -->
<g id="edge3" class="edge"><title>0&#45;&gt;7</title>
<path fill="none" stroke="black" d="M102.316,4.56356C110.736,14.6348 127.059,34.1584 132.421,40.5721"/>
</g>
<!-- 1 -->
<g id="node2" class="node"><title>1</title>
<path fill="olivedrab" stroke="black" stroke-width="0.5" d="M41.9649,-15.9161C41.9649,-15.9161 51.9649,-15.9161 51.9649,-15.9161 51.9649,-16.6149 51.8917,-17.3117 51.7464,-17.9952 51.6011,-18.6787 51.3846,-19.3451 51.1004,-19.9834 50.8162,-20.6218 50.4658,-21.2286 50.0551,-21.7939 49.6444,-22.3593 49.1755,-22.88 48.6562,-23.3475 48.1369,-23.8151 47.5701,-24.227 46.9649,-24.5763 46.3598,-24.9257 45.7197,-25.2107 45.0551,-25.4266 44.3905,-25.6426 43.7051,-25.7883 43.0102,-25.8613 42.3153,-25.9343 41.6146,-25.9343 40.9196,-25.8613 40.2247,-25.7883 39.5393,-25.6426 38.8747,-25.4266 38.2102,-25.2107 37.5701,-24.9257 36.9649,-24.5763 36.3598,-24.227 35.7929,-23.8151 35.2736,-23.3475 34.7543,-22.88 34.2855,-22.3592 33.8747,-21.7939 33.464,-21.2286 33.1137,-20.6218 32.8295,-19.9834 32.5452,-19.3451 32.3287,-18.6787 32.1834,-17.9952 32.0382,-17.3117 31.9649,-16.6148 31.9649,-15.9161 31.9649,-15.2173 32.0382,-14.5205 32.1834,-13.837 32.1834,-13.837 41.9649,-15.9161 41.9649,-15.9161"/>
<path fill="#1874cd" stroke="black" stroke-width="0.5" d="M41.9649,-15.9161C41.9649,-15.9161 32.1834,-13.837 32.1834,-13.837 32.3105,-13.239 32.4922,-12.654 32.7261,-12.0892 32.9601,-11.5245 33.2453,-10.9824 33.5782,-10.4697 33.9111,-9.95702 34.2904,-9.47595 34.7112,-9.03253 35.132,-8.58912 35.5925,-8.18522 36.0871,-7.82591 36.5816,-7.4666 37.1081,-7.1534 37.6598,-6.89023 38.2115,-6.62706 38.7863,-6.41504 39.3767,-6.25682 39.9672,-6.09861 40.5709,-5.99487 41.1803,-5.94691 41.7897,-5.89895 42.4023,-5.90696 43.0102,-5.97086 43.6181,-6.03476 44.219,-6.15427 44.8051,-6.32788 45.3912,-6.5015 45.9602,-6.7285 46.5048,-7.00602 47.0495,-7.28354 47.5676,-7.61042 48.0525,-7.98255 48.5375,-8.35468 48.9873,-8.7705 49.3964,-9.22478 49.8054,-9.67905 50.1719,-10.1699 50.4913,-10.6911 50.8107,-11.2123 51.0817,-11.7617 51.3007,-12.3324 51.5198,-12.9031 51.6861,-13.4927 51.7975,-14.0937 51.9089,-14.6948 51.9649,-15.3048 51.9649,-15.9161 51.9649,-15.9161 41.9649,-15.9161 41.9649,-15.9161"/>
<ellipse fill="none" stroke="black" cx="41.9649" cy="-15.9161" rx="10" ry="10"/>
</g>
<!-- 1&#45;&gt;0 -->
<g id="edge1" class="edge"><title>1&#45;&gt;0</title>
<path fill="none" stroke="black" d="M51.8345,-13.355C60.8362,-11.0191 74.2014,-7.55091 84.0899,-4.9849"/>
<polygon fill="black" stroke="black" points="84.7759,-6.61492 89.1761,-3.66507 83.8968,-3.22712 84.7759,-6.61492"/>
<text text-anchor="middle" x="90.9622" y="-12.5699" font-family="monospace" font-size="12.00">F1920S</text>
</g>
<!-- 3 -->
<g id="node4" class="node"><title>3</title>
<ellipse fill="olivedrab" stroke="black" cx="76.6656" cy="-49" rx="2.5" ry="2.5"/>
</g>
<!-- 1&#45;&gt;3 -->
<g id="edge5" class="edge"><title>1&#45;&gt;3</title>
<path fill="none" stroke="black" d="M49.324,-22.9323C55.7923,-29.0992 65.0709,-37.9455 70.9824,-43.5815"/>
<polygon fill="black" stroke="black" points="69.9179,-44.9845 74.7443,-47.1682 72.333,-42.4513 69.9179,-44.9845"/>
<text text-anchor="middle" x="37.1532" y="-36.6569" font-family="monospace" font-size="12.00">H1755Y</text>
</g>
<!-- 4 -->
<g id="node5" class="node"><title>4</title>
<ellipse fill="olivedrab" stroke="black" cx="-0.611797" cy="31.5688" rx="2.5" ry="2.5"/>
</g>
<!-- 1&#45;&gt;4 -->
<g id="edge6" class="edge"><title>1&#45;&gt;4</title>
<path fill="none" stroke="black" d="M34.9342,-8.07492C24.9197,3.09404 7.1146,22.9517 1.28993,29.4479"/>
</g>
<!-- 6 -->
<g id="node7" class="node"><title>6</title>
<ellipse fill="olivedrab" stroke="black" cx="61.8825" cy="32.3987" rx="2.5" ry="2.5"/>
</g>
<!-- 1&#45;&gt;6 -->
<g id="edge7" class="edge"><title>1&#45;&gt;6</title>
<path fill="none" stroke="black" d="M45.8052,-6.60051C49.6261,2.66789 55.4088,16.6952 58.8979,25.1589"/>
<polygon fill="black" stroke="black" points="60.607,24.7131 60.8948,30.0027 57.3711,26.0471 60.607,24.7131"/>
<text text-anchor="middle" x="33.3516" y="5.87921" font-family="monospace" font-size="12.00">K251R</text>
</g>
<!-- 8 -->
<g id="node9" class="node"><title>8</title>
<ellipse fill="#1874cd" stroke="black" cx="-16.572" cy="-47.5155" rx="4.5" ry="4.5"/>
</g>
<!-- 1&#45;&gt;8 -->
<g id="edge8" class="edge"><title>1&#45;&gt;8</title>
<path fill="none" stroke="black" d="M32.8185,-20.8535C19.9564,-27.7967 -2.95422,-40.1644 -12.3621,-45.243"/>
</g>
<!-- 10 -->
<g id="node11" class="node"><title>10</title>
<ellipse fill="#1874cd" stroke="black" cx="30.5846" cy="45.5354" rx="2.5" ry="2.5"/>
</g>
<!-- 1&#45;&gt;10 -->
<g id="edge9" class="edge"><title>1&#45;&gt;10</title>
<path fill="none" stroke="black" d="M40.1365,-6.04283C37.4724,8.34246 32.6701,34.274 31.098,42.7631"/>
</g>
<!-- 12 -->
<g id="node13" class="node"><title>12</title>
<ellipse fill="olivedrab" stroke="black" cx="-5.49691" cy="-2.2589" rx="2.5" ry="2.5"/>
</g>
<!-- 1&#45;&gt;12 -->
<g id="edge10" class="edge"><title>1&#45;&gt;12</title>
<path fill="none" stroke="black" d="M31.8995,-13.0197C23.0525,-10.474 10.3618,-6.82225 2.27631,-4.49565"/>
<polygon fill="black" stroke="black" points="2.41993,-2.71603 -2.86905,-3.01507 1.45203,-6.07955 2.41993,-2.71603"/>
<text text-anchor="middle" x="-1.9121" y="-12.1577" font-family="monospace" font-size="12.00">R537L</text>
</g>
<!-- 2 -->
<g id="node3" class="node"><title>2</title>
<ellipse fill="#1874cd" stroke="black" cx="46.1232" cy="-69.5733" rx="5.5" ry="5.5"/>
</g>
<!-- 2&#45;&gt;1 -->
<g id="edge4" class="edge"><title>2&#45;&gt;1</title>
<path fill="none" stroke="black" d="M45.6782,-63.8311C45.0804,-56.1175 43.9958,-42.1218 43.1525,-31.2406"/>
<polygon fill="black" stroke="black" points="44.8923,-31.0401 42.7611,-26.1903 41.4028,-31.3106 44.8923,-31.0401"/>
<text text-anchor="middle" x="25.4154" y="-50.9358" font-family="monospace" font-size="12.00">L995F</text>
</g>
<!-- 9 -->
<g id="node10" class="node"><title>9</title>
<ellipse fill="#1874cd" stroke="black" cx="63.069" cy="-121.084" rx="2.5" ry="2.5"/>
</g>
<!-- 2&#45;&gt;9 -->
<g id="edge11" class="edge"><title>2&#45;&gt;9</title>
<path fill="none" stroke="black" d="M47.9367,-75.0859C51.5569,-86.0902 59.5587,-110.414 62.2024,-118.45"/>
</g>
<!-- anon_8_11_0 -->
<g id="node14" class="node"><title>anon_8_11_0</title>
<ellipse fill="white" stroke="black" cx="-59.644" cy="-62.6194" rx="1" ry="1"/>
</g>
<!-- 8&#45;&gt;anon_8_11_0 -->
<g id="edge12" class="edge"><title>8&#45;&gt;anon_8_11_0</title>
<path fill="none" stroke="black" d="M-20.8594,-49.019C-30.3921,-52.3618 -52.937,-60.2675 -58.4243,-62.1917"/>
</g>
<!-- 11 -->
<g id="node12" class="node"><title>11</title>
<ellipse fill="#1874cd" stroke="black" cx="-135.339" cy="-86.1966" rx="2.5" ry="2.5"/>
</g>
<!-- anon_8_11_1 -->
<g id="node15" class="node"><title>anon_8_11_1</title>
<ellipse fill="white" stroke="black" cx="-97.5868" cy="-74.0409" rx="1" ry="1"/>
</g>
<!-- anon_8_11_0&#45;&gt;anon_8_11_1 -->
<g id="edge13" class="edge"><title>anon_8_11_0&#45;&gt;anon_8_11_1</title>
<path fill="none" stroke="black" d="M-60.9064,-62.9994C-66.6671,-64.7335 -90.43,-71.8866 -96.2807,-73.6477"/>
</g>
<!-- anon_8_11_1&#45;&gt;11 -->
<g id="edge14" class="edge"><title>anon_8_11_1&#45;&gt;11</title>
<path fill="none" stroke="black" d="M-98.8429,-74.4453C-104.268,-76.192 -125.736,-83.1047 -132.956,-85.4293"/>
</g>
</g>
</svg>
