<?xml version="1.0" encoding="UTF-8" standalone="no"?>
<!DOCTYPE svg PUBLIC "-//W3C//DTD SVG 1.1//EN"
 "http://www.w3.org/Graphics/SVG/1.1/DTD/svg11.dtd">
<!-- Generated by graphviz version 2.38.0 (20140413.2041)
 -->
<!-- Title: %3 Pages: 1 -->
<svg width="330pt" height="412pt"
 viewBox="0.00 0.00 329.93 411.77" xmlns="http://www.w3.org/2000/svg" xmlns:xlink="http://www.w3.org/1999/xlink">
<g id="graph0" class="graph" transform="scale(1 1) rotate(0) translate(176.912 318.086)">
<title>%3</title>
<polygon fill="white" stroke="none" points="-176.912,93.6827 -176.912,-318.086 153.022,-318.086 153.022,93.6827 -176.912,93.6827"/>
<!-- 0 -->
<g id="node1" class="node"><title>0</title>
<path fill="olivedrab" stroke="black" stroke-width="0.5" d="M6.13351,-79.5428C6.13351,-79.5428 39.1335,-79.5428 39.1335,-79.5428 39.1335,-80.7259 39.0699,-81.9081 38.9429,-83.0843 38.816,-84.2605 38.6258,-85.4291 38.3734,-86.5849 38.1209,-87.7407 37.8065,-88.8821 37.4315,-90.0041 37.0564,-91.1262 36.6213,-92.2272 36.128,-93.3025 35.6347,-94.3778 35.084,-95.4258 34.4781,-96.442 33.8723,-97.4582 33.2123,-98.441 32.5009,-99.3863 31.7895,-100.332 31.0278,-101.238 30.219,-102.101 29.4103,-102.965 28.5557,-103.784 27.659,-104.556 27.659,-104.556 6.13351,-79.5428 6.13351,-79.5428"/>
<path fill="#1874cd" stroke="black" stroke-width="0.5" d="M6.13351,-79.5428C6.13351,-79.5428 27.659,-104.556 27.659,-104.556 26.9524,-105.164 26.2204,-105.742 25.4648,-106.288 24.7093,-106.834 23.931,-107.348 23.132,-107.828 22.3329,-108.308 21.5139,-108.754 20.6771,-109.165 19.8403,-109.576 18.9865,-109.951 18.1179,-110.29 17.2494,-110.628 16.3668,-110.93 15.4727,-111.194 14.5786,-111.458 13.6737,-111.683 12.7605,-111.871 11.8473,-112.058 10.9265,-112.206 10.0008,-112.315 9.07496,-112.425 8.14496,-112.495 7.21324,-112.525 6.28153,-112.556 5.34893,-112.547 4.41798,-112.498 3.48703,-112.45 2.55854,-112.362 1.63503,-112.235 0.711515,-112.108 -0.206199,-111.942 -1.11564,-111.737 -2.02509,-111.532 -2.92545,-111.289 -3.8143,-111.008 -4.70315,-110.727 -5.57969,-110.408 -6.44157,-110.053 -7.30345,-109.698 -8.14989,-109.306 -8.97861,-108.879 -9.80734,-108.452 -10.6176,-107.99 -11.4072,-107.495 -12.1968,-106.999 -12.9651,-106.471 -13.71,-105.91 -14.4548,-105.35 -15.1756,-104.758 -15.8703,-104.136 -16.565,-103.515 -17.2331,-102.864 -17.8728,-102.186 -18.5124,-101.508 -19.123,-100.803 -19.703,-100.073 -20.2829,-99.3429 -20.8317,-98.5888 -21.3478,-97.8125 -21.8639,-97.0361 -22.3468,-96.2383 -22.7954,-95.4211 -23.2439,-94.6039 -23.6576,-93.768 -24.0354,-92.9158 -24.4132,-92.0636 -24.7547,-91.1957 -25.059,-90.3145 -25.3633,-89.4334 -25.6301,-88.5397 -25.8587,-87.636 -26.0873,-86.7322 -26.2775,-85.8192 -26.4289,-84.8994 -26.5802,-83.9795 -26.6924,-83.0536 -26.7654,-82.1243 -26.8383,-81.1949 -26.8718,-80.2629 -26.8658,-79.3307 -26.8598,-78.3985 -26.8143,-77.467 -26.7295,-76.5386 -26.6446,-75.6103 -26.5204,-74.686 -26.3573,-73.7681 -26.1942,-72.8503 -25.9922,-71.9398 -25.752,-71.0391 -25.5118,-70.1383 -25.2335,-69.2482 -24.9179,-68.371 -24.6023,-67.4938 -24.2497,-66.6304 -23.861,-65.7831 -23.4723,-64.9358 -23.0479,-64.1053 -22.5889,-63.294 -22.1298,-62.4826 -21.6367,-61.691 -21.1106,-60.9214 -20.5846,-60.1518 -20.0262,-59.4048 -19.4369,-58.6825 -18.8476,-57.9601 -18.228,-57.2631 -17.5797,-56.5932 -16.9314,-55.9233 -16.255,-55.2812 -15.5523,-54.6686 -14.8496,-54.056 -14.1213,-53.4735 -13.3693,-52.9226 -12.6173,-52.3716 -11.8423,-51.8528 -11.0464,-51.3675 -10.2505,-50.8822 -9.43436,-50.4308 -8.60022,-50.0146 -7.76608,-49.5984 -6.91467,-49.2177 -6.0483,-48.8736 -5.18193,-48.5294 -4.30136,-48.2222 -3.40897,-47.9526 -2.51658,-47.6831 -1.61317,-47.4514 -0.701164,-47.2584 0.210839,-47.0653 1.13061,-46.9109 2.05568,-46.7957 2.98075,-46.6806 3.91029,-46.6046 4.84179,-46.5681 5.77329,-46.5316 6.70592,-46.5346 7.63717,-46.5771 8.56842,-46.6196 9.49744,-46.7015 10.4218,-46.8226 11.3461,-46.9438 12.2648,-47.104 13.1756,-47.303 14.0863,-47.5019 14.9882,-47.7393 15.8789,-48.0146 16.7695,-48.2899 17.6481,-48.6028 18.5122,-48.9525 19.3764,-49.3022 20.2253,-49.6883 21.0567,-50.1099 21.8882,-50.5315 22.7014,-50.9881 23.4942,-51.4785 24.287,-51.9689 25.0586,-52.4927 25.8071,-53.0485 26.5555,-53.6042 27.2801,-54.1915 27.9788,-54.8086 28.6775,-55.4257 29.3498,-56.0721 29.9937,-56.7461 30.6377,-57.4202 31.2529,-58.1212 31.8375,-58.8473 32.4221,-59.5734 32.9757,-60.3239 33.4968,-61.0969 34.0179,-61.8699 34.5059,-62.6646 34.9597,-63.4789 35.4135,-64.2932 35.8326,-65.1264 36.2158,-65.9762 36.5991,-66.826 36.9462,-67.6917 37.2561,-68.5708 37.566,-69.45 37.8386,-70.3419 38.073,-71.2442 38.3075,-72.1465 38.5035,-73.0582 38.6608,-73.9771 38.818,-74.896 38.9362,-75.8211 39.0151,-76.7499 39.094,-77.6788 39.1335,-78.6106 39.1335,-79.5428 39.1335,-79.5428 6.13351,-79.5428 6.13351,-79.5428"/>
<ellipse fill="none" stroke="black" cx="6.13351" cy="-79.5428" rx="33" ry="33"/>
</g>
<!-- 1 -->
<g id="node2" class="node"><title>1</title>
<ellipse fill="#1874cd" stroke="black" cx="-56.2109" cy="3.83577" rx="2.5" ry="2.5"/>
</g>
<!-- 0&#45;&gt;1 -->
<g id="edge1" class="edge"><title>0&#45;&gt;1</title>
<path fill="none" stroke="black" d="M-13.9358,-52.7024C-29.3134,-32.1366 -48.8375,-6.02527 -54.5634,1.63243"/>
</g>
<!-- 2 -->
<g id="node3" class="node"><title>2</title>
<ellipse fill="#1874cd" stroke="black" cx="21.1511" cy="-142.486" rx="3.5" ry="3.5"/>
</g>
<!-- 0&#45;&gt;2 -->
<g id="edge2" class="edge"><title>0&#45;&gt;2</title>
<path fill="none" stroke="black" d="M13.8183,-111.752C16.4162,-122.64 18.986,-133.411 20.2829,-138.847"/>
</g>
<!-- 4 -->
<g id="node5" class="node"><title>4</title>
<ellipse fill="#1874cd" stroke="black" cx="3.26922" cy="-42.9182" rx="3.5" ry="3.5"/>
</g>
<!-- 0&#45;&gt;4 -->
<g id="edge5" class="edge"><title>0&#45;&gt;4</title>
<path fill="none" stroke="black" d="M3.55433,-46.5638C3.54334,-46.4233 3.53261,-46.286 3.52215,-46.1523"/>
</g>
<!-- 6 -->
<g id="node7" class="node"><title>6</title>
<ellipse fill="#1874cd" stroke="black" cx="79.604" cy="-112.211" rx="2.5" ry="2.5"/>
</g>
<!-- 0&#45;&gt;6 -->
<g id="edge6" class="edge"><title>0&#45;&gt;6</title>
<path fill="none" stroke="black" d="M36.441,-93.0187C52.5683,-100.19 70.4017,-108.119 76.9811,-111.044"/>
</g>
<!-- 7 -->
<g id="node8" class="node"><title>7</title>
<ellipse fill="#1874cd" stroke="black" cx="-100.34" cy="-118.767" rx="2.5" ry="2.5"/>
</g>
<!-- 0&#45;&gt;7 -->
<g id="edge7" class="edge"><title>0&#45;&gt;7</title>
<path fill="none" stroke="black" d="M-24.9492,-90.9935C-51.9569,-100.943 -88.2231,-114.303 -97.8889,-117.864"/>
</g>
<!-- 8 -->
<g id="node9" class="node"><title>8</title>
<ellipse fill="#1874cd" stroke="black" cx="-38.2864" cy="-6.00246" rx="2.5" ry="2.5"/>
</g>
<!-- 0&#45;&gt;8 -->
<g id="edge8" class="edge"><title>0&#45;&gt;8</title>
<path fill="none" stroke="black" d="M-11.1676,-50.8996C-21.3014,-34.1224 -32.8704,-14.969 -36.8525,-8.37632"/>
</g>
<!-- 9 -->
<g id="node10" class="node"><title>9</title>
<ellipse fill="#1874cd" stroke="black" cx="-78.5533" cy="-150.561" rx="2.5" ry="2.5"/>
</g>
<!-- 0&#45;&gt;9 -->
<g id="edge9" class="edge"><title>0&#45;&gt;9</title>
<path fill="none" stroke="black" d="M-19.2753,-100.851C-37.6918,-116.294 -61.2252,-136.029 -72.282,-145.302"/>
<polygon fill="black" stroke="black" points="-73.4988,-144.038 -76.2055,-148.592 -71.2498,-146.72 -73.4988,-144.038"/>
<text text-anchor="middle" x="-64.7787" y="-113.476" font-family="monospace" font-size="12.00">A837V</text>
</g>
<!-- 11 -->
<g id="node12" class="node"><title>11</title>
<ellipse fill="#1874cd" stroke="black" cx="-90.9284" cy="-94.0243" rx="2.5" ry="2.5"/>
</g>
<!-- 0&#45;&gt;11 -->
<g id="edge10" class="edge"><title>0&#45;&gt;11</title>
<path fill="none" stroke="black" d="M-26.7272,-84.4456C-50.0459,-87.9247 -78.7716,-92.2105 -87.9572,-93.581"/>
</g>
<!-- 14 -->
<g id="node15" class="node"><title>14</title>
<ellipse fill="#1874cd" stroke="black" cx="-62.0625" cy="-53.1817" rx="2.5" ry="2.5"/>
</g>
<!-- 0&#45;&gt;14 -->
<g id="edge11" class="edge"><title>0&#45;&gt;14</title>
<path fill="none" stroke="black" d="M-24.772,-67.5963C-38.8687,-62.1473 -53.6996,-56.4144 -59.5136,-54.167"/>
</g>
<!-- 18 -->
<g id="node19" class="node"><title>18</title>
<ellipse fill="#1874cd" stroke="black" cx="20.7375" cy="-11.9151" rx="2.5" ry="2.5"/>
</g>
<!-- 0&#45;&gt;18 -->
<g id="edge16" class="edge"><title>0&#45;&gt;18</title>
<path fill="none" stroke="black" d="M13.1789,-46.9175C16.0381,-33.6771 18.9499,-20.1933 20.1577,-14.6001"/>
</g>
<!-- 19 -->
<g id="node20" class="node"><title>19</title>
<ellipse fill="#1874cd" stroke="black" cx="-54.2523" cy="-129.5" rx="2.5" ry="2.5"/>
</g>
<!-- 0&#45;&gt;19 -->
<g id="edge17" class="edge"><title>0&#45;&gt;19</title>
<path fill="none" stroke="black" d="M-19.4755,-100.729C-32.5906,-111.579 -46.8871,-123.407 -52.154,-127.764"/>
</g>
<!-- 20 -->
<g id="node21" class="node"><title>20</title>
<ellipse fill="#1874cd" stroke="black" cx="-34.6466" cy="-98.0129" rx="2.5" ry="2.5"/>
</g>
<!-- 0&#45;&gt;20 -->
<g id="edge18" class="edge"><title>0&#45;&gt;20</title>
<path fill="none" stroke="black" d="M-23.9321,-93.1601C-27.3703,-94.7173 -30.3307,-96.0581 -32.2629,-96.9333"/>
</g>
<!-- 22 -->
<g id="node23" class="node"><title>22</title>
<ellipse fill="olivedrab" stroke="black" cx="-4.77727" cy="14.3897" rx="2.5" ry="2.5"/>
</g>
<!-- 0&#45;&gt;22 -->
<g id="edge22" class="edge"><title>0&#45;&gt;22</title>
<path fill="none" stroke="black" d="M2.31745,-46.6898C-0.288123,-24.258 -3.44371,2.90892 -4.45147,11.5849"/>
</g>
<!-- 23 -->
<g id="node24" class="node"><title>23</title>
<ellipse fill="#1874cd" stroke="black" cx="-30.8379" cy="-159.342" rx="2.5" ry="2.5"/>
</g>
<!-- 0&#45;&gt;23 -->
<g id="edge23" class="edge"><title>0&#45;&gt;23</title>
<path fill="none" stroke="black" d="M-7.84381,-109.711C-16.3504,-128.072 -26.2135,-149.36 -29.6131,-156.698"/>
</g>
<!-- anon_0_3_0 -->
<g id="node27" class="node"><title>anon_0_3_0</title>
<ellipse fill="white" stroke="black" cx="65.0019" cy="-149.612" rx="1" ry="1"/>
</g>
<!-- 0&#45;&gt;anon_0_3_0 -->
<g id="edge3" class="edge"><title>0&#45;&gt;anon_0_3_0</title>
<path fill="none" stroke="black" d="M27.3864,-104.839C42.1407,-122.401 59.8744,-143.509 64.0772,-148.511"/>
</g>
<!-- anon_0_17_0 -->
<g id="node28" class="node"><title>anon_0_17_0</title>
<ellipse fill="white" stroke="black" cx="1.75087" cy="-184.211" rx="1" ry="1"/>
</g>
<!-- 0&#45;&gt;anon_0_17_0 -->
<g id="edge12" class="edge"><title>0&#45;&gt;anon_0_17_0</title>
<path fill="none" stroke="black" d="M4.74682,-112.66C3.58321,-140.45 2.06811,-176.634 1.79425,-183.175"/>
</g>
<!-- anon_0_21_0 -->
<g id="node31" class="node"><title>anon_0_21_0</title>
<ellipse fill="white" stroke="black" cx="-99.4361" cy="-38.6464" rx="1" ry="1"/>
</g>
<!-- 0&#45;&gt;anon_0_21_0 -->
<g id="edge19" class="edge"><title>0&#45;&gt;anon_0_21_0</title>
<path fill="none" stroke="black" d="M-24.6854,-67.604C-52.9244,-56.6645 -91.3721,-41.7703 -98.3329,-39.0738"/>
</g>
<!-- 3 -->
<g id="node4" class="node"><title>3</title>
<ellipse fill="#1874cd" stroke="black" cx="94.3185" cy="-177.192" rx="2.5" ry="2.5"/>
</g>
<!-- 5 -->
<g id="node6" class="node"><title>5</title>
<ellipse fill="#1874cd" stroke="black" cx="121.747" cy="-58.7084" rx="2.5" ry="2.5"/>
</g>
<!-- 24 -->
<g id="node25" class="node"><title>24</title>
<ellipse fill="#1874cd" stroke="black" cx="75.8746" cy="-31.6639" rx="2.5" ry="2.5"/>
</g>
<!-- 5&#45;&gt;24 -->
<g id="edge25" class="edge"><title>5&#45;&gt;24</title>
<path fill="none" stroke="black" d="M119.535,-57.404C111.803,-52.8458 86.0364,-37.6548 78.173,-33.0189"/>
</g>
<!-- 12 -->
<g id="node13" class="node"><title>12</title>
<ellipse fill="#1874cd" stroke="black" cx="124.576" cy="-132.155" rx="2.5" ry="2.5"/>
</g>
<!-- 6&#45;&gt;12 -->
<g id="edge26" class="edge"><title>6&#45;&gt;12</title>
<path fill="none" stroke="black" d="M82.0219,-113.283C89.7575,-116.714 113.864,-127.404 121.922,-130.978"/>
</g>
<!-- 10 -->
<g id="node11" class="node"><title>10</title>
<ellipse fill="#1874cd" stroke="black" cx="101.354" cy="3.7523" rx="2.5" ry="2.5"/>
</g>
<!-- anon_10_16_0 -->
<g id="node33" class="node"><title>anon_10_16_0</title>
<ellipse fill="white" stroke="black" cx="128.521" cy="51.3452" rx="1" ry="1"/>
</g>
<!-- 10&#45;&gt;anon_10_16_0 -->
<g id="edge27" class="edge"><title>10&#45;&gt;anon_10_16_0</title>
<path fill="none" stroke="black" d="M102.664,6.0478C107.582,14.6634 124.822,44.8654 128.011,50.4526"/>
</g>
<!-- 13 -->
<g id="node14" class="node"><title>13</title>
<ellipse fill="#1874cd" stroke="black" cx="1.657" cy="-91.5324" rx="2.5" ry="2.5"/>
</g>
<!-- 15 -->
<g id="node16" class="node"><title>15</title>
<ellipse fill="#1874cd" stroke="black" cx="127.821" cy="-27.5318" rx="2.5" ry="2.5"/>
</g>
<!-- 15&#45;&gt;24 -->
<g id="edge30" class="edge"><title>15&#45;&gt;24</title>
<path fill="none" stroke="black" d="M125.316,-27.7311C117.86,-28.3242 95.5943,-30.0953 83.6497,-31.0454"/>
<polygon fill="black" stroke="black" points="83.3228,-29.3158 78.4773,-31.4568 83.6004,-32.8048 83.3228,-29.3158"/>
<text text-anchor="middle" x="85.4827" y="-19.7883" font-family="monospace" font-size="12.00">R254K</text>
</g>
<!-- 16 -->
<g id="node17" class="node"><title>16</title>
<ellipse fill="#1874cd" stroke="black" cx="146.522" cy="87.1827" rx="2.5" ry="2.5"/>
</g>
<!-- 17 -->
<g id="node18" class="node"><title>17</title>
<ellipse fill="#1874cd" stroke="black" cx="0.960949" cy="-311.586" rx="2.5" ry="2.5"/>
</g>
<!-- 21 -->
<g id="node22" class="node"><title>21</title>
<ellipse fill="#1874cd" stroke="black" cx="-170.412" cy="4.5118" rx="2.5" ry="2.5"/>
</g>
<!-- 24&#45;&gt;0 -->
<g id="edge24" class="edge"><title>24&#45;&gt;0</title>
<path fill="none" stroke="black" d="M73.5542,-33.2569C67.8567,-37.1684 52.5786,-47.6571 38.0046,-57.6625"/>
<polygon fill="black" stroke="black" points="36.6472,-56.4717 33.5156,-60.7443 38.6282,-59.3571 36.6472,-56.4717"/>
<text text-anchor="middle" x="36.7794" y="-35.8597" font-family="monospace" font-size="12.00">L995F</text>
</g>
<!-- 24&#45;&gt;10 -->
<g id="edge29" class="edge"><title>24&#45;&gt;10</title>
<path fill="none" stroke="black" d="M77.5464,-29.3401C81.3605,-24.0386 90.8204,-10.8895 96.6018,-2.85341"/>
<polygon fill="black" stroke="black" points="98.1434,-3.70725 99.6428,1.37355 95.3022,-1.66322 98.1434,-3.70725"/>
<text text-anchor="middle" x="68.0741" y="-6.49677" font-family="monospace" font-size="12.00">L995S</text>
</g>
<!-- 25 -->
<g id="node26" class="node"><title>25</title>
<ellipse fill="#1874cd" stroke="black" cx="72.7675" cy="15.8259" rx="2.5" ry="2.5"/>
</g>
<!-- 24&#45;&gt;25 -->
<g id="edge31" class="edge"><title>24&#45;&gt;25</title>
<path fill="none" stroke="black" d="M75.7076,-29.1106C75.1731,-20.9419 73.5076,4.51445 72.9509,13.0238"/>
</g>
<!-- anon_0_3_0&#45;&gt;3 -->
<g id="edge4" class="edge"><title>anon_0_3_0&#45;&gt;3</title>
<path fill="none" stroke="black" d="M66.2616,-150.797C70.8209,-155.086 86.4932,-169.83 92.2101,-175.209"/>
</g>
<!-- anon_0_17_1 -->
<g id="node29" class="node"><title>anon_0_17_1</title>
<ellipse fill="white" stroke="black" cx="1.05974" cy="-229.543" rx="1" ry="1"/>
</g>
<!-- anon_0_17_0&#45;&gt;anon_0_17_1 -->
<g id="edge13" class="edge"><title>anon_0_17_0&#45;&gt;anon_0_17_1</title>
<path fill="none" stroke="black" d="M1.73379,-185.331C1.639,-191.549 1.17839,-221.761 1.07876,-228.295"/>
</g>
<!-- anon_0_17_2 -->
<g id="node30" class="node"><title>anon_0_17_2</title>
<ellipse fill="white" stroke="black" cx="3.49434" cy="-271.674" rx="1" ry="1"/>
</g>
<!-- anon_0_17_1&#45;&gt;anon_0_17_2 -->
<g id="edge14" class="edge"><title>anon_0_17_1&#45;&gt;anon_0_17_2</title>
<path fill="none" stroke="black" d="M1.11992,-230.585C1.44796,-236.261 3.01985,-263.463 3.4077,-270.175"/>
</g>
<!-- anon_0_17_2&#45;&gt;17 -->
<g id="edge15" class="edge"><title>anon_0_17_2&#45;&gt;17</title>
<path fill="none" stroke="black" d="M3.41005,-273.002C3.04602,-278.737 1.60534,-301.434 1.12087,-309.066"/>
</g>
<!-- anon_0_21_1 -->
<g id="node32" class="node"><title>anon_0_21_1</title>
<ellipse fill="white" stroke="black" cx="-135.194" cy="-14.5637" rx="1" ry="1"/>
</g>
<!-- anon_0_21_0&#45;&gt;anon_0_21_1 -->
<g id="edge20" class="edge"><title>anon_0_21_0&#45;&gt;anon_0_21_1</title>
<path fill="none" stroke="black" d="M-100.32,-38.0511C-105.138,-34.8062 -128.225,-19.2573 -133.921,-15.4208"/>
</g>
<!-- anon_0_21_1&#45;&gt;21 -->
<g id="edge21" class="edge"><title>anon_0_21_1&#45;&gt;21</title>
<path fill="none" stroke="black" d="M-136.707,-13.7441C-142.184,-10.7775 -161.011,-0.579876 -167.879,3.13994"/>
</g>
<!-- anon_10_16_0&#45;&gt;16 -->
<g id="edge28" class="edge"><title>anon_10_16_0&#45;&gt;16</title>
<path fill="none" stroke="black" d="M129.294,52.8851C132.094,58.4584 141.717,77.6169 145.228,84.6054"/>
</g>
</g>
</svg>
