<?xml version="1.0" encoding="UTF-8" standalone="no"?>
<!DOCTYPE svg PUBLIC "-//W3C//DTD SVG 1.1//EN"
 "http://www.w3.org/Graphics/SVG/1.1/DTD/svg11.dtd">
<!-- Generated by graphviz version 2.38.0 (20140413.2041)
 -->
<!-- Title: %3 Pages: 1 -->
<svg width="471pt" height="421pt"
 viewBox="0.00 0.00 470.62 420.87" xmlns="http://www.w3.org/2000/svg" xmlns:xlink="http://www.w3.org/1999/xlink">
<g id="graph0" class="graph" transform="scale(1 1) rotate(0) translate(321.897 334.441)">
<title>%3</title>
<polygon fill="white" stroke="none" points="-321.897,86.4339 -321.897,-334.441 148.718,-334.441 148.718,86.4339 -321.897,86.4339"/>
<!-- 0 -->
<g id="node1" class="node"><title>0</title>
<path fill="olivedrab" stroke="black" stroke-width="0.5" d="M3.38404,-73.9708C3.38404,-73.9708 36.384,-73.9708 36.384,-73.9708 36.384,-75.1538 36.3204,-76.336 36.1935,-77.5123 36.0665,-78.6885 35.8764,-79.857 35.6239,-81.0128 35.3715,-82.1687 35.057,-83.31 34.682,-84.4321 34.3069,-85.5541 33.8718,-86.6552 33.3786,-87.7305 32.8853,-88.8058 32.3345,-89.8538 31.7287,-90.87 31.1228,-91.8861 30.4628,-92.869 29.7514,-93.8143 29.04,-94.7595 28.2783,-95.6659 27.4696,-96.5293 26.6608,-97.3928 25.8063,-98.2122 24.9095,-98.9839 24.9095,-98.9839 3.38404,-73.9708 3.38404,-73.9708"/>
<path fill="#1874cd" stroke="black" stroke-width="0.5" d="M3.38404,-73.9708C3.38404,-73.9708 24.9095,-98.9839 24.9095,-98.9839 24.2029,-99.5919 23.4709,-100.17 22.7154,-100.716 21.9599,-101.262 21.1815,-101.776 20.3825,-102.256 19.5835,-102.736 18.7645,-103.182 17.9277,-103.593 17.0909,-104.004 16.237,-104.379 15.3685,-104.718 14.4999,-105.056 13.6174,-105.358 12.7233,-105.622 11.8292,-105.886 10.9243,-106.111 10.0111,-106.299 9.09783,-106.486 8.17708,-106.634 7.25129,-106.743 6.3255,-106.853 5.39549,-106.923 4.46377,-106.953 3.53206,-106.984 2.59947,-106.975 1.66851,-106.926 0.737557,-106.878 -0.190926,-106.79 -1.11444,-106.663 -2.03795,-106.536 -2.95567,-106.37 -3.86511,-106.165 -4.77456,-105.96 -5.67492,-105.717 -6.56377,-105.436 -7.45262,-105.155 -8.32916,-104.836 -9.19104,-104.481 -10.0529,-104.126 -10.8994,-103.734 -11.7281,-103.307 -12.5568,-102.88 -13.3671,-102.418 -14.1567,-101.923 -14.9463,-101.427 -15.7146,-100.899 -16.4594,-100.338 -17.2043,-99.7776 -17.925,-99.1857 -18.6198,-98.5641 -19.3145,-97.9425 -19.9826,-97.2918 -20.6222,-96.6136 -21.2619,-95.9355 -21.8725,-95.2305 -22.4524,-94.5007 -23.0324,-93.7708 -23.5811,-93.0167 -24.0972,-92.2404 -24.6133,-91.4641 -25.0963,-90.6663 -25.5448,-89.8491 -25.9934,-89.0318 -26.4071,-88.196 -26.7849,-87.3438 -27.1627,-86.4915 -27.5041,-85.6236 -27.8084,-84.7425 -28.1127,-83.8613 -28.3795,-82.9677 -28.6082,-82.0639 -28.8368,-81.1602 -29.027,-80.2472 -29.1783,-79.3273 -29.3296,-78.4075 -29.4419,-77.4816 -29.5148,-76.5522 -29.5878,-75.6229 -29.6213,-74.6909 -29.6153,-73.7587 -29.6093,-72.8265 -29.5638,-71.8949 -29.4789,-70.9666 -29.3941,-70.0383 -29.2699,-69.1139 -29.1068,-68.1961 -28.9436,-67.2783 -28.7417,-66.3678 -28.5015,-65.467 -28.2612,-64.5663 -27.983,-63.6761 -27.6674,-62.799 -27.3518,-61.9218 -26.9992,-61.0584 -26.6105,-60.2111 -26.2218,-59.3638 -25.7973,-58.5333 -25.3383,-57.7219 -24.8793,-56.9106 -24.3861,-56.119 -23.8601,-55.3494 -23.3341,-54.5798 -22.7756,-53.8328 -22.1864,-53.1104 -21.5971,-52.3881 -20.9775,-51.6911 -20.3291,-51.0212 -19.6808,-50.3513 -19.0045,-49.7092 -18.3018,-49.0966 -17.5991,-48.484 -16.8708,-47.9014 -16.1188,-47.3505 -15.3668,-46.7996 -14.5918,-46.2808 -13.7959,-45.7954 -13,-45.3101 -12.1838,-44.8588 -11.3497,-44.4425 -10.5155,-44.0263 -9.66414,-43.6457 -8.79777,-43.3015 -7.93139,-42.9574 -7.05083,-42.6501 -6.15844,-42.3806 -5.26605,-42.111 -4.36263,-41.8794 -3.45063,-41.6863 -2.53863,-41.4932 -1.61886,-41.3389 -0.693785,-41.2237 0.231286,-41.1085 1.16082,-41.0326 2.09232,-40.9961 3.02382,-40.9596 3.95645,-40.9626 4.8877,-41.0051 5.81895,-41.0475 6.74798,-41.1295 7.67229,-41.2506 8.5966,-41.3717 9.51536,-41.532 10.4261,-41.7309 11.3368,-41.9298 12.2388,-42.1673 13.1294,-42.4426 14.02,-42.7179 14.8986,-43.0308 15.7627,-43.3805 16.6269,-43.7302 17.4758,-44.1163 18.3073,-44.5379 19.1387,-44.9594 19.9519,-45.416 20.7447,-45.9065 21.5375,-46.3969 22.3092,-46.9207 23.0576,-47.4764 23.806,-48.0322 24.5306,-48.6194 25.2293,-49.2365 25.928,-49.8536 26.6003,-50.5001 27.2443,-51.1741 27.8883,-51.8481 28.5034,-52.5491 29.088,-53.2752 29.6726,-54.0013 30.2262,-54.7519 30.7473,-55.5249 31.2684,-56.2979 31.7565,-57.0926 32.2103,-57.9069 32.6641,-58.7212 33.0831,-59.5544 33.4664,-60.4042 33.8496,-61.254 34.1967,-62.1196 34.5066,-62.9988 34.8166,-63.878 35.0891,-64.7699 35.3236,-65.6722 35.558,-66.5744 35.7541,-67.4862 35.9113,-68.4051 36.0685,-69.3239 36.1868,-70.249 36.2656,-71.1779 36.3445,-72.1068 36.384,-73.0386 36.384,-73.9708 36.384,-73.9708 3.38404,-73.9708 3.38404,-73.9708"/>
<ellipse fill="none" stroke="black" cx="3.38404" cy="-73.9708" rx="33" ry="33"/>
</g>
<!-- 1 -->
<g id="node2" class="node"><title>1</title>
<ellipse fill="#1874cd" stroke="black" cx="-69.4943" cy="-47.2405" rx="2.5" ry="2.5"/>
</g>
<!-- 0&#45;&gt;1 -->
<g id="edge1" class="edge"><title>0&#45;&gt;1</title>
<path fill="none" stroke="black" d="M-27.9459,-62.4796C-43.6862,-56.7064 -60.724,-50.4572 -66.9962,-48.1567"/>
</g>
<!-- 2 -->
<g id="node3" class="node"><title>2</title>
<ellipse fill="#1874cd" stroke="black" cx="63.7478" cy="5.76586" rx="3.5" ry="3.5"/>
</g>
<!-- 0&#45;&gt;2 -->
<g id="edge2" class="edge"><title>0&#45;&gt;2</title>
<path fill="none" stroke="black" d="M23.4843,-47.4196C37.7517,-28.5733 55.4148,-5.24154 61.5368,2.84532"/>
</g>
<!-- 4 -->
<g id="node5" class="node"><title>4</title>
<ellipse fill="#1874cd" stroke="black" cx="-13.7669" cy="12.671" rx="3.5" ry="3.5"/>
</g>
<!-- 0&#45;&gt;4 -->
<g id="edge5" class="edge"><title>0&#45;&gt;4</title>
<path fill="none" stroke="black" d="M-3.09999,-41.2153C-6.93234,-21.8553 -11.3582,0.502868 -13.0548,9.07379"/>
</g>
<!-- 6 -->
<g id="node7" class="node"><title>6</title>
<ellipse fill="#1874cd" stroke="black" cx="26.8011" cy="32.6415" rx="2.5" ry="2.5"/>
</g>
<!-- 0&#45;&gt;6 -->
<g id="edge6" class="edge"><title>0&#45;&gt;6</title>
<path fill="none" stroke="black" d="M10.4735,-41.6943C16.3427,-14.9733 24.056,20.1438 26.2166,29.9804"/>
</g>
<!-- 8 -->
<g id="node9" class="node"><title>8</title>
<ellipse fill="#1874cd" stroke="black" cx="1.39681" cy="22.2339" rx="2.5" ry="2.5"/>
</g>
<!-- 0&#45;&gt;8 -->
<g id="edge7" class="edge"><title>0&#45;&gt;8</title>
<path fill="none" stroke="black" d="M2.70015,-40.8626C2.22412,-17.817 1.6427,10.3303 1.4569,19.3252"/>
</g>
<!-- 9 -->
<g id="node10" class="node"><title>9</title>
<ellipse fill="#1874cd" stroke="black" cx="-69.2356" cy="-101.238" rx="2.5" ry="2.5"/>
</g>
<!-- 0&#45;&gt;9 -->
<g id="edge8" class="edge"><title>0&#45;&gt;9</title>
<path fill="none" stroke="black" d="M-27.8347,-85.6929C-43.5191,-91.5821 -60.4965,-97.9568 -66.7464,-100.304"/>
</g>
<!-- 10 -->
<g id="node11" class="node"><title>10</title>
<ellipse fill="#1874cd" stroke="black" cx="90.7341" cy="-18.8217" rx="2.5" ry="2.5"/>
</g>
<!-- 0&#45;&gt;10 -->
<g id="edge9" class="edge"><title>0&#45;&gt;10</title>
<path fill="none" stroke="black" d="M31.5029,-56.2177C50.0185,-44.5278 72.8246,-30.129 83.9643,-23.0958"/>
<polygon fill="black" stroke="black" points="85.1321,-24.4281 88.4258,-20.279 83.2636,-21.4686 85.1321,-24.4281"/>
<text text-anchor="middle" x="76.7336" y="-30.0568" font-family="monospace" font-size="12.00">A837V</text>
</g>
<!-- 12 -->
<g id="node13" class="node"><title>12</title>
<ellipse fill="#1874cd" stroke="black" cx="-85.5757" cy="-78.6859" rx="2.5" ry="2.5"/>
</g>
<!-- 0&#45;&gt;12 -->
<g id="edge10" class="edge"><title>0&#45;&gt;12</title>
<path fill="none" stroke="black" d="M-29.7413,-75.7265C-50.6866,-76.8367 -75.232,-78.1376 -83.0507,-78.552"/>
</g>
<!-- 15 -->
<g id="node16" class="node"><title>15</title>
<ellipse fill="#1874cd" stroke="black" cx="-44.0353" cy="-44.2476" rx="2.5" ry="2.5"/>
</g>
<!-- 0&#45;&gt;15 -->
<g id="edge11" class="edge"><title>0&#45;&gt;15</title>
<path fill="none" stroke="black" d="M-24.7481,-56.3371C-31.7681,-51.9369 -38.2518,-47.8728 -41.6186,-45.7624"/>
</g>
<!-- 19 -->
<g id="node20" class="node"><title>19</title>
<ellipse fill="#1874cd" stroke="black" cx="63.3216" cy="-53.7364" rx="2.5" ry="2.5"/>
</g>
<!-- 0&#45;&gt;19 -->
<g id="edge16" class="edge"><title>0&#45;&gt;19</title>
<path fill="none" stroke="black" d="M34.7571,-63.3795C45.6336,-59.7077 56.2629,-56.1194 60.8977,-54.5547"/>
</g>
<!-- 20 -->
<g id="node21" class="node"><title>20</title>
<ellipse fill="#1874cd" stroke="black" cx="51.0457" cy="-27.2702" rx="2.5" ry="2.5"/>
</g>
<!-- 0&#45;&gt;20 -->
<g id="edge17" class="edge"><title>0&#45;&gt;20</title>
<path fill="none" stroke="black" d="M27.2149,-50.6205C36.1514,-41.8641 45.088,-33.1078 48.9977,-29.2768"/>
</g>
<!-- 21 -->
<g id="node22" class="node"><title>21</title>
<ellipse fill="#1874cd" stroke="black" cx="33.9185" cy="-107.286" rx="2.5" ry="2.5"/>
</g>
<!-- 0&#45;&gt;21 -->
<g id="edge18" class="edge"><title>0&#45;&gt;21</title>
<path fill="none" stroke="black" d="M25.8959,-98.5329C28.4703,-101.342 30.6869,-103.76 32.1336,-105.339"/>
</g>
<!-- 23 -->
<g id="node24" class="node"><title>23</title>
<ellipse fill="olivedrab" stroke="black" cx="-47.372" cy="6.20849" rx="2.5" ry="2.5"/>
</g>
<!-- 0&#45;&gt;23 -->
<g id="edge22" class="edge"><title>0&#45;&gt;23</title>
<path fill="none" stroke="black" d="M-14.368,-45.928C-26.4889,-26.7806 -41.1684,-3.59134 -45.8565,3.81433"/>
</g>
<!-- 24 -->
<g id="node25" class="node"><title>24</title>
<ellipse fill="#1874cd" stroke="black" cx="88.7399" cy="-66.9592" rx="2.5" ry="2.5"/>
</g>
<!-- 0&#45;&gt;24 -->
<g id="edge23" class="edge"><title>0&#45;&gt;24</title>
<path fill="none" stroke="black" d="M36.6292,-71.2399C56.102,-69.6403 78.3327,-67.8141 85.9846,-67.1855"/>
</g>
<!-- anon_0_3_0 -->
<g id="node29" class="node"><title>anon_0_3_0</title>
<ellipse fill="white" stroke="black" cx="101.535" cy="-91.7516" rx="1" ry="1"/>
</g>
<!-- 0&#45;&gt;anon_0_3_0 -->
<g id="edge3" class="edge"><title>0&#45;&gt;anon_0_3_0</title>
<path fill="none" stroke="black" d="M36.067,-79.8916C61.4963,-84.4983 93.5599,-90.3069 100.27,-91.5224"/>
</g>
<!-- anon_0_18_0 -->
<g id="node30" class="node"><title>anon_0_18_0</title>
<ellipse fill="white" stroke="black" cx="-87.2227" cy="-9.6165" rx="1" ry="1"/>
</g>
<!-- 0&#45;&gt;anon_0_18_0 -->
<g id="edge12" class="edge"><title>0&#45;&gt;anon_0_18_0</title>
<path fill="none" stroke="black" d="M-23.801,-54.6624C-47.9877,-37.4835 -80.4235,-14.4457 -86.2927,-10.277"/>
</g>
<!-- anon_0_22_0 -->
<g id="node33" class="node"><title>anon_0_22_0</title>
<ellipse fill="white" stroke="black" cx="-73.9976" cy="-138.77" rx="1" ry="1"/>
</g>
<!-- 0&#45;&gt;anon_0_22_0 -->
<g id="edge19" class="edge"><title>0&#45;&gt;anon_0_22_0</title>
<path fill="none" stroke="black" d="M-21.9536,-95.1883C-41.7004,-111.724 -66.7365,-132.689 -72.687,-137.672"/>
</g>
<!-- 3 -->
<g id="node4" class="node"><title>3</title>
<ellipse fill="#1874cd" stroke="black" cx="142.218" cy="-91.9503" rx="2.5" ry="2.5"/>
</g>
<!-- 5 -->
<g id="node6" class="node"><title>5</title>
<ellipse fill="#1874cd" stroke="black" cx="14.3723" cy="-203.148" rx="2.5" ry="2.5"/>
</g>
<!-- 25 -->
<g id="node26" class="node"><title>25</title>
<ellipse fill="#1874cd" stroke="black" cx="30.2903" cy="-153.459" rx="2.5" ry="2.5"/>
</g>
<!-- 5&#45;&gt;25 -->
<g id="edge26" class="edge"><title>5&#45;&gt;25</title>
<path fill="none" stroke="black" d="M15.1401,-200.751C17.8229,-192.377 26.7641,-164.467 29.4928,-155.949"/>
</g>
<!-- 13 -->
<g id="node14" class="node"><title>13</title>
<ellipse fill="#1874cd" stroke="black" cx="39.7347" cy="79.9339" rx="2.5" ry="2.5"/>
</g>
<!-- 6&#45;&gt;13 -->
<g id="edge27" class="edge"><title>6&#45;&gt;13</title>
<path fill="none" stroke="black" d="M27.4965,35.1842C29.7212,43.319 36.6541,68.6695 38.9715,77.1434"/>
</g>
<!-- 7 -->
<g id="node8" class="node"><title>7</title>
<ellipse fill="#1874cd" stroke="black" cx="-315.397" cy="-327.941" rx="2.5" ry="2.5"/>
</g>
<!-- 11 -->
<g id="node12" class="node"><title>11</title>
<ellipse fill="#1874cd" stroke="black" cx="52.1335" cy="-191.105" rx="2.5" ry="2.5"/>
</g>
<!-- anon_11_17_0 -->
<g id="node35" class="node"><title>anon_11_17_0</title>
<ellipse fill="white" stroke="black" cx="74.9354" cy="-240.185" rx="1" ry="1"/>
</g>
<!-- 11&#45;&gt;anon_11_17_0 -->
<g id="edge28" class="edge"><title>11&#45;&gt;anon_11_17_0</title>
<path fill="none" stroke="black" d="M53.2333,-193.472C57.361,-202.357 71.831,-233.503 74.5078,-239.265"/>
</g>
<!-- 14 -->
<g id="node15" class="node"><title>14</title>
<ellipse fill="#1874cd" stroke="black" cx="-8.40143" cy="-62.7945" rx="2.5" ry="2.5"/>
</g>
<!-- 16 -->
<g id="node17" class="node"><title>16</title>
<ellipse fill="#1874cd" stroke="black" cx="-9.76067" cy="-180.462" rx="2.5" ry="2.5"/>
</g>
<!-- 16&#45;&gt;25 -->
<g id="edge31" class="edge"><title>16&#45;&gt;25</title>
<path fill="none" stroke="black" d="M-7.60736,-179.01C-1.79462,-175.091 14.3976,-164.174 23.6265,-157.952"/>
<polygon fill="black" stroke="black" points="24.7596,-159.299 27.9271,-155.053 22.803,-156.397 24.7596,-159.299"/>
<text text-anchor="middle" x="27.0096" y="-158.881" font-family="monospace" font-size="12.00">R254K</text>
</g>
<!-- 27 -->
<g id="node28" class="node"><title>27</title>
<ellipse fill="#1874cd" stroke="black" cx="-19.4481" cy="-140.371" rx="2.5" ry="2.5"/>
</g>
<!-- 16&#45;&gt;27 -->
<g id="edge33" class="edge"><title>16&#45;&gt;27</title>
<path fill="none" stroke="black" stroke-dasharray="5,2" d="M-10.3963,-177.831C-11.8327,-171.887 -15.3754,-157.225 -17.5786,-148.107"/>
<polygon fill="black" stroke="black" points="-15.9219,-147.513 -18.7974,-143.064 -19.324,-148.335 -15.9219,-147.513"/>
<text text-anchor="middle" x="-32.9875" y="-166.369" font-family="monospace" font-size="12.00">L995F</text>
</g>
<!-- 17 -->
<g id="node18" class="node"><title>17</title>
<ellipse fill="#1874cd" stroke="black" cx="98.1696" cy="-273.327" rx="2.5" ry="2.5"/>
</g>
<!-- 18 -->
<g id="node19" class="node"><title>18</title>
<ellipse fill="#1874cd" stroke="black" cx="-204.553" cy="32.9631" rx="2.5" ry="2.5"/>
</g>
<!-- 22 -->
<g id="node23" class="node"><title>22</title>
<ellipse fill="#1874cd" stroke="black" cx="-140.01" cy="-192.777" rx="2.5" ry="2.5"/>
</g>
<!-- 25&#45;&gt;0 -->
<g id="edge24" class="edge"><title>25&#45;&gt;0</title>
<path fill="none" stroke="black" d="M29.3951,-150.815C27.2135,-144.37 21.3911,-127.169 15.8069,-110.671"/>
<polygon fill="black" stroke="black" points="17.3465,-109.762 14.0858,-105.587 14.0313,-110.884 17.3465,-109.762"/>
<text text-anchor="middle" x="3.60097" y="-134.143" font-family="monospace" font-size="12.00">L995F</text>
</g>
<!-- 25&#45;&gt;11 -->
<g id="edge30" class="edge"><title>25&#45;&gt;11</title>
<path fill="none" stroke="black" d="M31.7235,-155.93C34.9932,-161.565 43.1031,-175.542 48.0594,-184.083"/>
<polygon fill="black" stroke="black" points="46.6433,-185.13 50.6664,-188.576 49.6706,-183.373 46.6433,-185.13"/>
<text text-anchor="middle" x="20.8914" y="-173.406" font-family="monospace" font-size="12.00">L995S</text>
</g>
<!-- 26 -->
<g id="node27" class="node"><title>26</title>
<ellipse fill="#1874cd" stroke="black" cx="78.9179" cy="-165.85" rx="2.5" ry="2.5"/>
</g>
<!-- 25&#45;&gt;26 -->
<g id="edge32" class="edge"><title>25&#45;&gt;26</title>
<path fill="none" stroke="black" d="M32.9047,-154.126C41.2692,-156.257 67.3354,-162.899 76.0486,-165.119"/>
</g>
<!-- 27&#45;&gt;0 -->
<g id="edge25" class="edge"><title>27&#45;&gt;0</title>
<path fill="none" stroke="black" d="M-18.5809,-137.849C-16.9273,-133.04 -13.1321,-122.003 -9.15344,-110.432"/>
<polygon fill="black" stroke="black" points="-7.41378,-110.755 -7.44277,-105.457 -10.7236,-109.616 -7.41378,-110.755"/>
<text text-anchor="middle" x="-32.8672" y="-114.541" font-family="monospace" font-size="12.00">R254K</text>
</g>
<!-- anon_0_3_0&#45;&gt;3 -->
<g id="edge4" class="edge"><title>anon_0_3_0&#45;&gt;3</title>
<path fill="none" stroke="black" d="M102.541,-91.7566C107.729,-91.7819 131.534,-91.8981 139.564,-91.9373"/>
</g>
<!-- anon_0_18_1 -->
<g id="node31" class="node"><title>anon_0_18_1</title>
<ellipse fill="white" stroke="black" cx="-129.603" cy="4.43195" rx="1" ry="1"/>
</g>
<!-- anon_0_18_0&#45;&gt;anon_0_18_1 -->
<g id="edge13" class="edge"><title>anon_0_18_0&#45;&gt;anon_0_18_1</title>
<path fill="none" stroke="black" d="M-88.2703,-9.26923C-93.9807,-7.3763 -121.343,1.69397 -128.095,3.93196"/>
</g>
<!-- anon_0_18_2 -->
<g id="node32" class="node"><title>anon_0_18_2</title>
<ellipse fill="white" stroke="black" cx="-166.961" cy="19.61" rx="1" ry="1"/>
</g>
<!-- anon_0_18_1&#45;&gt;anon_0_18_2 -->
<g id="edge14" class="edge"><title>anon_0_18_1&#45;&gt;anon_0_18_2</title>
<path fill="none" stroke="black" d="M-130.846,4.93695C-136.518,7.24137 -159.915,16.7471 -165.675,19.0875"/>
</g>
<!-- anon_0_18_2&#45;&gt;18 -->
<g id="edge15" class="edge"><title>anon_0_18_2&#45;&gt;18</title>
<path fill="none" stroke="black" d="M-168.212,20.0543C-173.614,21.973 -194.991,29.5666 -202.18,32.1202"/>
</g>
<!-- anon_0_22_1 -->
<g id="node34" class="node"><title>anon_0_22_1</title>
<ellipse fill="white" stroke="black" cx="-109.851" cy="-166.094" rx="1" ry="1"/>
</g>
<!-- anon_0_22_0&#45;&gt;anon_0_22_1 -->
<g id="edge20" class="edge"><title>anon_0_22_0&#45;&gt;anon_0_22_1</title>
<path fill="none" stroke="black" d="M-74.8839,-139.445C-79.7149,-143.127 -102.864,-160.768 -108.575,-165.121"/>
</g>
<!-- anon_0_22_1&#45;&gt;22 -->
<g id="edge21" class="edge"><title>anon_0_22_1&#45;&gt;22</title>
<path fill="none" stroke="black" d="M-111.147,-167.24C-115.838,-171.39 -131.96,-185.654 -137.841,-190.858"/>
</g>
<!-- anon_11_17_0&#45;&gt;17 -->
<g id="edge29" class="edge"><title>anon_11_17_0&#45;&gt;17</title>
<path fill="none" stroke="black" d="M75.5098,-241.005C78.4727,-245.231 92.0682,-264.624 96.6541,-271.165"/>
</g>
</g>
</svg>
