<?xml version="1.0" encoding="UTF-8" standalone="no"?>
<!DOCTYPE svg PUBLIC "-//W3C//DTD SVG 1.1//EN"
 "http://www.w3.org/Graphics/SVG/1.1/DTD/svg11.dtd">
<!-- Generated by graphviz version 2.38.0 (20140413.2041)
 -->
<!-- Title: %3 Pages: 1 -->
<svg width="126pt" height="128pt"
 viewBox="0.00 0.00 125.58 127.50" xmlns="http://www.w3.org/2000/svg" xmlns:xlink="http://www.w3.org/1999/xlink">
<g id="graph0" class="graph" transform="scale(1 1) rotate(0) translate(22.7129 110.464)">
<title>%3</title>
<polygon fill="white" stroke="none" points="-22.7129,17.0364 -22.7129,-110.464 102.868,-110.464 102.868,17.0364 -22.7129,17.0364"/>
<!-- 0 -->
<g id="node1" class="node"><title>0</title>
<ellipse fill="#787878" stroke="black" cx="45.5774" cy="-53.6173" rx="9" ry="9"/>
</g>
<!-- 1 -->
<g id="node2" class="node"><title>1</title>
<ellipse fill="#787878" stroke="black" cx="96.3681" cy="-44.2366" rx="2.5" ry="2.5"/>
</g>
<!-- 0&#45;&gt;1 -->
<g id="edge1" class="edge"><title>0&#45;&gt;1</title>
<path fill="none" stroke="black" d="M54.8932,-51.8968C66.8067,-49.6964 86.7407,-46.0147 93.7971,-44.7114"/>
</g>
<!-- 3 -->
<g id="node4" class="node"><title>3</title>
<ellipse fill="#787878" stroke="black" cx="34.0488" cy="-103.964" rx="2.5" ry="2.5"/>
</g>
<!-- 0&#45;&gt;3 -->
<g id="edge4" class="edge"><title>0&#45;&gt;3</title>
<path fill="none" stroke="black" d="M43.4629,-62.8517C40.7587,-74.661 36.2341,-94.4207 34.6324,-101.415"/>
</g>
<!-- anon_0_2_0 -->
<g id="node5" class="node"><title>anon_0_2_0</title>
<ellipse fill="white" stroke="black" cx="11.4305" cy="-17.939" rx="1" ry="1"/>
</g>
<!-- 0&#45;&gt;anon_0_2_0 -->
<g id="edge2" class="edge"><title>0&#45;&gt;anon_0_2_0</title>
<path fill="none" stroke="black" d="M39.3143,-47.0734C30.6886,-38.0608 15.8094,-22.5142 12.2243,-18.7684"/>
</g>
<!-- 2 -->
<g id="node3" class="node"><title>2</title>
<ellipse fill="#787878" stroke="black" cx="-16.2129" cy="10.5364" rx="2.5" ry="2.5"/>
</g>
<!-- anon_0_2_0&#45;&gt;2 -->
<g id="edge3" class="edge"><title>anon_0_2_0&#45;&gt;2</title>
<path fill="none" stroke="black" d="M10.2427,-16.7154C5.94369,-12.287 -8.83423,2.9357 -14.2248,8.48852"/>
</g>
</g>
</svg>
