<?xml version="1.0" encoding="UTF-8" standalone="no"?>
<!DOCTYPE svg PUBLIC "-//W3C//DTD SVG 1.1//EN"
 "http://www.w3.org/Graphics/SVG/1.1/DTD/svg11.dtd">
<!-- Generated by graphviz version 2.38.0 (20140413.2041)
 -->
<!-- Title: %3 Pages: 1 -->
<svg width="200pt" height="273pt"
 viewBox="0.00 0.00 199.94 273.32" xmlns="http://www.w3.org/2000/svg" xmlns:xlink="http://www.w3.org/1999/xlink">
<g id="graph0" class="graph" transform="scale(1 1) rotate(0) translate(76.7437 152.148)">
<title>%3</title>
<polygon fill="white" stroke="none" points="-76.7437,121.168 -76.7437,-152.148 123.198,-152.148 123.198,121.168 -76.7437,121.168"/>
<!-- 0 -->
<g id="node1" class="node"><title>0</title>
<path fill="olivedrab" stroke="black" stroke-width="0.5" d="M36.7435,-39.5765C36.7435,-39.5765 55.2435,-39.5765 55.2435,-39.5765 55.2435,-40.6085 55.1571,-41.6388 54.9853,-42.6564 54.8135,-43.674 54.5568,-44.6755 54.218,-45.6504 53.8791,-46.6252 53.4593,-47.57 52.9629,-48.4748 52.4665,-49.3796 51.8953,-50.2413 51.2551,-51.0508 50.615,-51.8604 49.9083,-52.615 49.1424,-53.3066 48.3764,-53.9983 47.5539,-54.6247 46.6835,-55.1792 45.8131,-55.7337 44.8978,-56.2145 43.9472,-56.6163 42.9966,-57.0182 42.0141,-57.3398 41.0099,-57.5778 40.0056,-57.8158 38.9832,-57.9694 37.9534,-58.0369 36.9236,-58.1044 35.8899,-58.0856 34.8632,-57.9807 33.8365,-57.8758 32.8204,-57.6852 31.8255,-57.4108 30.8306,-57.1365 29.8604,-56.7793 28.925,-56.3432 27.9897,-55.907 27.0925,-55.3934 26.2428,-54.8076 25.3931,-54.2218 24.5939,-53.5659 23.8536,-52.8468 23.1133,-52.1278 22.4345,-51.348 21.8242,-50.5157 21.214,-49.6834 20.6744,-48.8015 20.2113,-47.8793 19.7481,-46.957 19.3629,-45.9976 19.0597,-45.0111 18.7565,-44.0246 18.5364,-43.0144 18.4017,-41.9912 18.267,-40.968 18.2182,-39.9353 18.2557,-38.904 18.2932,-37.8726 18.417,-36.8462 18.6257,-35.8355 18.8344,-34.8247 19.1273,-33.8332 19.5013,-32.8714 19.8754,-31.9095 20.3292,-30.9806 20.8582,-30.0944 21.3872,-29.2083 21.9894,-28.3679 22.6585,-27.5822 23.3276,-26.7964 24.0613,-26.068 24.8519,-25.4047 25.6425,-24.7413 26.4872,-24.1452 27.3772,-23.6227 28.2672,-23.1002 29.1994,-22.6531 30.1639,-22.286 31.1285,-21.919 32.1221,-21.6333 33.1343,-21.432 34.1465,-21.2306 35.1738,-21.1143 36.2054,-21.0843 37.237,-21.0543 38.2693,-21.1107 39.2915,-21.2528 40.3137,-21.3949 41.3222,-21.6224 42.3065,-21.9327 43.2908,-22.2431 44.2474,-22.6352 45.1662,-23.1051 46.0851,-23.575 46.9631,-24.1209 47.7909,-24.7372 47.7909,-24.7372 36.7435,-39.5765 36.7435,-39.5765"/>
<path fill="#1874cd" stroke="black" stroke-width="0.5" d="M36.7435,-39.5765C36.7435,-39.5765 47.7909,-24.7372 47.7909,-24.7372 48.3666,-25.1658 48.9169,-25.6275 49.4389,-26.1201 49.961,-26.6126 50.4539,-27.1351 50.9153,-27.6849 51.3766,-28.2347 51.8056,-28.8109 52.2,-29.4106 52.5944,-30.0102 52.9535,-30.6323 53.2757,-31.2737 53.5978,-31.9151 53.8823,-32.5747 54.1278,-33.2491 54.3732,-33.9236 54.5793,-34.6117 54.7448,-35.3101 54.9103,-36.0085 55.035,-36.7159 55.1184,-37.4288 55.2017,-38.1416 55.2435,-38.8588 55.2435,-39.5765 55.2435,-39.5765 36.7435,-39.5765 36.7435,-39.5765"/>
<ellipse fill="none" stroke="black" cx="36.7435" cy="-39.5765" rx="18.5" ry="18.5"/>
</g>
<!-- 1 -->
<g id="node2" class="node"><title>1</title>
<ellipse fill="olivedrab" stroke="black" cx="111.698" cy="-46.8364" rx="7.5" ry="7.5"/>
</g>
<!-- 0&#45;&gt;1 -->
<g id="edge1" class="edge"><title>0&#45;&gt;1</title>
<path fill="none" stroke="black" d="M55.2716,-41.3711C70.8783,-42.8827 92.4345,-44.9706 103.858,-46.077"/>
</g>
<!-- 3 -->
<g id="node4" class="node"><title>3</title>
<ellipse fill="olivedrab" stroke="black" cx="23.2333" cy="-99.9062" rx="2.5" ry="2.5"/>
</g>
<!-- 0&#45;&gt;3 -->
<g id="edge6" class="edge"><title>0&#45;&gt;3</title>
<path fill="none" stroke="black" d="M32.69,-57.6774C29.5188,-71.8383 25.3966,-90.246 23.8528,-97.1398"/>
</g>
<!-- 4 -->
<g id="node5" class="node"><title>4</title>
<ellipse fill="olivedrab" stroke="black" cx="78.2656" cy="-101.5" rx="6" ry="6"/>
</g>
<!-- 0&#45;&gt;4 -->
<g id="edge7" class="edge"><title>0&#45;&gt;4</title>
<path fill="none" stroke="black" d="M47.2212,-55.2024C56.2545,-68.674 68.7626,-87.3278 74.7701,-96.2871"/>
</g>
<!-- 5 -->
<g id="node6" class="node"><title>5</title>
<ellipse fill="olivedrab" stroke="black" cx="-27.3904" cy="-47.4681" rx="2.5" ry="2.5"/>
</g>
<!-- 0&#45;&gt;5 -->
<g id="edge8" class="edge"><title>0&#45;&gt;5</title>
<path fill="none" stroke="black" d="M18.1933,-41.8591C5.56892,-43.4125 -10.4766,-45.3869 -19.7748,-46.531"/>
<polygon fill="black" stroke="black" points="-20.058,-44.8026 -24.8069,-47.1502 -19.6305,-48.2764 -20.058,-44.8026"/>
<text text-anchor="middle" x="-19.7907" y="-34.595" font-family="monospace" font-size="12.00">K251R</text>
</g>
<!-- 7 -->
<g id="node8" class="node"><title>7</title>
<ellipse fill="olivedrab" stroke="black" cx="95.124" cy="-8.65033" rx="2.5" ry="2.5"/>
</g>
<!-- 0&#45;&gt;7 -->
<g id="edge9" class="edge"><title>0&#45;&gt;7</title>
<path fill="none" stroke="black" d="M53.3168,-30.797C67.3404,-23.3682 86.175,-13.3909 92.7449,-9.91063"/>
</g>
<!-- 8 -->
<g id="node9" class="node"><title>8</title>
<ellipse fill="olivedrab" stroke="black" cx="66.7452" cy="17.7496" rx="2.5" ry="2.5"/>
</g>
<!-- 0&#45;&gt;8 -->
<g id="edge10" class="edge"><title>0&#45;&gt;8</title>
<path fill="none" stroke="black" d="M45.4212,-22.9954C52.6205,-9.2393 62.1981,9.06122 65.5366,15.4403"/>
</g>
<!-- 9 -->
<g id="node10" class="node"><title>9</title>
<ellipse fill="olivedrab" stroke="black" cx="-16.1198" cy="-86.573" rx="2.5" ry="2.5"/>
</g>
<!-- 0&#45;&gt;9 -->
<g id="edge11" class="edge"><title>0&#45;&gt;9</title>
<path fill="none" stroke="black" d="M22.8543,-51.9243C9.88377,-63.4553 -8.33242,-79.6498 -14.2111,-84.8761"/>
</g>
<!-- anon_0_2_0 -->
<g id="node11" class="node"><title>anon_0_2_0</title>
<ellipse fill="white" stroke="black" cx="-1.86514" cy="16.1008" rx="1" ry="1"/>
</g>
<!-- 0&#45;&gt;anon_0_2_0 -->
<g id="edge2" class="edge"><title>0&#45;&gt;anon_0_2_0</title>
<path fill="none" stroke="black" d="M26.1935,-24.3624C16.1911,-9.93801 2.2105,10.2234 -1.12836,15.0383"/>
</g>
<!-- 2 -->
<g id="node3" class="node"><title>2</title>
<ellipse fill="olivedrab" stroke="black" cx="-70.2437" cy="114.668" rx="2.5" ry="2.5"/>
</g>
<!-- 6 -->
<g id="node7" class="node"><title>6</title>
<ellipse fill="olivedrab" stroke="black" cx="102.002" cy="-144.648" rx="3.5" ry="3.5"/>
</g>
<!-- 4&#45;&gt;6 -->
<g id="edge12" class="edge"><title>4&#45;&gt;6</title>
<path fill="none" stroke="black" d="M81.1761,-106.791C86.1278,-115.792 96.0534,-133.835 100.159,-141.298"/>
</g>
<!-- anon_0_2_1 -->
<g id="node12" class="node"><title>anon_0_2_1</title>
<ellipse fill="white" stroke="black" cx="-25.0653" cy="49.7199" rx="1" ry="1"/>
</g>
<!-- anon_0_2_0&#45;&gt;anon_0_2_1 -->
<g id="edge3" class="edge"><title>anon_0_2_0&#45;&gt;anon_0_2_1</title>
<path fill="none" stroke="black" d="M-2.43863,16.9319C-5.56468,21.4618 -20.5437,43.1677 -24.2396,48.5234"/>
</g>
<!-- anon_0_2_2 -->
<g id="node13" class="node"><title>anon_0_2_2</title>
<ellipse fill="white" stroke="black" cx="-47.4859" cy="82.1696" rx="1" ry="1"/>
</g>
<!-- anon_0_2_1&#45;&gt;anon_0_2_2 -->
<g id="edge4" class="edge"><title>anon_0_2_1&#45;&gt;anon_0_2_2</title>
<path fill="none" stroke="black" d="M-26.0287,51.1142C-29.7837,56.5489 -43.3956,76.2496 -46.7399,81.0899"/>
</g>
<!-- anon_0_2_2&#45;&gt;2 -->
<g id="edge5" class="edge"><title>anon_0_2_2&#45;&gt;2</title>
<path fill="none" stroke="black" d="M-48.4637,83.566C-52.003,88.6201 -64.1692,105.994 -68.607,112.331"/>
</g>
</g>
</svg>
