<?xml version="1.0" encoding="UTF-8" standalone="no"?>
<!DOCTYPE svg PUBLIC "-//W3C//DTD SVG 1.1//EN"
 "http://www.w3.org/Graphics/SVG/1.1/DTD/svg11.dtd">
<!-- Generated by graphviz version 2.38.0 (20140413.2041)
 -->
<!-- Title: %3 Pages: 1 -->
<svg width="242pt" height="223pt"
 viewBox="0.00 0.00 242.08 222.72" xmlns="http://www.w3.org/2000/svg" xmlns:xlink="http://www.w3.org/1999/xlink">
<g id="graph0" class="graph" transform="scale(1 1) rotate(0) translate(68.06 140.945)">
<title>%3</title>
<polygon fill="white" stroke="none" points="-68.06,81.7736 -68.06,-140.945 174.023,-140.945 174.023,81.7736 -68.06,81.7736"/>
<!-- 0 -->
<g id="node1" class="node"><title>0</title>
<path fill="olivedrab" stroke="black" stroke-width="0.5" d="M3.65119,-39.2042C3.65119,-39.2042 22.1512,-39.2042 22.1512,-39.2042 22.1512,-40.2362 22.0648,-41.2664 21.893,-42.2841 21.7212,-43.3017 21.4645,-44.3032 21.1257,-45.278 20.7869,-46.2529 20.367,-47.1976 19.8706,-48.1025 19.3742,-49.0073 18.803,-49.869 18.1629,-50.6785 17.5228,-51.4881 16.816,-52.2426 16.0501,-52.9343 15.2841,-53.626 14.4617,-54.2524 13.5912,-54.8069 12.7208,-55.3614 11.8055,-55.8421 10.8549,-56.244 9.90436,-56.6459 8.92181,-56.9675 7.91759,-57.2055 6.91336,-57.4435 5.89098,-57.5971 4.86115,-57.6646 3.83132,-57.7321 2.79764,-57.7133 1.77094,-57.6084 0.744245,-57.5035 -0.271878,-57.3129 -1.26678,-57.0385 -2.26169,-56.7642 -3.2319,-56.407 -4.16725,-55.9709 -5.10259,-55.5347 -5.99981,-55.021 -6.84949,-54.4352 -7.69917,-53.8495 -8.49834,-53.1936 -9.23864,-52.4745 -9.97894,-51.7554 -10.6578,-50.9757 -11.268,-50.1434 -11.8783,-49.3111 -12.4178,-48.4292 -12.881,-47.507 -13.3442,-46.5847 -13.7294,-45.6253 -14.0326,-44.6388 -14.3357,-43.6523 -14.5558,-42.6421 -14.6905,-41.6189 -14.8252,-40.5957 -14.8741,-39.563 -14.8366,-38.5316 -14.7991,-37.5003 -14.6753,-36.4739 -14.4666,-35.4631 -14.2579,-34.4524 -13.965,-33.4609 -13.591,-32.4991 -13.2169,-31.5372 -12.763,-30.6083 -12.2341,-29.7221 -11.7051,-28.836 -11.1029,-27.9956 -10.4338,-27.2099 -9.76466,-26.4241 -9.03097,-25.6957 -8.24038,-25.0323 -7.44979,-24.369 -6.60507,-23.7729 -5.71507,-23.2504 -4.82507,-22.7279 -3.89291,-22.2808 -2.92834,-21.9137 -1.96378,-21.5467 -0.970187,-21.261 0.0420243,-21.0596 1.05424,-20.8583 2.08152,-20.742 3.11313,-20.712 4.14473,-20.682 5.17704,-20.7383 6.19925,-20.8805 7.22146,-21.0226 8.22998,-21.2501 9.21425,-21.5604 10.1985,-21.8707 11.1551,-22.2629 12.074,-22.7328 12.9929,-23.2027 13.8708,-23.7486 14.6986,-24.3649 14.6986,-24.3649 3.65119,-39.2042 3.65119,-39.2042"/>
<path fill="#1874cd" stroke="black" stroke-width="0.5" d="M3.65119,-39.2042C3.65119,-39.2042 14.6986,-24.3649 14.6986,-24.3649 15.2743,-24.7935 15.8246,-25.2552 16.3467,-25.7478 16.8687,-26.2403 17.3617,-26.7628 17.823,-27.3126 18.2844,-27.8624 18.7133,-28.4386 19.1077,-29.0383 19.5021,-29.6379 19.8613,-30.26 20.1834,-30.9014 20.5055,-31.5428 20.79,-32.2024 21.0355,-32.8768 21.281,-33.5512 21.487,-34.2394 21.6525,-34.9378 21.818,-35.6362 21.9428,-36.3436 22.0261,-37.0565 22.1094,-37.7693 22.1512,-38.4864 22.1512,-39.2042 22.1512,-39.2042 3.65119,-39.2042 3.65119,-39.2042"/>
<ellipse fill="none" stroke="black" cx="3.65119" cy="-39.2042" rx="18.5" ry="18.5"/>
</g>
<!-- 1 -->
<g id="node2" class="node"><title>1</title>
<ellipse fill="olivedrab" stroke="black" cx="35.3291" cy="29.8413" rx="7.5" ry="7.5"/>
</g>
<!-- 0&#45;&gt;1 -->
<g id="edge1" class="edge"><title>0&#45;&gt;1</title>
<path fill="none" stroke="black" d="M11.4817,-22.1367C18.1508,-7.60066 27.3905,12.5383 32.1749,22.9666"/>
</g>
<!-- 3 -->
<g id="node4" class="node"><title>3</title>
<ellipse fill="olivedrab" stroke="black" cx="1.61919" cy="-102.413" rx="2.5" ry="2.5"/>
</g>
<!-- 0&#45;&gt;3 -->
<g id="edge6" class="edge"><title>0&#45;&gt;3</title>
<path fill="none" stroke="black" d="M3.05252,-57.827C2.56551,-72.976 1.92367,-92.9415 1.70011,-99.8959"/>
</g>
<!-- 4 -->
<g id="node5" class="node"><title>4</title>
<ellipse fill="olivedrab" stroke="black" cx="-19.6287" cy="34.4864" rx="6" ry="6"/>
</g>
<!-- 0&#45;&gt;4 -->
<g id="edge7" class="edge"><title>0&#45;&gt;4</title>
<path fill="none" stroke="black" d="M-1.98421,-21.3657C-7.09769,-5.17943 -14.3402,17.746 -17.7347,28.4911"/>
</g>
<!-- 5 -->
<g id="node6" class="node"><title>5</title>
<ellipse fill="olivedrab" stroke="black" cx="-37.3452" cy="-95.2161" rx="2.5" ry="2.5"/>
</g>
<!-- 0&#45;&gt;5 -->
<g id="edge8" class="edge"><title>0&#45;&gt;5</title>
<path fill="none" stroke="black" d="M-7.33508,-54.2143C-15.5059,-65.3779 -26.2677,-80.0813 -32.4346,-88.507"/>
<polygon fill="black" stroke="black" points="-34.0753,-87.7857 -35.6163,-92.8541 -31.251,-89.8529 -34.0753,-87.7857"/>
<text text-anchor="middle" x="-38.8848" y="-74.7607" font-family="monospace" font-size="12.00">K251R</text>
</g>
<!-- 8 -->
<g id="node9" class="node"><title>8</title>
<ellipse fill="olivedrab" stroke="black" cx="-56.1472" cy="-22.2192" rx="2.5" ry="2.5"/>
</g>
<!-- 0&#45;&gt;8 -->
<g id="edge9" class="edge"><title>0&#45;&gt;8</title>
<path fill="none" stroke="black" d="M-14.2903,-34.1081C-28.3265,-30.1213 -46.5721,-24.9389 -53.4052,-22.998"/>
</g>
<!-- 9 -->
<g id="node10" class="node"><title>9</title>
<ellipse fill="olivedrab" stroke="black" cx="58.9242" cy="-13.8481" rx="2.5" ry="2.5"/>
</g>
<!-- 0&#45;&gt;9 -->
<g id="edge10" class="edge"><title>0&#45;&gt;9</title>
<path fill="none" stroke="black" d="M20.5352,-31.4587C33.4883,-25.5166 50.1747,-17.8618 56.4192,-14.9972"/>
</g>
<!-- 10 -->
<g id="node11" class="node"><title>10</title>
<ellipse fill="olivedrab" stroke="black" cx="-61.56" cy="-62.0065" rx="2.5" ry="2.5"/>
</g>
<!-- 0&#45;&gt;10 -->
<g id="edge11" class="edge"><title>0&#45;&gt;10</title>
<path fill="none" stroke="black" d="M-13.8242,-45.3148C-29.5187,-50.8027 -51.2228,-58.3919 -58.81,-61.0449"/>
</g>
<!-- anon_0_2_0 -->
<g id="node12" class="node"><title>anon_0_2_0</title>
<ellipse fill="white" stroke="black" cx="62.6223" cy="-75.4462" rx="1" ry="1"/>
</g>
<!-- 0&#45;&gt;anon_0_2_0 -->
<g id="edge2" class="edge"><title>0&#45;&gt;anon_0_2_0</title>
<path fill="none" stroke="black" d="M19.4544,-48.9164C34.7388,-58.3098 56.3259,-71.5766 61.4839,-74.7465"/>
</g>
<!-- 7 -->
<g id="node8" class="node"><title>7</title>
<ellipse fill="olivedrab" stroke="black" cx="14.0353" cy="74.2736" rx="3.5" ry="3.5"/>
</g>
<!-- 1&#45;&gt;7 -->
<g id="edge12" class="edge"><title>1&#45;&gt;7</title>
<path fill="none" stroke="black" d="M32.0019,36.7839C27.3231,46.5468 18.989,63.9371 15.5667,71.0781"/>
</g>
<!-- 2 -->
<g id="node3" class="node"><title>2</title>
<ellipse fill="olivedrab" stroke="black" cx="167.523" cy="-134.445" rx="2.5" ry="2.5"/>
</g>
<!-- 6 -->
<g id="node7" class="node"><title>6</title>
<ellipse fill="olivedrab" stroke="black" cx="-59.5879" cy="66.1119" rx="3.5" ry="3.5"/>
</g>
<!-- 4&#45;&gt;6 -->
<g id="edge13" class="edge"><title>4&#45;&gt;6</title>
<path fill="none" stroke="black" d="M-24.5285,38.3643C-32.8646,44.9619 -49.5741,58.1865 -56.4857,63.6566"/>
</g>
<!-- 4&#45;&gt;7 -->
<g id="edge14" class="edge"><title>4&#45;&gt;7</title>
<path fill="none" stroke="black" stroke-dasharray="5,2" d="M-15.5008,39.3651C-8.33749,47.8313 6.16503,64.9717 11.7611,71.5857"/>
</g>
<!-- anon_0_2_1 -->
<g id="node13" class="node"><title>anon_0_2_1</title>
<ellipse fill="white" stroke="black" cx="97.8527" cy="-96.686" rx="1" ry="1"/>
</g>
<!-- anon_0_2_0&#45;&gt;anon_0_2_1 -->
<g id="edge3" class="edge"><title>anon_0_2_0&#45;&gt;anon_0_2_1</title>
<path fill="none" stroke="black" d="M63.4932,-75.9712C68.2402,-78.8331 90.9865,-92.5465 96.5989,-95.9301"/>
</g>
<!-- anon_0_2_2 -->
<g id="node14" class="node"><title>anon_0_2_2</title>
<ellipse fill="white" stroke="black" cx="131.879" cy="-116.995" rx="1" ry="1"/>
</g>
<!-- anon_0_2_1&#45;&gt;anon_0_2_2 -->
<g id="edge4" class="edge"><title>anon_0_2_1&#45;&gt;anon_0_2_2</title>
<path fill="none" stroke="black" d="M99.3148,-97.5587C105.013,-100.96 125.671,-113.29 130.746,-116.319"/>
</g>
<!-- anon_0_2_2&#45;&gt;2 -->
<g id="edge5" class="edge"><title>anon_0_2_2&#45;&gt;2</title>
<path fill="none" stroke="black" d="M133.41,-117.745C138.953,-120.458 158.009,-129.787 164.959,-133.19"/>
</g>
</g>
</svg>
