<?xml version="1.0" encoding="UTF-8" standalone="no"?>
<!DOCTYPE svg PUBLIC "-//W3C//DTD SVG 1.1//EN"
 "http://www.w3.org/Graphics/SVG/1.1/DTD/svg11.dtd">
<!-- Generated by graphviz version 2.38.0 (20140413.2041)
 -->
<!-- Title: %3 Pages: 1 -->
<svg width="233pt" height="264pt"
 viewBox="0.00 0.00 232.94 264.19" xmlns="http://www.w3.org/2000/svg" xmlns:xlink="http://www.w3.org/1999/xlink">
<g id="graph0" class="graph" transform="scale(1 1) rotate(0) translate(73.7065 218.737)">
<title>%3</title>
<polygon fill="white" stroke="none" points="-73.7065,45.4551 -73.7065,-218.737 159.232,-218.737 159.232,45.4551 -73.7065,45.4551"/>
<!-- 0 -->
<g id="node1" class="node"><title>0</title>
<path fill="palegreen" stroke="black" stroke-width="0.5" d="M55.5171,-53.8884C55.5171,-53.8884 84.5171,-53.8884 84.5171,-53.8884 84.5171,-55.0479 84.4475,-56.2063 84.3088,-57.3574 84.1701,-58.5086 83.9625,-59.6504 83.6871,-60.7766 83.4117,-61.9029 83.069,-63.0117 82.6609,-64.0969 82.2527,-65.1822 81.7799,-66.2419 81.2448,-67.2706 80.7098,-68.2992 80.1136,-69.2948 79.4593,-70.2521 78.8051,-71.2093 78.094,-72.1265 77.33,-72.9986 76.5659,-73.8707 75.7503,-74.6962 74.8874,-75.4706 74.0245,-76.2451 73.1159,-76.9671 72.1666,-77.6328 71.2173,-78.2984 70.2289,-78.9066 69.2067,-79.4539 68.1846,-80.0012 67.1306,-80.4868 66.0503,-80.9079 64.97,-81.329 63.8654,-81.685 62.7426,-81.9739 61.6197,-82.2628 60.4804,-82.4841 59.3311,-82.6365 58.1817,-82.789 57.0242,-82.8724 55.8648,-82.8864 54.7054,-82.9003 53.5463,-82.8446 52.3935,-82.7197 51.2408,-82.5948 50.0966,-82.4009 48.9671,-82.1391 47.8376,-81.8772 46.7249,-81.5478 45.6348,-81.1527 44.5447,-80.7576 43.4794,-80.2975 42.4444,-79.7748 41.4094,-79.2522 40.4067,-78.6679 39.4417,-78.0252 38.4767,-77.3825 37.5511,-76.6824 36.6699,-75.9289 35.7887,-75.1754 34.9534,-74.3697 34.1687,-73.5161 33.3839,-72.6626 32.6511,-71.7628 31.9741,-70.8215 31.2971,-69.8802 30.6771,-68.8992 30.1176,-67.8837 29.558,-66.8682 29.0599,-65.82 28.6258,-64.7449 28.1918,-63.6697 27.8226,-62.5695 27.5203,-61.4502 27.218,-60.3308 26.983,-59.1943 26.8168,-58.0469 26.6505,-56.8994 26.5532,-55.743 26.5254,-54.5838 26.4976,-53.4247 26.5393,-52.265 26.6504,-51.1108 26.7615,-49.9567 26.9416,-48.8103 27.1899,-47.6777 27.4382,-46.5452 27.7543,-45.4285 28.1363,-44.3338 28.5183,-43.2391 28.9656,-42.1682 29.4758,-41.1271 29.986,-40.0859 30.5582,-39.0763 31.1893,-38.1036 31.8204,-37.131 32.5093,-36.197 33.2522,-35.3069 33.2522,-35.3069 55.5171,-53.8884 55.5171,-53.8884"/>
<path fill="#787878" stroke="black" stroke-width="0.5" d="M55.5171,-53.8884C55.5171,-53.8884 33.2522,-35.3069 33.2522,-35.3069 34.1996,-34.1717 35.2324,-33.1106 36.3416,-32.1329 37.4509,-31.1552 38.6332,-30.2638 39.8784,-29.4665 41.1236,-28.6691 42.4279,-27.9682 43.78,-27.3698 45.1321,-26.7713 46.5279,-26.2772 47.9554,-25.8916 49.3828,-25.5061 50.8376,-25.2303 52.3071,-25.0666 53.7766,-24.903 55.2565,-24.8519 56.7338,-24.914 58.2111,-24.976 59.6814,-25.1509 61.1321,-25.4372 62.5827,-25.7235 64.0093,-26.1203 65.3993,-26.6242 66.7894,-27.128 68.139,-27.7374 69.4361,-28.4471 70.7332,-29.1568 71.9742,-29.9646 73.1482,-30.8636 74.3221,-31.7625 75.4256,-32.7499 76.4489,-33.8171 77.4723,-34.8843 78.4125,-36.0283 79.2614,-37.2389 80.1103,-38.4495 80.8653,-39.7233 81.52,-41.0491 82.1746,-42.3748 82.7269,-43.7488 83.172,-45.1588 83.617,-46.5688 83.9537,-48.0107 84.1788,-49.4721 84.404,-50.9334 84.5171,-52.4098 84.5171,-53.8884 84.5171,-53.8884 55.5171,-53.8884 55.5171,-53.8884"/>
<ellipse fill="none" stroke="black" cx="55.5171" cy="-53.8884" rx="29" ry="29"/>
</g>
<!-- 1 -->
<g id="node2" class="node"><title>1</title>
<ellipse fill="#787878" stroke="black" cx="18.1585" cy="33.9551" rx="7.5" ry="7.5"/>
</g>
<!-- 0&#45;&gt;1 -->
<g id="edge1" class="edge"><title>0&#45;&gt;1</title>
<path fill="none" stroke="black" d="M44.1053,-27.0552C36.1229,-8.28573 26.0428,15.4163 21.1271,26.975"/>
</g>
<!-- 4 -->
<g id="node5" class="node"><title>4</title>
<ellipse fill="#787878" stroke="black" cx="132.148" cy="-56.008" rx="2.5" ry="2.5"/>
</g>
<!-- 0&#45;&gt;4 -->
<g id="edge6" class="edge"><title>0&#45;&gt;4</title>
<path fill="none" stroke="black" d="M84.9255,-54.7018C102.484,-55.1875 122.684,-55.7462 129.642,-55.9386"/>
</g>
<!-- 5 -->
<g id="node6" class="node"><title>5</title>
<ellipse fill="#787878" stroke="black" cx="81.8116" cy="-108.86" rx="2.5" ry="2.5"/>
</g>
<!-- 0&#45;&gt;5 -->
<g id="edge7" class="edge"><title>0&#45;&gt;5</title>
<path fill="none" stroke="black" d="M68.0482,-80.0863C73.1276,-90.7051 78.3298,-101.581 80.6134,-106.355"/>
</g>
<!-- 6 -->
<g id="node7" class="node"><title>6</title>
<ellipse fill="palegreen" stroke="black" cx="26.515" cy="-149.46" rx="9" ry="9"/>
</g>
<!-- 0&#45;&gt;6 -->
<g id="edge8" class="edge"><title>0&#45;&gt;6</title>
<path fill="none" stroke="black" d="M47.0505,-81.7887C40.9646,-101.844 33.1528,-127.587 29.1451,-140.793"/>
</g>
<!-- 7 -->
<g id="node8" class="node"><title>7</title>
<ellipse fill="palegreen" stroke="black" cx="3.99803" cy="-13.9844" rx="2.5" ry="2.5"/>
</g>
<!-- 0&#45;&gt;7 -->
<g id="edge9" class="edge"><title>0&#45;&gt;7</title>
<path fill="none" stroke="black" d="M32.4699,-36.0373C21.9677,-27.9027 10.8573,-19.2972 6.22621,-15.7102"/>
</g>
<!-- 9 -->
<g id="node10" class="node"><title>9</title>
<ellipse fill="palegreen" stroke="black" cx="127.993" cy="-99.4588" rx="2.5" ry="2.5"/>
</g>
<!-- 0&#45;&gt;9 -->
<g id="edge10" class="edge"><title>0&#45;&gt;9</title>
<path fill="none" stroke="black" d="M80.4592,-69.5712C94.9723,-78.6965 112.171,-89.5105 121.382,-95.3021"/>
<polygon fill="black" stroke="black" points="120.638,-96.901 125.802,-98.081 122.501,-93.9381 120.638,-96.901"/>
<text text-anchor="middle" x="77.9208" y="-85.8367" font-family="monospace" font-size="12.00">F1529L</text>
</g>
<!-- 10 -->
<g id="node11" class="node"><title>10</title>
<ellipse fill="palegreen" stroke="black" cx="65.1507" cy="17.2929" rx="2.5" ry="2.5"/>
</g>
<!-- 0&#45;&gt;10 -->
<g id="edge11" class="edge"><title>0&#45;&gt;10</title>
<path fill="none" stroke="black" d="M59.4354,-24.9363C61.5608,-9.23229 63.9281,8.25941 64.8021,14.7175"/>
</g>
<!-- anon_0_2_0 -->
<g id="node13" class="node"><title>anon_0_2_0</title>
<ellipse fill="white" stroke="black" cx="121.56" cy="0.760812" rx="1" ry="1"/>
</g>
<!-- 0&#45;&gt;anon_0_2_0 -->
<g id="edge2" class="edge"><title>0&#45;&gt;anon_0_2_0</title>
<path fill="none" stroke="black" d="M77.8762,-35.3867C94.6409,-21.5143 115.513,-4.24316 120.469,-0.142133"/>
</g>
<!-- anon_0_3_0 -->
<g id="node14" class="node"><title>anon_0_3_0</title>
<ellipse fill="white" stroke="black" cx="-28.8767" cy="-51.6252" rx="1" ry="1"/>
</g>
<!-- 0&#45;&gt;anon_0_3_0 -->
<g id="edge4" class="edge"><title>0&#45;&gt;anon_0_3_0</title>
<path fill="none" stroke="black" d="M26.4735,-53.1096C5.11292,-52.5367 -21.2442,-51.8299 -27.4997,-51.6621"/>
</g>
<!-- 2 -->
<g id="node3" class="node"><title>2</title>
<ellipse fill="#787878" stroke="black" cx="152.732" cy="25.7839" rx="2.5" ry="2.5"/>
</g>
<!-- 3 -->
<g id="node4" class="node"><title>3</title>
<ellipse fill="#787878" stroke="black" cx="-67.2065" cy="-40.0352" rx="2.5" ry="2.5"/>
</g>
<!-- 11 -->
<g id="node12" class="node"><title>11</title>
<ellipse fill="palegreen" stroke="black" cx="60.2175" cy="-193.915" rx="2.5" ry="2.5"/>
</g>
<!-- 6&#45;&gt;11 -->
<g id="edge14" class="edge"><title>6&#45;&gt;11</title>
<path fill="none" stroke="black" d="M32.0802,-156.801C39.8579,-167.06 53.5718,-185.149 58.4411,-191.572"/>
</g>
<!-- anon_6_8_0 -->
<g id="node15" class="node"><title>anon_6_8_0</title>
<ellipse fill="white" stroke="black" cx="-14.609" cy="-181.051" rx="1" ry="1"/>
</g>
<!-- 6&#45;&gt;anon_6_8_0 -->
<g id="edge12" class="edge"><title>6&#45;&gt;anon_6_8_0</title>
<path fill="none" stroke="black" d="M19.3517,-154.963C9.04222,-162.883 -9.22682,-176.917 -13.633,-180.302"/>
</g>
<!-- 8 -->
<g id="node9" class="node"><title>8</title>
<ellipse fill="palegreen" stroke="black" cx="-39.4018" cy="-212.237" rx="2.5" ry="2.5"/>
</g>
<!-- anon_0_2_0&#45;&gt;2 -->
<g id="edge3" class="edge"><title>anon_0_2_0&#45;&gt;2</title>
<path fill="none" stroke="black" d="M122.9,1.83602C127.747,5.72755 144.411,19.1047 150.49,23.9843"/>
</g>
<!-- anon_0_3_0&#45;&gt;3 -->
<g id="edge5" class="edge"><title>anon_0_3_0&#45;&gt;3</title>
<path fill="none" stroke="black" d="M-30.152,-51.2396C-35.6597,-49.5742 -57.4569,-42.9832 -64.787,-40.7668"/>
</g>
<!-- anon_6_8_0&#45;&gt;8 -->
<g id="edge13" class="edge"><title>anon_6_8_0&#45;&gt;8</title>
<path fill="none" stroke="black" d="M-15.6743,-182.391C-19.53,-187.241 -32.784,-203.913 -37.6187,-209.994"/>
</g>
</g>
</svg>
